G04 #@! TF.GenerationSoftware,KiCad,Pcbnew,(5.1.2)-2*
G04 #@! TF.CreationDate,2019-07-08T09:46:09+08:00*
G04 #@! TF.ProjectId,active_filter,61637469-7665-45f6-9669-6c7465722e6b,rev?*
G04 #@! TF.SameCoordinates,Original*
G04 #@! TF.FileFunction,Legend,Top*
G04 #@! TF.FilePolarity,Positive*
%FSLAX46Y46*%
G04 Gerber Fmt 4.6, Leading zero omitted, Abs format (unit mm)*
G04 Created by KiCad (PCBNEW (5.1.2)-2) date 2019-07-08 09:46:09*
%MOMM*%
%LPD*%
G04 APERTURE LIST*
%ADD10C,0.150000*%
%ADD11C,0.120000*%
G04 APERTURE END LIST*
D10*
X112729047Y-98004761D02*
X112824285Y-98052380D01*
X113014761Y-98052380D01*
X113110000Y-98004761D01*
X113157619Y-97909523D01*
X113157619Y-97861904D01*
X113110000Y-97766666D01*
X113014761Y-97719047D01*
X112871904Y-97719047D01*
X112776666Y-97671428D01*
X112729047Y-97576190D01*
X112729047Y-97528571D01*
X112776666Y-97433333D01*
X112871904Y-97385714D01*
X113014761Y-97385714D01*
X113110000Y-97433333D01*
X113967142Y-98004761D02*
X113871904Y-98052380D01*
X113681428Y-98052380D01*
X113586190Y-98004761D01*
X113538571Y-97909523D01*
X113538571Y-97528571D01*
X113586190Y-97433333D01*
X113681428Y-97385714D01*
X113871904Y-97385714D01*
X113967142Y-97433333D01*
X114014761Y-97528571D01*
X114014761Y-97623809D01*
X113538571Y-97719047D01*
X114871904Y-98004761D02*
X114776666Y-98052380D01*
X114586190Y-98052380D01*
X114490952Y-98004761D01*
X114443333Y-97957142D01*
X114395714Y-97861904D01*
X114395714Y-97576190D01*
X114443333Y-97480952D01*
X114490952Y-97433333D01*
X114586190Y-97385714D01*
X114776666Y-97385714D01*
X114871904Y-97433333D01*
X115443333Y-98052380D02*
X115348095Y-98004761D01*
X115300476Y-97957142D01*
X115252857Y-97861904D01*
X115252857Y-97576190D01*
X115300476Y-97480952D01*
X115348095Y-97433333D01*
X115443333Y-97385714D01*
X115586190Y-97385714D01*
X115681428Y-97433333D01*
X115729047Y-97480952D01*
X115776666Y-97576190D01*
X115776666Y-97861904D01*
X115729047Y-97957142D01*
X115681428Y-98004761D01*
X115586190Y-98052380D01*
X115443333Y-98052380D01*
X116205238Y-97385714D02*
X116205238Y-98052380D01*
X116205238Y-97480952D02*
X116252857Y-97433333D01*
X116348095Y-97385714D01*
X116490952Y-97385714D01*
X116586190Y-97433333D01*
X116633809Y-97528571D01*
X116633809Y-98052380D01*
X117538571Y-98052380D02*
X117538571Y-97052380D01*
X117538571Y-98004761D02*
X117443333Y-98052380D01*
X117252857Y-98052380D01*
X117157619Y-98004761D01*
X117110000Y-97957142D01*
X117062380Y-97861904D01*
X117062380Y-97576190D01*
X117110000Y-97480952D01*
X117157619Y-97433333D01*
X117252857Y-97385714D01*
X117443333Y-97385714D01*
X117538571Y-97433333D01*
X118014761Y-97671428D02*
X118776666Y-97671428D01*
X119395714Y-98052380D02*
X119300476Y-98004761D01*
X119252857Y-97957142D01*
X119205238Y-97861904D01*
X119205238Y-97576190D01*
X119252857Y-97480952D01*
X119300476Y-97433333D01*
X119395714Y-97385714D01*
X119538571Y-97385714D01*
X119633809Y-97433333D01*
X119681428Y-97480952D01*
X119729047Y-97576190D01*
X119729047Y-97861904D01*
X119681428Y-97957142D01*
X119633809Y-98004761D01*
X119538571Y-98052380D01*
X119395714Y-98052380D01*
X120157619Y-98052380D02*
X120157619Y-97385714D01*
X120157619Y-97576190D02*
X120205238Y-97480952D01*
X120252857Y-97433333D01*
X120348095Y-97385714D01*
X120443333Y-97385714D01*
X121205238Y-98052380D02*
X121205238Y-97052380D01*
X121205238Y-98004761D02*
X121110000Y-98052380D01*
X120919523Y-98052380D01*
X120824285Y-98004761D01*
X120776666Y-97957142D01*
X120729047Y-97861904D01*
X120729047Y-97576190D01*
X120776666Y-97480952D01*
X120824285Y-97433333D01*
X120919523Y-97385714D01*
X121110000Y-97385714D01*
X121205238Y-97433333D01*
X122062380Y-98004761D02*
X121967142Y-98052380D01*
X121776666Y-98052380D01*
X121681428Y-98004761D01*
X121633809Y-97909523D01*
X121633809Y-97528571D01*
X121681428Y-97433333D01*
X121776666Y-97385714D01*
X121967142Y-97385714D01*
X122062380Y-97433333D01*
X122110000Y-97528571D01*
X122110000Y-97623809D01*
X121633809Y-97719047D01*
X122538571Y-98052380D02*
X122538571Y-97385714D01*
X122538571Y-97576190D02*
X122586190Y-97480952D01*
X122633809Y-97433333D01*
X122729047Y-97385714D01*
X122824285Y-97385714D01*
X114371904Y-99702380D02*
X114371904Y-99178571D01*
X114324285Y-99083333D01*
X114229047Y-99035714D01*
X114038571Y-99035714D01*
X113943333Y-99083333D01*
X114371904Y-99654761D02*
X114276666Y-99702380D01*
X114038571Y-99702380D01*
X113943333Y-99654761D01*
X113895714Y-99559523D01*
X113895714Y-99464285D01*
X113943333Y-99369047D01*
X114038571Y-99321428D01*
X114276666Y-99321428D01*
X114371904Y-99273809D01*
X115276666Y-99654761D02*
X115181428Y-99702380D01*
X114990952Y-99702380D01*
X114895714Y-99654761D01*
X114848095Y-99607142D01*
X114800476Y-99511904D01*
X114800476Y-99226190D01*
X114848095Y-99130952D01*
X114895714Y-99083333D01*
X114990952Y-99035714D01*
X115181428Y-99035714D01*
X115276666Y-99083333D01*
X115562380Y-99035714D02*
X115943333Y-99035714D01*
X115705238Y-98702380D02*
X115705238Y-99559523D01*
X115752857Y-99654761D01*
X115848095Y-99702380D01*
X115943333Y-99702380D01*
X116276666Y-99702380D02*
X116276666Y-99035714D01*
X116276666Y-98702380D02*
X116229047Y-98750000D01*
X116276666Y-98797619D01*
X116324285Y-98750000D01*
X116276666Y-98702380D01*
X116276666Y-98797619D01*
X116657619Y-99035714D02*
X116895714Y-99702380D01*
X117133809Y-99035714D01*
X117895714Y-99654761D02*
X117800476Y-99702380D01*
X117610000Y-99702380D01*
X117514761Y-99654761D01*
X117467142Y-99559523D01*
X117467142Y-99178571D01*
X117514761Y-99083333D01*
X117610000Y-99035714D01*
X117800476Y-99035714D01*
X117895714Y-99083333D01*
X117943333Y-99178571D01*
X117943333Y-99273809D01*
X117467142Y-99369047D01*
X118990952Y-99035714D02*
X119371904Y-99035714D01*
X119133809Y-99702380D02*
X119133809Y-98845238D01*
X119181428Y-98750000D01*
X119276666Y-98702380D01*
X119371904Y-98702380D01*
X119705238Y-99702380D02*
X119705238Y-99035714D01*
X119705238Y-98702380D02*
X119657619Y-98750000D01*
X119705238Y-98797619D01*
X119752857Y-98750000D01*
X119705238Y-98702380D01*
X119705238Y-98797619D01*
X120324285Y-99702380D02*
X120229047Y-99654761D01*
X120181428Y-99559523D01*
X120181428Y-98702380D01*
X120562380Y-99035714D02*
X120943333Y-99035714D01*
X120705238Y-98702380D02*
X120705238Y-99559523D01*
X120752857Y-99654761D01*
X120848095Y-99702380D01*
X120943333Y-99702380D01*
X121657619Y-99654761D02*
X121562380Y-99702380D01*
X121371904Y-99702380D01*
X121276666Y-99654761D01*
X121229047Y-99559523D01*
X121229047Y-99178571D01*
X121276666Y-99083333D01*
X121371904Y-99035714D01*
X121562380Y-99035714D01*
X121657619Y-99083333D01*
X121705238Y-99178571D01*
X121705238Y-99273809D01*
X121229047Y-99369047D01*
X122133809Y-99702380D02*
X122133809Y-99035714D01*
X122133809Y-99226190D02*
X122181428Y-99130952D01*
X122229047Y-99083333D01*
X122324285Y-99035714D01*
X122419523Y-99035714D01*
D11*
X134310000Y-103930000D02*
X134310000Y-105180000D01*
X135560000Y-103930000D02*
X134310000Y-103930000D01*
X143960000Y-109430000D02*
X139660000Y-109430000D01*
X143960000Y-106480000D02*
X143960000Y-109430000D01*
X144710000Y-106480000D02*
X143960000Y-106480000D01*
X135360000Y-109430000D02*
X139660000Y-109430000D01*
X135360000Y-106480000D02*
X135360000Y-109430000D01*
X134610000Y-106480000D02*
X135360000Y-106480000D01*
X144710000Y-104230000D02*
X142910000Y-104230000D01*
X144710000Y-104980000D02*
X144710000Y-104230000D01*
X142910000Y-104980000D02*
X144710000Y-104980000D01*
X142910000Y-104230000D02*
X142910000Y-104980000D01*
X136410000Y-104230000D02*
X134610000Y-104230000D01*
X136410000Y-104980000D02*
X136410000Y-104230000D01*
X134610000Y-104980000D02*
X136410000Y-104980000D01*
X134610000Y-104230000D02*
X134610000Y-104980000D01*
X141410000Y-104230000D02*
X137910000Y-104230000D01*
X141410000Y-104980000D02*
X141410000Y-104230000D01*
X137910000Y-104980000D02*
X141410000Y-104980000D01*
X137910000Y-104230000D02*
X137910000Y-104980000D01*
X144720000Y-104220000D02*
X134600000Y-104220000D01*
X144720000Y-110190000D02*
X144720000Y-104220000D01*
X134600000Y-110190000D02*
X144720000Y-110190000D01*
X134600000Y-104220000D02*
X134600000Y-110190000D01*
X132020000Y-87630000D02*
X132020000Y-86300000D01*
X132020000Y-86300000D02*
X133350000Y-86300000D01*
X134620000Y-86300000D02*
X139760000Y-86300000D01*
X139760000Y-88960000D02*
X139760000Y-86300000D01*
X134620000Y-88960000D02*
X139760000Y-88960000D01*
X134620000Y-88960000D02*
X134620000Y-86300000D01*
X128270000Y-83125000D02*
X129600000Y-83125000D01*
X129600000Y-83125000D02*
X129600000Y-84455000D01*
X129600000Y-85725000D02*
X129600000Y-90865000D01*
X126940000Y-90865000D02*
X129600000Y-90865000D01*
X126940000Y-85725000D02*
X126940000Y-90865000D01*
X126940000Y-85725000D02*
X129600000Y-85725000D01*
X147955000Y-95310000D02*
X146625000Y-95310000D01*
X146625000Y-95310000D02*
X146625000Y-93980000D01*
X146625000Y-92710000D02*
X146625000Y-87570000D01*
X149285000Y-87570000D02*
X146625000Y-87570000D01*
X149285000Y-92710000D02*
X149285000Y-87570000D01*
X149285000Y-92710000D02*
X146625000Y-92710000D01*
X151705000Y-86995000D02*
X151705000Y-85665000D01*
X151705000Y-85665000D02*
X153035000Y-85665000D01*
X154305000Y-85665000D02*
X159445000Y-85665000D01*
X159445000Y-88325000D02*
X159445000Y-85665000D01*
X154305000Y-88325000D02*
X159445000Y-88325000D01*
X154305000Y-88325000D02*
X154305000Y-85665000D01*
X143510000Y-82425000D02*
X144840000Y-82425000D01*
X144840000Y-82425000D02*
X144840000Y-83185000D01*
X144840000Y-83760000D02*
X144840000Y-83880000D01*
X142180000Y-83760000D02*
X142180000Y-83880000D01*
X144270000Y-83880000D02*
X144840000Y-83880000D01*
X142180000Y-83880000D02*
X142750000Y-83880000D01*
X170180000Y-83695000D02*
X171510000Y-83695000D01*
X171510000Y-83695000D02*
X171510000Y-84455000D01*
X171510000Y-85030000D02*
X171510000Y-85150000D01*
X168850000Y-85030000D02*
X168850000Y-85150000D01*
X170940000Y-85150000D02*
X171510000Y-85150000D01*
X168850000Y-85150000D02*
X169420000Y-85150000D01*
X115570000Y-83695000D02*
X116900000Y-83695000D01*
X116900000Y-83695000D02*
X116900000Y-84455000D01*
X116900000Y-85030000D02*
X116900000Y-85150000D01*
X114240000Y-85030000D02*
X114240000Y-85150000D01*
X116330000Y-85150000D02*
X116900000Y-85150000D01*
X114240000Y-85150000D02*
X114810000Y-85150000D01*
X149540000Y-84455000D02*
G75*
G03X149540000Y-84455000I-950000J0D01*
G01*
X140015000Y-84455000D02*
G75*
G03X140015000Y-84455000I-950000J0D01*
G01*
X166685000Y-85725000D02*
G75*
G03X166685000Y-85725000I-950000J0D01*
G01*
X120330000Y-85725000D02*
G75*
G03X120330000Y-85725000I-950000J0D01*
G01*
X134448733Y-98300000D02*
X134791267Y-98300000D01*
X134448733Y-97280000D02*
X134791267Y-97280000D01*
X134448733Y-101090000D02*
X134791267Y-101090000D01*
X134448733Y-102110000D02*
X134791267Y-102110000D01*
X132840000Y-94151267D02*
X132840000Y-93808733D01*
X133860000Y-94151267D02*
X133860000Y-93808733D01*
X129635000Y-109430000D02*
X130135000Y-109430000D01*
X129885000Y-109680000D02*
X129885000Y-109180000D01*
X132640563Y-108940000D02*
X133705000Y-107875563D01*
X130249437Y-108940000D02*
X129185000Y-107875563D01*
X130249437Y-108940000D02*
X130385000Y-108940000D01*
X132640563Y-108940000D02*
X132505000Y-108940000D01*
X133705000Y-107875563D02*
X133705000Y-104420000D01*
X129185000Y-107875563D02*
X129185000Y-104420000D01*
X129185000Y-104420000D02*
X130385000Y-104420000D01*
X133705000Y-104420000D02*
X132505000Y-104420000D01*
X154133733Y-96010000D02*
X154476267Y-96010000D01*
X154133733Y-97030000D02*
X154476267Y-97030000D01*
X127760000Y-94048733D02*
X127760000Y-94391267D01*
X128780000Y-94048733D02*
X128780000Y-94391267D01*
X154133733Y-93855000D02*
X154476267Y-93855000D01*
X154133733Y-92835000D02*
X154476267Y-92835000D01*
X150215000Y-104420000D02*
X149015000Y-104420000D01*
X145695000Y-104420000D02*
X146895000Y-104420000D01*
X145695000Y-107875563D02*
X145695000Y-104420000D01*
X150215000Y-107875563D02*
X150215000Y-104420000D01*
X149150563Y-108940000D02*
X149015000Y-108940000D01*
X146759437Y-108940000D02*
X146895000Y-108940000D01*
X146759437Y-108940000D02*
X145695000Y-107875563D01*
X149150563Y-108940000D02*
X150215000Y-107875563D01*
X146395000Y-109680000D02*
X146395000Y-109180000D01*
X146145000Y-109430000D02*
X146645000Y-109430000D01*
X145243733Y-97915000D02*
X145586267Y-97915000D01*
X145243733Y-98935000D02*
X145586267Y-98935000D01*
X145243733Y-102110000D02*
X145586267Y-102110000D01*
X145243733Y-101090000D02*
X145586267Y-101090000D01*
X119835000Y-76655000D02*
X119835000Y-79555000D01*
X126545000Y-76655000D02*
X126545000Y-79555000D01*
X121740000Y-81460000D02*
X124640000Y-81460000D01*
X121740000Y-74750000D02*
X124640000Y-74750000D01*
X161110000Y-74750000D02*
X164010000Y-74750000D01*
X161110000Y-81460000D02*
X164010000Y-81460000D01*
X165915000Y-76655000D02*
X165915000Y-79555000D01*
X159205000Y-76655000D02*
X159205000Y-79555000D01*
X133075001Y-74750000D02*
X135975001Y-74750000D01*
X133075001Y-81460000D02*
X135975001Y-81460000D01*
X137880001Y-76655000D02*
X137880001Y-79555000D01*
X131170001Y-76655000D02*
X131170001Y-79555000D01*
X147775000Y-76655000D02*
X147775000Y-79555000D01*
X154485000Y-76655000D02*
X154485000Y-79555000D01*
X149680000Y-81460000D02*
X152580000Y-81460000D01*
X149680000Y-74750000D02*
X152580000Y-74750000D01*
X125220000Y-94391267D02*
X125220000Y-94048733D01*
X126240000Y-94391267D02*
X126240000Y-94048733D01*
X159510000Y-91371267D02*
X159510000Y-91028733D01*
X160530000Y-91371267D02*
X160530000Y-91028733D01*
X131320000Y-94391267D02*
X131320000Y-94048733D01*
X130300000Y-94391267D02*
X130300000Y-94048733D01*
X160530000Y-95181267D02*
X160530000Y-94838733D01*
X159510000Y-95181267D02*
X159510000Y-94838733D01*
X141605000Y-95270000D02*
X143555000Y-95270000D01*
X141605000Y-95270000D02*
X139655000Y-95270000D01*
X141605000Y-90150000D02*
X143555000Y-90150000D01*
X141605000Y-90150000D02*
X138155000Y-90150000D01*
D10*
X138326666Y-103322380D02*
X137993333Y-102846190D01*
X137755238Y-103322380D02*
X137755238Y-102322380D01*
X138136190Y-102322380D01*
X138231428Y-102370000D01*
X138279047Y-102417619D01*
X138326666Y-102512857D01*
X138326666Y-102655714D01*
X138279047Y-102750952D01*
X138231428Y-102798571D01*
X138136190Y-102846190D01*
X137755238Y-102846190D01*
X138755238Y-102798571D02*
X139088571Y-102798571D01*
X139231428Y-103322380D02*
X138755238Y-103322380D01*
X138755238Y-102322380D01*
X139231428Y-102322380D01*
X139993333Y-102798571D02*
X139660000Y-102798571D01*
X139660000Y-103322380D02*
X139660000Y-102322380D01*
X140136190Y-102322380D01*
X140660000Y-102322380D02*
X140660000Y-102560476D01*
X140421904Y-102465238D02*
X140660000Y-102560476D01*
X140898095Y-102465238D01*
X140517142Y-102750952D02*
X140660000Y-102560476D01*
X140802857Y-102750952D01*
X141421904Y-102322380D02*
X141421904Y-102560476D01*
X141183809Y-102465238D02*
X141421904Y-102560476D01*
X141660000Y-102465238D01*
X141279047Y-102750952D02*
X141421904Y-102560476D01*
X141564761Y-102750952D01*
X134659761Y-90622380D02*
X134326428Y-90146190D01*
X134088333Y-90622380D02*
X134088333Y-89622380D01*
X134469285Y-89622380D01*
X134564523Y-89670000D01*
X134612142Y-89717619D01*
X134659761Y-89812857D01*
X134659761Y-89955714D01*
X134612142Y-90050952D01*
X134564523Y-90098571D01*
X134469285Y-90146190D01*
X134088333Y-90146190D01*
X134945476Y-89622380D02*
X135278809Y-90622380D01*
X135612142Y-89622380D01*
X136469285Y-90622380D02*
X135897857Y-90622380D01*
X136183571Y-90622380D02*
X136183571Y-89622380D01*
X136088333Y-89765238D01*
X135993095Y-89860476D01*
X135897857Y-89908095D01*
X126182380Y-88225238D02*
X125706190Y-88558571D01*
X126182380Y-88796666D02*
X125182380Y-88796666D01*
X125182380Y-88415714D01*
X125230000Y-88320476D01*
X125277619Y-88272857D01*
X125372857Y-88225238D01*
X125515714Y-88225238D01*
X125610952Y-88272857D01*
X125658571Y-88320476D01*
X125706190Y-88415714D01*
X125706190Y-88796666D01*
X125182380Y-87939523D02*
X126182380Y-87606190D01*
X125182380Y-87272857D01*
X125182380Y-87034761D02*
X125182380Y-86415714D01*
X125563333Y-86749047D01*
X125563333Y-86606190D01*
X125610952Y-86510952D01*
X125658571Y-86463333D01*
X125753809Y-86415714D01*
X125991904Y-86415714D01*
X126087142Y-86463333D01*
X126134761Y-86510952D01*
X126182380Y-86606190D01*
X126182380Y-86891904D01*
X126134761Y-86987142D01*
X126087142Y-87034761D01*
X150947380Y-92035238D02*
X150471190Y-92368571D01*
X150947380Y-92606666D02*
X149947380Y-92606666D01*
X149947380Y-92225714D01*
X149995000Y-92130476D01*
X150042619Y-92082857D01*
X150137857Y-92035238D01*
X150280714Y-92035238D01*
X150375952Y-92082857D01*
X150423571Y-92130476D01*
X150471190Y-92225714D01*
X150471190Y-92606666D01*
X149947380Y-91749523D02*
X150947380Y-91416190D01*
X149947380Y-91082857D01*
X150042619Y-90797142D02*
X149995000Y-90749523D01*
X149947380Y-90654285D01*
X149947380Y-90416190D01*
X149995000Y-90320952D01*
X150042619Y-90273333D01*
X150137857Y-90225714D01*
X150233095Y-90225714D01*
X150375952Y-90273333D01*
X150947380Y-90844761D01*
X150947380Y-90225714D01*
X154979761Y-84907380D02*
X154646428Y-84431190D01*
X154408333Y-84907380D02*
X154408333Y-83907380D01*
X154789285Y-83907380D01*
X154884523Y-83955000D01*
X154932142Y-84002619D01*
X154979761Y-84097857D01*
X154979761Y-84240714D01*
X154932142Y-84335952D01*
X154884523Y-84383571D01*
X154789285Y-84431190D01*
X154408333Y-84431190D01*
X155265476Y-83907380D02*
X155598809Y-84907380D01*
X155932142Y-83907380D01*
X156694047Y-84240714D02*
X156694047Y-84907380D01*
X156455952Y-83859761D02*
X156217857Y-84574047D01*
X156836904Y-84574047D01*
X142748095Y-80550000D02*
X142652857Y-80502380D01*
X142510000Y-80502380D01*
X142367142Y-80550000D01*
X142271904Y-80645238D01*
X142224285Y-80740476D01*
X142176666Y-80930952D01*
X142176666Y-81073809D01*
X142224285Y-81264285D01*
X142271904Y-81359523D01*
X142367142Y-81454761D01*
X142510000Y-81502380D01*
X142605238Y-81502380D01*
X142748095Y-81454761D01*
X142795714Y-81407142D01*
X142795714Y-81073809D01*
X142605238Y-81073809D01*
X143224285Y-81502380D02*
X143224285Y-80502380D01*
X143795714Y-81502380D01*
X143795714Y-80502380D01*
X144271904Y-81502380D02*
X144271904Y-80502380D01*
X144510000Y-80502380D01*
X144652857Y-80550000D01*
X144748095Y-80645238D01*
X144795714Y-80740476D01*
X144843333Y-80930952D01*
X144843333Y-81073809D01*
X144795714Y-81264285D01*
X144748095Y-81359523D01*
X144652857Y-81454761D01*
X144510000Y-81502380D01*
X144271904Y-81502380D01*
X169418095Y-81820000D02*
X169322857Y-81772380D01*
X169180000Y-81772380D01*
X169037142Y-81820000D01*
X168941904Y-81915238D01*
X168894285Y-82010476D01*
X168846666Y-82200952D01*
X168846666Y-82343809D01*
X168894285Y-82534285D01*
X168941904Y-82629523D01*
X169037142Y-82724761D01*
X169180000Y-82772380D01*
X169275238Y-82772380D01*
X169418095Y-82724761D01*
X169465714Y-82677142D01*
X169465714Y-82343809D01*
X169275238Y-82343809D01*
X169894285Y-82772380D02*
X169894285Y-81772380D01*
X170465714Y-82772380D01*
X170465714Y-81772380D01*
X170941904Y-82772380D02*
X170941904Y-81772380D01*
X171180000Y-81772380D01*
X171322857Y-81820000D01*
X171418095Y-81915238D01*
X171465714Y-82010476D01*
X171513333Y-82200952D01*
X171513333Y-82343809D01*
X171465714Y-82534285D01*
X171418095Y-82629523D01*
X171322857Y-82724761D01*
X171180000Y-82772380D01*
X170941904Y-82772380D01*
X114808095Y-81820000D02*
X114712857Y-81772380D01*
X114570000Y-81772380D01*
X114427142Y-81820000D01*
X114331904Y-81915238D01*
X114284285Y-82010476D01*
X114236666Y-82200952D01*
X114236666Y-82343809D01*
X114284285Y-82534285D01*
X114331904Y-82629523D01*
X114427142Y-82724761D01*
X114570000Y-82772380D01*
X114665238Y-82772380D01*
X114808095Y-82724761D01*
X114855714Y-82677142D01*
X114855714Y-82343809D01*
X114665238Y-82343809D01*
X115284285Y-82772380D02*
X115284285Y-81772380D01*
X115855714Y-82772380D01*
X115855714Y-81772380D01*
X116331904Y-82772380D02*
X116331904Y-81772380D01*
X116570000Y-81772380D01*
X116712857Y-81820000D01*
X116808095Y-81915238D01*
X116855714Y-82010476D01*
X116903333Y-82200952D01*
X116903333Y-82343809D01*
X116855714Y-82534285D01*
X116808095Y-82629523D01*
X116712857Y-82724761D01*
X116570000Y-82772380D01*
X116331904Y-82772380D01*
X147328095Y-82259380D02*
X147899523Y-82259380D01*
X147613809Y-83259380D02*
X147613809Y-82259380D01*
X148232857Y-83259380D02*
X148232857Y-82259380D01*
X148613809Y-82259380D01*
X148709047Y-82307000D01*
X148756666Y-82354619D01*
X148804285Y-82449857D01*
X148804285Y-82592714D01*
X148756666Y-82687952D01*
X148709047Y-82735571D01*
X148613809Y-82783190D01*
X148232857Y-82783190D01*
X149137619Y-82259380D02*
X149756666Y-82259380D01*
X149423333Y-82640333D01*
X149566190Y-82640333D01*
X149661428Y-82687952D01*
X149709047Y-82735571D01*
X149756666Y-82830809D01*
X149756666Y-83068904D01*
X149709047Y-83164142D01*
X149661428Y-83211761D01*
X149566190Y-83259380D01*
X149280476Y-83259380D01*
X149185238Y-83211761D01*
X149137619Y-83164142D01*
X137803095Y-82259380D02*
X138374523Y-82259380D01*
X138088809Y-83259380D02*
X138088809Y-82259380D01*
X138707857Y-83259380D02*
X138707857Y-82259380D01*
X139088809Y-82259380D01*
X139184047Y-82307000D01*
X139231666Y-82354619D01*
X139279285Y-82449857D01*
X139279285Y-82592714D01*
X139231666Y-82687952D01*
X139184047Y-82735571D01*
X139088809Y-82783190D01*
X138707857Y-82783190D01*
X139660238Y-82354619D02*
X139707857Y-82307000D01*
X139803095Y-82259380D01*
X140041190Y-82259380D01*
X140136428Y-82307000D01*
X140184047Y-82354619D01*
X140231666Y-82449857D01*
X140231666Y-82545095D01*
X140184047Y-82687952D01*
X139612619Y-83259380D01*
X140231666Y-83259380D01*
X164473095Y-83529380D02*
X165044523Y-83529380D01*
X164758809Y-84529380D02*
X164758809Y-83529380D01*
X165377857Y-84529380D02*
X165377857Y-83529380D01*
X165758809Y-83529380D01*
X165854047Y-83577000D01*
X165901666Y-83624619D01*
X165949285Y-83719857D01*
X165949285Y-83862714D01*
X165901666Y-83957952D01*
X165854047Y-84005571D01*
X165758809Y-84053190D01*
X165377857Y-84053190D01*
X166806428Y-83862714D02*
X166806428Y-84529380D01*
X166568333Y-83481761D02*
X166330238Y-84196047D01*
X166949285Y-84196047D01*
X118118095Y-83529380D02*
X118689523Y-83529380D01*
X118403809Y-84529380D02*
X118403809Y-83529380D01*
X119022857Y-84529380D02*
X119022857Y-83529380D01*
X119403809Y-83529380D01*
X119499047Y-83577000D01*
X119546666Y-83624619D01*
X119594285Y-83719857D01*
X119594285Y-83862714D01*
X119546666Y-83957952D01*
X119499047Y-84005571D01*
X119403809Y-84053190D01*
X119022857Y-84053190D01*
X120546666Y-84529380D02*
X119975238Y-84529380D01*
X120260952Y-84529380D02*
X120260952Y-83529380D01*
X120165714Y-83672238D01*
X120070476Y-83767476D01*
X119975238Y-83815095D01*
X134453333Y-96717142D02*
X134405714Y-96764761D01*
X134262857Y-96812380D01*
X134167619Y-96812380D01*
X134024761Y-96764761D01*
X133929523Y-96669523D01*
X133881904Y-96574285D01*
X133834285Y-96383809D01*
X133834285Y-96240952D01*
X133881904Y-96050476D01*
X133929523Y-95955238D01*
X134024761Y-95860000D01*
X134167619Y-95812380D01*
X134262857Y-95812380D01*
X134405714Y-95860000D01*
X134453333Y-95907619D01*
X135405714Y-96812380D02*
X134834285Y-96812380D01*
X135120000Y-96812380D02*
X135120000Y-95812380D01*
X135024761Y-95955238D01*
X134929523Y-96050476D01*
X134834285Y-96098095D01*
X134453333Y-100527142D02*
X134405714Y-100574761D01*
X134262857Y-100622380D01*
X134167619Y-100622380D01*
X134024761Y-100574761D01*
X133929523Y-100479523D01*
X133881904Y-100384285D01*
X133834285Y-100193809D01*
X133834285Y-100050952D01*
X133881904Y-99860476D01*
X133929523Y-99765238D01*
X134024761Y-99670000D01*
X134167619Y-99622380D01*
X134262857Y-99622380D01*
X134405714Y-99670000D01*
X134453333Y-99717619D01*
X134834285Y-99717619D02*
X134881904Y-99670000D01*
X134977142Y-99622380D01*
X135215238Y-99622380D01*
X135310476Y-99670000D01*
X135358095Y-99717619D01*
X135405714Y-99812857D01*
X135405714Y-99908095D01*
X135358095Y-100050952D01*
X134786666Y-100622380D01*
X135405714Y-100622380D01*
X135612142Y-94146666D02*
X135659761Y-94194285D01*
X135707380Y-94337142D01*
X135707380Y-94432380D01*
X135659761Y-94575238D01*
X135564523Y-94670476D01*
X135469285Y-94718095D01*
X135278809Y-94765714D01*
X135135952Y-94765714D01*
X134945476Y-94718095D01*
X134850238Y-94670476D01*
X134755000Y-94575238D01*
X134707380Y-94432380D01*
X134707380Y-94337142D01*
X134755000Y-94194285D01*
X134802619Y-94146666D01*
X134707380Y-93813333D02*
X134707380Y-93194285D01*
X135088333Y-93527619D01*
X135088333Y-93384761D01*
X135135952Y-93289523D01*
X135183571Y-93241904D01*
X135278809Y-93194285D01*
X135516904Y-93194285D01*
X135612142Y-93241904D01*
X135659761Y-93289523D01*
X135707380Y-93384761D01*
X135707380Y-93670476D01*
X135659761Y-93765714D01*
X135612142Y-93813333D01*
X128602142Y-106846666D02*
X128649761Y-106894285D01*
X128697380Y-107037142D01*
X128697380Y-107132380D01*
X128649761Y-107275238D01*
X128554523Y-107370476D01*
X128459285Y-107418095D01*
X128268809Y-107465714D01*
X128125952Y-107465714D01*
X127935476Y-107418095D01*
X127840238Y-107370476D01*
X127745000Y-107275238D01*
X127697380Y-107132380D01*
X127697380Y-107037142D01*
X127745000Y-106894285D01*
X127792619Y-106846666D01*
X128030714Y-105989523D02*
X128697380Y-105989523D01*
X127649761Y-106227619D02*
X128364047Y-106465714D01*
X128364047Y-105846666D01*
X154138333Y-95447142D02*
X154090714Y-95494761D01*
X153947857Y-95542380D01*
X153852619Y-95542380D01*
X153709761Y-95494761D01*
X153614523Y-95399523D01*
X153566904Y-95304285D01*
X153519285Y-95113809D01*
X153519285Y-94970952D01*
X153566904Y-94780476D01*
X153614523Y-94685238D01*
X153709761Y-94590000D01*
X153852619Y-94542380D01*
X153947857Y-94542380D01*
X154090714Y-94590000D01*
X154138333Y-94637619D01*
X155043095Y-94542380D02*
X154566904Y-94542380D01*
X154519285Y-95018571D01*
X154566904Y-94970952D01*
X154662142Y-94923333D01*
X154900238Y-94923333D01*
X154995476Y-94970952D01*
X155043095Y-95018571D01*
X155090714Y-95113809D01*
X155090714Y-95351904D01*
X155043095Y-95447142D01*
X154995476Y-95494761D01*
X154900238Y-95542380D01*
X154662142Y-95542380D01*
X154566904Y-95494761D01*
X154519285Y-95447142D01*
X128103333Y-96877142D02*
X128055714Y-96924761D01*
X127912857Y-96972380D01*
X127817619Y-96972380D01*
X127674761Y-96924761D01*
X127579523Y-96829523D01*
X127531904Y-96734285D01*
X127484285Y-96543809D01*
X127484285Y-96400952D01*
X127531904Y-96210476D01*
X127579523Y-96115238D01*
X127674761Y-96020000D01*
X127817619Y-95972380D01*
X127912857Y-95972380D01*
X128055714Y-96020000D01*
X128103333Y-96067619D01*
X128960476Y-95972380D02*
X128770000Y-95972380D01*
X128674761Y-96020000D01*
X128627142Y-96067619D01*
X128531904Y-96210476D01*
X128484285Y-96400952D01*
X128484285Y-96781904D01*
X128531904Y-96877142D01*
X128579523Y-96924761D01*
X128674761Y-96972380D01*
X128865238Y-96972380D01*
X128960476Y-96924761D01*
X129008095Y-96877142D01*
X129055714Y-96781904D01*
X129055714Y-96543809D01*
X129008095Y-96448571D01*
X128960476Y-96400952D01*
X128865238Y-96353333D01*
X128674761Y-96353333D01*
X128579523Y-96400952D01*
X128531904Y-96448571D01*
X128484285Y-96543809D01*
X154138333Y-92272142D02*
X154090714Y-92319761D01*
X153947857Y-92367380D01*
X153852619Y-92367380D01*
X153709761Y-92319761D01*
X153614523Y-92224523D01*
X153566904Y-92129285D01*
X153519285Y-91938809D01*
X153519285Y-91795952D01*
X153566904Y-91605476D01*
X153614523Y-91510238D01*
X153709761Y-91415000D01*
X153852619Y-91367380D01*
X153947857Y-91367380D01*
X154090714Y-91415000D01*
X154138333Y-91462619D01*
X154471666Y-91367380D02*
X155138333Y-91367380D01*
X154709761Y-92367380D01*
X145112142Y-106846666D02*
X145159761Y-106894285D01*
X145207380Y-107037142D01*
X145207380Y-107132380D01*
X145159761Y-107275238D01*
X145064523Y-107370476D01*
X144969285Y-107418095D01*
X144778809Y-107465714D01*
X144635952Y-107465714D01*
X144445476Y-107418095D01*
X144350238Y-107370476D01*
X144255000Y-107275238D01*
X144207380Y-107132380D01*
X144207380Y-107037142D01*
X144255000Y-106894285D01*
X144302619Y-106846666D01*
X144635952Y-106275238D02*
X144588333Y-106370476D01*
X144540714Y-106418095D01*
X144445476Y-106465714D01*
X144397857Y-106465714D01*
X144302619Y-106418095D01*
X144255000Y-106370476D01*
X144207380Y-106275238D01*
X144207380Y-106084761D01*
X144255000Y-105989523D01*
X144302619Y-105941904D01*
X144397857Y-105894285D01*
X144445476Y-105894285D01*
X144540714Y-105941904D01*
X144588333Y-105989523D01*
X144635952Y-106084761D01*
X144635952Y-106275238D01*
X144683571Y-106370476D01*
X144731190Y-106418095D01*
X144826428Y-106465714D01*
X145016904Y-106465714D01*
X145112142Y-106418095D01*
X145159761Y-106370476D01*
X145207380Y-106275238D01*
X145207380Y-106084761D01*
X145159761Y-105989523D01*
X145112142Y-105941904D01*
X145016904Y-105894285D01*
X144826428Y-105894285D01*
X144731190Y-105941904D01*
X144683571Y-105989523D01*
X144635952Y-106084761D01*
X145248333Y-97352142D02*
X145200714Y-97399761D01*
X145057857Y-97447380D01*
X144962619Y-97447380D01*
X144819761Y-97399761D01*
X144724523Y-97304523D01*
X144676904Y-97209285D01*
X144629285Y-97018809D01*
X144629285Y-96875952D01*
X144676904Y-96685476D01*
X144724523Y-96590238D01*
X144819761Y-96495000D01*
X144962619Y-96447380D01*
X145057857Y-96447380D01*
X145200714Y-96495000D01*
X145248333Y-96542619D01*
X145724523Y-97447380D02*
X145915000Y-97447380D01*
X146010238Y-97399761D01*
X146057857Y-97352142D01*
X146153095Y-97209285D01*
X146200714Y-97018809D01*
X146200714Y-96637857D01*
X146153095Y-96542619D01*
X146105476Y-96495000D01*
X146010238Y-96447380D01*
X145819761Y-96447380D01*
X145724523Y-96495000D01*
X145676904Y-96542619D01*
X145629285Y-96637857D01*
X145629285Y-96875952D01*
X145676904Y-96971190D01*
X145724523Y-97018809D01*
X145819761Y-97066428D01*
X146010238Y-97066428D01*
X146105476Y-97018809D01*
X146153095Y-96971190D01*
X146200714Y-96875952D01*
X144772142Y-100527142D02*
X144724523Y-100574761D01*
X144581666Y-100622380D01*
X144486428Y-100622380D01*
X144343571Y-100574761D01*
X144248333Y-100479523D01*
X144200714Y-100384285D01*
X144153095Y-100193809D01*
X144153095Y-100050952D01*
X144200714Y-99860476D01*
X144248333Y-99765238D01*
X144343571Y-99670000D01*
X144486428Y-99622380D01*
X144581666Y-99622380D01*
X144724523Y-99670000D01*
X144772142Y-99717619D01*
X145724523Y-100622380D02*
X145153095Y-100622380D01*
X145438809Y-100622380D02*
X145438809Y-99622380D01*
X145343571Y-99765238D01*
X145248333Y-99860476D01*
X145153095Y-99908095D01*
X146343571Y-99622380D02*
X146438809Y-99622380D01*
X146534047Y-99670000D01*
X146581666Y-99717619D01*
X146629285Y-99812857D01*
X146676904Y-100003333D01*
X146676904Y-100241428D01*
X146629285Y-100431904D01*
X146581666Y-100527142D01*
X146534047Y-100574761D01*
X146438809Y-100622380D01*
X146343571Y-100622380D01*
X146248333Y-100574761D01*
X146200714Y-100527142D01*
X146153095Y-100431904D01*
X146105476Y-100241428D01*
X146105476Y-100003333D01*
X146153095Y-99812857D01*
X146200714Y-99717619D01*
X146248333Y-99670000D01*
X146343571Y-99622380D01*
X121856666Y-73807380D02*
X121856666Y-72807380D01*
X122332857Y-73807380D02*
X122332857Y-72807380D01*
X122904285Y-73807380D01*
X122904285Y-72807380D01*
X123142380Y-73902619D02*
X123904285Y-73902619D01*
X124094761Y-73521666D02*
X124570952Y-73521666D01*
X123999523Y-73807380D02*
X124332857Y-72807380D01*
X124666190Y-73807380D01*
X161226666Y-73807380D02*
X161226666Y-72807380D01*
X161702857Y-73807380D02*
X161702857Y-72807380D01*
X162274285Y-73807380D01*
X162274285Y-72807380D01*
X162512380Y-73902619D02*
X163274285Y-73902619D01*
X163464761Y-73521666D02*
X163940952Y-73521666D01*
X163369523Y-73807380D02*
X163702857Y-72807380D01*
X164036190Y-73807380D01*
X132715477Y-72807380D02*
X132905953Y-72807380D01*
X133001191Y-72855000D01*
X133096429Y-72950238D01*
X133144048Y-73140714D01*
X133144048Y-73474047D01*
X133096429Y-73664523D01*
X133001191Y-73759761D01*
X132905953Y-73807380D01*
X132715477Y-73807380D01*
X132620239Y-73759761D01*
X132525001Y-73664523D01*
X132477381Y-73474047D01*
X132477381Y-73140714D01*
X132525001Y-72950238D01*
X132620239Y-72855000D01*
X132715477Y-72807380D01*
X133572620Y-72807380D02*
X133572620Y-73616904D01*
X133620239Y-73712142D01*
X133667858Y-73759761D01*
X133763096Y-73807380D01*
X133953572Y-73807380D01*
X134048810Y-73759761D01*
X134096429Y-73712142D01*
X134144048Y-73616904D01*
X134144048Y-72807380D01*
X134477381Y-72807380D02*
X135048810Y-72807380D01*
X134763096Y-73807380D02*
X134763096Y-72807380D01*
X135144048Y-73902619D02*
X135905953Y-73902619D01*
X136096429Y-73521666D02*
X136572620Y-73521666D01*
X136001191Y-73807380D02*
X136334524Y-72807380D01*
X136667858Y-73807380D01*
X149249047Y-72807380D02*
X149439523Y-72807380D01*
X149534761Y-72855000D01*
X149630000Y-72950238D01*
X149677619Y-73140714D01*
X149677619Y-73474047D01*
X149630000Y-73664523D01*
X149534761Y-73759761D01*
X149439523Y-73807380D01*
X149249047Y-73807380D01*
X149153809Y-73759761D01*
X149058571Y-73664523D01*
X149010952Y-73474047D01*
X149010952Y-73140714D01*
X149058571Y-72950238D01*
X149153809Y-72855000D01*
X149249047Y-72807380D01*
X150106190Y-72807380D02*
X150106190Y-73616904D01*
X150153809Y-73712142D01*
X150201428Y-73759761D01*
X150296666Y-73807380D01*
X150487142Y-73807380D01*
X150582380Y-73759761D01*
X150630000Y-73712142D01*
X150677619Y-73616904D01*
X150677619Y-72807380D01*
X151010952Y-72807380D02*
X151582380Y-72807380D01*
X151296666Y-73807380D02*
X151296666Y-72807380D01*
X151677619Y-73902619D02*
X152439523Y-73902619D01*
X153010952Y-73283571D02*
X153153809Y-73331190D01*
X153201428Y-73378809D01*
X153249047Y-73474047D01*
X153249047Y-73616904D01*
X153201428Y-73712142D01*
X153153809Y-73759761D01*
X153058571Y-73807380D01*
X152677619Y-73807380D01*
X152677619Y-72807380D01*
X153010952Y-72807380D01*
X153106190Y-72855000D01*
X153153809Y-72902619D01*
X153201428Y-72997857D01*
X153201428Y-73093095D01*
X153153809Y-73188333D01*
X153106190Y-73235952D01*
X153010952Y-73283571D01*
X152677619Y-73283571D01*
X125563333Y-96972380D02*
X125230000Y-96496190D01*
X124991904Y-96972380D02*
X124991904Y-95972380D01*
X125372857Y-95972380D01*
X125468095Y-96020000D01*
X125515714Y-96067619D01*
X125563333Y-96162857D01*
X125563333Y-96305714D01*
X125515714Y-96400952D01*
X125468095Y-96448571D01*
X125372857Y-96496190D01*
X124991904Y-96496190D01*
X126515714Y-96972380D02*
X125944285Y-96972380D01*
X126230000Y-96972380D02*
X126230000Y-95972380D01*
X126134761Y-96115238D01*
X126039523Y-96210476D01*
X125944285Y-96258095D01*
X159042380Y-91366666D02*
X158566190Y-91700000D01*
X159042380Y-91938095D02*
X158042380Y-91938095D01*
X158042380Y-91557142D01*
X158090000Y-91461904D01*
X158137619Y-91414285D01*
X158232857Y-91366666D01*
X158375714Y-91366666D01*
X158470952Y-91414285D01*
X158518571Y-91461904D01*
X158566190Y-91557142D01*
X158566190Y-91938095D01*
X158137619Y-90985714D02*
X158090000Y-90938095D01*
X158042380Y-90842857D01*
X158042380Y-90604761D01*
X158090000Y-90509523D01*
X158137619Y-90461904D01*
X158232857Y-90414285D01*
X158328095Y-90414285D01*
X158470952Y-90461904D01*
X159042380Y-91033333D01*
X159042380Y-90414285D01*
X130643333Y-96972380D02*
X130310000Y-96496190D01*
X130071904Y-96972380D02*
X130071904Y-95972380D01*
X130452857Y-95972380D01*
X130548095Y-96020000D01*
X130595714Y-96067619D01*
X130643333Y-96162857D01*
X130643333Y-96305714D01*
X130595714Y-96400952D01*
X130548095Y-96448571D01*
X130452857Y-96496190D01*
X130071904Y-96496190D01*
X130976666Y-95972380D02*
X131595714Y-95972380D01*
X131262380Y-96353333D01*
X131405238Y-96353333D01*
X131500476Y-96400952D01*
X131548095Y-96448571D01*
X131595714Y-96543809D01*
X131595714Y-96781904D01*
X131548095Y-96877142D01*
X131500476Y-96924761D01*
X131405238Y-96972380D01*
X131119523Y-96972380D01*
X131024285Y-96924761D01*
X130976666Y-96877142D01*
X159042380Y-95176666D02*
X158566190Y-95510000D01*
X159042380Y-95748095D02*
X158042380Y-95748095D01*
X158042380Y-95367142D01*
X158090000Y-95271904D01*
X158137619Y-95224285D01*
X158232857Y-95176666D01*
X158375714Y-95176666D01*
X158470952Y-95224285D01*
X158518571Y-95271904D01*
X158566190Y-95367142D01*
X158566190Y-95748095D01*
X158375714Y-94319523D02*
X159042380Y-94319523D01*
X157994761Y-94557619D02*
X158709047Y-94795714D01*
X158709047Y-94176666D01*
X140843095Y-88762380D02*
X140843095Y-89571904D01*
X140890714Y-89667142D01*
X140938333Y-89714761D01*
X141033571Y-89762380D01*
X141224047Y-89762380D01*
X141319285Y-89714761D01*
X141366904Y-89667142D01*
X141414523Y-89571904D01*
X141414523Y-88762380D01*
X142414523Y-89762380D02*
X141843095Y-89762380D01*
X142128809Y-89762380D02*
X142128809Y-88762380D01*
X142033571Y-88905238D01*
X141938333Y-89000476D01*
X141843095Y-89048095D01*
M02*
