G04 #@! TF.GenerationSoftware,KiCad,Pcbnew,(5.1.2)-2*
G04 #@! TF.CreationDate,2019-07-08T09:46:09+08:00*
G04 #@! TF.ProjectId,active_filter,61637469-7665-45f6-9669-6c7465722e6b,rev?*
G04 #@! TF.SameCoordinates,Original*
G04 #@! TF.FileFunction,Soldermask,Bot*
G04 #@! TF.FilePolarity,Negative*
%FSLAX46Y46*%
G04 Gerber Fmt 4.6, Leading zero omitted, Abs format (unit mm)*
G04 Created by KiCad (PCBNEW (5.1.2)-2) date 2019-07-08 09:46:09*
%MOMM*%
%LPD*%
G04 APERTURE LIST*
%ADD10C,0.100000*%
G04 APERTURE END LIST*
D10*
G36*
X171632021Y-103986640D02*
G01*
X172141769Y-104197785D01*
X172141771Y-104197786D01*
X172600534Y-104504321D01*
X172990679Y-104894466D01*
X173297214Y-105353229D01*
X173297215Y-105353231D01*
X173508360Y-105862979D01*
X173616000Y-106404124D01*
X173616000Y-106955876D01*
X173508360Y-107497021D01*
X173419992Y-107710359D01*
X173297214Y-108006771D01*
X172990679Y-108465534D01*
X172600534Y-108855679D01*
X172141771Y-109162214D01*
X172141770Y-109162215D01*
X172141769Y-109162215D01*
X171632021Y-109373360D01*
X171090876Y-109481000D01*
X170539124Y-109481000D01*
X169997979Y-109373360D01*
X169488231Y-109162215D01*
X169488230Y-109162215D01*
X169488229Y-109162214D01*
X169029466Y-108855679D01*
X168639321Y-108465534D01*
X168332786Y-108006771D01*
X168210008Y-107710359D01*
X168121640Y-107497021D01*
X168014000Y-106955876D01*
X168014000Y-106404124D01*
X168121640Y-105862979D01*
X168332785Y-105353231D01*
X168332786Y-105353229D01*
X168639321Y-104894466D01*
X169029466Y-104504321D01*
X169488229Y-104197786D01*
X169488231Y-104197785D01*
X169997979Y-103986640D01*
X170539124Y-103879000D01*
X171090876Y-103879000D01*
X171632021Y-103986640D01*
X171632021Y-103986640D01*
G37*
G36*
X115752021Y-103986640D02*
G01*
X116261769Y-104197785D01*
X116261771Y-104197786D01*
X116720534Y-104504321D01*
X117110679Y-104894466D01*
X117417214Y-105353229D01*
X117417215Y-105353231D01*
X117628360Y-105862979D01*
X117736000Y-106404124D01*
X117736000Y-106955876D01*
X117628360Y-107497021D01*
X117539992Y-107710359D01*
X117417214Y-108006771D01*
X117110679Y-108465534D01*
X116720534Y-108855679D01*
X116261771Y-109162214D01*
X116261770Y-109162215D01*
X116261769Y-109162215D01*
X115752021Y-109373360D01*
X115210876Y-109481000D01*
X114659124Y-109481000D01*
X114117979Y-109373360D01*
X113608231Y-109162215D01*
X113608230Y-109162215D01*
X113608229Y-109162214D01*
X113149466Y-108855679D01*
X112759321Y-108465534D01*
X112452786Y-108006771D01*
X112330008Y-107710359D01*
X112241640Y-107497021D01*
X112134000Y-106955876D01*
X112134000Y-106404124D01*
X112241640Y-105862979D01*
X112452785Y-105353231D01*
X112452786Y-105353229D01*
X112759321Y-104894466D01*
X113149466Y-104504321D01*
X113608229Y-104197786D01*
X113608231Y-104197785D01*
X114117979Y-103986640D01*
X114659124Y-103879000D01*
X115210876Y-103879000D01*
X115752021Y-103986640D01*
X115752021Y-103986640D01*
G37*
G36*
X142336626Y-105667037D02*
G01*
X142506465Y-105718557D01*
X142506467Y-105718558D01*
X142662989Y-105802221D01*
X142800186Y-105914814D01*
X142883448Y-106016271D01*
X142912778Y-106052009D01*
X142996443Y-106208534D01*
X143047963Y-106378373D01*
X143061000Y-106510742D01*
X143061000Y-106849257D01*
X143047963Y-106981626D01*
X142996443Y-107151466D01*
X142912778Y-107307991D01*
X142883448Y-107343729D01*
X142800186Y-107445186D01*
X142705105Y-107523216D01*
X142662991Y-107557778D01*
X142506466Y-107641443D01*
X142336627Y-107692963D01*
X142160000Y-107710359D01*
X141983374Y-107692963D01*
X141813535Y-107641443D01*
X141657010Y-107557778D01*
X141519815Y-107445185D01*
X141407222Y-107307991D01*
X141323557Y-107151466D01*
X141272037Y-106981627D01*
X141259000Y-106849258D01*
X141259000Y-106510743D01*
X141272037Y-106378374D01*
X141323557Y-106208535D01*
X141407222Y-106052010D01*
X141407223Y-106052009D01*
X141519814Y-105914814D01*
X141638365Y-105817523D01*
X141657009Y-105802222D01*
X141813534Y-105718557D01*
X141983373Y-105667037D01*
X142160000Y-105649641D01*
X142336626Y-105667037D01*
X142336626Y-105667037D01*
G37*
G36*
X139836626Y-105667037D02*
G01*
X140006465Y-105718557D01*
X140006467Y-105718558D01*
X140162989Y-105802221D01*
X140300186Y-105914814D01*
X140383448Y-106016271D01*
X140412778Y-106052009D01*
X140496443Y-106208534D01*
X140547963Y-106378373D01*
X140561000Y-106510742D01*
X140561000Y-106849257D01*
X140547963Y-106981626D01*
X140496443Y-107151466D01*
X140412778Y-107307991D01*
X140383448Y-107343729D01*
X140300186Y-107445186D01*
X140205105Y-107523216D01*
X140162991Y-107557778D01*
X140006466Y-107641443D01*
X139836627Y-107692963D01*
X139660000Y-107710359D01*
X139483374Y-107692963D01*
X139313535Y-107641443D01*
X139157010Y-107557778D01*
X139019815Y-107445185D01*
X138907222Y-107307991D01*
X138823557Y-107151466D01*
X138772037Y-106981627D01*
X138759000Y-106849258D01*
X138759000Y-106510743D01*
X138772037Y-106378374D01*
X138823557Y-106208535D01*
X138907222Y-106052010D01*
X138907223Y-106052009D01*
X139019814Y-105914814D01*
X139138365Y-105817523D01*
X139157009Y-105802222D01*
X139313534Y-105718557D01*
X139483373Y-105667037D01*
X139660000Y-105649641D01*
X139836626Y-105667037D01*
X139836626Y-105667037D01*
G37*
G36*
X137918698Y-105657987D02*
G01*
X137951724Y-105668005D01*
X137982159Y-105684273D01*
X138008835Y-105706165D01*
X138030727Y-105732841D01*
X138046995Y-105763276D01*
X138057013Y-105796302D01*
X138061000Y-105836784D01*
X138061000Y-107523216D01*
X138057013Y-107563698D01*
X138046995Y-107596724D01*
X138030727Y-107627159D01*
X138008835Y-107653835D01*
X137982159Y-107675727D01*
X137951724Y-107691995D01*
X137918698Y-107702013D01*
X137878216Y-107706000D01*
X136441784Y-107706000D01*
X136401302Y-107702013D01*
X136368276Y-107691995D01*
X136337841Y-107675727D01*
X136311165Y-107653835D01*
X136289273Y-107627159D01*
X136273005Y-107596724D01*
X136262987Y-107563698D01*
X136259000Y-107523216D01*
X136259000Y-105836784D01*
X136262987Y-105796302D01*
X136273005Y-105763276D01*
X136289273Y-105732841D01*
X136311165Y-105706165D01*
X136337841Y-105684273D01*
X136368276Y-105668005D01*
X136401302Y-105657987D01*
X136441784Y-105654000D01*
X137878216Y-105654000D01*
X137918698Y-105657987D01*
X137918698Y-105657987D01*
G37*
G36*
X148856000Y-94881000D02*
G01*
X147054000Y-94881000D01*
X147054000Y-93079000D01*
X148856000Y-93079000D01*
X148856000Y-94881000D01*
X148856000Y-94881000D01*
G37*
G36*
X148065443Y-90545519D02*
G01*
X148131627Y-90552037D01*
X148301466Y-90603557D01*
X148457991Y-90687222D01*
X148493729Y-90716552D01*
X148595186Y-90799814D01*
X148678448Y-90901271D01*
X148707778Y-90937009D01*
X148791443Y-91093534D01*
X148842963Y-91263373D01*
X148860359Y-91440000D01*
X148842963Y-91616627D01*
X148791443Y-91786466D01*
X148707778Y-91942991D01*
X148678448Y-91978729D01*
X148595186Y-92080186D01*
X148493729Y-92163448D01*
X148457991Y-92192778D01*
X148301466Y-92276443D01*
X148131627Y-92327963D01*
X148065443Y-92334481D01*
X147999260Y-92341000D01*
X147910740Y-92341000D01*
X147844557Y-92334481D01*
X147778373Y-92327963D01*
X147608534Y-92276443D01*
X147452009Y-92192778D01*
X147416271Y-92163448D01*
X147314814Y-92080186D01*
X147231552Y-91978729D01*
X147202222Y-91942991D01*
X147118557Y-91786466D01*
X147067037Y-91616627D01*
X147049641Y-91440000D01*
X147067037Y-91263373D01*
X147118557Y-91093534D01*
X147202222Y-90937009D01*
X147231552Y-90901271D01*
X147314814Y-90799814D01*
X147416271Y-90716552D01*
X147452009Y-90687222D01*
X147608534Y-90603557D01*
X147778373Y-90552037D01*
X147844557Y-90545519D01*
X147910740Y-90539000D01*
X147999260Y-90539000D01*
X148065443Y-90545519D01*
X148065443Y-90545519D01*
G37*
G36*
X128380443Y-88640519D02*
G01*
X128446627Y-88647037D01*
X128616466Y-88698557D01*
X128772991Y-88782222D01*
X128808729Y-88811552D01*
X128910186Y-88894814D01*
X128993448Y-88996271D01*
X129022778Y-89032009D01*
X129106443Y-89188534D01*
X129157963Y-89358373D01*
X129175359Y-89535000D01*
X129157963Y-89711627D01*
X129106443Y-89881466D01*
X129022778Y-90037991D01*
X128993448Y-90073729D01*
X128910186Y-90175186D01*
X128808729Y-90258448D01*
X128772991Y-90287778D01*
X128616466Y-90371443D01*
X128446627Y-90422963D01*
X128380443Y-90429481D01*
X128314260Y-90436000D01*
X128225740Y-90436000D01*
X128159557Y-90429481D01*
X128093373Y-90422963D01*
X127923534Y-90371443D01*
X127767009Y-90287778D01*
X127731271Y-90258448D01*
X127629814Y-90175186D01*
X127546552Y-90073729D01*
X127517222Y-90037991D01*
X127433557Y-89881466D01*
X127382037Y-89711627D01*
X127364641Y-89535000D01*
X127382037Y-89358373D01*
X127433557Y-89188534D01*
X127517222Y-89032009D01*
X127546552Y-88996271D01*
X127629814Y-88894814D01*
X127731271Y-88811552D01*
X127767009Y-88782222D01*
X127923534Y-88698557D01*
X128093373Y-88647037D01*
X128159557Y-88640519D01*
X128225740Y-88634000D01*
X128314260Y-88634000D01*
X128380443Y-88640519D01*
X128380443Y-88640519D01*
G37*
G36*
X148065443Y-88005519D02*
G01*
X148131627Y-88012037D01*
X148301466Y-88063557D01*
X148457991Y-88147222D01*
X148493729Y-88176552D01*
X148595186Y-88259814D01*
X148678448Y-88361271D01*
X148707778Y-88397009D01*
X148791443Y-88553534D01*
X148842963Y-88723373D01*
X148860359Y-88900000D01*
X148842963Y-89076627D01*
X148791443Y-89246466D01*
X148707778Y-89402991D01*
X148678448Y-89438729D01*
X148595186Y-89540186D01*
X148493729Y-89623448D01*
X148457991Y-89652778D01*
X148301466Y-89736443D01*
X148131627Y-89787963D01*
X148065443Y-89794481D01*
X147999260Y-89801000D01*
X147910740Y-89801000D01*
X147844557Y-89794481D01*
X147778373Y-89787963D01*
X147608534Y-89736443D01*
X147452009Y-89652778D01*
X147416271Y-89623448D01*
X147314814Y-89540186D01*
X147231552Y-89438729D01*
X147202222Y-89402991D01*
X147118557Y-89246466D01*
X147067037Y-89076627D01*
X147049641Y-88900000D01*
X147067037Y-88723373D01*
X147118557Y-88553534D01*
X147202222Y-88397009D01*
X147231552Y-88361271D01*
X147314814Y-88259814D01*
X147416271Y-88176552D01*
X147452009Y-88147222D01*
X147608534Y-88063557D01*
X147778373Y-88012037D01*
X147844557Y-88005519D01*
X147910740Y-87999000D01*
X147999260Y-87999000D01*
X148065443Y-88005519D01*
X148065443Y-88005519D01*
G37*
G36*
X138540442Y-86735518D02*
G01*
X138606627Y-86742037D01*
X138776466Y-86793557D01*
X138932991Y-86877222D01*
X138968729Y-86906552D01*
X139070186Y-86989814D01*
X139153448Y-87091271D01*
X139182778Y-87127009D01*
X139266443Y-87283534D01*
X139317963Y-87453373D01*
X139335359Y-87630000D01*
X139317963Y-87806627D01*
X139266443Y-87976466D01*
X139182778Y-88132991D01*
X139153448Y-88168729D01*
X139070186Y-88270186D01*
X138968729Y-88353448D01*
X138932991Y-88382778D01*
X138776466Y-88466443D01*
X138606627Y-88517963D01*
X138540442Y-88524482D01*
X138474260Y-88531000D01*
X138385740Y-88531000D01*
X138319558Y-88524482D01*
X138253373Y-88517963D01*
X138083534Y-88466443D01*
X137927009Y-88382778D01*
X137891271Y-88353448D01*
X137789814Y-88270186D01*
X137706552Y-88168729D01*
X137677222Y-88132991D01*
X137593557Y-87976466D01*
X137542037Y-87806627D01*
X137524641Y-87630000D01*
X137542037Y-87453373D01*
X137593557Y-87283534D01*
X137677222Y-87127009D01*
X137706552Y-87091271D01*
X137789814Y-86989814D01*
X137891271Y-86906552D01*
X137927009Y-86877222D01*
X138083534Y-86793557D01*
X138253373Y-86742037D01*
X138319558Y-86735518D01*
X138385740Y-86729000D01*
X138474260Y-86729000D01*
X138540442Y-86735518D01*
X138540442Y-86735518D01*
G37*
G36*
X134251000Y-88531000D02*
G01*
X132449000Y-88531000D01*
X132449000Y-86729000D01*
X134251000Y-86729000D01*
X134251000Y-88531000D01*
X134251000Y-88531000D01*
G37*
G36*
X136000442Y-86735518D02*
G01*
X136066627Y-86742037D01*
X136236466Y-86793557D01*
X136392991Y-86877222D01*
X136428729Y-86906552D01*
X136530186Y-86989814D01*
X136613448Y-87091271D01*
X136642778Y-87127009D01*
X136726443Y-87283534D01*
X136777963Y-87453373D01*
X136795359Y-87630000D01*
X136777963Y-87806627D01*
X136726443Y-87976466D01*
X136642778Y-88132991D01*
X136613448Y-88168729D01*
X136530186Y-88270186D01*
X136428729Y-88353448D01*
X136392991Y-88382778D01*
X136236466Y-88466443D01*
X136066627Y-88517963D01*
X136000442Y-88524482D01*
X135934260Y-88531000D01*
X135845740Y-88531000D01*
X135779558Y-88524482D01*
X135713373Y-88517963D01*
X135543534Y-88466443D01*
X135387009Y-88382778D01*
X135351271Y-88353448D01*
X135249814Y-88270186D01*
X135166552Y-88168729D01*
X135137222Y-88132991D01*
X135053557Y-87976466D01*
X135002037Y-87806627D01*
X134984641Y-87630000D01*
X135002037Y-87453373D01*
X135053557Y-87283534D01*
X135137222Y-87127009D01*
X135166552Y-87091271D01*
X135249814Y-86989814D01*
X135351271Y-86906552D01*
X135387009Y-86877222D01*
X135543534Y-86793557D01*
X135713373Y-86742037D01*
X135779558Y-86735518D01*
X135845740Y-86729000D01*
X135934260Y-86729000D01*
X136000442Y-86735518D01*
X136000442Y-86735518D01*
G37*
G36*
X153936000Y-87896000D02*
G01*
X152134000Y-87896000D01*
X152134000Y-86094000D01*
X153936000Y-86094000D01*
X153936000Y-87896000D01*
X153936000Y-87896000D01*
G37*
G36*
X158225442Y-86100518D02*
G01*
X158291627Y-86107037D01*
X158461466Y-86158557D01*
X158617991Y-86242222D01*
X158653729Y-86271552D01*
X158755186Y-86354814D01*
X158838448Y-86456271D01*
X158867778Y-86492009D01*
X158951443Y-86648534D01*
X159002963Y-86818373D01*
X159020359Y-86995000D01*
X159002963Y-87171627D01*
X158951443Y-87341466D01*
X158867778Y-87497991D01*
X158838448Y-87533729D01*
X158755186Y-87635186D01*
X158653729Y-87718448D01*
X158617991Y-87747778D01*
X158461466Y-87831443D01*
X158291627Y-87882963D01*
X158225443Y-87889481D01*
X158159260Y-87896000D01*
X158070740Y-87896000D01*
X158004557Y-87889481D01*
X157938373Y-87882963D01*
X157768534Y-87831443D01*
X157612009Y-87747778D01*
X157576271Y-87718448D01*
X157474814Y-87635186D01*
X157391552Y-87533729D01*
X157362222Y-87497991D01*
X157278557Y-87341466D01*
X157227037Y-87171627D01*
X157209641Y-86995000D01*
X157227037Y-86818373D01*
X157278557Y-86648534D01*
X157362222Y-86492009D01*
X157391552Y-86456271D01*
X157474814Y-86354814D01*
X157576271Y-86271552D01*
X157612009Y-86242222D01*
X157768534Y-86158557D01*
X157938373Y-86107037D01*
X158004558Y-86100518D01*
X158070740Y-86094000D01*
X158159260Y-86094000D01*
X158225442Y-86100518D01*
X158225442Y-86100518D01*
G37*
G36*
X155685442Y-86100518D02*
G01*
X155751627Y-86107037D01*
X155921466Y-86158557D01*
X156077991Y-86242222D01*
X156113729Y-86271552D01*
X156215186Y-86354814D01*
X156298448Y-86456271D01*
X156327778Y-86492009D01*
X156411443Y-86648534D01*
X156462963Y-86818373D01*
X156480359Y-86995000D01*
X156462963Y-87171627D01*
X156411443Y-87341466D01*
X156327778Y-87497991D01*
X156298448Y-87533729D01*
X156215186Y-87635186D01*
X156113729Y-87718448D01*
X156077991Y-87747778D01*
X155921466Y-87831443D01*
X155751627Y-87882963D01*
X155685443Y-87889481D01*
X155619260Y-87896000D01*
X155530740Y-87896000D01*
X155464557Y-87889481D01*
X155398373Y-87882963D01*
X155228534Y-87831443D01*
X155072009Y-87747778D01*
X155036271Y-87718448D01*
X154934814Y-87635186D01*
X154851552Y-87533729D01*
X154822222Y-87497991D01*
X154738557Y-87341466D01*
X154687037Y-87171627D01*
X154669641Y-86995000D01*
X154687037Y-86818373D01*
X154738557Y-86648534D01*
X154822222Y-86492009D01*
X154851552Y-86456271D01*
X154934814Y-86354814D01*
X155036271Y-86271552D01*
X155072009Y-86242222D01*
X155228534Y-86158557D01*
X155398373Y-86107037D01*
X155464558Y-86100518D01*
X155530740Y-86094000D01*
X155619260Y-86094000D01*
X155685442Y-86100518D01*
X155685442Y-86100518D01*
G37*
G36*
X128380442Y-86100518D02*
G01*
X128446627Y-86107037D01*
X128616466Y-86158557D01*
X128772991Y-86242222D01*
X128808729Y-86271552D01*
X128910186Y-86354814D01*
X128993448Y-86456271D01*
X129022778Y-86492009D01*
X129106443Y-86648534D01*
X129157963Y-86818373D01*
X129175359Y-86995000D01*
X129157963Y-87171627D01*
X129106443Y-87341466D01*
X129022778Y-87497991D01*
X128993448Y-87533729D01*
X128910186Y-87635186D01*
X128808729Y-87718448D01*
X128772991Y-87747778D01*
X128616466Y-87831443D01*
X128446627Y-87882963D01*
X128380443Y-87889481D01*
X128314260Y-87896000D01*
X128225740Y-87896000D01*
X128159557Y-87889481D01*
X128093373Y-87882963D01*
X127923534Y-87831443D01*
X127767009Y-87747778D01*
X127731271Y-87718448D01*
X127629814Y-87635186D01*
X127546552Y-87533729D01*
X127517222Y-87497991D01*
X127433557Y-87341466D01*
X127382037Y-87171627D01*
X127364641Y-86995000D01*
X127382037Y-86818373D01*
X127433557Y-86648534D01*
X127517222Y-86492009D01*
X127546552Y-86456271D01*
X127629814Y-86354814D01*
X127731271Y-86271552D01*
X127767009Y-86242222D01*
X127923534Y-86158557D01*
X128093373Y-86107037D01*
X128159558Y-86100518D01*
X128225740Y-86094000D01*
X128314260Y-86094000D01*
X128380442Y-86100518D01*
X128380442Y-86100518D01*
G37*
G36*
X129171000Y-85356000D02*
G01*
X127369000Y-85356000D01*
X127369000Y-83554000D01*
X129171000Y-83554000D01*
X129171000Y-85356000D01*
X129171000Y-85356000D01*
G37*
G36*
X170340721Y-83925174D02*
G01*
X170440995Y-83966709D01*
X170440996Y-83966710D01*
X170531242Y-84027010D01*
X170607990Y-84103758D01*
X170607991Y-84103760D01*
X170668291Y-84194005D01*
X170709826Y-84294279D01*
X170731000Y-84400730D01*
X170731000Y-84509270D01*
X170709826Y-84615721D01*
X170668291Y-84715995D01*
X170668290Y-84715996D01*
X170607990Y-84806242D01*
X170531242Y-84882990D01*
X170485812Y-84913345D01*
X170440995Y-84943291D01*
X170340721Y-84984826D01*
X170234270Y-85006000D01*
X170125730Y-85006000D01*
X170019279Y-84984826D01*
X169919005Y-84943291D01*
X169874188Y-84913345D01*
X169828758Y-84882990D01*
X169752010Y-84806242D01*
X169691710Y-84715996D01*
X169691709Y-84715995D01*
X169650174Y-84615721D01*
X169629000Y-84509270D01*
X169629000Y-84400730D01*
X169650174Y-84294279D01*
X169691709Y-84194005D01*
X169752009Y-84103760D01*
X169752010Y-84103758D01*
X169828758Y-84027010D01*
X169919004Y-83966710D01*
X169919005Y-83966709D01*
X170019279Y-83925174D01*
X170125730Y-83904000D01*
X170234270Y-83904000D01*
X170340721Y-83925174D01*
X170340721Y-83925174D01*
G37*
G36*
X115730721Y-83925174D02*
G01*
X115830995Y-83966709D01*
X115830996Y-83966710D01*
X115921242Y-84027010D01*
X115997990Y-84103758D01*
X115997991Y-84103760D01*
X116058291Y-84194005D01*
X116099826Y-84294279D01*
X116121000Y-84400730D01*
X116121000Y-84509270D01*
X116099826Y-84615721D01*
X116058291Y-84715995D01*
X116058290Y-84715996D01*
X115997990Y-84806242D01*
X115921242Y-84882990D01*
X115875812Y-84913345D01*
X115830995Y-84943291D01*
X115730721Y-84984826D01*
X115624270Y-85006000D01*
X115515730Y-85006000D01*
X115409279Y-84984826D01*
X115309005Y-84943291D01*
X115264188Y-84913345D01*
X115218758Y-84882990D01*
X115142010Y-84806242D01*
X115081710Y-84715996D01*
X115081709Y-84715995D01*
X115040174Y-84615721D01*
X115019000Y-84509270D01*
X115019000Y-84400730D01*
X115040174Y-84294279D01*
X115081709Y-84194005D01*
X115142009Y-84103760D01*
X115142010Y-84103758D01*
X115218758Y-84027010D01*
X115309004Y-83966710D01*
X115309005Y-83966709D01*
X115409279Y-83925174D01*
X115515730Y-83904000D01*
X115624270Y-83904000D01*
X115730721Y-83925174D01*
X115730721Y-83925174D01*
G37*
G36*
X143670721Y-82655174D02*
G01*
X143770995Y-82696709D01*
X143770996Y-82696710D01*
X143861242Y-82757010D01*
X143937990Y-82833758D01*
X143937991Y-82833760D01*
X143998291Y-82924005D01*
X144039826Y-83024279D01*
X144061000Y-83130730D01*
X144061000Y-83239270D01*
X144039826Y-83345721D01*
X143998291Y-83445995D01*
X143998290Y-83445996D01*
X143937990Y-83536242D01*
X143861242Y-83612990D01*
X143815812Y-83643345D01*
X143770995Y-83673291D01*
X143670721Y-83714826D01*
X143564270Y-83736000D01*
X143455730Y-83736000D01*
X143349279Y-83714826D01*
X143249005Y-83673291D01*
X143204188Y-83643345D01*
X143158758Y-83612990D01*
X143082010Y-83536242D01*
X143021710Y-83445996D01*
X143021709Y-83445995D01*
X142980174Y-83345721D01*
X142959000Y-83239270D01*
X142959000Y-83130730D01*
X142980174Y-83024279D01*
X143021709Y-82924005D01*
X143082009Y-82833760D01*
X143082010Y-82833758D01*
X143158758Y-82757010D01*
X143249004Y-82696710D01*
X143249005Y-82696709D01*
X143349279Y-82655174D01*
X143455730Y-82634000D01*
X143564270Y-82634000D01*
X143670721Y-82655174D01*
X143670721Y-82655174D01*
G37*
G36*
X148781560Y-79484064D02*
G01*
X148933027Y-79514193D01*
X149147045Y-79602842D01*
X149147046Y-79602843D01*
X149339654Y-79731539D01*
X149503461Y-79895346D01*
X149589258Y-80023751D01*
X149632158Y-80087955D01*
X149720807Y-80301973D01*
X149766000Y-80529174D01*
X149766000Y-80760826D01*
X149720807Y-80988027D01*
X149632158Y-81202045D01*
X149632157Y-81202046D01*
X149503461Y-81394654D01*
X149339654Y-81558461D01*
X149211249Y-81644258D01*
X149147045Y-81687158D01*
X148933027Y-81775807D01*
X148781560Y-81805936D01*
X148705827Y-81821000D01*
X148474173Y-81821000D01*
X148398440Y-81805936D01*
X148246973Y-81775807D01*
X148032955Y-81687158D01*
X147968751Y-81644258D01*
X147840346Y-81558461D01*
X147676539Y-81394654D01*
X147547843Y-81202046D01*
X147547842Y-81202045D01*
X147459193Y-80988027D01*
X147414000Y-80760826D01*
X147414000Y-80529174D01*
X147459193Y-80301973D01*
X147547842Y-80087955D01*
X147590742Y-80023751D01*
X147676539Y-79895346D01*
X147840346Y-79731539D01*
X148032954Y-79602843D01*
X148032955Y-79602842D01*
X148246973Y-79514193D01*
X148398440Y-79484064D01*
X148474173Y-79469000D01*
X148705827Y-79469000D01*
X148781560Y-79484064D01*
X148781560Y-79484064D01*
G37*
G36*
X153861560Y-79484064D02*
G01*
X154013027Y-79514193D01*
X154227045Y-79602842D01*
X154227046Y-79602843D01*
X154419654Y-79731539D01*
X154583461Y-79895346D01*
X154669258Y-80023751D01*
X154712158Y-80087955D01*
X154800807Y-80301973D01*
X154846000Y-80529174D01*
X154846000Y-80760826D01*
X154800807Y-80988027D01*
X154712158Y-81202045D01*
X154712157Y-81202046D01*
X154583461Y-81394654D01*
X154419654Y-81558461D01*
X154291249Y-81644258D01*
X154227045Y-81687158D01*
X154013027Y-81775807D01*
X153861560Y-81805936D01*
X153785827Y-81821000D01*
X153554173Y-81821000D01*
X153478440Y-81805936D01*
X153326973Y-81775807D01*
X153112955Y-81687158D01*
X153048751Y-81644258D01*
X152920346Y-81558461D01*
X152756539Y-81394654D01*
X152627843Y-81202046D01*
X152627842Y-81202045D01*
X152539193Y-80988027D01*
X152494000Y-80760826D01*
X152494000Y-80529174D01*
X152539193Y-80301973D01*
X152627842Y-80087955D01*
X152670742Y-80023751D01*
X152756539Y-79895346D01*
X152920346Y-79731539D01*
X153112954Y-79602843D01*
X153112955Y-79602842D01*
X153326973Y-79514193D01*
X153478440Y-79484064D01*
X153554173Y-79469000D01*
X153785827Y-79469000D01*
X153861560Y-79484064D01*
X153861560Y-79484064D01*
G37*
G36*
X125921560Y-79484064D02*
G01*
X126073027Y-79514193D01*
X126287045Y-79602842D01*
X126287046Y-79602843D01*
X126479654Y-79731539D01*
X126643461Y-79895346D01*
X126729258Y-80023751D01*
X126772158Y-80087955D01*
X126860807Y-80301973D01*
X126906000Y-80529174D01*
X126906000Y-80760826D01*
X126860807Y-80988027D01*
X126772158Y-81202045D01*
X126772157Y-81202046D01*
X126643461Y-81394654D01*
X126479654Y-81558461D01*
X126351249Y-81644258D01*
X126287045Y-81687158D01*
X126073027Y-81775807D01*
X125921560Y-81805936D01*
X125845827Y-81821000D01*
X125614173Y-81821000D01*
X125538440Y-81805936D01*
X125386973Y-81775807D01*
X125172955Y-81687158D01*
X125108751Y-81644258D01*
X124980346Y-81558461D01*
X124816539Y-81394654D01*
X124687843Y-81202046D01*
X124687842Y-81202045D01*
X124599193Y-80988027D01*
X124554000Y-80760826D01*
X124554000Y-80529174D01*
X124599193Y-80301973D01*
X124687842Y-80087955D01*
X124730742Y-80023751D01*
X124816539Y-79895346D01*
X124980346Y-79731539D01*
X125172954Y-79602843D01*
X125172955Y-79602842D01*
X125386973Y-79514193D01*
X125538440Y-79484064D01*
X125614173Y-79469000D01*
X125845827Y-79469000D01*
X125921560Y-79484064D01*
X125921560Y-79484064D01*
G37*
G36*
X120841560Y-79484064D02*
G01*
X120993027Y-79514193D01*
X121207045Y-79602842D01*
X121207046Y-79602843D01*
X121399654Y-79731539D01*
X121563461Y-79895346D01*
X121649258Y-80023751D01*
X121692158Y-80087955D01*
X121780807Y-80301973D01*
X121826000Y-80529174D01*
X121826000Y-80760826D01*
X121780807Y-80988027D01*
X121692158Y-81202045D01*
X121692157Y-81202046D01*
X121563461Y-81394654D01*
X121399654Y-81558461D01*
X121271249Y-81644258D01*
X121207045Y-81687158D01*
X120993027Y-81775807D01*
X120841560Y-81805936D01*
X120765827Y-81821000D01*
X120534173Y-81821000D01*
X120458440Y-81805936D01*
X120306973Y-81775807D01*
X120092955Y-81687158D01*
X120028751Y-81644258D01*
X119900346Y-81558461D01*
X119736539Y-81394654D01*
X119607843Y-81202046D01*
X119607842Y-81202045D01*
X119519193Y-80988027D01*
X119474000Y-80760826D01*
X119474000Y-80529174D01*
X119519193Y-80301973D01*
X119607842Y-80087955D01*
X119650742Y-80023751D01*
X119736539Y-79895346D01*
X119900346Y-79731539D01*
X120092954Y-79602843D01*
X120092955Y-79602842D01*
X120306973Y-79514193D01*
X120458440Y-79484064D01*
X120534173Y-79469000D01*
X120765827Y-79469000D01*
X120841560Y-79484064D01*
X120841560Y-79484064D01*
G37*
G36*
X132176561Y-79484064D02*
G01*
X132328028Y-79514193D01*
X132542046Y-79602842D01*
X132542047Y-79602843D01*
X132734655Y-79731539D01*
X132898462Y-79895346D01*
X132984259Y-80023751D01*
X133027159Y-80087955D01*
X133115808Y-80301973D01*
X133161001Y-80529174D01*
X133161001Y-80760826D01*
X133115808Y-80988027D01*
X133027159Y-81202045D01*
X133027158Y-81202046D01*
X132898462Y-81394654D01*
X132734655Y-81558461D01*
X132606250Y-81644258D01*
X132542046Y-81687158D01*
X132328028Y-81775807D01*
X132176561Y-81805936D01*
X132100828Y-81821000D01*
X131869174Y-81821000D01*
X131793441Y-81805936D01*
X131641974Y-81775807D01*
X131427956Y-81687158D01*
X131363752Y-81644258D01*
X131235347Y-81558461D01*
X131071540Y-81394654D01*
X130942844Y-81202046D01*
X130942843Y-81202045D01*
X130854194Y-80988027D01*
X130809001Y-80760826D01*
X130809001Y-80529174D01*
X130854194Y-80301973D01*
X130942843Y-80087955D01*
X130985743Y-80023751D01*
X131071540Y-79895346D01*
X131235347Y-79731539D01*
X131427955Y-79602843D01*
X131427956Y-79602842D01*
X131641974Y-79514193D01*
X131793441Y-79484064D01*
X131869174Y-79469000D01*
X132100828Y-79469000D01*
X132176561Y-79484064D01*
X132176561Y-79484064D01*
G37*
G36*
X137256561Y-79484064D02*
G01*
X137408028Y-79514193D01*
X137622046Y-79602842D01*
X137622047Y-79602843D01*
X137814655Y-79731539D01*
X137978462Y-79895346D01*
X138064259Y-80023751D01*
X138107159Y-80087955D01*
X138195808Y-80301973D01*
X138241001Y-80529174D01*
X138241001Y-80760826D01*
X138195808Y-80988027D01*
X138107159Y-81202045D01*
X138107158Y-81202046D01*
X137978462Y-81394654D01*
X137814655Y-81558461D01*
X137686250Y-81644258D01*
X137622046Y-81687158D01*
X137408028Y-81775807D01*
X137256561Y-81805936D01*
X137180828Y-81821000D01*
X136949174Y-81821000D01*
X136873441Y-81805936D01*
X136721974Y-81775807D01*
X136507956Y-81687158D01*
X136443752Y-81644258D01*
X136315347Y-81558461D01*
X136151540Y-81394654D01*
X136022844Y-81202046D01*
X136022843Y-81202045D01*
X135934194Y-80988027D01*
X135889001Y-80760826D01*
X135889001Y-80529174D01*
X135934194Y-80301973D01*
X136022843Y-80087955D01*
X136065743Y-80023751D01*
X136151540Y-79895346D01*
X136315347Y-79731539D01*
X136507955Y-79602843D01*
X136507956Y-79602842D01*
X136721974Y-79514193D01*
X136873441Y-79484064D01*
X136949174Y-79469000D01*
X137180828Y-79469000D01*
X137256561Y-79484064D01*
X137256561Y-79484064D01*
G37*
G36*
X160211560Y-79484064D02*
G01*
X160363027Y-79514193D01*
X160577045Y-79602842D01*
X160577046Y-79602843D01*
X160769654Y-79731539D01*
X160933461Y-79895346D01*
X161019258Y-80023751D01*
X161062158Y-80087955D01*
X161150807Y-80301973D01*
X161196000Y-80529174D01*
X161196000Y-80760826D01*
X161150807Y-80988027D01*
X161062158Y-81202045D01*
X161062157Y-81202046D01*
X160933461Y-81394654D01*
X160769654Y-81558461D01*
X160641249Y-81644258D01*
X160577045Y-81687158D01*
X160363027Y-81775807D01*
X160211560Y-81805936D01*
X160135827Y-81821000D01*
X159904173Y-81821000D01*
X159828440Y-81805936D01*
X159676973Y-81775807D01*
X159462955Y-81687158D01*
X159398751Y-81644258D01*
X159270346Y-81558461D01*
X159106539Y-81394654D01*
X158977843Y-81202046D01*
X158977842Y-81202045D01*
X158889193Y-80988027D01*
X158844000Y-80760826D01*
X158844000Y-80529174D01*
X158889193Y-80301973D01*
X158977842Y-80087955D01*
X159020742Y-80023751D01*
X159106539Y-79895346D01*
X159270346Y-79731539D01*
X159462954Y-79602843D01*
X159462955Y-79602842D01*
X159676973Y-79514193D01*
X159828440Y-79484064D01*
X159904173Y-79469000D01*
X160135827Y-79469000D01*
X160211560Y-79484064D01*
X160211560Y-79484064D01*
G37*
G36*
X165291560Y-79484064D02*
G01*
X165443027Y-79514193D01*
X165657045Y-79602842D01*
X165657046Y-79602843D01*
X165849654Y-79731539D01*
X166013461Y-79895346D01*
X166099258Y-80023751D01*
X166142158Y-80087955D01*
X166230807Y-80301973D01*
X166276000Y-80529174D01*
X166276000Y-80760826D01*
X166230807Y-80988027D01*
X166142158Y-81202045D01*
X166142157Y-81202046D01*
X166013461Y-81394654D01*
X165849654Y-81558461D01*
X165721249Y-81644258D01*
X165657045Y-81687158D01*
X165443027Y-81775807D01*
X165291560Y-81805936D01*
X165215827Y-81821000D01*
X164984173Y-81821000D01*
X164908440Y-81805936D01*
X164756973Y-81775807D01*
X164542955Y-81687158D01*
X164478751Y-81644258D01*
X164350346Y-81558461D01*
X164186539Y-81394654D01*
X164057843Y-81202046D01*
X164057842Y-81202045D01*
X163969193Y-80988027D01*
X163924000Y-80760826D01*
X163924000Y-80529174D01*
X163969193Y-80301973D01*
X164057842Y-80087955D01*
X164100742Y-80023751D01*
X164186539Y-79895346D01*
X164350346Y-79731539D01*
X164542954Y-79602843D01*
X164542955Y-79602842D01*
X164756973Y-79514193D01*
X164908440Y-79484064D01*
X164984173Y-79469000D01*
X165215827Y-79469000D01*
X165291560Y-79484064D01*
X165291560Y-79484064D01*
G37*
G36*
X172267021Y-74141640D02*
G01*
X172776769Y-74352785D01*
X172776771Y-74352786D01*
X173235534Y-74659321D01*
X173625679Y-75049466D01*
X173932214Y-75508229D01*
X173932215Y-75508231D01*
X174143360Y-76017979D01*
X174251000Y-76559124D01*
X174251000Y-77110876D01*
X174143360Y-77652021D01*
X173932215Y-78161769D01*
X173932214Y-78161771D01*
X173625679Y-78620534D01*
X173235534Y-79010679D01*
X172776771Y-79317214D01*
X172776770Y-79317215D01*
X172776769Y-79317215D01*
X172267021Y-79528360D01*
X171725876Y-79636000D01*
X171174124Y-79636000D01*
X170632979Y-79528360D01*
X170123231Y-79317215D01*
X170123230Y-79317215D01*
X170123229Y-79317214D01*
X169664466Y-79010679D01*
X169274321Y-78620534D01*
X168967786Y-78161771D01*
X168967785Y-78161769D01*
X168756640Y-77652021D01*
X168649000Y-77110876D01*
X168649000Y-76559124D01*
X168756640Y-76017979D01*
X168967785Y-75508231D01*
X168967786Y-75508229D01*
X169274321Y-75049466D01*
X169664466Y-74659321D01*
X170123229Y-74352786D01*
X170123231Y-74352785D01*
X170632979Y-74141640D01*
X171174124Y-74034000D01*
X171725876Y-74034000D01*
X172267021Y-74141640D01*
X172267021Y-74141640D01*
G37*
G36*
X115117021Y-74141640D02*
G01*
X115626769Y-74352785D01*
X115626771Y-74352786D01*
X116085534Y-74659321D01*
X116475679Y-75049466D01*
X116782214Y-75508229D01*
X116782215Y-75508231D01*
X116993360Y-76017979D01*
X117101000Y-76559124D01*
X117101000Y-77110876D01*
X116993360Y-77652021D01*
X116782215Y-78161769D01*
X116782214Y-78161771D01*
X116475679Y-78620534D01*
X116085534Y-79010679D01*
X115626771Y-79317214D01*
X115626770Y-79317215D01*
X115626769Y-79317215D01*
X115117021Y-79528360D01*
X114575876Y-79636000D01*
X114024124Y-79636000D01*
X113482979Y-79528360D01*
X112973231Y-79317215D01*
X112973230Y-79317215D01*
X112973229Y-79317214D01*
X112514466Y-79010679D01*
X112124321Y-78620534D01*
X111817786Y-78161771D01*
X111817785Y-78161769D01*
X111606640Y-77652021D01*
X111499000Y-77110876D01*
X111499000Y-76559124D01*
X111606640Y-76017979D01*
X111817785Y-75508231D01*
X111817786Y-75508229D01*
X112124321Y-75049466D01*
X112514466Y-74659321D01*
X112973229Y-74352786D01*
X112973231Y-74352785D01*
X113482979Y-74141640D01*
X114024124Y-74034000D01*
X114575876Y-74034000D01*
X115117021Y-74141640D01*
X115117021Y-74141640D01*
G37*
G36*
X134700272Y-77042783D02*
G01*
X134838859Y-77070350D01*
X135034678Y-77151461D01*
X135210911Y-77269216D01*
X135360785Y-77419090D01*
X135478540Y-77595323D01*
X135559651Y-77791142D01*
X135601001Y-77999023D01*
X135601001Y-78210977D01*
X135559651Y-78418858D01*
X135478540Y-78614677D01*
X135360785Y-78790910D01*
X135210911Y-78940784D01*
X135034678Y-79058539D01*
X134838859Y-79139650D01*
X134700272Y-79167217D01*
X134630979Y-79181000D01*
X134419023Y-79181000D01*
X134349730Y-79167217D01*
X134211143Y-79139650D01*
X134015324Y-79058539D01*
X133839091Y-78940784D01*
X133689217Y-78790910D01*
X133571462Y-78614677D01*
X133490351Y-78418858D01*
X133449001Y-78210977D01*
X133449001Y-77999023D01*
X133490351Y-77791142D01*
X133571462Y-77595323D01*
X133689217Y-77419090D01*
X133839091Y-77269216D01*
X134015324Y-77151461D01*
X134211143Y-77070350D01*
X134349730Y-77042783D01*
X134419023Y-77029000D01*
X134630979Y-77029000D01*
X134700272Y-77042783D01*
X134700272Y-77042783D01*
G37*
G36*
X123365271Y-77042783D02*
G01*
X123503858Y-77070350D01*
X123699677Y-77151461D01*
X123875910Y-77269216D01*
X124025784Y-77419090D01*
X124143539Y-77595323D01*
X124224650Y-77791142D01*
X124266000Y-77999023D01*
X124266000Y-78210977D01*
X124224650Y-78418858D01*
X124143539Y-78614677D01*
X124025784Y-78790910D01*
X123875910Y-78940784D01*
X123699677Y-79058539D01*
X123503858Y-79139650D01*
X123365271Y-79167217D01*
X123295978Y-79181000D01*
X123084022Y-79181000D01*
X123014729Y-79167217D01*
X122876142Y-79139650D01*
X122680323Y-79058539D01*
X122504090Y-78940784D01*
X122354216Y-78790910D01*
X122236461Y-78614677D01*
X122155350Y-78418858D01*
X122114000Y-78210977D01*
X122114000Y-77999023D01*
X122155350Y-77791142D01*
X122236461Y-77595323D01*
X122354216Y-77419090D01*
X122504090Y-77269216D01*
X122680323Y-77151461D01*
X122876142Y-77070350D01*
X123014729Y-77042783D01*
X123084022Y-77029000D01*
X123295978Y-77029000D01*
X123365271Y-77042783D01*
X123365271Y-77042783D01*
G37*
G36*
X162735271Y-77042783D02*
G01*
X162873858Y-77070350D01*
X163069677Y-77151461D01*
X163245910Y-77269216D01*
X163395784Y-77419090D01*
X163513539Y-77595323D01*
X163594650Y-77791142D01*
X163636000Y-77999023D01*
X163636000Y-78210977D01*
X163594650Y-78418858D01*
X163513539Y-78614677D01*
X163395784Y-78790910D01*
X163245910Y-78940784D01*
X163069677Y-79058539D01*
X162873858Y-79139650D01*
X162735271Y-79167217D01*
X162665978Y-79181000D01*
X162454022Y-79181000D01*
X162384729Y-79167217D01*
X162246142Y-79139650D01*
X162050323Y-79058539D01*
X161874090Y-78940784D01*
X161724216Y-78790910D01*
X161606461Y-78614677D01*
X161525350Y-78418858D01*
X161484000Y-78210977D01*
X161484000Y-77999023D01*
X161525350Y-77791142D01*
X161606461Y-77595323D01*
X161724216Y-77419090D01*
X161874090Y-77269216D01*
X162050323Y-77151461D01*
X162246142Y-77070350D01*
X162384729Y-77042783D01*
X162454022Y-77029000D01*
X162665978Y-77029000D01*
X162735271Y-77042783D01*
X162735271Y-77042783D01*
G37*
G36*
X151305271Y-77042783D02*
G01*
X151443858Y-77070350D01*
X151639677Y-77151461D01*
X151815910Y-77269216D01*
X151965784Y-77419090D01*
X152083539Y-77595323D01*
X152164650Y-77791142D01*
X152206000Y-77999023D01*
X152206000Y-78210977D01*
X152164650Y-78418858D01*
X152083539Y-78614677D01*
X151965784Y-78790910D01*
X151815910Y-78940784D01*
X151639677Y-79058539D01*
X151443858Y-79139650D01*
X151305271Y-79167217D01*
X151235978Y-79181000D01*
X151024022Y-79181000D01*
X150954729Y-79167217D01*
X150816142Y-79139650D01*
X150620323Y-79058539D01*
X150444090Y-78940784D01*
X150294216Y-78790910D01*
X150176461Y-78614677D01*
X150095350Y-78418858D01*
X150054000Y-78210977D01*
X150054000Y-77999023D01*
X150095350Y-77791142D01*
X150176461Y-77595323D01*
X150294216Y-77419090D01*
X150444090Y-77269216D01*
X150620323Y-77151461D01*
X150816142Y-77070350D01*
X150954729Y-77042783D01*
X151024022Y-77029000D01*
X151235978Y-77029000D01*
X151305271Y-77042783D01*
X151305271Y-77042783D01*
G37*
G36*
X132176561Y-74404064D02*
G01*
X132328028Y-74434193D01*
X132542046Y-74522842D01*
X132542047Y-74522843D01*
X132734655Y-74651539D01*
X132898462Y-74815346D01*
X132984259Y-74943751D01*
X133027159Y-75007955D01*
X133115808Y-75221973D01*
X133161001Y-75449174D01*
X133161001Y-75680826D01*
X133115808Y-75908027D01*
X133027159Y-76122045D01*
X133027158Y-76122046D01*
X132898462Y-76314654D01*
X132734655Y-76478461D01*
X132613934Y-76559124D01*
X132542046Y-76607158D01*
X132328028Y-76695807D01*
X132176561Y-76725936D01*
X132100828Y-76741000D01*
X131869174Y-76741000D01*
X131793441Y-76725936D01*
X131641974Y-76695807D01*
X131427956Y-76607158D01*
X131356068Y-76559124D01*
X131235347Y-76478461D01*
X131071540Y-76314654D01*
X130942844Y-76122046D01*
X130942843Y-76122045D01*
X130854194Y-75908027D01*
X130809001Y-75680826D01*
X130809001Y-75449174D01*
X130854194Y-75221973D01*
X130942843Y-75007955D01*
X130985743Y-74943751D01*
X131071540Y-74815346D01*
X131235347Y-74651539D01*
X131427955Y-74522843D01*
X131427956Y-74522842D01*
X131641974Y-74434193D01*
X131793441Y-74404064D01*
X131869174Y-74389000D01*
X132100828Y-74389000D01*
X132176561Y-74404064D01*
X132176561Y-74404064D01*
G37*
G36*
X137256561Y-74404064D02*
G01*
X137408028Y-74434193D01*
X137622046Y-74522842D01*
X137622047Y-74522843D01*
X137814655Y-74651539D01*
X137978462Y-74815346D01*
X138064259Y-74943751D01*
X138107159Y-75007955D01*
X138195808Y-75221973D01*
X138241001Y-75449174D01*
X138241001Y-75680826D01*
X138195808Y-75908027D01*
X138107159Y-76122045D01*
X138107158Y-76122046D01*
X137978462Y-76314654D01*
X137814655Y-76478461D01*
X137693934Y-76559124D01*
X137622046Y-76607158D01*
X137408028Y-76695807D01*
X137256561Y-76725936D01*
X137180828Y-76741000D01*
X136949174Y-76741000D01*
X136873441Y-76725936D01*
X136721974Y-76695807D01*
X136507956Y-76607158D01*
X136436068Y-76559124D01*
X136315347Y-76478461D01*
X136151540Y-76314654D01*
X136022844Y-76122046D01*
X136022843Y-76122045D01*
X135934194Y-75908027D01*
X135889001Y-75680826D01*
X135889001Y-75449174D01*
X135934194Y-75221973D01*
X136022843Y-75007955D01*
X136065743Y-74943751D01*
X136151540Y-74815346D01*
X136315347Y-74651539D01*
X136507955Y-74522843D01*
X136507956Y-74522842D01*
X136721974Y-74434193D01*
X136873441Y-74404064D01*
X136949174Y-74389000D01*
X137180828Y-74389000D01*
X137256561Y-74404064D01*
X137256561Y-74404064D01*
G37*
G36*
X153861560Y-74404064D02*
G01*
X154013027Y-74434193D01*
X154227045Y-74522842D01*
X154227046Y-74522843D01*
X154419654Y-74651539D01*
X154583461Y-74815346D01*
X154669258Y-74943751D01*
X154712158Y-75007955D01*
X154800807Y-75221973D01*
X154846000Y-75449174D01*
X154846000Y-75680826D01*
X154800807Y-75908027D01*
X154712158Y-76122045D01*
X154712157Y-76122046D01*
X154583461Y-76314654D01*
X154419654Y-76478461D01*
X154298933Y-76559124D01*
X154227045Y-76607158D01*
X154013027Y-76695807D01*
X153861560Y-76725936D01*
X153785827Y-76741000D01*
X153554173Y-76741000D01*
X153478440Y-76725936D01*
X153326973Y-76695807D01*
X153112955Y-76607158D01*
X153041067Y-76559124D01*
X152920346Y-76478461D01*
X152756539Y-76314654D01*
X152627843Y-76122046D01*
X152627842Y-76122045D01*
X152539193Y-75908027D01*
X152494000Y-75680826D01*
X152494000Y-75449174D01*
X152539193Y-75221973D01*
X152627842Y-75007955D01*
X152670742Y-74943751D01*
X152756539Y-74815346D01*
X152920346Y-74651539D01*
X153112954Y-74522843D01*
X153112955Y-74522842D01*
X153326973Y-74434193D01*
X153478440Y-74404064D01*
X153554173Y-74389000D01*
X153785827Y-74389000D01*
X153861560Y-74404064D01*
X153861560Y-74404064D01*
G37*
G36*
X148781560Y-74404064D02*
G01*
X148933027Y-74434193D01*
X149147045Y-74522842D01*
X149147046Y-74522843D01*
X149339654Y-74651539D01*
X149503461Y-74815346D01*
X149589258Y-74943751D01*
X149632158Y-75007955D01*
X149720807Y-75221973D01*
X149766000Y-75449174D01*
X149766000Y-75680826D01*
X149720807Y-75908027D01*
X149632158Y-76122045D01*
X149632157Y-76122046D01*
X149503461Y-76314654D01*
X149339654Y-76478461D01*
X149218933Y-76559124D01*
X149147045Y-76607158D01*
X148933027Y-76695807D01*
X148781560Y-76725936D01*
X148705827Y-76741000D01*
X148474173Y-76741000D01*
X148398440Y-76725936D01*
X148246973Y-76695807D01*
X148032955Y-76607158D01*
X147961067Y-76559124D01*
X147840346Y-76478461D01*
X147676539Y-76314654D01*
X147547843Y-76122046D01*
X147547842Y-76122045D01*
X147459193Y-75908027D01*
X147414000Y-75680826D01*
X147414000Y-75449174D01*
X147459193Y-75221973D01*
X147547842Y-75007955D01*
X147590742Y-74943751D01*
X147676539Y-74815346D01*
X147840346Y-74651539D01*
X148032954Y-74522843D01*
X148032955Y-74522842D01*
X148246973Y-74434193D01*
X148398440Y-74404064D01*
X148474173Y-74389000D01*
X148705827Y-74389000D01*
X148781560Y-74404064D01*
X148781560Y-74404064D01*
G37*
G36*
X125921560Y-74404064D02*
G01*
X126073027Y-74434193D01*
X126287045Y-74522842D01*
X126287046Y-74522843D01*
X126479654Y-74651539D01*
X126643461Y-74815346D01*
X126729258Y-74943751D01*
X126772158Y-75007955D01*
X126860807Y-75221973D01*
X126906000Y-75449174D01*
X126906000Y-75680826D01*
X126860807Y-75908027D01*
X126772158Y-76122045D01*
X126772157Y-76122046D01*
X126643461Y-76314654D01*
X126479654Y-76478461D01*
X126358933Y-76559124D01*
X126287045Y-76607158D01*
X126073027Y-76695807D01*
X125921560Y-76725936D01*
X125845827Y-76741000D01*
X125614173Y-76741000D01*
X125538440Y-76725936D01*
X125386973Y-76695807D01*
X125172955Y-76607158D01*
X125101067Y-76559124D01*
X124980346Y-76478461D01*
X124816539Y-76314654D01*
X124687843Y-76122046D01*
X124687842Y-76122045D01*
X124599193Y-75908027D01*
X124554000Y-75680826D01*
X124554000Y-75449174D01*
X124599193Y-75221973D01*
X124687842Y-75007955D01*
X124730742Y-74943751D01*
X124816539Y-74815346D01*
X124980346Y-74651539D01*
X125172954Y-74522843D01*
X125172955Y-74522842D01*
X125386973Y-74434193D01*
X125538440Y-74404064D01*
X125614173Y-74389000D01*
X125845827Y-74389000D01*
X125921560Y-74404064D01*
X125921560Y-74404064D01*
G37*
G36*
X165291560Y-74404064D02*
G01*
X165443027Y-74434193D01*
X165657045Y-74522842D01*
X165657046Y-74522843D01*
X165849654Y-74651539D01*
X166013461Y-74815346D01*
X166099258Y-74943751D01*
X166142158Y-75007955D01*
X166230807Y-75221973D01*
X166276000Y-75449174D01*
X166276000Y-75680826D01*
X166230807Y-75908027D01*
X166142158Y-76122045D01*
X166142157Y-76122046D01*
X166013461Y-76314654D01*
X165849654Y-76478461D01*
X165728933Y-76559124D01*
X165657045Y-76607158D01*
X165443027Y-76695807D01*
X165291560Y-76725936D01*
X165215827Y-76741000D01*
X164984173Y-76741000D01*
X164908440Y-76725936D01*
X164756973Y-76695807D01*
X164542955Y-76607158D01*
X164471067Y-76559124D01*
X164350346Y-76478461D01*
X164186539Y-76314654D01*
X164057843Y-76122046D01*
X164057842Y-76122045D01*
X163969193Y-75908027D01*
X163924000Y-75680826D01*
X163924000Y-75449174D01*
X163969193Y-75221973D01*
X164057842Y-75007955D01*
X164100742Y-74943751D01*
X164186539Y-74815346D01*
X164350346Y-74651539D01*
X164542954Y-74522843D01*
X164542955Y-74522842D01*
X164756973Y-74434193D01*
X164908440Y-74404064D01*
X164984173Y-74389000D01*
X165215827Y-74389000D01*
X165291560Y-74404064D01*
X165291560Y-74404064D01*
G37*
G36*
X160211560Y-74404064D02*
G01*
X160363027Y-74434193D01*
X160577045Y-74522842D01*
X160577046Y-74522843D01*
X160769654Y-74651539D01*
X160933461Y-74815346D01*
X161019258Y-74943751D01*
X161062158Y-75007955D01*
X161150807Y-75221973D01*
X161196000Y-75449174D01*
X161196000Y-75680826D01*
X161150807Y-75908027D01*
X161062158Y-76122045D01*
X161062157Y-76122046D01*
X160933461Y-76314654D01*
X160769654Y-76478461D01*
X160648933Y-76559124D01*
X160577045Y-76607158D01*
X160363027Y-76695807D01*
X160211560Y-76725936D01*
X160135827Y-76741000D01*
X159904173Y-76741000D01*
X159828440Y-76725936D01*
X159676973Y-76695807D01*
X159462955Y-76607158D01*
X159391067Y-76559124D01*
X159270346Y-76478461D01*
X159106539Y-76314654D01*
X158977843Y-76122046D01*
X158977842Y-76122045D01*
X158889193Y-75908027D01*
X158844000Y-75680826D01*
X158844000Y-75449174D01*
X158889193Y-75221973D01*
X158977842Y-75007955D01*
X159020742Y-74943751D01*
X159106539Y-74815346D01*
X159270346Y-74651539D01*
X159462954Y-74522843D01*
X159462955Y-74522842D01*
X159676973Y-74434193D01*
X159828440Y-74404064D01*
X159904173Y-74389000D01*
X160135827Y-74389000D01*
X160211560Y-74404064D01*
X160211560Y-74404064D01*
G37*
G36*
X120841560Y-74404064D02*
G01*
X120993027Y-74434193D01*
X121207045Y-74522842D01*
X121207046Y-74522843D01*
X121399654Y-74651539D01*
X121563461Y-74815346D01*
X121649258Y-74943751D01*
X121692158Y-75007955D01*
X121780807Y-75221973D01*
X121826000Y-75449174D01*
X121826000Y-75680826D01*
X121780807Y-75908027D01*
X121692158Y-76122045D01*
X121692157Y-76122046D01*
X121563461Y-76314654D01*
X121399654Y-76478461D01*
X121278933Y-76559124D01*
X121207045Y-76607158D01*
X120993027Y-76695807D01*
X120841560Y-76725936D01*
X120765827Y-76741000D01*
X120534173Y-76741000D01*
X120458440Y-76725936D01*
X120306973Y-76695807D01*
X120092955Y-76607158D01*
X120021067Y-76559124D01*
X119900346Y-76478461D01*
X119736539Y-76314654D01*
X119607843Y-76122046D01*
X119607842Y-76122045D01*
X119519193Y-75908027D01*
X119474000Y-75680826D01*
X119474000Y-75449174D01*
X119519193Y-75221973D01*
X119607842Y-75007955D01*
X119650742Y-74943751D01*
X119736539Y-74815346D01*
X119900346Y-74651539D01*
X120092954Y-74522843D01*
X120092955Y-74522842D01*
X120306973Y-74434193D01*
X120458440Y-74404064D01*
X120534173Y-74389000D01*
X120765827Y-74389000D01*
X120841560Y-74404064D01*
X120841560Y-74404064D01*
G37*
M02*
