M48
; DRILL file {KiCad (5.1.2)-2} date 2019/7/17 10:15:30
; FORMAT={-:-/ absolute / inch / decimal}
; #@! TF.CreationDate,2019-07-17T10:15:30+08:00
; #@! TF.GenerationSoftware,Kicad,Pcbnew,(5.1.2)-2
; #@! TF.FileFunction,Plated,1,2,PTH
FMAT,2
INCH
T1C0.0157
T2C0.0315
T3C0.0374
T4C0.0394
T5C0.0591
T6C0.0669
T7C0.1260
%
G90
G05
T1
X4.1825Y-5.0825
X4.1859Y-5.8191
X4.1925Y-5.2
X4.195Y-5.5575
X4.1993Y-5.6857
X4.2225Y-5.08
X4.225Y-5.5125
X4.2325Y-5.2
X4.2472Y-5.6672
X4.265Y-5.2
X4.2659Y-5.8191
X4.2725Y-5.08
X4.2775Y-5.4675
X4.2875Y-5.9175
X4.2919Y-5.9519
X4.305Y-5.215
X4.3225Y-5.4175
X4.3325Y-5.2375
X4.3331Y-5.2894
X4.335Y-5.34
X4.335Y-5.6475
X4.3425Y-6.16
X4.3625Y-5.9375
X4.37Y-5.3825
X4.38Y-6.0175
X4.3859Y-5.8191
X4.395Y-5.6475
X4.41Y-5.145
X4.4125Y-4.7475
X4.4225Y-6.0575
X4.4275Y-4.8775
X4.4275Y-5.5175
X4.4306Y-5.5794
X4.4425Y-5.1625
X4.445Y-5.38
X4.4775Y-5.165
X4.485Y-6.06
X4.4925Y-5.525
X4.5075Y-5.6425
X4.5131Y-5.5794
X4.515Y-5.165
X4.5325Y-5.39
X4.5525Y-5.6425
X4.555Y-6.0025
X4.5575Y-5.165
X4.5625Y-5.7925
X4.565Y-5.43
X4.5875Y-5.9525
X4.5875Y-6.1675
X4.5925Y-4.7375
X4.5975Y-5.3975
X4.605Y-4.87
X4.605Y-5.7925
X4.61Y-5.1675
X4.61Y-5.6425
X4.645Y-5.3625
X4.6475Y-5.5475
X4.66Y-5.79
X4.6875Y-5.165
X4.6875Y-5.5
X4.6925Y-5.7025
X4.695Y-5.6375
X4.7075Y-5.7425
X4.7075Y-5.79
X4.72Y-5.9425
X4.725Y-5.455
X4.7375Y-5.1925
X4.755Y-5.5
X4.77Y-5.455
X4.775Y-6.145
X4.78Y-5.19
X4.8025Y-5.94
X4.8125Y-5.495
X4.8175Y-5.0725
X4.82Y-5.1225
X4.82Y-5.1925
X4.8325Y-4.7375
X4.835Y-5.455
X4.8425Y-4.8625
X4.8475Y-5.665
X4.85Y-5.045
X4.8675Y-5.7375
X4.8925Y-5.045
X4.8975Y-5.94
X4.905Y-5.6125
X4.9275Y-5.7525
X4.9375Y-5.66
X4.95Y-5.045
X4.9525Y-5.57
X4.9525Y-5.9325
X4.97Y-5.71
X4.9875Y-5.6025
X4.99Y-5.045
X5.0025Y-5.085
X5.01Y-5.1275
X5.01Y-5.665
X5.015Y-5.1775
X5.02Y-5.985
X5.0275Y-6.1675
X5.0475Y-5.6175
X5.075Y-5.51
X5.075Y-5.57
X5.0775Y-5.455
X5.0875Y-5.855
X5.095Y-5.36
X5.095Y-6.0325
X5.1025Y-5.805
X5.1425Y-5.895
X5.155Y-5.0825
X5.1575Y-5.035
X5.16Y-5.1225
X5.1625Y-5.1675
X5.17Y-5.7375
X5.1725Y-6.0325
X5.185Y-4.8525
X5.19Y-5.36
X5.2025Y-4.735
X5.2075Y-5.65
X5.215Y-5.42
X5.225Y-5.255
X5.2275Y-5.22
X5.2275Y-5.3025
X5.23Y-5.475
X5.23Y-5.5425
X5.23Y-5.9025
X5.2375Y-6.0325
X5.285Y-5.305
X5.29Y-6.155
X5.335Y-5.305
X5.3525Y-5.6075
X5.37Y-5.5
X5.3975Y-5.425
X5.4056Y-5.5444
X5.4075Y-5.3
X5.4425Y-5.425
X5.4725Y-5.3
T2
X5.75Y-5.655
X4.265Y-6.025
X4.25Y-4.9
T3
X4.79Y-5.85
X4.8884Y-5.85
X4.9869Y-5.85
T4
X5.095Y-4.97
T5
X5.655Y-5.355
X4.005Y-5.63
X4.0Y-5.135
T6
X5.555Y-5.255
X5.555Y-5.455
X5.755Y-5.255
X5.755Y-5.455
X3.905Y-5.53
X3.905Y-5.73
X4.105Y-5.53
X4.105Y-5.73
X3.9Y-5.035
X3.9Y-5.235
X4.1Y-5.035
X4.1Y-5.235
T7
X3.97Y-6.025
X5.695Y-4.81
X3.965Y-4.805
X5.675Y-6.015
T0
M30
