G04 #@! TF.GenerationSoftware,KiCad,Pcbnew,(5.1.2)-2*
G04 #@! TF.CreationDate,2019-07-06T09:47:10+08:00*
G04 #@! TF.ProjectId,eval-board-ADA4817-1,6576616c-2d62-46f6-9172-642d41444134,rev?*
G04 #@! TF.SameCoordinates,Original*
G04 #@! TF.FileFunction,Legend,Top*
G04 #@! TF.FilePolarity,Positive*
%FSLAX46Y46*%
G04 Gerber Fmt 4.6, Leading zero omitted, Abs format (unit mm)*
G04 Created by KiCad (PCBNEW (5.1.2)-2) date 2019-07-06 09:47:10*
%MOMM*%
%LPD*%
G04 APERTURE LIST*
%ADD10C,0.120000*%
%ADD11C,0.150000*%
G04 APERTURE END LIST*
D10*
X102870000Y-135255000D02*
X102870000Y-136525000D01*
X102870000Y-99060000D02*
X102870000Y-99695000D01*
X102870000Y-99695000D02*
X102870000Y-135255000D01*
X161290000Y-136525000D02*
X102870000Y-136525000D01*
X161290000Y-99060000D02*
X161290000Y-136525000D01*
X161290000Y-99060000D02*
X102870000Y-99060000D01*
X156210000Y-124335000D02*
X157540000Y-124335000D01*
X157540000Y-124335000D02*
X157540000Y-125095000D01*
X157540000Y-125670000D02*
X157540000Y-125790000D01*
X154880000Y-125670000D02*
X154880000Y-125790000D01*
X156970000Y-125790000D02*
X157540000Y-125790000D01*
X154880000Y-125790000D02*
X155450000Y-125790000D01*
X123190000Y-128145000D02*
X124520000Y-128145000D01*
X124520000Y-128145000D02*
X124520000Y-128905000D01*
X124520000Y-129480000D02*
X124520000Y-129600000D01*
X121860000Y-129480000D02*
X121860000Y-129600000D01*
X123950000Y-129600000D02*
X124520000Y-129600000D01*
X121860000Y-129600000D02*
X122430000Y-129600000D01*
X151445000Y-125095000D02*
G75*
G03X151445000Y-125095000I-950000J0D01*
G01*
X119060000Y-128905000D02*
G75*
G03X119060000Y-128905000I-950000J0D01*
G01*
X134490000Y-123460000D02*
X137290000Y-123460000D01*
X137290000Y-123460000D02*
X137290000Y-125460000D01*
X137290000Y-125460000D02*
X134490000Y-125460000D01*
X134490000Y-125460000D02*
X134490000Y-123460000D01*
X142077221Y-114425000D02*
X142402779Y-114425000D01*
X142077221Y-115445000D02*
X142402779Y-115445000D01*
X147830000Y-105572779D02*
X147830000Y-105247221D01*
X146810000Y-105572779D02*
X146810000Y-105247221D01*
X123315000Y-116042221D02*
X123315000Y-116367779D01*
X124335000Y-116042221D02*
X124335000Y-116367779D01*
X140430000Y-108160000D02*
X140930000Y-108160000D01*
X140680000Y-108410000D02*
X140680000Y-107910000D01*
X143435563Y-107670000D02*
X144500000Y-106605563D01*
X141044437Y-107670000D02*
X139980000Y-106605563D01*
X141044437Y-107670000D02*
X141180000Y-107670000D01*
X143435563Y-107670000D02*
X143300000Y-107670000D01*
X144500000Y-106605563D02*
X144500000Y-103150000D01*
X139980000Y-106605563D02*
X139980000Y-103150000D01*
X139980000Y-103150000D02*
X141180000Y-103150000D01*
X144500000Y-103150000D02*
X143300000Y-103150000D01*
X140172221Y-121410000D02*
X140497779Y-121410000D01*
X140172221Y-122430000D02*
X140497779Y-122430000D01*
X133725001Y-128432779D02*
X133725001Y-128107221D01*
X134745001Y-128432779D02*
X134745001Y-128107221D01*
X119890000Y-104612221D02*
X119890000Y-104937779D01*
X118870000Y-104612221D02*
X118870000Y-104937779D01*
X129665000Y-128107221D02*
X129665000Y-128432779D01*
X130685000Y-128107221D02*
X130685000Y-128432779D01*
X126680279Y-123315000D02*
X126354721Y-123315000D01*
X126680279Y-124335000D02*
X126354721Y-124335000D01*
X122200000Y-107035000D02*
X123400000Y-107035000D01*
X126720000Y-107035000D02*
X125520000Y-107035000D01*
X126720000Y-103579437D02*
X126720000Y-107035000D01*
X122200000Y-103579437D02*
X122200000Y-107035000D01*
X123264437Y-102515000D02*
X123400000Y-102515000D01*
X125655563Y-102515000D02*
X125520000Y-102515000D01*
X125655563Y-102515000D02*
X126720000Y-103579437D01*
X123264437Y-102515000D02*
X122200000Y-103579437D01*
X126020000Y-101775000D02*
X126020000Y-102275000D01*
X126270000Y-102025000D02*
X125770000Y-102025000D01*
X105865000Y-110310000D02*
X105865000Y-113210000D01*
X112575000Y-110310000D02*
X112575000Y-113210000D01*
X107770000Y-115115000D02*
X110670000Y-115115000D01*
X107770000Y-108405000D02*
X110670000Y-108405000D01*
X105865000Y-122375000D02*
X105865000Y-125275000D01*
X112575000Y-122375000D02*
X112575000Y-125275000D01*
X107770000Y-127180000D02*
X110670000Y-127180000D01*
X107770000Y-120470000D02*
X110670000Y-120470000D01*
X132715000Y-104835000D02*
X132715000Y-102175000D01*
X132715000Y-104835000D02*
X137855000Y-104835000D01*
X137855000Y-104835000D02*
X137855000Y-102175000D01*
X132715000Y-102175000D02*
X137855000Y-102175000D01*
X130115000Y-102175000D02*
X131445000Y-102175000D01*
X130115000Y-103505000D02*
X130115000Y-102175000D01*
X153490000Y-114755000D02*
X156390000Y-114755000D01*
X153490000Y-121465000D02*
X156390000Y-121465000D01*
X158295000Y-116660000D02*
X158295000Y-119560000D01*
X151585000Y-116660000D02*
X151585000Y-119560000D01*
X137920000Y-114462779D02*
X137920000Y-114137221D01*
X138940000Y-114462779D02*
X138940000Y-114137221D01*
X117600000Y-116367779D02*
X117600000Y-116042221D01*
X118620000Y-116367779D02*
X118620000Y-116042221D01*
X120775000Y-120177779D02*
X120775000Y-119852221D01*
X121795000Y-120177779D02*
X121795000Y-119852221D01*
X123315000Y-119852221D02*
X123315000Y-120177779D01*
X124335000Y-119852221D02*
X124335000Y-120177779D01*
X120525000Y-116042221D02*
X120525000Y-116367779D01*
X119505000Y-116042221D02*
X119505000Y-116367779D01*
X122430000Y-116367779D02*
X122430000Y-116042221D01*
X121410000Y-116367779D02*
X121410000Y-116042221D01*
X125855000Y-119852221D02*
X125855000Y-120177779D01*
X126875000Y-119852221D02*
X126875000Y-120177779D01*
X125220000Y-116042221D02*
X125220000Y-116367779D01*
X126240000Y-116042221D02*
X126240000Y-116367779D01*
X137920000Y-118907779D02*
X137920000Y-118582221D01*
X138940000Y-118907779D02*
X138940000Y-118582221D01*
X131570000Y-128107221D02*
X131570000Y-128432779D01*
X132590000Y-128107221D02*
X132590000Y-128432779D01*
X140460000Y-118582221D02*
X140460000Y-118907779D01*
X141480000Y-118582221D02*
X141480000Y-118907779D01*
X143645001Y-118582221D02*
X143645001Y-118907779D01*
X142625001Y-118582221D02*
X142625001Y-118907779D01*
X132080000Y-120670000D02*
X134030000Y-120670000D01*
X132080000Y-120670000D02*
X130130000Y-120670000D01*
X132080000Y-115550000D02*
X134030000Y-115550000D01*
X132080000Y-115550000D02*
X128630000Y-115550000D01*
D11*
X155448095Y-126500000D02*
X155352857Y-126452380D01*
X155210000Y-126452380D01*
X155067142Y-126500000D01*
X154971904Y-126595238D01*
X154924285Y-126690476D01*
X154876666Y-126880952D01*
X154876666Y-127023809D01*
X154924285Y-127214285D01*
X154971904Y-127309523D01*
X155067142Y-127404761D01*
X155210000Y-127452380D01*
X155305238Y-127452380D01*
X155448095Y-127404761D01*
X155495714Y-127357142D01*
X155495714Y-127023809D01*
X155305238Y-127023809D01*
X155924285Y-127452380D02*
X155924285Y-126452380D01*
X156495714Y-127452380D01*
X156495714Y-126452380D01*
X156971904Y-127452380D02*
X156971904Y-126452380D01*
X157210000Y-126452380D01*
X157352857Y-126500000D01*
X157448095Y-126595238D01*
X157495714Y-126690476D01*
X157543333Y-126880952D01*
X157543333Y-127023809D01*
X157495714Y-127214285D01*
X157448095Y-127309523D01*
X157352857Y-127404761D01*
X157210000Y-127452380D01*
X156971904Y-127452380D01*
X122428095Y-126270000D02*
X122332857Y-126222380D01*
X122190000Y-126222380D01*
X122047142Y-126270000D01*
X121951904Y-126365238D01*
X121904285Y-126460476D01*
X121856666Y-126650952D01*
X121856666Y-126793809D01*
X121904285Y-126984285D01*
X121951904Y-127079523D01*
X122047142Y-127174761D01*
X122190000Y-127222380D01*
X122285238Y-127222380D01*
X122428095Y-127174761D01*
X122475714Y-127127142D01*
X122475714Y-126793809D01*
X122285238Y-126793809D01*
X122904285Y-127222380D02*
X122904285Y-126222380D01*
X123475714Y-127222380D01*
X123475714Y-126222380D01*
X123951904Y-127222380D02*
X123951904Y-126222380D01*
X124190000Y-126222380D01*
X124332857Y-126270000D01*
X124428095Y-126365238D01*
X124475714Y-126460476D01*
X124523333Y-126650952D01*
X124523333Y-126793809D01*
X124475714Y-126984285D01*
X124428095Y-127079523D01*
X124332857Y-127174761D01*
X124190000Y-127222380D01*
X123951904Y-127222380D01*
X149233095Y-122899380D02*
X149804523Y-122899380D01*
X149518809Y-123899380D02*
X149518809Y-122899380D01*
X150137857Y-123899380D02*
X150137857Y-122899380D01*
X150518809Y-122899380D01*
X150614047Y-122947000D01*
X150661666Y-122994619D01*
X150709285Y-123089857D01*
X150709285Y-123232714D01*
X150661666Y-123327952D01*
X150614047Y-123375571D01*
X150518809Y-123423190D01*
X150137857Y-123423190D01*
X151090238Y-122994619D02*
X151137857Y-122947000D01*
X151233095Y-122899380D01*
X151471190Y-122899380D01*
X151566428Y-122947000D01*
X151614047Y-122994619D01*
X151661666Y-123089857D01*
X151661666Y-123185095D01*
X151614047Y-123327952D01*
X151042619Y-123899380D01*
X151661666Y-123899380D01*
X116848095Y-126709380D02*
X117419523Y-126709380D01*
X117133809Y-127709380D02*
X117133809Y-126709380D01*
X117752857Y-127709380D02*
X117752857Y-126709380D01*
X118133809Y-126709380D01*
X118229047Y-126757000D01*
X118276666Y-126804619D01*
X118324285Y-126899857D01*
X118324285Y-127042714D01*
X118276666Y-127137952D01*
X118229047Y-127185571D01*
X118133809Y-127233190D01*
X117752857Y-127233190D01*
X119276666Y-127709380D02*
X118705238Y-127709380D01*
X118990952Y-127709380D02*
X118990952Y-126709380D01*
X118895714Y-126852238D01*
X118800476Y-126947476D01*
X118705238Y-126995095D01*
X135056666Y-122112380D02*
X135056666Y-122826666D01*
X135009047Y-122969523D01*
X134913809Y-123064761D01*
X134770952Y-123112380D01*
X134675714Y-123112380D01*
X135532857Y-123112380D02*
X135532857Y-122112380D01*
X135913809Y-122112380D01*
X136009047Y-122160000D01*
X136056666Y-122207619D01*
X136104285Y-122302857D01*
X136104285Y-122445714D01*
X136056666Y-122540952D01*
X136009047Y-122588571D01*
X135913809Y-122636190D01*
X135532857Y-122636190D01*
X137056666Y-123112380D02*
X136485238Y-123112380D01*
X136770952Y-123112380D02*
X136770952Y-122112380D01*
X136675714Y-122255238D01*
X136580476Y-122350476D01*
X136485238Y-122398095D01*
X142073333Y-113862142D02*
X142025714Y-113909761D01*
X141882857Y-113957380D01*
X141787619Y-113957380D01*
X141644761Y-113909761D01*
X141549523Y-113814523D01*
X141501904Y-113719285D01*
X141454285Y-113528809D01*
X141454285Y-113385952D01*
X141501904Y-113195476D01*
X141549523Y-113100238D01*
X141644761Y-113005000D01*
X141787619Y-112957380D01*
X141882857Y-112957380D01*
X142025714Y-113005000D01*
X142073333Y-113052619D01*
X143025714Y-113957380D02*
X142454285Y-113957380D01*
X142740000Y-113957380D02*
X142740000Y-112957380D01*
X142644761Y-113100238D01*
X142549523Y-113195476D01*
X142454285Y-113243095D01*
X146247142Y-105576666D02*
X146294761Y-105624285D01*
X146342380Y-105767142D01*
X146342380Y-105862380D01*
X146294761Y-106005238D01*
X146199523Y-106100476D01*
X146104285Y-106148095D01*
X145913809Y-106195714D01*
X145770952Y-106195714D01*
X145580476Y-106148095D01*
X145485238Y-106100476D01*
X145390000Y-106005238D01*
X145342380Y-105862380D01*
X145342380Y-105767142D01*
X145390000Y-105624285D01*
X145437619Y-105576666D01*
X145437619Y-105195714D02*
X145390000Y-105148095D01*
X145342380Y-105052857D01*
X145342380Y-104814761D01*
X145390000Y-104719523D01*
X145437619Y-104671904D01*
X145532857Y-104624285D01*
X145628095Y-104624285D01*
X145770952Y-104671904D01*
X146342380Y-105243333D01*
X146342380Y-104624285D01*
X123658333Y-114022142D02*
X123610714Y-114069761D01*
X123467857Y-114117380D01*
X123372619Y-114117380D01*
X123229761Y-114069761D01*
X123134523Y-113974523D01*
X123086904Y-113879285D01*
X123039285Y-113688809D01*
X123039285Y-113545952D01*
X123086904Y-113355476D01*
X123134523Y-113260238D01*
X123229761Y-113165000D01*
X123372619Y-113117380D01*
X123467857Y-113117380D01*
X123610714Y-113165000D01*
X123658333Y-113212619D01*
X123991666Y-113117380D02*
X124610714Y-113117380D01*
X124277380Y-113498333D01*
X124420238Y-113498333D01*
X124515476Y-113545952D01*
X124563095Y-113593571D01*
X124610714Y-113688809D01*
X124610714Y-113926904D01*
X124563095Y-114022142D01*
X124515476Y-114069761D01*
X124420238Y-114117380D01*
X124134523Y-114117380D01*
X124039285Y-114069761D01*
X123991666Y-114022142D01*
X142073333Y-110212142D02*
X142025714Y-110259761D01*
X141882857Y-110307380D01*
X141787619Y-110307380D01*
X141644761Y-110259761D01*
X141549523Y-110164523D01*
X141501904Y-110069285D01*
X141454285Y-109878809D01*
X141454285Y-109735952D01*
X141501904Y-109545476D01*
X141549523Y-109450238D01*
X141644761Y-109355000D01*
X141787619Y-109307380D01*
X141882857Y-109307380D01*
X142025714Y-109355000D01*
X142073333Y-109402619D01*
X142930476Y-109640714D02*
X142930476Y-110307380D01*
X142692380Y-109259761D02*
X142454285Y-109974047D01*
X143073333Y-109974047D01*
X140239761Y-123547142D02*
X140192142Y-123594761D01*
X140049285Y-123642380D01*
X139954047Y-123642380D01*
X139811190Y-123594761D01*
X139715952Y-123499523D01*
X139668333Y-123404285D01*
X139620714Y-123213809D01*
X139620714Y-123070952D01*
X139668333Y-122880476D01*
X139715952Y-122785238D01*
X139811190Y-122690000D01*
X139954047Y-122642380D01*
X140049285Y-122642380D01*
X140192142Y-122690000D01*
X140239761Y-122737619D01*
X141144523Y-123642380D02*
X140668333Y-123642380D01*
X140668333Y-122642380D01*
X131913333Y-131167142D02*
X131865714Y-131214761D01*
X131722857Y-131262380D01*
X131627619Y-131262380D01*
X131484761Y-131214761D01*
X131389523Y-131119523D01*
X131341904Y-131024285D01*
X131294285Y-130833809D01*
X131294285Y-130690952D01*
X131341904Y-130500476D01*
X131389523Y-130405238D01*
X131484761Y-130310000D01*
X131627619Y-130262380D01*
X131722857Y-130262380D01*
X131865714Y-130310000D01*
X131913333Y-130357619D01*
X132770476Y-130262380D02*
X132580000Y-130262380D01*
X132484761Y-130310000D01*
X132437142Y-130357619D01*
X132341904Y-130500476D01*
X132294285Y-130690952D01*
X132294285Y-131071904D01*
X132341904Y-131167142D01*
X132389523Y-131214761D01*
X132484761Y-131262380D01*
X132675238Y-131262380D01*
X132770476Y-131214761D01*
X132818095Y-131167142D01*
X132865714Y-131071904D01*
X132865714Y-130833809D01*
X132818095Y-130738571D01*
X132770476Y-130690952D01*
X132675238Y-130643333D01*
X132484761Y-130643333D01*
X132389523Y-130690952D01*
X132341904Y-130738571D01*
X132294285Y-130833809D01*
X121167142Y-104941666D02*
X121214761Y-104989285D01*
X121262380Y-105132142D01*
X121262380Y-105227380D01*
X121214761Y-105370238D01*
X121119523Y-105465476D01*
X121024285Y-105513095D01*
X120833809Y-105560714D01*
X120690952Y-105560714D01*
X120500476Y-105513095D01*
X120405238Y-105465476D01*
X120310000Y-105370238D01*
X120262380Y-105227380D01*
X120262380Y-105132142D01*
X120310000Y-104989285D01*
X120357619Y-104941666D01*
X120262380Y-104608333D02*
X120262380Y-103941666D01*
X121262380Y-104370238D01*
X130008333Y-131167142D02*
X129960714Y-131214761D01*
X129817857Y-131262380D01*
X129722619Y-131262380D01*
X129579761Y-131214761D01*
X129484523Y-131119523D01*
X129436904Y-131024285D01*
X129389285Y-130833809D01*
X129389285Y-130690952D01*
X129436904Y-130500476D01*
X129484523Y-130405238D01*
X129579761Y-130310000D01*
X129722619Y-130262380D01*
X129817857Y-130262380D01*
X129960714Y-130310000D01*
X130008333Y-130357619D01*
X130579761Y-130690952D02*
X130484523Y-130643333D01*
X130436904Y-130595714D01*
X130389285Y-130500476D01*
X130389285Y-130452857D01*
X130436904Y-130357619D01*
X130484523Y-130310000D01*
X130579761Y-130262380D01*
X130770238Y-130262380D01*
X130865476Y-130310000D01*
X130913095Y-130357619D01*
X130960714Y-130452857D01*
X130960714Y-130500476D01*
X130913095Y-130595714D01*
X130865476Y-130643333D01*
X130770238Y-130690952D01*
X130579761Y-130690952D01*
X130484523Y-130738571D01*
X130436904Y-130786190D01*
X130389285Y-130881428D01*
X130389285Y-131071904D01*
X130436904Y-131167142D01*
X130484523Y-131214761D01*
X130579761Y-131262380D01*
X130770238Y-131262380D01*
X130865476Y-131214761D01*
X130913095Y-131167142D01*
X130960714Y-131071904D01*
X130960714Y-130881428D01*
X130913095Y-130786190D01*
X130865476Y-130738571D01*
X130770238Y-130690952D01*
X126350833Y-125612142D02*
X126303214Y-125659761D01*
X126160357Y-125707380D01*
X126065119Y-125707380D01*
X125922261Y-125659761D01*
X125827023Y-125564523D01*
X125779404Y-125469285D01*
X125731785Y-125278809D01*
X125731785Y-125135952D01*
X125779404Y-124945476D01*
X125827023Y-124850238D01*
X125922261Y-124755000D01*
X126065119Y-124707380D01*
X126160357Y-124707380D01*
X126303214Y-124755000D01*
X126350833Y-124802619D01*
X126827023Y-125707380D02*
X127017500Y-125707380D01*
X127112738Y-125659761D01*
X127160357Y-125612142D01*
X127255595Y-125469285D01*
X127303214Y-125278809D01*
X127303214Y-124897857D01*
X127255595Y-124802619D01*
X127207976Y-124755000D01*
X127112738Y-124707380D01*
X126922261Y-124707380D01*
X126827023Y-124755000D01*
X126779404Y-124802619D01*
X126731785Y-124897857D01*
X126731785Y-125135952D01*
X126779404Y-125231190D01*
X126827023Y-125278809D01*
X126922261Y-125326428D01*
X127112738Y-125326428D01*
X127207976Y-125278809D01*
X127255595Y-125231190D01*
X127303214Y-125135952D01*
X123817142Y-109577142D02*
X123769523Y-109624761D01*
X123626666Y-109672380D01*
X123531428Y-109672380D01*
X123388571Y-109624761D01*
X123293333Y-109529523D01*
X123245714Y-109434285D01*
X123198095Y-109243809D01*
X123198095Y-109100952D01*
X123245714Y-108910476D01*
X123293333Y-108815238D01*
X123388571Y-108720000D01*
X123531428Y-108672380D01*
X123626666Y-108672380D01*
X123769523Y-108720000D01*
X123817142Y-108767619D01*
X124769523Y-109672380D02*
X124198095Y-109672380D01*
X124483809Y-109672380D02*
X124483809Y-108672380D01*
X124388571Y-108815238D01*
X124293333Y-108910476D01*
X124198095Y-108958095D01*
X125388571Y-108672380D02*
X125483809Y-108672380D01*
X125579047Y-108720000D01*
X125626666Y-108767619D01*
X125674285Y-108862857D01*
X125721904Y-109053333D01*
X125721904Y-109291428D01*
X125674285Y-109481904D01*
X125626666Y-109577142D01*
X125579047Y-109624761D01*
X125483809Y-109672380D01*
X125388571Y-109672380D01*
X125293333Y-109624761D01*
X125245714Y-109577142D01*
X125198095Y-109481904D01*
X125150476Y-109291428D01*
X125150476Y-109053333D01*
X125198095Y-108862857D01*
X125245714Y-108767619D01*
X125293333Y-108720000D01*
X125388571Y-108672380D01*
X107505714Y-106462380D02*
X107839047Y-107462380D01*
X108172380Y-106462380D01*
X108505714Y-107462380D02*
X108505714Y-106462380D01*
X108981904Y-107462380D02*
X108981904Y-106462380D01*
X109553333Y-107462380D01*
X109553333Y-106462380D01*
X110029523Y-107081428D02*
X110791428Y-107081428D01*
X107505714Y-118527380D02*
X107839047Y-119527380D01*
X108172380Y-118527380D01*
X108505714Y-119527380D02*
X108505714Y-118527380D01*
X108981904Y-119527380D02*
X108981904Y-118527380D01*
X109553333Y-119527380D01*
X109553333Y-118527380D01*
X110029523Y-119146428D02*
X110791428Y-119146428D01*
X110410476Y-119527380D02*
X110410476Y-118765476D01*
X129032619Y-105497380D02*
X129365952Y-106497380D01*
X129699285Y-105497380D01*
X130032619Y-105973571D02*
X130365952Y-105973571D01*
X130508809Y-106497380D02*
X130032619Y-106497380D01*
X130032619Y-105497380D01*
X130508809Y-105497380D01*
X130937380Y-105973571D02*
X131270714Y-105973571D01*
X131413571Y-106497380D02*
X130937380Y-106497380D01*
X130937380Y-105497380D01*
X131413571Y-105497380D01*
X133127857Y-105545000D02*
X133032619Y-105497380D01*
X132889761Y-105497380D01*
X132746904Y-105545000D01*
X132651666Y-105640238D01*
X132604047Y-105735476D01*
X132556428Y-105925952D01*
X132556428Y-106068809D01*
X132604047Y-106259285D01*
X132651666Y-106354523D01*
X132746904Y-106449761D01*
X132889761Y-106497380D01*
X132985000Y-106497380D01*
X133127857Y-106449761D01*
X133175476Y-106402142D01*
X133175476Y-106068809D01*
X132985000Y-106068809D01*
X133604047Y-106497380D02*
X133604047Y-105497380D01*
X134175476Y-106497380D01*
X134175476Y-105497380D01*
X134651666Y-106497380D02*
X134651666Y-105497380D01*
X134889761Y-105497380D01*
X135032619Y-105545000D01*
X135127857Y-105640238D01*
X135175476Y-105735476D01*
X135223095Y-105925952D01*
X135223095Y-106068809D01*
X135175476Y-106259285D01*
X135127857Y-106354523D01*
X135032619Y-106449761D01*
X134889761Y-106497380D01*
X134651666Y-106497380D01*
X136270714Y-105497380D02*
X136604047Y-106497380D01*
X136937380Y-105497380D01*
X137842142Y-106402142D02*
X137794523Y-106449761D01*
X137651666Y-106497380D01*
X137556428Y-106497380D01*
X137413571Y-106449761D01*
X137318333Y-106354523D01*
X137270714Y-106259285D01*
X137223095Y-106068809D01*
X137223095Y-105925952D01*
X137270714Y-105735476D01*
X137318333Y-105640238D01*
X137413571Y-105545000D01*
X137556428Y-105497380D01*
X137651666Y-105497380D01*
X137794523Y-105545000D01*
X137842142Y-105592619D01*
X138842142Y-106402142D02*
X138794523Y-106449761D01*
X138651666Y-106497380D01*
X138556428Y-106497380D01*
X138413571Y-106449761D01*
X138318333Y-106354523D01*
X138270714Y-106259285D01*
X138223095Y-106068809D01*
X138223095Y-105925952D01*
X138270714Y-105735476D01*
X138318333Y-105640238D01*
X138413571Y-105545000D01*
X138556428Y-105497380D01*
X138651666Y-105497380D01*
X138794523Y-105545000D01*
X138842142Y-105592619D01*
X153178095Y-112812380D02*
X153511428Y-113812380D01*
X153844761Y-112812380D01*
X154368571Y-112812380D02*
X154559047Y-112812380D01*
X154654285Y-112860000D01*
X154749523Y-112955238D01*
X154797142Y-113145714D01*
X154797142Y-113479047D01*
X154749523Y-113669523D01*
X154654285Y-113764761D01*
X154559047Y-113812380D01*
X154368571Y-113812380D01*
X154273333Y-113764761D01*
X154178095Y-113669523D01*
X154130476Y-113479047D01*
X154130476Y-113145714D01*
X154178095Y-112955238D01*
X154273333Y-112860000D01*
X154368571Y-112812380D01*
X155225714Y-112812380D02*
X155225714Y-113621904D01*
X155273333Y-113717142D01*
X155320952Y-113764761D01*
X155416190Y-113812380D01*
X155606666Y-113812380D01*
X155701904Y-113764761D01*
X155749523Y-113717142D01*
X155797142Y-113621904D01*
X155797142Y-112812380D01*
X156130476Y-112812380D02*
X156701904Y-112812380D01*
X156416190Y-113812380D02*
X156416190Y-112812380D01*
X137452380Y-114466666D02*
X136976190Y-114800000D01*
X137452380Y-115038095D02*
X136452380Y-115038095D01*
X136452380Y-114657142D01*
X136500000Y-114561904D01*
X136547619Y-114514285D01*
X136642857Y-114466666D01*
X136785714Y-114466666D01*
X136880952Y-114514285D01*
X136928571Y-114561904D01*
X136976190Y-114657142D01*
X136976190Y-115038095D01*
X137452380Y-113514285D02*
X137452380Y-114085714D01*
X137452380Y-113800000D02*
X136452380Y-113800000D01*
X136595238Y-113895238D01*
X136690476Y-113990476D01*
X136738095Y-114085714D01*
X116879761Y-114117380D02*
X116546428Y-113641190D01*
X116308333Y-114117380D02*
X116308333Y-113117380D01*
X116689285Y-113117380D01*
X116784523Y-113165000D01*
X116832142Y-113212619D01*
X116879761Y-113307857D01*
X116879761Y-113450714D01*
X116832142Y-113545952D01*
X116784523Y-113593571D01*
X116689285Y-113641190D01*
X116308333Y-113641190D01*
X117165476Y-113117380D02*
X117736904Y-113117380D01*
X117451190Y-114117380D02*
X117451190Y-113117380D01*
X118070238Y-114117380D02*
X118070238Y-113117380D01*
X118641666Y-114117380D01*
X118641666Y-113117380D01*
X120713571Y-123007380D02*
X120380238Y-122531190D01*
X120142142Y-123007380D02*
X120142142Y-122007380D01*
X120523095Y-122007380D01*
X120618333Y-122055000D01*
X120665952Y-122102619D01*
X120713571Y-122197857D01*
X120713571Y-122340714D01*
X120665952Y-122435952D01*
X120618333Y-122483571D01*
X120523095Y-122531190D01*
X120142142Y-122531190D01*
X120999285Y-122007380D02*
X121570714Y-122007380D01*
X121285000Y-123007380D02*
X121285000Y-122007380D01*
X121904047Y-123007380D02*
X121904047Y-122007380D01*
X122285000Y-122007380D01*
X122380238Y-122055000D01*
X122427857Y-122102619D01*
X122475476Y-122197857D01*
X122475476Y-122340714D01*
X122427857Y-122435952D01*
X122380238Y-122483571D01*
X122285000Y-122531190D01*
X121904047Y-122531190D01*
X123658333Y-123007380D02*
X123325000Y-122531190D01*
X123086904Y-123007380D02*
X123086904Y-122007380D01*
X123467857Y-122007380D01*
X123563095Y-122055000D01*
X123610714Y-122102619D01*
X123658333Y-122197857D01*
X123658333Y-122340714D01*
X123610714Y-122435952D01*
X123563095Y-122483571D01*
X123467857Y-122531190D01*
X123086904Y-122531190D01*
X124515476Y-122340714D02*
X124515476Y-123007380D01*
X124277380Y-121959761D02*
X124039285Y-122674047D01*
X124658333Y-122674047D01*
X119848333Y-114117380D02*
X119515000Y-113641190D01*
X119276904Y-114117380D02*
X119276904Y-113117380D01*
X119657857Y-113117380D01*
X119753095Y-113165000D01*
X119800714Y-113212619D01*
X119848333Y-113307857D01*
X119848333Y-113450714D01*
X119800714Y-113545952D01*
X119753095Y-113593571D01*
X119657857Y-113641190D01*
X119276904Y-113641190D01*
X120753095Y-113117380D02*
X120276904Y-113117380D01*
X120229285Y-113593571D01*
X120276904Y-113545952D01*
X120372142Y-113498333D01*
X120610238Y-113498333D01*
X120705476Y-113545952D01*
X120753095Y-113593571D01*
X120800714Y-113688809D01*
X120800714Y-113926904D01*
X120753095Y-114022142D01*
X120705476Y-114069761D01*
X120610238Y-114117380D01*
X120372142Y-114117380D01*
X120276904Y-114069761D01*
X120229285Y-114022142D01*
X121753333Y-114117380D02*
X121420000Y-113641190D01*
X121181904Y-114117380D02*
X121181904Y-113117380D01*
X121562857Y-113117380D01*
X121658095Y-113165000D01*
X121705714Y-113212619D01*
X121753333Y-113307857D01*
X121753333Y-113450714D01*
X121705714Y-113545952D01*
X121658095Y-113593571D01*
X121562857Y-113641190D01*
X121181904Y-113641190D01*
X122610476Y-113117380D02*
X122420000Y-113117380D01*
X122324761Y-113165000D01*
X122277142Y-113212619D01*
X122181904Y-113355476D01*
X122134285Y-113545952D01*
X122134285Y-113926904D01*
X122181904Y-114022142D01*
X122229523Y-114069761D01*
X122324761Y-114117380D01*
X122515238Y-114117380D01*
X122610476Y-114069761D01*
X122658095Y-114022142D01*
X122705714Y-113926904D01*
X122705714Y-113688809D01*
X122658095Y-113593571D01*
X122610476Y-113545952D01*
X122515238Y-113498333D01*
X122324761Y-113498333D01*
X122229523Y-113545952D01*
X122181904Y-113593571D01*
X122134285Y-113688809D01*
X126198333Y-123007380D02*
X125865000Y-122531190D01*
X125626904Y-123007380D02*
X125626904Y-122007380D01*
X126007857Y-122007380D01*
X126103095Y-122055000D01*
X126150714Y-122102619D01*
X126198333Y-122197857D01*
X126198333Y-122340714D01*
X126150714Y-122435952D01*
X126103095Y-122483571D01*
X126007857Y-122531190D01*
X125626904Y-122531190D01*
X126531666Y-122007380D02*
X127198333Y-122007380D01*
X126769761Y-123007380D01*
X125563333Y-114117380D02*
X125230000Y-113641190D01*
X124991904Y-114117380D02*
X124991904Y-113117380D01*
X125372857Y-113117380D01*
X125468095Y-113165000D01*
X125515714Y-113212619D01*
X125563333Y-113307857D01*
X125563333Y-113450714D01*
X125515714Y-113545952D01*
X125468095Y-113593571D01*
X125372857Y-113641190D01*
X124991904Y-113641190D01*
X126134761Y-113545952D02*
X126039523Y-113498333D01*
X125991904Y-113450714D01*
X125944285Y-113355476D01*
X125944285Y-113307857D01*
X125991904Y-113212619D01*
X126039523Y-113165000D01*
X126134761Y-113117380D01*
X126325238Y-113117380D01*
X126420476Y-113165000D01*
X126468095Y-113212619D01*
X126515714Y-113307857D01*
X126515714Y-113355476D01*
X126468095Y-113450714D01*
X126420476Y-113498333D01*
X126325238Y-113545952D01*
X126134761Y-113545952D01*
X126039523Y-113593571D01*
X125991904Y-113641190D01*
X125944285Y-113736428D01*
X125944285Y-113926904D01*
X125991904Y-114022142D01*
X126039523Y-114069761D01*
X126134761Y-114117380D01*
X126325238Y-114117380D01*
X126420476Y-114069761D01*
X126468095Y-114022142D01*
X126515714Y-113926904D01*
X126515714Y-113736428D01*
X126468095Y-113641190D01*
X126420476Y-113593571D01*
X126325238Y-113545952D01*
X137452380Y-118911666D02*
X136976190Y-119245000D01*
X137452380Y-119483095D02*
X136452380Y-119483095D01*
X136452380Y-119102142D01*
X136500000Y-119006904D01*
X136547619Y-118959285D01*
X136642857Y-118911666D01*
X136785714Y-118911666D01*
X136880952Y-118959285D01*
X136928571Y-119006904D01*
X136976190Y-119102142D01*
X136976190Y-119483095D01*
X137404761Y-118530714D02*
X137452380Y-118387857D01*
X137452380Y-118149761D01*
X137404761Y-118054523D01*
X137357142Y-118006904D01*
X137261904Y-117959285D01*
X137166666Y-117959285D01*
X137071428Y-118006904D01*
X137023809Y-118054523D01*
X136976190Y-118149761D01*
X136928571Y-118340238D01*
X136880952Y-118435476D01*
X136833333Y-118483095D01*
X136738095Y-118530714D01*
X136642857Y-118530714D01*
X136547619Y-118483095D01*
X136500000Y-118435476D01*
X136452380Y-118340238D01*
X136452380Y-118102142D01*
X136500000Y-117959285D01*
X133977142Y-131262380D02*
X133643809Y-130786190D01*
X133405714Y-131262380D02*
X133405714Y-130262380D01*
X133786666Y-130262380D01*
X133881904Y-130310000D01*
X133929523Y-130357619D01*
X133977142Y-130452857D01*
X133977142Y-130595714D01*
X133929523Y-130690952D01*
X133881904Y-130738571D01*
X133786666Y-130786190D01*
X133405714Y-130786190D01*
X134929523Y-131262380D02*
X134358095Y-131262380D01*
X134643809Y-131262380D02*
X134643809Y-130262380D01*
X134548571Y-130405238D01*
X134453333Y-130500476D01*
X134358095Y-130548095D01*
X135548571Y-130262380D02*
X135643809Y-130262380D01*
X135739047Y-130310000D01*
X135786666Y-130357619D01*
X135834285Y-130452857D01*
X135881904Y-130643333D01*
X135881904Y-130881428D01*
X135834285Y-131071904D01*
X135786666Y-131167142D01*
X135739047Y-131214761D01*
X135643809Y-131262380D01*
X135548571Y-131262380D01*
X135453333Y-131214761D01*
X135405714Y-131167142D01*
X135358095Y-131071904D01*
X135310476Y-130881428D01*
X135310476Y-130643333D01*
X135358095Y-130452857D01*
X135405714Y-130357619D01*
X135453333Y-130310000D01*
X135548571Y-130262380D01*
X140152380Y-119387857D02*
X139676190Y-119721190D01*
X140152380Y-119959285D02*
X139152380Y-119959285D01*
X139152380Y-119578333D01*
X139200000Y-119483095D01*
X139247619Y-119435476D01*
X139342857Y-119387857D01*
X139485714Y-119387857D01*
X139580952Y-119435476D01*
X139628571Y-119483095D01*
X139676190Y-119578333D01*
X139676190Y-119959285D01*
X140152380Y-118435476D02*
X140152380Y-119006904D01*
X140152380Y-118721190D02*
X139152380Y-118721190D01*
X139295238Y-118816428D01*
X139390476Y-118911666D01*
X139438095Y-119006904D01*
X140152380Y-117483095D02*
X140152380Y-118054523D01*
X140152380Y-117768809D02*
X139152380Y-117768809D01*
X139295238Y-117864047D01*
X139390476Y-117959285D01*
X139438095Y-118054523D01*
X145017381Y-119387857D02*
X144541191Y-119721190D01*
X145017381Y-119959285D02*
X144017381Y-119959285D01*
X144017381Y-119578333D01*
X144065001Y-119483095D01*
X144112620Y-119435476D01*
X144207858Y-119387857D01*
X144350715Y-119387857D01*
X144445953Y-119435476D01*
X144493572Y-119483095D01*
X144541191Y-119578333D01*
X144541191Y-119959285D01*
X145017381Y-118435476D02*
X145017381Y-119006904D01*
X145017381Y-118721190D02*
X144017381Y-118721190D01*
X144160239Y-118816428D01*
X144255477Y-118911666D01*
X144303096Y-119006904D01*
X144112620Y-118054523D02*
X144065001Y-118006904D01*
X144017381Y-117911666D01*
X144017381Y-117673571D01*
X144065001Y-117578333D01*
X144112620Y-117530714D01*
X144207858Y-117483095D01*
X144303096Y-117483095D01*
X144445953Y-117530714D01*
X145017381Y-118102142D01*
X145017381Y-117483095D01*
X131318095Y-114162380D02*
X131318095Y-114971904D01*
X131365714Y-115067142D01*
X131413333Y-115114761D01*
X131508571Y-115162380D01*
X131699047Y-115162380D01*
X131794285Y-115114761D01*
X131841904Y-115067142D01*
X131889523Y-114971904D01*
X131889523Y-114162380D01*
X132889523Y-115162380D02*
X132318095Y-115162380D01*
X132603809Y-115162380D02*
X132603809Y-114162380D01*
X132508571Y-114305238D01*
X132413333Y-114400476D01*
X132318095Y-114448095D01*
M02*
