G04 #@! TF.GenerationSoftware,KiCad,Pcbnew,(5.1.2)-2*
G04 #@! TF.CreationDate,2019-07-08T11:12:43+08:00*
G04 #@! TF.ProjectId,eval-board-ADA4817-1,6576616c-2d62-46f6-9172-642d41444134,rev?*
G04 #@! TF.SameCoordinates,Original*
G04 #@! TF.FileFunction,Soldermask,Bot*
G04 #@! TF.FilePolarity,Negative*
%FSLAX46Y46*%
G04 Gerber Fmt 4.6, Leading zero omitted, Abs format (unit mm)*
G04 Created by KiCad (PCBNEW (5.1.2)-2) date 2019-07-08 11:12:43*
%MOMM*%
%LPD*%
G04 APERTURE LIST*
%ADD10C,0.100000*%
G04 APERTURE END LIST*
D10*
G36*
X170362021Y-133196640D02*
G01*
X170871769Y-133407785D01*
X170871771Y-133407786D01*
X171330534Y-133714321D01*
X171720679Y-134104466D01*
X172027214Y-134563229D01*
X172027215Y-134563231D01*
X172238360Y-135072979D01*
X172346000Y-135614124D01*
X172346000Y-136165876D01*
X172238360Y-136707021D01*
X172027215Y-137216769D01*
X172027214Y-137216771D01*
X171720679Y-137675534D01*
X171330534Y-138065679D01*
X170871771Y-138372214D01*
X170871770Y-138372215D01*
X170871769Y-138372215D01*
X170362021Y-138583360D01*
X169820876Y-138691000D01*
X169269124Y-138691000D01*
X168727979Y-138583360D01*
X168218231Y-138372215D01*
X168218230Y-138372215D01*
X168218229Y-138372214D01*
X167759466Y-138065679D01*
X167369321Y-137675534D01*
X167062786Y-137216771D01*
X167062785Y-137216769D01*
X166851640Y-136707021D01*
X166744000Y-136165876D01*
X166744000Y-135614124D01*
X166851640Y-135072979D01*
X167062785Y-134563231D01*
X167062786Y-134563229D01*
X167369321Y-134104466D01*
X167759466Y-133714321D01*
X168218229Y-133407786D01*
X168218231Y-133407785D01*
X168727979Y-133196640D01*
X169269124Y-133089000D01*
X169820876Y-133089000D01*
X170362021Y-133196640D01*
X170362021Y-133196640D01*
G37*
G36*
X122737021Y-133196640D02*
G01*
X123246769Y-133407785D01*
X123246771Y-133407786D01*
X123705534Y-133714321D01*
X124095679Y-134104466D01*
X124402214Y-134563229D01*
X124402215Y-134563231D01*
X124613360Y-135072979D01*
X124721000Y-135614124D01*
X124721000Y-136165876D01*
X124613360Y-136707021D01*
X124402215Y-137216769D01*
X124402214Y-137216771D01*
X124095679Y-137675534D01*
X123705534Y-138065679D01*
X123246771Y-138372214D01*
X123246770Y-138372215D01*
X123246769Y-138372215D01*
X122737021Y-138583360D01*
X122195876Y-138691000D01*
X121644124Y-138691000D01*
X121102979Y-138583360D01*
X120593231Y-138372215D01*
X120593230Y-138372215D01*
X120593229Y-138372214D01*
X120134466Y-138065679D01*
X119744321Y-137675534D01*
X119437786Y-137216771D01*
X119437785Y-137216769D01*
X119226640Y-136707021D01*
X119119000Y-136165876D01*
X119119000Y-135614124D01*
X119226640Y-135072979D01*
X119437785Y-134563231D01*
X119437786Y-134563229D01*
X119744321Y-134104466D01*
X120134466Y-133714321D01*
X120593229Y-133407786D01*
X120593231Y-133407785D01*
X121102979Y-133196640D01*
X121644124Y-133089000D01*
X122195876Y-133089000D01*
X122737021Y-133196640D01*
X122737021Y-133196640D01*
G37*
G36*
X131558512Y-133088927D02*
G01*
X131707812Y-133118624D01*
X131871784Y-133186544D01*
X132019354Y-133285147D01*
X132144853Y-133410646D01*
X132243456Y-133558216D01*
X132311376Y-133722188D01*
X132346000Y-133896259D01*
X132346000Y-134073741D01*
X132311376Y-134247812D01*
X132243456Y-134411784D01*
X132144853Y-134559354D01*
X132019354Y-134684853D01*
X131871784Y-134783456D01*
X131707812Y-134851376D01*
X131558512Y-134881073D01*
X131533742Y-134886000D01*
X131356258Y-134886000D01*
X131331488Y-134881073D01*
X131182188Y-134851376D01*
X131018216Y-134783456D01*
X130870646Y-134684853D01*
X130745147Y-134559354D01*
X130646544Y-134411784D01*
X130578624Y-134247812D01*
X130544000Y-134073741D01*
X130544000Y-133896259D01*
X130578624Y-133722188D01*
X130646544Y-133558216D01*
X130745147Y-133410646D01*
X130870646Y-133285147D01*
X131018216Y-133186544D01*
X131182188Y-133118624D01*
X131331488Y-133088927D01*
X131356258Y-133084000D01*
X131533742Y-133084000D01*
X131558512Y-133088927D01*
X131558512Y-133088927D01*
G37*
G36*
X122746560Y-128379064D02*
G01*
X122898027Y-128409193D01*
X123112045Y-128497842D01*
X123112046Y-128497843D01*
X123304654Y-128626539D01*
X123468461Y-128790346D01*
X123485775Y-128816259D01*
X123597158Y-128982955D01*
X123685807Y-129196973D01*
X123731000Y-129424174D01*
X123731000Y-129655826D01*
X123685807Y-129883027D01*
X123597158Y-130097045D01*
X123597157Y-130097046D01*
X123468461Y-130289654D01*
X123304654Y-130453461D01*
X123176249Y-130539258D01*
X123112045Y-130582158D01*
X122898027Y-130670807D01*
X122746560Y-130700936D01*
X122670827Y-130716000D01*
X122439173Y-130716000D01*
X122363440Y-130700936D01*
X122211973Y-130670807D01*
X121997955Y-130582158D01*
X121933751Y-130539258D01*
X121805346Y-130453461D01*
X121641539Y-130289654D01*
X121512843Y-130097046D01*
X121512842Y-130097045D01*
X121424193Y-129883027D01*
X121379000Y-129655826D01*
X121379000Y-129424174D01*
X121424193Y-129196973D01*
X121512842Y-128982955D01*
X121624225Y-128816259D01*
X121641539Y-128790346D01*
X121805346Y-128626539D01*
X121997954Y-128497843D01*
X121997955Y-128497842D01*
X122211973Y-128409193D01*
X122363440Y-128379064D01*
X122439173Y-128364000D01*
X122670827Y-128364000D01*
X122746560Y-128379064D01*
X122746560Y-128379064D01*
G37*
G36*
X127826560Y-128379064D02*
G01*
X127978027Y-128409193D01*
X128192045Y-128497842D01*
X128192046Y-128497843D01*
X128384654Y-128626539D01*
X128548461Y-128790346D01*
X128565775Y-128816259D01*
X128677158Y-128982955D01*
X128765807Y-129196973D01*
X128811000Y-129424174D01*
X128811000Y-129655826D01*
X128765807Y-129883027D01*
X128677158Y-130097045D01*
X128677157Y-130097046D01*
X128548461Y-130289654D01*
X128384654Y-130453461D01*
X128256249Y-130539258D01*
X128192045Y-130582158D01*
X127978027Y-130670807D01*
X127826560Y-130700936D01*
X127750827Y-130716000D01*
X127519173Y-130716000D01*
X127443440Y-130700936D01*
X127291973Y-130670807D01*
X127077955Y-130582158D01*
X127013751Y-130539258D01*
X126885346Y-130453461D01*
X126721539Y-130289654D01*
X126592843Y-130097046D01*
X126592842Y-130097045D01*
X126504193Y-129883027D01*
X126459000Y-129655826D01*
X126459000Y-129424174D01*
X126504193Y-129196973D01*
X126592842Y-128982955D01*
X126704225Y-128816259D01*
X126721539Y-128790346D01*
X126885346Y-128626539D01*
X127077954Y-128497843D01*
X127077955Y-128497842D01*
X127291973Y-128409193D01*
X127443440Y-128379064D01*
X127519173Y-128364000D01*
X127750827Y-128364000D01*
X127826560Y-128379064D01*
X127826560Y-128379064D01*
G37*
G36*
X162038512Y-128008927D02*
G01*
X162187812Y-128038624D01*
X162351784Y-128106544D01*
X162499354Y-128205147D01*
X162624853Y-128330646D01*
X162723456Y-128478216D01*
X162791376Y-128642188D01*
X162826000Y-128816259D01*
X162826000Y-128993741D01*
X162791376Y-129167812D01*
X162723456Y-129331784D01*
X162624853Y-129479354D01*
X162499354Y-129604853D01*
X162351784Y-129703456D01*
X162187812Y-129771376D01*
X162038512Y-129801073D01*
X162013742Y-129806000D01*
X161836258Y-129806000D01*
X161811488Y-129801073D01*
X161662188Y-129771376D01*
X161498216Y-129703456D01*
X161350646Y-129604853D01*
X161225147Y-129479354D01*
X161126544Y-129331784D01*
X161058624Y-129167812D01*
X161024000Y-128993741D01*
X161024000Y-128816259D01*
X161058624Y-128642188D01*
X161126544Y-128478216D01*
X161225147Y-128330646D01*
X161350646Y-128205147D01*
X161498216Y-128106544D01*
X161662188Y-128038624D01*
X161811488Y-128008927D01*
X161836258Y-128004000D01*
X162013742Y-128004000D01*
X162038512Y-128008927D01*
X162038512Y-128008927D01*
G37*
G36*
X125270271Y-125937783D02*
G01*
X125408858Y-125965350D01*
X125604677Y-126046461D01*
X125780910Y-126164216D01*
X125930784Y-126314090D01*
X126048539Y-126490323D01*
X126129650Y-126686142D01*
X126171000Y-126894023D01*
X126171000Y-127105977D01*
X126129650Y-127313858D01*
X126048539Y-127509677D01*
X125930784Y-127685910D01*
X125780910Y-127835784D01*
X125604677Y-127953539D01*
X125408858Y-128034650D01*
X125270271Y-128062217D01*
X125200978Y-128076000D01*
X124989022Y-128076000D01*
X124919729Y-128062217D01*
X124781142Y-128034650D01*
X124585323Y-127953539D01*
X124409090Y-127835784D01*
X124259216Y-127685910D01*
X124141461Y-127509677D01*
X124060350Y-127313858D01*
X124019000Y-127105977D01*
X124019000Y-126894023D01*
X124060350Y-126686142D01*
X124141461Y-126490323D01*
X124259216Y-126314090D01*
X124409090Y-126164216D01*
X124585323Y-126046461D01*
X124781142Y-125965350D01*
X124919729Y-125937783D01*
X124989022Y-125924000D01*
X125200978Y-125924000D01*
X125270271Y-125937783D01*
X125270271Y-125937783D01*
G37*
G36*
X169736560Y-123934064D02*
G01*
X169888027Y-123964193D01*
X170102045Y-124052842D01*
X170102046Y-124052843D01*
X170294654Y-124181539D01*
X170458461Y-124345346D01*
X170544258Y-124473751D01*
X170587158Y-124537955D01*
X170675807Y-124751973D01*
X170721000Y-124979174D01*
X170721000Y-125210826D01*
X170675807Y-125438027D01*
X170587158Y-125652045D01*
X170587157Y-125652046D01*
X170458461Y-125844654D01*
X170294654Y-126008461D01*
X170237781Y-126046462D01*
X170102045Y-126137158D01*
X169888027Y-126225807D01*
X169736560Y-126255936D01*
X169660827Y-126271000D01*
X169429173Y-126271000D01*
X169353440Y-126255936D01*
X169201973Y-126225807D01*
X168987955Y-126137158D01*
X168852219Y-126046462D01*
X168795346Y-126008461D01*
X168631539Y-125844654D01*
X168502843Y-125652046D01*
X168502842Y-125652045D01*
X168414193Y-125438027D01*
X168369000Y-125210826D01*
X168369000Y-124979174D01*
X168414193Y-124751973D01*
X168502842Y-124537955D01*
X168545742Y-124473751D01*
X168631539Y-124345346D01*
X168795346Y-124181539D01*
X168987954Y-124052843D01*
X168987955Y-124052842D01*
X169201973Y-123964193D01*
X169353440Y-123934064D01*
X169429173Y-123919000D01*
X169660827Y-123919000D01*
X169736560Y-123934064D01*
X169736560Y-123934064D01*
G37*
G36*
X164656560Y-123934064D02*
G01*
X164808027Y-123964193D01*
X165022045Y-124052842D01*
X165022046Y-124052843D01*
X165214654Y-124181539D01*
X165378461Y-124345346D01*
X165464258Y-124473751D01*
X165507158Y-124537955D01*
X165595807Y-124751973D01*
X165641000Y-124979174D01*
X165641000Y-125210826D01*
X165595807Y-125438027D01*
X165507158Y-125652045D01*
X165507157Y-125652046D01*
X165378461Y-125844654D01*
X165214654Y-126008461D01*
X165157781Y-126046462D01*
X165022045Y-126137158D01*
X164808027Y-126225807D01*
X164656560Y-126255936D01*
X164580827Y-126271000D01*
X164349173Y-126271000D01*
X164273440Y-126255936D01*
X164121973Y-126225807D01*
X163907955Y-126137158D01*
X163772219Y-126046462D01*
X163715346Y-126008461D01*
X163551539Y-125844654D01*
X163422843Y-125652046D01*
X163422842Y-125652045D01*
X163334193Y-125438027D01*
X163289000Y-125210826D01*
X163289000Y-124979174D01*
X163334193Y-124751973D01*
X163422842Y-124537955D01*
X163465742Y-124473751D01*
X163551539Y-124345346D01*
X163715346Y-124181539D01*
X163907954Y-124052843D01*
X163907955Y-124052842D01*
X164121973Y-123964193D01*
X164273440Y-123934064D01*
X164349173Y-123919000D01*
X164580827Y-123919000D01*
X164656560Y-123934064D01*
X164656560Y-123934064D01*
G37*
G36*
X127826560Y-123299064D02*
G01*
X127978027Y-123329193D01*
X128192045Y-123417842D01*
X128192046Y-123417843D01*
X128384654Y-123546539D01*
X128548461Y-123710346D01*
X128634258Y-123838751D01*
X128677158Y-123902955D01*
X128765807Y-124116973D01*
X128811000Y-124344174D01*
X128811000Y-124575826D01*
X128765807Y-124803027D01*
X128677158Y-125017045D01*
X128677157Y-125017046D01*
X128548461Y-125209654D01*
X128384654Y-125373461D01*
X128256249Y-125459258D01*
X128192045Y-125502158D01*
X127978027Y-125590807D01*
X127826560Y-125620936D01*
X127750827Y-125636000D01*
X127519173Y-125636000D01*
X127443440Y-125620936D01*
X127291973Y-125590807D01*
X127077955Y-125502158D01*
X127013751Y-125459258D01*
X126885346Y-125373461D01*
X126721539Y-125209654D01*
X126592843Y-125017046D01*
X126592842Y-125017045D01*
X126504193Y-124803027D01*
X126459000Y-124575826D01*
X126459000Y-124344174D01*
X126504193Y-124116973D01*
X126592842Y-123902955D01*
X126635742Y-123838751D01*
X126721539Y-123710346D01*
X126885346Y-123546539D01*
X127077954Y-123417843D01*
X127077955Y-123417842D01*
X127291973Y-123329193D01*
X127443440Y-123299064D01*
X127519173Y-123284000D01*
X127750827Y-123284000D01*
X127826560Y-123299064D01*
X127826560Y-123299064D01*
G37*
G36*
X122746560Y-123299064D02*
G01*
X122898027Y-123329193D01*
X123112045Y-123417842D01*
X123112046Y-123417843D01*
X123304654Y-123546539D01*
X123468461Y-123710346D01*
X123554258Y-123838751D01*
X123597158Y-123902955D01*
X123685807Y-124116973D01*
X123731000Y-124344174D01*
X123731000Y-124575826D01*
X123685807Y-124803027D01*
X123597158Y-125017045D01*
X123597157Y-125017046D01*
X123468461Y-125209654D01*
X123304654Y-125373461D01*
X123176249Y-125459258D01*
X123112045Y-125502158D01*
X122898027Y-125590807D01*
X122746560Y-125620936D01*
X122670827Y-125636000D01*
X122439173Y-125636000D01*
X122363440Y-125620936D01*
X122211973Y-125590807D01*
X121997955Y-125502158D01*
X121933751Y-125459258D01*
X121805346Y-125373461D01*
X121641539Y-125209654D01*
X121512843Y-125017046D01*
X121512842Y-125017045D01*
X121424193Y-124803027D01*
X121379000Y-124575826D01*
X121379000Y-124344174D01*
X121424193Y-124116973D01*
X121512842Y-123902955D01*
X121555742Y-123838751D01*
X121641539Y-123710346D01*
X121805346Y-123546539D01*
X121997954Y-123417843D01*
X121997955Y-123417842D01*
X122211973Y-123329193D01*
X122363440Y-123299064D01*
X122439173Y-123284000D01*
X122670827Y-123284000D01*
X122746560Y-123299064D01*
X122746560Y-123299064D01*
G37*
G36*
X167180271Y-121492783D02*
G01*
X167318858Y-121520350D01*
X167514677Y-121601461D01*
X167690910Y-121719216D01*
X167840784Y-121869090D01*
X167958539Y-122045323D01*
X168039650Y-122241142D01*
X168081000Y-122449023D01*
X168081000Y-122660977D01*
X168039650Y-122868858D01*
X167958539Y-123064677D01*
X167840784Y-123240910D01*
X167690910Y-123390784D01*
X167514677Y-123508539D01*
X167318858Y-123589650D01*
X167180271Y-123617217D01*
X167110978Y-123631000D01*
X166899022Y-123631000D01*
X166829729Y-123617217D01*
X166691142Y-123589650D01*
X166495323Y-123508539D01*
X166319090Y-123390784D01*
X166169216Y-123240910D01*
X166051461Y-123064677D01*
X165970350Y-122868858D01*
X165929000Y-122660977D01*
X165929000Y-122449023D01*
X165970350Y-122241142D01*
X166051461Y-122045323D01*
X166169216Y-121869090D01*
X166319090Y-121719216D01*
X166495323Y-121601461D01*
X166691142Y-121520350D01*
X166829729Y-121492783D01*
X166899022Y-121479000D01*
X167110978Y-121479000D01*
X167180271Y-121492783D01*
X167180271Y-121492783D01*
G37*
G36*
X169736560Y-118854064D02*
G01*
X169888027Y-118884193D01*
X170102045Y-118972842D01*
X170102046Y-118972843D01*
X170294654Y-119101539D01*
X170458461Y-119265346D01*
X170544258Y-119393751D01*
X170587158Y-119457955D01*
X170675807Y-119671973D01*
X170721000Y-119899174D01*
X170721000Y-120130826D01*
X170675807Y-120358027D01*
X170587158Y-120572045D01*
X170587157Y-120572046D01*
X170458461Y-120764654D01*
X170294654Y-120928461D01*
X170166249Y-121014258D01*
X170102045Y-121057158D01*
X169888027Y-121145807D01*
X169736560Y-121175936D01*
X169660827Y-121191000D01*
X169429173Y-121191000D01*
X169353440Y-121175936D01*
X169201973Y-121145807D01*
X168987955Y-121057158D01*
X168923751Y-121014258D01*
X168795346Y-120928461D01*
X168631539Y-120764654D01*
X168502843Y-120572046D01*
X168502842Y-120572045D01*
X168414193Y-120358027D01*
X168369000Y-120130826D01*
X168369000Y-119899174D01*
X168414193Y-119671973D01*
X168502842Y-119457955D01*
X168545742Y-119393751D01*
X168631539Y-119265346D01*
X168795346Y-119101539D01*
X168987954Y-118972843D01*
X168987955Y-118972842D01*
X169201973Y-118884193D01*
X169353440Y-118854064D01*
X169429173Y-118839000D01*
X169660827Y-118839000D01*
X169736560Y-118854064D01*
X169736560Y-118854064D01*
G37*
G36*
X164656560Y-118854064D02*
G01*
X164808027Y-118884193D01*
X165022045Y-118972842D01*
X165022046Y-118972843D01*
X165214654Y-119101539D01*
X165378461Y-119265346D01*
X165464258Y-119393751D01*
X165507158Y-119457955D01*
X165595807Y-119671973D01*
X165641000Y-119899174D01*
X165641000Y-120130826D01*
X165595807Y-120358027D01*
X165507158Y-120572045D01*
X165507157Y-120572046D01*
X165378461Y-120764654D01*
X165214654Y-120928461D01*
X165086249Y-121014258D01*
X165022045Y-121057158D01*
X164808027Y-121145807D01*
X164656560Y-121175936D01*
X164580827Y-121191000D01*
X164349173Y-121191000D01*
X164273440Y-121175936D01*
X164121973Y-121145807D01*
X163907955Y-121057158D01*
X163843751Y-121014258D01*
X163715346Y-120928461D01*
X163551539Y-120764654D01*
X163422843Y-120572046D01*
X163422842Y-120572045D01*
X163334193Y-120358027D01*
X163289000Y-120130826D01*
X163289000Y-119899174D01*
X163334193Y-119671973D01*
X163422842Y-119457955D01*
X163465742Y-119393751D01*
X163551539Y-119265346D01*
X163715346Y-119101539D01*
X163907954Y-118972843D01*
X163907955Y-118972842D01*
X164121973Y-118884193D01*
X164273440Y-118854064D01*
X164349173Y-118839000D01*
X164580827Y-118839000D01*
X164656560Y-118854064D01*
X164656560Y-118854064D01*
G37*
G36*
X127826560Y-115679064D02*
G01*
X127978027Y-115709193D01*
X128192045Y-115797842D01*
X128192046Y-115797843D01*
X128384654Y-115926539D01*
X128548461Y-116090346D01*
X128634258Y-116218751D01*
X128677158Y-116282955D01*
X128765807Y-116496973D01*
X128811000Y-116724174D01*
X128811000Y-116955826D01*
X128765807Y-117183027D01*
X128677158Y-117397045D01*
X128677157Y-117397046D01*
X128548461Y-117589654D01*
X128384654Y-117753461D01*
X128256249Y-117839258D01*
X128192045Y-117882158D01*
X127978027Y-117970807D01*
X127826560Y-118000936D01*
X127750827Y-118016000D01*
X127519173Y-118016000D01*
X127443440Y-118000936D01*
X127291973Y-117970807D01*
X127077955Y-117882158D01*
X127013751Y-117839258D01*
X126885346Y-117753461D01*
X126721539Y-117589654D01*
X126592843Y-117397046D01*
X126592842Y-117397045D01*
X126504193Y-117183027D01*
X126459000Y-116955826D01*
X126459000Y-116724174D01*
X126504193Y-116496973D01*
X126592842Y-116282955D01*
X126635742Y-116218751D01*
X126721539Y-116090346D01*
X126885346Y-115926539D01*
X127077954Y-115797843D01*
X127077955Y-115797842D01*
X127291973Y-115709193D01*
X127443440Y-115679064D01*
X127519173Y-115664000D01*
X127750827Y-115664000D01*
X127826560Y-115679064D01*
X127826560Y-115679064D01*
G37*
G36*
X122746560Y-115679064D02*
G01*
X122898027Y-115709193D01*
X123112045Y-115797842D01*
X123112046Y-115797843D01*
X123304654Y-115926539D01*
X123468461Y-116090346D01*
X123554258Y-116218751D01*
X123597158Y-116282955D01*
X123685807Y-116496973D01*
X123731000Y-116724174D01*
X123731000Y-116955826D01*
X123685807Y-117183027D01*
X123597158Y-117397045D01*
X123597157Y-117397046D01*
X123468461Y-117589654D01*
X123304654Y-117753461D01*
X123176249Y-117839258D01*
X123112045Y-117882158D01*
X122898027Y-117970807D01*
X122746560Y-118000936D01*
X122670827Y-118016000D01*
X122439173Y-118016000D01*
X122363440Y-118000936D01*
X122211973Y-117970807D01*
X121997955Y-117882158D01*
X121933751Y-117839258D01*
X121805346Y-117753461D01*
X121641539Y-117589654D01*
X121512843Y-117397046D01*
X121512842Y-117397045D01*
X121424193Y-117183027D01*
X121379000Y-116955826D01*
X121379000Y-116724174D01*
X121424193Y-116496973D01*
X121512842Y-116282955D01*
X121555742Y-116218751D01*
X121641539Y-116090346D01*
X121805346Y-115926539D01*
X121997954Y-115797843D01*
X121997955Y-115797842D01*
X122211973Y-115709193D01*
X122363440Y-115679064D01*
X122439173Y-115664000D01*
X122670827Y-115664000D01*
X122746560Y-115679064D01*
X122746560Y-115679064D01*
G37*
G36*
X125270271Y-113237783D02*
G01*
X125408858Y-113265350D01*
X125604677Y-113346461D01*
X125780910Y-113464216D01*
X125930784Y-113614090D01*
X126048539Y-113790323D01*
X126129650Y-113986142D01*
X126171000Y-114194023D01*
X126171000Y-114405977D01*
X126129650Y-114613858D01*
X126048539Y-114809677D01*
X125930784Y-114985910D01*
X125780910Y-115135784D01*
X125604677Y-115253539D01*
X125408858Y-115334650D01*
X125270271Y-115362217D01*
X125200978Y-115376000D01*
X124989022Y-115376000D01*
X124919729Y-115362217D01*
X124781142Y-115334650D01*
X124585323Y-115253539D01*
X124409090Y-115135784D01*
X124259216Y-114985910D01*
X124141461Y-114809677D01*
X124060350Y-114613858D01*
X124019000Y-114405977D01*
X124019000Y-114194023D01*
X124060350Y-113986142D01*
X124141461Y-113790323D01*
X124259216Y-113614090D01*
X124409090Y-113464216D01*
X124585323Y-113346461D01*
X124781142Y-113265350D01*
X124919729Y-113237783D01*
X124989022Y-113224000D01*
X125200978Y-113224000D01*
X125270271Y-113237783D01*
X125270271Y-113237783D01*
G37*
G36*
X122746560Y-110599064D02*
G01*
X122898027Y-110629193D01*
X123112045Y-110717842D01*
X123112046Y-110717843D01*
X123304654Y-110846539D01*
X123468461Y-111010346D01*
X123548535Y-111130186D01*
X123597158Y-111202955D01*
X123685807Y-111416973D01*
X123731000Y-111644174D01*
X123731000Y-111875826D01*
X123685807Y-112103027D01*
X123597158Y-112317045D01*
X123597157Y-112317046D01*
X123468461Y-112509654D01*
X123304654Y-112673461D01*
X123176249Y-112759258D01*
X123112045Y-112802158D01*
X122898027Y-112890807D01*
X122746560Y-112920936D01*
X122670827Y-112936000D01*
X122439173Y-112936000D01*
X122363440Y-112920936D01*
X122211973Y-112890807D01*
X121997955Y-112802158D01*
X121933751Y-112759258D01*
X121805346Y-112673461D01*
X121641539Y-112509654D01*
X121512843Y-112317046D01*
X121512842Y-112317045D01*
X121424193Y-112103027D01*
X121379000Y-111875826D01*
X121379000Y-111644174D01*
X121424193Y-111416973D01*
X121512842Y-111202955D01*
X121561465Y-111130186D01*
X121641539Y-111010346D01*
X121805346Y-110846539D01*
X121997954Y-110717843D01*
X121997955Y-110717842D01*
X122211973Y-110629193D01*
X122363440Y-110599064D01*
X122439173Y-110584000D01*
X122670827Y-110584000D01*
X122746560Y-110599064D01*
X122746560Y-110599064D01*
G37*
G36*
X127826560Y-110599064D02*
G01*
X127978027Y-110629193D01*
X128192045Y-110717842D01*
X128192046Y-110717843D01*
X128384654Y-110846539D01*
X128548461Y-111010346D01*
X128628535Y-111130186D01*
X128677158Y-111202955D01*
X128765807Y-111416973D01*
X128811000Y-111644174D01*
X128811000Y-111875826D01*
X128765807Y-112103027D01*
X128677158Y-112317045D01*
X128677157Y-112317046D01*
X128548461Y-112509654D01*
X128384654Y-112673461D01*
X128256249Y-112759258D01*
X128192045Y-112802158D01*
X127978027Y-112890807D01*
X127826560Y-112920936D01*
X127750827Y-112936000D01*
X127519173Y-112936000D01*
X127443440Y-112920936D01*
X127291973Y-112890807D01*
X127077955Y-112802158D01*
X127013751Y-112759258D01*
X126885346Y-112673461D01*
X126721539Y-112509654D01*
X126592843Y-112317046D01*
X126592842Y-112317045D01*
X126504193Y-112103027D01*
X126459000Y-111875826D01*
X126459000Y-111644174D01*
X126504193Y-111416973D01*
X126592842Y-111202955D01*
X126641465Y-111130186D01*
X126721539Y-111010346D01*
X126885346Y-110846539D01*
X127077954Y-110717843D01*
X127077955Y-110717842D01*
X127291973Y-110629193D01*
X127443440Y-110599064D01*
X127519173Y-110584000D01*
X127750827Y-110584000D01*
X127826560Y-110599064D01*
X127826560Y-110599064D01*
G37*
G36*
X137426000Y-111391000D02*
G01*
X135624000Y-111391000D01*
X135624000Y-109589000D01*
X137426000Y-109589000D01*
X137426000Y-111391000D01*
X137426000Y-111391000D01*
G37*
G36*
X139175442Y-109595518D02*
G01*
X139241627Y-109602037D01*
X139411466Y-109653557D01*
X139567991Y-109737222D01*
X139603729Y-109766552D01*
X139705186Y-109849814D01*
X139788448Y-109951271D01*
X139817778Y-109987009D01*
X139901443Y-110143534D01*
X139952963Y-110313373D01*
X139970359Y-110490000D01*
X139952963Y-110666627D01*
X139901443Y-110836466D01*
X139817778Y-110992991D01*
X139803535Y-111010346D01*
X139705186Y-111130186D01*
X139616515Y-111202955D01*
X139567991Y-111242778D01*
X139411466Y-111326443D01*
X139241627Y-111377963D01*
X139175443Y-111384481D01*
X139109260Y-111391000D01*
X139020740Y-111391000D01*
X138954557Y-111384481D01*
X138888373Y-111377963D01*
X138718534Y-111326443D01*
X138562009Y-111242778D01*
X138513485Y-111202955D01*
X138424814Y-111130186D01*
X138326465Y-111010346D01*
X138312222Y-110992991D01*
X138228557Y-110836466D01*
X138177037Y-110666627D01*
X138159641Y-110490000D01*
X138177037Y-110313373D01*
X138228557Y-110143534D01*
X138312222Y-109987009D01*
X138341552Y-109951271D01*
X138424814Y-109849814D01*
X138526271Y-109766552D01*
X138562009Y-109737222D01*
X138718534Y-109653557D01*
X138888373Y-109602037D01*
X138954558Y-109595518D01*
X139020740Y-109589000D01*
X139109260Y-109589000D01*
X139175442Y-109595518D01*
X139175442Y-109595518D01*
G37*
G36*
X141715442Y-109595518D02*
G01*
X141781627Y-109602037D01*
X141951466Y-109653557D01*
X142107991Y-109737222D01*
X142143729Y-109766552D01*
X142245186Y-109849814D01*
X142328448Y-109951271D01*
X142357778Y-109987009D01*
X142441443Y-110143534D01*
X142492963Y-110313373D01*
X142510359Y-110490000D01*
X142492963Y-110666627D01*
X142441443Y-110836466D01*
X142357778Y-110992991D01*
X142343535Y-111010346D01*
X142245186Y-111130186D01*
X142156515Y-111202955D01*
X142107991Y-111242778D01*
X141951466Y-111326443D01*
X141781627Y-111377963D01*
X141715443Y-111384481D01*
X141649260Y-111391000D01*
X141560740Y-111391000D01*
X141494557Y-111384481D01*
X141428373Y-111377963D01*
X141258534Y-111326443D01*
X141102009Y-111242778D01*
X141053485Y-111202955D01*
X140964814Y-111130186D01*
X140866465Y-111010346D01*
X140852222Y-110992991D01*
X140768557Y-110836466D01*
X140717037Y-110666627D01*
X140699641Y-110490000D01*
X140717037Y-110313373D01*
X140768557Y-110143534D01*
X140852222Y-109987009D01*
X140881552Y-109951271D01*
X140964814Y-109849814D01*
X141066271Y-109766552D01*
X141102009Y-109737222D01*
X141258534Y-109653557D01*
X141428373Y-109602037D01*
X141494558Y-109595518D01*
X141560740Y-109589000D01*
X141649260Y-109589000D01*
X141715442Y-109595518D01*
X141715442Y-109595518D01*
G37*
G36*
X122102021Y-101446640D02*
G01*
X122611769Y-101657785D01*
X122611771Y-101657786D01*
X123070534Y-101964321D01*
X123460679Y-102354466D01*
X123767214Y-102813229D01*
X123767215Y-102813231D01*
X123978360Y-103322979D01*
X124086000Y-103864124D01*
X124086000Y-104415876D01*
X123978360Y-104957021D01*
X123767215Y-105466769D01*
X123767214Y-105466771D01*
X123460679Y-105925534D01*
X123070534Y-106315679D01*
X122611771Y-106622214D01*
X122611770Y-106622215D01*
X122611769Y-106622215D01*
X122102021Y-106833360D01*
X121560876Y-106941000D01*
X121009124Y-106941000D01*
X120467979Y-106833360D01*
X119958231Y-106622215D01*
X119958230Y-106622215D01*
X119958229Y-106622214D01*
X119499466Y-106315679D01*
X119109321Y-105925534D01*
X118802786Y-105466771D01*
X118802785Y-105466769D01*
X118591640Y-104957021D01*
X118484000Y-104415876D01*
X118484000Y-103864124D01*
X118591640Y-103322979D01*
X118802785Y-102813231D01*
X118802786Y-102813229D01*
X119109321Y-102354466D01*
X119499466Y-101964321D01*
X119958229Y-101657786D01*
X119958231Y-101657785D01*
X120467979Y-101446640D01*
X121009124Y-101339000D01*
X121560876Y-101339000D01*
X122102021Y-101446640D01*
X122102021Y-101446640D01*
G37*
G36*
X169092021Y-101446640D02*
G01*
X169601769Y-101657785D01*
X169601771Y-101657786D01*
X170060534Y-101964321D01*
X170450679Y-102354466D01*
X170757214Y-102813229D01*
X170757215Y-102813231D01*
X170968360Y-103322979D01*
X171076000Y-103864124D01*
X171076000Y-104415876D01*
X170968360Y-104957021D01*
X170757215Y-105466769D01*
X170757214Y-105466771D01*
X170450679Y-105925534D01*
X170060534Y-106315679D01*
X169601771Y-106622214D01*
X169601770Y-106622215D01*
X169601769Y-106622215D01*
X169092021Y-106833360D01*
X168550876Y-106941000D01*
X167999124Y-106941000D01*
X167457979Y-106833360D01*
X166948231Y-106622215D01*
X166948230Y-106622215D01*
X166948229Y-106622214D01*
X166489466Y-106315679D01*
X166099321Y-105925534D01*
X165792786Y-105466771D01*
X165792785Y-105466769D01*
X165581640Y-104957021D01*
X165474000Y-104415876D01*
X165474000Y-103864124D01*
X165581640Y-103322979D01*
X165792785Y-102813231D01*
X165792786Y-102813229D01*
X166099321Y-102354466D01*
X166489466Y-101964321D01*
X166948229Y-101657786D01*
X166948231Y-101657785D01*
X167457979Y-101446640D01*
X167999124Y-101339000D01*
X168550876Y-101339000D01*
X169092021Y-101446640D01*
X169092021Y-101446640D01*
G37*
G36*
X148051626Y-102492037D02*
G01*
X148221465Y-102543557D01*
X148221467Y-102543558D01*
X148377989Y-102627221D01*
X148515186Y-102739814D01*
X148598448Y-102841271D01*
X148627778Y-102877009D01*
X148711443Y-103033534D01*
X148762963Y-103203373D01*
X148776000Y-103335742D01*
X148776000Y-103674257D01*
X148762963Y-103806626D01*
X148711443Y-103976466D01*
X148627778Y-104132991D01*
X148598448Y-104168729D01*
X148515186Y-104270186D01*
X148420250Y-104348097D01*
X148377991Y-104382778D01*
X148221466Y-104466443D01*
X148051627Y-104517963D01*
X147875000Y-104535359D01*
X147698374Y-104517963D01*
X147528535Y-104466443D01*
X147372010Y-104382778D01*
X147234815Y-104270185D01*
X147122222Y-104132991D01*
X147038557Y-103976466D01*
X146987037Y-103806627D01*
X146974000Y-103674258D01*
X146974000Y-103335743D01*
X146987037Y-103203374D01*
X147038557Y-103033535D01*
X147122222Y-102877010D01*
X147122223Y-102877009D01*
X147234814Y-102739814D01*
X147336271Y-102656552D01*
X147372009Y-102627222D01*
X147528534Y-102543557D01*
X147698373Y-102492037D01*
X147875000Y-102474641D01*
X148051626Y-102492037D01*
X148051626Y-102492037D01*
G37*
G36*
X145551626Y-102492037D02*
G01*
X145721465Y-102543557D01*
X145721467Y-102543558D01*
X145877989Y-102627221D01*
X146015186Y-102739814D01*
X146098448Y-102841271D01*
X146127778Y-102877009D01*
X146211443Y-103033534D01*
X146262963Y-103203373D01*
X146276000Y-103335742D01*
X146276000Y-103674257D01*
X146262963Y-103806626D01*
X146211443Y-103976466D01*
X146127778Y-104132991D01*
X146098448Y-104168729D01*
X146015186Y-104270186D01*
X145920250Y-104348097D01*
X145877991Y-104382778D01*
X145721466Y-104466443D01*
X145551627Y-104517963D01*
X145375000Y-104535359D01*
X145198374Y-104517963D01*
X145028535Y-104466443D01*
X144872010Y-104382778D01*
X144734815Y-104270185D01*
X144622222Y-104132991D01*
X144538557Y-103976466D01*
X144487037Y-103806627D01*
X144474000Y-103674258D01*
X144474000Y-103335743D01*
X144487037Y-103203374D01*
X144538557Y-103033535D01*
X144622222Y-102877010D01*
X144622223Y-102877009D01*
X144734814Y-102739814D01*
X144836271Y-102656552D01*
X144872009Y-102627222D01*
X145028534Y-102543557D01*
X145198373Y-102492037D01*
X145375000Y-102474641D01*
X145551626Y-102492037D01*
X145551626Y-102492037D01*
G37*
G36*
X143633600Y-102482989D02*
G01*
X143666652Y-102493015D01*
X143697103Y-102509292D01*
X143723799Y-102531201D01*
X143745708Y-102557897D01*
X143761985Y-102588348D01*
X143772011Y-102621400D01*
X143776000Y-102661903D01*
X143776000Y-104348097D01*
X143772011Y-104388600D01*
X143761985Y-104421652D01*
X143745708Y-104452103D01*
X143723799Y-104478799D01*
X143697103Y-104500708D01*
X143666652Y-104516985D01*
X143633600Y-104527011D01*
X143593097Y-104531000D01*
X142156903Y-104531000D01*
X142116400Y-104527011D01*
X142083348Y-104516985D01*
X142052897Y-104500708D01*
X142026201Y-104478799D01*
X142004292Y-104452103D01*
X141988015Y-104421652D01*
X141977989Y-104388600D01*
X141974000Y-104348097D01*
X141974000Y-102661903D01*
X141977989Y-102621400D01*
X141988015Y-102588348D01*
X142004292Y-102557897D01*
X142026201Y-102531201D01*
X142052897Y-102509292D01*
X142083348Y-102493015D01*
X142116400Y-102482989D01*
X142156903Y-102479000D01*
X143593097Y-102479000D01*
X143633600Y-102482989D01*
X143633600Y-102482989D01*
G37*
M02*
