M48
; DRILL file {KiCad (5.1.2)-2} date 2019/7/8 11:12:48
; FORMAT={-:-/ absolute / inch / decimal}
; #@! TF.CreationDate,2019-07-08T11:12:48+08:00
; #@! TF.GenerationSoftware,Kicad,Pcbnew,(5.1.2)-2
; #@! TF.FileFunction,Plated,1,2,PTH
FMAT,2
INCH
T1C0.0118
T2C0.0374
T3C0.0394
T4C0.0591
T5C0.0669
T6C0.1260
%
G90
G05
T1
X5.075Y-4.15
X5.075Y-4.2
X5.075Y-4.25
X5.075Y-4.5
X5.1Y-4.1
X5.1Y-4.525
X5.1Y-4.65
X5.125Y-4.05
X5.125Y-4.55
X5.125Y-4.675
X5.125Y-4.7
X5.125Y-4.975
X5.125Y-5.075
X5.15Y-4.025
X5.15Y-4.575
X5.175Y-4.6
X5.175Y-4.9
X5.175Y-4.975
X5.175Y-5.075
X5.2Y-4.0
X5.2Y-4.625
X5.225Y-4.675
X5.225Y-4.975
X5.225Y-5.075
X5.25Y-3.975
X5.25Y-4.175
X5.25Y-4.9
X5.2614Y-4.2344
X5.275Y-4.675
X5.275Y-5.075
X5.3Y-4.25
X5.3Y-4.475
X5.3Y-4.525
X5.3Y-4.575
X5.3Y-4.625
X5.3Y-4.675
X5.3Y-4.9
X5.3Y-5.2
X5.3Y-5.3
X5.3Y-5.45
X5.325Y-4.4
X5.325Y-5.075
X5.35Y-4.9
X5.375Y-4.25
X5.375Y-5.075
X5.4Y-4.025
X5.4Y-4.125
X5.4Y-4.175
X5.4Y-4.225
X5.4Y-5.2
X5.4Y-5.3
X5.4Y-5.45
X5.425Y-5.075
X5.45Y-4.025
X5.45Y-4.125
X5.45Y-4.9
X5.475Y-5.075
X5.5Y-4.025
X5.5Y-5.2
X5.5Y-5.3
X5.5Y-5.45
X5.525Y-4.125
X5.65Y-4.2
X5.65Y-4.3
X5.65Y-4.35
X5.65Y-4.45
X5.7Y-5.0
X5.7Y-5.05
X5.7Y-5.1
X5.7Y-5.15
X5.725Y-5.175
X5.75Y-4.975
X5.75Y-5.025
X5.75Y-5.1
X5.75Y-5.15
X5.775Y-4.225
X5.775Y-4.3
X5.775Y-4.4
X5.775Y-4.475
X5.775Y-4.575
X5.775Y-4.675
X5.825Y-4.7
X5.875Y-4.7
X5.925Y-4.675
X5.95Y-4.65
X6.025Y-4.625
X6.025Y-5.225
X6.025Y-5.325
X6.05Y-4.5
X6.05Y-4.55
X6.0656Y-4.2594
X6.0656Y-4.3344
X6.075Y-4.825
X6.125Y-4.825
X6.15Y-5.025
X6.175Y-4.825
X6.175Y-5.025
X6.175Y-5.225
X6.175Y-5.325
X6.2Y-4.25
X6.2Y-4.325
X6.2Y-4.425
X6.2Y-4.475
X6.2Y-4.525
X6.2Y-4.575
X6.2Y-4.625
X6.2Y-5.025
X6.225Y-4.825
X6.25Y-5.025
X6.275Y-4.775
X6.3Y-5.025
X6.3Y-5.225
X6.3Y-5.325
X6.325Y-4.775
X6.325Y-4.9
X6.325Y-4.975
X6.35Y-4.3
X6.35Y-4.45
X6.35Y-4.875
X6.375Y-4.775
X6.4Y-4.875
X6.425Y-4.775
X6.45Y-5.225
X6.45Y-5.325
X6.5Y-4.3
X6.5Y-4.45
X6.65Y-4.3
X6.65Y-4.45
T2
X5.625Y-4.075
X5.7234Y-4.075
X5.8219Y-4.075
T3
X5.375Y-4.35
X5.475Y-4.35
X5.575Y-4.35
X5.175Y-5.275
X6.375Y-5.075
T4
X4.925Y-4.5
X6.575Y-4.825
X4.925Y-5.0
T5
X4.825Y-4.4
X4.825Y-4.6
X5.025Y-4.4
X5.025Y-4.6
X6.475Y-4.725
X6.475Y-4.925
X6.675Y-4.725
X6.675Y-4.925
X4.825Y-4.9
X4.825Y-5.1
X5.025Y-4.9
X5.025Y-5.1
T6
X6.675Y-5.35
X6.625Y-4.1
X4.775Y-4.1
X4.8Y-5.35
T0
M30
