G04 #@! TF.GenerationSoftware,KiCad,Pcbnew,(5.1.2)-2*
G04 #@! TF.CreationDate,2019-07-05T16:04:50+08:00*
G04 #@! TF.ProjectId,eval-board-ADA4817-1,6576616c-2d62-46f6-9172-642d41444134,rev?*
G04 #@! TF.SameCoordinates,Original*
G04 #@! TF.FileFunction,Soldermask,Top*
G04 #@! TF.FilePolarity,Negative*
%FSLAX46Y46*%
G04 Gerber Fmt 4.6, Leading zero omitted, Abs format (unit mm)*
G04 Created by KiCad (PCBNEW (5.1.2)-2) date 2019-07-05 16:04:50*
%MOMM*%
%LPD*%
G04 APERTURE LIST*
%ADD10C,0.100000*%
G04 APERTURE END LIST*
D10*
G36*
X107497021Y-130021640D02*
G01*
X108006769Y-130232785D01*
X108006771Y-130232786D01*
X108465534Y-130539321D01*
X108855679Y-130929466D01*
X109162214Y-131388229D01*
X109162215Y-131388231D01*
X109373360Y-131897979D01*
X109481000Y-132439124D01*
X109481000Y-132990876D01*
X109373360Y-133532021D01*
X109235214Y-133865534D01*
X109162214Y-134041771D01*
X108855679Y-134500534D01*
X108465534Y-134890679D01*
X108006771Y-135197214D01*
X108006770Y-135197215D01*
X108006769Y-135197215D01*
X107497021Y-135408360D01*
X106955876Y-135516000D01*
X106404124Y-135516000D01*
X105862979Y-135408360D01*
X105353231Y-135197215D01*
X105353230Y-135197215D01*
X105353229Y-135197214D01*
X104894466Y-134890679D01*
X104504321Y-134500534D01*
X104197786Y-134041771D01*
X104124786Y-133865534D01*
X103986640Y-133532021D01*
X103879000Y-132990876D01*
X103879000Y-132439124D01*
X103986640Y-131897979D01*
X104197785Y-131388231D01*
X104197786Y-131388229D01*
X104504321Y-130929466D01*
X104894466Y-130539321D01*
X105353229Y-130232786D01*
X105353231Y-130232785D01*
X105862979Y-130021640D01*
X106404124Y-129914000D01*
X106955876Y-129914000D01*
X107497021Y-130021640D01*
X107497021Y-130021640D01*
G37*
G36*
X158297021Y-129386640D02*
G01*
X158670419Y-129541307D01*
X158806771Y-129597786D01*
X159265534Y-129904321D01*
X159655679Y-130294466D01*
X159962214Y-130753229D01*
X159962215Y-130753231D01*
X160173360Y-131262979D01*
X160281000Y-131804124D01*
X160281000Y-132355876D01*
X160173360Y-132897021D01*
X159962215Y-133406769D01*
X159962214Y-133406771D01*
X159655679Y-133865534D01*
X159265534Y-134255679D01*
X158806771Y-134562214D01*
X158806770Y-134562215D01*
X158806769Y-134562215D01*
X158297021Y-134773360D01*
X157755876Y-134881000D01*
X157204124Y-134881000D01*
X156662979Y-134773360D01*
X156153231Y-134562215D01*
X156153230Y-134562215D01*
X156153229Y-134562214D01*
X155694466Y-134255679D01*
X155304321Y-133865534D01*
X154997786Y-133406771D01*
X154997785Y-133406769D01*
X154786640Y-132897021D01*
X154679000Y-132355876D01*
X154679000Y-131804124D01*
X154786640Y-131262979D01*
X154997785Y-130753231D01*
X154997786Y-130753229D01*
X155304321Y-130294466D01*
X155694466Y-129904321D01*
X156153229Y-129597786D01*
X156289581Y-129541307D01*
X156662979Y-129386640D01*
X157204124Y-129279000D01*
X157755876Y-129279000D01*
X158297021Y-129386640D01*
X158297021Y-129386640D01*
G37*
G36*
X118343642Y-128134781D02*
G01*
X118489414Y-128195162D01*
X118489416Y-128195163D01*
X118620608Y-128282822D01*
X118732178Y-128394392D01*
X118819837Y-128525584D01*
X118819838Y-128525586D01*
X118880219Y-128671358D01*
X118911000Y-128826107D01*
X118911000Y-128983893D01*
X118880219Y-129138642D01*
X118819838Y-129284414D01*
X118819837Y-129284416D01*
X118732178Y-129415608D01*
X118620608Y-129527178D01*
X118489416Y-129614837D01*
X118489415Y-129614838D01*
X118489414Y-129614838D01*
X118343642Y-129675219D01*
X118188893Y-129706000D01*
X118031107Y-129706000D01*
X117876358Y-129675219D01*
X117730586Y-129614838D01*
X117730585Y-129614838D01*
X117730584Y-129614837D01*
X117599392Y-129527178D01*
X117487822Y-129415608D01*
X117400163Y-129284416D01*
X117400162Y-129284414D01*
X117339781Y-129138642D01*
X117309000Y-128983893D01*
X117309000Y-128826107D01*
X117339781Y-128671358D01*
X117400162Y-128525586D01*
X117400163Y-128525584D01*
X117487822Y-128394392D01*
X117599392Y-128282822D01*
X117730584Y-128195163D01*
X117730586Y-128195162D01*
X117876358Y-128134781D01*
X118031107Y-128104000D01*
X118188893Y-128104000D01*
X118343642Y-128134781D01*
X118343642Y-128134781D01*
G37*
G36*
X130554591Y-128573085D02*
G01*
X130588569Y-128583393D01*
X130619890Y-128600134D01*
X130647339Y-128622661D01*
X130669866Y-128650110D01*
X130686607Y-128681431D01*
X130696915Y-128715409D01*
X130701000Y-128756890D01*
X130701000Y-129358110D01*
X130696915Y-129399591D01*
X130686607Y-129433569D01*
X130669866Y-129464890D01*
X130647339Y-129492339D01*
X130619890Y-129514866D01*
X130588569Y-129531607D01*
X130554591Y-129541915D01*
X130513110Y-129546000D01*
X129836890Y-129546000D01*
X129795409Y-129541915D01*
X129761431Y-129531607D01*
X129730110Y-129514866D01*
X129702661Y-129492339D01*
X129680134Y-129464890D01*
X129663393Y-129433569D01*
X129653085Y-129399591D01*
X129649000Y-129358110D01*
X129649000Y-128756890D01*
X129653085Y-128715409D01*
X129663393Y-128681431D01*
X129680134Y-128650110D01*
X129702661Y-128622661D01*
X129730110Y-128600134D01*
X129761431Y-128583393D01*
X129795409Y-128573085D01*
X129836890Y-128569000D01*
X130513110Y-128569000D01*
X130554591Y-128573085D01*
X130554591Y-128573085D01*
G37*
G36*
X134614592Y-128573085D02*
G01*
X134648570Y-128583393D01*
X134679891Y-128600134D01*
X134707340Y-128622661D01*
X134729867Y-128650110D01*
X134746608Y-128681431D01*
X134756916Y-128715409D01*
X134761001Y-128756890D01*
X134761001Y-129358110D01*
X134756916Y-129399591D01*
X134746608Y-129433569D01*
X134729867Y-129464890D01*
X134707340Y-129492339D01*
X134679891Y-129514866D01*
X134648570Y-129531607D01*
X134614592Y-129541915D01*
X134573111Y-129546000D01*
X133896891Y-129546000D01*
X133855410Y-129541915D01*
X133821432Y-129531607D01*
X133790111Y-129514866D01*
X133762662Y-129492339D01*
X133740135Y-129464890D01*
X133723394Y-129433569D01*
X133713086Y-129399591D01*
X133709001Y-129358110D01*
X133709001Y-128756890D01*
X133713086Y-128715409D01*
X133723394Y-128681431D01*
X133740135Y-128650110D01*
X133762662Y-128622661D01*
X133790111Y-128600134D01*
X133821432Y-128583393D01*
X133855410Y-128573085D01*
X133896891Y-128569000D01*
X134573111Y-128569000D01*
X134614592Y-128573085D01*
X134614592Y-128573085D01*
G37*
G36*
X132459591Y-128573085D02*
G01*
X132493569Y-128583393D01*
X132524890Y-128600134D01*
X132552339Y-128622661D01*
X132574866Y-128650110D01*
X132591607Y-128681431D01*
X132601915Y-128715409D01*
X132606000Y-128756890D01*
X132606000Y-129358110D01*
X132601915Y-129399591D01*
X132591607Y-129433569D01*
X132574866Y-129464890D01*
X132552339Y-129492339D01*
X132524890Y-129514866D01*
X132493569Y-129531607D01*
X132459591Y-129541915D01*
X132418110Y-129546000D01*
X131741890Y-129546000D01*
X131700409Y-129541915D01*
X131666431Y-129531607D01*
X131635110Y-129514866D01*
X131607661Y-129492339D01*
X131585134Y-129464890D01*
X131568393Y-129433569D01*
X131558085Y-129399591D01*
X131554000Y-129358110D01*
X131554000Y-128756890D01*
X131558085Y-128715409D01*
X131568393Y-128681431D01*
X131585134Y-128650110D01*
X131607661Y-128622661D01*
X131635110Y-128600134D01*
X131666431Y-128583393D01*
X131700409Y-128573085D01*
X131741890Y-128569000D01*
X132418110Y-128569000D01*
X132459591Y-128573085D01*
X132459591Y-128573085D01*
G37*
G36*
X123741000Y-129456000D02*
G01*
X122639000Y-129456000D01*
X122639000Y-128354000D01*
X123741000Y-128354000D01*
X123741000Y-129456000D01*
X123741000Y-129456000D01*
G37*
G36*
X130554591Y-126998085D02*
G01*
X130588569Y-127008393D01*
X130619890Y-127025134D01*
X130647339Y-127047661D01*
X130669866Y-127075110D01*
X130686607Y-127106431D01*
X130696915Y-127140409D01*
X130701000Y-127181890D01*
X130701000Y-127783110D01*
X130696915Y-127824591D01*
X130686607Y-127858569D01*
X130669866Y-127889890D01*
X130647339Y-127917339D01*
X130619890Y-127939866D01*
X130588569Y-127956607D01*
X130554591Y-127966915D01*
X130513110Y-127971000D01*
X129836890Y-127971000D01*
X129795409Y-127966915D01*
X129761431Y-127956607D01*
X129730110Y-127939866D01*
X129702661Y-127917339D01*
X129680134Y-127889890D01*
X129663393Y-127858569D01*
X129653085Y-127824591D01*
X129649000Y-127783110D01*
X129649000Y-127181890D01*
X129653085Y-127140409D01*
X129663393Y-127106431D01*
X129680134Y-127075110D01*
X129702661Y-127047661D01*
X129730110Y-127025134D01*
X129761431Y-127008393D01*
X129795409Y-126998085D01*
X129836890Y-126994000D01*
X130513110Y-126994000D01*
X130554591Y-126998085D01*
X130554591Y-126998085D01*
G37*
G36*
X134614592Y-126998085D02*
G01*
X134648570Y-127008393D01*
X134679891Y-127025134D01*
X134707340Y-127047661D01*
X134729867Y-127075110D01*
X134746608Y-127106431D01*
X134756916Y-127140409D01*
X134761001Y-127181890D01*
X134761001Y-127783110D01*
X134756916Y-127824591D01*
X134746608Y-127858569D01*
X134729867Y-127889890D01*
X134707340Y-127917339D01*
X134679891Y-127939866D01*
X134648570Y-127956607D01*
X134614592Y-127966915D01*
X134573111Y-127971000D01*
X133896891Y-127971000D01*
X133855410Y-127966915D01*
X133821432Y-127956607D01*
X133790111Y-127939866D01*
X133762662Y-127917339D01*
X133740135Y-127889890D01*
X133723394Y-127858569D01*
X133713086Y-127824591D01*
X133709001Y-127783110D01*
X133709001Y-127181890D01*
X133713086Y-127140409D01*
X133723394Y-127106431D01*
X133740135Y-127075110D01*
X133762662Y-127047661D01*
X133790111Y-127025134D01*
X133821432Y-127008393D01*
X133855410Y-126998085D01*
X133896891Y-126994000D01*
X134573111Y-126994000D01*
X134614592Y-126998085D01*
X134614592Y-126998085D01*
G37*
G36*
X132459591Y-126998085D02*
G01*
X132493569Y-127008393D01*
X132524890Y-127025134D01*
X132552339Y-127047661D01*
X132574866Y-127075110D01*
X132591607Y-127106431D01*
X132601915Y-127140409D01*
X132606000Y-127181890D01*
X132606000Y-127783110D01*
X132601915Y-127824591D01*
X132591607Y-127858569D01*
X132574866Y-127889890D01*
X132552339Y-127917339D01*
X132524890Y-127939866D01*
X132493569Y-127956607D01*
X132459591Y-127966915D01*
X132418110Y-127971000D01*
X131741890Y-127971000D01*
X131700409Y-127966915D01*
X131666431Y-127956607D01*
X131635110Y-127939866D01*
X131607661Y-127917339D01*
X131585134Y-127889890D01*
X131568393Y-127858569D01*
X131558085Y-127824591D01*
X131554000Y-127783110D01*
X131554000Y-127181890D01*
X131558085Y-127140409D01*
X131568393Y-127106431D01*
X131585134Y-127075110D01*
X131607661Y-127047661D01*
X131635110Y-127025134D01*
X131666431Y-127008393D01*
X131700409Y-126998085D01*
X131741890Y-126994000D01*
X132418110Y-126994000D01*
X132459591Y-126998085D01*
X132459591Y-126998085D01*
G37*
G36*
X106851137Y-125200002D02*
G01*
X107023027Y-125234193D01*
X107237045Y-125322842D01*
X107301249Y-125365742D01*
X107429654Y-125451539D01*
X107593461Y-125615346D01*
X107613943Y-125646000D01*
X107722158Y-125807955D01*
X107810807Y-126021973D01*
X107856000Y-126249174D01*
X107856000Y-126480826D01*
X107810807Y-126708027D01*
X107722158Y-126922045D01*
X107722157Y-126922046D01*
X107593461Y-127114654D01*
X107429654Y-127278461D01*
X107301249Y-127364258D01*
X107237045Y-127407158D01*
X107023027Y-127495807D01*
X106871560Y-127525936D01*
X106795827Y-127541000D01*
X106564173Y-127541000D01*
X106488440Y-127525936D01*
X106336973Y-127495807D01*
X106122955Y-127407158D01*
X106058751Y-127364258D01*
X105930346Y-127278461D01*
X105766539Y-127114654D01*
X105637843Y-126922046D01*
X105637842Y-126922045D01*
X105549193Y-126708027D01*
X105504000Y-126480826D01*
X105504000Y-126249174D01*
X105549193Y-126021973D01*
X105637842Y-125807955D01*
X105746057Y-125646000D01*
X105766539Y-125615346D01*
X105930346Y-125451539D01*
X106058751Y-125365742D01*
X106122955Y-125322842D01*
X106336973Y-125234193D01*
X106508863Y-125200002D01*
X106564173Y-125189000D01*
X106795827Y-125189000D01*
X106851137Y-125200002D01*
X106851137Y-125200002D01*
G37*
G36*
X111931137Y-125200002D02*
G01*
X112103027Y-125234193D01*
X112317045Y-125322842D01*
X112381249Y-125365742D01*
X112509654Y-125451539D01*
X112673461Y-125615346D01*
X112693943Y-125646000D01*
X112802158Y-125807955D01*
X112890807Y-126021973D01*
X112936000Y-126249174D01*
X112936000Y-126480826D01*
X112890807Y-126708027D01*
X112802158Y-126922045D01*
X112802157Y-126922046D01*
X112673461Y-127114654D01*
X112509654Y-127278461D01*
X112381249Y-127364258D01*
X112317045Y-127407158D01*
X112103027Y-127495807D01*
X111951560Y-127525936D01*
X111875827Y-127541000D01*
X111644173Y-127541000D01*
X111568440Y-127525936D01*
X111416973Y-127495807D01*
X111202955Y-127407158D01*
X111138751Y-127364258D01*
X111010346Y-127278461D01*
X110846539Y-127114654D01*
X110717843Y-126922046D01*
X110717842Y-126922045D01*
X110629193Y-126708027D01*
X110584000Y-126480826D01*
X110584000Y-126249174D01*
X110629193Y-126021973D01*
X110717842Y-125807955D01*
X110826057Y-125646000D01*
X110846539Y-125615346D01*
X111010346Y-125451539D01*
X111138751Y-125365742D01*
X111202955Y-125322842D01*
X111416973Y-125234193D01*
X111588863Y-125200002D01*
X111644173Y-125189000D01*
X111875827Y-125189000D01*
X111931137Y-125200002D01*
X111931137Y-125200002D01*
G37*
G36*
X150728642Y-124324781D02*
G01*
X150874414Y-124385162D01*
X150874416Y-124385163D01*
X151005608Y-124472822D01*
X151117178Y-124584392D01*
X151168221Y-124660784D01*
X151204838Y-124715586D01*
X151265219Y-124861358D01*
X151296000Y-125016107D01*
X151296000Y-125173893D01*
X151265219Y-125328642D01*
X151214313Y-125451539D01*
X151204837Y-125474416D01*
X151117178Y-125605608D01*
X151005608Y-125717178D01*
X150874416Y-125804837D01*
X150874415Y-125804838D01*
X150874414Y-125804838D01*
X150728642Y-125865219D01*
X150573893Y-125896000D01*
X150416107Y-125896000D01*
X150261358Y-125865219D01*
X150115586Y-125804838D01*
X150115585Y-125804838D01*
X150115584Y-125804837D01*
X149984392Y-125717178D01*
X149872822Y-125605608D01*
X149785163Y-125474416D01*
X149775687Y-125451539D01*
X149724781Y-125328642D01*
X149694000Y-125173893D01*
X149694000Y-125016107D01*
X149724781Y-124861358D01*
X149785162Y-124715586D01*
X149821779Y-124660784D01*
X149872822Y-124584392D01*
X149984392Y-124472822D01*
X150115584Y-124385163D01*
X150115586Y-124385162D01*
X150261358Y-124324781D01*
X150416107Y-124294000D01*
X150573893Y-124294000D01*
X150728642Y-124324781D01*
X150728642Y-124324781D01*
G37*
G36*
X156761000Y-125646000D02*
G01*
X155659000Y-125646000D01*
X155659000Y-124544000D01*
X156761000Y-124544000D01*
X156761000Y-125646000D01*
X156761000Y-125646000D01*
G37*
G36*
X135674999Y-123659737D02*
G01*
X135684608Y-123662652D01*
X135693472Y-123667390D01*
X135701212Y-123673742D01*
X135701213Y-123673743D01*
X135701237Y-123673763D01*
X135707640Y-123681573D01*
X135707677Y-123681628D01*
X135715480Y-123691147D01*
X135715511Y-123691122D01*
X135726853Y-123704972D01*
X135745779Y-123720537D01*
X135767377Y-123732111D01*
X135790819Y-123739249D01*
X135815202Y-123741676D01*
X135839591Y-123739300D01*
X135863047Y-123732211D01*
X135884670Y-123720682D01*
X135903628Y-123705157D01*
X135919193Y-123686231D01*
X135921029Y-123683175D01*
X135922418Y-123681486D01*
X135922419Y-123681484D01*
X135928801Y-123673725D01*
X135936573Y-123667360D01*
X135936575Y-123667358D01*
X135945399Y-123662654D01*
X135945438Y-123662633D01*
X135955055Y-123659727D01*
X135955085Y-123659718D01*
X135971113Y-123658148D01*
X137108860Y-123658148D01*
X137124999Y-123659737D01*
X137134608Y-123662652D01*
X137143472Y-123667390D01*
X137151237Y-123673763D01*
X137157610Y-123681528D01*
X137162348Y-123690392D01*
X137165263Y-123700001D01*
X137166852Y-123716140D01*
X137166852Y-125203860D01*
X137165263Y-125219999D01*
X137162348Y-125229608D01*
X137157610Y-125238472D01*
X137151237Y-125246237D01*
X137143472Y-125252610D01*
X137134608Y-125257348D01*
X137124999Y-125260263D01*
X137108860Y-125261852D01*
X135971140Y-125261852D01*
X135955001Y-125260263D01*
X135945392Y-125257348D01*
X135936528Y-125252610D01*
X135928763Y-125246237D01*
X135918116Y-125233263D01*
X135911947Y-125224032D01*
X135894619Y-125206706D01*
X135874244Y-125193093D01*
X135851605Y-125183717D01*
X135827572Y-125178937D01*
X135803068Y-125178938D01*
X135779035Y-125183720D01*
X135756396Y-125193098D01*
X135736022Y-125206713D01*
X135718696Y-125224041D01*
X135711825Y-125233317D01*
X135707640Y-125238427D01*
X135701275Y-125246199D01*
X135693516Y-125252581D01*
X135684661Y-125257326D01*
X135681623Y-125258251D01*
X135675085Y-125260242D01*
X135675082Y-125260242D01*
X135675050Y-125260252D01*
X135665000Y-125261247D01*
X135664935Y-125261247D01*
X135658825Y-125261852D01*
X134671140Y-125261852D01*
X134655001Y-125260263D01*
X134645392Y-125257348D01*
X134636528Y-125252610D01*
X134628763Y-125246237D01*
X134622390Y-125238472D01*
X134617652Y-125229608D01*
X134614737Y-125219999D01*
X134613148Y-125203860D01*
X134613148Y-123716140D01*
X134614737Y-123700001D01*
X134617652Y-123690392D01*
X134622390Y-123681528D01*
X134628763Y-123673763D01*
X134636528Y-123667390D01*
X134645392Y-123662652D01*
X134655001Y-123659737D01*
X134671140Y-123658148D01*
X135658860Y-123658148D01*
X135674999Y-123659737D01*
X135674999Y-123659737D01*
G37*
G36*
X109395271Y-122762783D02*
G01*
X109533858Y-122790350D01*
X109729677Y-122871461D01*
X109905910Y-122989216D01*
X110055784Y-123139090D01*
X110173539Y-123315323D01*
X110254650Y-123511142D01*
X110282217Y-123649729D01*
X110294195Y-123709946D01*
X110296000Y-123719023D01*
X110296000Y-123930977D01*
X110254650Y-124138858D01*
X110173539Y-124334677D01*
X110055784Y-124510910D01*
X109905910Y-124660784D01*
X109729677Y-124778539D01*
X109533858Y-124859650D01*
X109395271Y-124887217D01*
X109325978Y-124901000D01*
X109114022Y-124901000D01*
X109044729Y-124887217D01*
X108906142Y-124859650D01*
X108710323Y-124778539D01*
X108534090Y-124660784D01*
X108384216Y-124510910D01*
X108266461Y-124334677D01*
X108185350Y-124138858D01*
X108144000Y-123930977D01*
X108144000Y-123719023D01*
X108145806Y-123709946D01*
X108157783Y-123649729D01*
X108185350Y-123511142D01*
X108266461Y-123315323D01*
X108384216Y-123139090D01*
X108534090Y-122989216D01*
X108710323Y-122871461D01*
X108906142Y-122790350D01*
X109044729Y-122762783D01*
X109114022Y-122749000D01*
X109325978Y-122749000D01*
X109395271Y-122762783D01*
X109395271Y-122762783D01*
G37*
G36*
X127647091Y-123303085D02*
G01*
X127681069Y-123313393D01*
X127712390Y-123330134D01*
X127739839Y-123352661D01*
X127762366Y-123380110D01*
X127779107Y-123411431D01*
X127789415Y-123445409D01*
X127793500Y-123486890D01*
X127793500Y-124163110D01*
X127789415Y-124204591D01*
X127779107Y-124238569D01*
X127762366Y-124269890D01*
X127739839Y-124297339D01*
X127712390Y-124319866D01*
X127681069Y-124336607D01*
X127647091Y-124346915D01*
X127605610Y-124351000D01*
X127004390Y-124351000D01*
X126962909Y-124346915D01*
X126928931Y-124336607D01*
X126897610Y-124319866D01*
X126870161Y-124297339D01*
X126847634Y-124269890D01*
X126830893Y-124238569D01*
X126820585Y-124204591D01*
X126816500Y-124163110D01*
X126816500Y-123486890D01*
X126820585Y-123445409D01*
X126830893Y-123411431D01*
X126847634Y-123380110D01*
X126870161Y-123352661D01*
X126897610Y-123330134D01*
X126928931Y-123313393D01*
X126962909Y-123303085D01*
X127004390Y-123299000D01*
X127605610Y-123299000D01*
X127647091Y-123303085D01*
X127647091Y-123303085D01*
G37*
G36*
X126072091Y-123303085D02*
G01*
X126106069Y-123313393D01*
X126137390Y-123330134D01*
X126164839Y-123352661D01*
X126187366Y-123380110D01*
X126204107Y-123411431D01*
X126214415Y-123445409D01*
X126218500Y-123486890D01*
X126218500Y-124163110D01*
X126214415Y-124204591D01*
X126204107Y-124238569D01*
X126187366Y-124269890D01*
X126164839Y-124297339D01*
X126137390Y-124319866D01*
X126106069Y-124336607D01*
X126072091Y-124346915D01*
X126030610Y-124351000D01*
X125429390Y-124351000D01*
X125387909Y-124346915D01*
X125353931Y-124336607D01*
X125322610Y-124319866D01*
X125295161Y-124297339D01*
X125272634Y-124269890D01*
X125255893Y-124238569D01*
X125245585Y-124204591D01*
X125241500Y-124163110D01*
X125241500Y-123486890D01*
X125245585Y-123445409D01*
X125255893Y-123411431D01*
X125272634Y-123380110D01*
X125295161Y-123352661D01*
X125322610Y-123330134D01*
X125353931Y-123313393D01*
X125387909Y-123303085D01*
X125429390Y-123299000D01*
X126030610Y-123299000D01*
X126072091Y-123303085D01*
X126072091Y-123303085D01*
G37*
G36*
X111951560Y-120124064D02*
G01*
X112103027Y-120154193D01*
X112317045Y-120242842D01*
X112317046Y-120242843D01*
X112509654Y-120371539D01*
X112673461Y-120535346D01*
X112759258Y-120663751D01*
X112802158Y-120727955D01*
X112890807Y-120941973D01*
X112936000Y-121169174D01*
X112936000Y-121400826D01*
X112890807Y-121628027D01*
X112802158Y-121842045D01*
X112802157Y-121842046D01*
X112673461Y-122034654D01*
X112509654Y-122198461D01*
X112381249Y-122284258D01*
X112317045Y-122327158D01*
X112103027Y-122415807D01*
X111971773Y-122441915D01*
X111875827Y-122461000D01*
X111644173Y-122461000D01*
X111548227Y-122441915D01*
X111416973Y-122415807D01*
X111202955Y-122327158D01*
X111138751Y-122284258D01*
X111010346Y-122198461D01*
X110846539Y-122034654D01*
X110717843Y-121842046D01*
X110717842Y-121842045D01*
X110629193Y-121628027D01*
X110584000Y-121400826D01*
X110584000Y-121169174D01*
X110629193Y-120941973D01*
X110717842Y-120727955D01*
X110760742Y-120663751D01*
X110846539Y-120535346D01*
X111010346Y-120371539D01*
X111202954Y-120242843D01*
X111202955Y-120242842D01*
X111416973Y-120154193D01*
X111568440Y-120124064D01*
X111644173Y-120109000D01*
X111875827Y-120109000D01*
X111951560Y-120124064D01*
X111951560Y-120124064D01*
G37*
G36*
X106871560Y-120124064D02*
G01*
X107023027Y-120154193D01*
X107237045Y-120242842D01*
X107237046Y-120242843D01*
X107429654Y-120371539D01*
X107593461Y-120535346D01*
X107679258Y-120663751D01*
X107722158Y-120727955D01*
X107810807Y-120941973D01*
X107856000Y-121169174D01*
X107856000Y-121400826D01*
X107810807Y-121628027D01*
X107722158Y-121842045D01*
X107722157Y-121842046D01*
X107593461Y-122034654D01*
X107429654Y-122198461D01*
X107301249Y-122284258D01*
X107237045Y-122327158D01*
X107023027Y-122415807D01*
X106891773Y-122441915D01*
X106795827Y-122461000D01*
X106564173Y-122461000D01*
X106468227Y-122441915D01*
X106336973Y-122415807D01*
X106122955Y-122327158D01*
X106058751Y-122284258D01*
X105930346Y-122198461D01*
X105766539Y-122034654D01*
X105637843Y-121842046D01*
X105637842Y-121842045D01*
X105549193Y-121628027D01*
X105504000Y-121400826D01*
X105504000Y-121169174D01*
X105549193Y-120941973D01*
X105637842Y-120727955D01*
X105680742Y-120663751D01*
X105766539Y-120535346D01*
X105930346Y-120371539D01*
X106122954Y-120242843D01*
X106122955Y-120242842D01*
X106336973Y-120154193D01*
X106488440Y-120124064D01*
X106564173Y-120109000D01*
X106795827Y-120109000D01*
X106871560Y-120124064D01*
X106871560Y-120124064D01*
G37*
G36*
X141464591Y-121398085D02*
G01*
X141498569Y-121408393D01*
X141529890Y-121425134D01*
X141557339Y-121447661D01*
X141579866Y-121475110D01*
X141596607Y-121506431D01*
X141606915Y-121540409D01*
X141611000Y-121581890D01*
X141611000Y-122258110D01*
X141606915Y-122299591D01*
X141596607Y-122333569D01*
X141579866Y-122364890D01*
X141557339Y-122392339D01*
X141529890Y-122414866D01*
X141498569Y-122431607D01*
X141464591Y-122441915D01*
X141423110Y-122446000D01*
X140821890Y-122446000D01*
X140780409Y-122441915D01*
X140746431Y-122431607D01*
X140715110Y-122414866D01*
X140687661Y-122392339D01*
X140665134Y-122364890D01*
X140648393Y-122333569D01*
X140638085Y-122299591D01*
X140634000Y-122258110D01*
X140634000Y-121581890D01*
X140638085Y-121540409D01*
X140648393Y-121506431D01*
X140665134Y-121475110D01*
X140687661Y-121447661D01*
X140715110Y-121425134D01*
X140746431Y-121408393D01*
X140780409Y-121398085D01*
X140821890Y-121394000D01*
X141423110Y-121394000D01*
X141464591Y-121398085D01*
X141464591Y-121398085D01*
G37*
G36*
X139889591Y-121398085D02*
G01*
X139923569Y-121408393D01*
X139954890Y-121425134D01*
X139982339Y-121447661D01*
X140004866Y-121475110D01*
X140021607Y-121506431D01*
X140031915Y-121540409D01*
X140036000Y-121581890D01*
X140036000Y-122258110D01*
X140031915Y-122299591D01*
X140021607Y-122333569D01*
X140004866Y-122364890D01*
X139982339Y-122392339D01*
X139954890Y-122414866D01*
X139923569Y-122431607D01*
X139889591Y-122441915D01*
X139848110Y-122446000D01*
X139246890Y-122446000D01*
X139205409Y-122441915D01*
X139171431Y-122431607D01*
X139140110Y-122414866D01*
X139112661Y-122392339D01*
X139090134Y-122364890D01*
X139073393Y-122333569D01*
X139063085Y-122299591D01*
X139059000Y-122258110D01*
X139059000Y-121581890D01*
X139063085Y-121540409D01*
X139073393Y-121506431D01*
X139090134Y-121475110D01*
X139112661Y-121447661D01*
X139140110Y-121425134D01*
X139171431Y-121408393D01*
X139205409Y-121398085D01*
X139246890Y-121394000D01*
X139848110Y-121394000D01*
X139889591Y-121398085D01*
X139889591Y-121398085D01*
G37*
G36*
X152591560Y-119489064D02*
G01*
X152743027Y-119519193D01*
X152957045Y-119607842D01*
X152957046Y-119607843D01*
X153149654Y-119736539D01*
X153313461Y-119900346D01*
X153318955Y-119908569D01*
X153442158Y-120092955D01*
X153530807Y-120306973D01*
X153576000Y-120534174D01*
X153576000Y-120765826D01*
X153530807Y-120993027D01*
X153442158Y-121207045D01*
X153442157Y-121207046D01*
X153313461Y-121399654D01*
X153149654Y-121563461D01*
X153037724Y-121638250D01*
X152957045Y-121692158D01*
X152743027Y-121780807D01*
X152591560Y-121810936D01*
X152515827Y-121826000D01*
X152284173Y-121826000D01*
X152208440Y-121810936D01*
X152056973Y-121780807D01*
X151842955Y-121692158D01*
X151762276Y-121638250D01*
X151650346Y-121563461D01*
X151486539Y-121399654D01*
X151357843Y-121207046D01*
X151357842Y-121207045D01*
X151269193Y-120993027D01*
X151224000Y-120765826D01*
X151224000Y-120534174D01*
X151269193Y-120306973D01*
X151357842Y-120092955D01*
X151481045Y-119908569D01*
X151486539Y-119900346D01*
X151650346Y-119736539D01*
X151842954Y-119607843D01*
X151842955Y-119607842D01*
X152056973Y-119519193D01*
X152208440Y-119489064D01*
X152284173Y-119474000D01*
X152515827Y-119474000D01*
X152591560Y-119489064D01*
X152591560Y-119489064D01*
G37*
G36*
X157671560Y-119489064D02*
G01*
X157823027Y-119519193D01*
X158037045Y-119607842D01*
X158037046Y-119607843D01*
X158229654Y-119736539D01*
X158393461Y-119900346D01*
X158398955Y-119908569D01*
X158522158Y-120092955D01*
X158610807Y-120306973D01*
X158656000Y-120534174D01*
X158656000Y-120765826D01*
X158610807Y-120993027D01*
X158522158Y-121207045D01*
X158522157Y-121207046D01*
X158393461Y-121399654D01*
X158229654Y-121563461D01*
X158117724Y-121638250D01*
X158037045Y-121692158D01*
X157823027Y-121780807D01*
X157671560Y-121810936D01*
X157595827Y-121826000D01*
X157364173Y-121826000D01*
X157288440Y-121810936D01*
X157136973Y-121780807D01*
X156922955Y-121692158D01*
X156842276Y-121638250D01*
X156730346Y-121563461D01*
X156566539Y-121399654D01*
X156437843Y-121207046D01*
X156437842Y-121207045D01*
X156349193Y-120993027D01*
X156304000Y-120765826D01*
X156304000Y-120534174D01*
X156349193Y-120306973D01*
X156437842Y-120092955D01*
X156561045Y-119908569D01*
X156566539Y-119900346D01*
X156730346Y-119736539D01*
X156922954Y-119607843D01*
X156922955Y-119607842D01*
X157136973Y-119519193D01*
X157288440Y-119489064D01*
X157364173Y-119474000D01*
X157595827Y-119474000D01*
X157671560Y-119489064D01*
X157671560Y-119489064D01*
G37*
G36*
X121664591Y-120318085D02*
G01*
X121698569Y-120328393D01*
X121729890Y-120345134D01*
X121757339Y-120367661D01*
X121779866Y-120395110D01*
X121796607Y-120426431D01*
X121806915Y-120460409D01*
X121811000Y-120501890D01*
X121811000Y-121103110D01*
X121806915Y-121144591D01*
X121796607Y-121178569D01*
X121779866Y-121209890D01*
X121757339Y-121237339D01*
X121729890Y-121259866D01*
X121698569Y-121276607D01*
X121664591Y-121286915D01*
X121623110Y-121291000D01*
X120946890Y-121291000D01*
X120905409Y-121286915D01*
X120871431Y-121276607D01*
X120840110Y-121259866D01*
X120812661Y-121237339D01*
X120790134Y-121209890D01*
X120773393Y-121178569D01*
X120763085Y-121144591D01*
X120759000Y-121103110D01*
X120759000Y-120501890D01*
X120763085Y-120460409D01*
X120773393Y-120426431D01*
X120790134Y-120395110D01*
X120812661Y-120367661D01*
X120840110Y-120345134D01*
X120871431Y-120328393D01*
X120905409Y-120318085D01*
X120946890Y-120314000D01*
X121623110Y-120314000D01*
X121664591Y-120318085D01*
X121664591Y-120318085D01*
G37*
G36*
X126744591Y-120318085D02*
G01*
X126778569Y-120328393D01*
X126809890Y-120345134D01*
X126837339Y-120367661D01*
X126859866Y-120395110D01*
X126876607Y-120426431D01*
X126886915Y-120460409D01*
X126891000Y-120501890D01*
X126891000Y-121103110D01*
X126886915Y-121144591D01*
X126876607Y-121178569D01*
X126859866Y-121209890D01*
X126837339Y-121237339D01*
X126809890Y-121259866D01*
X126778569Y-121276607D01*
X126744591Y-121286915D01*
X126703110Y-121291000D01*
X126026890Y-121291000D01*
X125985409Y-121286915D01*
X125951431Y-121276607D01*
X125920110Y-121259866D01*
X125892661Y-121237339D01*
X125870134Y-121209890D01*
X125853393Y-121178569D01*
X125843085Y-121144591D01*
X125839000Y-121103110D01*
X125839000Y-120501890D01*
X125843085Y-120460409D01*
X125853393Y-120426431D01*
X125870134Y-120395110D01*
X125892661Y-120367661D01*
X125920110Y-120345134D01*
X125951431Y-120328393D01*
X125985409Y-120318085D01*
X126026890Y-120314000D01*
X126703110Y-120314000D01*
X126744591Y-120318085D01*
X126744591Y-120318085D01*
G37*
G36*
X124204591Y-120318085D02*
G01*
X124238569Y-120328393D01*
X124269890Y-120345134D01*
X124297339Y-120367661D01*
X124319866Y-120395110D01*
X124336607Y-120426431D01*
X124346915Y-120460409D01*
X124351000Y-120501890D01*
X124351000Y-121103110D01*
X124346915Y-121144591D01*
X124336607Y-121178569D01*
X124319866Y-121209890D01*
X124297339Y-121237339D01*
X124269890Y-121259866D01*
X124238569Y-121276607D01*
X124204591Y-121286915D01*
X124163110Y-121291000D01*
X123486890Y-121291000D01*
X123445409Y-121286915D01*
X123411431Y-121276607D01*
X123380110Y-121259866D01*
X123352661Y-121237339D01*
X123330134Y-121209890D01*
X123313393Y-121178569D01*
X123303085Y-121144591D01*
X123299000Y-121103110D01*
X123299000Y-120501890D01*
X123303085Y-120460409D01*
X123313393Y-120426431D01*
X123330134Y-120395110D01*
X123352661Y-120367661D01*
X123380110Y-120345134D01*
X123411431Y-120328393D01*
X123445409Y-120318085D01*
X123486890Y-120314000D01*
X124163110Y-120314000D01*
X124204591Y-120318085D01*
X124204591Y-120318085D01*
G37*
G36*
X130539928Y-119666764D02*
G01*
X130561009Y-119673160D01*
X130580445Y-119683548D01*
X130597476Y-119697524D01*
X130611452Y-119714555D01*
X130621840Y-119733991D01*
X130628236Y-119755072D01*
X130631000Y-119783140D01*
X130631000Y-120246860D01*
X130628236Y-120274928D01*
X130621840Y-120296009D01*
X130611452Y-120315445D01*
X130597476Y-120332476D01*
X130580445Y-120346452D01*
X130561009Y-120356840D01*
X130539928Y-120363236D01*
X130511860Y-120366000D01*
X128698140Y-120366000D01*
X128670072Y-120363236D01*
X128648991Y-120356840D01*
X128629555Y-120346452D01*
X128612524Y-120332476D01*
X128598548Y-120315445D01*
X128588160Y-120296009D01*
X128581764Y-120274928D01*
X128579000Y-120246860D01*
X128579000Y-119783140D01*
X128581764Y-119755072D01*
X128588160Y-119733991D01*
X128598548Y-119714555D01*
X128612524Y-119697524D01*
X128629555Y-119683548D01*
X128648991Y-119673160D01*
X128670072Y-119666764D01*
X128698140Y-119664000D01*
X130511860Y-119664000D01*
X130539928Y-119666764D01*
X130539928Y-119666764D01*
G37*
G36*
X135489928Y-119666764D02*
G01*
X135511009Y-119673160D01*
X135530445Y-119683548D01*
X135547476Y-119697524D01*
X135561452Y-119714555D01*
X135571840Y-119733991D01*
X135578236Y-119755072D01*
X135581000Y-119783140D01*
X135581000Y-120246860D01*
X135578236Y-120274928D01*
X135571840Y-120296009D01*
X135561452Y-120315445D01*
X135547476Y-120332476D01*
X135530445Y-120346452D01*
X135511009Y-120356840D01*
X135489928Y-120363236D01*
X135461860Y-120366000D01*
X133648140Y-120366000D01*
X133620072Y-120363236D01*
X133598991Y-120356840D01*
X133579555Y-120346452D01*
X133562524Y-120332476D01*
X133548548Y-120315445D01*
X133538160Y-120296009D01*
X133531764Y-120274928D01*
X133529000Y-120246860D01*
X133529000Y-119783140D01*
X133531764Y-119755072D01*
X133538160Y-119733991D01*
X133548548Y-119714555D01*
X133562524Y-119697524D01*
X133579555Y-119683548D01*
X133598991Y-119673160D01*
X133620072Y-119666764D01*
X133648140Y-119664000D01*
X135461860Y-119664000D01*
X135489928Y-119666764D01*
X135489928Y-119666764D01*
G37*
G36*
X138809591Y-119048085D02*
G01*
X138843569Y-119058393D01*
X138874890Y-119075134D01*
X138902339Y-119097661D01*
X138924866Y-119125110D01*
X138941607Y-119156431D01*
X138951915Y-119190409D01*
X138956000Y-119231890D01*
X138956000Y-119833110D01*
X138951915Y-119874591D01*
X138941607Y-119908569D01*
X138924866Y-119939890D01*
X138902339Y-119967339D01*
X138874890Y-119989866D01*
X138843569Y-120006607D01*
X138809591Y-120016915D01*
X138768110Y-120021000D01*
X138091890Y-120021000D01*
X138050409Y-120016915D01*
X138016431Y-120006607D01*
X137985110Y-119989866D01*
X137957661Y-119967339D01*
X137935134Y-119939890D01*
X137918393Y-119908569D01*
X137908085Y-119874591D01*
X137904000Y-119833110D01*
X137904000Y-119231890D01*
X137908085Y-119190409D01*
X137918393Y-119156431D01*
X137935134Y-119125110D01*
X137957661Y-119097661D01*
X137985110Y-119075134D01*
X138016431Y-119058393D01*
X138050409Y-119048085D01*
X138091890Y-119044000D01*
X138768110Y-119044000D01*
X138809591Y-119048085D01*
X138809591Y-119048085D01*
G37*
G36*
X143514592Y-119048085D02*
G01*
X143548570Y-119058393D01*
X143579891Y-119075134D01*
X143607340Y-119097661D01*
X143629867Y-119125110D01*
X143646608Y-119156431D01*
X143656916Y-119190409D01*
X143661001Y-119231890D01*
X143661001Y-119833110D01*
X143656916Y-119874591D01*
X143646608Y-119908569D01*
X143629867Y-119939890D01*
X143607340Y-119967339D01*
X143579891Y-119989866D01*
X143548570Y-120006607D01*
X143514592Y-120016915D01*
X143473111Y-120021000D01*
X142796891Y-120021000D01*
X142755410Y-120016915D01*
X142721432Y-120006607D01*
X142690111Y-119989866D01*
X142662662Y-119967339D01*
X142640135Y-119939890D01*
X142623394Y-119908569D01*
X142613086Y-119874591D01*
X142609001Y-119833110D01*
X142609001Y-119231890D01*
X142613086Y-119190409D01*
X142623394Y-119156431D01*
X142640135Y-119125110D01*
X142662662Y-119097661D01*
X142690111Y-119075134D01*
X142721432Y-119058393D01*
X142755410Y-119048085D01*
X142796891Y-119044000D01*
X143473111Y-119044000D01*
X143514592Y-119048085D01*
X143514592Y-119048085D01*
G37*
G36*
X141349591Y-119048085D02*
G01*
X141383569Y-119058393D01*
X141414890Y-119075134D01*
X141442339Y-119097661D01*
X141464866Y-119125110D01*
X141481607Y-119156431D01*
X141491915Y-119190409D01*
X141496000Y-119231890D01*
X141496000Y-119833110D01*
X141491915Y-119874591D01*
X141481607Y-119908569D01*
X141464866Y-119939890D01*
X141442339Y-119967339D01*
X141414890Y-119989866D01*
X141383569Y-120006607D01*
X141349591Y-120016915D01*
X141308110Y-120021000D01*
X140631890Y-120021000D01*
X140590409Y-120016915D01*
X140556431Y-120006607D01*
X140525110Y-119989866D01*
X140497661Y-119967339D01*
X140475134Y-119939890D01*
X140458393Y-119908569D01*
X140448085Y-119874591D01*
X140444000Y-119833110D01*
X140444000Y-119231890D01*
X140448085Y-119190409D01*
X140458393Y-119156431D01*
X140475134Y-119125110D01*
X140497661Y-119097661D01*
X140525110Y-119075134D01*
X140556431Y-119058393D01*
X140590409Y-119048085D01*
X140631890Y-119044000D01*
X141308110Y-119044000D01*
X141349591Y-119048085D01*
X141349591Y-119048085D01*
G37*
G36*
X124204591Y-118743085D02*
G01*
X124238569Y-118753393D01*
X124269890Y-118770134D01*
X124297339Y-118792661D01*
X124319866Y-118820110D01*
X124336607Y-118851431D01*
X124346915Y-118885409D01*
X124351000Y-118926890D01*
X124351000Y-119528110D01*
X124346915Y-119569591D01*
X124336607Y-119603569D01*
X124319866Y-119634890D01*
X124297339Y-119662339D01*
X124269890Y-119684866D01*
X124238569Y-119701607D01*
X124204591Y-119711915D01*
X124163110Y-119716000D01*
X123486890Y-119716000D01*
X123445409Y-119711915D01*
X123411431Y-119701607D01*
X123380110Y-119684866D01*
X123352661Y-119662339D01*
X123330134Y-119634890D01*
X123313393Y-119603569D01*
X123303085Y-119569591D01*
X123299000Y-119528110D01*
X123299000Y-118926890D01*
X123303085Y-118885409D01*
X123313393Y-118851431D01*
X123330134Y-118820110D01*
X123352661Y-118792661D01*
X123380110Y-118770134D01*
X123411431Y-118753393D01*
X123445409Y-118743085D01*
X123486890Y-118739000D01*
X124163110Y-118739000D01*
X124204591Y-118743085D01*
X124204591Y-118743085D01*
G37*
G36*
X126744591Y-118743085D02*
G01*
X126778569Y-118753393D01*
X126809890Y-118770134D01*
X126837339Y-118792661D01*
X126859866Y-118820110D01*
X126876607Y-118851431D01*
X126886915Y-118885409D01*
X126891000Y-118926890D01*
X126891000Y-119528110D01*
X126886915Y-119569591D01*
X126876607Y-119603569D01*
X126859866Y-119634890D01*
X126837339Y-119662339D01*
X126809890Y-119684866D01*
X126778569Y-119701607D01*
X126744591Y-119711915D01*
X126703110Y-119716000D01*
X126026890Y-119716000D01*
X125985409Y-119711915D01*
X125951431Y-119701607D01*
X125920110Y-119684866D01*
X125892661Y-119662339D01*
X125870134Y-119634890D01*
X125853393Y-119603569D01*
X125843085Y-119569591D01*
X125839000Y-119528110D01*
X125839000Y-118926890D01*
X125843085Y-118885409D01*
X125853393Y-118851431D01*
X125870134Y-118820110D01*
X125892661Y-118792661D01*
X125920110Y-118770134D01*
X125951431Y-118753393D01*
X125985409Y-118743085D01*
X126026890Y-118739000D01*
X126703110Y-118739000D01*
X126744591Y-118743085D01*
X126744591Y-118743085D01*
G37*
G36*
X121664591Y-118743085D02*
G01*
X121698569Y-118753393D01*
X121729890Y-118770134D01*
X121757339Y-118792661D01*
X121779866Y-118820110D01*
X121796607Y-118851431D01*
X121806915Y-118885409D01*
X121811000Y-118926890D01*
X121811000Y-119528110D01*
X121806915Y-119569591D01*
X121796607Y-119603569D01*
X121779866Y-119634890D01*
X121757339Y-119662339D01*
X121729890Y-119684866D01*
X121698569Y-119701607D01*
X121664591Y-119711915D01*
X121623110Y-119716000D01*
X120946890Y-119716000D01*
X120905409Y-119711915D01*
X120871431Y-119701607D01*
X120840110Y-119684866D01*
X120812661Y-119662339D01*
X120790134Y-119634890D01*
X120773393Y-119603569D01*
X120763085Y-119569591D01*
X120759000Y-119528110D01*
X120759000Y-118926890D01*
X120763085Y-118885409D01*
X120773393Y-118851431D01*
X120790134Y-118820110D01*
X120812661Y-118792661D01*
X120840110Y-118770134D01*
X120871431Y-118753393D01*
X120905409Y-118743085D01*
X120946890Y-118739000D01*
X121623110Y-118739000D01*
X121664591Y-118743085D01*
X121664591Y-118743085D01*
G37*
G36*
X155115271Y-117047783D02*
G01*
X155253858Y-117075350D01*
X155449677Y-117156461D01*
X155625910Y-117274216D01*
X155775784Y-117424090D01*
X155893539Y-117600323D01*
X155974650Y-117796142D01*
X156016000Y-118004023D01*
X156016000Y-118215977D01*
X155974650Y-118423858D01*
X155893539Y-118619677D01*
X155775784Y-118795910D01*
X155625910Y-118945784D01*
X155449677Y-119063539D01*
X155253858Y-119144650D01*
X155115271Y-119172217D01*
X155045978Y-119186000D01*
X154834022Y-119186000D01*
X154764729Y-119172217D01*
X154626142Y-119144650D01*
X154430323Y-119063539D01*
X154254090Y-118945784D01*
X154104216Y-118795910D01*
X153986461Y-118619677D01*
X153905350Y-118423858D01*
X153864000Y-118215977D01*
X153864000Y-118004023D01*
X153905350Y-117796142D01*
X153986461Y-117600323D01*
X154104216Y-117424090D01*
X154254090Y-117274216D01*
X154430323Y-117156461D01*
X154626142Y-117075350D01*
X154764729Y-117047783D01*
X154834022Y-117034000D01*
X155045978Y-117034000D01*
X155115271Y-117047783D01*
X155115271Y-117047783D01*
G37*
G36*
X135489928Y-118396764D02*
G01*
X135511009Y-118403160D01*
X135530445Y-118413548D01*
X135547476Y-118427524D01*
X135561452Y-118444555D01*
X135571840Y-118463991D01*
X135578236Y-118485072D01*
X135581000Y-118513140D01*
X135581000Y-118976860D01*
X135578236Y-119004928D01*
X135571840Y-119026009D01*
X135561452Y-119045445D01*
X135547476Y-119062476D01*
X135530445Y-119076452D01*
X135511009Y-119086840D01*
X135489928Y-119093236D01*
X135461860Y-119096000D01*
X133648140Y-119096000D01*
X133620072Y-119093236D01*
X133598991Y-119086840D01*
X133579555Y-119076452D01*
X133562524Y-119062476D01*
X133548548Y-119045445D01*
X133538160Y-119026009D01*
X133531764Y-119004928D01*
X133529000Y-118976860D01*
X133529000Y-118513140D01*
X133531764Y-118485072D01*
X133538160Y-118463991D01*
X133548548Y-118444555D01*
X133562524Y-118427524D01*
X133579555Y-118413548D01*
X133598991Y-118403160D01*
X133620072Y-118396764D01*
X133648140Y-118394000D01*
X135461860Y-118394000D01*
X135489928Y-118396764D01*
X135489928Y-118396764D01*
G37*
G36*
X130539928Y-118396764D02*
G01*
X130561009Y-118403160D01*
X130580445Y-118413548D01*
X130597476Y-118427524D01*
X130611452Y-118444555D01*
X130621840Y-118463991D01*
X130628236Y-118485072D01*
X130631000Y-118513140D01*
X130631000Y-118976860D01*
X130628236Y-119004928D01*
X130621840Y-119026009D01*
X130611452Y-119045445D01*
X130597476Y-119062476D01*
X130580445Y-119076452D01*
X130561009Y-119086840D01*
X130539928Y-119093236D01*
X130511860Y-119096000D01*
X128698140Y-119096000D01*
X128670072Y-119093236D01*
X128648991Y-119086840D01*
X128629555Y-119076452D01*
X128612524Y-119062476D01*
X128598548Y-119045445D01*
X128588160Y-119026009D01*
X128581764Y-119004928D01*
X128579000Y-118976860D01*
X128579000Y-118513140D01*
X128581764Y-118485072D01*
X128588160Y-118463991D01*
X128598548Y-118444555D01*
X128612524Y-118427524D01*
X128629555Y-118413548D01*
X128648991Y-118403160D01*
X128670072Y-118396764D01*
X128698140Y-118394000D01*
X130511860Y-118394000D01*
X130539928Y-118396764D01*
X130539928Y-118396764D01*
G37*
G36*
X138809591Y-117473085D02*
G01*
X138843569Y-117483393D01*
X138874890Y-117500134D01*
X138902339Y-117522661D01*
X138924866Y-117550110D01*
X138941607Y-117581431D01*
X138951915Y-117615409D01*
X138956000Y-117656890D01*
X138956000Y-118258110D01*
X138951915Y-118299591D01*
X138941607Y-118333569D01*
X138924866Y-118364890D01*
X138902339Y-118392339D01*
X138874890Y-118414866D01*
X138843569Y-118431607D01*
X138809591Y-118441915D01*
X138768110Y-118446000D01*
X138091890Y-118446000D01*
X138050409Y-118441915D01*
X138016431Y-118431607D01*
X137985110Y-118414866D01*
X137957661Y-118392339D01*
X137935134Y-118364890D01*
X137918393Y-118333569D01*
X137908085Y-118299591D01*
X137904000Y-118258110D01*
X137904000Y-117656890D01*
X137908085Y-117615409D01*
X137918393Y-117581431D01*
X137935134Y-117550110D01*
X137957661Y-117522661D01*
X137985110Y-117500134D01*
X138016431Y-117483393D01*
X138050409Y-117473085D01*
X138091890Y-117469000D01*
X138768110Y-117469000D01*
X138809591Y-117473085D01*
X138809591Y-117473085D01*
G37*
G36*
X143514592Y-117473085D02*
G01*
X143548570Y-117483393D01*
X143579891Y-117500134D01*
X143607340Y-117522661D01*
X143629867Y-117550110D01*
X143646608Y-117581431D01*
X143656916Y-117615409D01*
X143661001Y-117656890D01*
X143661001Y-118258110D01*
X143656916Y-118299591D01*
X143646608Y-118333569D01*
X143629867Y-118364890D01*
X143607340Y-118392339D01*
X143579891Y-118414866D01*
X143548570Y-118431607D01*
X143514592Y-118441915D01*
X143473111Y-118446000D01*
X142796891Y-118446000D01*
X142755410Y-118441915D01*
X142721432Y-118431607D01*
X142690111Y-118414866D01*
X142662662Y-118392339D01*
X142640135Y-118364890D01*
X142623394Y-118333569D01*
X142613086Y-118299591D01*
X142609001Y-118258110D01*
X142609001Y-117656890D01*
X142613086Y-117615409D01*
X142623394Y-117581431D01*
X142640135Y-117550110D01*
X142662662Y-117522661D01*
X142690111Y-117500134D01*
X142721432Y-117483393D01*
X142755410Y-117473085D01*
X142796891Y-117469000D01*
X143473111Y-117469000D01*
X143514592Y-117473085D01*
X143514592Y-117473085D01*
G37*
G36*
X141349591Y-117473085D02*
G01*
X141383569Y-117483393D01*
X141414890Y-117500134D01*
X141442339Y-117522661D01*
X141464866Y-117550110D01*
X141481607Y-117581431D01*
X141491915Y-117615409D01*
X141496000Y-117656890D01*
X141496000Y-118258110D01*
X141491915Y-118299591D01*
X141481607Y-118333569D01*
X141464866Y-118364890D01*
X141442339Y-118392339D01*
X141414890Y-118414866D01*
X141383569Y-118431607D01*
X141349591Y-118441915D01*
X141308110Y-118446000D01*
X140631890Y-118446000D01*
X140590409Y-118441915D01*
X140556431Y-118431607D01*
X140525110Y-118414866D01*
X140497661Y-118392339D01*
X140475134Y-118364890D01*
X140458393Y-118333569D01*
X140448085Y-118299591D01*
X140444000Y-118258110D01*
X140444000Y-117656890D01*
X140448085Y-117615409D01*
X140458393Y-117581431D01*
X140475134Y-117550110D01*
X140497661Y-117522661D01*
X140525110Y-117500134D01*
X140556431Y-117483393D01*
X140590409Y-117473085D01*
X140631890Y-117469000D01*
X141308110Y-117469000D01*
X141349591Y-117473085D01*
X141349591Y-117473085D01*
G37*
G36*
X135489928Y-117126764D02*
G01*
X135511009Y-117133160D01*
X135530445Y-117143548D01*
X135547476Y-117157524D01*
X135561452Y-117174555D01*
X135571840Y-117193991D01*
X135578236Y-117215072D01*
X135581000Y-117243140D01*
X135581000Y-117706860D01*
X135578236Y-117734928D01*
X135571840Y-117756009D01*
X135561452Y-117775445D01*
X135547476Y-117792476D01*
X135530445Y-117806452D01*
X135511009Y-117816840D01*
X135489928Y-117823236D01*
X135461860Y-117826000D01*
X133648140Y-117826000D01*
X133620072Y-117823236D01*
X133598991Y-117816840D01*
X133579555Y-117806452D01*
X133562524Y-117792476D01*
X133548548Y-117775445D01*
X133538160Y-117756009D01*
X133531764Y-117734928D01*
X133529000Y-117706860D01*
X133529000Y-117243140D01*
X133531764Y-117215072D01*
X133538160Y-117193991D01*
X133548548Y-117174555D01*
X133562524Y-117157524D01*
X133579555Y-117143548D01*
X133598991Y-117133160D01*
X133620072Y-117126764D01*
X133648140Y-117124000D01*
X135461860Y-117124000D01*
X135489928Y-117126764D01*
X135489928Y-117126764D01*
G37*
G36*
X130539928Y-117126764D02*
G01*
X130561009Y-117133160D01*
X130580445Y-117143548D01*
X130597476Y-117157524D01*
X130611452Y-117174555D01*
X130621840Y-117193991D01*
X130628236Y-117215072D01*
X130631000Y-117243140D01*
X130631000Y-117706860D01*
X130628236Y-117734928D01*
X130621840Y-117756009D01*
X130611452Y-117775445D01*
X130597476Y-117792476D01*
X130580445Y-117806452D01*
X130561009Y-117816840D01*
X130539928Y-117823236D01*
X130511860Y-117826000D01*
X128698140Y-117826000D01*
X128670072Y-117823236D01*
X128648991Y-117816840D01*
X128629555Y-117806452D01*
X128612524Y-117792476D01*
X128598548Y-117775445D01*
X128588160Y-117756009D01*
X128581764Y-117734928D01*
X128579000Y-117706860D01*
X128579000Y-117243140D01*
X128581764Y-117215072D01*
X128588160Y-117193991D01*
X128598548Y-117174555D01*
X128612524Y-117157524D01*
X128629555Y-117143548D01*
X128648991Y-117133160D01*
X128670072Y-117126764D01*
X128698140Y-117124000D01*
X130511860Y-117124000D01*
X130539928Y-117126764D01*
X130539928Y-117126764D01*
G37*
G36*
X120394591Y-116508085D02*
G01*
X120428569Y-116518393D01*
X120459890Y-116535134D01*
X120487339Y-116557661D01*
X120509866Y-116585110D01*
X120526607Y-116616431D01*
X120536915Y-116650409D01*
X120541000Y-116691890D01*
X120541000Y-117293110D01*
X120536915Y-117334591D01*
X120526607Y-117368569D01*
X120509866Y-117399890D01*
X120487339Y-117427339D01*
X120459890Y-117449866D01*
X120428569Y-117466607D01*
X120394591Y-117476915D01*
X120353110Y-117481000D01*
X119676890Y-117481000D01*
X119635409Y-117476915D01*
X119601431Y-117466607D01*
X119570110Y-117449866D01*
X119542661Y-117427339D01*
X119520134Y-117399890D01*
X119503393Y-117368569D01*
X119493085Y-117334591D01*
X119489000Y-117293110D01*
X119489000Y-116691890D01*
X119493085Y-116650409D01*
X119503393Y-116616431D01*
X119520134Y-116585110D01*
X119542661Y-116557661D01*
X119570110Y-116535134D01*
X119601431Y-116518393D01*
X119635409Y-116508085D01*
X119676890Y-116504000D01*
X120353110Y-116504000D01*
X120394591Y-116508085D01*
X120394591Y-116508085D01*
G37*
G36*
X124204591Y-116508085D02*
G01*
X124238569Y-116518393D01*
X124269890Y-116535134D01*
X124297339Y-116557661D01*
X124319866Y-116585110D01*
X124336607Y-116616431D01*
X124346915Y-116650409D01*
X124351000Y-116691890D01*
X124351000Y-117293110D01*
X124346915Y-117334591D01*
X124336607Y-117368569D01*
X124319866Y-117399890D01*
X124297339Y-117427339D01*
X124269890Y-117449866D01*
X124238569Y-117466607D01*
X124204591Y-117476915D01*
X124163110Y-117481000D01*
X123486890Y-117481000D01*
X123445409Y-117476915D01*
X123411431Y-117466607D01*
X123380110Y-117449866D01*
X123352661Y-117427339D01*
X123330134Y-117399890D01*
X123313393Y-117368569D01*
X123303085Y-117334591D01*
X123299000Y-117293110D01*
X123299000Y-116691890D01*
X123303085Y-116650409D01*
X123313393Y-116616431D01*
X123330134Y-116585110D01*
X123352661Y-116557661D01*
X123380110Y-116535134D01*
X123411431Y-116518393D01*
X123445409Y-116508085D01*
X123486890Y-116504000D01*
X124163110Y-116504000D01*
X124204591Y-116508085D01*
X124204591Y-116508085D01*
G37*
G36*
X118489591Y-116508085D02*
G01*
X118523569Y-116518393D01*
X118554890Y-116535134D01*
X118582339Y-116557661D01*
X118604866Y-116585110D01*
X118621607Y-116616431D01*
X118631915Y-116650409D01*
X118636000Y-116691890D01*
X118636000Y-117293110D01*
X118631915Y-117334591D01*
X118621607Y-117368569D01*
X118604866Y-117399890D01*
X118582339Y-117427339D01*
X118554890Y-117449866D01*
X118523569Y-117466607D01*
X118489591Y-117476915D01*
X118448110Y-117481000D01*
X117771890Y-117481000D01*
X117730409Y-117476915D01*
X117696431Y-117466607D01*
X117665110Y-117449866D01*
X117637661Y-117427339D01*
X117615134Y-117399890D01*
X117598393Y-117368569D01*
X117588085Y-117334591D01*
X117584000Y-117293110D01*
X117584000Y-116691890D01*
X117588085Y-116650409D01*
X117598393Y-116616431D01*
X117615134Y-116585110D01*
X117637661Y-116557661D01*
X117665110Y-116535134D01*
X117696431Y-116518393D01*
X117730409Y-116508085D01*
X117771890Y-116504000D01*
X118448110Y-116504000D01*
X118489591Y-116508085D01*
X118489591Y-116508085D01*
G37*
G36*
X126109591Y-116508085D02*
G01*
X126143569Y-116518393D01*
X126174890Y-116535134D01*
X126202339Y-116557661D01*
X126224866Y-116585110D01*
X126241607Y-116616431D01*
X126251915Y-116650409D01*
X126256000Y-116691890D01*
X126256000Y-117293110D01*
X126251915Y-117334591D01*
X126241607Y-117368569D01*
X126224866Y-117399890D01*
X126202339Y-117427339D01*
X126174890Y-117449866D01*
X126143569Y-117466607D01*
X126109591Y-117476915D01*
X126068110Y-117481000D01*
X125391890Y-117481000D01*
X125350409Y-117476915D01*
X125316431Y-117466607D01*
X125285110Y-117449866D01*
X125257661Y-117427339D01*
X125235134Y-117399890D01*
X125218393Y-117368569D01*
X125208085Y-117334591D01*
X125204000Y-117293110D01*
X125204000Y-116691890D01*
X125208085Y-116650409D01*
X125218393Y-116616431D01*
X125235134Y-116585110D01*
X125257661Y-116557661D01*
X125285110Y-116535134D01*
X125316431Y-116518393D01*
X125350409Y-116508085D01*
X125391890Y-116504000D01*
X126068110Y-116504000D01*
X126109591Y-116508085D01*
X126109591Y-116508085D01*
G37*
G36*
X122299591Y-116508085D02*
G01*
X122333569Y-116518393D01*
X122364890Y-116535134D01*
X122392339Y-116557661D01*
X122414866Y-116585110D01*
X122431607Y-116616431D01*
X122441915Y-116650409D01*
X122446000Y-116691890D01*
X122446000Y-117293110D01*
X122441915Y-117334591D01*
X122431607Y-117368569D01*
X122414866Y-117399890D01*
X122392339Y-117427339D01*
X122364890Y-117449866D01*
X122333569Y-117466607D01*
X122299591Y-117476915D01*
X122258110Y-117481000D01*
X121581890Y-117481000D01*
X121540409Y-117476915D01*
X121506431Y-117466607D01*
X121475110Y-117449866D01*
X121447661Y-117427339D01*
X121425134Y-117399890D01*
X121408393Y-117368569D01*
X121398085Y-117334591D01*
X121394000Y-117293110D01*
X121394000Y-116691890D01*
X121398085Y-116650409D01*
X121408393Y-116616431D01*
X121425134Y-116585110D01*
X121447661Y-116557661D01*
X121475110Y-116535134D01*
X121506431Y-116518393D01*
X121540409Y-116508085D01*
X121581890Y-116504000D01*
X122258110Y-116504000D01*
X122299591Y-116508085D01*
X122299591Y-116508085D01*
G37*
G36*
X152591236Y-114409000D02*
G01*
X152743027Y-114439193D01*
X152957045Y-114527842D01*
X152957046Y-114527843D01*
X153149654Y-114656539D01*
X153313461Y-114820346D01*
X153337982Y-114857045D01*
X153442158Y-115012955D01*
X153530807Y-115226973D01*
X153576000Y-115454174D01*
X153576000Y-115685826D01*
X153530807Y-115913027D01*
X153442158Y-116127045D01*
X153442157Y-116127046D01*
X153313461Y-116319654D01*
X153149654Y-116483461D01*
X153054800Y-116546840D01*
X152957045Y-116612158D01*
X152743027Y-116700807D01*
X152591560Y-116730936D01*
X152515827Y-116746000D01*
X152284173Y-116746000D01*
X152208440Y-116730936D01*
X152056973Y-116700807D01*
X151842955Y-116612158D01*
X151745200Y-116546840D01*
X151650346Y-116483461D01*
X151486539Y-116319654D01*
X151357843Y-116127046D01*
X151357842Y-116127045D01*
X151269193Y-115913027D01*
X151224000Y-115685826D01*
X151224000Y-115454174D01*
X151269193Y-115226973D01*
X151357842Y-115012955D01*
X151462018Y-114857045D01*
X151486539Y-114820346D01*
X151650346Y-114656539D01*
X151842954Y-114527843D01*
X151842955Y-114527842D01*
X152056973Y-114439193D01*
X152208764Y-114409000D01*
X152284173Y-114394000D01*
X152515827Y-114394000D01*
X152591236Y-114409000D01*
X152591236Y-114409000D01*
G37*
G36*
X157671236Y-114409000D02*
G01*
X157823027Y-114439193D01*
X158037045Y-114527842D01*
X158037046Y-114527843D01*
X158229654Y-114656539D01*
X158393461Y-114820346D01*
X158417982Y-114857045D01*
X158522158Y-115012955D01*
X158610807Y-115226973D01*
X158656000Y-115454174D01*
X158656000Y-115685826D01*
X158610807Y-115913027D01*
X158522158Y-116127045D01*
X158522157Y-116127046D01*
X158393461Y-116319654D01*
X158229654Y-116483461D01*
X158134800Y-116546840D01*
X158037045Y-116612158D01*
X157823027Y-116700807D01*
X157671560Y-116730936D01*
X157595827Y-116746000D01*
X157364173Y-116746000D01*
X157288440Y-116730936D01*
X157136973Y-116700807D01*
X156922955Y-116612158D01*
X156825200Y-116546840D01*
X156730346Y-116483461D01*
X156566539Y-116319654D01*
X156437843Y-116127046D01*
X156437842Y-116127045D01*
X156349193Y-115913027D01*
X156304000Y-115685826D01*
X156304000Y-115454174D01*
X156349193Y-115226973D01*
X156437842Y-115012955D01*
X156542018Y-114857045D01*
X156566539Y-114820346D01*
X156730346Y-114656539D01*
X156922954Y-114527843D01*
X156922955Y-114527842D01*
X157136973Y-114439193D01*
X157288764Y-114409000D01*
X157364173Y-114394000D01*
X157595827Y-114394000D01*
X157671236Y-114409000D01*
X157671236Y-114409000D01*
G37*
G36*
X135489928Y-115856764D02*
G01*
X135511009Y-115863160D01*
X135530445Y-115873548D01*
X135547476Y-115887524D01*
X135561452Y-115904555D01*
X135571840Y-115923991D01*
X135578236Y-115945072D01*
X135581000Y-115973140D01*
X135581000Y-116436860D01*
X135578236Y-116464928D01*
X135571840Y-116486009D01*
X135561452Y-116505445D01*
X135547476Y-116522476D01*
X135530445Y-116536452D01*
X135511009Y-116546840D01*
X135489928Y-116553236D01*
X135461860Y-116556000D01*
X133648140Y-116556000D01*
X133620072Y-116553236D01*
X133598991Y-116546840D01*
X133579555Y-116536452D01*
X133562524Y-116522476D01*
X133548548Y-116505445D01*
X133538160Y-116486009D01*
X133531764Y-116464928D01*
X133529000Y-116436860D01*
X133529000Y-115973140D01*
X133531764Y-115945072D01*
X133538160Y-115923991D01*
X133548548Y-115904555D01*
X133562524Y-115887524D01*
X133579555Y-115873548D01*
X133598991Y-115863160D01*
X133620072Y-115856764D01*
X133648140Y-115854000D01*
X135461860Y-115854000D01*
X135489928Y-115856764D01*
X135489928Y-115856764D01*
G37*
G36*
X130539928Y-115856764D02*
G01*
X130561009Y-115863160D01*
X130580445Y-115873548D01*
X130597476Y-115887524D01*
X130611452Y-115904555D01*
X130621840Y-115923991D01*
X130628236Y-115945072D01*
X130631000Y-115973140D01*
X130631000Y-116436860D01*
X130628236Y-116464928D01*
X130621840Y-116486009D01*
X130611452Y-116505445D01*
X130597476Y-116522476D01*
X130580445Y-116536452D01*
X130561009Y-116546840D01*
X130539928Y-116553236D01*
X130511860Y-116556000D01*
X128698140Y-116556000D01*
X128670072Y-116553236D01*
X128648991Y-116546840D01*
X128629555Y-116536452D01*
X128612524Y-116522476D01*
X128598548Y-116505445D01*
X128588160Y-116486009D01*
X128581764Y-116464928D01*
X128579000Y-116436860D01*
X128579000Y-115973140D01*
X128581764Y-115945072D01*
X128588160Y-115923991D01*
X128598548Y-115904555D01*
X128612524Y-115887524D01*
X128629555Y-115873548D01*
X128648991Y-115863160D01*
X128670072Y-115856764D01*
X128698140Y-115854000D01*
X130511860Y-115854000D01*
X130539928Y-115856764D01*
X130539928Y-115856764D01*
G37*
G36*
X126109591Y-114933085D02*
G01*
X126143569Y-114943393D01*
X126174890Y-114960134D01*
X126202339Y-114982661D01*
X126224866Y-115010110D01*
X126241607Y-115041431D01*
X126251915Y-115075409D01*
X126256000Y-115116890D01*
X126256000Y-115718110D01*
X126251915Y-115759591D01*
X126241607Y-115793569D01*
X126224866Y-115824890D01*
X126202339Y-115852339D01*
X126174890Y-115874866D01*
X126143569Y-115891607D01*
X126109591Y-115901915D01*
X126068110Y-115906000D01*
X125391890Y-115906000D01*
X125350409Y-115901915D01*
X125316431Y-115891607D01*
X125285110Y-115874866D01*
X125257661Y-115852339D01*
X125235134Y-115824890D01*
X125218393Y-115793569D01*
X125208085Y-115759591D01*
X125204000Y-115718110D01*
X125204000Y-115116890D01*
X125208085Y-115075409D01*
X125218393Y-115041431D01*
X125235134Y-115010110D01*
X125257661Y-114982661D01*
X125285110Y-114960134D01*
X125316431Y-114943393D01*
X125350409Y-114933085D01*
X125391890Y-114929000D01*
X126068110Y-114929000D01*
X126109591Y-114933085D01*
X126109591Y-114933085D01*
G37*
G36*
X122299591Y-114933085D02*
G01*
X122333569Y-114943393D01*
X122364890Y-114960134D01*
X122392339Y-114982661D01*
X122414866Y-115010110D01*
X122431607Y-115041431D01*
X122441915Y-115075409D01*
X122446000Y-115116890D01*
X122446000Y-115718110D01*
X122441915Y-115759591D01*
X122431607Y-115793569D01*
X122414866Y-115824890D01*
X122392339Y-115852339D01*
X122364890Y-115874866D01*
X122333569Y-115891607D01*
X122299591Y-115901915D01*
X122258110Y-115906000D01*
X121581890Y-115906000D01*
X121540409Y-115901915D01*
X121506431Y-115891607D01*
X121475110Y-115874866D01*
X121447661Y-115852339D01*
X121425134Y-115824890D01*
X121408393Y-115793569D01*
X121398085Y-115759591D01*
X121394000Y-115718110D01*
X121394000Y-115116890D01*
X121398085Y-115075409D01*
X121408393Y-115041431D01*
X121425134Y-115010110D01*
X121447661Y-114982661D01*
X121475110Y-114960134D01*
X121506431Y-114943393D01*
X121540409Y-114933085D01*
X121581890Y-114929000D01*
X122258110Y-114929000D01*
X122299591Y-114933085D01*
X122299591Y-114933085D01*
G37*
G36*
X120394591Y-114933085D02*
G01*
X120428569Y-114943393D01*
X120459890Y-114960134D01*
X120487339Y-114982661D01*
X120509866Y-115010110D01*
X120526607Y-115041431D01*
X120536915Y-115075409D01*
X120541000Y-115116890D01*
X120541000Y-115718110D01*
X120536915Y-115759591D01*
X120526607Y-115793569D01*
X120509866Y-115824890D01*
X120487339Y-115852339D01*
X120459890Y-115874866D01*
X120428569Y-115891607D01*
X120394591Y-115901915D01*
X120353110Y-115906000D01*
X119676890Y-115906000D01*
X119635409Y-115901915D01*
X119601431Y-115891607D01*
X119570110Y-115874866D01*
X119542661Y-115852339D01*
X119520134Y-115824890D01*
X119503393Y-115793569D01*
X119493085Y-115759591D01*
X119489000Y-115718110D01*
X119489000Y-115116890D01*
X119493085Y-115075409D01*
X119503393Y-115041431D01*
X119520134Y-115010110D01*
X119542661Y-114982661D01*
X119570110Y-114960134D01*
X119601431Y-114943393D01*
X119635409Y-114933085D01*
X119676890Y-114929000D01*
X120353110Y-114929000D01*
X120394591Y-114933085D01*
X120394591Y-114933085D01*
G37*
G36*
X118489591Y-114933085D02*
G01*
X118523569Y-114943393D01*
X118554890Y-114960134D01*
X118582339Y-114982661D01*
X118604866Y-115010110D01*
X118621607Y-115041431D01*
X118631915Y-115075409D01*
X118636000Y-115116890D01*
X118636000Y-115718110D01*
X118631915Y-115759591D01*
X118621607Y-115793569D01*
X118604866Y-115824890D01*
X118582339Y-115852339D01*
X118554890Y-115874866D01*
X118523569Y-115891607D01*
X118489591Y-115901915D01*
X118448110Y-115906000D01*
X117771890Y-115906000D01*
X117730409Y-115901915D01*
X117696431Y-115891607D01*
X117665110Y-115874866D01*
X117637661Y-115852339D01*
X117615134Y-115824890D01*
X117598393Y-115793569D01*
X117588085Y-115759591D01*
X117584000Y-115718110D01*
X117584000Y-115116890D01*
X117588085Y-115075409D01*
X117598393Y-115041431D01*
X117615134Y-115010110D01*
X117637661Y-114982661D01*
X117665110Y-114960134D01*
X117696431Y-114943393D01*
X117730409Y-114933085D01*
X117771890Y-114929000D01*
X118448110Y-114929000D01*
X118489591Y-114933085D01*
X118489591Y-114933085D01*
G37*
G36*
X124204591Y-114933085D02*
G01*
X124238569Y-114943393D01*
X124269890Y-114960134D01*
X124297339Y-114982661D01*
X124319866Y-115010110D01*
X124336607Y-115041431D01*
X124346915Y-115075409D01*
X124351000Y-115116890D01*
X124351000Y-115718110D01*
X124346915Y-115759591D01*
X124336607Y-115793569D01*
X124319866Y-115824890D01*
X124297339Y-115852339D01*
X124269890Y-115874866D01*
X124238569Y-115891607D01*
X124204591Y-115901915D01*
X124163110Y-115906000D01*
X123486890Y-115906000D01*
X123445409Y-115901915D01*
X123411431Y-115891607D01*
X123380110Y-115874866D01*
X123352661Y-115852339D01*
X123330134Y-115824890D01*
X123313393Y-115793569D01*
X123303085Y-115759591D01*
X123299000Y-115718110D01*
X123299000Y-115116890D01*
X123303085Y-115075409D01*
X123313393Y-115041431D01*
X123330134Y-115010110D01*
X123352661Y-114982661D01*
X123380110Y-114960134D01*
X123411431Y-114943393D01*
X123445409Y-114933085D01*
X123486890Y-114929000D01*
X124163110Y-114929000D01*
X124204591Y-114933085D01*
X124204591Y-114933085D01*
G37*
G36*
X138809591Y-114603085D02*
G01*
X138843569Y-114613393D01*
X138874890Y-114630134D01*
X138902339Y-114652661D01*
X138924866Y-114680110D01*
X138941607Y-114711431D01*
X138951915Y-114745409D01*
X138956000Y-114786890D01*
X138956000Y-115388110D01*
X138951915Y-115429591D01*
X138941607Y-115463569D01*
X138924866Y-115494890D01*
X138902339Y-115522339D01*
X138874890Y-115544866D01*
X138843569Y-115561607D01*
X138809591Y-115571915D01*
X138768110Y-115576000D01*
X138091890Y-115576000D01*
X138050409Y-115571915D01*
X138016431Y-115561607D01*
X137985110Y-115544866D01*
X137957661Y-115522339D01*
X137935134Y-115494890D01*
X137918393Y-115463569D01*
X137908085Y-115429591D01*
X137904000Y-115388110D01*
X137904000Y-114786890D01*
X137908085Y-114745409D01*
X137918393Y-114711431D01*
X137935134Y-114680110D01*
X137957661Y-114652661D01*
X137985110Y-114630134D01*
X138016431Y-114613393D01*
X138050409Y-114603085D01*
X138091890Y-114599000D01*
X138768110Y-114599000D01*
X138809591Y-114603085D01*
X138809591Y-114603085D01*
G37*
G36*
X111918820Y-113132552D02*
G01*
X112103027Y-113169193D01*
X112317045Y-113257842D01*
X112381249Y-113300742D01*
X112509654Y-113386539D01*
X112673461Y-113550346D01*
X112759258Y-113678751D01*
X112802158Y-113742955D01*
X112890807Y-113956973D01*
X112936000Y-114184174D01*
X112936000Y-114415826D01*
X112890807Y-114643027D01*
X112802158Y-114857045D01*
X112802157Y-114857046D01*
X112673461Y-115049654D01*
X112509654Y-115213461D01*
X112381249Y-115299258D01*
X112317045Y-115342158D01*
X112103027Y-115430807D01*
X111971773Y-115456915D01*
X111875827Y-115476000D01*
X111644173Y-115476000D01*
X111548227Y-115456915D01*
X111416973Y-115430807D01*
X111202955Y-115342158D01*
X111138751Y-115299258D01*
X111010346Y-115213461D01*
X110846539Y-115049654D01*
X110717843Y-114857046D01*
X110717842Y-114857045D01*
X110629193Y-114643027D01*
X110584000Y-114415826D01*
X110584000Y-114184174D01*
X110629193Y-113956973D01*
X110717842Y-113742955D01*
X110760742Y-113678751D01*
X110846539Y-113550346D01*
X111010346Y-113386539D01*
X111138751Y-113300742D01*
X111202955Y-113257842D01*
X111416973Y-113169193D01*
X111601180Y-113132552D01*
X111644173Y-113124000D01*
X111875827Y-113124000D01*
X111918820Y-113132552D01*
X111918820Y-113132552D01*
G37*
G36*
X106838820Y-113132552D02*
G01*
X107023027Y-113169193D01*
X107237045Y-113257842D01*
X107301249Y-113300742D01*
X107429654Y-113386539D01*
X107593461Y-113550346D01*
X107679258Y-113678751D01*
X107722158Y-113742955D01*
X107810807Y-113956973D01*
X107856000Y-114184174D01*
X107856000Y-114415826D01*
X107810807Y-114643027D01*
X107722158Y-114857045D01*
X107722157Y-114857046D01*
X107593461Y-115049654D01*
X107429654Y-115213461D01*
X107301249Y-115299258D01*
X107237045Y-115342158D01*
X107023027Y-115430807D01*
X106891773Y-115456915D01*
X106795827Y-115476000D01*
X106564173Y-115476000D01*
X106468227Y-115456915D01*
X106336973Y-115430807D01*
X106122955Y-115342158D01*
X106058751Y-115299258D01*
X105930346Y-115213461D01*
X105766539Y-115049654D01*
X105637843Y-114857046D01*
X105637842Y-114857045D01*
X105549193Y-114643027D01*
X105504000Y-114415826D01*
X105504000Y-114184174D01*
X105549193Y-113956973D01*
X105637842Y-113742955D01*
X105680742Y-113678751D01*
X105766539Y-113550346D01*
X105930346Y-113386539D01*
X106058751Y-113300742D01*
X106122955Y-113257842D01*
X106336973Y-113169193D01*
X106521180Y-113132552D01*
X106564173Y-113124000D01*
X106795827Y-113124000D01*
X106838820Y-113132552D01*
X106838820Y-113132552D01*
G37*
G36*
X141794591Y-114413085D02*
G01*
X141828569Y-114423393D01*
X141859890Y-114440134D01*
X141887339Y-114462661D01*
X141909866Y-114490110D01*
X141926607Y-114521431D01*
X141936915Y-114555409D01*
X141941000Y-114596890D01*
X141941000Y-115273110D01*
X141936915Y-115314591D01*
X141926607Y-115348569D01*
X141909866Y-115379890D01*
X141887339Y-115407339D01*
X141859890Y-115429866D01*
X141828569Y-115446607D01*
X141794591Y-115456915D01*
X141753110Y-115461000D01*
X141151890Y-115461000D01*
X141110409Y-115456915D01*
X141076431Y-115446607D01*
X141045110Y-115429866D01*
X141017661Y-115407339D01*
X140995134Y-115379890D01*
X140978393Y-115348569D01*
X140968085Y-115314591D01*
X140964000Y-115273110D01*
X140964000Y-114596890D01*
X140968085Y-114555409D01*
X140978393Y-114521431D01*
X140995134Y-114490110D01*
X141017661Y-114462661D01*
X141045110Y-114440134D01*
X141076431Y-114423393D01*
X141110409Y-114413085D01*
X141151890Y-114409000D01*
X141753110Y-114409000D01*
X141794591Y-114413085D01*
X141794591Y-114413085D01*
G37*
G36*
X143369591Y-114413085D02*
G01*
X143403569Y-114423393D01*
X143434890Y-114440134D01*
X143462339Y-114462661D01*
X143484866Y-114490110D01*
X143501607Y-114521431D01*
X143511915Y-114555409D01*
X143516000Y-114596890D01*
X143516000Y-115273110D01*
X143511915Y-115314591D01*
X143501607Y-115348569D01*
X143484866Y-115379890D01*
X143462339Y-115407339D01*
X143434890Y-115429866D01*
X143403569Y-115446607D01*
X143369591Y-115456915D01*
X143328110Y-115461000D01*
X142726890Y-115461000D01*
X142685409Y-115456915D01*
X142651431Y-115446607D01*
X142620110Y-115429866D01*
X142592661Y-115407339D01*
X142570134Y-115379890D01*
X142553393Y-115348569D01*
X142543085Y-115314591D01*
X142539000Y-115273110D01*
X142539000Y-114596890D01*
X142543085Y-114555409D01*
X142553393Y-114521431D01*
X142570134Y-114490110D01*
X142592661Y-114462661D01*
X142620110Y-114440134D01*
X142651431Y-114423393D01*
X142685409Y-114413085D01*
X142726890Y-114409000D01*
X143328110Y-114409000D01*
X143369591Y-114413085D01*
X143369591Y-114413085D01*
G37*
G36*
X138809591Y-113028085D02*
G01*
X138843569Y-113038393D01*
X138874890Y-113055134D01*
X138902339Y-113077661D01*
X138924866Y-113105110D01*
X138941607Y-113136431D01*
X138951915Y-113170409D01*
X138956000Y-113211890D01*
X138956000Y-113813110D01*
X138951915Y-113854591D01*
X138941607Y-113888569D01*
X138924866Y-113919890D01*
X138902339Y-113947339D01*
X138874890Y-113969866D01*
X138843569Y-113986607D01*
X138809591Y-113996915D01*
X138768110Y-114001000D01*
X138091890Y-114001000D01*
X138050409Y-113996915D01*
X138016431Y-113986607D01*
X137985110Y-113969866D01*
X137957661Y-113947339D01*
X137935134Y-113919890D01*
X137918393Y-113888569D01*
X137908085Y-113854591D01*
X137904000Y-113813110D01*
X137904000Y-113211890D01*
X137908085Y-113170409D01*
X137918393Y-113136431D01*
X137935134Y-113105110D01*
X137957661Y-113077661D01*
X137985110Y-113055134D01*
X138016431Y-113038393D01*
X138050409Y-113028085D01*
X138091890Y-113024000D01*
X138768110Y-113024000D01*
X138809591Y-113028085D01*
X138809591Y-113028085D01*
G37*
G36*
X109395271Y-110697783D02*
G01*
X109533858Y-110725350D01*
X109729677Y-110806461D01*
X109905910Y-110924216D01*
X110055784Y-111074090D01*
X110173539Y-111250323D01*
X110254650Y-111446142D01*
X110296000Y-111654023D01*
X110296000Y-111865977D01*
X110254650Y-112073858D01*
X110173539Y-112269677D01*
X110055784Y-112445910D01*
X109905910Y-112595784D01*
X109729677Y-112713539D01*
X109533858Y-112794650D01*
X109395271Y-112822217D01*
X109325978Y-112836000D01*
X109114022Y-112836000D01*
X109044729Y-112822217D01*
X108906142Y-112794650D01*
X108710323Y-112713539D01*
X108534090Y-112595784D01*
X108384216Y-112445910D01*
X108266461Y-112269677D01*
X108185350Y-112073858D01*
X108144000Y-111865977D01*
X108144000Y-111654023D01*
X108185350Y-111446142D01*
X108266461Y-111250323D01*
X108384216Y-111074090D01*
X108534090Y-110924216D01*
X108710323Y-110806461D01*
X108906142Y-110725350D01*
X109044729Y-110697783D01*
X109114022Y-110684000D01*
X109325978Y-110684000D01*
X109395271Y-110697783D01*
X109395271Y-110697783D01*
G37*
G36*
X111951560Y-108059064D02*
G01*
X112103027Y-108089193D01*
X112317045Y-108177842D01*
X112317046Y-108177843D01*
X112509654Y-108306539D01*
X112673461Y-108470346D01*
X112720508Y-108540757D01*
X112802158Y-108662955D01*
X112890807Y-108876973D01*
X112936000Y-109104174D01*
X112936000Y-109335826D01*
X112890807Y-109563027D01*
X112802158Y-109777045D01*
X112802157Y-109777046D01*
X112673461Y-109969654D01*
X112509654Y-110133461D01*
X112381249Y-110219258D01*
X112317045Y-110262158D01*
X112103027Y-110350807D01*
X111951560Y-110380936D01*
X111875827Y-110396000D01*
X111644173Y-110396000D01*
X111568440Y-110380936D01*
X111416973Y-110350807D01*
X111202955Y-110262158D01*
X111138751Y-110219258D01*
X111010346Y-110133461D01*
X110846539Y-109969654D01*
X110717843Y-109777046D01*
X110717842Y-109777045D01*
X110629193Y-109563027D01*
X110584000Y-109335826D01*
X110584000Y-109104174D01*
X110629193Y-108876973D01*
X110717842Y-108662955D01*
X110799492Y-108540757D01*
X110846539Y-108470346D01*
X111010346Y-108306539D01*
X111202954Y-108177843D01*
X111202955Y-108177842D01*
X111416973Y-108089193D01*
X111568440Y-108059064D01*
X111644173Y-108044000D01*
X111875827Y-108044000D01*
X111951560Y-108059064D01*
X111951560Y-108059064D01*
G37*
G36*
X106871560Y-108059064D02*
G01*
X107023027Y-108089193D01*
X107237045Y-108177842D01*
X107237046Y-108177843D01*
X107429654Y-108306539D01*
X107593461Y-108470346D01*
X107640508Y-108540757D01*
X107722158Y-108662955D01*
X107810807Y-108876973D01*
X107856000Y-109104174D01*
X107856000Y-109335826D01*
X107810807Y-109563027D01*
X107722158Y-109777045D01*
X107722157Y-109777046D01*
X107593461Y-109969654D01*
X107429654Y-110133461D01*
X107301249Y-110219258D01*
X107237045Y-110262158D01*
X107023027Y-110350807D01*
X106871560Y-110380936D01*
X106795827Y-110396000D01*
X106564173Y-110396000D01*
X106488440Y-110380936D01*
X106336973Y-110350807D01*
X106122955Y-110262158D01*
X106058751Y-110219258D01*
X105930346Y-110133461D01*
X105766539Y-109969654D01*
X105637843Y-109777046D01*
X105637842Y-109777045D01*
X105549193Y-109563027D01*
X105504000Y-109335826D01*
X105504000Y-109104174D01*
X105549193Y-108876973D01*
X105637842Y-108662955D01*
X105719492Y-108540757D01*
X105766539Y-108470346D01*
X105930346Y-108306539D01*
X106122954Y-108177843D01*
X106122955Y-108177842D01*
X106336973Y-108089193D01*
X106488440Y-108059064D01*
X106564173Y-108044000D01*
X106795827Y-108044000D01*
X106871560Y-108059064D01*
X106871560Y-108059064D01*
G37*
G36*
X142945997Y-105863051D02*
G01*
X142979652Y-105873261D01*
X143010665Y-105889838D01*
X143037851Y-105912149D01*
X143060162Y-105939335D01*
X143076739Y-105970348D01*
X143086949Y-106004003D01*
X143091000Y-106045138D01*
X143091000Y-108374862D01*
X143086949Y-108415997D01*
X143076739Y-108449652D01*
X143060162Y-108480665D01*
X143037851Y-108507851D01*
X143010665Y-108530162D01*
X142979652Y-108546739D01*
X142945997Y-108556949D01*
X142904862Y-108561000D01*
X141575138Y-108561000D01*
X141534003Y-108556949D01*
X141500348Y-108546739D01*
X141469335Y-108530162D01*
X141442149Y-108507851D01*
X141419838Y-108480665D01*
X141403261Y-108449652D01*
X141393051Y-108415997D01*
X141389000Y-108374862D01*
X141389000Y-106045138D01*
X141393051Y-106004003D01*
X141403261Y-105970348D01*
X141419838Y-105939335D01*
X141442149Y-105912149D01*
X141469335Y-105889838D01*
X141500348Y-105873261D01*
X141534003Y-105863051D01*
X141575138Y-105859000D01*
X142904862Y-105859000D01*
X142945997Y-105863051D01*
X142945997Y-105863051D01*
G37*
G36*
X125165997Y-105228051D02*
G01*
X125199652Y-105238261D01*
X125230665Y-105254838D01*
X125257851Y-105277149D01*
X125280162Y-105304335D01*
X125296739Y-105335348D01*
X125306949Y-105369003D01*
X125311000Y-105410138D01*
X125311000Y-107739862D01*
X125306949Y-107780997D01*
X125296739Y-107814652D01*
X125280162Y-107845665D01*
X125257851Y-107872851D01*
X125230665Y-107895162D01*
X125199652Y-107911739D01*
X125165997Y-107921949D01*
X125124862Y-107926000D01*
X123795138Y-107926000D01*
X123754003Y-107921949D01*
X123720348Y-107911739D01*
X123689335Y-107895162D01*
X123662149Y-107872851D01*
X123639838Y-107845665D01*
X123623261Y-107814652D01*
X123613051Y-107780997D01*
X123609000Y-107739862D01*
X123609000Y-105410138D01*
X123613051Y-105369003D01*
X123623261Y-105335348D01*
X123639838Y-105304335D01*
X123662149Y-105277149D01*
X123689335Y-105254838D01*
X123720348Y-105238261D01*
X123754003Y-105228051D01*
X123795138Y-105224000D01*
X125124862Y-105224000D01*
X125165997Y-105228051D01*
X125165997Y-105228051D01*
G37*
G36*
X147699591Y-105713085D02*
G01*
X147733569Y-105723393D01*
X147764890Y-105740134D01*
X147792339Y-105762661D01*
X147814866Y-105790110D01*
X147831607Y-105821431D01*
X147841915Y-105855409D01*
X147846000Y-105896890D01*
X147846000Y-106498110D01*
X147841915Y-106539591D01*
X147831607Y-106573569D01*
X147814866Y-106604890D01*
X147792339Y-106632339D01*
X147764890Y-106654866D01*
X147733569Y-106671607D01*
X147699591Y-106681915D01*
X147658110Y-106686000D01*
X146981890Y-106686000D01*
X146940409Y-106681915D01*
X146906431Y-106671607D01*
X146875110Y-106654866D01*
X146847661Y-106632339D01*
X146825134Y-106604890D01*
X146808393Y-106573569D01*
X146798085Y-106539591D01*
X146794000Y-106498110D01*
X146794000Y-105896890D01*
X146798085Y-105855409D01*
X146808393Y-105821431D01*
X146825134Y-105790110D01*
X146847661Y-105762661D01*
X146875110Y-105740134D01*
X146906431Y-105723393D01*
X146940409Y-105713085D01*
X146981890Y-105709000D01*
X147658110Y-105709000D01*
X147699591Y-105713085D01*
X147699591Y-105713085D01*
G37*
G36*
X119759591Y-105078085D02*
G01*
X119793569Y-105088393D01*
X119824890Y-105105134D01*
X119852339Y-105127661D01*
X119874866Y-105155110D01*
X119891607Y-105186431D01*
X119901915Y-105220409D01*
X119906000Y-105261890D01*
X119906000Y-105863110D01*
X119901915Y-105904591D01*
X119891607Y-105938569D01*
X119874866Y-105969890D01*
X119852339Y-105997339D01*
X119824890Y-106019866D01*
X119793569Y-106036607D01*
X119759591Y-106046915D01*
X119718110Y-106051000D01*
X119041890Y-106051000D01*
X119000409Y-106046915D01*
X118966431Y-106036607D01*
X118935110Y-106019866D01*
X118907661Y-105997339D01*
X118885134Y-105969890D01*
X118868393Y-105938569D01*
X118858085Y-105904591D01*
X118854000Y-105863110D01*
X118854000Y-105261890D01*
X118858085Y-105220409D01*
X118868393Y-105186431D01*
X118885134Y-105155110D01*
X118907661Y-105127661D01*
X118935110Y-105105134D01*
X118966431Y-105088393D01*
X119000409Y-105078085D01*
X119041890Y-105074000D01*
X119718110Y-105074000D01*
X119759591Y-105078085D01*
X119759591Y-105078085D01*
G37*
G36*
X158297021Y-100176640D02*
G01*
X158806769Y-100387785D01*
X158806771Y-100387786D01*
X159265534Y-100694321D01*
X159655679Y-101084466D01*
X159962214Y-101543229D01*
X159962215Y-101543231D01*
X160173360Y-102052979D01*
X160281000Y-102594124D01*
X160281000Y-103145876D01*
X160173360Y-103687021D01*
X159962215Y-104196769D01*
X159962214Y-104196771D01*
X159655679Y-104655534D01*
X159265534Y-105045679D01*
X158806771Y-105352214D01*
X158806770Y-105352215D01*
X158806769Y-105352215D01*
X158297021Y-105563360D01*
X157755876Y-105671000D01*
X157204124Y-105671000D01*
X156662979Y-105563360D01*
X156153231Y-105352215D01*
X156153230Y-105352215D01*
X156153229Y-105352214D01*
X155694466Y-105045679D01*
X155304321Y-104655534D01*
X154997786Y-104196771D01*
X154997785Y-104196769D01*
X154786640Y-103687021D01*
X154679000Y-103145876D01*
X154679000Y-102594124D01*
X154786640Y-102052979D01*
X154997785Y-101543231D01*
X154997786Y-101543229D01*
X155304321Y-101084466D01*
X155694466Y-100694321D01*
X156153229Y-100387786D01*
X156153231Y-100387785D01*
X156662979Y-100176640D01*
X157204124Y-100069000D01*
X157755876Y-100069000D01*
X158297021Y-100176640D01*
X158297021Y-100176640D01*
G37*
G36*
X107497021Y-100176640D02*
G01*
X108006769Y-100387785D01*
X108006771Y-100387786D01*
X108465534Y-100694321D01*
X108855679Y-101084466D01*
X109162214Y-101543229D01*
X109162215Y-101543231D01*
X109373360Y-102052979D01*
X109481000Y-102594124D01*
X109481000Y-103145876D01*
X109373360Y-103687021D01*
X109162215Y-104196769D01*
X109162214Y-104196771D01*
X108855679Y-104655534D01*
X108465534Y-105045679D01*
X108006771Y-105352214D01*
X108006770Y-105352215D01*
X108006769Y-105352215D01*
X107497021Y-105563360D01*
X106955876Y-105671000D01*
X106404124Y-105671000D01*
X105862979Y-105563360D01*
X105353231Y-105352215D01*
X105353230Y-105352215D01*
X105353229Y-105352214D01*
X104894466Y-105045679D01*
X104504321Y-104655534D01*
X104197786Y-104196771D01*
X104197785Y-104196769D01*
X103986640Y-103687021D01*
X103879000Y-103145876D01*
X103879000Y-102594124D01*
X103986640Y-102052979D01*
X104197785Y-101543231D01*
X104197786Y-101543229D01*
X104504321Y-101084466D01*
X104894466Y-100694321D01*
X105353229Y-100387786D01*
X105353231Y-100387785D01*
X105862979Y-100176640D01*
X106404124Y-100069000D01*
X106955876Y-100069000D01*
X107497021Y-100176640D01*
X107497021Y-100176640D01*
G37*
G36*
X147699591Y-104138085D02*
G01*
X147733569Y-104148393D01*
X147764890Y-104165134D01*
X147792339Y-104187661D01*
X147814866Y-104215110D01*
X147831607Y-104246431D01*
X147841915Y-104280409D01*
X147846000Y-104321890D01*
X147846000Y-104923110D01*
X147841915Y-104964591D01*
X147831607Y-104998569D01*
X147814866Y-105029890D01*
X147792339Y-105057339D01*
X147764890Y-105079866D01*
X147733569Y-105096607D01*
X147699591Y-105106915D01*
X147658110Y-105111000D01*
X146981890Y-105111000D01*
X146940409Y-105106915D01*
X146906431Y-105096607D01*
X146875110Y-105079866D01*
X146847661Y-105057339D01*
X146825134Y-105029890D01*
X146808393Y-104998569D01*
X146798085Y-104964591D01*
X146794000Y-104923110D01*
X146794000Y-104321890D01*
X146798085Y-104280409D01*
X146808393Y-104246431D01*
X146825134Y-104215110D01*
X146847661Y-104187661D01*
X146875110Y-104165134D01*
X146906431Y-104148393D01*
X146940409Y-104138085D01*
X146981890Y-104134000D01*
X147658110Y-104134000D01*
X147699591Y-104138085D01*
X147699591Y-104138085D01*
G37*
G36*
X142945997Y-102263051D02*
G01*
X142979652Y-102273261D01*
X143010665Y-102289838D01*
X143037851Y-102312149D01*
X143060162Y-102339335D01*
X143076739Y-102370348D01*
X143086949Y-102404003D01*
X143091000Y-102445138D01*
X143091000Y-104774862D01*
X143086949Y-104815997D01*
X143076739Y-104849652D01*
X143060162Y-104880665D01*
X143037851Y-104907851D01*
X143010665Y-104930162D01*
X142979652Y-104946739D01*
X142945997Y-104956949D01*
X142904862Y-104961000D01*
X141575138Y-104961000D01*
X141534003Y-104956949D01*
X141500348Y-104946739D01*
X141469335Y-104930162D01*
X141442149Y-104907851D01*
X141419838Y-104880665D01*
X141403261Y-104849652D01*
X141393051Y-104815997D01*
X141389000Y-104774862D01*
X141389000Y-102445138D01*
X141393051Y-102404003D01*
X141403261Y-102370348D01*
X141419838Y-102339335D01*
X141442149Y-102312149D01*
X141469335Y-102289838D01*
X141500348Y-102273261D01*
X141534003Y-102263051D01*
X141575138Y-102259000D01*
X142904862Y-102259000D01*
X142945997Y-102263051D01*
X142945997Y-102263051D01*
G37*
G36*
X119759591Y-103503085D02*
G01*
X119793569Y-103513393D01*
X119824890Y-103530134D01*
X119852339Y-103552661D01*
X119874866Y-103580110D01*
X119891607Y-103611431D01*
X119901915Y-103645409D01*
X119906000Y-103686890D01*
X119906000Y-104288110D01*
X119901915Y-104329591D01*
X119891607Y-104363569D01*
X119874866Y-104394890D01*
X119852339Y-104422339D01*
X119824890Y-104444866D01*
X119793569Y-104461607D01*
X119759591Y-104471915D01*
X119718110Y-104476000D01*
X119041890Y-104476000D01*
X119000409Y-104471915D01*
X118966431Y-104461607D01*
X118935110Y-104444866D01*
X118907661Y-104422339D01*
X118885134Y-104394890D01*
X118868393Y-104363569D01*
X118858085Y-104329591D01*
X118854000Y-104288110D01*
X118854000Y-103686890D01*
X118858085Y-103645409D01*
X118868393Y-103611431D01*
X118885134Y-103580110D01*
X118907661Y-103552661D01*
X118935110Y-103530134D01*
X118966431Y-103513393D01*
X119000409Y-103503085D01*
X119041890Y-103499000D01*
X119718110Y-103499000D01*
X119759591Y-103503085D01*
X119759591Y-103503085D01*
G37*
G36*
X136635442Y-102610518D02*
G01*
X136701627Y-102617037D01*
X136871466Y-102668557D01*
X137027991Y-102752222D01*
X137063729Y-102781552D01*
X137165186Y-102864814D01*
X137248448Y-102966271D01*
X137277778Y-103002009D01*
X137361443Y-103158534D01*
X137412963Y-103328373D01*
X137430359Y-103505000D01*
X137412963Y-103681627D01*
X137361443Y-103851466D01*
X137277778Y-104007991D01*
X137248448Y-104043729D01*
X137165186Y-104145186D01*
X137088877Y-104207810D01*
X137027991Y-104257778D01*
X136871466Y-104341443D01*
X136701627Y-104392963D01*
X136635442Y-104399482D01*
X136569260Y-104406000D01*
X136480740Y-104406000D01*
X136414558Y-104399482D01*
X136348373Y-104392963D01*
X136178534Y-104341443D01*
X136022009Y-104257778D01*
X135961123Y-104207810D01*
X135884814Y-104145186D01*
X135801552Y-104043729D01*
X135772222Y-104007991D01*
X135688557Y-103851466D01*
X135637037Y-103681627D01*
X135619641Y-103505000D01*
X135637037Y-103328373D01*
X135688557Y-103158534D01*
X135772222Y-103002009D01*
X135801552Y-102966271D01*
X135884814Y-102864814D01*
X135986271Y-102781552D01*
X136022009Y-102752222D01*
X136178534Y-102668557D01*
X136348373Y-102617037D01*
X136414558Y-102610518D01*
X136480740Y-102604000D01*
X136569260Y-102604000D01*
X136635442Y-102610518D01*
X136635442Y-102610518D01*
G37*
G36*
X134095442Y-102610518D02*
G01*
X134161627Y-102617037D01*
X134331466Y-102668557D01*
X134487991Y-102752222D01*
X134523729Y-102781552D01*
X134625186Y-102864814D01*
X134708448Y-102966271D01*
X134737778Y-103002009D01*
X134821443Y-103158534D01*
X134872963Y-103328373D01*
X134890359Y-103505000D01*
X134872963Y-103681627D01*
X134821443Y-103851466D01*
X134737778Y-104007991D01*
X134708448Y-104043729D01*
X134625186Y-104145186D01*
X134548877Y-104207810D01*
X134487991Y-104257778D01*
X134331466Y-104341443D01*
X134161627Y-104392963D01*
X134095442Y-104399482D01*
X134029260Y-104406000D01*
X133940740Y-104406000D01*
X133874558Y-104399482D01*
X133808373Y-104392963D01*
X133638534Y-104341443D01*
X133482009Y-104257778D01*
X133421123Y-104207810D01*
X133344814Y-104145186D01*
X133261552Y-104043729D01*
X133232222Y-104007991D01*
X133148557Y-103851466D01*
X133097037Y-103681627D01*
X133079641Y-103505000D01*
X133097037Y-103328373D01*
X133148557Y-103158534D01*
X133232222Y-103002009D01*
X133261552Y-102966271D01*
X133344814Y-102864814D01*
X133446271Y-102781552D01*
X133482009Y-102752222D01*
X133638534Y-102668557D01*
X133808373Y-102617037D01*
X133874558Y-102610518D01*
X133940740Y-102604000D01*
X134029260Y-102604000D01*
X134095442Y-102610518D01*
X134095442Y-102610518D01*
G37*
G36*
X132346000Y-104406000D02*
G01*
X130544000Y-104406000D01*
X130544000Y-102604000D01*
X132346000Y-102604000D01*
X132346000Y-104406000D01*
X132346000Y-104406000D01*
G37*
G36*
X125165997Y-101628051D02*
G01*
X125199652Y-101638261D01*
X125230665Y-101654838D01*
X125257851Y-101677149D01*
X125280162Y-101704335D01*
X125296739Y-101735348D01*
X125306949Y-101769003D01*
X125311000Y-101810138D01*
X125311000Y-104139862D01*
X125306949Y-104180997D01*
X125296739Y-104214652D01*
X125280162Y-104245665D01*
X125257851Y-104272851D01*
X125230665Y-104295162D01*
X125199652Y-104311739D01*
X125165997Y-104321949D01*
X125124862Y-104326000D01*
X123795138Y-104326000D01*
X123754003Y-104321949D01*
X123720348Y-104311739D01*
X123689335Y-104295162D01*
X123662149Y-104272851D01*
X123639838Y-104245665D01*
X123623261Y-104214652D01*
X123613051Y-104180997D01*
X123609000Y-104139862D01*
X123609000Y-101810138D01*
X123613051Y-101769003D01*
X123623261Y-101735348D01*
X123639838Y-101704335D01*
X123662149Y-101677149D01*
X123689335Y-101654838D01*
X123720348Y-101638261D01*
X123754003Y-101628051D01*
X123795138Y-101624000D01*
X125124862Y-101624000D01*
X125165997Y-101628051D01*
X125165997Y-101628051D01*
G37*
M02*
