G04 #@! TF.GenerationSoftware,KiCad,Pcbnew,(5.1.2)-2*
G04 #@! TF.CreationDate,2019-07-06T09:47:10+08:00*
G04 #@! TF.ProjectId,eval-board-ADA4817-1,6576616c-2d62-46f6-9172-642d41444134,rev?*
G04 #@! TF.SameCoordinates,Original*
G04 #@! TF.FileFunction,Soldermask,Bot*
G04 #@! TF.FilePolarity,Negative*
%FSLAX46Y46*%
G04 Gerber Fmt 4.6, Leading zero omitted, Abs format (unit mm)*
G04 Created by KiCad (PCBNEW (5.1.2)-2) date 2019-07-06 09:47:10*
%MOMM*%
%LPD*%
G04 APERTURE LIST*
%ADD10C,0.100000*%
G04 APERTURE END LIST*
D10*
G36*
X157662021Y-129386640D02*
G01*
X158171769Y-129597785D01*
X158171771Y-129597786D01*
X158630534Y-129904321D01*
X159020679Y-130294466D01*
X159327214Y-130753229D01*
X159327215Y-130753231D01*
X159538360Y-131262979D01*
X159646000Y-131804124D01*
X159646000Y-132355876D01*
X159538360Y-132897021D01*
X159327215Y-133406769D01*
X159327214Y-133406771D01*
X159020679Y-133865534D01*
X158630534Y-134255679D01*
X158171771Y-134562214D01*
X158171770Y-134562215D01*
X158171769Y-134562215D01*
X157662021Y-134773360D01*
X157120876Y-134881000D01*
X156569124Y-134881000D01*
X156027979Y-134773360D01*
X155518231Y-134562215D01*
X155518230Y-134562215D01*
X155518229Y-134562214D01*
X155059466Y-134255679D01*
X154669321Y-133865534D01*
X154362786Y-133406771D01*
X154362785Y-133406769D01*
X154151640Y-132897021D01*
X154044000Y-132355876D01*
X154044000Y-131804124D01*
X154151640Y-131262979D01*
X154362785Y-130753231D01*
X154362786Y-130753229D01*
X154669321Y-130294466D01*
X155059466Y-129904321D01*
X155518229Y-129597786D01*
X155518231Y-129597785D01*
X156027979Y-129386640D01*
X156569124Y-129279000D01*
X157120876Y-129279000D01*
X157662021Y-129386640D01*
X157662021Y-129386640D01*
G37*
G36*
X108132021Y-129386640D02*
G01*
X108641769Y-129597785D01*
X108641771Y-129597786D01*
X109100534Y-129904321D01*
X109490679Y-130294466D01*
X109797214Y-130753229D01*
X109797215Y-130753231D01*
X110008360Y-131262979D01*
X110116000Y-131804124D01*
X110116000Y-132355876D01*
X110008360Y-132897021D01*
X109797215Y-133406769D01*
X109797214Y-133406771D01*
X109490679Y-133865534D01*
X109100534Y-134255679D01*
X108641771Y-134562214D01*
X108641770Y-134562215D01*
X108641769Y-134562215D01*
X108132021Y-134773360D01*
X107590876Y-134881000D01*
X107039124Y-134881000D01*
X106497979Y-134773360D01*
X105988231Y-134562215D01*
X105988230Y-134562215D01*
X105988229Y-134562214D01*
X105529466Y-134255679D01*
X105139321Y-133865534D01*
X104832786Y-133406771D01*
X104832785Y-133406769D01*
X104621640Y-132897021D01*
X104514000Y-132355876D01*
X104514000Y-131804124D01*
X104621640Y-131262979D01*
X104832785Y-130753231D01*
X104832786Y-130753229D01*
X105139321Y-130294466D01*
X105529466Y-129904321D01*
X105988229Y-129597786D01*
X105988231Y-129597785D01*
X106497979Y-129386640D01*
X107039124Y-129279000D01*
X107590876Y-129279000D01*
X108132021Y-129386640D01*
X108132021Y-129386640D01*
G37*
G36*
X123741000Y-129456000D02*
G01*
X122639000Y-129456000D01*
X122639000Y-128354000D01*
X123741000Y-128354000D01*
X123741000Y-129456000D01*
X123741000Y-129456000D01*
G37*
G36*
X111951560Y-125204064D02*
G01*
X112103027Y-125234193D01*
X112317045Y-125322842D01*
X112317046Y-125322843D01*
X112509654Y-125451539D01*
X112673461Y-125615346D01*
X112693943Y-125646000D01*
X112802158Y-125807955D01*
X112890807Y-126021973D01*
X112936000Y-126249174D01*
X112936000Y-126480826D01*
X112890807Y-126708027D01*
X112802158Y-126922045D01*
X112802157Y-126922046D01*
X112673461Y-127114654D01*
X112509654Y-127278461D01*
X112381249Y-127364258D01*
X112317045Y-127407158D01*
X112103027Y-127495807D01*
X111951560Y-127525936D01*
X111875827Y-127541000D01*
X111644173Y-127541000D01*
X111568440Y-127525936D01*
X111416973Y-127495807D01*
X111202955Y-127407158D01*
X111138751Y-127364258D01*
X111010346Y-127278461D01*
X110846539Y-127114654D01*
X110717843Y-126922046D01*
X110717842Y-126922045D01*
X110629193Y-126708027D01*
X110584000Y-126480826D01*
X110584000Y-126249174D01*
X110629193Y-126021973D01*
X110717842Y-125807955D01*
X110826057Y-125646000D01*
X110846539Y-125615346D01*
X111010346Y-125451539D01*
X111202954Y-125322843D01*
X111202955Y-125322842D01*
X111416973Y-125234193D01*
X111568440Y-125204064D01*
X111644173Y-125189000D01*
X111875827Y-125189000D01*
X111951560Y-125204064D01*
X111951560Y-125204064D01*
G37*
G36*
X106871560Y-125204064D02*
G01*
X107023027Y-125234193D01*
X107237045Y-125322842D01*
X107237046Y-125322843D01*
X107429654Y-125451539D01*
X107593461Y-125615346D01*
X107613943Y-125646000D01*
X107722158Y-125807955D01*
X107810807Y-126021973D01*
X107856000Y-126249174D01*
X107856000Y-126480826D01*
X107810807Y-126708027D01*
X107722158Y-126922045D01*
X107722157Y-126922046D01*
X107593461Y-127114654D01*
X107429654Y-127278461D01*
X107301249Y-127364258D01*
X107237045Y-127407158D01*
X107023027Y-127495807D01*
X106871560Y-127525936D01*
X106795827Y-127541000D01*
X106564173Y-127541000D01*
X106488440Y-127525936D01*
X106336973Y-127495807D01*
X106122955Y-127407158D01*
X106058751Y-127364258D01*
X105930346Y-127278461D01*
X105766539Y-127114654D01*
X105637843Y-126922046D01*
X105637842Y-126922045D01*
X105549193Y-126708027D01*
X105504000Y-126480826D01*
X105504000Y-126249174D01*
X105549193Y-126021973D01*
X105637842Y-125807955D01*
X105746057Y-125646000D01*
X105766539Y-125615346D01*
X105930346Y-125451539D01*
X106122954Y-125322843D01*
X106122955Y-125322842D01*
X106336973Y-125234193D01*
X106488440Y-125204064D01*
X106564173Y-125189000D01*
X106795827Y-125189000D01*
X106871560Y-125204064D01*
X106871560Y-125204064D01*
G37*
G36*
X156761000Y-125646000D02*
G01*
X155659000Y-125646000D01*
X155659000Y-124544000D01*
X156761000Y-124544000D01*
X156761000Y-125646000D01*
X156761000Y-125646000D01*
G37*
G36*
X109395271Y-122762783D02*
G01*
X109533858Y-122790350D01*
X109729677Y-122871461D01*
X109905910Y-122989216D01*
X110055784Y-123139090D01*
X110173539Y-123315323D01*
X110254650Y-123511142D01*
X110296000Y-123719023D01*
X110296000Y-123930977D01*
X110254650Y-124138858D01*
X110173539Y-124334677D01*
X110055784Y-124510910D01*
X109905910Y-124660784D01*
X109729677Y-124778539D01*
X109533858Y-124859650D01*
X109395271Y-124887217D01*
X109325978Y-124901000D01*
X109114022Y-124901000D01*
X109044729Y-124887217D01*
X108906142Y-124859650D01*
X108710323Y-124778539D01*
X108534090Y-124660784D01*
X108384216Y-124510910D01*
X108266461Y-124334677D01*
X108185350Y-124138858D01*
X108144000Y-123930977D01*
X108144000Y-123719023D01*
X108185350Y-123511142D01*
X108266461Y-123315323D01*
X108384216Y-123139090D01*
X108534090Y-122989216D01*
X108710323Y-122871461D01*
X108906142Y-122790350D01*
X109044729Y-122762783D01*
X109114022Y-122749000D01*
X109325978Y-122749000D01*
X109395271Y-122762783D01*
X109395271Y-122762783D01*
G37*
G36*
X106871560Y-120124064D02*
G01*
X107023027Y-120154193D01*
X107237045Y-120242842D01*
X107237046Y-120242843D01*
X107429654Y-120371539D01*
X107593461Y-120535346D01*
X107679258Y-120663751D01*
X107722158Y-120727955D01*
X107810807Y-120941973D01*
X107856000Y-121169174D01*
X107856000Y-121400826D01*
X107810807Y-121628027D01*
X107722158Y-121842045D01*
X107722157Y-121842046D01*
X107593461Y-122034654D01*
X107429654Y-122198461D01*
X107301249Y-122284258D01*
X107237045Y-122327158D01*
X107023027Y-122415807D01*
X106871560Y-122445936D01*
X106795827Y-122461000D01*
X106564173Y-122461000D01*
X106488440Y-122445936D01*
X106336973Y-122415807D01*
X106122955Y-122327158D01*
X106058751Y-122284258D01*
X105930346Y-122198461D01*
X105766539Y-122034654D01*
X105637843Y-121842046D01*
X105637842Y-121842045D01*
X105549193Y-121628027D01*
X105504000Y-121400826D01*
X105504000Y-121169174D01*
X105549193Y-120941973D01*
X105637842Y-120727955D01*
X105680742Y-120663751D01*
X105766539Y-120535346D01*
X105930346Y-120371539D01*
X106122954Y-120242843D01*
X106122955Y-120242842D01*
X106336973Y-120154193D01*
X106488440Y-120124064D01*
X106564173Y-120109000D01*
X106795827Y-120109000D01*
X106871560Y-120124064D01*
X106871560Y-120124064D01*
G37*
G36*
X111951560Y-120124064D02*
G01*
X112103027Y-120154193D01*
X112317045Y-120242842D01*
X112317046Y-120242843D01*
X112509654Y-120371539D01*
X112673461Y-120535346D01*
X112759258Y-120663751D01*
X112802158Y-120727955D01*
X112890807Y-120941973D01*
X112936000Y-121169174D01*
X112936000Y-121400826D01*
X112890807Y-121628027D01*
X112802158Y-121842045D01*
X112802157Y-121842046D01*
X112673461Y-122034654D01*
X112509654Y-122198461D01*
X112381249Y-122284258D01*
X112317045Y-122327158D01*
X112103027Y-122415807D01*
X111951560Y-122445936D01*
X111875827Y-122461000D01*
X111644173Y-122461000D01*
X111568440Y-122445936D01*
X111416973Y-122415807D01*
X111202955Y-122327158D01*
X111138751Y-122284258D01*
X111010346Y-122198461D01*
X110846539Y-122034654D01*
X110717843Y-121842046D01*
X110717842Y-121842045D01*
X110629193Y-121628027D01*
X110584000Y-121400826D01*
X110584000Y-121169174D01*
X110629193Y-120941973D01*
X110717842Y-120727955D01*
X110760742Y-120663751D01*
X110846539Y-120535346D01*
X111010346Y-120371539D01*
X111202954Y-120242843D01*
X111202955Y-120242842D01*
X111416973Y-120154193D01*
X111568440Y-120124064D01*
X111644173Y-120109000D01*
X111875827Y-120109000D01*
X111951560Y-120124064D01*
X111951560Y-120124064D01*
G37*
G36*
X157671560Y-119489064D02*
G01*
X157823027Y-119519193D01*
X158037045Y-119607842D01*
X158037046Y-119607843D01*
X158229654Y-119736539D01*
X158393461Y-119900346D01*
X158479258Y-120028751D01*
X158522158Y-120092955D01*
X158610807Y-120306973D01*
X158656000Y-120534174D01*
X158656000Y-120765826D01*
X158610807Y-120993027D01*
X158522158Y-121207045D01*
X158522157Y-121207046D01*
X158393461Y-121399654D01*
X158229654Y-121563461D01*
X158101249Y-121649258D01*
X158037045Y-121692158D01*
X157823027Y-121780807D01*
X157671560Y-121810936D01*
X157595827Y-121826000D01*
X157364173Y-121826000D01*
X157288440Y-121810936D01*
X157136973Y-121780807D01*
X156922955Y-121692158D01*
X156858751Y-121649258D01*
X156730346Y-121563461D01*
X156566539Y-121399654D01*
X156437843Y-121207046D01*
X156437842Y-121207045D01*
X156349193Y-120993027D01*
X156304000Y-120765826D01*
X156304000Y-120534174D01*
X156349193Y-120306973D01*
X156437842Y-120092955D01*
X156480742Y-120028751D01*
X156566539Y-119900346D01*
X156730346Y-119736539D01*
X156922954Y-119607843D01*
X156922955Y-119607842D01*
X157136973Y-119519193D01*
X157288440Y-119489064D01*
X157364173Y-119474000D01*
X157595827Y-119474000D01*
X157671560Y-119489064D01*
X157671560Y-119489064D01*
G37*
G36*
X152591560Y-119489064D02*
G01*
X152743027Y-119519193D01*
X152957045Y-119607842D01*
X152957046Y-119607843D01*
X153149654Y-119736539D01*
X153313461Y-119900346D01*
X153399258Y-120028751D01*
X153442158Y-120092955D01*
X153530807Y-120306973D01*
X153576000Y-120534174D01*
X153576000Y-120765826D01*
X153530807Y-120993027D01*
X153442158Y-121207045D01*
X153442157Y-121207046D01*
X153313461Y-121399654D01*
X153149654Y-121563461D01*
X153021249Y-121649258D01*
X152957045Y-121692158D01*
X152743027Y-121780807D01*
X152591560Y-121810936D01*
X152515827Y-121826000D01*
X152284173Y-121826000D01*
X152208440Y-121810936D01*
X152056973Y-121780807D01*
X151842955Y-121692158D01*
X151778751Y-121649258D01*
X151650346Y-121563461D01*
X151486539Y-121399654D01*
X151357843Y-121207046D01*
X151357842Y-121207045D01*
X151269193Y-120993027D01*
X151224000Y-120765826D01*
X151224000Y-120534174D01*
X151269193Y-120306973D01*
X151357842Y-120092955D01*
X151400742Y-120028751D01*
X151486539Y-119900346D01*
X151650346Y-119736539D01*
X151842954Y-119607843D01*
X151842955Y-119607842D01*
X152056973Y-119519193D01*
X152208440Y-119489064D01*
X152284173Y-119474000D01*
X152515827Y-119474000D01*
X152591560Y-119489064D01*
X152591560Y-119489064D01*
G37*
G36*
X155115271Y-117047783D02*
G01*
X155253858Y-117075350D01*
X155449677Y-117156461D01*
X155625910Y-117274216D01*
X155775784Y-117424090D01*
X155893539Y-117600323D01*
X155974650Y-117796142D01*
X156016000Y-118004023D01*
X156016000Y-118215977D01*
X155974650Y-118423858D01*
X155893539Y-118619677D01*
X155775784Y-118795910D01*
X155625910Y-118945784D01*
X155449677Y-119063539D01*
X155253858Y-119144650D01*
X155115271Y-119172217D01*
X155045978Y-119186000D01*
X154834022Y-119186000D01*
X154764729Y-119172217D01*
X154626142Y-119144650D01*
X154430323Y-119063539D01*
X154254090Y-118945784D01*
X154104216Y-118795910D01*
X153986461Y-118619677D01*
X153905350Y-118423858D01*
X153864000Y-118215977D01*
X153864000Y-118004023D01*
X153905350Y-117796142D01*
X153986461Y-117600323D01*
X154104216Y-117424090D01*
X154254090Y-117274216D01*
X154430323Y-117156461D01*
X154626142Y-117075350D01*
X154764729Y-117047783D01*
X154834022Y-117034000D01*
X155045978Y-117034000D01*
X155115271Y-117047783D01*
X155115271Y-117047783D01*
G37*
G36*
X157671560Y-114409064D02*
G01*
X157823027Y-114439193D01*
X158037045Y-114527842D01*
X158037046Y-114527843D01*
X158229654Y-114656539D01*
X158393461Y-114820346D01*
X158417982Y-114857045D01*
X158522158Y-115012955D01*
X158610807Y-115226973D01*
X158656000Y-115454174D01*
X158656000Y-115685826D01*
X158610807Y-115913027D01*
X158522158Y-116127045D01*
X158522157Y-116127046D01*
X158393461Y-116319654D01*
X158229654Y-116483461D01*
X158101249Y-116569258D01*
X158037045Y-116612158D01*
X157823027Y-116700807D01*
X157671560Y-116730936D01*
X157595827Y-116746000D01*
X157364173Y-116746000D01*
X157288440Y-116730936D01*
X157136973Y-116700807D01*
X156922955Y-116612158D01*
X156858751Y-116569258D01*
X156730346Y-116483461D01*
X156566539Y-116319654D01*
X156437843Y-116127046D01*
X156437842Y-116127045D01*
X156349193Y-115913027D01*
X156304000Y-115685826D01*
X156304000Y-115454174D01*
X156349193Y-115226973D01*
X156437842Y-115012955D01*
X156542018Y-114857045D01*
X156566539Y-114820346D01*
X156730346Y-114656539D01*
X156922954Y-114527843D01*
X156922955Y-114527842D01*
X157136973Y-114439193D01*
X157288440Y-114409064D01*
X157364173Y-114394000D01*
X157595827Y-114394000D01*
X157671560Y-114409064D01*
X157671560Y-114409064D01*
G37*
G36*
X152591560Y-114409064D02*
G01*
X152743027Y-114439193D01*
X152957045Y-114527842D01*
X152957046Y-114527843D01*
X153149654Y-114656539D01*
X153313461Y-114820346D01*
X153337982Y-114857045D01*
X153442158Y-115012955D01*
X153530807Y-115226973D01*
X153576000Y-115454174D01*
X153576000Y-115685826D01*
X153530807Y-115913027D01*
X153442158Y-116127045D01*
X153442157Y-116127046D01*
X153313461Y-116319654D01*
X153149654Y-116483461D01*
X153021249Y-116569258D01*
X152957045Y-116612158D01*
X152743027Y-116700807D01*
X152591560Y-116730936D01*
X152515827Y-116746000D01*
X152284173Y-116746000D01*
X152208440Y-116730936D01*
X152056973Y-116700807D01*
X151842955Y-116612158D01*
X151778751Y-116569258D01*
X151650346Y-116483461D01*
X151486539Y-116319654D01*
X151357843Y-116127046D01*
X151357842Y-116127045D01*
X151269193Y-115913027D01*
X151224000Y-115685826D01*
X151224000Y-115454174D01*
X151269193Y-115226973D01*
X151357842Y-115012955D01*
X151462018Y-114857045D01*
X151486539Y-114820346D01*
X151650346Y-114656539D01*
X151842954Y-114527843D01*
X151842955Y-114527842D01*
X152056973Y-114439193D01*
X152208440Y-114409064D01*
X152284173Y-114394000D01*
X152515827Y-114394000D01*
X152591560Y-114409064D01*
X152591560Y-114409064D01*
G37*
G36*
X111951560Y-113139064D02*
G01*
X112103027Y-113169193D01*
X112317045Y-113257842D01*
X112317046Y-113257843D01*
X112509654Y-113386539D01*
X112673461Y-113550346D01*
X112759258Y-113678751D01*
X112802158Y-113742955D01*
X112890807Y-113956973D01*
X112936000Y-114184174D01*
X112936000Y-114415826D01*
X112890807Y-114643027D01*
X112802158Y-114857045D01*
X112802157Y-114857046D01*
X112673461Y-115049654D01*
X112509654Y-115213461D01*
X112381249Y-115299258D01*
X112317045Y-115342158D01*
X112103027Y-115430807D01*
X111951560Y-115460936D01*
X111875827Y-115476000D01*
X111644173Y-115476000D01*
X111568440Y-115460936D01*
X111416973Y-115430807D01*
X111202955Y-115342158D01*
X111138751Y-115299258D01*
X111010346Y-115213461D01*
X110846539Y-115049654D01*
X110717843Y-114857046D01*
X110717842Y-114857045D01*
X110629193Y-114643027D01*
X110584000Y-114415826D01*
X110584000Y-114184174D01*
X110629193Y-113956973D01*
X110717842Y-113742955D01*
X110760742Y-113678751D01*
X110846539Y-113550346D01*
X111010346Y-113386539D01*
X111202954Y-113257843D01*
X111202955Y-113257842D01*
X111416973Y-113169193D01*
X111568440Y-113139064D01*
X111644173Y-113124000D01*
X111875827Y-113124000D01*
X111951560Y-113139064D01*
X111951560Y-113139064D01*
G37*
G36*
X106871560Y-113139064D02*
G01*
X107023027Y-113169193D01*
X107237045Y-113257842D01*
X107237046Y-113257843D01*
X107429654Y-113386539D01*
X107593461Y-113550346D01*
X107679258Y-113678751D01*
X107722158Y-113742955D01*
X107810807Y-113956973D01*
X107856000Y-114184174D01*
X107856000Y-114415826D01*
X107810807Y-114643027D01*
X107722158Y-114857045D01*
X107722157Y-114857046D01*
X107593461Y-115049654D01*
X107429654Y-115213461D01*
X107301249Y-115299258D01*
X107237045Y-115342158D01*
X107023027Y-115430807D01*
X106871560Y-115460936D01*
X106795827Y-115476000D01*
X106564173Y-115476000D01*
X106488440Y-115460936D01*
X106336973Y-115430807D01*
X106122955Y-115342158D01*
X106058751Y-115299258D01*
X105930346Y-115213461D01*
X105766539Y-115049654D01*
X105637843Y-114857046D01*
X105637842Y-114857045D01*
X105549193Y-114643027D01*
X105504000Y-114415826D01*
X105504000Y-114184174D01*
X105549193Y-113956973D01*
X105637842Y-113742955D01*
X105680742Y-113678751D01*
X105766539Y-113550346D01*
X105930346Y-113386539D01*
X106122954Y-113257843D01*
X106122955Y-113257842D01*
X106336973Y-113169193D01*
X106488440Y-113139064D01*
X106564173Y-113124000D01*
X106795827Y-113124000D01*
X106871560Y-113139064D01*
X106871560Y-113139064D01*
G37*
G36*
X109395271Y-110697783D02*
G01*
X109533858Y-110725350D01*
X109729677Y-110806461D01*
X109905910Y-110924216D01*
X110055784Y-111074090D01*
X110173539Y-111250323D01*
X110254650Y-111446142D01*
X110296000Y-111654023D01*
X110296000Y-111865977D01*
X110254650Y-112073858D01*
X110173539Y-112269677D01*
X110055784Y-112445910D01*
X109905910Y-112595784D01*
X109729677Y-112713539D01*
X109533858Y-112794650D01*
X109395271Y-112822217D01*
X109325978Y-112836000D01*
X109114022Y-112836000D01*
X109044729Y-112822217D01*
X108906142Y-112794650D01*
X108710323Y-112713539D01*
X108534090Y-112595784D01*
X108384216Y-112445910D01*
X108266461Y-112269677D01*
X108185350Y-112073858D01*
X108144000Y-111865977D01*
X108144000Y-111654023D01*
X108185350Y-111446142D01*
X108266461Y-111250323D01*
X108384216Y-111074090D01*
X108534090Y-110924216D01*
X108710323Y-110806461D01*
X108906142Y-110725350D01*
X109044729Y-110697783D01*
X109114022Y-110684000D01*
X109325978Y-110684000D01*
X109395271Y-110697783D01*
X109395271Y-110697783D01*
G37*
G36*
X111951560Y-108059064D02*
G01*
X112103027Y-108089193D01*
X112317045Y-108177842D01*
X112317046Y-108177843D01*
X112509654Y-108306539D01*
X112673461Y-108470346D01*
X112759258Y-108598751D01*
X112802158Y-108662955D01*
X112890807Y-108876973D01*
X112936000Y-109104174D01*
X112936000Y-109335826D01*
X112890807Y-109563027D01*
X112802158Y-109777045D01*
X112802157Y-109777046D01*
X112673461Y-109969654D01*
X112509654Y-110133461D01*
X112381249Y-110219258D01*
X112317045Y-110262158D01*
X112103027Y-110350807D01*
X111951560Y-110380936D01*
X111875827Y-110396000D01*
X111644173Y-110396000D01*
X111568440Y-110380936D01*
X111416973Y-110350807D01*
X111202955Y-110262158D01*
X111138751Y-110219258D01*
X111010346Y-110133461D01*
X110846539Y-109969654D01*
X110717843Y-109777046D01*
X110717842Y-109777045D01*
X110629193Y-109563027D01*
X110584000Y-109335826D01*
X110584000Y-109104174D01*
X110629193Y-108876973D01*
X110717842Y-108662955D01*
X110760742Y-108598751D01*
X110846539Y-108470346D01*
X111010346Y-108306539D01*
X111202954Y-108177843D01*
X111202955Y-108177842D01*
X111416973Y-108089193D01*
X111568440Y-108059064D01*
X111644173Y-108044000D01*
X111875827Y-108044000D01*
X111951560Y-108059064D01*
X111951560Y-108059064D01*
G37*
G36*
X106871560Y-108059064D02*
G01*
X107023027Y-108089193D01*
X107237045Y-108177842D01*
X107237046Y-108177843D01*
X107429654Y-108306539D01*
X107593461Y-108470346D01*
X107679258Y-108598751D01*
X107722158Y-108662955D01*
X107810807Y-108876973D01*
X107856000Y-109104174D01*
X107856000Y-109335826D01*
X107810807Y-109563027D01*
X107722158Y-109777045D01*
X107722157Y-109777046D01*
X107593461Y-109969654D01*
X107429654Y-110133461D01*
X107301249Y-110219258D01*
X107237045Y-110262158D01*
X107023027Y-110350807D01*
X106871560Y-110380936D01*
X106795827Y-110396000D01*
X106564173Y-110396000D01*
X106488440Y-110380936D01*
X106336973Y-110350807D01*
X106122955Y-110262158D01*
X106058751Y-110219258D01*
X105930346Y-110133461D01*
X105766539Y-109969654D01*
X105637843Y-109777046D01*
X105637842Y-109777045D01*
X105549193Y-109563027D01*
X105504000Y-109335826D01*
X105504000Y-109104174D01*
X105549193Y-108876973D01*
X105637842Y-108662955D01*
X105680742Y-108598751D01*
X105766539Y-108470346D01*
X105930346Y-108306539D01*
X106122954Y-108177843D01*
X106122955Y-108177842D01*
X106336973Y-108089193D01*
X106488440Y-108059064D01*
X106564173Y-108044000D01*
X106795827Y-108044000D01*
X106871560Y-108059064D01*
X106871560Y-108059064D01*
G37*
G36*
X108132021Y-100811640D02*
G01*
X108641769Y-101022785D01*
X108641771Y-101022786D01*
X109100534Y-101329321D01*
X109490679Y-101719466D01*
X109797214Y-102178229D01*
X109797215Y-102178231D01*
X110008360Y-102687979D01*
X110116000Y-103229124D01*
X110116000Y-103780876D01*
X110008360Y-104322021D01*
X109797215Y-104831769D01*
X109797214Y-104831771D01*
X109490679Y-105290534D01*
X109100534Y-105680679D01*
X108641771Y-105987214D01*
X108641770Y-105987215D01*
X108641769Y-105987215D01*
X108132021Y-106198360D01*
X107590876Y-106306000D01*
X107039124Y-106306000D01*
X106497979Y-106198360D01*
X105988231Y-105987215D01*
X105988230Y-105987215D01*
X105988229Y-105987214D01*
X105529466Y-105680679D01*
X105139321Y-105290534D01*
X104832786Y-104831771D01*
X104832785Y-104831769D01*
X104621640Y-104322021D01*
X104514000Y-103780876D01*
X104514000Y-103229124D01*
X104621640Y-102687979D01*
X104832785Y-102178231D01*
X104832786Y-102178229D01*
X105139321Y-101719466D01*
X105529466Y-101329321D01*
X105988229Y-101022786D01*
X105988231Y-101022785D01*
X106497979Y-100811640D01*
X107039124Y-100704000D01*
X107590876Y-100704000D01*
X108132021Y-100811640D01*
X108132021Y-100811640D01*
G37*
G36*
X157662021Y-100811640D02*
G01*
X158171769Y-101022785D01*
X158171771Y-101022786D01*
X158630534Y-101329321D01*
X159020679Y-101719466D01*
X159327214Y-102178229D01*
X159327215Y-102178231D01*
X159538360Y-102687979D01*
X159646000Y-103229124D01*
X159646000Y-103780876D01*
X159538360Y-104322021D01*
X159327215Y-104831769D01*
X159327214Y-104831771D01*
X159020679Y-105290534D01*
X158630534Y-105680679D01*
X158171771Y-105987214D01*
X158171770Y-105987215D01*
X158171769Y-105987215D01*
X157662021Y-106198360D01*
X157120876Y-106306000D01*
X156569124Y-106306000D01*
X156027979Y-106198360D01*
X155518231Y-105987215D01*
X155518230Y-105987215D01*
X155518229Y-105987214D01*
X155059466Y-105680679D01*
X154669321Y-105290534D01*
X154362786Y-104831771D01*
X154362785Y-104831769D01*
X154151640Y-104322021D01*
X154044000Y-103780876D01*
X154044000Y-103229124D01*
X154151640Y-102687979D01*
X154362785Y-102178231D01*
X154362786Y-102178229D01*
X154669321Y-101719466D01*
X155059466Y-101329321D01*
X155518229Y-101022786D01*
X155518231Y-101022785D01*
X156027979Y-100811640D01*
X156569124Y-100704000D01*
X157120876Y-100704000D01*
X157662021Y-100811640D01*
X157662021Y-100811640D01*
G37*
G36*
X132346000Y-104406000D02*
G01*
X130544000Y-104406000D01*
X130544000Y-102604000D01*
X132346000Y-102604000D01*
X132346000Y-104406000D01*
X132346000Y-104406000D01*
G37*
G36*
X134095442Y-102610518D02*
G01*
X134161627Y-102617037D01*
X134331466Y-102668557D01*
X134487991Y-102752222D01*
X134523729Y-102781552D01*
X134625186Y-102864814D01*
X134708448Y-102966271D01*
X134737778Y-103002009D01*
X134821443Y-103158534D01*
X134872963Y-103328373D01*
X134890359Y-103505000D01*
X134872963Y-103681627D01*
X134821443Y-103851466D01*
X134737778Y-104007991D01*
X134708448Y-104043729D01*
X134625186Y-104145186D01*
X134523729Y-104228448D01*
X134487991Y-104257778D01*
X134331466Y-104341443D01*
X134161627Y-104392963D01*
X134095442Y-104399482D01*
X134029260Y-104406000D01*
X133940740Y-104406000D01*
X133874558Y-104399482D01*
X133808373Y-104392963D01*
X133638534Y-104341443D01*
X133482009Y-104257778D01*
X133446271Y-104228448D01*
X133344814Y-104145186D01*
X133261552Y-104043729D01*
X133232222Y-104007991D01*
X133148557Y-103851466D01*
X133097037Y-103681627D01*
X133079641Y-103505000D01*
X133097037Y-103328373D01*
X133148557Y-103158534D01*
X133232222Y-103002009D01*
X133261552Y-102966271D01*
X133344814Y-102864814D01*
X133446271Y-102781552D01*
X133482009Y-102752222D01*
X133638534Y-102668557D01*
X133808373Y-102617037D01*
X133874558Y-102610518D01*
X133940740Y-102604000D01*
X134029260Y-102604000D01*
X134095442Y-102610518D01*
X134095442Y-102610518D01*
G37*
G36*
X136635442Y-102610518D02*
G01*
X136701627Y-102617037D01*
X136871466Y-102668557D01*
X137027991Y-102752222D01*
X137063729Y-102781552D01*
X137165186Y-102864814D01*
X137248448Y-102966271D01*
X137277778Y-103002009D01*
X137361443Y-103158534D01*
X137412963Y-103328373D01*
X137430359Y-103505000D01*
X137412963Y-103681627D01*
X137361443Y-103851466D01*
X137277778Y-104007991D01*
X137248448Y-104043729D01*
X137165186Y-104145186D01*
X137063729Y-104228448D01*
X137027991Y-104257778D01*
X136871466Y-104341443D01*
X136701627Y-104392963D01*
X136635442Y-104399482D01*
X136569260Y-104406000D01*
X136480740Y-104406000D01*
X136414558Y-104399482D01*
X136348373Y-104392963D01*
X136178534Y-104341443D01*
X136022009Y-104257778D01*
X135986271Y-104228448D01*
X135884814Y-104145186D01*
X135801552Y-104043729D01*
X135772222Y-104007991D01*
X135688557Y-103851466D01*
X135637037Y-103681627D01*
X135619641Y-103505000D01*
X135637037Y-103328373D01*
X135688557Y-103158534D01*
X135772222Y-103002009D01*
X135801552Y-102966271D01*
X135884814Y-102864814D01*
X135986271Y-102781552D01*
X136022009Y-102752222D01*
X136178534Y-102668557D01*
X136348373Y-102617037D01*
X136414558Y-102610518D01*
X136480740Y-102604000D01*
X136569260Y-102604000D01*
X136635442Y-102610518D01*
X136635442Y-102610518D01*
G37*
M02*
