G04 #@! TF.GenerationSoftware,KiCad,Pcbnew,(5.1.2)-2*
G04 #@! TF.CreationDate,2019-07-08T11:12:43+08:00*
G04 #@! TF.ProjectId,eval-board-ADA4817-1,6576616c-2d62-46f6-9172-642d41444134,rev?*
G04 #@! TF.SameCoordinates,Original*
G04 #@! TF.FileFunction,Legend,Top*
G04 #@! TF.FilePolarity,Positive*
%FSLAX46Y46*%
G04 Gerber Fmt 4.6, Leading zero omitted, Abs format (unit mm)*
G04 Created by KiCad (PCBNEW (5.1.2)-2) date 2019-07-08 11:12:43*
%MOMM*%
%LPD*%
G04 APERTURE LIST*
%ADD10C,0.120000*%
%ADD11C,0.150000*%
G04 APERTURE END LIST*
D10*
X146050000Y-125750000D02*
X148000000Y-125750000D01*
X146050000Y-125750000D02*
X144100000Y-125750000D01*
X146050000Y-120630000D02*
X148000000Y-120630000D01*
X146050000Y-120630000D02*
X142600000Y-120630000D01*
X130935000Y-122091267D02*
X130935000Y-121748733D01*
X131955000Y-122091267D02*
X131955000Y-121748733D01*
X131445000Y-132655000D02*
X132775000Y-132655000D01*
X132775000Y-132655000D02*
X132775000Y-133985000D01*
X132775000Y-135195000D02*
X132775000Y-135315000D01*
X130115000Y-135195000D02*
X130115000Y-135315000D01*
X130115000Y-135315000D02*
X132775000Y-135315000D01*
X161925000Y-127575000D02*
X163255000Y-127575000D01*
X163255000Y-127575000D02*
X163255000Y-128905000D01*
X163255000Y-130115000D02*
X163255000Y-130235000D01*
X160595000Y-130115000D02*
X160595000Y-130235000D01*
X160595000Y-130235000D02*
X163255000Y-130235000D01*
X166050000Y-128905000D02*
G75*
G03X166050000Y-128905000I-950000J0D01*
G01*
X128585000Y-133985000D02*
G75*
G03X128585000Y-133985000I-950000J0D01*
G01*
X140315000Y-101045000D02*
X140315000Y-107015000D01*
X140315000Y-107015000D02*
X150435000Y-107015000D01*
X150435000Y-107015000D02*
X150435000Y-101045000D01*
X150435000Y-101045000D02*
X140315000Y-101045000D01*
X143625000Y-101055000D02*
X143625000Y-101805000D01*
X143625000Y-101805000D02*
X147125000Y-101805000D01*
X147125000Y-101805000D02*
X147125000Y-101055000D01*
X147125000Y-101055000D02*
X143625000Y-101055000D01*
X140325000Y-101055000D02*
X140325000Y-101805000D01*
X140325000Y-101805000D02*
X142125000Y-101805000D01*
X142125000Y-101805000D02*
X142125000Y-101055000D01*
X142125000Y-101055000D02*
X140325000Y-101055000D01*
X148625000Y-101055000D02*
X148625000Y-101805000D01*
X148625000Y-101805000D02*
X150425000Y-101805000D01*
X150425000Y-101805000D02*
X150425000Y-101055000D01*
X150425000Y-101055000D02*
X148625000Y-101055000D01*
X140325000Y-103305000D02*
X141075000Y-103305000D01*
X141075000Y-103305000D02*
X141075000Y-106255000D01*
X141075000Y-106255000D02*
X145375000Y-106255000D01*
X150425000Y-103305000D02*
X149675000Y-103305000D01*
X149675000Y-103305000D02*
X149675000Y-106255000D01*
X149675000Y-106255000D02*
X145375000Y-106255000D01*
X141275000Y-100755000D02*
X140025000Y-100755000D01*
X140025000Y-100755000D02*
X140025000Y-102005000D01*
X147190000Y-129175000D02*
X149990000Y-129175000D01*
X149990000Y-129175000D02*
X149990000Y-131175000D01*
X149990000Y-131175000D02*
X147190000Y-131175000D01*
X147190000Y-131175000D02*
X147190000Y-129175000D01*
X156038733Y-118870000D02*
X156381267Y-118870000D01*
X156038733Y-119890000D02*
X156381267Y-119890000D01*
X155111267Y-111250000D02*
X154768733Y-111250000D01*
X155111267Y-112270000D02*
X154768733Y-112270000D01*
X138555000Y-121748733D02*
X138555000Y-122091267D01*
X139575000Y-121748733D02*
X139575000Y-122091267D01*
X157690000Y-107220000D02*
X157690000Y-106720000D01*
X157940000Y-106970000D02*
X157440000Y-106970000D01*
X157200000Y-104214437D02*
X156135563Y-103150000D01*
X157200000Y-106605563D02*
X156135563Y-107670000D01*
X157200000Y-106605563D02*
X157200000Y-106470000D01*
X157200000Y-104214437D02*
X157200000Y-104350000D01*
X156135563Y-103150000D02*
X152680000Y-103150000D01*
X156135563Y-107670000D02*
X152680000Y-107670000D01*
X152680000Y-107670000D02*
X152680000Y-106470000D01*
X152680000Y-103150000D02*
X152680000Y-104350000D01*
X153498733Y-127760000D02*
X153841267Y-127760000D01*
X153498733Y-128780000D02*
X153841267Y-128780000D01*
X146560000Y-134156267D02*
X146560000Y-133813733D01*
X145540000Y-134156267D02*
X145540000Y-133813733D01*
X130685000Y-106508733D02*
X130685000Y-106851267D01*
X129665000Y-106508733D02*
X129665000Y-106851267D01*
X144020000Y-133813733D02*
X144020000Y-134156267D01*
X143000000Y-133813733D02*
X143000000Y-134156267D01*
X142411267Y-129665000D02*
X142068733Y-129665000D01*
X142411267Y-130685000D02*
X142068733Y-130685000D01*
X137515000Y-101880000D02*
X136315000Y-101880000D01*
X132995000Y-101880000D02*
X134195000Y-101880000D01*
X132995000Y-105335563D02*
X132995000Y-101880000D01*
X137515000Y-105335563D02*
X137515000Y-101880000D01*
X136450563Y-106400000D02*
X136315000Y-106400000D01*
X134059437Y-106400000D02*
X134195000Y-106400000D01*
X134059437Y-106400000D02*
X132995000Y-105335563D01*
X136450563Y-106400000D02*
X137515000Y-105335563D01*
X133695000Y-107140000D02*
X133695000Y-106640000D01*
X133445000Y-106890000D02*
X133945000Y-106890000D01*
X121740000Y-112850000D02*
X121740000Y-115750000D01*
X128450000Y-112850000D02*
X128450000Y-115750000D01*
X123645000Y-117655000D02*
X126545000Y-117655000D01*
X123645000Y-110945000D02*
X126545000Y-110945000D01*
X121740000Y-125550000D02*
X121740000Y-128450000D01*
X128450000Y-125550000D02*
X128450000Y-128450000D01*
X123645000Y-130355000D02*
X126545000Y-130355000D01*
X123645000Y-123645000D02*
X126545000Y-123645000D01*
X165555000Y-119200000D02*
X168455000Y-119200000D01*
X165555000Y-125910000D02*
X168455000Y-125910000D01*
X170360000Y-121105000D02*
X170360000Y-124005000D01*
X163650000Y-121105000D02*
X163650000Y-124005000D01*
X141905000Y-118255000D02*
X141305000Y-118255000D01*
X142605000Y-114805000D02*
X142605000Y-117605000D01*
X141305000Y-114155000D02*
X141905000Y-114155000D01*
X140605000Y-117605000D02*
X140605000Y-114805000D01*
X140605000Y-114855000D02*
G75*
G02X141305000Y-114155000I700000J0D01*
G01*
X141905000Y-114155000D02*
G75*
G02X142605000Y-114855000I0J-700000D01*
G01*
X142605000Y-117555000D02*
G75*
G02X141905000Y-118255000I-700000J0D01*
G01*
X141305000Y-118255000D02*
G75*
G02X140605000Y-117555000I0J700000D01*
G01*
X152910000Y-120186267D02*
X152910000Y-119843733D01*
X151890000Y-120186267D02*
X151890000Y-119843733D01*
X134495000Y-126776267D02*
X134495000Y-126433733D01*
X133475000Y-126776267D02*
X133475000Y-126433733D01*
X137035000Y-126193733D02*
X137035000Y-126536267D01*
X136015000Y-126193733D02*
X136015000Y-126536267D01*
X133475000Y-122091267D02*
X133475000Y-121748733D01*
X134495000Y-122091267D02*
X134495000Y-121748733D01*
X136781000Y-122091267D02*
X136781000Y-121748733D01*
X135761000Y-122091267D02*
X135761000Y-121748733D01*
X139575000Y-126193733D02*
X139575000Y-126536267D01*
X138555000Y-126193733D02*
X138555000Y-126536267D01*
X151890000Y-124631267D02*
X151890000Y-124288733D01*
X152910000Y-124631267D02*
X152910000Y-124288733D01*
X148080000Y-133813733D02*
X148080000Y-134156267D01*
X149100000Y-133813733D02*
X149100000Y-134156267D01*
X156085000Y-124631267D02*
X156085000Y-124288733D01*
X155065000Y-124631267D02*
X155065000Y-124288733D01*
X158240000Y-124631267D02*
X158240000Y-124288733D01*
X159260000Y-124631267D02*
X159260000Y-124288733D01*
X136988733Y-119255000D02*
X137331267Y-119255000D01*
X136988733Y-118235000D02*
X137331267Y-118235000D01*
X136988733Y-115695000D02*
X137331267Y-115695000D01*
X136988733Y-116715000D02*
X137331267Y-116715000D01*
X137331267Y-113155000D02*
X136988733Y-113155000D01*
X137331267Y-114175000D02*
X136988733Y-114175000D01*
X137795000Y-111820000D02*
X137795000Y-109160000D01*
X137795000Y-111820000D02*
X142935000Y-111820000D01*
X142935000Y-111820000D02*
X142935000Y-109160000D01*
X137795000Y-109160000D02*
X142935000Y-109160000D01*
X135195000Y-109160000D02*
X136525000Y-109160000D01*
X135195000Y-110490000D02*
X135195000Y-109160000D01*
D11*
X145288095Y-119242380D02*
X145288095Y-120051904D01*
X145335714Y-120147142D01*
X145383333Y-120194761D01*
X145478571Y-120242380D01*
X145669047Y-120242380D01*
X145764285Y-120194761D01*
X145811904Y-120147142D01*
X145859523Y-120051904D01*
X145859523Y-119242380D01*
X146859523Y-120242380D02*
X146288095Y-120242380D01*
X146573809Y-120242380D02*
X146573809Y-119242380D01*
X146478571Y-119385238D01*
X146383333Y-119480476D01*
X146288095Y-119528095D01*
X130467380Y-122086666D02*
X129991190Y-122420000D01*
X130467380Y-122658095D02*
X129467380Y-122658095D01*
X129467380Y-122277142D01*
X129515000Y-122181904D01*
X129562619Y-122134285D01*
X129657857Y-122086666D01*
X129800714Y-122086666D01*
X129895952Y-122134285D01*
X129943571Y-122181904D01*
X129991190Y-122277142D01*
X129991190Y-122658095D01*
X129562619Y-121705714D02*
X129515000Y-121658095D01*
X129467380Y-121562857D01*
X129467380Y-121324761D01*
X129515000Y-121229523D01*
X129562619Y-121181904D01*
X129657857Y-121134285D01*
X129753095Y-121134285D01*
X129895952Y-121181904D01*
X130467380Y-121753333D01*
X130467380Y-121134285D01*
X130683095Y-130715000D02*
X130587857Y-130667380D01*
X130445000Y-130667380D01*
X130302142Y-130715000D01*
X130206904Y-130810238D01*
X130159285Y-130905476D01*
X130111666Y-131095952D01*
X130111666Y-131238809D01*
X130159285Y-131429285D01*
X130206904Y-131524523D01*
X130302142Y-131619761D01*
X130445000Y-131667380D01*
X130540238Y-131667380D01*
X130683095Y-131619761D01*
X130730714Y-131572142D01*
X130730714Y-131238809D01*
X130540238Y-131238809D01*
X131159285Y-131667380D02*
X131159285Y-130667380D01*
X131730714Y-131667380D01*
X131730714Y-130667380D01*
X132206904Y-131667380D02*
X132206904Y-130667380D01*
X132445000Y-130667380D01*
X132587857Y-130715000D01*
X132683095Y-130810238D01*
X132730714Y-130905476D01*
X132778333Y-131095952D01*
X132778333Y-131238809D01*
X132730714Y-131429285D01*
X132683095Y-131524523D01*
X132587857Y-131619761D01*
X132445000Y-131667380D01*
X132206904Y-131667380D01*
X161163095Y-130945000D02*
X161067857Y-130897380D01*
X160925000Y-130897380D01*
X160782142Y-130945000D01*
X160686904Y-131040238D01*
X160639285Y-131135476D01*
X160591666Y-131325952D01*
X160591666Y-131468809D01*
X160639285Y-131659285D01*
X160686904Y-131754523D01*
X160782142Y-131849761D01*
X160925000Y-131897380D01*
X161020238Y-131897380D01*
X161163095Y-131849761D01*
X161210714Y-131802142D01*
X161210714Y-131468809D01*
X161020238Y-131468809D01*
X161639285Y-131897380D02*
X161639285Y-130897380D01*
X162210714Y-131897380D01*
X162210714Y-130897380D01*
X162686904Y-131897380D02*
X162686904Y-130897380D01*
X162925000Y-130897380D01*
X163067857Y-130945000D01*
X163163095Y-131040238D01*
X163210714Y-131135476D01*
X163258333Y-131325952D01*
X163258333Y-131468809D01*
X163210714Y-131659285D01*
X163163095Y-131754523D01*
X163067857Y-131849761D01*
X162925000Y-131897380D01*
X162686904Y-131897380D01*
X164473095Y-130262380D02*
X165044523Y-130262380D01*
X164758809Y-131262380D02*
X164758809Y-130262380D01*
X165377857Y-131262380D02*
X165377857Y-130262380D01*
X165758809Y-130262380D01*
X165854047Y-130310000D01*
X165901666Y-130357619D01*
X165949285Y-130452857D01*
X165949285Y-130595714D01*
X165901666Y-130690952D01*
X165854047Y-130738571D01*
X165758809Y-130786190D01*
X165377857Y-130786190D01*
X166330238Y-130357619D02*
X166377857Y-130310000D01*
X166473095Y-130262380D01*
X166711190Y-130262380D01*
X166806428Y-130310000D01*
X166854047Y-130357619D01*
X166901666Y-130452857D01*
X166901666Y-130548095D01*
X166854047Y-130690952D01*
X166282619Y-131262380D01*
X166901666Y-131262380D01*
X125103095Y-131789380D02*
X125674523Y-131789380D01*
X125388809Y-132789380D02*
X125388809Y-131789380D01*
X126007857Y-132789380D02*
X126007857Y-131789380D01*
X126388809Y-131789380D01*
X126484047Y-131837000D01*
X126531666Y-131884619D01*
X126579285Y-131979857D01*
X126579285Y-132122714D01*
X126531666Y-132217952D01*
X126484047Y-132265571D01*
X126388809Y-132313190D01*
X126007857Y-132313190D01*
X127531666Y-132789380D02*
X126960238Y-132789380D01*
X127245952Y-132789380D02*
X127245952Y-131789380D01*
X127150714Y-131932238D01*
X127055476Y-132027476D01*
X126960238Y-132075095D01*
X140422619Y-99407380D02*
X140755952Y-100407380D01*
X141089285Y-99407380D01*
X141422619Y-99883571D02*
X141755952Y-99883571D01*
X141898809Y-100407380D02*
X141422619Y-100407380D01*
X141422619Y-99407380D01*
X141898809Y-99407380D01*
X142327380Y-99883571D02*
X142660714Y-99883571D01*
X142803571Y-100407380D02*
X142327380Y-100407380D01*
X142327380Y-99407380D01*
X142803571Y-99407380D01*
X144517857Y-99455000D02*
X144422619Y-99407380D01*
X144279761Y-99407380D01*
X144136904Y-99455000D01*
X144041666Y-99550238D01*
X143994047Y-99645476D01*
X143946428Y-99835952D01*
X143946428Y-99978809D01*
X143994047Y-100169285D01*
X144041666Y-100264523D01*
X144136904Y-100359761D01*
X144279761Y-100407380D01*
X144375000Y-100407380D01*
X144517857Y-100359761D01*
X144565476Y-100312142D01*
X144565476Y-99978809D01*
X144375000Y-99978809D01*
X144994047Y-100407380D02*
X144994047Y-99407380D01*
X145565476Y-100407380D01*
X145565476Y-99407380D01*
X146041666Y-100407380D02*
X146041666Y-99407380D01*
X146279761Y-99407380D01*
X146422619Y-99455000D01*
X146517857Y-99550238D01*
X146565476Y-99645476D01*
X146613095Y-99835952D01*
X146613095Y-99978809D01*
X146565476Y-100169285D01*
X146517857Y-100264523D01*
X146422619Y-100359761D01*
X146279761Y-100407380D01*
X146041666Y-100407380D01*
X147660714Y-99407380D02*
X147994047Y-100407380D01*
X148327380Y-99407380D01*
X149232142Y-100312142D02*
X149184523Y-100359761D01*
X149041666Y-100407380D01*
X148946428Y-100407380D01*
X148803571Y-100359761D01*
X148708333Y-100264523D01*
X148660714Y-100169285D01*
X148613095Y-99978809D01*
X148613095Y-99835952D01*
X148660714Y-99645476D01*
X148708333Y-99550238D01*
X148803571Y-99455000D01*
X148946428Y-99407380D01*
X149041666Y-99407380D01*
X149184523Y-99455000D01*
X149232142Y-99502619D01*
X150232142Y-100312142D02*
X150184523Y-100359761D01*
X150041666Y-100407380D01*
X149946428Y-100407380D01*
X149803571Y-100359761D01*
X149708333Y-100264523D01*
X149660714Y-100169285D01*
X149613095Y-99978809D01*
X149613095Y-99835952D01*
X149660714Y-99645476D01*
X149708333Y-99550238D01*
X149803571Y-99455000D01*
X149946428Y-99407380D01*
X150041666Y-99407380D01*
X150184523Y-99455000D01*
X150232142Y-99502619D01*
X147756666Y-127827380D02*
X147756666Y-128541666D01*
X147709047Y-128684523D01*
X147613809Y-128779761D01*
X147470952Y-128827380D01*
X147375714Y-128827380D01*
X148232857Y-128827380D02*
X148232857Y-127827380D01*
X148613809Y-127827380D01*
X148709047Y-127875000D01*
X148756666Y-127922619D01*
X148804285Y-128017857D01*
X148804285Y-128160714D01*
X148756666Y-128255952D01*
X148709047Y-128303571D01*
X148613809Y-128351190D01*
X148232857Y-128351190D01*
X149756666Y-128827380D02*
X149185238Y-128827380D01*
X149470952Y-128827380D02*
X149470952Y-127827380D01*
X149375714Y-127970238D01*
X149280476Y-128065476D01*
X149185238Y-128113095D01*
X156043333Y-118307142D02*
X155995714Y-118354761D01*
X155852857Y-118402380D01*
X155757619Y-118402380D01*
X155614761Y-118354761D01*
X155519523Y-118259523D01*
X155471904Y-118164285D01*
X155424285Y-117973809D01*
X155424285Y-117830952D01*
X155471904Y-117640476D01*
X155519523Y-117545238D01*
X155614761Y-117450000D01*
X155757619Y-117402380D01*
X155852857Y-117402380D01*
X155995714Y-117450000D01*
X156043333Y-117497619D01*
X156995714Y-118402380D02*
X156424285Y-118402380D01*
X156710000Y-118402380D02*
X156710000Y-117402380D01*
X156614761Y-117545238D01*
X156519523Y-117640476D01*
X156424285Y-117688095D01*
X154773333Y-113547142D02*
X154725714Y-113594761D01*
X154582857Y-113642380D01*
X154487619Y-113642380D01*
X154344761Y-113594761D01*
X154249523Y-113499523D01*
X154201904Y-113404285D01*
X154154285Y-113213809D01*
X154154285Y-113070952D01*
X154201904Y-112880476D01*
X154249523Y-112785238D01*
X154344761Y-112690000D01*
X154487619Y-112642380D01*
X154582857Y-112642380D01*
X154725714Y-112690000D01*
X154773333Y-112737619D01*
X155154285Y-112737619D02*
X155201904Y-112690000D01*
X155297142Y-112642380D01*
X155535238Y-112642380D01*
X155630476Y-112690000D01*
X155678095Y-112737619D01*
X155725714Y-112832857D01*
X155725714Y-112928095D01*
X155678095Y-113070952D01*
X155106666Y-113642380D01*
X155725714Y-113642380D01*
X140852142Y-122086666D02*
X140899761Y-122134285D01*
X140947380Y-122277142D01*
X140947380Y-122372380D01*
X140899761Y-122515238D01*
X140804523Y-122610476D01*
X140709285Y-122658095D01*
X140518809Y-122705714D01*
X140375952Y-122705714D01*
X140185476Y-122658095D01*
X140090238Y-122610476D01*
X139995000Y-122515238D01*
X139947380Y-122372380D01*
X139947380Y-122277142D01*
X139995000Y-122134285D01*
X140042619Y-122086666D01*
X139947380Y-121753333D02*
X139947380Y-121134285D01*
X140328333Y-121467619D01*
X140328333Y-121324761D01*
X140375952Y-121229523D01*
X140423571Y-121181904D01*
X140518809Y-121134285D01*
X140756904Y-121134285D01*
X140852142Y-121181904D01*
X140899761Y-121229523D01*
X140947380Y-121324761D01*
X140947380Y-121610476D01*
X140899761Y-121705714D01*
X140852142Y-121753333D01*
X154773333Y-108967142D02*
X154725714Y-109014761D01*
X154582857Y-109062380D01*
X154487619Y-109062380D01*
X154344761Y-109014761D01*
X154249523Y-108919523D01*
X154201904Y-108824285D01*
X154154285Y-108633809D01*
X154154285Y-108490952D01*
X154201904Y-108300476D01*
X154249523Y-108205238D01*
X154344761Y-108110000D01*
X154487619Y-108062380D01*
X154582857Y-108062380D01*
X154725714Y-108110000D01*
X154773333Y-108157619D01*
X155630476Y-108395714D02*
X155630476Y-109062380D01*
X155392380Y-108014761D02*
X155154285Y-108729047D01*
X155773333Y-108729047D01*
X153503333Y-127197142D02*
X153455714Y-127244761D01*
X153312857Y-127292380D01*
X153217619Y-127292380D01*
X153074761Y-127244761D01*
X152979523Y-127149523D01*
X152931904Y-127054285D01*
X152884285Y-126863809D01*
X152884285Y-126720952D01*
X152931904Y-126530476D01*
X152979523Y-126435238D01*
X153074761Y-126340000D01*
X153217619Y-126292380D01*
X153312857Y-126292380D01*
X153455714Y-126340000D01*
X153503333Y-126387619D01*
X154408095Y-126292380D02*
X153931904Y-126292380D01*
X153884285Y-126768571D01*
X153931904Y-126720952D01*
X154027142Y-126673333D01*
X154265238Y-126673333D01*
X154360476Y-126720952D01*
X154408095Y-126768571D01*
X154455714Y-126863809D01*
X154455714Y-127101904D01*
X154408095Y-127197142D01*
X154360476Y-127244761D01*
X154265238Y-127292380D01*
X154027142Y-127292380D01*
X153931904Y-127244761D01*
X153884285Y-127197142D01*
X144977142Y-134151666D02*
X145024761Y-134199285D01*
X145072380Y-134342142D01*
X145072380Y-134437380D01*
X145024761Y-134580238D01*
X144929523Y-134675476D01*
X144834285Y-134723095D01*
X144643809Y-134770714D01*
X144500952Y-134770714D01*
X144310476Y-134723095D01*
X144215238Y-134675476D01*
X144120000Y-134580238D01*
X144072380Y-134437380D01*
X144072380Y-134342142D01*
X144120000Y-134199285D01*
X144167619Y-134151666D01*
X144072380Y-133294523D02*
X144072380Y-133485000D01*
X144120000Y-133580238D01*
X144167619Y-133627857D01*
X144310476Y-133723095D01*
X144500952Y-133770714D01*
X144881904Y-133770714D01*
X144977142Y-133723095D01*
X145024761Y-133675476D01*
X145072380Y-133580238D01*
X145072380Y-133389761D01*
X145024761Y-133294523D01*
X144977142Y-133246904D01*
X144881904Y-133199285D01*
X144643809Y-133199285D01*
X144548571Y-133246904D01*
X144500952Y-133294523D01*
X144453333Y-133389761D01*
X144453333Y-133580238D01*
X144500952Y-133675476D01*
X144548571Y-133723095D01*
X144643809Y-133770714D01*
X131962142Y-106846666D02*
X132009761Y-106894285D01*
X132057380Y-107037142D01*
X132057380Y-107132380D01*
X132009761Y-107275238D01*
X131914523Y-107370476D01*
X131819285Y-107418095D01*
X131628809Y-107465714D01*
X131485952Y-107465714D01*
X131295476Y-107418095D01*
X131200238Y-107370476D01*
X131105000Y-107275238D01*
X131057380Y-107132380D01*
X131057380Y-107037142D01*
X131105000Y-106894285D01*
X131152619Y-106846666D01*
X131057380Y-106513333D02*
X131057380Y-105846666D01*
X132057380Y-106275238D01*
X145297142Y-134151666D02*
X145344761Y-134199285D01*
X145392380Y-134342142D01*
X145392380Y-134437380D01*
X145344761Y-134580238D01*
X145249523Y-134675476D01*
X145154285Y-134723095D01*
X144963809Y-134770714D01*
X144820952Y-134770714D01*
X144630476Y-134723095D01*
X144535238Y-134675476D01*
X144440000Y-134580238D01*
X144392380Y-134437380D01*
X144392380Y-134342142D01*
X144440000Y-134199285D01*
X144487619Y-134151666D01*
X144820952Y-133580238D02*
X144773333Y-133675476D01*
X144725714Y-133723095D01*
X144630476Y-133770714D01*
X144582857Y-133770714D01*
X144487619Y-133723095D01*
X144440000Y-133675476D01*
X144392380Y-133580238D01*
X144392380Y-133389761D01*
X144440000Y-133294523D01*
X144487619Y-133246904D01*
X144582857Y-133199285D01*
X144630476Y-133199285D01*
X144725714Y-133246904D01*
X144773333Y-133294523D01*
X144820952Y-133389761D01*
X144820952Y-133580238D01*
X144868571Y-133675476D01*
X144916190Y-133723095D01*
X145011428Y-133770714D01*
X145201904Y-133770714D01*
X145297142Y-133723095D01*
X145344761Y-133675476D01*
X145392380Y-133580238D01*
X145392380Y-133389761D01*
X145344761Y-133294523D01*
X145297142Y-133246904D01*
X145201904Y-133199285D01*
X145011428Y-133199285D01*
X144916190Y-133246904D01*
X144868571Y-133294523D01*
X144820952Y-133389761D01*
X142073333Y-131962142D02*
X142025714Y-132009761D01*
X141882857Y-132057380D01*
X141787619Y-132057380D01*
X141644761Y-132009761D01*
X141549523Y-131914523D01*
X141501904Y-131819285D01*
X141454285Y-131628809D01*
X141454285Y-131485952D01*
X141501904Y-131295476D01*
X141549523Y-131200238D01*
X141644761Y-131105000D01*
X141787619Y-131057380D01*
X141882857Y-131057380D01*
X142025714Y-131105000D01*
X142073333Y-131152619D01*
X142549523Y-132057380D02*
X142740000Y-132057380D01*
X142835238Y-132009761D01*
X142882857Y-131962142D01*
X142978095Y-131819285D01*
X143025714Y-131628809D01*
X143025714Y-131247857D01*
X142978095Y-131152619D01*
X142930476Y-131105000D01*
X142835238Y-131057380D01*
X142644761Y-131057380D01*
X142549523Y-131105000D01*
X142501904Y-131152619D01*
X142454285Y-131247857D01*
X142454285Y-131485952D01*
X142501904Y-131581190D01*
X142549523Y-131628809D01*
X142644761Y-131676428D01*
X142835238Y-131676428D01*
X142930476Y-131628809D01*
X142978095Y-131581190D01*
X143025714Y-131485952D01*
X132412142Y-104782857D02*
X132459761Y-104830476D01*
X132507380Y-104973333D01*
X132507380Y-105068571D01*
X132459761Y-105211428D01*
X132364523Y-105306666D01*
X132269285Y-105354285D01*
X132078809Y-105401904D01*
X131935952Y-105401904D01*
X131745476Y-105354285D01*
X131650238Y-105306666D01*
X131555000Y-105211428D01*
X131507380Y-105068571D01*
X131507380Y-104973333D01*
X131555000Y-104830476D01*
X131602619Y-104782857D01*
X132507380Y-103830476D02*
X132507380Y-104401904D01*
X132507380Y-104116190D02*
X131507380Y-104116190D01*
X131650238Y-104211428D01*
X131745476Y-104306666D01*
X131793095Y-104401904D01*
X131507380Y-103211428D02*
X131507380Y-103116190D01*
X131555000Y-103020952D01*
X131602619Y-102973333D01*
X131697857Y-102925714D01*
X131888333Y-102878095D01*
X132126428Y-102878095D01*
X132316904Y-102925714D01*
X132412142Y-102973333D01*
X132459761Y-103020952D01*
X132507380Y-103116190D01*
X132507380Y-103211428D01*
X132459761Y-103306666D01*
X132412142Y-103354285D01*
X132316904Y-103401904D01*
X132126428Y-103449523D01*
X131888333Y-103449523D01*
X131697857Y-103401904D01*
X131602619Y-103354285D01*
X131555000Y-103306666D01*
X131507380Y-103211428D01*
X123380714Y-109002380D02*
X123714047Y-110002380D01*
X124047380Y-109002380D01*
X124380714Y-110002380D02*
X124380714Y-109002380D01*
X124856904Y-110002380D02*
X124856904Y-109002380D01*
X125428333Y-110002380D01*
X125428333Y-109002380D01*
X125904523Y-109621428D02*
X126666428Y-109621428D01*
X123380714Y-121702380D02*
X123714047Y-122702380D01*
X124047380Y-121702380D01*
X124380714Y-122702380D02*
X124380714Y-121702380D01*
X124856904Y-122702380D02*
X124856904Y-121702380D01*
X125428333Y-122702380D01*
X125428333Y-121702380D01*
X125904523Y-122321428D02*
X126666428Y-122321428D01*
X126285476Y-122702380D02*
X126285476Y-121940476D01*
X165243095Y-117257380D02*
X165576428Y-118257380D01*
X165909761Y-117257380D01*
X166433571Y-117257380D02*
X166624047Y-117257380D01*
X166719285Y-117305000D01*
X166814523Y-117400238D01*
X166862142Y-117590714D01*
X166862142Y-117924047D01*
X166814523Y-118114523D01*
X166719285Y-118209761D01*
X166624047Y-118257380D01*
X166433571Y-118257380D01*
X166338333Y-118209761D01*
X166243095Y-118114523D01*
X166195476Y-117924047D01*
X166195476Y-117590714D01*
X166243095Y-117400238D01*
X166338333Y-117305000D01*
X166433571Y-117257380D01*
X167290714Y-117257380D02*
X167290714Y-118066904D01*
X167338333Y-118162142D01*
X167385952Y-118209761D01*
X167481190Y-118257380D01*
X167671666Y-118257380D01*
X167766904Y-118209761D01*
X167814523Y-118162142D01*
X167862142Y-118066904D01*
X167862142Y-117257380D01*
X168195476Y-117257380D02*
X168766904Y-117257380D01*
X168481190Y-118257380D02*
X168481190Y-117257380D01*
X139257380Y-117038333D02*
X139971666Y-117038333D01*
X140114523Y-117085952D01*
X140209761Y-117181190D01*
X140257380Y-117324047D01*
X140257380Y-117419285D01*
X140257380Y-116562142D02*
X139257380Y-116562142D01*
X139257380Y-116181190D01*
X139305000Y-116085952D01*
X139352619Y-116038333D01*
X139447857Y-115990714D01*
X139590714Y-115990714D01*
X139685952Y-116038333D01*
X139733571Y-116085952D01*
X139781190Y-116181190D01*
X139781190Y-116562142D01*
X140257380Y-115038333D02*
X140257380Y-115609761D01*
X140257380Y-115324047D02*
X139257380Y-115324047D01*
X139400238Y-115419285D01*
X139495476Y-115514523D01*
X139543095Y-115609761D01*
X141057380Y-113938333D02*
X141057380Y-113319285D01*
X141438333Y-113652619D01*
X141438333Y-113509761D01*
X141485952Y-113414523D01*
X141533571Y-113366904D01*
X141628809Y-113319285D01*
X141866904Y-113319285D01*
X141962142Y-113366904D01*
X142009761Y-113414523D01*
X142057380Y-113509761D01*
X142057380Y-113795476D01*
X142009761Y-113890714D01*
X141962142Y-113938333D01*
X142057380Y-118519285D02*
X142057380Y-119090714D01*
X142057380Y-118805000D02*
X141057380Y-118805000D01*
X141200238Y-118900238D01*
X141295476Y-118995476D01*
X141343095Y-119090714D01*
X151422380Y-120181666D02*
X150946190Y-120515000D01*
X151422380Y-120753095D02*
X150422380Y-120753095D01*
X150422380Y-120372142D01*
X150470000Y-120276904D01*
X150517619Y-120229285D01*
X150612857Y-120181666D01*
X150755714Y-120181666D01*
X150850952Y-120229285D01*
X150898571Y-120276904D01*
X150946190Y-120372142D01*
X150946190Y-120753095D01*
X151422380Y-119229285D02*
X151422380Y-119800714D01*
X151422380Y-119515000D02*
X150422380Y-119515000D01*
X150565238Y-119610238D01*
X150660476Y-119705476D01*
X150708095Y-119800714D01*
X133007380Y-126771666D02*
X132531190Y-127105000D01*
X133007380Y-127343095D02*
X132007380Y-127343095D01*
X132007380Y-126962142D01*
X132055000Y-126866904D01*
X132102619Y-126819285D01*
X132197857Y-126771666D01*
X132340714Y-126771666D01*
X132435952Y-126819285D01*
X132483571Y-126866904D01*
X132531190Y-126962142D01*
X132531190Y-127343095D01*
X132007380Y-126438333D02*
X132007380Y-125819285D01*
X132388333Y-126152619D01*
X132388333Y-126009761D01*
X132435952Y-125914523D01*
X132483571Y-125866904D01*
X132578809Y-125819285D01*
X132816904Y-125819285D01*
X132912142Y-125866904D01*
X132959761Y-125914523D01*
X133007380Y-126009761D01*
X133007380Y-126295476D01*
X132959761Y-126390714D01*
X132912142Y-126438333D01*
X138407380Y-126531666D02*
X137931190Y-126865000D01*
X138407380Y-127103095D02*
X137407380Y-127103095D01*
X137407380Y-126722142D01*
X137455000Y-126626904D01*
X137502619Y-126579285D01*
X137597857Y-126531666D01*
X137740714Y-126531666D01*
X137835952Y-126579285D01*
X137883571Y-126626904D01*
X137931190Y-126722142D01*
X137931190Y-127103095D01*
X137740714Y-125674523D02*
X138407380Y-125674523D01*
X137359761Y-125912619D02*
X138074047Y-126150714D01*
X138074047Y-125531666D01*
X133007380Y-122086666D02*
X132531190Y-122420000D01*
X133007380Y-122658095D02*
X132007380Y-122658095D01*
X132007380Y-122277142D01*
X132055000Y-122181904D01*
X132102619Y-122134285D01*
X132197857Y-122086666D01*
X132340714Y-122086666D01*
X132435952Y-122134285D01*
X132483571Y-122181904D01*
X132531190Y-122277142D01*
X132531190Y-122658095D01*
X132007380Y-121181904D02*
X132007380Y-121658095D01*
X132483571Y-121705714D01*
X132435952Y-121658095D01*
X132388333Y-121562857D01*
X132388333Y-121324761D01*
X132435952Y-121229523D01*
X132483571Y-121181904D01*
X132578809Y-121134285D01*
X132816904Y-121134285D01*
X132912142Y-121181904D01*
X132959761Y-121229523D01*
X133007380Y-121324761D01*
X133007380Y-121562857D01*
X132959761Y-121658095D01*
X132912142Y-121705714D01*
X135293380Y-122086666D02*
X134817190Y-122420000D01*
X135293380Y-122658095D02*
X134293380Y-122658095D01*
X134293380Y-122277142D01*
X134341000Y-122181904D01*
X134388619Y-122134285D01*
X134483857Y-122086666D01*
X134626714Y-122086666D01*
X134721952Y-122134285D01*
X134769571Y-122181904D01*
X134817190Y-122277142D01*
X134817190Y-122658095D01*
X134293380Y-121229523D02*
X134293380Y-121420000D01*
X134341000Y-121515238D01*
X134388619Y-121562857D01*
X134531476Y-121658095D01*
X134721952Y-121705714D01*
X135102904Y-121705714D01*
X135198142Y-121658095D01*
X135245761Y-121610476D01*
X135293380Y-121515238D01*
X135293380Y-121324761D01*
X135245761Y-121229523D01*
X135198142Y-121181904D01*
X135102904Y-121134285D01*
X134864809Y-121134285D01*
X134769571Y-121181904D01*
X134721952Y-121229523D01*
X134674333Y-121324761D01*
X134674333Y-121515238D01*
X134721952Y-121610476D01*
X134769571Y-121658095D01*
X134864809Y-121705714D01*
X140947380Y-126531666D02*
X140471190Y-126865000D01*
X140947380Y-127103095D02*
X139947380Y-127103095D01*
X139947380Y-126722142D01*
X139995000Y-126626904D01*
X140042619Y-126579285D01*
X140137857Y-126531666D01*
X140280714Y-126531666D01*
X140375952Y-126579285D01*
X140423571Y-126626904D01*
X140471190Y-126722142D01*
X140471190Y-127103095D01*
X139947380Y-126198333D02*
X139947380Y-125531666D01*
X140947380Y-125960238D01*
X151422380Y-124626666D02*
X150946190Y-124960000D01*
X151422380Y-125198095D02*
X150422380Y-125198095D01*
X150422380Y-124817142D01*
X150470000Y-124721904D01*
X150517619Y-124674285D01*
X150612857Y-124626666D01*
X150755714Y-124626666D01*
X150850952Y-124674285D01*
X150898571Y-124721904D01*
X150946190Y-124817142D01*
X150946190Y-125198095D01*
X151422380Y-124150476D02*
X151422380Y-123960000D01*
X151374761Y-123864761D01*
X151327142Y-123817142D01*
X151184285Y-123721904D01*
X150993809Y-123674285D01*
X150612857Y-123674285D01*
X150517619Y-123721904D01*
X150470000Y-123769523D01*
X150422380Y-123864761D01*
X150422380Y-124055238D01*
X150470000Y-124150476D01*
X150517619Y-124198095D01*
X150612857Y-124245714D01*
X150850952Y-124245714D01*
X150946190Y-124198095D01*
X150993809Y-124150476D01*
X151041428Y-124055238D01*
X151041428Y-123864761D01*
X150993809Y-123769523D01*
X150946190Y-123721904D01*
X150850952Y-123674285D01*
X150472380Y-134627857D02*
X149996190Y-134961190D01*
X150472380Y-135199285D02*
X149472380Y-135199285D01*
X149472380Y-134818333D01*
X149520000Y-134723095D01*
X149567619Y-134675476D01*
X149662857Y-134627857D01*
X149805714Y-134627857D01*
X149900952Y-134675476D01*
X149948571Y-134723095D01*
X149996190Y-134818333D01*
X149996190Y-135199285D01*
X150472380Y-133675476D02*
X150472380Y-134246904D01*
X150472380Y-133961190D02*
X149472380Y-133961190D01*
X149615238Y-134056428D01*
X149710476Y-134151666D01*
X149758095Y-134246904D01*
X149472380Y-133056428D02*
X149472380Y-132961190D01*
X149520000Y-132865952D01*
X149567619Y-132818333D01*
X149662857Y-132770714D01*
X149853333Y-132723095D01*
X150091428Y-132723095D01*
X150281904Y-132770714D01*
X150377142Y-132818333D01*
X150424761Y-132865952D01*
X150472380Y-132961190D01*
X150472380Y-133056428D01*
X150424761Y-133151666D01*
X150377142Y-133199285D01*
X150281904Y-133246904D01*
X150091428Y-133294523D01*
X149853333Y-133294523D01*
X149662857Y-133246904D01*
X149567619Y-133199285D01*
X149520000Y-133151666D01*
X149472380Y-133056428D01*
X154597380Y-125102857D02*
X154121190Y-125436190D01*
X154597380Y-125674285D02*
X153597380Y-125674285D01*
X153597380Y-125293333D01*
X153645000Y-125198095D01*
X153692619Y-125150476D01*
X153787857Y-125102857D01*
X153930714Y-125102857D01*
X154025952Y-125150476D01*
X154073571Y-125198095D01*
X154121190Y-125293333D01*
X154121190Y-125674285D01*
X154597380Y-124150476D02*
X154597380Y-124721904D01*
X154597380Y-124436190D02*
X153597380Y-124436190D01*
X153740238Y-124531428D01*
X153835476Y-124626666D01*
X153883095Y-124721904D01*
X154597380Y-123198095D02*
X154597380Y-123769523D01*
X154597380Y-123483809D02*
X153597380Y-123483809D01*
X153740238Y-123579047D01*
X153835476Y-123674285D01*
X153883095Y-123769523D01*
X157772380Y-125102857D02*
X157296190Y-125436190D01*
X157772380Y-125674285D02*
X156772380Y-125674285D01*
X156772380Y-125293333D01*
X156820000Y-125198095D01*
X156867619Y-125150476D01*
X156962857Y-125102857D01*
X157105714Y-125102857D01*
X157200952Y-125150476D01*
X157248571Y-125198095D01*
X157296190Y-125293333D01*
X157296190Y-125674285D01*
X157772380Y-124150476D02*
X157772380Y-124721904D01*
X157772380Y-124436190D02*
X156772380Y-124436190D01*
X156915238Y-124531428D01*
X157010476Y-124626666D01*
X157058095Y-124721904D01*
X156867619Y-123769523D02*
X156820000Y-123721904D01*
X156772380Y-123626666D01*
X156772380Y-123388571D01*
X156820000Y-123293333D01*
X156867619Y-123245714D01*
X156962857Y-123198095D01*
X157058095Y-123198095D01*
X157200952Y-123245714D01*
X157772380Y-123817142D01*
X157772380Y-123198095D01*
X133151666Y-118197380D02*
X133151666Y-118911666D01*
X133104047Y-119054523D01*
X133008809Y-119149761D01*
X132865952Y-119197380D01*
X132770714Y-119197380D01*
X133627857Y-119197380D02*
X133627857Y-118197380D01*
X134008809Y-118197380D01*
X134104047Y-118245000D01*
X134151666Y-118292619D01*
X134199285Y-118387857D01*
X134199285Y-118530714D01*
X134151666Y-118625952D01*
X134104047Y-118673571D01*
X134008809Y-118721190D01*
X133627857Y-118721190D01*
X135151666Y-119197380D02*
X134580238Y-119197380D01*
X134865952Y-119197380D02*
X134865952Y-118197380D01*
X134770714Y-118340238D01*
X134675476Y-118435476D01*
X134580238Y-118483095D01*
X133389761Y-116657380D02*
X133056428Y-116181190D01*
X132818333Y-116657380D02*
X132818333Y-115657380D01*
X133199285Y-115657380D01*
X133294523Y-115705000D01*
X133342142Y-115752619D01*
X133389761Y-115847857D01*
X133389761Y-115990714D01*
X133342142Y-116085952D01*
X133294523Y-116133571D01*
X133199285Y-116181190D01*
X132818333Y-116181190D01*
X134151666Y-116133571D02*
X133818333Y-116133571D01*
X133818333Y-116657380D02*
X133818333Y-115657380D01*
X134294523Y-115657380D01*
X134627857Y-115752619D02*
X134675476Y-115705000D01*
X134770714Y-115657380D01*
X135008809Y-115657380D01*
X135104047Y-115705000D01*
X135151666Y-115752619D01*
X135199285Y-115847857D01*
X135199285Y-115943095D01*
X135151666Y-116085952D01*
X134580238Y-116657380D01*
X135199285Y-116657380D01*
X133389761Y-114117380D02*
X133056428Y-113641190D01*
X132818333Y-114117380D02*
X132818333Y-113117380D01*
X133199285Y-113117380D01*
X133294523Y-113165000D01*
X133342142Y-113212619D01*
X133389761Y-113307857D01*
X133389761Y-113450714D01*
X133342142Y-113545952D01*
X133294523Y-113593571D01*
X133199285Y-113641190D01*
X132818333Y-113641190D01*
X134151666Y-113593571D02*
X133818333Y-113593571D01*
X133818333Y-114117380D02*
X133818333Y-113117380D01*
X134294523Y-113117380D01*
X134580238Y-113117380D02*
X135199285Y-113117380D01*
X134865952Y-113498333D01*
X135008809Y-113498333D01*
X135104047Y-113545952D01*
X135151666Y-113593571D01*
X135199285Y-113688809D01*
X135199285Y-113926904D01*
X135151666Y-114022142D01*
X135104047Y-114069761D01*
X135008809Y-114117380D01*
X134723095Y-114117380D01*
X134627857Y-114069761D01*
X134580238Y-114022142D01*
X134207380Y-111085238D02*
X133731190Y-111418571D01*
X134207380Y-111656666D02*
X133207380Y-111656666D01*
X133207380Y-111275714D01*
X133255000Y-111180476D01*
X133302619Y-111132857D01*
X133397857Y-111085238D01*
X133540714Y-111085238D01*
X133635952Y-111132857D01*
X133683571Y-111180476D01*
X133731190Y-111275714D01*
X133731190Y-111656666D01*
X133207380Y-110799523D02*
X134207380Y-110466190D01*
X133207380Y-110132857D01*
X134207380Y-109275714D02*
X134207380Y-109847142D01*
X134207380Y-109561428D02*
X133207380Y-109561428D01*
X133350238Y-109656666D01*
X133445476Y-109751904D01*
X133493095Y-109847142D01*
M02*
