G04 #@! TF.GenerationSoftware,KiCad,Pcbnew,(5.1.2)-2*
G04 #@! TF.CreationDate,2019-07-05T16:04:50+08:00*
G04 #@! TF.ProjectId,eval-board-ADA4817-1,6576616c-2d62-46f6-9172-642d41444134,rev?*
G04 #@! TF.SameCoordinates,Original*
G04 #@! TF.FileFunction,Copper,L2,Bot*
G04 #@! TF.FilePolarity,Positive*
%FSLAX46Y46*%
G04 Gerber Fmt 4.6, Leading zero omitted, Abs format (unit mm)*
G04 Created by KiCad (PCBNEW (5.1.2)-2) date 2019-07-05 16:04:50*
%MOMM*%
%LPD*%
G04 APERTURE LIST*
%ADD10R,1.000000X1.000000*%
%ADD11C,5.500000*%
%ADD12C,2.050000*%
%ADD13C,2.250000*%
%ADD14R,1.700000X1.700000*%
%ADD15O,1.700000X1.700000*%
%ADD16C,0.800000*%
%ADD17C,0.254000*%
G04 APERTURE END LIST*
D10*
X156210000Y-125095000D03*
X123190000Y-128905000D03*
D11*
X106680000Y-132715000D03*
X157480000Y-132080000D03*
X157480000Y-102870000D03*
X106680000Y-102870000D03*
D12*
X109220000Y-111760000D03*
D13*
X111760000Y-114300000D03*
X111760000Y-109220000D03*
X106680000Y-109220000D03*
X106680000Y-114300000D03*
D12*
X109220000Y-123825000D03*
D13*
X111760000Y-126365000D03*
X111760000Y-121285000D03*
X106680000Y-121285000D03*
X106680000Y-126365000D03*
D14*
X131445000Y-103505000D03*
D15*
X133985000Y-103505000D03*
X136525000Y-103505000D03*
D13*
X152400000Y-120650000D03*
X152400000Y-115570000D03*
X157480000Y-115570000D03*
X157480000Y-120650000D03*
D12*
X154940000Y-118110000D03*
D16*
X130175000Y-106045000D03*
X130175000Y-107950000D03*
X130175000Y-109220000D03*
X130175000Y-111760000D03*
X130175000Y-113030000D03*
X132715000Y-107315000D03*
X132715000Y-109220000D03*
X132715000Y-110490000D03*
X132715000Y-111760000D03*
X132715000Y-113665000D03*
X130175000Y-110490000D03*
X113665000Y-113665000D03*
X114935000Y-114935000D03*
X115570000Y-116205000D03*
X116840000Y-116840000D03*
X113665000Y-109855000D03*
X114935000Y-109855000D03*
X115570000Y-111125000D03*
X116840000Y-112395000D03*
X118110000Y-113665000D03*
X113665000Y-122555000D03*
X114935000Y-122555000D03*
X116205000Y-122555000D03*
X117475000Y-122555000D03*
X113665000Y-125095000D03*
X114935000Y-125095000D03*
X116205000Y-125095000D03*
X117475000Y-125095000D03*
X119380000Y-124460000D03*
X120650000Y-123825000D03*
X118745000Y-121285000D03*
X119380000Y-120650000D03*
X113665000Y-127635000D03*
X114935000Y-127635000D03*
X116205000Y-127635000D03*
X144780000Y-120650000D03*
X146050000Y-120650000D03*
X147320000Y-120650000D03*
X148590000Y-120650000D03*
X149860000Y-120650000D03*
X150177500Y-117792500D03*
X148742500Y-117957500D03*
X147472500Y-117957500D03*
X146202500Y-117957500D03*
X143510000Y-109220000D03*
X143510000Y-110490000D03*
X143510000Y-111760000D03*
X143933750Y-113453750D03*
X140970000Y-113030000D03*
X140970000Y-111760000D03*
X140970000Y-110490000D03*
X133985000Y-114935000D03*
X135255000Y-114300000D03*
X135890000Y-113665000D03*
X127635000Y-114935000D03*
X128905000Y-114935000D03*
X130175000Y-114935000D03*
X117475000Y-118745000D03*
X118745000Y-118745000D03*
X119938750Y-118821250D03*
X130810000Y-121285000D03*
X132080000Y-121285000D03*
X133350000Y-121285000D03*
X130175000Y-122555000D03*
X131445000Y-122555000D03*
X133350000Y-122555000D03*
X129540000Y-123825000D03*
X130810000Y-123825000D03*
X132080000Y-123825000D03*
X130175000Y-125730000D03*
X131445000Y-125730000D03*
X133350000Y-125730000D03*
X139065000Y-116205000D03*
X140335000Y-116205000D03*
X141605000Y-116205000D03*
X143135001Y-116579999D03*
X120015000Y-114300000D03*
X121285000Y-114300000D03*
X122555000Y-114300000D03*
X123825000Y-114300000D03*
X125730000Y-114300000D03*
X127000000Y-114300000D03*
X109220000Y-128270000D03*
X109855000Y-128905000D03*
X111125000Y-129540000D03*
X112395000Y-130175000D03*
X113665000Y-130175000D03*
X114935000Y-130175000D03*
X116205000Y-130175000D03*
X105410000Y-116840000D03*
X107315000Y-116840000D03*
X109220000Y-116840000D03*
X110490000Y-116840000D03*
X111760000Y-116840000D03*
X105410000Y-119380000D03*
X107315000Y-119380000D03*
X108585000Y-119380000D03*
X109855000Y-119380000D03*
X111125000Y-119380000D03*
X112395000Y-119380000D03*
X121920000Y-122555000D03*
X123190000Y-122555000D03*
X125095000Y-122555000D03*
D17*
G36*
X161163000Y-136398000D02*
G01*
X102997000Y-136398000D01*
X102997000Y-132381607D01*
X103295000Y-132381607D01*
X103295000Y-133048393D01*
X103425083Y-133702368D01*
X103680252Y-134318399D01*
X104050698Y-134872812D01*
X104522188Y-135344302D01*
X105076601Y-135714748D01*
X105692632Y-135969917D01*
X106346607Y-136100000D01*
X107013393Y-136100000D01*
X107667368Y-135969917D01*
X108283399Y-135714748D01*
X108837812Y-135344302D01*
X109309302Y-134872812D01*
X109679748Y-134318399D01*
X109934917Y-133702368D01*
X110065000Y-133048393D01*
X110065000Y-132381607D01*
X109938692Y-131746607D01*
X154095000Y-131746607D01*
X154095000Y-132413393D01*
X154225083Y-133067368D01*
X154480252Y-133683399D01*
X154850698Y-134237812D01*
X155322188Y-134709302D01*
X155876601Y-135079748D01*
X156492632Y-135334917D01*
X157146607Y-135465000D01*
X157813393Y-135465000D01*
X158467368Y-135334917D01*
X159083399Y-135079748D01*
X159637812Y-134709302D01*
X160109302Y-134237812D01*
X160479748Y-133683399D01*
X160734917Y-133067368D01*
X160865000Y-132413393D01*
X160865000Y-131746607D01*
X160734917Y-131092632D01*
X160479748Y-130476601D01*
X160109302Y-129922188D01*
X159637812Y-129450698D01*
X159083399Y-129080252D01*
X158467368Y-128825083D01*
X157813393Y-128695000D01*
X157146607Y-128695000D01*
X156492632Y-128825083D01*
X155876601Y-129080252D01*
X155322188Y-129450698D01*
X154850698Y-129922188D01*
X154480252Y-130476601D01*
X154225083Y-131092632D01*
X154095000Y-131746607D01*
X109938692Y-131746607D01*
X109934917Y-131727632D01*
X109679748Y-131111601D01*
X109309302Y-130557188D01*
X108837812Y-130085698D01*
X108283399Y-129715252D01*
X107667368Y-129460083D01*
X107390446Y-129405000D01*
X122051928Y-129405000D01*
X122064188Y-129529482D01*
X122100498Y-129649180D01*
X122159463Y-129759494D01*
X122238815Y-129856185D01*
X122335506Y-129935537D01*
X122445820Y-129994502D01*
X122565518Y-130030812D01*
X122690000Y-130043072D01*
X122904250Y-130040000D01*
X123063000Y-129881250D01*
X123063000Y-129032000D01*
X123317000Y-129032000D01*
X123317000Y-129881250D01*
X123475750Y-130040000D01*
X123690000Y-130043072D01*
X123814482Y-130030812D01*
X123934180Y-129994502D01*
X124044494Y-129935537D01*
X124141185Y-129856185D01*
X124220537Y-129759494D01*
X124279502Y-129649180D01*
X124315812Y-129529482D01*
X124328072Y-129405000D01*
X124325000Y-129190750D01*
X124166250Y-129032000D01*
X123317000Y-129032000D01*
X123063000Y-129032000D01*
X122213750Y-129032000D01*
X122055000Y-129190750D01*
X122051928Y-129405000D01*
X107390446Y-129405000D01*
X107013393Y-129330000D01*
X106346607Y-129330000D01*
X105692632Y-129460083D01*
X105076601Y-129715252D01*
X104522188Y-130085698D01*
X104050698Y-130557188D01*
X103680252Y-131111601D01*
X103425083Y-131727632D01*
X103295000Y-132381607D01*
X102997000Y-132381607D01*
X102997000Y-128405000D01*
X122051928Y-128405000D01*
X122055000Y-128619250D01*
X122213750Y-128778000D01*
X123063000Y-128778000D01*
X123063000Y-127928750D01*
X123317000Y-127928750D01*
X123317000Y-128778000D01*
X124166250Y-128778000D01*
X124325000Y-128619250D01*
X124328072Y-128405000D01*
X124315812Y-128280518D01*
X124279502Y-128160820D01*
X124220537Y-128050506D01*
X124141185Y-127953815D01*
X124044494Y-127874463D01*
X123934180Y-127815498D01*
X123814482Y-127779188D01*
X123690000Y-127766928D01*
X123475750Y-127770000D01*
X123317000Y-127928750D01*
X123063000Y-127928750D01*
X122904250Y-127770000D01*
X122690000Y-127766928D01*
X122565518Y-127779188D01*
X122445820Y-127815498D01*
X122335506Y-127874463D01*
X122238815Y-127953815D01*
X122159463Y-128050506D01*
X122100498Y-128160820D01*
X122064188Y-128280518D01*
X122051928Y-128405000D01*
X102997000Y-128405000D01*
X102997000Y-127589531D01*
X105635074Y-127589531D01*
X105745921Y-127866714D01*
X106056840Y-128020089D01*
X106391705Y-128109860D01*
X106737650Y-128132576D01*
X107081380Y-128087366D01*
X107409685Y-127975966D01*
X107614079Y-127866714D01*
X107724926Y-127589531D01*
X110715074Y-127589531D01*
X110825921Y-127866714D01*
X111136840Y-128020089D01*
X111471705Y-128109860D01*
X111817650Y-128132576D01*
X112161380Y-128087366D01*
X112489685Y-127975966D01*
X112694079Y-127866714D01*
X112804926Y-127589531D01*
X111760000Y-126544605D01*
X110715074Y-127589531D01*
X107724926Y-127589531D01*
X106680000Y-126544605D01*
X105635074Y-127589531D01*
X102997000Y-127589531D01*
X102997000Y-126422650D01*
X104912424Y-126422650D01*
X104957634Y-126766380D01*
X105069034Y-127094685D01*
X105178286Y-127299079D01*
X105455469Y-127409926D01*
X106500395Y-126365000D01*
X106859605Y-126365000D01*
X107904531Y-127409926D01*
X108181714Y-127299079D01*
X108335089Y-126988160D01*
X108424860Y-126653295D01*
X108440004Y-126422650D01*
X109992424Y-126422650D01*
X110037634Y-126766380D01*
X110149034Y-127094685D01*
X110258286Y-127299079D01*
X110535469Y-127409926D01*
X111580395Y-126365000D01*
X111939605Y-126365000D01*
X112984531Y-127409926D01*
X113261714Y-127299079D01*
X113415089Y-126988160D01*
X113504860Y-126653295D01*
X113527576Y-126307350D01*
X113482366Y-125963620D01*
X113370966Y-125635315D01*
X113349417Y-125595000D01*
X155071928Y-125595000D01*
X155084188Y-125719482D01*
X155120498Y-125839180D01*
X155179463Y-125949494D01*
X155258815Y-126046185D01*
X155355506Y-126125537D01*
X155465820Y-126184502D01*
X155585518Y-126220812D01*
X155710000Y-126233072D01*
X155924250Y-126230000D01*
X156083000Y-126071250D01*
X156083000Y-125222000D01*
X156337000Y-125222000D01*
X156337000Y-126071250D01*
X156495750Y-126230000D01*
X156710000Y-126233072D01*
X156834482Y-126220812D01*
X156954180Y-126184502D01*
X157064494Y-126125537D01*
X157161185Y-126046185D01*
X157240537Y-125949494D01*
X157299502Y-125839180D01*
X157335812Y-125719482D01*
X157348072Y-125595000D01*
X157345000Y-125380750D01*
X157186250Y-125222000D01*
X156337000Y-125222000D01*
X156083000Y-125222000D01*
X155233750Y-125222000D01*
X155075000Y-125380750D01*
X155071928Y-125595000D01*
X113349417Y-125595000D01*
X113261714Y-125430921D01*
X112984531Y-125320074D01*
X111939605Y-126365000D01*
X111580395Y-126365000D01*
X110535469Y-125320074D01*
X110258286Y-125430921D01*
X110104911Y-125741840D01*
X110015140Y-126076705D01*
X109992424Y-126422650D01*
X108440004Y-126422650D01*
X108447576Y-126307350D01*
X108402366Y-125963620D01*
X108290966Y-125635315D01*
X108181714Y-125430921D01*
X107904531Y-125320074D01*
X106859605Y-126365000D01*
X106500395Y-126365000D01*
X105455469Y-125320074D01*
X105178286Y-125430921D01*
X105024911Y-125741840D01*
X104935140Y-126076705D01*
X104912424Y-126422650D01*
X102997000Y-126422650D01*
X102997000Y-125140469D01*
X105635074Y-125140469D01*
X106680000Y-126185395D01*
X107724926Y-125140469D01*
X107614079Y-124863286D01*
X107303160Y-124709911D01*
X106968295Y-124620140D01*
X106622350Y-124597424D01*
X106278620Y-124642634D01*
X105950315Y-124754034D01*
X105745921Y-124863286D01*
X105635074Y-125140469D01*
X102997000Y-125140469D01*
X102997000Y-123661504D01*
X107560000Y-123661504D01*
X107560000Y-123988496D01*
X107623793Y-124309204D01*
X107748927Y-124611305D01*
X107930594Y-124883188D01*
X108161812Y-125114406D01*
X108433695Y-125296073D01*
X108735796Y-125421207D01*
X109056504Y-125485000D01*
X109383496Y-125485000D01*
X109704204Y-125421207D01*
X110006305Y-125296073D01*
X110239182Y-125140469D01*
X110715074Y-125140469D01*
X111760000Y-126185395D01*
X112804926Y-125140469D01*
X112694079Y-124863286D01*
X112383160Y-124709911D01*
X112048295Y-124620140D01*
X111702350Y-124597424D01*
X111358620Y-124642634D01*
X111030315Y-124754034D01*
X110825921Y-124863286D01*
X110715074Y-125140469D01*
X110239182Y-125140469D01*
X110278188Y-125114406D01*
X110509406Y-124883188D01*
X110691073Y-124611305D01*
X110697826Y-124595000D01*
X155071928Y-124595000D01*
X155075000Y-124809250D01*
X155233750Y-124968000D01*
X156083000Y-124968000D01*
X156083000Y-124118750D01*
X156337000Y-124118750D01*
X156337000Y-124968000D01*
X157186250Y-124968000D01*
X157345000Y-124809250D01*
X157348072Y-124595000D01*
X157335812Y-124470518D01*
X157299502Y-124350820D01*
X157240537Y-124240506D01*
X157161185Y-124143815D01*
X157064494Y-124064463D01*
X156954180Y-124005498D01*
X156834482Y-123969188D01*
X156710000Y-123956928D01*
X156495750Y-123960000D01*
X156337000Y-124118750D01*
X156083000Y-124118750D01*
X155924250Y-123960000D01*
X155710000Y-123956928D01*
X155585518Y-123969188D01*
X155465820Y-124005498D01*
X155355506Y-124064463D01*
X155258815Y-124143815D01*
X155179463Y-124240506D01*
X155120498Y-124350820D01*
X155084188Y-124470518D01*
X155071928Y-124595000D01*
X110697826Y-124595000D01*
X110816207Y-124309204D01*
X110880000Y-123988496D01*
X110880000Y-123661504D01*
X110816207Y-123340796D01*
X110691073Y-123038695D01*
X110509406Y-122766812D01*
X110278188Y-122535594D01*
X110239183Y-122509531D01*
X110715074Y-122509531D01*
X110825921Y-122786714D01*
X111136840Y-122940089D01*
X111471705Y-123029860D01*
X111817650Y-123052576D01*
X112161380Y-123007366D01*
X112489685Y-122895966D01*
X112694079Y-122786714D01*
X112804926Y-122509531D01*
X111760000Y-121464605D01*
X110715074Y-122509531D01*
X110239183Y-122509531D01*
X110006305Y-122353927D01*
X109704204Y-122228793D01*
X109383496Y-122165000D01*
X109056504Y-122165000D01*
X108735796Y-122228793D01*
X108433695Y-122353927D01*
X108161812Y-122535594D01*
X107930594Y-122766812D01*
X107748927Y-123038695D01*
X107623793Y-123340796D01*
X107560000Y-123661504D01*
X102997000Y-123661504D01*
X102997000Y-122509531D01*
X105635074Y-122509531D01*
X105745921Y-122786714D01*
X106056840Y-122940089D01*
X106391705Y-123029860D01*
X106737650Y-123052576D01*
X107081380Y-123007366D01*
X107409685Y-122895966D01*
X107614079Y-122786714D01*
X107724926Y-122509531D01*
X106680000Y-121464605D01*
X105635074Y-122509531D01*
X102997000Y-122509531D01*
X102997000Y-121342650D01*
X104912424Y-121342650D01*
X104957634Y-121686380D01*
X105069034Y-122014685D01*
X105178286Y-122219079D01*
X105455469Y-122329926D01*
X106500395Y-121285000D01*
X106859605Y-121285000D01*
X107904531Y-122329926D01*
X108181714Y-122219079D01*
X108335089Y-121908160D01*
X108424860Y-121573295D01*
X108440004Y-121342650D01*
X109992424Y-121342650D01*
X110037634Y-121686380D01*
X110149034Y-122014685D01*
X110258286Y-122219079D01*
X110535469Y-122329926D01*
X111580395Y-121285000D01*
X111939605Y-121285000D01*
X112984531Y-122329926D01*
X113261714Y-122219079D01*
X113415089Y-121908160D01*
X113424104Y-121874531D01*
X151355074Y-121874531D01*
X151465921Y-122151714D01*
X151776840Y-122305089D01*
X152111705Y-122394860D01*
X152457650Y-122417576D01*
X152801380Y-122372366D01*
X153129685Y-122260966D01*
X153334079Y-122151714D01*
X153444926Y-121874531D01*
X156435074Y-121874531D01*
X156545921Y-122151714D01*
X156856840Y-122305089D01*
X157191705Y-122394860D01*
X157537650Y-122417576D01*
X157881380Y-122372366D01*
X158209685Y-122260966D01*
X158414079Y-122151714D01*
X158524926Y-121874531D01*
X157480000Y-120829605D01*
X156435074Y-121874531D01*
X153444926Y-121874531D01*
X152400000Y-120829605D01*
X151355074Y-121874531D01*
X113424104Y-121874531D01*
X113504860Y-121573295D01*
X113527576Y-121227350D01*
X113482366Y-120883620D01*
X113422657Y-120707650D01*
X150632424Y-120707650D01*
X150677634Y-121051380D01*
X150789034Y-121379685D01*
X150898286Y-121584079D01*
X151175469Y-121694926D01*
X152220395Y-120650000D01*
X152579605Y-120650000D01*
X153624531Y-121694926D01*
X153901714Y-121584079D01*
X154055089Y-121273160D01*
X154144860Y-120938295D01*
X154160004Y-120707650D01*
X155712424Y-120707650D01*
X155757634Y-121051380D01*
X155869034Y-121379685D01*
X155978286Y-121584079D01*
X156255469Y-121694926D01*
X157300395Y-120650000D01*
X157659605Y-120650000D01*
X158704531Y-121694926D01*
X158981714Y-121584079D01*
X159135089Y-121273160D01*
X159224860Y-120938295D01*
X159247576Y-120592350D01*
X159202366Y-120248620D01*
X159090966Y-119920315D01*
X158981714Y-119715921D01*
X158704531Y-119605074D01*
X157659605Y-120650000D01*
X157300395Y-120650000D01*
X156255469Y-119605074D01*
X155978286Y-119715921D01*
X155824911Y-120026840D01*
X155735140Y-120361705D01*
X155712424Y-120707650D01*
X154160004Y-120707650D01*
X154167576Y-120592350D01*
X154122366Y-120248620D01*
X154010966Y-119920315D01*
X153901714Y-119715921D01*
X153624531Y-119605074D01*
X152579605Y-120650000D01*
X152220395Y-120650000D01*
X151175469Y-119605074D01*
X150898286Y-119715921D01*
X150744911Y-120026840D01*
X150655140Y-120361705D01*
X150632424Y-120707650D01*
X113422657Y-120707650D01*
X113370966Y-120555315D01*
X113261714Y-120350921D01*
X112984531Y-120240074D01*
X111939605Y-121285000D01*
X111580395Y-121285000D01*
X110535469Y-120240074D01*
X110258286Y-120350921D01*
X110104911Y-120661840D01*
X110015140Y-120996705D01*
X109992424Y-121342650D01*
X108440004Y-121342650D01*
X108447576Y-121227350D01*
X108402366Y-120883620D01*
X108290966Y-120555315D01*
X108181714Y-120350921D01*
X107904531Y-120240074D01*
X106859605Y-121285000D01*
X106500395Y-121285000D01*
X105455469Y-120240074D01*
X105178286Y-120350921D01*
X105024911Y-120661840D01*
X104935140Y-120996705D01*
X104912424Y-121342650D01*
X102997000Y-121342650D01*
X102997000Y-120060469D01*
X105635074Y-120060469D01*
X106680000Y-121105395D01*
X107724926Y-120060469D01*
X110715074Y-120060469D01*
X111760000Y-121105395D01*
X112804926Y-120060469D01*
X112694079Y-119783286D01*
X112383160Y-119629911D01*
X112048295Y-119540140D01*
X111702350Y-119517424D01*
X111358620Y-119562634D01*
X111030315Y-119674034D01*
X110825921Y-119783286D01*
X110715074Y-120060469D01*
X107724926Y-120060469D01*
X107614079Y-119783286D01*
X107303160Y-119629911D01*
X106968295Y-119540140D01*
X106622350Y-119517424D01*
X106278620Y-119562634D01*
X105950315Y-119674034D01*
X105745921Y-119783286D01*
X105635074Y-120060469D01*
X102997000Y-120060469D01*
X102997000Y-119425469D01*
X151355074Y-119425469D01*
X152400000Y-120470395D01*
X153444926Y-119425469D01*
X153334079Y-119148286D01*
X153023160Y-118994911D01*
X152688295Y-118905140D01*
X152342350Y-118882424D01*
X151998620Y-118927634D01*
X151670315Y-119039034D01*
X151465921Y-119148286D01*
X151355074Y-119425469D01*
X102997000Y-119425469D01*
X102997000Y-117946504D01*
X153280000Y-117946504D01*
X153280000Y-118273496D01*
X153343793Y-118594204D01*
X153468927Y-118896305D01*
X153650594Y-119168188D01*
X153881812Y-119399406D01*
X154153695Y-119581073D01*
X154455796Y-119706207D01*
X154776504Y-119770000D01*
X155103496Y-119770000D01*
X155424204Y-119706207D01*
X155726305Y-119581073D01*
X155959182Y-119425469D01*
X156435074Y-119425469D01*
X157480000Y-120470395D01*
X158524926Y-119425469D01*
X158414079Y-119148286D01*
X158103160Y-118994911D01*
X157768295Y-118905140D01*
X157422350Y-118882424D01*
X157078620Y-118927634D01*
X156750315Y-119039034D01*
X156545921Y-119148286D01*
X156435074Y-119425469D01*
X155959182Y-119425469D01*
X155998188Y-119399406D01*
X156229406Y-119168188D01*
X156411073Y-118896305D01*
X156536207Y-118594204D01*
X156600000Y-118273496D01*
X156600000Y-117946504D01*
X156536207Y-117625796D01*
X156411073Y-117323695D01*
X156229406Y-117051812D01*
X155998188Y-116820594D01*
X155959183Y-116794531D01*
X156435074Y-116794531D01*
X156545921Y-117071714D01*
X156856840Y-117225089D01*
X157191705Y-117314860D01*
X157537650Y-117337576D01*
X157881380Y-117292366D01*
X158209685Y-117180966D01*
X158414079Y-117071714D01*
X158524926Y-116794531D01*
X157480000Y-115749605D01*
X156435074Y-116794531D01*
X155959183Y-116794531D01*
X155726305Y-116638927D01*
X155424204Y-116513793D01*
X155103496Y-116450000D01*
X154776504Y-116450000D01*
X154455796Y-116513793D01*
X154153695Y-116638927D01*
X153881812Y-116820594D01*
X153650594Y-117051812D01*
X153468927Y-117323695D01*
X153343793Y-117625796D01*
X153280000Y-117946504D01*
X102997000Y-117946504D01*
X102997000Y-116794531D01*
X151355074Y-116794531D01*
X151465921Y-117071714D01*
X151776840Y-117225089D01*
X152111705Y-117314860D01*
X152457650Y-117337576D01*
X152801380Y-117292366D01*
X153129685Y-117180966D01*
X153334079Y-117071714D01*
X153444926Y-116794531D01*
X152400000Y-115749605D01*
X151355074Y-116794531D01*
X102997000Y-116794531D01*
X102997000Y-115524531D01*
X105635074Y-115524531D01*
X105745921Y-115801714D01*
X106056840Y-115955089D01*
X106391705Y-116044860D01*
X106737650Y-116067576D01*
X107081380Y-116022366D01*
X107409685Y-115910966D01*
X107614079Y-115801714D01*
X107724926Y-115524531D01*
X110715074Y-115524531D01*
X110825921Y-115801714D01*
X111136840Y-115955089D01*
X111471705Y-116044860D01*
X111817650Y-116067576D01*
X112161380Y-116022366D01*
X112489685Y-115910966D01*
X112694079Y-115801714D01*
X112763688Y-115627650D01*
X150632424Y-115627650D01*
X150677634Y-115971380D01*
X150789034Y-116299685D01*
X150898286Y-116504079D01*
X151175469Y-116614926D01*
X152220395Y-115570000D01*
X152579605Y-115570000D01*
X153624531Y-116614926D01*
X153901714Y-116504079D01*
X154055089Y-116193160D01*
X154144860Y-115858295D01*
X154160004Y-115627650D01*
X155712424Y-115627650D01*
X155757634Y-115971380D01*
X155869034Y-116299685D01*
X155978286Y-116504079D01*
X156255469Y-116614926D01*
X157300395Y-115570000D01*
X157659605Y-115570000D01*
X158704531Y-116614926D01*
X158981714Y-116504079D01*
X159135089Y-116193160D01*
X159224860Y-115858295D01*
X159247576Y-115512350D01*
X159202366Y-115168620D01*
X159090966Y-114840315D01*
X158981714Y-114635921D01*
X158704531Y-114525074D01*
X157659605Y-115570000D01*
X157300395Y-115570000D01*
X156255469Y-114525074D01*
X155978286Y-114635921D01*
X155824911Y-114946840D01*
X155735140Y-115281705D01*
X155712424Y-115627650D01*
X154160004Y-115627650D01*
X154167576Y-115512350D01*
X154122366Y-115168620D01*
X154010966Y-114840315D01*
X153901714Y-114635921D01*
X153624531Y-114525074D01*
X152579605Y-115570000D01*
X152220395Y-115570000D01*
X151175469Y-114525074D01*
X150898286Y-114635921D01*
X150744911Y-114946840D01*
X150655140Y-115281705D01*
X150632424Y-115627650D01*
X112763688Y-115627650D01*
X112804926Y-115524531D01*
X111760000Y-114479605D01*
X110715074Y-115524531D01*
X107724926Y-115524531D01*
X106680000Y-114479605D01*
X105635074Y-115524531D01*
X102997000Y-115524531D01*
X102997000Y-114357650D01*
X104912424Y-114357650D01*
X104957634Y-114701380D01*
X105069034Y-115029685D01*
X105178286Y-115234079D01*
X105455469Y-115344926D01*
X106500395Y-114300000D01*
X106859605Y-114300000D01*
X107904531Y-115344926D01*
X108181714Y-115234079D01*
X108335089Y-114923160D01*
X108424860Y-114588295D01*
X108440004Y-114357650D01*
X109992424Y-114357650D01*
X110037634Y-114701380D01*
X110149034Y-115029685D01*
X110258286Y-115234079D01*
X110535469Y-115344926D01*
X111580395Y-114300000D01*
X111939605Y-114300000D01*
X112984531Y-115344926D01*
X113261714Y-115234079D01*
X113415089Y-114923160D01*
X113504860Y-114588295D01*
X113520804Y-114345469D01*
X151355074Y-114345469D01*
X152400000Y-115390395D01*
X153444926Y-114345469D01*
X156435074Y-114345469D01*
X157480000Y-115390395D01*
X158524926Y-114345469D01*
X158414079Y-114068286D01*
X158103160Y-113914911D01*
X157768295Y-113825140D01*
X157422350Y-113802424D01*
X157078620Y-113847634D01*
X156750315Y-113959034D01*
X156545921Y-114068286D01*
X156435074Y-114345469D01*
X153444926Y-114345469D01*
X153334079Y-114068286D01*
X153023160Y-113914911D01*
X152688295Y-113825140D01*
X152342350Y-113802424D01*
X151998620Y-113847634D01*
X151670315Y-113959034D01*
X151465921Y-114068286D01*
X151355074Y-114345469D01*
X113520804Y-114345469D01*
X113527576Y-114242350D01*
X113482366Y-113898620D01*
X113370966Y-113570315D01*
X113261714Y-113365921D01*
X112984531Y-113255074D01*
X111939605Y-114300000D01*
X111580395Y-114300000D01*
X110535469Y-113255074D01*
X110258286Y-113365921D01*
X110104911Y-113676840D01*
X110015140Y-114011705D01*
X109992424Y-114357650D01*
X108440004Y-114357650D01*
X108447576Y-114242350D01*
X108402366Y-113898620D01*
X108290966Y-113570315D01*
X108181714Y-113365921D01*
X107904531Y-113255074D01*
X106859605Y-114300000D01*
X106500395Y-114300000D01*
X105455469Y-113255074D01*
X105178286Y-113365921D01*
X105024911Y-113676840D01*
X104935140Y-114011705D01*
X104912424Y-114357650D01*
X102997000Y-114357650D01*
X102997000Y-113075469D01*
X105635074Y-113075469D01*
X106680000Y-114120395D01*
X107724926Y-113075469D01*
X107614079Y-112798286D01*
X107303160Y-112644911D01*
X106968295Y-112555140D01*
X106622350Y-112532424D01*
X106278620Y-112577634D01*
X105950315Y-112689034D01*
X105745921Y-112798286D01*
X105635074Y-113075469D01*
X102997000Y-113075469D01*
X102997000Y-111596504D01*
X107560000Y-111596504D01*
X107560000Y-111923496D01*
X107623793Y-112244204D01*
X107748927Y-112546305D01*
X107930594Y-112818188D01*
X108161812Y-113049406D01*
X108433695Y-113231073D01*
X108735796Y-113356207D01*
X109056504Y-113420000D01*
X109383496Y-113420000D01*
X109704204Y-113356207D01*
X110006305Y-113231073D01*
X110239182Y-113075469D01*
X110715074Y-113075469D01*
X111760000Y-114120395D01*
X112804926Y-113075469D01*
X112694079Y-112798286D01*
X112383160Y-112644911D01*
X112048295Y-112555140D01*
X111702350Y-112532424D01*
X111358620Y-112577634D01*
X111030315Y-112689034D01*
X110825921Y-112798286D01*
X110715074Y-113075469D01*
X110239182Y-113075469D01*
X110278188Y-113049406D01*
X110509406Y-112818188D01*
X110691073Y-112546305D01*
X110816207Y-112244204D01*
X110880000Y-111923496D01*
X110880000Y-111596504D01*
X110816207Y-111275796D01*
X110691073Y-110973695D01*
X110509406Y-110701812D01*
X110278188Y-110470594D01*
X110239183Y-110444531D01*
X110715074Y-110444531D01*
X110825921Y-110721714D01*
X111136840Y-110875089D01*
X111471705Y-110964860D01*
X111817650Y-110987576D01*
X112161380Y-110942366D01*
X112489685Y-110830966D01*
X112694079Y-110721714D01*
X112804926Y-110444531D01*
X111760000Y-109399605D01*
X110715074Y-110444531D01*
X110239183Y-110444531D01*
X110006305Y-110288927D01*
X109704204Y-110163793D01*
X109383496Y-110100000D01*
X109056504Y-110100000D01*
X108735796Y-110163793D01*
X108433695Y-110288927D01*
X108161812Y-110470594D01*
X107930594Y-110701812D01*
X107748927Y-110973695D01*
X107623793Y-111275796D01*
X107560000Y-111596504D01*
X102997000Y-111596504D01*
X102997000Y-110444531D01*
X105635074Y-110444531D01*
X105745921Y-110721714D01*
X106056840Y-110875089D01*
X106391705Y-110964860D01*
X106737650Y-110987576D01*
X107081380Y-110942366D01*
X107409685Y-110830966D01*
X107614079Y-110721714D01*
X107724926Y-110444531D01*
X106680000Y-109399605D01*
X105635074Y-110444531D01*
X102997000Y-110444531D01*
X102997000Y-109277650D01*
X104912424Y-109277650D01*
X104957634Y-109621380D01*
X105069034Y-109949685D01*
X105178286Y-110154079D01*
X105455469Y-110264926D01*
X106500395Y-109220000D01*
X106859605Y-109220000D01*
X107904531Y-110264926D01*
X108181714Y-110154079D01*
X108335089Y-109843160D01*
X108424860Y-109508295D01*
X108440004Y-109277650D01*
X109992424Y-109277650D01*
X110037634Y-109621380D01*
X110149034Y-109949685D01*
X110258286Y-110154079D01*
X110535469Y-110264926D01*
X111580395Y-109220000D01*
X111939605Y-109220000D01*
X112984531Y-110264926D01*
X113261714Y-110154079D01*
X113415089Y-109843160D01*
X113504860Y-109508295D01*
X113527576Y-109162350D01*
X113482366Y-108818620D01*
X113370966Y-108490315D01*
X113261714Y-108285921D01*
X112984531Y-108175074D01*
X111939605Y-109220000D01*
X111580395Y-109220000D01*
X110535469Y-108175074D01*
X110258286Y-108285921D01*
X110104911Y-108596840D01*
X110015140Y-108931705D01*
X109992424Y-109277650D01*
X108440004Y-109277650D01*
X108447576Y-109162350D01*
X108402366Y-108818620D01*
X108290966Y-108490315D01*
X108181714Y-108285921D01*
X107904531Y-108175074D01*
X106859605Y-109220000D01*
X106500395Y-109220000D01*
X105455469Y-108175074D01*
X105178286Y-108285921D01*
X105024911Y-108596840D01*
X104935140Y-108931705D01*
X104912424Y-109277650D01*
X102997000Y-109277650D01*
X102997000Y-107995469D01*
X105635074Y-107995469D01*
X106680000Y-109040395D01*
X107724926Y-107995469D01*
X110715074Y-107995469D01*
X111760000Y-109040395D01*
X112804926Y-107995469D01*
X112694079Y-107718286D01*
X112383160Y-107564911D01*
X112048295Y-107475140D01*
X111702350Y-107452424D01*
X111358620Y-107497634D01*
X111030315Y-107609034D01*
X110825921Y-107718286D01*
X110715074Y-107995469D01*
X107724926Y-107995469D01*
X107614079Y-107718286D01*
X107303160Y-107564911D01*
X106968295Y-107475140D01*
X106622350Y-107452424D01*
X106278620Y-107497634D01*
X105950315Y-107609034D01*
X105745921Y-107718286D01*
X105635074Y-107995469D01*
X102997000Y-107995469D01*
X102997000Y-102536607D01*
X103295000Y-102536607D01*
X103295000Y-103203393D01*
X103425083Y-103857368D01*
X103680252Y-104473399D01*
X104050698Y-105027812D01*
X104522188Y-105499302D01*
X105076601Y-105869748D01*
X105692632Y-106124917D01*
X106346607Y-106255000D01*
X107013393Y-106255000D01*
X107667368Y-106124917D01*
X108283399Y-105869748D01*
X108837812Y-105499302D01*
X109309302Y-105027812D01*
X109679748Y-104473399D01*
X109934917Y-103857368D01*
X110065000Y-103203393D01*
X110065000Y-102655000D01*
X129956928Y-102655000D01*
X129956928Y-104355000D01*
X129969188Y-104479482D01*
X130005498Y-104599180D01*
X130064463Y-104709494D01*
X130143815Y-104806185D01*
X130240506Y-104885537D01*
X130350820Y-104944502D01*
X130470518Y-104980812D01*
X130595000Y-104993072D01*
X132295000Y-104993072D01*
X132419482Y-104980812D01*
X132539180Y-104944502D01*
X132649494Y-104885537D01*
X132746185Y-104806185D01*
X132825537Y-104709494D01*
X132884502Y-104599180D01*
X132908966Y-104518534D01*
X132984731Y-104602588D01*
X133218080Y-104776641D01*
X133480901Y-104901825D01*
X133628110Y-104946476D01*
X133858000Y-104825155D01*
X133858000Y-103632000D01*
X133838000Y-103632000D01*
X133838000Y-103378000D01*
X133858000Y-103378000D01*
X133858000Y-102184845D01*
X134112000Y-102184845D01*
X134112000Y-103378000D01*
X134132000Y-103378000D01*
X134132000Y-103632000D01*
X134112000Y-103632000D01*
X134112000Y-104825155D01*
X134341890Y-104946476D01*
X134489099Y-104901825D01*
X134751920Y-104776641D01*
X134985269Y-104602588D01*
X135180178Y-104386355D01*
X135249799Y-104269477D01*
X135284294Y-104334014D01*
X135469866Y-104560134D01*
X135695986Y-104745706D01*
X135953966Y-104883599D01*
X136233889Y-104968513D01*
X136452050Y-104990000D01*
X136597950Y-104990000D01*
X136816111Y-104968513D01*
X137096034Y-104883599D01*
X137354014Y-104745706D01*
X137580134Y-104560134D01*
X137765706Y-104334014D01*
X137903599Y-104076034D01*
X137988513Y-103796111D01*
X138017185Y-103505000D01*
X137988513Y-103213889D01*
X137903599Y-102933966D01*
X137765706Y-102675986D01*
X137651321Y-102536607D01*
X154095000Y-102536607D01*
X154095000Y-103203393D01*
X154225083Y-103857368D01*
X154480252Y-104473399D01*
X154850698Y-105027812D01*
X155322188Y-105499302D01*
X155876601Y-105869748D01*
X156492632Y-106124917D01*
X157146607Y-106255000D01*
X157813393Y-106255000D01*
X158467368Y-106124917D01*
X159083399Y-105869748D01*
X159637812Y-105499302D01*
X160109302Y-105027812D01*
X160479748Y-104473399D01*
X160734917Y-103857368D01*
X160865000Y-103203393D01*
X160865000Y-102536607D01*
X160734917Y-101882632D01*
X160479748Y-101266601D01*
X160109302Y-100712188D01*
X159637812Y-100240698D01*
X159083399Y-99870252D01*
X158467368Y-99615083D01*
X157813393Y-99485000D01*
X157146607Y-99485000D01*
X156492632Y-99615083D01*
X155876601Y-99870252D01*
X155322188Y-100240698D01*
X154850698Y-100712188D01*
X154480252Y-101266601D01*
X154225083Y-101882632D01*
X154095000Y-102536607D01*
X137651321Y-102536607D01*
X137580134Y-102449866D01*
X137354014Y-102264294D01*
X137096034Y-102126401D01*
X136816111Y-102041487D01*
X136597950Y-102020000D01*
X136452050Y-102020000D01*
X136233889Y-102041487D01*
X135953966Y-102126401D01*
X135695986Y-102264294D01*
X135469866Y-102449866D01*
X135284294Y-102675986D01*
X135249799Y-102740523D01*
X135180178Y-102623645D01*
X134985269Y-102407412D01*
X134751920Y-102233359D01*
X134489099Y-102108175D01*
X134341890Y-102063524D01*
X134112000Y-102184845D01*
X133858000Y-102184845D01*
X133628110Y-102063524D01*
X133480901Y-102108175D01*
X133218080Y-102233359D01*
X132984731Y-102407412D01*
X132908966Y-102491466D01*
X132884502Y-102410820D01*
X132825537Y-102300506D01*
X132746185Y-102203815D01*
X132649494Y-102124463D01*
X132539180Y-102065498D01*
X132419482Y-102029188D01*
X132295000Y-102016928D01*
X130595000Y-102016928D01*
X130470518Y-102029188D01*
X130350820Y-102065498D01*
X130240506Y-102124463D01*
X130143815Y-102203815D01*
X130064463Y-102300506D01*
X130005498Y-102410820D01*
X129969188Y-102530518D01*
X129956928Y-102655000D01*
X110065000Y-102655000D01*
X110065000Y-102536607D01*
X109934917Y-101882632D01*
X109679748Y-101266601D01*
X109309302Y-100712188D01*
X108837812Y-100240698D01*
X108283399Y-99870252D01*
X107667368Y-99615083D01*
X107013393Y-99485000D01*
X106346607Y-99485000D01*
X105692632Y-99615083D01*
X105076601Y-99870252D01*
X104522188Y-100240698D01*
X104050698Y-100712188D01*
X103680252Y-101266601D01*
X103425083Y-101882632D01*
X103295000Y-102536607D01*
X102997000Y-102536607D01*
X102997000Y-99187000D01*
X161163000Y-99187000D01*
X161163000Y-136398000D01*
X161163000Y-136398000D01*
G37*
X161163000Y-136398000D02*
X102997000Y-136398000D01*
X102997000Y-132381607D01*
X103295000Y-132381607D01*
X103295000Y-133048393D01*
X103425083Y-133702368D01*
X103680252Y-134318399D01*
X104050698Y-134872812D01*
X104522188Y-135344302D01*
X105076601Y-135714748D01*
X105692632Y-135969917D01*
X106346607Y-136100000D01*
X107013393Y-136100000D01*
X107667368Y-135969917D01*
X108283399Y-135714748D01*
X108837812Y-135344302D01*
X109309302Y-134872812D01*
X109679748Y-134318399D01*
X109934917Y-133702368D01*
X110065000Y-133048393D01*
X110065000Y-132381607D01*
X109938692Y-131746607D01*
X154095000Y-131746607D01*
X154095000Y-132413393D01*
X154225083Y-133067368D01*
X154480252Y-133683399D01*
X154850698Y-134237812D01*
X155322188Y-134709302D01*
X155876601Y-135079748D01*
X156492632Y-135334917D01*
X157146607Y-135465000D01*
X157813393Y-135465000D01*
X158467368Y-135334917D01*
X159083399Y-135079748D01*
X159637812Y-134709302D01*
X160109302Y-134237812D01*
X160479748Y-133683399D01*
X160734917Y-133067368D01*
X160865000Y-132413393D01*
X160865000Y-131746607D01*
X160734917Y-131092632D01*
X160479748Y-130476601D01*
X160109302Y-129922188D01*
X159637812Y-129450698D01*
X159083399Y-129080252D01*
X158467368Y-128825083D01*
X157813393Y-128695000D01*
X157146607Y-128695000D01*
X156492632Y-128825083D01*
X155876601Y-129080252D01*
X155322188Y-129450698D01*
X154850698Y-129922188D01*
X154480252Y-130476601D01*
X154225083Y-131092632D01*
X154095000Y-131746607D01*
X109938692Y-131746607D01*
X109934917Y-131727632D01*
X109679748Y-131111601D01*
X109309302Y-130557188D01*
X108837812Y-130085698D01*
X108283399Y-129715252D01*
X107667368Y-129460083D01*
X107390446Y-129405000D01*
X122051928Y-129405000D01*
X122064188Y-129529482D01*
X122100498Y-129649180D01*
X122159463Y-129759494D01*
X122238815Y-129856185D01*
X122335506Y-129935537D01*
X122445820Y-129994502D01*
X122565518Y-130030812D01*
X122690000Y-130043072D01*
X122904250Y-130040000D01*
X123063000Y-129881250D01*
X123063000Y-129032000D01*
X123317000Y-129032000D01*
X123317000Y-129881250D01*
X123475750Y-130040000D01*
X123690000Y-130043072D01*
X123814482Y-130030812D01*
X123934180Y-129994502D01*
X124044494Y-129935537D01*
X124141185Y-129856185D01*
X124220537Y-129759494D01*
X124279502Y-129649180D01*
X124315812Y-129529482D01*
X124328072Y-129405000D01*
X124325000Y-129190750D01*
X124166250Y-129032000D01*
X123317000Y-129032000D01*
X123063000Y-129032000D01*
X122213750Y-129032000D01*
X122055000Y-129190750D01*
X122051928Y-129405000D01*
X107390446Y-129405000D01*
X107013393Y-129330000D01*
X106346607Y-129330000D01*
X105692632Y-129460083D01*
X105076601Y-129715252D01*
X104522188Y-130085698D01*
X104050698Y-130557188D01*
X103680252Y-131111601D01*
X103425083Y-131727632D01*
X103295000Y-132381607D01*
X102997000Y-132381607D01*
X102997000Y-128405000D01*
X122051928Y-128405000D01*
X122055000Y-128619250D01*
X122213750Y-128778000D01*
X123063000Y-128778000D01*
X123063000Y-127928750D01*
X123317000Y-127928750D01*
X123317000Y-128778000D01*
X124166250Y-128778000D01*
X124325000Y-128619250D01*
X124328072Y-128405000D01*
X124315812Y-128280518D01*
X124279502Y-128160820D01*
X124220537Y-128050506D01*
X124141185Y-127953815D01*
X124044494Y-127874463D01*
X123934180Y-127815498D01*
X123814482Y-127779188D01*
X123690000Y-127766928D01*
X123475750Y-127770000D01*
X123317000Y-127928750D01*
X123063000Y-127928750D01*
X122904250Y-127770000D01*
X122690000Y-127766928D01*
X122565518Y-127779188D01*
X122445820Y-127815498D01*
X122335506Y-127874463D01*
X122238815Y-127953815D01*
X122159463Y-128050506D01*
X122100498Y-128160820D01*
X122064188Y-128280518D01*
X122051928Y-128405000D01*
X102997000Y-128405000D01*
X102997000Y-127589531D01*
X105635074Y-127589531D01*
X105745921Y-127866714D01*
X106056840Y-128020089D01*
X106391705Y-128109860D01*
X106737650Y-128132576D01*
X107081380Y-128087366D01*
X107409685Y-127975966D01*
X107614079Y-127866714D01*
X107724926Y-127589531D01*
X110715074Y-127589531D01*
X110825921Y-127866714D01*
X111136840Y-128020089D01*
X111471705Y-128109860D01*
X111817650Y-128132576D01*
X112161380Y-128087366D01*
X112489685Y-127975966D01*
X112694079Y-127866714D01*
X112804926Y-127589531D01*
X111760000Y-126544605D01*
X110715074Y-127589531D01*
X107724926Y-127589531D01*
X106680000Y-126544605D01*
X105635074Y-127589531D01*
X102997000Y-127589531D01*
X102997000Y-126422650D01*
X104912424Y-126422650D01*
X104957634Y-126766380D01*
X105069034Y-127094685D01*
X105178286Y-127299079D01*
X105455469Y-127409926D01*
X106500395Y-126365000D01*
X106859605Y-126365000D01*
X107904531Y-127409926D01*
X108181714Y-127299079D01*
X108335089Y-126988160D01*
X108424860Y-126653295D01*
X108440004Y-126422650D01*
X109992424Y-126422650D01*
X110037634Y-126766380D01*
X110149034Y-127094685D01*
X110258286Y-127299079D01*
X110535469Y-127409926D01*
X111580395Y-126365000D01*
X111939605Y-126365000D01*
X112984531Y-127409926D01*
X113261714Y-127299079D01*
X113415089Y-126988160D01*
X113504860Y-126653295D01*
X113527576Y-126307350D01*
X113482366Y-125963620D01*
X113370966Y-125635315D01*
X113349417Y-125595000D01*
X155071928Y-125595000D01*
X155084188Y-125719482D01*
X155120498Y-125839180D01*
X155179463Y-125949494D01*
X155258815Y-126046185D01*
X155355506Y-126125537D01*
X155465820Y-126184502D01*
X155585518Y-126220812D01*
X155710000Y-126233072D01*
X155924250Y-126230000D01*
X156083000Y-126071250D01*
X156083000Y-125222000D01*
X156337000Y-125222000D01*
X156337000Y-126071250D01*
X156495750Y-126230000D01*
X156710000Y-126233072D01*
X156834482Y-126220812D01*
X156954180Y-126184502D01*
X157064494Y-126125537D01*
X157161185Y-126046185D01*
X157240537Y-125949494D01*
X157299502Y-125839180D01*
X157335812Y-125719482D01*
X157348072Y-125595000D01*
X157345000Y-125380750D01*
X157186250Y-125222000D01*
X156337000Y-125222000D01*
X156083000Y-125222000D01*
X155233750Y-125222000D01*
X155075000Y-125380750D01*
X155071928Y-125595000D01*
X113349417Y-125595000D01*
X113261714Y-125430921D01*
X112984531Y-125320074D01*
X111939605Y-126365000D01*
X111580395Y-126365000D01*
X110535469Y-125320074D01*
X110258286Y-125430921D01*
X110104911Y-125741840D01*
X110015140Y-126076705D01*
X109992424Y-126422650D01*
X108440004Y-126422650D01*
X108447576Y-126307350D01*
X108402366Y-125963620D01*
X108290966Y-125635315D01*
X108181714Y-125430921D01*
X107904531Y-125320074D01*
X106859605Y-126365000D01*
X106500395Y-126365000D01*
X105455469Y-125320074D01*
X105178286Y-125430921D01*
X105024911Y-125741840D01*
X104935140Y-126076705D01*
X104912424Y-126422650D01*
X102997000Y-126422650D01*
X102997000Y-125140469D01*
X105635074Y-125140469D01*
X106680000Y-126185395D01*
X107724926Y-125140469D01*
X107614079Y-124863286D01*
X107303160Y-124709911D01*
X106968295Y-124620140D01*
X106622350Y-124597424D01*
X106278620Y-124642634D01*
X105950315Y-124754034D01*
X105745921Y-124863286D01*
X105635074Y-125140469D01*
X102997000Y-125140469D01*
X102997000Y-123661504D01*
X107560000Y-123661504D01*
X107560000Y-123988496D01*
X107623793Y-124309204D01*
X107748927Y-124611305D01*
X107930594Y-124883188D01*
X108161812Y-125114406D01*
X108433695Y-125296073D01*
X108735796Y-125421207D01*
X109056504Y-125485000D01*
X109383496Y-125485000D01*
X109704204Y-125421207D01*
X110006305Y-125296073D01*
X110239182Y-125140469D01*
X110715074Y-125140469D01*
X111760000Y-126185395D01*
X112804926Y-125140469D01*
X112694079Y-124863286D01*
X112383160Y-124709911D01*
X112048295Y-124620140D01*
X111702350Y-124597424D01*
X111358620Y-124642634D01*
X111030315Y-124754034D01*
X110825921Y-124863286D01*
X110715074Y-125140469D01*
X110239182Y-125140469D01*
X110278188Y-125114406D01*
X110509406Y-124883188D01*
X110691073Y-124611305D01*
X110697826Y-124595000D01*
X155071928Y-124595000D01*
X155075000Y-124809250D01*
X155233750Y-124968000D01*
X156083000Y-124968000D01*
X156083000Y-124118750D01*
X156337000Y-124118750D01*
X156337000Y-124968000D01*
X157186250Y-124968000D01*
X157345000Y-124809250D01*
X157348072Y-124595000D01*
X157335812Y-124470518D01*
X157299502Y-124350820D01*
X157240537Y-124240506D01*
X157161185Y-124143815D01*
X157064494Y-124064463D01*
X156954180Y-124005498D01*
X156834482Y-123969188D01*
X156710000Y-123956928D01*
X156495750Y-123960000D01*
X156337000Y-124118750D01*
X156083000Y-124118750D01*
X155924250Y-123960000D01*
X155710000Y-123956928D01*
X155585518Y-123969188D01*
X155465820Y-124005498D01*
X155355506Y-124064463D01*
X155258815Y-124143815D01*
X155179463Y-124240506D01*
X155120498Y-124350820D01*
X155084188Y-124470518D01*
X155071928Y-124595000D01*
X110697826Y-124595000D01*
X110816207Y-124309204D01*
X110880000Y-123988496D01*
X110880000Y-123661504D01*
X110816207Y-123340796D01*
X110691073Y-123038695D01*
X110509406Y-122766812D01*
X110278188Y-122535594D01*
X110239183Y-122509531D01*
X110715074Y-122509531D01*
X110825921Y-122786714D01*
X111136840Y-122940089D01*
X111471705Y-123029860D01*
X111817650Y-123052576D01*
X112161380Y-123007366D01*
X112489685Y-122895966D01*
X112694079Y-122786714D01*
X112804926Y-122509531D01*
X111760000Y-121464605D01*
X110715074Y-122509531D01*
X110239183Y-122509531D01*
X110006305Y-122353927D01*
X109704204Y-122228793D01*
X109383496Y-122165000D01*
X109056504Y-122165000D01*
X108735796Y-122228793D01*
X108433695Y-122353927D01*
X108161812Y-122535594D01*
X107930594Y-122766812D01*
X107748927Y-123038695D01*
X107623793Y-123340796D01*
X107560000Y-123661504D01*
X102997000Y-123661504D01*
X102997000Y-122509531D01*
X105635074Y-122509531D01*
X105745921Y-122786714D01*
X106056840Y-122940089D01*
X106391705Y-123029860D01*
X106737650Y-123052576D01*
X107081380Y-123007366D01*
X107409685Y-122895966D01*
X107614079Y-122786714D01*
X107724926Y-122509531D01*
X106680000Y-121464605D01*
X105635074Y-122509531D01*
X102997000Y-122509531D01*
X102997000Y-121342650D01*
X104912424Y-121342650D01*
X104957634Y-121686380D01*
X105069034Y-122014685D01*
X105178286Y-122219079D01*
X105455469Y-122329926D01*
X106500395Y-121285000D01*
X106859605Y-121285000D01*
X107904531Y-122329926D01*
X108181714Y-122219079D01*
X108335089Y-121908160D01*
X108424860Y-121573295D01*
X108440004Y-121342650D01*
X109992424Y-121342650D01*
X110037634Y-121686380D01*
X110149034Y-122014685D01*
X110258286Y-122219079D01*
X110535469Y-122329926D01*
X111580395Y-121285000D01*
X111939605Y-121285000D01*
X112984531Y-122329926D01*
X113261714Y-122219079D01*
X113415089Y-121908160D01*
X113424104Y-121874531D01*
X151355074Y-121874531D01*
X151465921Y-122151714D01*
X151776840Y-122305089D01*
X152111705Y-122394860D01*
X152457650Y-122417576D01*
X152801380Y-122372366D01*
X153129685Y-122260966D01*
X153334079Y-122151714D01*
X153444926Y-121874531D01*
X156435074Y-121874531D01*
X156545921Y-122151714D01*
X156856840Y-122305089D01*
X157191705Y-122394860D01*
X157537650Y-122417576D01*
X157881380Y-122372366D01*
X158209685Y-122260966D01*
X158414079Y-122151714D01*
X158524926Y-121874531D01*
X157480000Y-120829605D01*
X156435074Y-121874531D01*
X153444926Y-121874531D01*
X152400000Y-120829605D01*
X151355074Y-121874531D01*
X113424104Y-121874531D01*
X113504860Y-121573295D01*
X113527576Y-121227350D01*
X113482366Y-120883620D01*
X113422657Y-120707650D01*
X150632424Y-120707650D01*
X150677634Y-121051380D01*
X150789034Y-121379685D01*
X150898286Y-121584079D01*
X151175469Y-121694926D01*
X152220395Y-120650000D01*
X152579605Y-120650000D01*
X153624531Y-121694926D01*
X153901714Y-121584079D01*
X154055089Y-121273160D01*
X154144860Y-120938295D01*
X154160004Y-120707650D01*
X155712424Y-120707650D01*
X155757634Y-121051380D01*
X155869034Y-121379685D01*
X155978286Y-121584079D01*
X156255469Y-121694926D01*
X157300395Y-120650000D01*
X157659605Y-120650000D01*
X158704531Y-121694926D01*
X158981714Y-121584079D01*
X159135089Y-121273160D01*
X159224860Y-120938295D01*
X159247576Y-120592350D01*
X159202366Y-120248620D01*
X159090966Y-119920315D01*
X158981714Y-119715921D01*
X158704531Y-119605074D01*
X157659605Y-120650000D01*
X157300395Y-120650000D01*
X156255469Y-119605074D01*
X155978286Y-119715921D01*
X155824911Y-120026840D01*
X155735140Y-120361705D01*
X155712424Y-120707650D01*
X154160004Y-120707650D01*
X154167576Y-120592350D01*
X154122366Y-120248620D01*
X154010966Y-119920315D01*
X153901714Y-119715921D01*
X153624531Y-119605074D01*
X152579605Y-120650000D01*
X152220395Y-120650000D01*
X151175469Y-119605074D01*
X150898286Y-119715921D01*
X150744911Y-120026840D01*
X150655140Y-120361705D01*
X150632424Y-120707650D01*
X113422657Y-120707650D01*
X113370966Y-120555315D01*
X113261714Y-120350921D01*
X112984531Y-120240074D01*
X111939605Y-121285000D01*
X111580395Y-121285000D01*
X110535469Y-120240074D01*
X110258286Y-120350921D01*
X110104911Y-120661840D01*
X110015140Y-120996705D01*
X109992424Y-121342650D01*
X108440004Y-121342650D01*
X108447576Y-121227350D01*
X108402366Y-120883620D01*
X108290966Y-120555315D01*
X108181714Y-120350921D01*
X107904531Y-120240074D01*
X106859605Y-121285000D01*
X106500395Y-121285000D01*
X105455469Y-120240074D01*
X105178286Y-120350921D01*
X105024911Y-120661840D01*
X104935140Y-120996705D01*
X104912424Y-121342650D01*
X102997000Y-121342650D01*
X102997000Y-120060469D01*
X105635074Y-120060469D01*
X106680000Y-121105395D01*
X107724926Y-120060469D01*
X110715074Y-120060469D01*
X111760000Y-121105395D01*
X112804926Y-120060469D01*
X112694079Y-119783286D01*
X112383160Y-119629911D01*
X112048295Y-119540140D01*
X111702350Y-119517424D01*
X111358620Y-119562634D01*
X111030315Y-119674034D01*
X110825921Y-119783286D01*
X110715074Y-120060469D01*
X107724926Y-120060469D01*
X107614079Y-119783286D01*
X107303160Y-119629911D01*
X106968295Y-119540140D01*
X106622350Y-119517424D01*
X106278620Y-119562634D01*
X105950315Y-119674034D01*
X105745921Y-119783286D01*
X105635074Y-120060469D01*
X102997000Y-120060469D01*
X102997000Y-119425469D01*
X151355074Y-119425469D01*
X152400000Y-120470395D01*
X153444926Y-119425469D01*
X153334079Y-119148286D01*
X153023160Y-118994911D01*
X152688295Y-118905140D01*
X152342350Y-118882424D01*
X151998620Y-118927634D01*
X151670315Y-119039034D01*
X151465921Y-119148286D01*
X151355074Y-119425469D01*
X102997000Y-119425469D01*
X102997000Y-117946504D01*
X153280000Y-117946504D01*
X153280000Y-118273496D01*
X153343793Y-118594204D01*
X153468927Y-118896305D01*
X153650594Y-119168188D01*
X153881812Y-119399406D01*
X154153695Y-119581073D01*
X154455796Y-119706207D01*
X154776504Y-119770000D01*
X155103496Y-119770000D01*
X155424204Y-119706207D01*
X155726305Y-119581073D01*
X155959182Y-119425469D01*
X156435074Y-119425469D01*
X157480000Y-120470395D01*
X158524926Y-119425469D01*
X158414079Y-119148286D01*
X158103160Y-118994911D01*
X157768295Y-118905140D01*
X157422350Y-118882424D01*
X157078620Y-118927634D01*
X156750315Y-119039034D01*
X156545921Y-119148286D01*
X156435074Y-119425469D01*
X155959182Y-119425469D01*
X155998188Y-119399406D01*
X156229406Y-119168188D01*
X156411073Y-118896305D01*
X156536207Y-118594204D01*
X156600000Y-118273496D01*
X156600000Y-117946504D01*
X156536207Y-117625796D01*
X156411073Y-117323695D01*
X156229406Y-117051812D01*
X155998188Y-116820594D01*
X155959183Y-116794531D01*
X156435074Y-116794531D01*
X156545921Y-117071714D01*
X156856840Y-117225089D01*
X157191705Y-117314860D01*
X157537650Y-117337576D01*
X157881380Y-117292366D01*
X158209685Y-117180966D01*
X158414079Y-117071714D01*
X158524926Y-116794531D01*
X157480000Y-115749605D01*
X156435074Y-116794531D01*
X155959183Y-116794531D01*
X155726305Y-116638927D01*
X155424204Y-116513793D01*
X155103496Y-116450000D01*
X154776504Y-116450000D01*
X154455796Y-116513793D01*
X154153695Y-116638927D01*
X153881812Y-116820594D01*
X153650594Y-117051812D01*
X153468927Y-117323695D01*
X153343793Y-117625796D01*
X153280000Y-117946504D01*
X102997000Y-117946504D01*
X102997000Y-116794531D01*
X151355074Y-116794531D01*
X151465921Y-117071714D01*
X151776840Y-117225089D01*
X152111705Y-117314860D01*
X152457650Y-117337576D01*
X152801380Y-117292366D01*
X153129685Y-117180966D01*
X153334079Y-117071714D01*
X153444926Y-116794531D01*
X152400000Y-115749605D01*
X151355074Y-116794531D01*
X102997000Y-116794531D01*
X102997000Y-115524531D01*
X105635074Y-115524531D01*
X105745921Y-115801714D01*
X106056840Y-115955089D01*
X106391705Y-116044860D01*
X106737650Y-116067576D01*
X107081380Y-116022366D01*
X107409685Y-115910966D01*
X107614079Y-115801714D01*
X107724926Y-115524531D01*
X110715074Y-115524531D01*
X110825921Y-115801714D01*
X111136840Y-115955089D01*
X111471705Y-116044860D01*
X111817650Y-116067576D01*
X112161380Y-116022366D01*
X112489685Y-115910966D01*
X112694079Y-115801714D01*
X112763688Y-115627650D01*
X150632424Y-115627650D01*
X150677634Y-115971380D01*
X150789034Y-116299685D01*
X150898286Y-116504079D01*
X151175469Y-116614926D01*
X152220395Y-115570000D01*
X152579605Y-115570000D01*
X153624531Y-116614926D01*
X153901714Y-116504079D01*
X154055089Y-116193160D01*
X154144860Y-115858295D01*
X154160004Y-115627650D01*
X155712424Y-115627650D01*
X155757634Y-115971380D01*
X155869034Y-116299685D01*
X155978286Y-116504079D01*
X156255469Y-116614926D01*
X157300395Y-115570000D01*
X157659605Y-115570000D01*
X158704531Y-116614926D01*
X158981714Y-116504079D01*
X159135089Y-116193160D01*
X159224860Y-115858295D01*
X159247576Y-115512350D01*
X159202366Y-115168620D01*
X159090966Y-114840315D01*
X158981714Y-114635921D01*
X158704531Y-114525074D01*
X157659605Y-115570000D01*
X157300395Y-115570000D01*
X156255469Y-114525074D01*
X155978286Y-114635921D01*
X155824911Y-114946840D01*
X155735140Y-115281705D01*
X155712424Y-115627650D01*
X154160004Y-115627650D01*
X154167576Y-115512350D01*
X154122366Y-115168620D01*
X154010966Y-114840315D01*
X153901714Y-114635921D01*
X153624531Y-114525074D01*
X152579605Y-115570000D01*
X152220395Y-115570000D01*
X151175469Y-114525074D01*
X150898286Y-114635921D01*
X150744911Y-114946840D01*
X150655140Y-115281705D01*
X150632424Y-115627650D01*
X112763688Y-115627650D01*
X112804926Y-115524531D01*
X111760000Y-114479605D01*
X110715074Y-115524531D01*
X107724926Y-115524531D01*
X106680000Y-114479605D01*
X105635074Y-115524531D01*
X102997000Y-115524531D01*
X102997000Y-114357650D01*
X104912424Y-114357650D01*
X104957634Y-114701380D01*
X105069034Y-115029685D01*
X105178286Y-115234079D01*
X105455469Y-115344926D01*
X106500395Y-114300000D01*
X106859605Y-114300000D01*
X107904531Y-115344926D01*
X108181714Y-115234079D01*
X108335089Y-114923160D01*
X108424860Y-114588295D01*
X108440004Y-114357650D01*
X109992424Y-114357650D01*
X110037634Y-114701380D01*
X110149034Y-115029685D01*
X110258286Y-115234079D01*
X110535469Y-115344926D01*
X111580395Y-114300000D01*
X111939605Y-114300000D01*
X112984531Y-115344926D01*
X113261714Y-115234079D01*
X113415089Y-114923160D01*
X113504860Y-114588295D01*
X113520804Y-114345469D01*
X151355074Y-114345469D01*
X152400000Y-115390395D01*
X153444926Y-114345469D01*
X156435074Y-114345469D01*
X157480000Y-115390395D01*
X158524926Y-114345469D01*
X158414079Y-114068286D01*
X158103160Y-113914911D01*
X157768295Y-113825140D01*
X157422350Y-113802424D01*
X157078620Y-113847634D01*
X156750315Y-113959034D01*
X156545921Y-114068286D01*
X156435074Y-114345469D01*
X153444926Y-114345469D01*
X153334079Y-114068286D01*
X153023160Y-113914911D01*
X152688295Y-113825140D01*
X152342350Y-113802424D01*
X151998620Y-113847634D01*
X151670315Y-113959034D01*
X151465921Y-114068286D01*
X151355074Y-114345469D01*
X113520804Y-114345469D01*
X113527576Y-114242350D01*
X113482366Y-113898620D01*
X113370966Y-113570315D01*
X113261714Y-113365921D01*
X112984531Y-113255074D01*
X111939605Y-114300000D01*
X111580395Y-114300000D01*
X110535469Y-113255074D01*
X110258286Y-113365921D01*
X110104911Y-113676840D01*
X110015140Y-114011705D01*
X109992424Y-114357650D01*
X108440004Y-114357650D01*
X108447576Y-114242350D01*
X108402366Y-113898620D01*
X108290966Y-113570315D01*
X108181714Y-113365921D01*
X107904531Y-113255074D01*
X106859605Y-114300000D01*
X106500395Y-114300000D01*
X105455469Y-113255074D01*
X105178286Y-113365921D01*
X105024911Y-113676840D01*
X104935140Y-114011705D01*
X104912424Y-114357650D01*
X102997000Y-114357650D01*
X102997000Y-113075469D01*
X105635074Y-113075469D01*
X106680000Y-114120395D01*
X107724926Y-113075469D01*
X107614079Y-112798286D01*
X107303160Y-112644911D01*
X106968295Y-112555140D01*
X106622350Y-112532424D01*
X106278620Y-112577634D01*
X105950315Y-112689034D01*
X105745921Y-112798286D01*
X105635074Y-113075469D01*
X102997000Y-113075469D01*
X102997000Y-111596504D01*
X107560000Y-111596504D01*
X107560000Y-111923496D01*
X107623793Y-112244204D01*
X107748927Y-112546305D01*
X107930594Y-112818188D01*
X108161812Y-113049406D01*
X108433695Y-113231073D01*
X108735796Y-113356207D01*
X109056504Y-113420000D01*
X109383496Y-113420000D01*
X109704204Y-113356207D01*
X110006305Y-113231073D01*
X110239182Y-113075469D01*
X110715074Y-113075469D01*
X111760000Y-114120395D01*
X112804926Y-113075469D01*
X112694079Y-112798286D01*
X112383160Y-112644911D01*
X112048295Y-112555140D01*
X111702350Y-112532424D01*
X111358620Y-112577634D01*
X111030315Y-112689034D01*
X110825921Y-112798286D01*
X110715074Y-113075469D01*
X110239182Y-113075469D01*
X110278188Y-113049406D01*
X110509406Y-112818188D01*
X110691073Y-112546305D01*
X110816207Y-112244204D01*
X110880000Y-111923496D01*
X110880000Y-111596504D01*
X110816207Y-111275796D01*
X110691073Y-110973695D01*
X110509406Y-110701812D01*
X110278188Y-110470594D01*
X110239183Y-110444531D01*
X110715074Y-110444531D01*
X110825921Y-110721714D01*
X111136840Y-110875089D01*
X111471705Y-110964860D01*
X111817650Y-110987576D01*
X112161380Y-110942366D01*
X112489685Y-110830966D01*
X112694079Y-110721714D01*
X112804926Y-110444531D01*
X111760000Y-109399605D01*
X110715074Y-110444531D01*
X110239183Y-110444531D01*
X110006305Y-110288927D01*
X109704204Y-110163793D01*
X109383496Y-110100000D01*
X109056504Y-110100000D01*
X108735796Y-110163793D01*
X108433695Y-110288927D01*
X108161812Y-110470594D01*
X107930594Y-110701812D01*
X107748927Y-110973695D01*
X107623793Y-111275796D01*
X107560000Y-111596504D01*
X102997000Y-111596504D01*
X102997000Y-110444531D01*
X105635074Y-110444531D01*
X105745921Y-110721714D01*
X106056840Y-110875089D01*
X106391705Y-110964860D01*
X106737650Y-110987576D01*
X107081380Y-110942366D01*
X107409685Y-110830966D01*
X107614079Y-110721714D01*
X107724926Y-110444531D01*
X106680000Y-109399605D01*
X105635074Y-110444531D01*
X102997000Y-110444531D01*
X102997000Y-109277650D01*
X104912424Y-109277650D01*
X104957634Y-109621380D01*
X105069034Y-109949685D01*
X105178286Y-110154079D01*
X105455469Y-110264926D01*
X106500395Y-109220000D01*
X106859605Y-109220000D01*
X107904531Y-110264926D01*
X108181714Y-110154079D01*
X108335089Y-109843160D01*
X108424860Y-109508295D01*
X108440004Y-109277650D01*
X109992424Y-109277650D01*
X110037634Y-109621380D01*
X110149034Y-109949685D01*
X110258286Y-110154079D01*
X110535469Y-110264926D01*
X111580395Y-109220000D01*
X111939605Y-109220000D01*
X112984531Y-110264926D01*
X113261714Y-110154079D01*
X113415089Y-109843160D01*
X113504860Y-109508295D01*
X113527576Y-109162350D01*
X113482366Y-108818620D01*
X113370966Y-108490315D01*
X113261714Y-108285921D01*
X112984531Y-108175074D01*
X111939605Y-109220000D01*
X111580395Y-109220000D01*
X110535469Y-108175074D01*
X110258286Y-108285921D01*
X110104911Y-108596840D01*
X110015140Y-108931705D01*
X109992424Y-109277650D01*
X108440004Y-109277650D01*
X108447576Y-109162350D01*
X108402366Y-108818620D01*
X108290966Y-108490315D01*
X108181714Y-108285921D01*
X107904531Y-108175074D01*
X106859605Y-109220000D01*
X106500395Y-109220000D01*
X105455469Y-108175074D01*
X105178286Y-108285921D01*
X105024911Y-108596840D01*
X104935140Y-108931705D01*
X104912424Y-109277650D01*
X102997000Y-109277650D01*
X102997000Y-107995469D01*
X105635074Y-107995469D01*
X106680000Y-109040395D01*
X107724926Y-107995469D01*
X110715074Y-107995469D01*
X111760000Y-109040395D01*
X112804926Y-107995469D01*
X112694079Y-107718286D01*
X112383160Y-107564911D01*
X112048295Y-107475140D01*
X111702350Y-107452424D01*
X111358620Y-107497634D01*
X111030315Y-107609034D01*
X110825921Y-107718286D01*
X110715074Y-107995469D01*
X107724926Y-107995469D01*
X107614079Y-107718286D01*
X107303160Y-107564911D01*
X106968295Y-107475140D01*
X106622350Y-107452424D01*
X106278620Y-107497634D01*
X105950315Y-107609034D01*
X105745921Y-107718286D01*
X105635074Y-107995469D01*
X102997000Y-107995469D01*
X102997000Y-102536607D01*
X103295000Y-102536607D01*
X103295000Y-103203393D01*
X103425083Y-103857368D01*
X103680252Y-104473399D01*
X104050698Y-105027812D01*
X104522188Y-105499302D01*
X105076601Y-105869748D01*
X105692632Y-106124917D01*
X106346607Y-106255000D01*
X107013393Y-106255000D01*
X107667368Y-106124917D01*
X108283399Y-105869748D01*
X108837812Y-105499302D01*
X109309302Y-105027812D01*
X109679748Y-104473399D01*
X109934917Y-103857368D01*
X110065000Y-103203393D01*
X110065000Y-102655000D01*
X129956928Y-102655000D01*
X129956928Y-104355000D01*
X129969188Y-104479482D01*
X130005498Y-104599180D01*
X130064463Y-104709494D01*
X130143815Y-104806185D01*
X130240506Y-104885537D01*
X130350820Y-104944502D01*
X130470518Y-104980812D01*
X130595000Y-104993072D01*
X132295000Y-104993072D01*
X132419482Y-104980812D01*
X132539180Y-104944502D01*
X132649494Y-104885537D01*
X132746185Y-104806185D01*
X132825537Y-104709494D01*
X132884502Y-104599180D01*
X132908966Y-104518534D01*
X132984731Y-104602588D01*
X133218080Y-104776641D01*
X133480901Y-104901825D01*
X133628110Y-104946476D01*
X133858000Y-104825155D01*
X133858000Y-103632000D01*
X133838000Y-103632000D01*
X133838000Y-103378000D01*
X133858000Y-103378000D01*
X133858000Y-102184845D01*
X134112000Y-102184845D01*
X134112000Y-103378000D01*
X134132000Y-103378000D01*
X134132000Y-103632000D01*
X134112000Y-103632000D01*
X134112000Y-104825155D01*
X134341890Y-104946476D01*
X134489099Y-104901825D01*
X134751920Y-104776641D01*
X134985269Y-104602588D01*
X135180178Y-104386355D01*
X135249799Y-104269477D01*
X135284294Y-104334014D01*
X135469866Y-104560134D01*
X135695986Y-104745706D01*
X135953966Y-104883599D01*
X136233889Y-104968513D01*
X136452050Y-104990000D01*
X136597950Y-104990000D01*
X136816111Y-104968513D01*
X137096034Y-104883599D01*
X137354014Y-104745706D01*
X137580134Y-104560134D01*
X137765706Y-104334014D01*
X137903599Y-104076034D01*
X137988513Y-103796111D01*
X138017185Y-103505000D01*
X137988513Y-103213889D01*
X137903599Y-102933966D01*
X137765706Y-102675986D01*
X137651321Y-102536607D01*
X154095000Y-102536607D01*
X154095000Y-103203393D01*
X154225083Y-103857368D01*
X154480252Y-104473399D01*
X154850698Y-105027812D01*
X155322188Y-105499302D01*
X155876601Y-105869748D01*
X156492632Y-106124917D01*
X157146607Y-106255000D01*
X157813393Y-106255000D01*
X158467368Y-106124917D01*
X159083399Y-105869748D01*
X159637812Y-105499302D01*
X160109302Y-105027812D01*
X160479748Y-104473399D01*
X160734917Y-103857368D01*
X160865000Y-103203393D01*
X160865000Y-102536607D01*
X160734917Y-101882632D01*
X160479748Y-101266601D01*
X160109302Y-100712188D01*
X159637812Y-100240698D01*
X159083399Y-99870252D01*
X158467368Y-99615083D01*
X157813393Y-99485000D01*
X157146607Y-99485000D01*
X156492632Y-99615083D01*
X155876601Y-99870252D01*
X155322188Y-100240698D01*
X154850698Y-100712188D01*
X154480252Y-101266601D01*
X154225083Y-101882632D01*
X154095000Y-102536607D01*
X137651321Y-102536607D01*
X137580134Y-102449866D01*
X137354014Y-102264294D01*
X137096034Y-102126401D01*
X136816111Y-102041487D01*
X136597950Y-102020000D01*
X136452050Y-102020000D01*
X136233889Y-102041487D01*
X135953966Y-102126401D01*
X135695986Y-102264294D01*
X135469866Y-102449866D01*
X135284294Y-102675986D01*
X135249799Y-102740523D01*
X135180178Y-102623645D01*
X134985269Y-102407412D01*
X134751920Y-102233359D01*
X134489099Y-102108175D01*
X134341890Y-102063524D01*
X134112000Y-102184845D01*
X133858000Y-102184845D01*
X133628110Y-102063524D01*
X133480901Y-102108175D01*
X133218080Y-102233359D01*
X132984731Y-102407412D01*
X132908966Y-102491466D01*
X132884502Y-102410820D01*
X132825537Y-102300506D01*
X132746185Y-102203815D01*
X132649494Y-102124463D01*
X132539180Y-102065498D01*
X132419482Y-102029188D01*
X132295000Y-102016928D01*
X130595000Y-102016928D01*
X130470518Y-102029188D01*
X130350820Y-102065498D01*
X130240506Y-102124463D01*
X130143815Y-102203815D01*
X130064463Y-102300506D01*
X130005498Y-102410820D01*
X129969188Y-102530518D01*
X129956928Y-102655000D01*
X110065000Y-102655000D01*
X110065000Y-102536607D01*
X109934917Y-101882632D01*
X109679748Y-101266601D01*
X109309302Y-100712188D01*
X108837812Y-100240698D01*
X108283399Y-99870252D01*
X107667368Y-99615083D01*
X107013393Y-99485000D01*
X106346607Y-99485000D01*
X105692632Y-99615083D01*
X105076601Y-99870252D01*
X104522188Y-100240698D01*
X104050698Y-100712188D01*
X103680252Y-101266601D01*
X103425083Y-101882632D01*
X103295000Y-102536607D01*
X102997000Y-102536607D01*
X102997000Y-99187000D01*
X161163000Y-99187000D01*
X161163000Y-136398000D01*
M02*
