M48
; DRILL file {KiCad (5.1.2)-2} date 2019/7/6 9:47:12
; FORMAT={-:-/ absolute / inch / decimal}
; #@! TF.CreationDate,2019-07-06T09:47:12+08:00
; #@! TF.GenerationSoftware,Kicad,Pcbnew,(5.1.2)-2
; #@! TF.FileFunction,Plated,1,2,PTH
FMAT,2
INCH
T1C0.0157
T2C0.0276
T3C0.0394
T4C0.0591
T5C0.0669
T6C0.1260
%
G90
G05
T1
X4.15Y-4.6
X4.15Y-4.7
X4.225Y-4.6
X4.225Y-4.7
X4.275Y-4.7
X4.3Y-4.6
X4.3Y-5.05
X4.325Y-4.7
X4.35Y-4.6
X4.35Y-5.05
X4.375Y-4.7
X4.375Y-5.1
X4.4Y-4.6
X4.425Y-4.7
X4.425Y-5.125
X4.475Y-4.325
X4.475Y-4.475
X4.475Y-4.825
X4.475Y-4.925
X4.475Y-5.025
X4.475Y-5.125
X4.525Y-4.325
X4.525Y-4.525
X4.525Y-4.825
X4.525Y-4.925
X4.525Y-5.025
X4.525Y-5.125
X4.55Y-4.375
X4.55Y-4.575
X4.575Y-4.825
X4.575Y-4.925
X4.575Y-5.025
X4.575Y-5.125
X4.6Y-4.425
X4.6Y-4.6
X4.625Y-4.675
X4.625Y-4.825
X4.625Y-4.925
X4.65Y-4.475
X4.675Y-4.675
X4.675Y-4.775
X4.7Y-4.75
X4.7Y-4.9
X4.722Y-4.678
X4.725Y-4.5
X4.75Y-4.875
X4.775Y-4.5
X4.8Y-4.825
X4.825Y-4.5
X4.85Y-4.825
X4.875Y-4.5
X4.925Y-4.825
X4.95Y-4.5
X5.0Y-4.5
X5.025Y-4.525
X5.075Y-4.525
X5.1Y-4.875
X5.125Y-4.175
X5.125Y-4.25
X5.125Y-4.3
X5.125Y-4.35
X5.125Y-4.4
X5.125Y-4.45
X5.125Y-4.525
X5.125Y-4.825
X5.125Y-4.95
X5.15Y-4.775
X5.15Y-4.875
X5.175Y-4.825
X5.175Y-4.95
X5.2Y-4.775
X5.2Y-4.875
X5.225Y-4.225
X5.225Y-4.3
X5.225Y-4.35
X5.225Y-4.4
X5.225Y-4.475
X5.25Y-4.775
X5.25Y-4.825
X5.25Y-4.95
X5.275Y-4.525
X5.325Y-4.5
X5.35Y-4.475
X5.475Y-4.575
X5.525Y-4.575
X5.55Y-4.35
X5.55Y-4.4
X5.55Y-4.45
X5.575Y-4.575
X5.6352Y-4.5898
X5.65Y-4.3
X5.65Y-4.35
X5.65Y-4.4
X5.6667Y-4.4667
X5.7Y-4.75
X5.75Y-4.75
X5.756Y-4.644
X5.8Y-4.75
X5.806Y-4.644
X5.85Y-4.75
X5.856Y-4.644
X5.9Y-4.75
X5.9125Y-4.6375
T2
X6.15Y-4.925
X4.85Y-5.075
T3
X5.175Y-4.075
X5.275Y-4.075
X5.375Y-4.075
T4
X6.1Y-4.65
X4.3Y-4.4
X4.3Y-4.875
T5
X6.0Y-4.55
X6.0Y-4.75
X6.2Y-4.55
X6.2Y-4.75
X4.2Y-4.3
X4.2Y-4.5
X4.4Y-4.3
X4.4Y-4.5
X4.2Y-4.775
X4.2Y-4.975
X4.4Y-4.775
X4.4Y-4.975
T6
X6.175Y-5.2
X4.225Y-5.2
X6.175Y-4.075
X4.225Y-4.075
T0
M30
