G04 #@! TF.GenerationSoftware,KiCad,Pcbnew,(5.1.2)-2*
G04 #@! TF.CreationDate,2019-07-18T09:27:17+08:00*
G04 #@! TF.ProjectId,single_AM_eval_board,73696e67-6c65-45f4-914d-5f6576616c5f,rev?*
G04 #@! TF.SameCoordinates,Original*
G04 #@! TF.FileFunction,Legend,Top*
G04 #@! TF.FilePolarity,Positive*
%FSLAX46Y46*%
G04 Gerber Fmt 4.6, Leading zero omitted, Abs format (unit mm)*
G04 Created by KiCad (PCBNEW (5.1.2)-2) date 2019-07-18 09:27:17*
%MOMM*%
%LPD*%
G04 APERTURE LIST*
%ADD10C,0.150000*%
%ADD11C,0.120000*%
G04 APERTURE END LIST*
D10*
X129953476Y-149058761D02*
X130048714Y-149106380D01*
X130239190Y-149106380D01*
X130334428Y-149058761D01*
X130382047Y-148963523D01*
X130382047Y-148915904D01*
X130334428Y-148820666D01*
X130239190Y-148773047D01*
X130096333Y-148773047D01*
X130001095Y-148725428D01*
X129953476Y-148630190D01*
X129953476Y-148582571D01*
X130001095Y-148487333D01*
X130096333Y-148439714D01*
X130239190Y-148439714D01*
X130334428Y-148487333D01*
X130810619Y-149106380D02*
X130810619Y-148439714D01*
X130810619Y-148106380D02*
X130763000Y-148154000D01*
X130810619Y-148201619D01*
X130858238Y-148154000D01*
X130810619Y-148106380D01*
X130810619Y-148201619D01*
X131286809Y-148439714D02*
X131286809Y-149106380D01*
X131286809Y-148534952D02*
X131334428Y-148487333D01*
X131429666Y-148439714D01*
X131572523Y-148439714D01*
X131667761Y-148487333D01*
X131715380Y-148582571D01*
X131715380Y-149106380D01*
X132620142Y-148439714D02*
X132620142Y-149249238D01*
X132572523Y-149344476D01*
X132524904Y-149392095D01*
X132429666Y-149439714D01*
X132286809Y-149439714D01*
X132191571Y-149392095D01*
X132620142Y-149058761D02*
X132524904Y-149106380D01*
X132334428Y-149106380D01*
X132239190Y-149058761D01*
X132191571Y-149011142D01*
X132143952Y-148915904D01*
X132143952Y-148630190D01*
X132191571Y-148534952D01*
X132239190Y-148487333D01*
X132334428Y-148439714D01*
X132524904Y-148439714D01*
X132620142Y-148487333D01*
X133239190Y-149106380D02*
X133143952Y-149058761D01*
X133096333Y-148963523D01*
X133096333Y-148106380D01*
X134001095Y-149058761D02*
X133905857Y-149106380D01*
X133715380Y-149106380D01*
X133620142Y-149058761D01*
X133572523Y-148963523D01*
X133572523Y-148582571D01*
X133620142Y-148487333D01*
X133715380Y-148439714D01*
X133905857Y-148439714D01*
X134001095Y-148487333D01*
X134048714Y-148582571D01*
X134048714Y-148677809D01*
X133572523Y-148773047D01*
X134477285Y-148725428D02*
X135239190Y-148725428D01*
X135905857Y-148106380D02*
X136096333Y-148106380D01*
X136191571Y-148154000D01*
X136286809Y-148249238D01*
X136334428Y-148439714D01*
X136334428Y-148773047D01*
X136286809Y-148963523D01*
X136191571Y-149058761D01*
X136096333Y-149106380D01*
X135905857Y-149106380D01*
X135810619Y-149058761D01*
X135715380Y-148963523D01*
X135667761Y-148773047D01*
X135667761Y-148439714D01*
X135715380Y-148249238D01*
X135810619Y-148154000D01*
X135905857Y-148106380D01*
X136763000Y-149106380D02*
X136763000Y-148106380D01*
X137143952Y-148106380D01*
X137239190Y-148154000D01*
X137286809Y-148201619D01*
X137334428Y-148296857D01*
X137334428Y-148439714D01*
X137286809Y-148534952D01*
X137239190Y-148582571D01*
X137143952Y-148630190D01*
X136763000Y-148630190D01*
X137763000Y-148725428D02*
X138524904Y-148725428D01*
X138953476Y-148820666D02*
X139429666Y-148820666D01*
X138858238Y-149106380D02*
X139191571Y-148106380D01*
X139524904Y-149106380D01*
X139858238Y-149106380D02*
X139858238Y-148106380D01*
X140191571Y-148820666D01*
X140524904Y-148106380D01*
X140524904Y-149106380D01*
X141001095Y-149106380D02*
X141001095Y-148106380D01*
X141382047Y-148106380D01*
X141477285Y-148154000D01*
X141524904Y-148201619D01*
X141572523Y-148296857D01*
X141572523Y-148439714D01*
X141524904Y-148534952D01*
X141477285Y-148582571D01*
X141382047Y-148630190D01*
X141001095Y-148630190D01*
X132120142Y-150708761D02*
X132024904Y-150756380D01*
X131834428Y-150756380D01*
X131739190Y-150708761D01*
X131691571Y-150613523D01*
X131691571Y-150232571D01*
X131739190Y-150137333D01*
X131834428Y-150089714D01*
X132024904Y-150089714D01*
X132120142Y-150137333D01*
X132167761Y-150232571D01*
X132167761Y-150327809D01*
X131691571Y-150423047D01*
X132501095Y-150089714D02*
X132739190Y-150756380D01*
X132977285Y-150089714D01*
X133786809Y-150756380D02*
X133786809Y-150232571D01*
X133739190Y-150137333D01*
X133643952Y-150089714D01*
X133453476Y-150089714D01*
X133358238Y-150137333D01*
X133786809Y-150708761D02*
X133691571Y-150756380D01*
X133453476Y-150756380D01*
X133358238Y-150708761D01*
X133310619Y-150613523D01*
X133310619Y-150518285D01*
X133358238Y-150423047D01*
X133453476Y-150375428D01*
X133691571Y-150375428D01*
X133786809Y-150327809D01*
X134405857Y-150756380D02*
X134310619Y-150708761D01*
X134263000Y-150613523D01*
X134263000Y-149756380D01*
X134786809Y-150375428D02*
X135548714Y-150375428D01*
X136024904Y-150756380D02*
X136024904Y-149756380D01*
X136024904Y-150137333D02*
X136120142Y-150089714D01*
X136310619Y-150089714D01*
X136405857Y-150137333D01*
X136453476Y-150184952D01*
X136501095Y-150280190D01*
X136501095Y-150565904D01*
X136453476Y-150661142D01*
X136405857Y-150708761D01*
X136310619Y-150756380D01*
X136120142Y-150756380D01*
X136024904Y-150708761D01*
X137072523Y-150756380D02*
X136977285Y-150708761D01*
X136929666Y-150661142D01*
X136882047Y-150565904D01*
X136882047Y-150280190D01*
X136929666Y-150184952D01*
X136977285Y-150137333D01*
X137072523Y-150089714D01*
X137215380Y-150089714D01*
X137310619Y-150137333D01*
X137358238Y-150184952D01*
X137405857Y-150280190D01*
X137405857Y-150565904D01*
X137358238Y-150661142D01*
X137310619Y-150708761D01*
X137215380Y-150756380D01*
X137072523Y-150756380D01*
X138263000Y-150756380D02*
X138263000Y-150232571D01*
X138215380Y-150137333D01*
X138120142Y-150089714D01*
X137929666Y-150089714D01*
X137834428Y-150137333D01*
X138263000Y-150708761D02*
X138167761Y-150756380D01*
X137929666Y-150756380D01*
X137834428Y-150708761D01*
X137786809Y-150613523D01*
X137786809Y-150518285D01*
X137834428Y-150423047D01*
X137929666Y-150375428D01*
X138167761Y-150375428D01*
X138263000Y-150327809D01*
X138739190Y-150756380D02*
X138739190Y-150089714D01*
X138739190Y-150280190D02*
X138786809Y-150184952D01*
X138834428Y-150137333D01*
X138929666Y-150089714D01*
X139024904Y-150089714D01*
X139786809Y-150756380D02*
X139786809Y-149756380D01*
X139786809Y-150708761D02*
X139691571Y-150756380D01*
X139501095Y-150756380D01*
X139405857Y-150708761D01*
X139358238Y-150661142D01*
X139310619Y-150565904D01*
X139310619Y-150280190D01*
X139358238Y-150184952D01*
X139405857Y-150137333D01*
X139501095Y-150089714D01*
X139691571Y-150089714D01*
X139786809Y-150137333D01*
D11*
X141164000Y-135823000D02*
X141734000Y-135823000D01*
X143254000Y-135823000D02*
X143824000Y-135823000D01*
X141164000Y-135703000D02*
X141164000Y-135823000D01*
X143824000Y-135703000D02*
X143824000Y-135823000D01*
X143824000Y-134368000D02*
X143824000Y-135128000D01*
X142494000Y-134368000D02*
X143824000Y-134368000D01*
X146936500Y-134493000D02*
G75*
G03X146936500Y-134493000I-950000J0D01*
G01*
X104203500Y-134622000D02*
X105533500Y-134622000D01*
X105533500Y-134622000D02*
X105533500Y-135382000D01*
X105533500Y-135957000D02*
X105533500Y-136077000D01*
X102873500Y-135957000D02*
X102873500Y-136077000D01*
X104963500Y-136077000D02*
X105533500Y-136077000D01*
X102873500Y-136077000D02*
X103443500Y-136077000D01*
X102042000Y-133350000D02*
G75*
G03X102042000Y-133350000I-950000J0D01*
G01*
X124567767Y-148084000D02*
X124225233Y-148084000D01*
X124567767Y-147064000D02*
X124225233Y-147064000D01*
X134046500Y-140188767D02*
X134046500Y-139846233D01*
X135066500Y-140188767D02*
X135066500Y-139846233D01*
X119335733Y-149417500D02*
X119678267Y-149417500D01*
X119335733Y-148397500D02*
X119678267Y-148397500D01*
X100023000Y-137996000D02*
X102923000Y-137996000D01*
X100023000Y-144706000D02*
X102923000Y-144706000D01*
X104828000Y-139901000D02*
X104828000Y-142801000D01*
X98118000Y-139901000D02*
X98118000Y-142801000D01*
X118725000Y-126445000D02*
X118725000Y-132415000D01*
X118725000Y-132415000D02*
X128845000Y-132415000D01*
X128845000Y-132415000D02*
X128845000Y-126445000D01*
X128845000Y-126445000D02*
X118725000Y-126445000D01*
X122035000Y-126455000D02*
X122035000Y-127205000D01*
X122035000Y-127205000D02*
X125535000Y-127205000D01*
X125535000Y-127205000D02*
X125535000Y-126455000D01*
X125535000Y-126455000D02*
X122035000Y-126455000D01*
X118735000Y-126455000D02*
X118735000Y-127205000D01*
X118735000Y-127205000D02*
X120535000Y-127205000D01*
X120535000Y-127205000D02*
X120535000Y-126455000D01*
X120535000Y-126455000D02*
X118735000Y-126455000D01*
X127035000Y-126455000D02*
X127035000Y-127205000D01*
X127035000Y-127205000D02*
X128835000Y-127205000D01*
X128835000Y-127205000D02*
X128835000Y-126455000D01*
X128835000Y-126455000D02*
X127035000Y-126455000D01*
X118735000Y-128705000D02*
X119485000Y-128705000D01*
X119485000Y-128705000D02*
X119485000Y-131655000D01*
X119485000Y-131655000D02*
X123785000Y-131655000D01*
X128835000Y-128705000D02*
X128085000Y-128705000D01*
X128085000Y-128705000D02*
X128085000Y-131655000D01*
X128085000Y-131655000D02*
X123785000Y-131655000D01*
X119685000Y-126155000D02*
X118435000Y-126155000D01*
X118435000Y-126155000D02*
X118435000Y-127405000D01*
X142250500Y-139964500D02*
X142250500Y-142864500D01*
X148960500Y-139964500D02*
X148960500Y-142864500D01*
X144155500Y-144769500D02*
X147055500Y-144769500D01*
X144155500Y-138059500D02*
X147055500Y-138059500D01*
X110428500Y-149053733D02*
X110428500Y-149396267D01*
X109408500Y-149053733D02*
X109408500Y-149396267D01*
X116524500Y-148926733D02*
X116524500Y-149269267D01*
X115504500Y-148926733D02*
X115504500Y-149269267D01*
X123297767Y-138555000D02*
X122955233Y-138555000D01*
X123297767Y-139575000D02*
X122955233Y-139575000D01*
X131108267Y-143508000D02*
X130765733Y-143508000D01*
X131108267Y-144528000D02*
X130765733Y-144528000D01*
X124206000Y-145752500D02*
X126156000Y-145752500D01*
X124206000Y-145752500D02*
X122256000Y-145752500D01*
X124206000Y-140632500D02*
X126156000Y-140632500D01*
X124206000Y-140632500D02*
X120756000Y-140632500D01*
X132060767Y-131697000D02*
X131718233Y-131697000D01*
X132060767Y-132717000D02*
X131718233Y-132717000D01*
X131189000Y-125774267D02*
X131189000Y-125431733D01*
X132209000Y-125774267D02*
X132209000Y-125431733D01*
X114636733Y-127700500D02*
X114979267Y-127700500D01*
X114636733Y-126680500D02*
X114979267Y-126680500D01*
X109772267Y-141861000D02*
X109429733Y-141861000D01*
X109772267Y-140841000D02*
X109429733Y-140841000D01*
X111000000Y-131464233D02*
X111000000Y-131806767D01*
X109980000Y-131464233D02*
X109980000Y-131806767D01*
X135870767Y-144206500D02*
X135528233Y-144206500D01*
X135870767Y-145226500D02*
X135528233Y-145226500D01*
X136452500Y-126401500D02*
X138912500Y-126401500D01*
X136452500Y-124931500D02*
X136452500Y-126401500D01*
X138912500Y-124931500D02*
X136452500Y-124931500D01*
X115481000Y-132107000D02*
X113021000Y-132107000D01*
X113021000Y-132107000D02*
X113021000Y-133577000D01*
X113021000Y-133577000D02*
X115481000Y-133577000D01*
X110952000Y-134602000D02*
X111552000Y-134602000D01*
X110252000Y-138052000D02*
X110252000Y-135252000D01*
X111552000Y-138702000D02*
X110952000Y-138702000D01*
X112252000Y-135252000D02*
X112252000Y-138052000D01*
X112252000Y-138002000D02*
G75*
G02X111552000Y-138702000I-700000J0D01*
G01*
X110952000Y-138702000D02*
G75*
G02X110252000Y-138002000I0J700000D01*
G01*
X110252000Y-135302000D02*
G75*
G02X110952000Y-134602000I700000J0D01*
G01*
X111552000Y-134602000D02*
G75*
G02X112252000Y-135302000I0J-700000D01*
G01*
X109915500Y-146161000D02*
X109915500Y-144161000D01*
X112715500Y-146161000D02*
X109915500Y-146161000D01*
X112715500Y-144161000D02*
X112715500Y-146161000D01*
X109915500Y-144161000D02*
X112715500Y-144161000D01*
X131237000Y-137840500D02*
G75*
G02X131937000Y-138540500I0J-700000D01*
G01*
X129937000Y-138540500D02*
G75*
G02X130637000Y-137840500I700000J0D01*
G01*
X130637000Y-141940500D02*
G75*
G02X129937000Y-141240500I0J700000D01*
G01*
X131937000Y-141240500D02*
G75*
G02X131237000Y-141940500I-700000J0D01*
G01*
X131937000Y-138490500D02*
X131937000Y-141290500D01*
X131237000Y-141940500D02*
X130637000Y-141940500D01*
X129937000Y-141290500D02*
X129937000Y-138490500D01*
X130637000Y-137840500D02*
X131237000Y-137840500D01*
X132150752Y-129234000D02*
X131628248Y-129234000D01*
X132150752Y-127814000D02*
X131628248Y-127814000D01*
X115005752Y-129274500D02*
X114483248Y-129274500D01*
X115005752Y-130694500D02*
X114483248Y-130694500D01*
X116312767Y-140333000D02*
X115970233Y-140333000D01*
X116312767Y-141353000D02*
X115970233Y-141353000D01*
X116016500Y-144164233D02*
X116016500Y-144506767D01*
X114996500Y-144164233D02*
X114996500Y-144506767D01*
X112985733Y-150624000D02*
X113328267Y-150624000D01*
X112985733Y-149604000D02*
X113328267Y-149604000D01*
X137877733Y-129224500D02*
X138220267Y-129224500D01*
X137877733Y-128204500D02*
X138220267Y-128204500D01*
X113328267Y-148719000D02*
X112985733Y-148719000D01*
X113328267Y-147699000D02*
X112985733Y-147699000D01*
X124904500Y-134496500D02*
X124904500Y-137156500D01*
X124904500Y-134496500D02*
X119764500Y-134496500D01*
X119764500Y-134496500D02*
X119764500Y-137156500D01*
X124904500Y-137156500D02*
X119764500Y-137156500D01*
X127504500Y-137156500D02*
X126174500Y-137156500D01*
X127504500Y-135826500D02*
X127504500Y-137156500D01*
X114915767Y-136082500D02*
X114573233Y-136082500D01*
X114915767Y-135062500D02*
X114573233Y-135062500D01*
D10*
X141732095Y-132493000D02*
X141636857Y-132445380D01*
X141494000Y-132445380D01*
X141351142Y-132493000D01*
X141255904Y-132588238D01*
X141208285Y-132683476D01*
X141160666Y-132873952D01*
X141160666Y-133016809D01*
X141208285Y-133207285D01*
X141255904Y-133302523D01*
X141351142Y-133397761D01*
X141494000Y-133445380D01*
X141589238Y-133445380D01*
X141732095Y-133397761D01*
X141779714Y-133350142D01*
X141779714Y-133016809D01*
X141589238Y-133016809D01*
X142208285Y-133445380D02*
X142208285Y-132445380D01*
X142779714Y-133445380D01*
X142779714Y-132445380D01*
X143255904Y-133445380D02*
X143255904Y-132445380D01*
X143494000Y-132445380D01*
X143636857Y-132493000D01*
X143732095Y-132588238D01*
X143779714Y-132683476D01*
X143827333Y-132873952D01*
X143827333Y-133016809D01*
X143779714Y-133207285D01*
X143732095Y-133302523D01*
X143636857Y-133397761D01*
X143494000Y-133445380D01*
X143255904Y-133445380D01*
X144724595Y-132297380D02*
X145296023Y-132297380D01*
X145010309Y-133297380D02*
X145010309Y-132297380D01*
X145629357Y-133297380D02*
X145629357Y-132297380D01*
X146010309Y-132297380D01*
X146105547Y-132345000D01*
X146153166Y-132392619D01*
X146200785Y-132487857D01*
X146200785Y-132630714D01*
X146153166Y-132725952D01*
X146105547Y-132773571D01*
X146010309Y-132821190D01*
X145629357Y-132821190D01*
X146581738Y-132392619D02*
X146629357Y-132345000D01*
X146724595Y-132297380D01*
X146962690Y-132297380D01*
X147057928Y-132345000D01*
X147105547Y-132392619D01*
X147153166Y-132487857D01*
X147153166Y-132583095D01*
X147105547Y-132725952D01*
X146534119Y-133297380D01*
X147153166Y-133297380D01*
X103441595Y-132747000D02*
X103346357Y-132699380D01*
X103203500Y-132699380D01*
X103060642Y-132747000D01*
X102965404Y-132842238D01*
X102917785Y-132937476D01*
X102870166Y-133127952D01*
X102870166Y-133270809D01*
X102917785Y-133461285D01*
X102965404Y-133556523D01*
X103060642Y-133651761D01*
X103203500Y-133699380D01*
X103298738Y-133699380D01*
X103441595Y-133651761D01*
X103489214Y-133604142D01*
X103489214Y-133270809D01*
X103298738Y-133270809D01*
X103917785Y-133699380D02*
X103917785Y-132699380D01*
X104489214Y-133699380D01*
X104489214Y-132699380D01*
X104965404Y-133699380D02*
X104965404Y-132699380D01*
X105203500Y-132699380D01*
X105346357Y-132747000D01*
X105441595Y-132842238D01*
X105489214Y-132937476D01*
X105536833Y-133127952D01*
X105536833Y-133270809D01*
X105489214Y-133461285D01*
X105441595Y-133556523D01*
X105346357Y-133651761D01*
X105203500Y-133699380D01*
X104965404Y-133699380D01*
X99830095Y-131154380D02*
X100401523Y-131154380D01*
X100115809Y-132154380D02*
X100115809Y-131154380D01*
X100734857Y-132154380D02*
X100734857Y-131154380D01*
X101115809Y-131154380D01*
X101211047Y-131202000D01*
X101258666Y-131249619D01*
X101306285Y-131344857D01*
X101306285Y-131487714D01*
X101258666Y-131582952D01*
X101211047Y-131630571D01*
X101115809Y-131678190D01*
X100734857Y-131678190D01*
X102258666Y-132154380D02*
X101687238Y-132154380D01*
X101972952Y-132154380D02*
X101972952Y-131154380D01*
X101877714Y-131297238D01*
X101782476Y-131392476D01*
X101687238Y-131440095D01*
X123753642Y-149456380D02*
X123420309Y-148980190D01*
X123182214Y-149456380D02*
X123182214Y-148456380D01*
X123563166Y-148456380D01*
X123658404Y-148504000D01*
X123706023Y-148551619D01*
X123753642Y-148646857D01*
X123753642Y-148789714D01*
X123706023Y-148884952D01*
X123658404Y-148932571D01*
X123563166Y-148980190D01*
X123182214Y-148980190D01*
X124706023Y-149456380D02*
X124134595Y-149456380D01*
X124420309Y-149456380D02*
X124420309Y-148456380D01*
X124325071Y-148599238D01*
X124229833Y-148694476D01*
X124134595Y-148742095D01*
X125325071Y-148456380D02*
X125420309Y-148456380D01*
X125515547Y-148504000D01*
X125563166Y-148551619D01*
X125610785Y-148646857D01*
X125658404Y-148837333D01*
X125658404Y-149075428D01*
X125610785Y-149265904D01*
X125563166Y-149361142D01*
X125515547Y-149408761D01*
X125420309Y-149456380D01*
X125325071Y-149456380D01*
X125229833Y-149408761D01*
X125182214Y-149361142D01*
X125134595Y-149265904D01*
X125086976Y-149075428D01*
X125086976Y-148837333D01*
X125134595Y-148646857D01*
X125182214Y-148551619D01*
X125229833Y-148504000D01*
X125325071Y-148456380D01*
X136437642Y-140184166D02*
X136485261Y-140231785D01*
X136532880Y-140374642D01*
X136532880Y-140469880D01*
X136485261Y-140612738D01*
X136390023Y-140707976D01*
X136294785Y-140755595D01*
X136104309Y-140803214D01*
X135961452Y-140803214D01*
X135770976Y-140755595D01*
X135675738Y-140707976D01*
X135580500Y-140612738D01*
X135532880Y-140469880D01*
X135532880Y-140374642D01*
X135580500Y-140231785D01*
X135628119Y-140184166D01*
X135866214Y-139327023D02*
X136532880Y-139327023D01*
X135485261Y-139565119D02*
X136199547Y-139803214D01*
X136199547Y-139184166D01*
X119340333Y-147834642D02*
X119292714Y-147882261D01*
X119149857Y-147929880D01*
X119054619Y-147929880D01*
X118911761Y-147882261D01*
X118816523Y-147787023D01*
X118768904Y-147691785D01*
X118721285Y-147501309D01*
X118721285Y-147358452D01*
X118768904Y-147167976D01*
X118816523Y-147072738D01*
X118911761Y-146977500D01*
X119054619Y-146929880D01*
X119149857Y-146929880D01*
X119292714Y-146977500D01*
X119340333Y-147025119D01*
X120245095Y-146929880D02*
X119768904Y-146929880D01*
X119721285Y-147406071D01*
X119768904Y-147358452D01*
X119864142Y-147310833D01*
X120102238Y-147310833D01*
X120197476Y-147358452D01*
X120245095Y-147406071D01*
X120292714Y-147501309D01*
X120292714Y-147739404D01*
X120245095Y-147834642D01*
X120197476Y-147882261D01*
X120102238Y-147929880D01*
X119864142Y-147929880D01*
X119768904Y-147882261D01*
X119721285Y-147834642D01*
X100949190Y-146057880D02*
X100949190Y-145057880D01*
X101425380Y-146057880D02*
X101425380Y-145057880D01*
X101996809Y-146057880D01*
X101996809Y-145057880D01*
X118832619Y-124807380D02*
X119165952Y-125807380D01*
X119499285Y-124807380D01*
X119832619Y-125283571D02*
X120165952Y-125283571D01*
X120308809Y-125807380D02*
X119832619Y-125807380D01*
X119832619Y-124807380D01*
X120308809Y-124807380D01*
X120737380Y-125283571D02*
X121070714Y-125283571D01*
X121213571Y-125807380D02*
X120737380Y-125807380D01*
X120737380Y-124807380D01*
X121213571Y-124807380D01*
X122927857Y-124855000D02*
X122832619Y-124807380D01*
X122689761Y-124807380D01*
X122546904Y-124855000D01*
X122451666Y-124950238D01*
X122404047Y-125045476D01*
X122356428Y-125235952D01*
X122356428Y-125378809D01*
X122404047Y-125569285D01*
X122451666Y-125664523D01*
X122546904Y-125759761D01*
X122689761Y-125807380D01*
X122785000Y-125807380D01*
X122927857Y-125759761D01*
X122975476Y-125712142D01*
X122975476Y-125378809D01*
X122785000Y-125378809D01*
X123404047Y-125807380D02*
X123404047Y-124807380D01*
X123975476Y-125807380D01*
X123975476Y-124807380D01*
X124451666Y-125807380D02*
X124451666Y-124807380D01*
X124689761Y-124807380D01*
X124832619Y-124855000D01*
X124927857Y-124950238D01*
X124975476Y-125045476D01*
X125023095Y-125235952D01*
X125023095Y-125378809D01*
X124975476Y-125569285D01*
X124927857Y-125664523D01*
X124832619Y-125759761D01*
X124689761Y-125807380D01*
X124451666Y-125807380D01*
X126070714Y-124807380D02*
X126404047Y-125807380D01*
X126737380Y-124807380D01*
X127642142Y-125712142D02*
X127594523Y-125759761D01*
X127451666Y-125807380D01*
X127356428Y-125807380D01*
X127213571Y-125759761D01*
X127118333Y-125664523D01*
X127070714Y-125569285D01*
X127023095Y-125378809D01*
X127023095Y-125235952D01*
X127070714Y-125045476D01*
X127118333Y-124950238D01*
X127213571Y-124855000D01*
X127356428Y-124807380D01*
X127451666Y-124807380D01*
X127594523Y-124855000D01*
X127642142Y-124902619D01*
X128642142Y-125712142D02*
X128594523Y-125759761D01*
X128451666Y-125807380D01*
X128356428Y-125807380D01*
X128213571Y-125759761D01*
X128118333Y-125664523D01*
X128070714Y-125569285D01*
X128023095Y-125378809D01*
X128023095Y-125235952D01*
X128070714Y-125045476D01*
X128118333Y-124950238D01*
X128213571Y-124855000D01*
X128356428Y-124807380D01*
X128451666Y-124807380D01*
X128594523Y-124855000D01*
X128642142Y-124902619D01*
X144605500Y-146010380D02*
X144795976Y-146010380D01*
X144891214Y-146058000D01*
X144986452Y-146153238D01*
X145034071Y-146343714D01*
X145034071Y-146677047D01*
X144986452Y-146867523D01*
X144891214Y-146962761D01*
X144795976Y-147010380D01*
X144605500Y-147010380D01*
X144510261Y-146962761D01*
X144415023Y-146867523D01*
X144367404Y-146677047D01*
X144367404Y-146343714D01*
X144415023Y-146153238D01*
X144510261Y-146058000D01*
X144605500Y-146010380D01*
X145462642Y-146010380D02*
X145462642Y-146819904D01*
X145510261Y-146915142D01*
X145557880Y-146962761D01*
X145653119Y-147010380D01*
X145843595Y-147010380D01*
X145938833Y-146962761D01*
X145986452Y-146915142D01*
X146034071Y-146819904D01*
X146034071Y-146010380D01*
X146367404Y-146010380D02*
X146938833Y-146010380D01*
X146653119Y-147010380D02*
X146653119Y-146010380D01*
X111640880Y-149391666D02*
X111164690Y-149725000D01*
X111640880Y-149963095D02*
X110640880Y-149963095D01*
X110640880Y-149582142D01*
X110688500Y-149486904D01*
X110736119Y-149439285D01*
X110831357Y-149391666D01*
X110974214Y-149391666D01*
X111069452Y-149439285D01*
X111117071Y-149486904D01*
X111164690Y-149582142D01*
X111164690Y-149963095D01*
X110736119Y-149010714D02*
X110688500Y-148963095D01*
X110640880Y-148867857D01*
X110640880Y-148629761D01*
X110688500Y-148534523D01*
X110736119Y-148486904D01*
X110831357Y-148439285D01*
X110926595Y-148439285D01*
X111069452Y-148486904D01*
X111640880Y-149058333D01*
X111640880Y-148439285D01*
X117896880Y-149264666D02*
X117420690Y-149598000D01*
X117896880Y-149836095D02*
X116896880Y-149836095D01*
X116896880Y-149455142D01*
X116944500Y-149359904D01*
X116992119Y-149312285D01*
X117087357Y-149264666D01*
X117230214Y-149264666D01*
X117325452Y-149312285D01*
X117373071Y-149359904D01*
X117420690Y-149455142D01*
X117420690Y-149836095D01*
X116896880Y-148359904D02*
X116896880Y-148836095D01*
X117373071Y-148883714D01*
X117325452Y-148836095D01*
X117277833Y-148740857D01*
X117277833Y-148502761D01*
X117325452Y-148407523D01*
X117373071Y-148359904D01*
X117468309Y-148312285D01*
X117706404Y-148312285D01*
X117801642Y-148359904D01*
X117849261Y-148407523D01*
X117896880Y-148502761D01*
X117896880Y-148740857D01*
X117849261Y-148836095D01*
X117801642Y-148883714D01*
X123023333Y-138120380D02*
X122690000Y-137644190D01*
X122451904Y-138120380D02*
X122451904Y-137120380D01*
X122832857Y-137120380D01*
X122928095Y-137168000D01*
X122975714Y-137215619D01*
X123023333Y-137310857D01*
X123023333Y-137453714D01*
X122975714Y-137548952D01*
X122928095Y-137596571D01*
X122832857Y-137644190D01*
X122451904Y-137644190D01*
X123356666Y-137120380D02*
X124023333Y-137120380D01*
X123594761Y-138120380D01*
X130770333Y-145900380D02*
X130437000Y-145424190D01*
X130198904Y-145900380D02*
X130198904Y-144900380D01*
X130579857Y-144900380D01*
X130675095Y-144948000D01*
X130722714Y-144995619D01*
X130770333Y-145090857D01*
X130770333Y-145233714D01*
X130722714Y-145328952D01*
X130675095Y-145376571D01*
X130579857Y-145424190D01*
X130198904Y-145424190D01*
X131341761Y-145328952D02*
X131246523Y-145281333D01*
X131198904Y-145233714D01*
X131151285Y-145138476D01*
X131151285Y-145090857D01*
X131198904Y-144995619D01*
X131246523Y-144948000D01*
X131341761Y-144900380D01*
X131532238Y-144900380D01*
X131627476Y-144948000D01*
X131675095Y-144995619D01*
X131722714Y-145090857D01*
X131722714Y-145138476D01*
X131675095Y-145233714D01*
X131627476Y-145281333D01*
X131532238Y-145328952D01*
X131341761Y-145328952D01*
X131246523Y-145376571D01*
X131198904Y-145424190D01*
X131151285Y-145519428D01*
X131151285Y-145709904D01*
X131198904Y-145805142D01*
X131246523Y-145852761D01*
X131341761Y-145900380D01*
X131532238Y-145900380D01*
X131627476Y-145852761D01*
X131675095Y-145805142D01*
X131722714Y-145709904D01*
X131722714Y-145519428D01*
X131675095Y-145424190D01*
X131627476Y-145376571D01*
X131532238Y-145328952D01*
X123698095Y-145819880D02*
X123698095Y-146629404D01*
X123745714Y-146724642D01*
X123793333Y-146772261D01*
X123888571Y-146819880D01*
X124079047Y-146819880D01*
X124174285Y-146772261D01*
X124221904Y-146724642D01*
X124269523Y-146629404D01*
X124269523Y-145819880D01*
X125269523Y-146819880D02*
X124698095Y-146819880D01*
X124983809Y-146819880D02*
X124983809Y-145819880D01*
X124888571Y-145962738D01*
X124793333Y-146057976D01*
X124698095Y-146105595D01*
X131722833Y-133994142D02*
X131675214Y-134041761D01*
X131532357Y-134089380D01*
X131437119Y-134089380D01*
X131294261Y-134041761D01*
X131199023Y-133946523D01*
X131151404Y-133851285D01*
X131103785Y-133660809D01*
X131103785Y-133517952D01*
X131151404Y-133327476D01*
X131199023Y-133232238D01*
X131294261Y-133137000D01*
X131437119Y-133089380D01*
X131532357Y-133089380D01*
X131675214Y-133137000D01*
X131722833Y-133184619D01*
X132675214Y-134089380D02*
X132103785Y-134089380D01*
X132389500Y-134089380D02*
X132389500Y-133089380D01*
X132294261Y-133232238D01*
X132199023Y-133327476D01*
X132103785Y-133375095D01*
X130626142Y-125769666D02*
X130673761Y-125817285D01*
X130721380Y-125960142D01*
X130721380Y-126055380D01*
X130673761Y-126198238D01*
X130578523Y-126293476D01*
X130483285Y-126341095D01*
X130292809Y-126388714D01*
X130149952Y-126388714D01*
X129959476Y-126341095D01*
X129864238Y-126293476D01*
X129769000Y-126198238D01*
X129721380Y-126055380D01*
X129721380Y-125960142D01*
X129769000Y-125817285D01*
X129816619Y-125769666D01*
X129816619Y-125388714D02*
X129769000Y-125341095D01*
X129721380Y-125245857D01*
X129721380Y-125007761D01*
X129769000Y-124912523D01*
X129816619Y-124864904D01*
X129911857Y-124817285D01*
X130007095Y-124817285D01*
X130149952Y-124864904D01*
X130721380Y-125436333D01*
X130721380Y-124817285D01*
X114641333Y-126117642D02*
X114593714Y-126165261D01*
X114450857Y-126212880D01*
X114355619Y-126212880D01*
X114212761Y-126165261D01*
X114117523Y-126070023D01*
X114069904Y-125974785D01*
X114022285Y-125784309D01*
X114022285Y-125641452D01*
X114069904Y-125450976D01*
X114117523Y-125355738D01*
X114212761Y-125260500D01*
X114355619Y-125212880D01*
X114450857Y-125212880D01*
X114593714Y-125260500D01*
X114641333Y-125308119D01*
X115498476Y-125212880D02*
X115308000Y-125212880D01*
X115212761Y-125260500D01*
X115165142Y-125308119D01*
X115069904Y-125450976D01*
X115022285Y-125641452D01*
X115022285Y-126022404D01*
X115069904Y-126117642D01*
X115117523Y-126165261D01*
X115212761Y-126212880D01*
X115403238Y-126212880D01*
X115498476Y-126165261D01*
X115546095Y-126117642D01*
X115593714Y-126022404D01*
X115593714Y-125784309D01*
X115546095Y-125689071D01*
X115498476Y-125641452D01*
X115403238Y-125593833D01*
X115212761Y-125593833D01*
X115117523Y-125641452D01*
X115069904Y-125689071D01*
X115022285Y-125784309D01*
X109434333Y-143138142D02*
X109386714Y-143185761D01*
X109243857Y-143233380D01*
X109148619Y-143233380D01*
X109005761Y-143185761D01*
X108910523Y-143090523D01*
X108862904Y-142995285D01*
X108815285Y-142804809D01*
X108815285Y-142661952D01*
X108862904Y-142471476D01*
X108910523Y-142376238D01*
X109005761Y-142281000D01*
X109148619Y-142233380D01*
X109243857Y-142233380D01*
X109386714Y-142281000D01*
X109434333Y-142328619D01*
X109767666Y-142233380D02*
X110434333Y-142233380D01*
X110005761Y-143233380D01*
X112277142Y-131802166D02*
X112324761Y-131849785D01*
X112372380Y-131992642D01*
X112372380Y-132087880D01*
X112324761Y-132230738D01*
X112229523Y-132325976D01*
X112134285Y-132373595D01*
X111943809Y-132421214D01*
X111800952Y-132421214D01*
X111610476Y-132373595D01*
X111515238Y-132325976D01*
X111420000Y-132230738D01*
X111372380Y-132087880D01*
X111372380Y-131992642D01*
X111420000Y-131849785D01*
X111467619Y-131802166D01*
X111800952Y-131230738D02*
X111753333Y-131325976D01*
X111705714Y-131373595D01*
X111610476Y-131421214D01*
X111562857Y-131421214D01*
X111467619Y-131373595D01*
X111420000Y-131325976D01*
X111372380Y-131230738D01*
X111372380Y-131040261D01*
X111420000Y-130945023D01*
X111467619Y-130897404D01*
X111562857Y-130849785D01*
X111610476Y-130849785D01*
X111705714Y-130897404D01*
X111753333Y-130945023D01*
X111800952Y-131040261D01*
X111800952Y-131230738D01*
X111848571Y-131325976D01*
X111896190Y-131373595D01*
X111991428Y-131421214D01*
X112181904Y-131421214D01*
X112277142Y-131373595D01*
X112324761Y-131325976D01*
X112372380Y-131230738D01*
X112372380Y-131040261D01*
X112324761Y-130945023D01*
X112277142Y-130897404D01*
X112181904Y-130849785D01*
X111991428Y-130849785D01*
X111896190Y-130897404D01*
X111848571Y-130945023D01*
X111800952Y-131040261D01*
X135532833Y-146503642D02*
X135485214Y-146551261D01*
X135342357Y-146598880D01*
X135247119Y-146598880D01*
X135104261Y-146551261D01*
X135009023Y-146456023D01*
X134961404Y-146360785D01*
X134913785Y-146170309D01*
X134913785Y-146027452D01*
X134961404Y-145836976D01*
X135009023Y-145741738D01*
X135104261Y-145646500D01*
X135247119Y-145598880D01*
X135342357Y-145598880D01*
X135485214Y-145646500D01*
X135532833Y-145694119D01*
X136009023Y-146598880D02*
X136199500Y-146598880D01*
X136294738Y-146551261D01*
X136342357Y-146503642D01*
X136437595Y-146360785D01*
X136485214Y-146170309D01*
X136485214Y-145789357D01*
X136437595Y-145694119D01*
X136389976Y-145646500D01*
X136294738Y-145598880D01*
X136104261Y-145598880D01*
X136009023Y-145646500D01*
X135961404Y-145694119D01*
X135913785Y-145789357D01*
X135913785Y-146027452D01*
X135961404Y-146122690D01*
X136009023Y-146170309D01*
X136104261Y-146217928D01*
X136294738Y-146217928D01*
X136389976Y-146170309D01*
X136437595Y-146122690D01*
X136485214Y-146027452D01*
X137374404Y-124688880D02*
X137374404Y-123688880D01*
X137612500Y-123688880D01*
X137755357Y-123736500D01*
X137850595Y-123831738D01*
X137898214Y-123926976D01*
X137945833Y-124117452D01*
X137945833Y-124260309D01*
X137898214Y-124450785D01*
X137850595Y-124546023D01*
X137755357Y-124641261D01*
X137612500Y-124688880D01*
X137374404Y-124688880D01*
X138898214Y-124688880D02*
X138326785Y-124688880D01*
X138612500Y-124688880D02*
X138612500Y-123688880D01*
X138517261Y-123831738D01*
X138422023Y-123926976D01*
X138326785Y-123974595D01*
X113942904Y-131864380D02*
X113942904Y-130864380D01*
X114181000Y-130864380D01*
X114323857Y-130912000D01*
X114419095Y-131007238D01*
X114466714Y-131102476D01*
X114514333Y-131292952D01*
X114514333Y-131435809D01*
X114466714Y-131626285D01*
X114419095Y-131721523D01*
X114323857Y-131816761D01*
X114181000Y-131864380D01*
X113942904Y-131864380D01*
X114895285Y-130959619D02*
X114942904Y-130912000D01*
X115038142Y-130864380D01*
X115276238Y-130864380D01*
X115371476Y-130912000D01*
X115419095Y-130959619D01*
X115466714Y-131054857D01*
X115466714Y-131150095D01*
X115419095Y-131292952D01*
X114847666Y-131864380D01*
X115466714Y-131864380D01*
X108672380Y-137548833D02*
X109386666Y-137548833D01*
X109529523Y-137596452D01*
X109624761Y-137691690D01*
X109672380Y-137834547D01*
X109672380Y-137929785D01*
X109672380Y-137072642D02*
X108672380Y-137072642D01*
X108672380Y-136691690D01*
X108720000Y-136596452D01*
X108767619Y-136548833D01*
X108862857Y-136501214D01*
X109005714Y-136501214D01*
X109100952Y-136548833D01*
X109148571Y-136596452D01*
X109196190Y-136691690D01*
X109196190Y-137072642D01*
X109672380Y-135548833D02*
X109672380Y-136120261D01*
X109672380Y-135834547D02*
X108672380Y-135834547D01*
X108815238Y-135929785D01*
X108910476Y-136025023D01*
X108958095Y-136120261D01*
X110704380Y-139585333D02*
X110704380Y-138966285D01*
X111085333Y-139299619D01*
X111085333Y-139156761D01*
X111132952Y-139061523D01*
X111180571Y-139013904D01*
X111275809Y-138966285D01*
X111513904Y-138966285D01*
X111609142Y-139013904D01*
X111656761Y-139061523D01*
X111704380Y-139156761D01*
X111704380Y-139442476D01*
X111656761Y-139537714D01*
X111609142Y-139585333D01*
X111704380Y-133766285D02*
X111704380Y-134337714D01*
X111704380Y-134052000D02*
X110704380Y-134052000D01*
X110847238Y-134147238D01*
X110942476Y-134242476D01*
X110990095Y-134337714D01*
X110482166Y-142813380D02*
X110482166Y-143527666D01*
X110434547Y-143670523D01*
X110339309Y-143765761D01*
X110196452Y-143813380D01*
X110101214Y-143813380D01*
X110958357Y-143813380D02*
X110958357Y-142813380D01*
X111339309Y-142813380D01*
X111434547Y-142861000D01*
X111482166Y-142908619D01*
X111529785Y-143003857D01*
X111529785Y-143146714D01*
X111482166Y-143241952D01*
X111434547Y-143289571D01*
X111339309Y-143337190D01*
X110958357Y-143337190D01*
X111910738Y-142908619D02*
X111958357Y-142861000D01*
X112053595Y-142813380D01*
X112291690Y-142813380D01*
X112386928Y-142861000D01*
X112434547Y-142908619D01*
X112482166Y-143003857D01*
X112482166Y-143099095D01*
X112434547Y-143241952D01*
X111863119Y-143813380D01*
X112482166Y-143813380D01*
X132189380Y-140723833D02*
X132903666Y-140723833D01*
X133046523Y-140771452D01*
X133141761Y-140866690D01*
X133189380Y-141009547D01*
X133189380Y-141104785D01*
X133189380Y-140247642D02*
X132189380Y-140247642D01*
X132189380Y-139866690D01*
X132237000Y-139771452D01*
X132284619Y-139723833D01*
X132379857Y-139676214D01*
X132522714Y-139676214D01*
X132617952Y-139723833D01*
X132665571Y-139771452D01*
X132713190Y-139866690D01*
X132713190Y-140247642D01*
X132189380Y-139342880D02*
X132189380Y-138723833D01*
X132570333Y-139057166D01*
X132570333Y-138914309D01*
X132617952Y-138819071D01*
X132665571Y-138771452D01*
X132760809Y-138723833D01*
X132998904Y-138723833D01*
X133094142Y-138771452D01*
X133141761Y-138819071D01*
X133189380Y-138914309D01*
X133189380Y-139200023D01*
X133141761Y-139295261D01*
X133094142Y-139342880D01*
X131389380Y-137004785D02*
X131389380Y-137576214D01*
X131389380Y-137290500D02*
X130389380Y-137290500D01*
X130532238Y-137385738D01*
X130627476Y-137480976D01*
X130675095Y-137576214D01*
X130389380Y-142823833D02*
X130389380Y-142204785D01*
X130770333Y-142538119D01*
X130770333Y-142395261D01*
X130817952Y-142300023D01*
X130865571Y-142252404D01*
X130960809Y-142204785D01*
X131198904Y-142204785D01*
X131294142Y-142252404D01*
X131341761Y-142300023D01*
X131389380Y-142395261D01*
X131389380Y-142680976D01*
X131341761Y-142776214D01*
X131294142Y-142823833D01*
X131722833Y-130626380D02*
X131246642Y-130626380D01*
X131246642Y-129626380D01*
X132579976Y-130626380D02*
X132008547Y-130626380D01*
X132294261Y-130626380D02*
X132294261Y-129626380D01*
X132199023Y-129769238D01*
X132103785Y-129864476D01*
X132008547Y-129912095D01*
X114768333Y-128976380D02*
X114292142Y-128976380D01*
X114292142Y-127976380D01*
X115054047Y-128071619D02*
X115101666Y-128024000D01*
X115196904Y-127976380D01*
X115435000Y-127976380D01*
X115530238Y-128024000D01*
X115577857Y-128071619D01*
X115625476Y-128166857D01*
X115625476Y-128262095D01*
X115577857Y-128404952D01*
X115006428Y-128976380D01*
X115625476Y-128976380D01*
X115974833Y-142725380D02*
X115641500Y-142249190D01*
X115403404Y-142725380D02*
X115403404Y-141725380D01*
X115784357Y-141725380D01*
X115879595Y-141773000D01*
X115927214Y-141820619D01*
X115974833Y-141915857D01*
X115974833Y-142058714D01*
X115927214Y-142153952D01*
X115879595Y-142201571D01*
X115784357Y-142249190D01*
X115403404Y-142249190D01*
X116927214Y-142725380D02*
X116355785Y-142725380D01*
X116641500Y-142725380D02*
X116641500Y-141725380D01*
X116546261Y-141868238D01*
X116451023Y-141963476D01*
X116355785Y-142011095D01*
X117388880Y-144502166D02*
X116912690Y-144835500D01*
X117388880Y-145073595D02*
X116388880Y-145073595D01*
X116388880Y-144692642D01*
X116436500Y-144597404D01*
X116484119Y-144549785D01*
X116579357Y-144502166D01*
X116722214Y-144502166D01*
X116817452Y-144549785D01*
X116865071Y-144597404D01*
X116912690Y-144692642D01*
X116912690Y-145073595D01*
X116388880Y-144168833D02*
X116388880Y-143549785D01*
X116769833Y-143883119D01*
X116769833Y-143740261D01*
X116817452Y-143645023D01*
X116865071Y-143597404D01*
X116960309Y-143549785D01*
X117198404Y-143549785D01*
X117293642Y-143597404D01*
X117341261Y-143645023D01*
X117388880Y-143740261D01*
X117388880Y-144025976D01*
X117341261Y-144121214D01*
X117293642Y-144168833D01*
X113180833Y-152026880D02*
X112847500Y-151550690D01*
X112609404Y-152026880D02*
X112609404Y-151026880D01*
X112990357Y-151026880D01*
X113085595Y-151074500D01*
X113133214Y-151122119D01*
X113180833Y-151217357D01*
X113180833Y-151360214D01*
X113133214Y-151455452D01*
X113085595Y-151503071D01*
X112990357Y-151550690D01*
X112609404Y-151550690D01*
X114037976Y-151360214D02*
X114037976Y-152026880D01*
X113799880Y-150979261D02*
X113561785Y-151693547D01*
X114180833Y-151693547D01*
X137882333Y-127736880D02*
X137549000Y-127260690D01*
X137310904Y-127736880D02*
X137310904Y-126736880D01*
X137691857Y-126736880D01*
X137787095Y-126784500D01*
X137834714Y-126832119D01*
X137882333Y-126927357D01*
X137882333Y-127070214D01*
X137834714Y-127165452D01*
X137787095Y-127213071D01*
X137691857Y-127260690D01*
X137310904Y-127260690D01*
X138739476Y-126736880D02*
X138549000Y-126736880D01*
X138453761Y-126784500D01*
X138406142Y-126832119D01*
X138310904Y-126974976D01*
X138263285Y-127165452D01*
X138263285Y-127546404D01*
X138310904Y-127641642D01*
X138358523Y-127689261D01*
X138453761Y-127736880D01*
X138644238Y-127736880D01*
X138739476Y-127689261D01*
X138787095Y-127641642D01*
X138834714Y-127546404D01*
X138834714Y-127308309D01*
X138787095Y-127213071D01*
X138739476Y-127165452D01*
X138644238Y-127117833D01*
X138453761Y-127117833D01*
X138358523Y-127165452D01*
X138310904Y-127213071D01*
X138263285Y-127308309D01*
X113053833Y-147391380D02*
X112720500Y-146915190D01*
X112482404Y-147391380D02*
X112482404Y-146391380D01*
X112863357Y-146391380D01*
X112958595Y-146439000D01*
X113006214Y-146486619D01*
X113053833Y-146581857D01*
X113053833Y-146724714D01*
X113006214Y-146819952D01*
X112958595Y-146867571D01*
X112863357Y-146915190D01*
X112482404Y-146915190D01*
X113530023Y-147391380D02*
X113720500Y-147391380D01*
X113815738Y-147343761D01*
X113863357Y-147296142D01*
X113958595Y-147153285D01*
X114006214Y-146962809D01*
X114006214Y-146581857D01*
X113958595Y-146486619D01*
X113910976Y-146439000D01*
X113815738Y-146391380D01*
X113625261Y-146391380D01*
X113530023Y-146439000D01*
X113482404Y-146486619D01*
X113434785Y-146581857D01*
X113434785Y-146819952D01*
X113482404Y-146915190D01*
X113530023Y-146962809D01*
X113625261Y-147010428D01*
X113815738Y-147010428D01*
X113910976Y-146962809D01*
X113958595Y-146915190D01*
X114006214Y-146819952D01*
X129396880Y-136421738D02*
X128920690Y-136755071D01*
X129396880Y-136993166D02*
X128396880Y-136993166D01*
X128396880Y-136612214D01*
X128444500Y-136516976D01*
X128492119Y-136469357D01*
X128587357Y-136421738D01*
X128730214Y-136421738D01*
X128825452Y-136469357D01*
X128873071Y-136516976D01*
X128920690Y-136612214D01*
X128920690Y-136993166D01*
X128396880Y-136136023D02*
X129396880Y-135802690D01*
X128396880Y-135469357D01*
X129396880Y-134612214D02*
X129396880Y-135183642D01*
X129396880Y-134897928D02*
X128396880Y-134897928D01*
X128539738Y-134993166D01*
X128634976Y-135088404D01*
X128682595Y-135183642D01*
X114101642Y-137454880D02*
X113768309Y-136978690D01*
X113530214Y-137454880D02*
X113530214Y-136454880D01*
X113911166Y-136454880D01*
X114006404Y-136502500D01*
X114054023Y-136550119D01*
X114101642Y-136645357D01*
X114101642Y-136788214D01*
X114054023Y-136883452D01*
X114006404Y-136931071D01*
X113911166Y-136978690D01*
X113530214Y-136978690D01*
X115054023Y-137454880D02*
X114482595Y-137454880D01*
X114768309Y-137454880D02*
X114768309Y-136454880D01*
X114673071Y-136597738D01*
X114577833Y-136692976D01*
X114482595Y-136740595D01*
X116006404Y-137454880D02*
X115434976Y-137454880D01*
X115720690Y-137454880D02*
X115720690Y-136454880D01*
X115625452Y-136597738D01*
X115530214Y-136692976D01*
X115434976Y-136740595D01*
M02*
