G04 #@! TF.GenerationSoftware,KiCad,Pcbnew,(5.1.2)-2*
G04 #@! TF.CreationDate,2019-07-18T09:27:17+08:00*
G04 #@! TF.ProjectId,single_AM_eval_board,73696e67-6c65-45f4-914d-5f6576616c5f,rev?*
G04 #@! TF.SameCoordinates,Original*
G04 #@! TF.FileFunction,Soldermask,Bot*
G04 #@! TF.FilePolarity,Negative*
%FSLAX46Y46*%
G04 Gerber Fmt 4.6, Leading zero omitted, Abs format (unit mm)*
G04 Created by KiCad (PCBNEW (5.1.2)-2) date 2019-07-18 09:27:17*
%MOMM*%
%LPD*%
G04 APERTURE LIST*
%ADD10C,0.100000*%
G04 APERTURE END LIST*
D10*
G36*
X146832689Y-148149983D02*
G01*
X146832692Y-148149984D01*
X146832691Y-148149984D01*
X147360639Y-148368667D01*
X147835780Y-148686146D01*
X148239854Y-149090220D01*
X148302758Y-149184363D01*
X148557334Y-149565363D01*
X148776017Y-150093311D01*
X148887500Y-150653775D01*
X148887500Y-151225225D01*
X148776017Y-151785689D01*
X148776016Y-151785691D01*
X148557333Y-152313639D01*
X148239854Y-152788780D01*
X147835780Y-153192854D01*
X147360639Y-153510333D01*
X147360638Y-153510334D01*
X147360637Y-153510334D01*
X146832689Y-153729017D01*
X146272225Y-153840500D01*
X145700775Y-153840500D01*
X145140311Y-153729017D01*
X144612363Y-153510334D01*
X144612362Y-153510334D01*
X144612361Y-153510333D01*
X144137220Y-153192854D01*
X143733146Y-152788780D01*
X143415667Y-152313639D01*
X143196984Y-151785691D01*
X143196983Y-151785689D01*
X143085500Y-151225225D01*
X143085500Y-150653775D01*
X143196983Y-150093311D01*
X143415666Y-149565363D01*
X143670242Y-149184363D01*
X143733146Y-149090220D01*
X144137220Y-148686146D01*
X144612361Y-148368667D01*
X145140309Y-148149984D01*
X145140308Y-148149984D01*
X145140311Y-148149983D01*
X145700775Y-148038500D01*
X146272225Y-148038500D01*
X146832689Y-148149983D01*
X146832689Y-148149983D01*
G37*
G36*
X101874689Y-147768983D02*
G01*
X101874692Y-147768984D01*
X101874691Y-147768984D01*
X102402639Y-147987667D01*
X102877780Y-148305146D01*
X103281854Y-148709220D01*
X103599333Y-149184361D01*
X103599334Y-149184363D01*
X103818017Y-149712311D01*
X103929500Y-150272775D01*
X103929500Y-150844225D01*
X103818017Y-151404689D01*
X103818016Y-151404691D01*
X103599333Y-151932639D01*
X103281854Y-152407780D01*
X102877780Y-152811854D01*
X102402639Y-153129333D01*
X102402638Y-153129334D01*
X102402637Y-153129334D01*
X101874689Y-153348017D01*
X101314225Y-153459500D01*
X100742775Y-153459500D01*
X100182311Y-153348017D01*
X99654363Y-153129334D01*
X99654362Y-153129334D01*
X99654361Y-153129333D01*
X99179220Y-152811854D01*
X98775146Y-152407780D01*
X98457667Y-151932639D01*
X98238984Y-151404691D01*
X98238983Y-151404689D01*
X98127500Y-150844225D01*
X98127500Y-150272775D01*
X98238983Y-149712311D01*
X98457666Y-149184363D01*
X98457667Y-149184361D01*
X98775146Y-148709220D01*
X99179220Y-148305146D01*
X99654361Y-147987667D01*
X100182309Y-147768984D01*
X100182308Y-147768984D01*
X100182311Y-147768983D01*
X100742775Y-147657500D01*
X101314225Y-147657500D01*
X101874689Y-147768983D01*
X101874689Y-147768983D01*
G37*
G36*
X143257060Y-142793564D02*
G01*
X143408527Y-142823693D01*
X143622545Y-142912342D01*
X143622546Y-142912343D01*
X143815154Y-143041039D01*
X143978961Y-143204846D01*
X144064758Y-143333251D01*
X144107658Y-143397455D01*
X144196307Y-143611473D01*
X144241500Y-143838674D01*
X144241500Y-144070326D01*
X144196307Y-144297527D01*
X144107658Y-144511545D01*
X144107657Y-144511546D01*
X143978961Y-144704154D01*
X143815154Y-144867961D01*
X143717581Y-144933157D01*
X143622545Y-144996658D01*
X143408527Y-145085307D01*
X143257060Y-145115436D01*
X143181327Y-145130500D01*
X142949673Y-145130500D01*
X142873940Y-145115436D01*
X142722473Y-145085307D01*
X142508455Y-144996658D01*
X142413419Y-144933157D01*
X142315846Y-144867961D01*
X142152039Y-144704154D01*
X142023343Y-144511546D01*
X142023342Y-144511545D01*
X141934693Y-144297527D01*
X141889500Y-144070326D01*
X141889500Y-143838674D01*
X141934693Y-143611473D01*
X142023342Y-143397455D01*
X142066242Y-143333251D01*
X142152039Y-143204846D01*
X142315846Y-143041039D01*
X142508454Y-142912343D01*
X142508455Y-142912342D01*
X142722473Y-142823693D01*
X142873940Y-142793564D01*
X142949673Y-142778500D01*
X143181327Y-142778500D01*
X143257060Y-142793564D01*
X143257060Y-142793564D01*
G37*
G36*
X148337060Y-142793564D02*
G01*
X148488527Y-142823693D01*
X148702545Y-142912342D01*
X148702546Y-142912343D01*
X148895154Y-143041039D01*
X149058961Y-143204846D01*
X149144758Y-143333251D01*
X149187658Y-143397455D01*
X149276307Y-143611473D01*
X149321500Y-143838674D01*
X149321500Y-144070326D01*
X149276307Y-144297527D01*
X149187658Y-144511545D01*
X149187657Y-144511546D01*
X149058961Y-144704154D01*
X148895154Y-144867961D01*
X148797581Y-144933157D01*
X148702545Y-144996658D01*
X148488527Y-145085307D01*
X148337060Y-145115436D01*
X148261327Y-145130500D01*
X148029673Y-145130500D01*
X147953940Y-145115436D01*
X147802473Y-145085307D01*
X147588455Y-144996658D01*
X147493419Y-144933157D01*
X147395846Y-144867961D01*
X147232039Y-144704154D01*
X147103343Y-144511546D01*
X147103342Y-144511545D01*
X147014693Y-144297527D01*
X146969500Y-144070326D01*
X146969500Y-143838674D01*
X147014693Y-143611473D01*
X147103342Y-143397455D01*
X147146242Y-143333251D01*
X147232039Y-143204846D01*
X147395846Y-143041039D01*
X147588454Y-142912343D01*
X147588455Y-142912342D01*
X147802473Y-142823693D01*
X147953940Y-142793564D01*
X148029673Y-142778500D01*
X148261327Y-142778500D01*
X148337060Y-142793564D01*
X148337060Y-142793564D01*
G37*
G36*
X99124560Y-142730064D02*
G01*
X99276027Y-142760193D01*
X99490045Y-142848842D01*
X99490046Y-142848843D01*
X99682654Y-142977539D01*
X99846461Y-143141346D01*
X99888890Y-143204846D01*
X99975158Y-143333955D01*
X100063807Y-143547973D01*
X100109000Y-143775174D01*
X100109000Y-144006826D01*
X100063807Y-144234027D01*
X99975158Y-144448045D01*
X99975157Y-144448046D01*
X99846461Y-144640654D01*
X99682654Y-144804461D01*
X99587622Y-144867959D01*
X99490045Y-144933158D01*
X99276027Y-145021807D01*
X99124560Y-145051936D01*
X99048827Y-145067000D01*
X98817173Y-145067000D01*
X98741440Y-145051936D01*
X98589973Y-145021807D01*
X98375955Y-144933158D01*
X98278378Y-144867959D01*
X98183346Y-144804461D01*
X98019539Y-144640654D01*
X97890843Y-144448046D01*
X97890842Y-144448045D01*
X97802193Y-144234027D01*
X97757000Y-144006826D01*
X97757000Y-143775174D01*
X97802193Y-143547973D01*
X97890842Y-143333955D01*
X97977110Y-143204846D01*
X98019539Y-143141346D01*
X98183346Y-142977539D01*
X98375954Y-142848843D01*
X98375955Y-142848842D01*
X98589973Y-142760193D01*
X98741440Y-142730064D01*
X98817173Y-142715000D01*
X99048827Y-142715000D01*
X99124560Y-142730064D01*
X99124560Y-142730064D01*
G37*
G36*
X104204560Y-142730064D02*
G01*
X104356027Y-142760193D01*
X104570045Y-142848842D01*
X104570046Y-142848843D01*
X104762654Y-142977539D01*
X104926461Y-143141346D01*
X104968890Y-143204846D01*
X105055158Y-143333955D01*
X105143807Y-143547973D01*
X105189000Y-143775174D01*
X105189000Y-144006826D01*
X105143807Y-144234027D01*
X105055158Y-144448045D01*
X105055157Y-144448046D01*
X104926461Y-144640654D01*
X104762654Y-144804461D01*
X104667622Y-144867959D01*
X104570045Y-144933158D01*
X104356027Y-145021807D01*
X104204560Y-145051936D01*
X104128827Y-145067000D01*
X103897173Y-145067000D01*
X103821440Y-145051936D01*
X103669973Y-145021807D01*
X103455955Y-144933158D01*
X103358378Y-144867959D01*
X103263346Y-144804461D01*
X103099539Y-144640654D01*
X102970843Y-144448046D01*
X102970842Y-144448045D01*
X102882193Y-144234027D01*
X102837000Y-144006826D01*
X102837000Y-143775174D01*
X102882193Y-143547973D01*
X102970842Y-143333955D01*
X103057110Y-143204846D01*
X103099539Y-143141346D01*
X103263346Y-142977539D01*
X103455954Y-142848843D01*
X103455955Y-142848842D01*
X103669973Y-142760193D01*
X103821440Y-142730064D01*
X103897173Y-142715000D01*
X104128827Y-142715000D01*
X104204560Y-142730064D01*
X104204560Y-142730064D01*
G37*
G36*
X145780771Y-140352283D02*
G01*
X145919358Y-140379850D01*
X146115177Y-140460961D01*
X146291410Y-140578716D01*
X146441284Y-140728590D01*
X146559039Y-140904823D01*
X146640150Y-141100642D01*
X146681500Y-141308523D01*
X146681500Y-141520477D01*
X146640150Y-141728358D01*
X146559039Y-141924177D01*
X146441284Y-142100410D01*
X146291410Y-142250284D01*
X146115177Y-142368039D01*
X145919358Y-142449150D01*
X145780771Y-142476717D01*
X145711478Y-142490500D01*
X145499522Y-142490500D01*
X145430229Y-142476717D01*
X145291642Y-142449150D01*
X145095823Y-142368039D01*
X144919590Y-142250284D01*
X144769716Y-142100410D01*
X144651961Y-141924177D01*
X144570850Y-141728358D01*
X144529500Y-141520477D01*
X144529500Y-141308523D01*
X144570850Y-141100642D01*
X144651961Y-140904823D01*
X144769716Y-140728590D01*
X144919590Y-140578716D01*
X145095823Y-140460961D01*
X145291642Y-140379850D01*
X145430229Y-140352283D01*
X145499522Y-140338500D01*
X145711478Y-140338500D01*
X145780771Y-140352283D01*
X145780771Y-140352283D01*
G37*
G36*
X101648271Y-140288783D02*
G01*
X101786858Y-140316350D01*
X101982677Y-140397461D01*
X102158910Y-140515216D01*
X102308784Y-140665090D01*
X102426539Y-140841323D01*
X102507650Y-141037142D01*
X102549000Y-141245023D01*
X102549000Y-141456977D01*
X102507650Y-141664858D01*
X102426539Y-141860677D01*
X102308784Y-142036910D01*
X102158910Y-142186784D01*
X101982677Y-142304539D01*
X101786858Y-142385650D01*
X101648271Y-142413217D01*
X101578978Y-142427000D01*
X101367022Y-142427000D01*
X101297729Y-142413217D01*
X101159142Y-142385650D01*
X100963323Y-142304539D01*
X100787090Y-142186784D01*
X100637216Y-142036910D01*
X100519461Y-141860677D01*
X100438350Y-141664858D01*
X100397000Y-141456977D01*
X100397000Y-141245023D01*
X100438350Y-141037142D01*
X100519461Y-140841323D01*
X100637216Y-140665090D01*
X100787090Y-140515216D01*
X100963323Y-140397461D01*
X101159142Y-140316350D01*
X101297729Y-140288783D01*
X101367022Y-140275000D01*
X101578978Y-140275000D01*
X101648271Y-140288783D01*
X101648271Y-140288783D01*
G37*
G36*
X148337060Y-137713564D02*
G01*
X148488527Y-137743693D01*
X148702545Y-137832342D01*
X148702546Y-137832343D01*
X148895154Y-137961039D01*
X149058961Y-138124846D01*
X149144758Y-138253251D01*
X149187658Y-138317455D01*
X149276307Y-138531473D01*
X149321500Y-138758674D01*
X149321500Y-138990326D01*
X149276307Y-139217527D01*
X149187658Y-139431545D01*
X149187657Y-139431546D01*
X149058961Y-139624154D01*
X148895154Y-139787961D01*
X148797581Y-139853157D01*
X148702545Y-139916658D01*
X148488527Y-140005307D01*
X148337060Y-140035436D01*
X148261327Y-140050500D01*
X148029673Y-140050500D01*
X147953940Y-140035436D01*
X147802473Y-140005307D01*
X147588455Y-139916658D01*
X147493419Y-139853157D01*
X147395846Y-139787961D01*
X147232039Y-139624154D01*
X147103343Y-139431546D01*
X147103342Y-139431545D01*
X147014693Y-139217527D01*
X146969500Y-138990326D01*
X146969500Y-138758674D01*
X147014693Y-138531473D01*
X147103342Y-138317455D01*
X147146242Y-138253251D01*
X147232039Y-138124846D01*
X147395846Y-137961039D01*
X147588454Y-137832343D01*
X147588455Y-137832342D01*
X147802473Y-137743693D01*
X147953940Y-137713564D01*
X148029673Y-137698500D01*
X148261327Y-137698500D01*
X148337060Y-137713564D01*
X148337060Y-137713564D01*
G37*
G36*
X143257060Y-137713564D02*
G01*
X143408527Y-137743693D01*
X143622545Y-137832342D01*
X143622546Y-137832343D01*
X143815154Y-137961039D01*
X143978961Y-138124846D01*
X144064758Y-138253251D01*
X144107658Y-138317455D01*
X144196307Y-138531473D01*
X144241500Y-138758674D01*
X144241500Y-138990326D01*
X144196307Y-139217527D01*
X144107658Y-139431545D01*
X144107657Y-139431546D01*
X143978961Y-139624154D01*
X143815154Y-139787961D01*
X143717581Y-139853157D01*
X143622545Y-139916658D01*
X143408527Y-140005307D01*
X143257060Y-140035436D01*
X143181327Y-140050500D01*
X142949673Y-140050500D01*
X142873940Y-140035436D01*
X142722473Y-140005307D01*
X142508455Y-139916658D01*
X142413419Y-139853157D01*
X142315846Y-139787961D01*
X142152039Y-139624154D01*
X142023343Y-139431546D01*
X142023342Y-139431545D01*
X141934693Y-139217527D01*
X141889500Y-138990326D01*
X141889500Y-138758674D01*
X141934693Y-138531473D01*
X142023342Y-138317455D01*
X142066242Y-138253251D01*
X142152039Y-138124846D01*
X142315846Y-137961039D01*
X142508454Y-137832343D01*
X142508455Y-137832342D01*
X142722473Y-137743693D01*
X142873940Y-137713564D01*
X142949673Y-137698500D01*
X143181327Y-137698500D01*
X143257060Y-137713564D01*
X143257060Y-137713564D01*
G37*
G36*
X99124560Y-137650064D02*
G01*
X99276027Y-137680193D01*
X99490045Y-137768842D01*
X99490046Y-137768843D01*
X99682654Y-137897539D01*
X99846461Y-138061346D01*
X99888890Y-138124846D01*
X99975158Y-138253955D01*
X100063807Y-138467973D01*
X100109000Y-138695174D01*
X100109000Y-138926826D01*
X100063807Y-139154027D01*
X99975158Y-139368045D01*
X99975157Y-139368046D01*
X99846461Y-139560654D01*
X99682654Y-139724461D01*
X99587622Y-139787959D01*
X99490045Y-139853158D01*
X99276027Y-139941807D01*
X99124560Y-139971936D01*
X99048827Y-139987000D01*
X98817173Y-139987000D01*
X98741440Y-139971936D01*
X98589973Y-139941807D01*
X98375955Y-139853158D01*
X98278378Y-139787959D01*
X98183346Y-139724461D01*
X98019539Y-139560654D01*
X97890843Y-139368046D01*
X97890842Y-139368045D01*
X97802193Y-139154027D01*
X97757000Y-138926826D01*
X97757000Y-138695174D01*
X97802193Y-138467973D01*
X97890842Y-138253955D01*
X97977110Y-138124846D01*
X98019539Y-138061346D01*
X98183346Y-137897539D01*
X98375954Y-137768843D01*
X98375955Y-137768842D01*
X98589973Y-137680193D01*
X98741440Y-137650064D01*
X98817173Y-137635000D01*
X99048827Y-137635000D01*
X99124560Y-137650064D01*
X99124560Y-137650064D01*
G37*
G36*
X104204560Y-137650064D02*
G01*
X104356027Y-137680193D01*
X104570045Y-137768842D01*
X104570046Y-137768843D01*
X104762654Y-137897539D01*
X104926461Y-138061346D01*
X104968890Y-138124846D01*
X105055158Y-138253955D01*
X105143807Y-138467973D01*
X105189000Y-138695174D01*
X105189000Y-138926826D01*
X105143807Y-139154027D01*
X105055158Y-139368045D01*
X105055157Y-139368046D01*
X104926461Y-139560654D01*
X104762654Y-139724461D01*
X104667622Y-139787959D01*
X104570045Y-139853158D01*
X104356027Y-139941807D01*
X104204560Y-139971936D01*
X104128827Y-139987000D01*
X103897173Y-139987000D01*
X103821440Y-139971936D01*
X103669973Y-139941807D01*
X103455955Y-139853158D01*
X103358378Y-139787959D01*
X103263346Y-139724461D01*
X103099539Y-139560654D01*
X102970843Y-139368046D01*
X102970842Y-139368045D01*
X102882193Y-139154027D01*
X102837000Y-138926826D01*
X102837000Y-138695174D01*
X102882193Y-138467973D01*
X102970842Y-138253955D01*
X103057110Y-138124846D01*
X103099539Y-138061346D01*
X103263346Y-137897539D01*
X103455954Y-137768843D01*
X103455955Y-137768842D01*
X103669973Y-137680193D01*
X103821440Y-137650064D01*
X103897173Y-137635000D01*
X104128827Y-137635000D01*
X104204560Y-137650064D01*
X104204560Y-137650064D01*
G37*
G36*
X127075500Y-136727500D02*
G01*
X125273500Y-136727500D01*
X125273500Y-134925500D01*
X127075500Y-134925500D01*
X127075500Y-136727500D01*
X127075500Y-136727500D01*
G37*
G36*
X123744943Y-134932019D02*
G01*
X123811127Y-134938537D01*
X123980966Y-134990057D01*
X124137491Y-135073722D01*
X124173229Y-135103052D01*
X124274686Y-135186314D01*
X124357948Y-135287771D01*
X124387278Y-135323509D01*
X124470943Y-135480034D01*
X124522463Y-135649873D01*
X124539859Y-135826500D01*
X124522463Y-136003127D01*
X124470943Y-136172966D01*
X124387278Y-136329491D01*
X124357948Y-136365229D01*
X124274686Y-136466686D01*
X124173229Y-136549948D01*
X124137491Y-136579278D01*
X123980966Y-136662943D01*
X123811127Y-136714463D01*
X123744943Y-136720981D01*
X123678760Y-136727500D01*
X123590240Y-136727500D01*
X123524057Y-136720981D01*
X123457873Y-136714463D01*
X123288034Y-136662943D01*
X123131509Y-136579278D01*
X123095771Y-136549948D01*
X122994314Y-136466686D01*
X122911052Y-136365229D01*
X122881722Y-136329491D01*
X122798057Y-136172966D01*
X122746537Y-136003127D01*
X122729141Y-135826500D01*
X122746537Y-135649873D01*
X122798057Y-135480034D01*
X122881722Y-135323509D01*
X122911052Y-135287771D01*
X122994314Y-135186314D01*
X123095771Y-135103052D01*
X123131509Y-135073722D01*
X123288034Y-134990057D01*
X123457873Y-134938537D01*
X123524057Y-134932019D01*
X123590240Y-134925500D01*
X123678760Y-134925500D01*
X123744943Y-134932019D01*
X123744943Y-134932019D01*
G37*
G36*
X121204943Y-134932019D02*
G01*
X121271127Y-134938537D01*
X121440966Y-134990057D01*
X121597491Y-135073722D01*
X121633229Y-135103052D01*
X121734686Y-135186314D01*
X121817948Y-135287771D01*
X121847278Y-135323509D01*
X121930943Y-135480034D01*
X121982463Y-135649873D01*
X121999859Y-135826500D01*
X121982463Y-136003127D01*
X121930943Y-136172966D01*
X121847278Y-136329491D01*
X121817948Y-136365229D01*
X121734686Y-136466686D01*
X121633229Y-136549948D01*
X121597491Y-136579278D01*
X121440966Y-136662943D01*
X121271127Y-136714463D01*
X121204943Y-136720981D01*
X121138760Y-136727500D01*
X121050240Y-136727500D01*
X120984057Y-136720981D01*
X120917873Y-136714463D01*
X120748034Y-136662943D01*
X120591509Y-136579278D01*
X120555771Y-136549948D01*
X120454314Y-136466686D01*
X120371052Y-136365229D01*
X120341722Y-136329491D01*
X120258057Y-136172966D01*
X120206537Y-136003127D01*
X120189141Y-135826500D01*
X120206537Y-135649873D01*
X120258057Y-135480034D01*
X120341722Y-135323509D01*
X120371052Y-135287771D01*
X120454314Y-135186314D01*
X120555771Y-135103052D01*
X120591509Y-135073722D01*
X120748034Y-134990057D01*
X120917873Y-134938537D01*
X120984057Y-134932019D01*
X121050240Y-134925500D01*
X121138760Y-134925500D01*
X121204943Y-134932019D01*
X121204943Y-134932019D01*
G37*
G36*
X104754500Y-135933000D02*
G01*
X103652500Y-135933000D01*
X103652500Y-134831000D01*
X104754500Y-134831000D01*
X104754500Y-135933000D01*
X104754500Y-135933000D01*
G37*
G36*
X143045000Y-135679000D02*
G01*
X141943000Y-135679000D01*
X141943000Y-134577000D01*
X143045000Y-134577000D01*
X143045000Y-135679000D01*
X143045000Y-135679000D01*
G37*
G36*
X123961626Y-127892037D02*
G01*
X124131465Y-127943557D01*
X124131467Y-127943558D01*
X124287989Y-128027221D01*
X124425186Y-128139814D01*
X124508448Y-128241271D01*
X124537778Y-128277009D01*
X124621443Y-128433534D01*
X124672963Y-128603373D01*
X124686000Y-128735742D01*
X124686000Y-129074257D01*
X124672963Y-129206626D01*
X124621443Y-129376466D01*
X124537778Y-129532991D01*
X124508448Y-129568729D01*
X124425186Y-129670186D01*
X124330250Y-129748097D01*
X124287991Y-129782778D01*
X124131466Y-129866443D01*
X123961627Y-129917963D01*
X123785000Y-129935359D01*
X123608374Y-129917963D01*
X123438535Y-129866443D01*
X123282010Y-129782778D01*
X123144815Y-129670185D01*
X123032222Y-129532991D01*
X122948557Y-129376466D01*
X122897037Y-129206627D01*
X122884000Y-129074258D01*
X122884000Y-128735743D01*
X122897037Y-128603374D01*
X122948557Y-128433535D01*
X122948559Y-128433532D01*
X123032221Y-128277011D01*
X123144814Y-128139814D01*
X123246271Y-128056552D01*
X123282009Y-128027222D01*
X123438534Y-127943557D01*
X123608373Y-127892037D01*
X123785000Y-127874641D01*
X123961626Y-127892037D01*
X123961626Y-127892037D01*
G37*
G36*
X126461626Y-127892037D02*
G01*
X126631465Y-127943557D01*
X126631467Y-127943558D01*
X126787989Y-128027221D01*
X126925186Y-128139814D01*
X127008448Y-128241271D01*
X127037778Y-128277009D01*
X127121443Y-128433534D01*
X127172963Y-128603373D01*
X127186000Y-128735742D01*
X127186000Y-129074257D01*
X127172963Y-129206626D01*
X127121443Y-129376466D01*
X127037778Y-129532991D01*
X127008448Y-129568729D01*
X126925186Y-129670186D01*
X126830250Y-129748097D01*
X126787991Y-129782778D01*
X126631466Y-129866443D01*
X126461627Y-129917963D01*
X126285000Y-129935359D01*
X126108374Y-129917963D01*
X125938535Y-129866443D01*
X125782010Y-129782778D01*
X125644815Y-129670185D01*
X125532222Y-129532991D01*
X125448557Y-129376466D01*
X125397037Y-129206627D01*
X125384000Y-129074258D01*
X125384000Y-128735743D01*
X125397037Y-128603374D01*
X125448557Y-128433535D01*
X125448559Y-128433532D01*
X125532221Y-128277011D01*
X125644814Y-128139814D01*
X125746271Y-128056552D01*
X125782009Y-128027222D01*
X125938534Y-127943557D01*
X126108373Y-127892037D01*
X126285000Y-127874641D01*
X126461626Y-127892037D01*
X126461626Y-127892037D01*
G37*
G36*
X122043600Y-127882989D02*
G01*
X122076652Y-127893015D01*
X122107103Y-127909292D01*
X122133799Y-127931201D01*
X122155708Y-127957897D01*
X122171985Y-127988348D01*
X122182011Y-128021400D01*
X122186000Y-128061903D01*
X122186000Y-129748097D01*
X122182011Y-129788600D01*
X122171985Y-129821652D01*
X122155708Y-129852103D01*
X122133799Y-129878799D01*
X122107103Y-129900708D01*
X122076652Y-129916985D01*
X122043600Y-129927011D01*
X122003097Y-129931000D01*
X120566903Y-129931000D01*
X120526400Y-129927011D01*
X120493348Y-129916985D01*
X120462897Y-129900708D01*
X120436201Y-129878799D01*
X120414292Y-129852103D01*
X120398015Y-129821652D01*
X120387989Y-129788600D01*
X120384000Y-129748097D01*
X120384000Y-128061903D01*
X120387989Y-128021400D01*
X120398015Y-127988348D01*
X120414292Y-127957897D01*
X120436201Y-127931201D01*
X120462897Y-127909292D01*
X120493348Y-127893015D01*
X120526400Y-127882989D01*
X120566903Y-127879000D01*
X122003097Y-127879000D01*
X122043600Y-127882989D01*
X122043600Y-127882989D01*
G37*
G36*
X146642189Y-123702483D02*
G01*
X146642192Y-123702484D01*
X146642191Y-123702484D01*
X147170139Y-123921167D01*
X147645280Y-124238646D01*
X148049354Y-124642720D01*
X148366833Y-125117861D01*
X148366834Y-125117863D01*
X148585517Y-125645811D01*
X148697000Y-126206275D01*
X148697000Y-126777725D01*
X148585517Y-127338189D01*
X148585516Y-127338191D01*
X148366833Y-127866139D01*
X148049354Y-128341280D01*
X147645280Y-128745354D01*
X147170139Y-129062833D01*
X147170138Y-129062834D01*
X147170137Y-129062834D01*
X146642189Y-129281517D01*
X146081725Y-129393000D01*
X145510275Y-129393000D01*
X144949811Y-129281517D01*
X144421863Y-129062834D01*
X144421862Y-129062834D01*
X144421861Y-129062833D01*
X143946720Y-128745354D01*
X143542646Y-128341280D01*
X143225167Y-127866139D01*
X143006484Y-127338191D01*
X143006483Y-127338189D01*
X142895000Y-126777725D01*
X142895000Y-126206275D01*
X143006483Y-125645811D01*
X143225166Y-125117863D01*
X143225167Y-125117861D01*
X143542646Y-124642720D01*
X143946720Y-124238646D01*
X144421861Y-123921167D01*
X144949809Y-123702484D01*
X144949808Y-123702484D01*
X144949811Y-123702483D01*
X145510275Y-123591000D01*
X146081725Y-123591000D01*
X146642189Y-123702483D01*
X146642189Y-123702483D01*
G37*
G36*
X101366689Y-123257983D02*
G01*
X101366692Y-123257984D01*
X101366691Y-123257984D01*
X101894639Y-123476667D01*
X102369780Y-123794146D01*
X102773854Y-124198220D01*
X103070859Y-124642720D01*
X103091334Y-124673363D01*
X103310017Y-125201311D01*
X103421500Y-125761775D01*
X103421500Y-126333225D01*
X103310017Y-126893689D01*
X103310016Y-126893691D01*
X103091333Y-127421639D01*
X102773854Y-127896780D01*
X102369780Y-128300854D01*
X101894639Y-128618333D01*
X101894638Y-128618334D01*
X101894637Y-128618334D01*
X101366689Y-128837017D01*
X100806225Y-128948500D01*
X100234775Y-128948500D01*
X99674311Y-128837017D01*
X99146363Y-128618334D01*
X99146362Y-128618334D01*
X99146361Y-128618333D01*
X98671220Y-128300854D01*
X98267146Y-127896780D01*
X97949667Y-127421639D01*
X97730984Y-126893691D01*
X97730983Y-126893689D01*
X97619500Y-126333225D01*
X97619500Y-125761775D01*
X97730983Y-125201311D01*
X97949666Y-124673363D01*
X97970141Y-124642720D01*
X98267146Y-124198220D01*
X98671220Y-123794146D01*
X99146361Y-123476667D01*
X99674309Y-123257984D01*
X99674308Y-123257984D01*
X99674311Y-123257983D01*
X100234775Y-123146500D01*
X100806225Y-123146500D01*
X101366689Y-123257983D01*
X101366689Y-123257983D01*
G37*
M02*
