M48
; DRILL file {KiCad (5.1.2)-2} date 2019/7/11 16:04:05
; FORMAT={-:-/ absolute / inch / decimal}
; #@! TF.CreationDate,2019-07-11T16:04:05+08:00
; #@! TF.GenerationSoftware,Kicad,Pcbnew,(5.1.2)-2
; #@! TF.FileFunction,Plated,1,2,PTH
FMAT,2
INCH
T1C0.0157
T2C0.0197
T3C0.0374
T4C0.0591
T5C0.0669
T6C0.1260
%
G90
G05
T1
X4.75Y-4.268
X4.842Y-4.268
X4.965Y-4.56
X5.075Y-4.555
X5.5Y-4.1935
X5.585Y-4.505
X5.816Y-4.258
X5.998Y-4.08
T2
X4.574Y-3.568
X5.95Y-3.572
X4.278Y-4.674
X6.284Y-4.714
T3
X5.165Y-4.83
X5.2634Y-4.83
X5.3619Y-4.83
T4
X3.98Y-4.426
X6.542Y-4.462
X5.575Y-3.655
X3.98Y-4.002
X6.545Y-4.025
X4.965Y-3.65
T5
X3.88Y-4.326
X3.88Y-4.526
X4.08Y-4.326
X4.08Y-4.526
X6.442Y-4.362
X6.442Y-4.562
X6.642Y-4.362
X6.642Y-4.562
X5.475Y-3.555
X5.475Y-3.755
X5.675Y-3.555
X5.675Y-3.755
X3.88Y-3.902
X3.88Y-4.102
X4.08Y-3.902
X4.08Y-4.102
X6.445Y-3.925
X6.445Y-4.125
X6.645Y-3.925
X6.645Y-4.125
X4.865Y-3.55
X4.865Y-3.75
X5.065Y-3.55
X5.065Y-3.75
T6
X6.558Y-4.852
X6.56Y-3.62
X3.956Y-3.616
X3.956Y-4.856
T0
M30
