G04 #@! TF.GenerationSoftware,KiCad,Pcbnew,(5.1.2)-2*
G04 #@! TF.CreationDate,2019-07-11T16:04:03+08:00*
G04 #@! TF.ProjectId,General Purpose Op Amp Eval-Board,47656e65-7261-46c2-9050-7572706f7365,rev?*
G04 #@! TF.SameCoordinates,Original*
G04 #@! TF.FileFunction,Legend,Top*
G04 #@! TF.FilePolarity,Positive*
%FSLAX46Y46*%
G04 Gerber Fmt 4.6, Leading zero omitted, Abs format (unit mm)*
G04 Created by KiCad (PCBNEW (5.1.2)-2) date 2019-07-11 16:04:03*
%MOMM*%
%LPD*%
G04 APERTURE LIST*
%ADD10C,0.150000*%
%ADD11C,0.120000*%
G04 APERTURE END LIST*
D10*
X148857485Y-122576200D02*
X148762247Y-122528580D01*
X148619390Y-122528580D01*
X148476533Y-122576200D01*
X148381295Y-122671438D01*
X148333676Y-122766676D01*
X148286057Y-122957152D01*
X148286057Y-123100009D01*
X148333676Y-123290485D01*
X148381295Y-123385723D01*
X148476533Y-123480961D01*
X148619390Y-123528580D01*
X148714628Y-123528580D01*
X148857485Y-123480961D01*
X148905104Y-123433342D01*
X148905104Y-123100009D01*
X148714628Y-123100009D01*
X149714628Y-123480961D02*
X149619390Y-123528580D01*
X149428914Y-123528580D01*
X149333676Y-123480961D01*
X149286057Y-123385723D01*
X149286057Y-123004771D01*
X149333676Y-122909533D01*
X149428914Y-122861914D01*
X149619390Y-122861914D01*
X149714628Y-122909533D01*
X149762247Y-123004771D01*
X149762247Y-123100009D01*
X149286057Y-123195247D01*
X150190819Y-122861914D02*
X150190819Y-123528580D01*
X150190819Y-122957152D02*
X150238438Y-122909533D01*
X150333676Y-122861914D01*
X150476533Y-122861914D01*
X150571771Y-122909533D01*
X150619390Y-123004771D01*
X150619390Y-123528580D01*
X151476533Y-123480961D02*
X151381295Y-123528580D01*
X151190819Y-123528580D01*
X151095580Y-123480961D01*
X151047961Y-123385723D01*
X151047961Y-123004771D01*
X151095580Y-122909533D01*
X151190819Y-122861914D01*
X151381295Y-122861914D01*
X151476533Y-122909533D01*
X151524152Y-123004771D01*
X151524152Y-123100009D01*
X151047961Y-123195247D01*
X151952723Y-123528580D02*
X151952723Y-122861914D01*
X151952723Y-123052390D02*
X152000342Y-122957152D01*
X152047961Y-122909533D01*
X152143200Y-122861914D01*
X152238438Y-122861914D01*
X153000342Y-123528580D02*
X153000342Y-123004771D01*
X152952723Y-122909533D01*
X152857485Y-122861914D01*
X152667009Y-122861914D01*
X152571771Y-122909533D01*
X153000342Y-123480961D02*
X152905104Y-123528580D01*
X152667009Y-123528580D01*
X152571771Y-123480961D01*
X152524152Y-123385723D01*
X152524152Y-123290485D01*
X152571771Y-123195247D01*
X152667009Y-123147628D01*
X152905104Y-123147628D01*
X153000342Y-123100009D01*
X153619390Y-123528580D02*
X153524152Y-123480961D01*
X153476533Y-123385723D01*
X153476533Y-122528580D01*
X154762247Y-123528580D02*
X154762247Y-122528580D01*
X155143200Y-122528580D01*
X155238438Y-122576200D01*
X155286057Y-122623819D01*
X155333676Y-122719057D01*
X155333676Y-122861914D01*
X155286057Y-122957152D01*
X155238438Y-123004771D01*
X155143200Y-123052390D01*
X154762247Y-123052390D01*
X155762247Y-123528580D02*
X155762247Y-122861914D01*
X155762247Y-123052390D02*
X155809866Y-122957152D01*
X155857485Y-122909533D01*
X155952723Y-122861914D01*
X156047961Y-122861914D01*
X156762247Y-123480961D02*
X156667009Y-123528580D01*
X156476533Y-123528580D01*
X156381295Y-123480961D01*
X156333676Y-123385723D01*
X156333676Y-123004771D01*
X156381295Y-122909533D01*
X156476533Y-122861914D01*
X156667009Y-122861914D01*
X156762247Y-122909533D01*
X156809866Y-123004771D01*
X156809866Y-123100009D01*
X156333676Y-123195247D01*
X157667009Y-123480961D02*
X157571771Y-123528580D01*
X157381295Y-123528580D01*
X157286057Y-123480961D01*
X157238438Y-123433342D01*
X157190819Y-123338104D01*
X157190819Y-123052390D01*
X157238438Y-122957152D01*
X157286057Y-122909533D01*
X157381295Y-122861914D01*
X157571771Y-122861914D01*
X157667009Y-122909533D01*
X158095580Y-123528580D02*
X158095580Y-122861914D01*
X158095580Y-122528580D02*
X158047961Y-122576200D01*
X158095580Y-122623819D01*
X158143200Y-122576200D01*
X158095580Y-122528580D01*
X158095580Y-122623819D01*
X158524152Y-123480961D02*
X158619390Y-123528580D01*
X158809866Y-123528580D01*
X158905104Y-123480961D01*
X158952723Y-123385723D01*
X158952723Y-123338104D01*
X158905104Y-123242866D01*
X158809866Y-123195247D01*
X158667009Y-123195247D01*
X158571771Y-123147628D01*
X158524152Y-123052390D01*
X158524152Y-123004771D01*
X158571771Y-122909533D01*
X158667009Y-122861914D01*
X158809866Y-122861914D01*
X158905104Y-122909533D01*
X159381295Y-123528580D02*
X159381295Y-122861914D01*
X159381295Y-122528580D02*
X159333676Y-122576200D01*
X159381295Y-122623819D01*
X159428914Y-122576200D01*
X159381295Y-122528580D01*
X159381295Y-122623819D01*
X160000342Y-123528580D02*
X159905104Y-123480961D01*
X159857485Y-123433342D01*
X159809866Y-123338104D01*
X159809866Y-123052390D01*
X159857485Y-122957152D01*
X159905104Y-122909533D01*
X160000342Y-122861914D01*
X160143200Y-122861914D01*
X160238438Y-122909533D01*
X160286057Y-122957152D01*
X160333676Y-123052390D01*
X160333676Y-123338104D01*
X160286057Y-123433342D01*
X160238438Y-123480961D01*
X160143200Y-123528580D01*
X160000342Y-123528580D01*
X160762247Y-122861914D02*
X160762247Y-123528580D01*
X160762247Y-122957152D02*
X160809866Y-122909533D01*
X160905104Y-122861914D01*
X161047961Y-122861914D01*
X161143200Y-122909533D01*
X161190819Y-123004771D01*
X161190819Y-123528580D01*
X148333676Y-124178580D02*
X148524152Y-124178580D01*
X148619390Y-124226200D01*
X148714628Y-124321438D01*
X148762247Y-124511914D01*
X148762247Y-124845247D01*
X148714628Y-125035723D01*
X148619390Y-125130961D01*
X148524152Y-125178580D01*
X148333676Y-125178580D01*
X148238438Y-125130961D01*
X148143200Y-125035723D01*
X148095580Y-124845247D01*
X148095580Y-124511914D01*
X148143200Y-124321438D01*
X148238438Y-124226200D01*
X148333676Y-124178580D01*
X149190819Y-124511914D02*
X149190819Y-125511914D01*
X149190819Y-124559533D02*
X149286057Y-124511914D01*
X149476533Y-124511914D01*
X149571771Y-124559533D01*
X149619390Y-124607152D01*
X149667009Y-124702390D01*
X149667009Y-124988104D01*
X149619390Y-125083342D01*
X149571771Y-125130961D01*
X149476533Y-125178580D01*
X149286057Y-125178580D01*
X149190819Y-125130961D01*
X150047961Y-124892866D02*
X150524152Y-124892866D01*
X149952723Y-125178580D02*
X150286057Y-124178580D01*
X150619390Y-125178580D01*
X150952723Y-125178580D02*
X150952723Y-124511914D01*
X150952723Y-124607152D02*
X151000342Y-124559533D01*
X151095580Y-124511914D01*
X151238438Y-124511914D01*
X151333676Y-124559533D01*
X151381295Y-124654771D01*
X151381295Y-125178580D01*
X151381295Y-124654771D02*
X151428914Y-124559533D01*
X151524152Y-124511914D01*
X151667009Y-124511914D01*
X151762247Y-124559533D01*
X151809866Y-124654771D01*
X151809866Y-125178580D01*
X152286057Y-124511914D02*
X152286057Y-125511914D01*
X152286057Y-124559533D02*
X152381295Y-124511914D01*
X152571771Y-124511914D01*
X152667009Y-124559533D01*
X152714628Y-124607152D01*
X152762247Y-124702390D01*
X152762247Y-124988104D01*
X152714628Y-125083342D01*
X152667009Y-125130961D01*
X152571771Y-125178580D01*
X152381295Y-125178580D01*
X152286057Y-125130961D01*
X153952723Y-124654771D02*
X154286057Y-124654771D01*
X154428914Y-125178580D02*
X153952723Y-125178580D01*
X153952723Y-124178580D01*
X154428914Y-124178580D01*
X154762247Y-124511914D02*
X155000342Y-125178580D01*
X155238438Y-124511914D01*
X156047961Y-125178580D02*
X156047961Y-124654771D01*
X156000342Y-124559533D01*
X155905104Y-124511914D01*
X155714628Y-124511914D01*
X155619390Y-124559533D01*
X156047961Y-125130961D02*
X155952723Y-125178580D01*
X155714628Y-125178580D01*
X155619390Y-125130961D01*
X155571771Y-125035723D01*
X155571771Y-124940485D01*
X155619390Y-124845247D01*
X155714628Y-124797628D01*
X155952723Y-124797628D01*
X156047961Y-124750009D01*
X156667009Y-125178580D02*
X156571771Y-125130961D01*
X156524152Y-125035723D01*
X156524152Y-124178580D01*
X157047961Y-124797628D02*
X157809866Y-124797628D01*
X158619390Y-124654771D02*
X158762247Y-124702390D01*
X158809866Y-124750009D01*
X158857485Y-124845247D01*
X158857485Y-124988104D01*
X158809866Y-125083342D01*
X158762247Y-125130961D01*
X158667009Y-125178580D01*
X158286057Y-125178580D01*
X158286057Y-124178580D01*
X158619390Y-124178580D01*
X158714628Y-124226200D01*
X158762247Y-124273819D01*
X158809866Y-124369057D01*
X158809866Y-124464295D01*
X158762247Y-124559533D01*
X158714628Y-124607152D01*
X158619390Y-124654771D01*
X158286057Y-124654771D01*
X159428914Y-125178580D02*
X159333676Y-125130961D01*
X159286057Y-125083342D01*
X159238438Y-124988104D01*
X159238438Y-124702390D01*
X159286057Y-124607152D01*
X159333676Y-124559533D01*
X159428914Y-124511914D01*
X159571771Y-124511914D01*
X159667009Y-124559533D01*
X159714628Y-124607152D01*
X159762247Y-124702390D01*
X159762247Y-124988104D01*
X159714628Y-125083342D01*
X159667009Y-125130961D01*
X159571771Y-125178580D01*
X159428914Y-125178580D01*
X160619390Y-125178580D02*
X160619390Y-124654771D01*
X160571771Y-124559533D01*
X160476533Y-124511914D01*
X160286057Y-124511914D01*
X160190819Y-124559533D01*
X160619390Y-125130961D02*
X160524152Y-125178580D01*
X160286057Y-125178580D01*
X160190819Y-125130961D01*
X160143200Y-125035723D01*
X160143200Y-124940485D01*
X160190819Y-124845247D01*
X160286057Y-124797628D01*
X160524152Y-124797628D01*
X160619390Y-124750009D01*
X161095580Y-125178580D02*
X161095580Y-124511914D01*
X161095580Y-124702390D02*
X161143200Y-124607152D01*
X161190819Y-124559533D01*
X161286057Y-124511914D01*
X161381295Y-124511914D01*
X162143200Y-125178580D02*
X162143200Y-124178580D01*
X162143200Y-125130961D02*
X162047961Y-125178580D01*
X161857485Y-125178580D01*
X161762247Y-125130961D01*
X161714628Y-125083342D01*
X161667009Y-124988104D01*
X161667009Y-124702390D01*
X161714628Y-124607152D01*
X161762247Y-124559533D01*
X161857485Y-124511914D01*
X162047961Y-124511914D01*
X162143200Y-124559533D01*
D11*
X150435000Y-91413800D02*
X151825000Y-91413800D01*
X150435000Y-91413800D02*
X150435000Y-91288800D01*
X151825000Y-91413800D02*
X151825000Y-91288800D01*
X150435000Y-91413800D02*
X150521724Y-91413800D01*
X151738276Y-91413800D02*
X151825000Y-91413800D01*
X150435000Y-90728800D02*
X150435000Y-90043800D01*
X150435000Y-90043800D02*
X151130000Y-90043800D01*
X162811800Y-111884800D02*
X162811800Y-114784800D01*
X169521800Y-111884800D02*
X169521800Y-114784800D01*
X164716800Y-116689800D02*
X167616800Y-116689800D01*
X164716800Y-109979800D02*
X167616800Y-109979800D01*
X128631000Y-120222000D02*
X128631000Y-126192000D01*
X128631000Y-126192000D02*
X138751000Y-126192000D01*
X138751000Y-126192000D02*
X138751000Y-120222000D01*
X138751000Y-120222000D02*
X128631000Y-120222000D01*
X131941000Y-120232000D02*
X131941000Y-120982000D01*
X131941000Y-120982000D02*
X135441000Y-120982000D01*
X135441000Y-120982000D02*
X135441000Y-120232000D01*
X135441000Y-120232000D02*
X131941000Y-120232000D01*
X128641000Y-120232000D02*
X128641000Y-120982000D01*
X128641000Y-120982000D02*
X130441000Y-120982000D01*
X130441000Y-120982000D02*
X130441000Y-120232000D01*
X130441000Y-120232000D02*
X128641000Y-120232000D01*
X136941000Y-120232000D02*
X136941000Y-120982000D01*
X136941000Y-120982000D02*
X138741000Y-120982000D01*
X138741000Y-120982000D02*
X138741000Y-120232000D01*
X138741000Y-120232000D02*
X136941000Y-120232000D01*
X128641000Y-122482000D02*
X129391000Y-122482000D01*
X129391000Y-122482000D02*
X129391000Y-125432000D01*
X129391000Y-125432000D02*
X133691000Y-125432000D01*
X138741000Y-122482000D02*
X137991000Y-122482000D01*
X137991000Y-122482000D02*
X137991000Y-125432000D01*
X137991000Y-125432000D02*
X133691000Y-125432000D01*
X129591000Y-119932000D02*
X128341000Y-119932000D01*
X128341000Y-119932000D02*
X128341000Y-121182000D01*
X158918600Y-119050600D02*
X159613600Y-119050600D01*
X158918600Y-119735600D02*
X158918600Y-119050600D01*
X160221876Y-120420600D02*
X160308600Y-120420600D01*
X158918600Y-120420600D02*
X159005324Y-120420600D01*
X160308600Y-120420600D02*
X160308600Y-120295600D01*
X158918600Y-120420600D02*
X158918600Y-120295600D01*
X158918600Y-120420600D02*
X160308600Y-120420600D01*
X160208000Y-115722400D02*
G75*
G03X160208000Y-115722400I-950000J0D01*
G01*
X149692400Y-93573600D02*
G75*
G03X149692400Y-93573600I-950000J0D01*
G01*
X115484600Y-89942200D02*
X116179600Y-89942200D01*
X115484600Y-90627200D02*
X115484600Y-89942200D01*
X116787876Y-91312200D02*
X116874600Y-91312200D01*
X115484600Y-91312200D02*
X115571324Y-91312200D01*
X116874600Y-91312200D02*
X116874600Y-91187200D01*
X115484600Y-91312200D02*
X115484600Y-91187200D01*
X115484600Y-91312200D02*
X116874600Y-91312200D01*
X107966200Y-118034600D02*
X108661200Y-118034600D01*
X107966200Y-118719600D02*
X107966200Y-118034600D01*
X109269476Y-119404600D02*
X109356200Y-119404600D01*
X107966200Y-119404600D02*
X108052924Y-119404600D01*
X109356200Y-119404600D02*
X109356200Y-119279600D01*
X107966200Y-119404600D02*
X107966200Y-119279600D01*
X107966200Y-119404600D02*
X109356200Y-119404600D01*
X120126800Y-93522800D02*
G75*
G03X120126800Y-93522800I-950000J0D01*
G01*
X112049600Y-115366800D02*
G75*
G03X112049600Y-115366800I-950000J0D01*
G01*
X145405600Y-106302000D02*
X145405600Y-103502000D01*
X145405600Y-103502000D02*
X147405600Y-103502000D01*
X147405600Y-103502000D02*
X147405600Y-106302000D01*
X147405600Y-106302000D02*
X145405600Y-106302000D01*
X140427200Y-113160000D02*
X140427200Y-110360000D01*
X140427200Y-110360000D02*
X142427200Y-110360000D01*
X142427200Y-110360000D02*
X142427200Y-113160000D01*
X142427200Y-113160000D02*
X140427200Y-113160000D01*
X153787600Y-112753600D02*
X153787600Y-109953600D01*
X153787600Y-109953600D02*
X155787600Y-109953600D01*
X155787600Y-109953600D02*
X155787600Y-112753600D01*
X155787600Y-112753600D02*
X153787600Y-112753600D01*
X123212400Y-103190800D02*
X126012400Y-103190800D01*
X126012400Y-103190800D02*
X126012400Y-105190800D01*
X126012400Y-105190800D02*
X123212400Y-105190800D01*
X123212400Y-105190800D02*
X123212400Y-103190800D01*
X112499900Y-111775700D02*
X112499900Y-108975700D01*
X112499900Y-108975700D02*
X114499900Y-108975700D01*
X114499900Y-108975700D02*
X114499900Y-111775700D01*
X114499900Y-111775700D02*
X112499900Y-111775700D01*
X115141500Y-116500100D02*
X115141500Y-113700100D01*
X115141500Y-113700100D02*
X117141500Y-113700100D01*
X117141500Y-113700100D02*
X117141500Y-116500100D01*
X117141500Y-116500100D02*
X115141500Y-116500100D01*
X141754400Y-123612400D02*
X144554400Y-123612400D01*
X144554400Y-123612400D02*
X144554400Y-125612400D01*
X144554400Y-125612400D02*
X141754400Y-125612400D01*
X141754400Y-125612400D02*
X141754400Y-123612400D01*
X124177600Y-123942600D02*
X126977600Y-123942600D01*
X126977600Y-123942600D02*
X126977600Y-125942600D01*
X126977600Y-125942600D02*
X124177600Y-125942600D01*
X124177600Y-125942600D02*
X124177600Y-123942600D01*
X134114000Y-116122267D02*
X134114000Y-115779733D01*
X133094000Y-116122267D02*
X133094000Y-115779733D01*
X125833600Y-110725133D02*
X125833600Y-111067667D01*
X124813600Y-110725133D02*
X124813600Y-111067667D01*
X149252400Y-111080733D02*
X149252400Y-111423267D01*
X148232400Y-111080733D02*
X148232400Y-111423267D01*
X127810800Y-107473933D02*
X127810800Y-107816467D01*
X128830800Y-107473933D02*
X128830800Y-107816467D01*
X120567267Y-110187200D02*
X120224733Y-110187200D01*
X120567267Y-109167200D02*
X120224733Y-109167200D01*
X141196600Y-107219933D02*
X141196600Y-107562467D01*
X142216600Y-107219933D02*
X142216600Y-107562467D01*
X130808000Y-101809733D02*
X130808000Y-102152267D01*
X131828000Y-101809733D02*
X131828000Y-102152267D01*
X149777267Y-98296000D02*
X149434733Y-98296000D01*
X149777267Y-99316000D02*
X149434733Y-99316000D01*
X120478733Y-101090000D02*
X120821267Y-101090000D01*
X120478733Y-102110000D02*
X120821267Y-102110000D01*
X149828067Y-100937600D02*
X149485533Y-100937600D01*
X149828067Y-101957600D02*
X149485533Y-101957600D01*
X128759133Y-113536000D02*
X129101667Y-113536000D01*
X128759133Y-114556000D02*
X129101667Y-114556000D01*
X125901267Y-118467600D02*
X125558733Y-118467600D01*
X125901267Y-117447600D02*
X125558733Y-117447600D01*
X136142000Y-101936733D02*
X136142000Y-102279267D01*
X137162000Y-101936733D02*
X137162000Y-102279267D01*
X142111000Y-117519267D02*
X142111000Y-117176733D01*
X143131000Y-117519267D02*
X143131000Y-117176733D01*
X97737000Y-110970400D02*
X97737000Y-113870400D01*
X104447000Y-110970400D02*
X104447000Y-113870400D01*
X99642000Y-115775400D02*
X102542000Y-115775400D01*
X99642000Y-109065400D02*
X102542000Y-109065400D01*
X99642000Y-98295800D02*
X102542000Y-98295800D01*
X99642000Y-105005800D02*
X102542000Y-105005800D01*
X104447000Y-100200800D02*
X104447000Y-103100800D01*
X97737000Y-100200800D02*
X97737000Y-103100800D01*
X164793000Y-98880000D02*
X167693000Y-98880000D01*
X164793000Y-105590000D02*
X167693000Y-105590000D01*
X169598000Y-100785000D02*
X169598000Y-103685000D01*
X162888000Y-100785000D02*
X162888000Y-103685000D01*
X124661000Y-89355000D02*
X127561000Y-89355000D01*
X124661000Y-96065000D02*
X127561000Y-96065000D01*
X129466000Y-91260000D02*
X129466000Y-94160000D01*
X122756000Y-91260000D02*
X122756000Y-94160000D01*
X138250000Y-91387000D02*
X138250000Y-94287000D01*
X144960000Y-91387000D02*
X144960000Y-94287000D01*
X140155000Y-96192000D02*
X143055000Y-96192000D01*
X140155000Y-89482000D02*
X143055000Y-89482000D01*
X112647000Y-103092067D02*
X112647000Y-102749533D01*
X113667000Y-103092067D02*
X113667000Y-102749533D01*
X110322900Y-110229833D02*
X110322900Y-110572367D01*
X111342900Y-110229833D02*
X111342900Y-110572367D01*
X158494000Y-109137267D02*
X158494000Y-108794733D01*
X159514000Y-109137267D02*
X159514000Y-108794733D01*
X155568467Y-106377200D02*
X155225933Y-106377200D01*
X155568467Y-105357200D02*
X155225933Y-105357200D01*
X152097200Y-111474067D02*
X152097200Y-111131533D01*
X151077200Y-111474067D02*
X151077200Y-111131533D01*
X116422900Y-110229833D02*
X116422900Y-110572367D01*
X115402900Y-110229833D02*
X115402900Y-110572367D01*
X155073533Y-102563200D02*
X155416067Y-102563200D01*
X155073533Y-103583200D02*
X155416067Y-103583200D01*
X116207000Y-102749533D02*
X116207000Y-103092067D01*
X115187000Y-102749533D02*
X115187000Y-103092067D01*
X120042400Y-112744067D02*
X120042400Y-112401533D01*
X119022400Y-112744067D02*
X119022400Y-112401533D01*
X139448000Y-113912467D02*
X139448000Y-113569933D01*
X138428000Y-113912467D02*
X138428000Y-113569933D01*
X138220267Y-117604000D02*
X137877733Y-117604000D01*
X138220267Y-116584000D02*
X137877733Y-116584000D01*
X120897467Y-117536500D02*
X120554933Y-117536500D01*
X120897467Y-118556500D02*
X120554933Y-118556500D01*
X120770467Y-106322400D02*
X120427933Y-106322400D01*
X120770467Y-107342400D02*
X120427933Y-107342400D01*
X144756600Y-107219933D02*
X144756600Y-107562467D01*
X143736600Y-107219933D02*
X143736600Y-107562467D01*
X120478733Y-104650000D02*
X120821267Y-104650000D01*
X120478733Y-103630000D02*
X120821267Y-103630000D01*
X148283200Y-104730733D02*
X148283200Y-105073267D01*
X149303200Y-104730733D02*
X149303200Y-105073267D01*
X128780000Y-102063733D02*
X128780000Y-102406267D01*
X127760000Y-102063733D02*
X127760000Y-102406267D01*
X143478067Y-99620800D02*
X143135533Y-99620800D01*
X143478067Y-98600800D02*
X143135533Y-98600800D01*
X120478733Y-98550000D02*
X120821267Y-98550000D01*
X120478733Y-99570000D02*
X120821267Y-99570000D01*
X138936000Y-100158733D02*
X138936000Y-100501267D01*
X139956000Y-100158733D02*
X139956000Y-100501267D01*
X125861867Y-121079800D02*
X125519333Y-121079800D01*
X125861867Y-122099800D02*
X125519333Y-122099800D01*
X143033933Y-122074400D02*
X143376467Y-122074400D01*
X143033933Y-121054400D02*
X143376467Y-121054400D01*
X134620000Y-110510000D02*
X136570000Y-110510000D01*
X134620000Y-110510000D02*
X132670000Y-110510000D01*
X134620000Y-105390000D02*
X136570000Y-105390000D01*
X134620000Y-105390000D02*
X131170000Y-105390000D01*
D10*
X150368095Y-88668800D02*
X150272857Y-88621180D01*
X150130000Y-88621180D01*
X149987142Y-88668800D01*
X149891904Y-88764038D01*
X149844285Y-88859276D01*
X149796666Y-89049752D01*
X149796666Y-89192609D01*
X149844285Y-89383085D01*
X149891904Y-89478323D01*
X149987142Y-89573561D01*
X150130000Y-89621180D01*
X150225238Y-89621180D01*
X150368095Y-89573561D01*
X150415714Y-89525942D01*
X150415714Y-89192609D01*
X150225238Y-89192609D01*
X150844285Y-89621180D02*
X150844285Y-88621180D01*
X151415714Y-89621180D01*
X151415714Y-88621180D01*
X151891904Y-89621180D02*
X151891904Y-88621180D01*
X152130000Y-88621180D01*
X152272857Y-88668800D01*
X152368095Y-88764038D01*
X152415714Y-88859276D01*
X152463333Y-89049752D01*
X152463333Y-89192609D01*
X152415714Y-89383085D01*
X152368095Y-89478323D01*
X152272857Y-89573561D01*
X152130000Y-89621180D01*
X151891904Y-89621180D01*
X164523942Y-109037180D02*
X164523942Y-108037180D01*
X165000133Y-109037180D02*
X165000133Y-108037180D01*
X165571561Y-109037180D01*
X165571561Y-108037180D01*
X166381085Y-108513371D02*
X166523942Y-108560990D01*
X166571561Y-108608609D01*
X166619180Y-108703847D01*
X166619180Y-108846704D01*
X166571561Y-108941942D01*
X166523942Y-108989561D01*
X166428704Y-109037180D01*
X166047752Y-109037180D01*
X166047752Y-108037180D01*
X166381085Y-108037180D01*
X166476323Y-108084800D01*
X166523942Y-108132419D01*
X166571561Y-108227657D01*
X166571561Y-108322895D01*
X166523942Y-108418133D01*
X166476323Y-108465752D01*
X166381085Y-108513371D01*
X166047752Y-108513371D01*
X167047752Y-108656228D02*
X167809657Y-108656228D01*
X167428704Y-109037180D02*
X167428704Y-108275276D01*
X128397619Y-126452380D02*
X128730952Y-127452380D01*
X129064285Y-126452380D01*
X129397619Y-126928571D02*
X129730952Y-126928571D01*
X129873809Y-127452380D02*
X129397619Y-127452380D01*
X129397619Y-126452380D01*
X129873809Y-126452380D01*
X130302380Y-126928571D02*
X130635714Y-126928571D01*
X130778571Y-127452380D02*
X130302380Y-127452380D01*
X130302380Y-126452380D01*
X130778571Y-126452380D01*
X132492857Y-126500000D02*
X132397619Y-126452380D01*
X132254761Y-126452380D01*
X132111904Y-126500000D01*
X132016666Y-126595238D01*
X131969047Y-126690476D01*
X131921428Y-126880952D01*
X131921428Y-127023809D01*
X131969047Y-127214285D01*
X132016666Y-127309523D01*
X132111904Y-127404761D01*
X132254761Y-127452380D01*
X132350000Y-127452380D01*
X132492857Y-127404761D01*
X132540476Y-127357142D01*
X132540476Y-127023809D01*
X132350000Y-127023809D01*
X132969047Y-127452380D02*
X132969047Y-126452380D01*
X133540476Y-127452380D01*
X133540476Y-126452380D01*
X134016666Y-127452380D02*
X134016666Y-126452380D01*
X134254761Y-126452380D01*
X134397619Y-126500000D01*
X134492857Y-126595238D01*
X134540476Y-126690476D01*
X134588095Y-126880952D01*
X134588095Y-127023809D01*
X134540476Y-127214285D01*
X134492857Y-127309523D01*
X134397619Y-127404761D01*
X134254761Y-127452380D01*
X134016666Y-127452380D01*
X135635714Y-126452380D02*
X135969047Y-127452380D01*
X136302380Y-126452380D01*
X137207142Y-127357142D02*
X137159523Y-127404761D01*
X137016666Y-127452380D01*
X136921428Y-127452380D01*
X136778571Y-127404761D01*
X136683333Y-127309523D01*
X136635714Y-127214285D01*
X136588095Y-127023809D01*
X136588095Y-126880952D01*
X136635714Y-126690476D01*
X136683333Y-126595238D01*
X136778571Y-126500000D01*
X136921428Y-126452380D01*
X137016666Y-126452380D01*
X137159523Y-126500000D01*
X137207142Y-126547619D01*
X138207142Y-127357142D02*
X138159523Y-127404761D01*
X138016666Y-127452380D01*
X137921428Y-127452380D01*
X137778571Y-127404761D01*
X137683333Y-127309523D01*
X137635714Y-127214285D01*
X137588095Y-127023809D01*
X137588095Y-126880952D01*
X137635714Y-126690476D01*
X137683333Y-126595238D01*
X137778571Y-126500000D01*
X137921428Y-126452380D01*
X138016666Y-126452380D01*
X138159523Y-126500000D01*
X138207142Y-126547619D01*
X159816895Y-117406800D02*
X159721657Y-117359180D01*
X159578800Y-117359180D01*
X159435942Y-117406800D01*
X159340704Y-117502038D01*
X159293085Y-117597276D01*
X159245466Y-117787752D01*
X159245466Y-117930609D01*
X159293085Y-118121085D01*
X159340704Y-118216323D01*
X159435942Y-118311561D01*
X159578800Y-118359180D01*
X159674038Y-118359180D01*
X159816895Y-118311561D01*
X159864514Y-118263942D01*
X159864514Y-117930609D01*
X159674038Y-117930609D01*
X160293085Y-118359180D02*
X160293085Y-117359180D01*
X160864514Y-118359180D01*
X160864514Y-117359180D01*
X161340704Y-118359180D02*
X161340704Y-117359180D01*
X161578800Y-117359180D01*
X161721657Y-117406800D01*
X161816895Y-117502038D01*
X161864514Y-117597276D01*
X161912133Y-117787752D01*
X161912133Y-117930609D01*
X161864514Y-118121085D01*
X161816895Y-118216323D01*
X161721657Y-118311561D01*
X161578800Y-118359180D01*
X161340704Y-118359180D01*
X157996095Y-113526780D02*
X158567523Y-113526780D01*
X158281809Y-114526780D02*
X158281809Y-113526780D01*
X158900857Y-114526780D02*
X158900857Y-113526780D01*
X159281809Y-113526780D01*
X159377047Y-113574400D01*
X159424666Y-113622019D01*
X159472285Y-113717257D01*
X159472285Y-113860114D01*
X159424666Y-113955352D01*
X159377047Y-114002971D01*
X159281809Y-114050590D01*
X158900857Y-114050590D01*
X160329428Y-113860114D02*
X160329428Y-114526780D01*
X160091333Y-113479161D02*
X159853238Y-114193447D01*
X160472285Y-114193447D01*
X147480495Y-91377980D02*
X148051923Y-91377980D01*
X147766209Y-92377980D02*
X147766209Y-91377980D01*
X148385257Y-92377980D02*
X148385257Y-91377980D01*
X148766209Y-91377980D01*
X148861447Y-91425600D01*
X148909066Y-91473219D01*
X148956685Y-91568457D01*
X148956685Y-91711314D01*
X148909066Y-91806552D01*
X148861447Y-91854171D01*
X148766209Y-91901790D01*
X148385257Y-91901790D01*
X149290019Y-91377980D02*
X149909066Y-91377980D01*
X149575733Y-91758933D01*
X149718590Y-91758933D01*
X149813828Y-91806552D01*
X149861447Y-91854171D01*
X149909066Y-91949409D01*
X149909066Y-92187504D01*
X149861447Y-92282742D01*
X149813828Y-92330361D01*
X149718590Y-92377980D01*
X149432876Y-92377980D01*
X149337638Y-92330361D01*
X149290019Y-92282742D01*
X115417695Y-88567200D02*
X115322457Y-88519580D01*
X115179600Y-88519580D01*
X115036742Y-88567200D01*
X114941504Y-88662438D01*
X114893885Y-88757676D01*
X114846266Y-88948152D01*
X114846266Y-89091009D01*
X114893885Y-89281485D01*
X114941504Y-89376723D01*
X115036742Y-89471961D01*
X115179600Y-89519580D01*
X115274838Y-89519580D01*
X115417695Y-89471961D01*
X115465314Y-89424342D01*
X115465314Y-89091009D01*
X115274838Y-89091009D01*
X115893885Y-89519580D02*
X115893885Y-88519580D01*
X116465314Y-89519580D01*
X116465314Y-88519580D01*
X116941504Y-89519580D02*
X116941504Y-88519580D01*
X117179600Y-88519580D01*
X117322457Y-88567200D01*
X117417695Y-88662438D01*
X117465314Y-88757676D01*
X117512933Y-88948152D01*
X117512933Y-89091009D01*
X117465314Y-89281485D01*
X117417695Y-89376723D01*
X117322457Y-89471961D01*
X117179600Y-89519580D01*
X116941504Y-89519580D01*
X107899295Y-116659600D02*
X107804057Y-116611980D01*
X107661200Y-116611980D01*
X107518342Y-116659600D01*
X107423104Y-116754838D01*
X107375485Y-116850076D01*
X107327866Y-117040552D01*
X107327866Y-117183409D01*
X107375485Y-117373885D01*
X107423104Y-117469123D01*
X107518342Y-117564361D01*
X107661200Y-117611980D01*
X107756438Y-117611980D01*
X107899295Y-117564361D01*
X107946914Y-117516742D01*
X107946914Y-117183409D01*
X107756438Y-117183409D01*
X108375485Y-117611980D02*
X108375485Y-116611980D01*
X108946914Y-117611980D01*
X108946914Y-116611980D01*
X109423104Y-117611980D02*
X109423104Y-116611980D01*
X109661200Y-116611980D01*
X109804057Y-116659600D01*
X109899295Y-116754838D01*
X109946914Y-116850076D01*
X109994533Y-117040552D01*
X109994533Y-117183409D01*
X109946914Y-117373885D01*
X109899295Y-117469123D01*
X109804057Y-117564361D01*
X109661200Y-117611980D01*
X109423104Y-117611980D01*
X115374895Y-93229180D02*
X115946323Y-93229180D01*
X115660609Y-94229180D02*
X115660609Y-93229180D01*
X116279657Y-94229180D02*
X116279657Y-93229180D01*
X116660609Y-93229180D01*
X116755847Y-93276800D01*
X116803466Y-93324419D01*
X116851085Y-93419657D01*
X116851085Y-93562514D01*
X116803466Y-93657752D01*
X116755847Y-93705371D01*
X116660609Y-93752990D01*
X116279657Y-93752990D01*
X117232038Y-93324419D02*
X117279657Y-93276800D01*
X117374895Y-93229180D01*
X117612990Y-93229180D01*
X117708228Y-93276800D01*
X117755847Y-93324419D01*
X117803466Y-93419657D01*
X117803466Y-93514895D01*
X117755847Y-93657752D01*
X117184419Y-94229180D01*
X117803466Y-94229180D01*
X109837695Y-113171180D02*
X110409123Y-113171180D01*
X110123409Y-114171180D02*
X110123409Y-113171180D01*
X110742457Y-114171180D02*
X110742457Y-113171180D01*
X111123409Y-113171180D01*
X111218647Y-113218800D01*
X111266266Y-113266419D01*
X111313885Y-113361657D01*
X111313885Y-113504514D01*
X111266266Y-113599752D01*
X111218647Y-113647371D01*
X111123409Y-113694990D01*
X110742457Y-113694990D01*
X112266266Y-114171180D02*
X111694838Y-114171180D01*
X111980552Y-114171180D02*
X111980552Y-113171180D01*
X111885314Y-113314038D01*
X111790076Y-113409276D01*
X111694838Y-113456895D01*
X144057980Y-104973333D02*
X144772266Y-104973333D01*
X144915123Y-105020952D01*
X145010361Y-105116190D01*
X145057980Y-105259047D01*
X145057980Y-105354285D01*
X145057980Y-104497142D02*
X144057980Y-104497142D01*
X144057980Y-104116190D01*
X144105600Y-104020952D01*
X144153219Y-103973333D01*
X144248457Y-103925714D01*
X144391314Y-103925714D01*
X144486552Y-103973333D01*
X144534171Y-104020952D01*
X144581790Y-104116190D01*
X144581790Y-104497142D01*
X144057980Y-103020952D02*
X144057980Y-103497142D01*
X144534171Y-103544761D01*
X144486552Y-103497142D01*
X144438933Y-103401904D01*
X144438933Y-103163809D01*
X144486552Y-103068571D01*
X144534171Y-103020952D01*
X144629409Y-102973333D01*
X144867504Y-102973333D01*
X144962742Y-103020952D01*
X145010361Y-103068571D01*
X145057980Y-103163809D01*
X145057980Y-103401904D01*
X145010361Y-103497142D01*
X144962742Y-103544761D01*
X143368780Y-112085333D02*
X144083066Y-112085333D01*
X144225923Y-112132952D01*
X144321161Y-112228190D01*
X144368780Y-112371047D01*
X144368780Y-112466285D01*
X144368780Y-111609142D02*
X143368780Y-111609142D01*
X143368780Y-111228190D01*
X143416400Y-111132952D01*
X143464019Y-111085333D01*
X143559257Y-111037714D01*
X143702114Y-111037714D01*
X143797352Y-111085333D01*
X143844971Y-111132952D01*
X143892590Y-111228190D01*
X143892590Y-111609142D01*
X143702114Y-110180571D02*
X144368780Y-110180571D01*
X143321161Y-110418666D02*
X144035447Y-110656761D01*
X144035447Y-110037714D01*
X156271980Y-112390133D02*
X156986266Y-112390133D01*
X157129123Y-112437752D01*
X157224361Y-112532990D01*
X157271980Y-112675847D01*
X157271980Y-112771085D01*
X157271980Y-111913942D02*
X156271980Y-111913942D01*
X156271980Y-111532990D01*
X156319600Y-111437752D01*
X156367219Y-111390133D01*
X156462457Y-111342514D01*
X156605314Y-111342514D01*
X156700552Y-111390133D01*
X156748171Y-111437752D01*
X156795790Y-111532990D01*
X156795790Y-111913942D01*
X156271980Y-110485371D02*
X156271980Y-110675847D01*
X156319600Y-110771085D01*
X156367219Y-110818704D01*
X156510076Y-110913942D01*
X156700552Y-110961561D01*
X157081504Y-110961561D01*
X157176742Y-110913942D01*
X157224361Y-110866323D01*
X157271980Y-110771085D01*
X157271980Y-110580609D01*
X157224361Y-110485371D01*
X157176742Y-110437752D01*
X157081504Y-110390133D01*
X156843409Y-110390133D01*
X156748171Y-110437752D01*
X156700552Y-110485371D01*
X156652933Y-110580609D01*
X156652933Y-110771085D01*
X156700552Y-110866323D01*
X156748171Y-110913942D01*
X156843409Y-110961561D01*
X123779066Y-101843180D02*
X123779066Y-102557466D01*
X123731447Y-102700323D01*
X123636209Y-102795561D01*
X123493352Y-102843180D01*
X123398114Y-102843180D01*
X124255257Y-102843180D02*
X124255257Y-101843180D01*
X124636209Y-101843180D01*
X124731447Y-101890800D01*
X124779066Y-101938419D01*
X124826685Y-102033657D01*
X124826685Y-102176514D01*
X124779066Y-102271752D01*
X124731447Y-102319371D01*
X124636209Y-102366990D01*
X124255257Y-102366990D01*
X125160019Y-101843180D02*
X125779066Y-101843180D01*
X125445733Y-102224133D01*
X125588590Y-102224133D01*
X125683828Y-102271752D01*
X125731447Y-102319371D01*
X125779066Y-102414609D01*
X125779066Y-102652704D01*
X125731447Y-102747942D01*
X125683828Y-102795561D01*
X125588590Y-102843180D01*
X125302876Y-102843180D01*
X125207638Y-102795561D01*
X125160019Y-102747942D01*
X111152280Y-111056633D02*
X111866566Y-111056633D01*
X112009423Y-111104252D01*
X112104661Y-111199490D01*
X112152280Y-111342347D01*
X112152280Y-111437585D01*
X112152280Y-110580442D02*
X111152280Y-110580442D01*
X111152280Y-110199490D01*
X111199900Y-110104252D01*
X111247519Y-110056633D01*
X111342757Y-110009014D01*
X111485614Y-110009014D01*
X111580852Y-110056633D01*
X111628471Y-110104252D01*
X111676090Y-110199490D01*
X111676090Y-110580442D01*
X112152280Y-109056633D02*
X112152280Y-109628061D01*
X112152280Y-109342347D02*
X111152280Y-109342347D01*
X111295138Y-109437585D01*
X111390376Y-109532823D01*
X111437995Y-109628061D01*
X113793880Y-115933433D02*
X114508166Y-115933433D01*
X114651023Y-115981052D01*
X114746261Y-116076290D01*
X114793880Y-116219147D01*
X114793880Y-116314385D01*
X114793880Y-115457242D02*
X113793880Y-115457242D01*
X113793880Y-115076290D01*
X113841500Y-114981052D01*
X113889119Y-114933433D01*
X113984357Y-114885814D01*
X114127214Y-114885814D01*
X114222452Y-114933433D01*
X114270071Y-114981052D01*
X114317690Y-115076290D01*
X114317690Y-115457242D01*
X113889119Y-114504861D02*
X113841500Y-114457242D01*
X113793880Y-114362004D01*
X113793880Y-114123909D01*
X113841500Y-114028671D01*
X113889119Y-113981052D01*
X113984357Y-113933433D01*
X114079595Y-113933433D01*
X114222452Y-113981052D01*
X114793880Y-114552480D01*
X114793880Y-113933433D01*
X142371866Y-126198380D02*
X142371866Y-126912666D01*
X142324247Y-127055523D01*
X142229009Y-127150761D01*
X142086152Y-127198380D01*
X141990914Y-127198380D01*
X142848057Y-127198380D02*
X142848057Y-126198380D01*
X143229009Y-126198380D01*
X143324247Y-126246000D01*
X143371866Y-126293619D01*
X143419485Y-126388857D01*
X143419485Y-126531714D01*
X143371866Y-126626952D01*
X143324247Y-126674571D01*
X143229009Y-126722190D01*
X142848057Y-126722190D01*
X143990914Y-126626952D02*
X143895676Y-126579333D01*
X143848057Y-126531714D01*
X143800438Y-126436476D01*
X143800438Y-126388857D01*
X143848057Y-126293619D01*
X143895676Y-126246000D01*
X143990914Y-126198380D01*
X144181390Y-126198380D01*
X144276628Y-126246000D01*
X144324247Y-126293619D01*
X144371866Y-126388857D01*
X144371866Y-126436476D01*
X144324247Y-126531714D01*
X144276628Y-126579333D01*
X144181390Y-126626952D01*
X143990914Y-126626952D01*
X143895676Y-126674571D01*
X143848057Y-126722190D01*
X143800438Y-126817428D01*
X143800438Y-127007904D01*
X143848057Y-127103142D01*
X143895676Y-127150761D01*
X143990914Y-127198380D01*
X144181390Y-127198380D01*
X144276628Y-127150761D01*
X144324247Y-127103142D01*
X144371866Y-127007904D01*
X144371866Y-126817428D01*
X144324247Y-126722190D01*
X144276628Y-126674571D01*
X144181390Y-126626952D01*
X124896666Y-126630180D02*
X124896666Y-127344466D01*
X124849047Y-127487323D01*
X124753809Y-127582561D01*
X124610952Y-127630180D01*
X124515714Y-127630180D01*
X125372857Y-127630180D02*
X125372857Y-126630180D01*
X125753809Y-126630180D01*
X125849047Y-126677800D01*
X125896666Y-126725419D01*
X125944285Y-126820657D01*
X125944285Y-126963514D01*
X125896666Y-127058752D01*
X125849047Y-127106371D01*
X125753809Y-127153990D01*
X125372857Y-127153990D01*
X126277619Y-126630180D02*
X126944285Y-126630180D01*
X126515714Y-127630180D01*
X132531142Y-116117666D02*
X132578761Y-116165285D01*
X132626380Y-116308142D01*
X132626380Y-116403380D01*
X132578761Y-116546238D01*
X132483523Y-116641476D01*
X132388285Y-116689095D01*
X132197809Y-116736714D01*
X132054952Y-116736714D01*
X131864476Y-116689095D01*
X131769238Y-116641476D01*
X131674000Y-116546238D01*
X131626380Y-116403380D01*
X131626380Y-116308142D01*
X131674000Y-116165285D01*
X131721619Y-116117666D01*
X132626380Y-115165285D02*
X132626380Y-115736714D01*
X132626380Y-115451000D02*
X131626380Y-115451000D01*
X131769238Y-115546238D01*
X131864476Y-115641476D01*
X131912095Y-115736714D01*
X127110742Y-111063066D02*
X127158361Y-111110685D01*
X127205980Y-111253542D01*
X127205980Y-111348780D01*
X127158361Y-111491638D01*
X127063123Y-111586876D01*
X126967885Y-111634495D01*
X126777409Y-111682114D01*
X126634552Y-111682114D01*
X126444076Y-111634495D01*
X126348838Y-111586876D01*
X126253600Y-111491638D01*
X126205980Y-111348780D01*
X126205980Y-111253542D01*
X126253600Y-111110685D01*
X126301219Y-111063066D01*
X126301219Y-110682114D02*
X126253600Y-110634495D01*
X126205980Y-110539257D01*
X126205980Y-110301161D01*
X126253600Y-110205923D01*
X126301219Y-110158304D01*
X126396457Y-110110685D01*
X126491695Y-110110685D01*
X126634552Y-110158304D01*
X127205980Y-110729733D01*
X127205980Y-110110685D01*
X150471142Y-111291666D02*
X150518761Y-111339285D01*
X150566380Y-111482142D01*
X150566380Y-111577380D01*
X150518761Y-111720238D01*
X150423523Y-111815476D01*
X150328285Y-111863095D01*
X150137809Y-111910714D01*
X149994952Y-111910714D01*
X149804476Y-111863095D01*
X149709238Y-111815476D01*
X149614000Y-111720238D01*
X149566380Y-111577380D01*
X149566380Y-111482142D01*
X149614000Y-111339285D01*
X149661619Y-111291666D01*
X149566380Y-110958333D02*
X149566380Y-110339285D01*
X149947333Y-110672619D01*
X149947333Y-110529761D01*
X149994952Y-110434523D01*
X150042571Y-110386904D01*
X150137809Y-110339285D01*
X150375904Y-110339285D01*
X150471142Y-110386904D01*
X150518761Y-110434523D01*
X150566380Y-110529761D01*
X150566380Y-110815476D01*
X150518761Y-110910714D01*
X150471142Y-110958333D01*
X130107942Y-107811866D02*
X130155561Y-107859485D01*
X130203180Y-108002342D01*
X130203180Y-108097580D01*
X130155561Y-108240438D01*
X130060323Y-108335676D01*
X129965085Y-108383295D01*
X129774609Y-108430914D01*
X129631752Y-108430914D01*
X129441276Y-108383295D01*
X129346038Y-108335676D01*
X129250800Y-108240438D01*
X129203180Y-108097580D01*
X129203180Y-108002342D01*
X129250800Y-107859485D01*
X129298419Y-107811866D01*
X129536514Y-106954723D02*
X130203180Y-106954723D01*
X129155561Y-107192819D02*
X129869847Y-107430914D01*
X129869847Y-106811866D01*
X120483333Y-108688142D02*
X120435714Y-108735761D01*
X120292857Y-108783380D01*
X120197619Y-108783380D01*
X120054761Y-108735761D01*
X119959523Y-108640523D01*
X119911904Y-108545285D01*
X119864285Y-108354809D01*
X119864285Y-108211952D01*
X119911904Y-108021476D01*
X119959523Y-107926238D01*
X120054761Y-107831000D01*
X120197619Y-107783380D01*
X120292857Y-107783380D01*
X120435714Y-107831000D01*
X120483333Y-107878619D01*
X121388095Y-107783380D02*
X120911904Y-107783380D01*
X120864285Y-108259571D01*
X120911904Y-108211952D01*
X121007142Y-108164333D01*
X121245238Y-108164333D01*
X121340476Y-108211952D01*
X121388095Y-108259571D01*
X121435714Y-108354809D01*
X121435714Y-108592904D01*
X121388095Y-108688142D01*
X121340476Y-108735761D01*
X121245238Y-108783380D01*
X121007142Y-108783380D01*
X120911904Y-108735761D01*
X120864285Y-108688142D01*
X140057142Y-107557866D02*
X140104761Y-107605485D01*
X140152380Y-107748342D01*
X140152380Y-107843580D01*
X140104761Y-107986438D01*
X140009523Y-108081676D01*
X139914285Y-108129295D01*
X139723809Y-108176914D01*
X139580952Y-108176914D01*
X139390476Y-108129295D01*
X139295238Y-108081676D01*
X139200000Y-107986438D01*
X139152380Y-107843580D01*
X139152380Y-107748342D01*
X139200000Y-107605485D01*
X139247619Y-107557866D01*
X139152380Y-106700723D02*
X139152380Y-106891200D01*
X139200000Y-106986438D01*
X139247619Y-107034057D01*
X139390476Y-107129295D01*
X139580952Y-107176914D01*
X139961904Y-107176914D01*
X140057142Y-107129295D01*
X140104761Y-107081676D01*
X140152380Y-106986438D01*
X140152380Y-106795961D01*
X140104761Y-106700723D01*
X140057142Y-106653104D01*
X139961904Y-106605485D01*
X139723809Y-106605485D01*
X139628571Y-106653104D01*
X139580952Y-106700723D01*
X139533333Y-106795961D01*
X139533333Y-106986438D01*
X139580952Y-107081676D01*
X139628571Y-107129295D01*
X139723809Y-107176914D01*
X133105142Y-102147666D02*
X133152761Y-102195285D01*
X133200380Y-102338142D01*
X133200380Y-102433380D01*
X133152761Y-102576238D01*
X133057523Y-102671476D01*
X132962285Y-102719095D01*
X132771809Y-102766714D01*
X132628952Y-102766714D01*
X132438476Y-102719095D01*
X132343238Y-102671476D01*
X132248000Y-102576238D01*
X132200380Y-102433380D01*
X132200380Y-102338142D01*
X132248000Y-102195285D01*
X132295619Y-102147666D01*
X132200380Y-101814333D02*
X132200380Y-101147666D01*
X133200380Y-101576238D01*
X149312333Y-97766142D02*
X149264714Y-97813761D01*
X149121857Y-97861380D01*
X149026619Y-97861380D01*
X148883761Y-97813761D01*
X148788523Y-97718523D01*
X148740904Y-97623285D01*
X148693285Y-97432809D01*
X148693285Y-97289952D01*
X148740904Y-97099476D01*
X148788523Y-97004238D01*
X148883761Y-96909000D01*
X149026619Y-96861380D01*
X149121857Y-96861380D01*
X149264714Y-96909000D01*
X149312333Y-96956619D01*
X149883761Y-97289952D02*
X149788523Y-97242333D01*
X149740904Y-97194714D01*
X149693285Y-97099476D01*
X149693285Y-97051857D01*
X149740904Y-96956619D01*
X149788523Y-96909000D01*
X149883761Y-96861380D01*
X150074238Y-96861380D01*
X150169476Y-96909000D01*
X150217095Y-96956619D01*
X150264714Y-97051857D01*
X150264714Y-97099476D01*
X150217095Y-97194714D01*
X150169476Y-97242333D01*
X150074238Y-97289952D01*
X149883761Y-97289952D01*
X149788523Y-97337571D01*
X149740904Y-97385190D01*
X149693285Y-97480428D01*
X149693285Y-97670904D01*
X149740904Y-97766142D01*
X149788523Y-97813761D01*
X149883761Y-97861380D01*
X150074238Y-97861380D01*
X150169476Y-97813761D01*
X150217095Y-97766142D01*
X150264714Y-97670904D01*
X150264714Y-97480428D01*
X150217095Y-97385190D01*
X150169476Y-97337571D01*
X150074238Y-97289952D01*
X120483333Y-100527142D02*
X120435714Y-100574761D01*
X120292857Y-100622380D01*
X120197619Y-100622380D01*
X120054761Y-100574761D01*
X119959523Y-100479523D01*
X119911904Y-100384285D01*
X119864285Y-100193809D01*
X119864285Y-100050952D01*
X119911904Y-99860476D01*
X119959523Y-99765238D01*
X120054761Y-99670000D01*
X120197619Y-99622380D01*
X120292857Y-99622380D01*
X120435714Y-99670000D01*
X120483333Y-99717619D01*
X120959523Y-100622380D02*
X121150000Y-100622380D01*
X121245238Y-100574761D01*
X121292857Y-100527142D01*
X121388095Y-100384285D01*
X121435714Y-100193809D01*
X121435714Y-99812857D01*
X121388095Y-99717619D01*
X121340476Y-99670000D01*
X121245238Y-99622380D01*
X121054761Y-99622380D01*
X120959523Y-99670000D01*
X120911904Y-99717619D01*
X120864285Y-99812857D01*
X120864285Y-100050952D01*
X120911904Y-100146190D01*
X120959523Y-100193809D01*
X121054761Y-100241428D01*
X121245238Y-100241428D01*
X121340476Y-100193809D01*
X121388095Y-100146190D01*
X121435714Y-100050952D01*
X148836142Y-100560142D02*
X148788523Y-100607761D01*
X148645666Y-100655380D01*
X148550428Y-100655380D01*
X148407571Y-100607761D01*
X148312333Y-100512523D01*
X148264714Y-100417285D01*
X148217095Y-100226809D01*
X148217095Y-100083952D01*
X148264714Y-99893476D01*
X148312333Y-99798238D01*
X148407571Y-99703000D01*
X148550428Y-99655380D01*
X148645666Y-99655380D01*
X148788523Y-99703000D01*
X148836142Y-99750619D01*
X149788523Y-100655380D02*
X149217095Y-100655380D01*
X149502809Y-100655380D02*
X149502809Y-99655380D01*
X149407571Y-99798238D01*
X149312333Y-99893476D01*
X149217095Y-99941095D01*
X150407571Y-99655380D02*
X150502809Y-99655380D01*
X150598047Y-99703000D01*
X150645666Y-99750619D01*
X150693285Y-99845857D01*
X150740904Y-100036333D01*
X150740904Y-100274428D01*
X150693285Y-100464904D01*
X150645666Y-100560142D01*
X150598047Y-100607761D01*
X150502809Y-100655380D01*
X150407571Y-100655380D01*
X150312333Y-100607761D01*
X150264714Y-100560142D01*
X150217095Y-100464904D01*
X150169476Y-100274428D01*
X150169476Y-100036333D01*
X150217095Y-99845857D01*
X150264714Y-99750619D01*
X150312333Y-99703000D01*
X150407571Y-99655380D01*
X128287542Y-112973142D02*
X128239923Y-113020761D01*
X128097066Y-113068380D01*
X128001828Y-113068380D01*
X127858971Y-113020761D01*
X127763733Y-112925523D01*
X127716114Y-112830285D01*
X127668495Y-112639809D01*
X127668495Y-112496952D01*
X127716114Y-112306476D01*
X127763733Y-112211238D01*
X127858971Y-112116000D01*
X128001828Y-112068380D01*
X128097066Y-112068380D01*
X128239923Y-112116000D01*
X128287542Y-112163619D01*
X129239923Y-113068380D02*
X128668495Y-113068380D01*
X128954209Y-113068380D02*
X128954209Y-112068380D01*
X128858971Y-112211238D01*
X128763733Y-112306476D01*
X128668495Y-112354095D01*
X130192304Y-113068380D02*
X129620876Y-113068380D01*
X129906590Y-113068380D02*
X129906590Y-112068380D01*
X129811352Y-112211238D01*
X129716114Y-112306476D01*
X129620876Y-112354095D01*
X125087142Y-119744742D02*
X125039523Y-119792361D01*
X124896666Y-119839980D01*
X124801428Y-119839980D01*
X124658571Y-119792361D01*
X124563333Y-119697123D01*
X124515714Y-119601885D01*
X124468095Y-119411409D01*
X124468095Y-119268552D01*
X124515714Y-119078076D01*
X124563333Y-118982838D01*
X124658571Y-118887600D01*
X124801428Y-118839980D01*
X124896666Y-118839980D01*
X125039523Y-118887600D01*
X125087142Y-118935219D01*
X126039523Y-119839980D02*
X125468095Y-119839980D01*
X125753809Y-119839980D02*
X125753809Y-118839980D01*
X125658571Y-118982838D01*
X125563333Y-119078076D01*
X125468095Y-119125695D01*
X126420476Y-118935219D02*
X126468095Y-118887600D01*
X126563333Y-118839980D01*
X126801428Y-118839980D01*
X126896666Y-118887600D01*
X126944285Y-118935219D01*
X126991904Y-119030457D01*
X126991904Y-119125695D01*
X126944285Y-119268552D01*
X126372857Y-119839980D01*
X126991904Y-119839980D01*
X138439142Y-102750857D02*
X138486761Y-102798476D01*
X138534380Y-102941333D01*
X138534380Y-103036571D01*
X138486761Y-103179428D01*
X138391523Y-103274666D01*
X138296285Y-103322285D01*
X138105809Y-103369904D01*
X137962952Y-103369904D01*
X137772476Y-103322285D01*
X137677238Y-103274666D01*
X137582000Y-103179428D01*
X137534380Y-103036571D01*
X137534380Y-102941333D01*
X137582000Y-102798476D01*
X137629619Y-102750857D01*
X138534380Y-101798476D02*
X138534380Y-102369904D01*
X138534380Y-102084190D02*
X137534380Y-102084190D01*
X137677238Y-102179428D01*
X137772476Y-102274666D01*
X137820095Y-102369904D01*
X137534380Y-101465142D02*
X137534380Y-100846095D01*
X137915333Y-101179428D01*
X137915333Y-101036571D01*
X137962952Y-100941333D01*
X138010571Y-100893714D01*
X138105809Y-100846095D01*
X138343904Y-100846095D01*
X138439142Y-100893714D01*
X138486761Y-100941333D01*
X138534380Y-101036571D01*
X138534380Y-101322285D01*
X138486761Y-101417523D01*
X138439142Y-101465142D01*
X141548142Y-117990857D02*
X141595761Y-118038476D01*
X141643380Y-118181333D01*
X141643380Y-118276571D01*
X141595761Y-118419428D01*
X141500523Y-118514666D01*
X141405285Y-118562285D01*
X141214809Y-118609904D01*
X141071952Y-118609904D01*
X140881476Y-118562285D01*
X140786238Y-118514666D01*
X140691000Y-118419428D01*
X140643380Y-118276571D01*
X140643380Y-118181333D01*
X140691000Y-118038476D01*
X140738619Y-117990857D01*
X141643380Y-117038476D02*
X141643380Y-117609904D01*
X141643380Y-117324190D02*
X140643380Y-117324190D01*
X140786238Y-117419428D01*
X140881476Y-117514666D01*
X140929095Y-117609904D01*
X140976714Y-116181333D02*
X141643380Y-116181333D01*
X140595761Y-116419428D02*
X141310047Y-116657523D01*
X141310047Y-116038476D01*
X99520571Y-108122780D02*
X99520571Y-107122780D01*
X99996761Y-108122780D02*
X99996761Y-107122780D01*
X100568190Y-108122780D01*
X100568190Y-107122780D01*
X100996761Y-107837066D02*
X101472952Y-107837066D01*
X100901523Y-108122780D02*
X101234857Y-107122780D01*
X101568190Y-108122780D01*
X101901523Y-107741828D02*
X102663428Y-107741828D01*
X102282476Y-108122780D02*
X102282476Y-107360876D01*
X99520571Y-97353180D02*
X99520571Y-96353180D01*
X99996761Y-97353180D02*
X99996761Y-96353180D01*
X100568190Y-97353180D01*
X100568190Y-96353180D01*
X100996761Y-97067466D02*
X101472952Y-97067466D01*
X100901523Y-97353180D02*
X101234857Y-96353180D01*
X101568190Y-97353180D01*
X101901523Y-96972228D02*
X102663428Y-96972228D01*
X164600142Y-97937380D02*
X164600142Y-96937380D01*
X165076333Y-97937380D02*
X165076333Y-96937380D01*
X165647761Y-97937380D01*
X165647761Y-96937380D01*
X166457285Y-97413571D02*
X166600142Y-97461190D01*
X166647761Y-97508809D01*
X166695380Y-97604047D01*
X166695380Y-97746904D01*
X166647761Y-97842142D01*
X166600142Y-97889761D01*
X166504904Y-97937380D01*
X166123952Y-97937380D01*
X166123952Y-96937380D01*
X166457285Y-96937380D01*
X166552523Y-96985000D01*
X166600142Y-97032619D01*
X166647761Y-97127857D01*
X166647761Y-97223095D01*
X166600142Y-97318333D01*
X166552523Y-97365952D01*
X166457285Y-97413571D01*
X166123952Y-97413571D01*
X167123952Y-97556428D02*
X167885857Y-97556428D01*
X124206238Y-87412380D02*
X124396714Y-87412380D01*
X124491952Y-87460000D01*
X124587190Y-87555238D01*
X124634809Y-87745714D01*
X124634809Y-88079047D01*
X124587190Y-88269523D01*
X124491952Y-88364761D01*
X124396714Y-88412380D01*
X124206238Y-88412380D01*
X124111000Y-88364761D01*
X124015761Y-88269523D01*
X123968142Y-88079047D01*
X123968142Y-87745714D01*
X124015761Y-87555238D01*
X124111000Y-87460000D01*
X124206238Y-87412380D01*
X125063380Y-87412380D02*
X125063380Y-88221904D01*
X125111000Y-88317142D01*
X125158619Y-88364761D01*
X125253857Y-88412380D01*
X125444333Y-88412380D01*
X125539571Y-88364761D01*
X125587190Y-88317142D01*
X125634809Y-88221904D01*
X125634809Y-87412380D01*
X125968142Y-87412380D02*
X126539571Y-87412380D01*
X126253857Y-88412380D02*
X126253857Y-87412380D01*
X126825285Y-88126666D02*
X127301476Y-88126666D01*
X126730047Y-88412380D02*
X127063380Y-87412380D01*
X127396714Y-88412380D01*
X128253857Y-88412380D02*
X127682428Y-88412380D01*
X127968142Y-88412380D02*
X127968142Y-87412380D01*
X127872904Y-87555238D01*
X127777666Y-87650476D01*
X127682428Y-87698095D01*
X139628809Y-87539380D02*
X139819285Y-87539380D01*
X139914523Y-87587000D01*
X140009761Y-87682238D01*
X140057380Y-87872714D01*
X140057380Y-88206047D01*
X140009761Y-88396523D01*
X139914523Y-88491761D01*
X139819285Y-88539380D01*
X139628809Y-88539380D01*
X139533571Y-88491761D01*
X139438333Y-88396523D01*
X139390714Y-88206047D01*
X139390714Y-87872714D01*
X139438333Y-87682238D01*
X139533571Y-87587000D01*
X139628809Y-87539380D01*
X140485952Y-87539380D02*
X140485952Y-88348904D01*
X140533571Y-88444142D01*
X140581190Y-88491761D01*
X140676428Y-88539380D01*
X140866904Y-88539380D01*
X140962142Y-88491761D01*
X141009761Y-88444142D01*
X141057380Y-88348904D01*
X141057380Y-87539380D01*
X141390714Y-87539380D02*
X141962142Y-87539380D01*
X141676428Y-88539380D02*
X141676428Y-87539380D01*
X142628809Y-88015571D02*
X142771666Y-88063190D01*
X142819285Y-88110809D01*
X142866904Y-88206047D01*
X142866904Y-88348904D01*
X142819285Y-88444142D01*
X142771666Y-88491761D01*
X142676428Y-88539380D01*
X142295476Y-88539380D01*
X142295476Y-87539380D01*
X142628809Y-87539380D01*
X142724047Y-87587000D01*
X142771666Y-87634619D01*
X142819285Y-87729857D01*
X142819285Y-87825095D01*
X142771666Y-87920333D01*
X142724047Y-87967952D01*
X142628809Y-88015571D01*
X142295476Y-88015571D01*
X143819285Y-88539380D02*
X143247857Y-88539380D01*
X143533571Y-88539380D02*
X143533571Y-87539380D01*
X143438333Y-87682238D01*
X143343095Y-87777476D01*
X143247857Y-87825095D01*
X112179380Y-103087466D02*
X111703190Y-103420800D01*
X112179380Y-103658895D02*
X111179380Y-103658895D01*
X111179380Y-103277942D01*
X111227000Y-103182704D01*
X111274619Y-103135085D01*
X111369857Y-103087466D01*
X111512714Y-103087466D01*
X111607952Y-103135085D01*
X111655571Y-103182704D01*
X111703190Y-103277942D01*
X111703190Y-103658895D01*
X112179380Y-102135085D02*
X112179380Y-102706514D01*
X112179380Y-102420800D02*
X111179380Y-102420800D01*
X111322238Y-102516038D01*
X111417476Y-102611276D01*
X111465095Y-102706514D01*
X109634280Y-110745566D02*
X109158090Y-111078900D01*
X109634280Y-111316995D02*
X108634280Y-111316995D01*
X108634280Y-110936042D01*
X108681900Y-110840804D01*
X108729519Y-110793185D01*
X108824757Y-110745566D01*
X108967614Y-110745566D01*
X109062852Y-110793185D01*
X109110471Y-110840804D01*
X109158090Y-110936042D01*
X109158090Y-111316995D01*
X108729519Y-110364614D02*
X108681900Y-110316995D01*
X108634280Y-110221757D01*
X108634280Y-109983661D01*
X108681900Y-109888423D01*
X108729519Y-109840804D01*
X108824757Y-109793185D01*
X108919995Y-109793185D01*
X109062852Y-109840804D01*
X109634280Y-110412233D01*
X109634280Y-109793185D01*
X158026380Y-109132666D02*
X157550190Y-109466000D01*
X158026380Y-109704095D02*
X157026380Y-109704095D01*
X157026380Y-109323142D01*
X157074000Y-109227904D01*
X157121619Y-109180285D01*
X157216857Y-109132666D01*
X157359714Y-109132666D01*
X157454952Y-109180285D01*
X157502571Y-109227904D01*
X157550190Y-109323142D01*
X157550190Y-109704095D01*
X157026380Y-108799333D02*
X157026380Y-108180285D01*
X157407333Y-108513619D01*
X157407333Y-108370761D01*
X157454952Y-108275523D01*
X157502571Y-108227904D01*
X157597809Y-108180285D01*
X157835904Y-108180285D01*
X157931142Y-108227904D01*
X157978761Y-108275523D01*
X158026380Y-108370761D01*
X158026380Y-108656476D01*
X157978761Y-108751714D01*
X157931142Y-108799333D01*
X155230533Y-107749580D02*
X154897200Y-107273390D01*
X154659104Y-107749580D02*
X154659104Y-106749580D01*
X155040057Y-106749580D01*
X155135295Y-106797200D01*
X155182914Y-106844819D01*
X155230533Y-106940057D01*
X155230533Y-107082914D01*
X155182914Y-107178152D01*
X155135295Y-107225771D01*
X155040057Y-107273390D01*
X154659104Y-107273390D01*
X156087676Y-107082914D02*
X156087676Y-107749580D01*
X155849580Y-106701961D02*
X155611485Y-107416247D01*
X156230533Y-107416247D01*
X153487380Y-111291666D02*
X153011190Y-111625000D01*
X153487380Y-111863095D02*
X152487380Y-111863095D01*
X152487380Y-111482142D01*
X152535000Y-111386904D01*
X152582619Y-111339285D01*
X152677857Y-111291666D01*
X152820714Y-111291666D01*
X152915952Y-111339285D01*
X152963571Y-111386904D01*
X153011190Y-111482142D01*
X153011190Y-111863095D01*
X152487380Y-110386904D02*
X152487380Y-110863095D01*
X152963571Y-110910714D01*
X152915952Y-110863095D01*
X152868333Y-110767857D01*
X152868333Y-110529761D01*
X152915952Y-110434523D01*
X152963571Y-110386904D01*
X153058809Y-110339285D01*
X153296904Y-110339285D01*
X153392142Y-110386904D01*
X153439761Y-110434523D01*
X153487380Y-110529761D01*
X153487380Y-110767857D01*
X153439761Y-110863095D01*
X153392142Y-110910714D01*
X117795280Y-110567766D02*
X117319090Y-110901100D01*
X117795280Y-111139195D02*
X116795280Y-111139195D01*
X116795280Y-110758242D01*
X116842900Y-110663004D01*
X116890519Y-110615385D01*
X116985757Y-110567766D01*
X117128614Y-110567766D01*
X117223852Y-110615385D01*
X117271471Y-110663004D01*
X117319090Y-110758242D01*
X117319090Y-111139195D01*
X116795280Y-109710623D02*
X116795280Y-109901100D01*
X116842900Y-109996338D01*
X116890519Y-110043957D01*
X117033376Y-110139195D01*
X117223852Y-110186814D01*
X117604804Y-110186814D01*
X117700042Y-110139195D01*
X117747661Y-110091576D01*
X117795280Y-109996338D01*
X117795280Y-109805861D01*
X117747661Y-109710623D01*
X117700042Y-109663004D01*
X117604804Y-109615385D01*
X117366709Y-109615385D01*
X117271471Y-109663004D01*
X117223852Y-109710623D01*
X117176233Y-109805861D01*
X117176233Y-109996338D01*
X117223852Y-110091576D01*
X117271471Y-110139195D01*
X117366709Y-110186814D01*
X155078133Y-102095580D02*
X154744800Y-101619390D01*
X154506704Y-102095580D02*
X154506704Y-101095580D01*
X154887657Y-101095580D01*
X154982895Y-101143200D01*
X155030514Y-101190819D01*
X155078133Y-101286057D01*
X155078133Y-101428914D01*
X155030514Y-101524152D01*
X154982895Y-101571771D01*
X154887657Y-101619390D01*
X154506704Y-101619390D01*
X155411466Y-101095580D02*
X156078133Y-101095580D01*
X155649561Y-102095580D01*
X117579380Y-103087466D02*
X117103190Y-103420800D01*
X117579380Y-103658895D02*
X116579380Y-103658895D01*
X116579380Y-103277942D01*
X116627000Y-103182704D01*
X116674619Y-103135085D01*
X116769857Y-103087466D01*
X116912714Y-103087466D01*
X117007952Y-103135085D01*
X117055571Y-103182704D01*
X117103190Y-103277942D01*
X117103190Y-103658895D01*
X117007952Y-102516038D02*
X116960333Y-102611276D01*
X116912714Y-102658895D01*
X116817476Y-102706514D01*
X116769857Y-102706514D01*
X116674619Y-102658895D01*
X116627000Y-102611276D01*
X116579380Y-102516038D01*
X116579380Y-102325561D01*
X116627000Y-102230323D01*
X116674619Y-102182704D01*
X116769857Y-102135085D01*
X116817476Y-102135085D01*
X116912714Y-102182704D01*
X116960333Y-102230323D01*
X117007952Y-102325561D01*
X117007952Y-102516038D01*
X117055571Y-102611276D01*
X117103190Y-102658895D01*
X117198428Y-102706514D01*
X117388904Y-102706514D01*
X117484142Y-102658895D01*
X117531761Y-102611276D01*
X117579380Y-102516038D01*
X117579380Y-102325561D01*
X117531761Y-102230323D01*
X117484142Y-102182704D01*
X117388904Y-102135085D01*
X117198428Y-102135085D01*
X117103190Y-102182704D01*
X117055571Y-102230323D01*
X117007952Y-102325561D01*
X118554780Y-112739466D02*
X118078590Y-113072800D01*
X118554780Y-113310895D02*
X117554780Y-113310895D01*
X117554780Y-112929942D01*
X117602400Y-112834704D01*
X117650019Y-112787085D01*
X117745257Y-112739466D01*
X117888114Y-112739466D01*
X117983352Y-112787085D01*
X118030971Y-112834704D01*
X118078590Y-112929942D01*
X118078590Y-113310895D01*
X118554780Y-112263276D02*
X118554780Y-112072800D01*
X118507161Y-111977561D01*
X118459542Y-111929942D01*
X118316685Y-111834704D01*
X118126209Y-111787085D01*
X117745257Y-111787085D01*
X117650019Y-111834704D01*
X117602400Y-111882323D01*
X117554780Y-111977561D01*
X117554780Y-112168038D01*
X117602400Y-112263276D01*
X117650019Y-112310895D01*
X117745257Y-112358514D01*
X117983352Y-112358514D01*
X118078590Y-112310895D01*
X118126209Y-112263276D01*
X118173828Y-112168038D01*
X118173828Y-111977561D01*
X118126209Y-111882323D01*
X118078590Y-111834704D01*
X117983352Y-111787085D01*
X137960380Y-114384057D02*
X137484190Y-114717390D01*
X137960380Y-114955485D02*
X136960380Y-114955485D01*
X136960380Y-114574533D01*
X137008000Y-114479295D01*
X137055619Y-114431676D01*
X137150857Y-114384057D01*
X137293714Y-114384057D01*
X137388952Y-114431676D01*
X137436571Y-114479295D01*
X137484190Y-114574533D01*
X137484190Y-114955485D01*
X137960380Y-113431676D02*
X137960380Y-114003104D01*
X137960380Y-113717390D02*
X136960380Y-113717390D01*
X137103238Y-113812628D01*
X137198476Y-113907866D01*
X137246095Y-114003104D01*
X136960380Y-112812628D02*
X136960380Y-112717390D01*
X137008000Y-112622152D01*
X137055619Y-112574533D01*
X137150857Y-112526914D01*
X137341333Y-112479295D01*
X137579428Y-112479295D01*
X137769904Y-112526914D01*
X137865142Y-112574533D01*
X137912761Y-112622152D01*
X137960380Y-112717390D01*
X137960380Y-112812628D01*
X137912761Y-112907866D01*
X137865142Y-112955485D01*
X137769904Y-113003104D01*
X137579428Y-113050723D01*
X137341333Y-113050723D01*
X137150857Y-113003104D01*
X137055619Y-112955485D01*
X137008000Y-112907866D01*
X136960380Y-112812628D01*
X137406142Y-118976380D02*
X137072809Y-118500190D01*
X136834714Y-118976380D02*
X136834714Y-117976380D01*
X137215666Y-117976380D01*
X137310904Y-118024000D01*
X137358523Y-118071619D01*
X137406142Y-118166857D01*
X137406142Y-118309714D01*
X137358523Y-118404952D01*
X137310904Y-118452571D01*
X137215666Y-118500190D01*
X136834714Y-118500190D01*
X138358523Y-118976380D02*
X137787095Y-118976380D01*
X138072809Y-118976380D02*
X138072809Y-117976380D01*
X137977571Y-118119238D01*
X137882333Y-118214476D01*
X137787095Y-118262095D01*
X139310904Y-118976380D02*
X138739476Y-118976380D01*
X139025190Y-118976380D02*
X139025190Y-117976380D01*
X138929952Y-118119238D01*
X138834714Y-118214476D01*
X138739476Y-118262095D01*
X120083342Y-119928880D02*
X119750009Y-119452690D01*
X119511914Y-119928880D02*
X119511914Y-118928880D01*
X119892866Y-118928880D01*
X119988104Y-118976500D01*
X120035723Y-119024119D01*
X120083342Y-119119357D01*
X120083342Y-119262214D01*
X120035723Y-119357452D01*
X119988104Y-119405071D01*
X119892866Y-119452690D01*
X119511914Y-119452690D01*
X121035723Y-119928880D02*
X120464295Y-119928880D01*
X120750009Y-119928880D02*
X120750009Y-118928880D01*
X120654771Y-119071738D01*
X120559533Y-119166976D01*
X120464295Y-119214595D01*
X121416676Y-119024119D02*
X121464295Y-118976500D01*
X121559533Y-118928880D01*
X121797628Y-118928880D01*
X121892866Y-118976500D01*
X121940485Y-119024119D01*
X121988104Y-119119357D01*
X121988104Y-119214595D01*
X121940485Y-119357452D01*
X121369057Y-119928880D01*
X121988104Y-119928880D01*
X119803942Y-105913180D02*
X119470609Y-105436990D01*
X119232514Y-105913180D02*
X119232514Y-104913180D01*
X119613466Y-104913180D01*
X119708704Y-104960800D01*
X119756323Y-105008419D01*
X119803942Y-105103657D01*
X119803942Y-105246514D01*
X119756323Y-105341752D01*
X119708704Y-105389371D01*
X119613466Y-105436990D01*
X119232514Y-105436990D01*
X120756323Y-105913180D02*
X120184895Y-105913180D01*
X120470609Y-105913180D02*
X120470609Y-104913180D01*
X120375371Y-105056038D01*
X120280133Y-105151276D01*
X120184895Y-105198895D01*
X121089657Y-104913180D02*
X121708704Y-104913180D01*
X121375371Y-105294133D01*
X121518228Y-105294133D01*
X121613466Y-105341752D01*
X121661085Y-105389371D01*
X121708704Y-105484609D01*
X121708704Y-105722704D01*
X121661085Y-105817942D01*
X121613466Y-105865561D01*
X121518228Y-105913180D01*
X121232514Y-105913180D01*
X121137276Y-105865561D01*
X121089657Y-105817942D01*
X146128980Y-108034057D02*
X145652790Y-108367390D01*
X146128980Y-108605485D02*
X145128980Y-108605485D01*
X145128980Y-108224533D01*
X145176600Y-108129295D01*
X145224219Y-108081676D01*
X145319457Y-108034057D01*
X145462314Y-108034057D01*
X145557552Y-108081676D01*
X145605171Y-108129295D01*
X145652790Y-108224533D01*
X145652790Y-108605485D01*
X146128980Y-107081676D02*
X146128980Y-107653104D01*
X146128980Y-107367390D02*
X145128980Y-107367390D01*
X145271838Y-107462628D01*
X145367076Y-107557866D01*
X145414695Y-107653104D01*
X145462314Y-106224533D02*
X146128980Y-106224533D01*
X145081361Y-106462628D02*
X145795647Y-106700723D01*
X145795647Y-106081676D01*
X120007142Y-103162380D02*
X119673809Y-102686190D01*
X119435714Y-103162380D02*
X119435714Y-102162380D01*
X119816666Y-102162380D01*
X119911904Y-102210000D01*
X119959523Y-102257619D01*
X120007142Y-102352857D01*
X120007142Y-102495714D01*
X119959523Y-102590952D01*
X119911904Y-102638571D01*
X119816666Y-102686190D01*
X119435714Y-102686190D01*
X120959523Y-103162380D02*
X120388095Y-103162380D01*
X120673809Y-103162380D02*
X120673809Y-102162380D01*
X120578571Y-102305238D01*
X120483333Y-102400476D01*
X120388095Y-102448095D01*
X121864285Y-102162380D02*
X121388095Y-102162380D01*
X121340476Y-102638571D01*
X121388095Y-102590952D01*
X121483333Y-102543333D01*
X121721428Y-102543333D01*
X121816666Y-102590952D01*
X121864285Y-102638571D01*
X121911904Y-102733809D01*
X121911904Y-102971904D01*
X121864285Y-103067142D01*
X121816666Y-103114761D01*
X121721428Y-103162380D01*
X121483333Y-103162380D01*
X121388095Y-103114761D01*
X121340476Y-103067142D01*
X150675580Y-105544857D02*
X150199390Y-105878190D01*
X150675580Y-106116285D02*
X149675580Y-106116285D01*
X149675580Y-105735333D01*
X149723200Y-105640095D01*
X149770819Y-105592476D01*
X149866057Y-105544857D01*
X150008914Y-105544857D01*
X150104152Y-105592476D01*
X150151771Y-105640095D01*
X150199390Y-105735333D01*
X150199390Y-106116285D01*
X150675580Y-104592476D02*
X150675580Y-105163904D01*
X150675580Y-104878190D02*
X149675580Y-104878190D01*
X149818438Y-104973428D01*
X149913676Y-105068666D01*
X149961295Y-105163904D01*
X149675580Y-103735333D02*
X149675580Y-103925809D01*
X149723200Y-104021047D01*
X149770819Y-104068666D01*
X149913676Y-104163904D01*
X150104152Y-104211523D01*
X150485104Y-104211523D01*
X150580342Y-104163904D01*
X150627961Y-104116285D01*
X150675580Y-104021047D01*
X150675580Y-103830571D01*
X150627961Y-103735333D01*
X150580342Y-103687714D01*
X150485104Y-103640095D01*
X150247009Y-103640095D01*
X150151771Y-103687714D01*
X150104152Y-103735333D01*
X150056533Y-103830571D01*
X150056533Y-104021047D01*
X150104152Y-104116285D01*
X150151771Y-104163904D01*
X150247009Y-104211523D01*
X130152380Y-102877857D02*
X129676190Y-103211190D01*
X130152380Y-103449285D02*
X129152380Y-103449285D01*
X129152380Y-103068333D01*
X129200000Y-102973095D01*
X129247619Y-102925476D01*
X129342857Y-102877857D01*
X129485714Y-102877857D01*
X129580952Y-102925476D01*
X129628571Y-102973095D01*
X129676190Y-103068333D01*
X129676190Y-103449285D01*
X130152380Y-101925476D02*
X130152380Y-102496904D01*
X130152380Y-102211190D02*
X129152380Y-102211190D01*
X129295238Y-102306428D01*
X129390476Y-102401666D01*
X129438095Y-102496904D01*
X129152380Y-101592142D02*
X129152380Y-100925476D01*
X130152380Y-101354047D01*
X142663942Y-100993180D02*
X142330609Y-100516990D01*
X142092514Y-100993180D02*
X142092514Y-99993180D01*
X142473466Y-99993180D01*
X142568704Y-100040800D01*
X142616323Y-100088419D01*
X142663942Y-100183657D01*
X142663942Y-100326514D01*
X142616323Y-100421752D01*
X142568704Y-100469371D01*
X142473466Y-100516990D01*
X142092514Y-100516990D01*
X143616323Y-100993180D02*
X143044895Y-100993180D01*
X143330609Y-100993180D02*
X143330609Y-99993180D01*
X143235371Y-100136038D01*
X143140133Y-100231276D01*
X143044895Y-100278895D01*
X144187752Y-100421752D02*
X144092514Y-100374133D01*
X144044895Y-100326514D01*
X143997276Y-100231276D01*
X143997276Y-100183657D01*
X144044895Y-100088419D01*
X144092514Y-100040800D01*
X144187752Y-99993180D01*
X144378228Y-99993180D01*
X144473466Y-100040800D01*
X144521085Y-100088419D01*
X144568704Y-100183657D01*
X144568704Y-100231276D01*
X144521085Y-100326514D01*
X144473466Y-100374133D01*
X144378228Y-100421752D01*
X144187752Y-100421752D01*
X144092514Y-100469371D01*
X144044895Y-100516990D01*
X143997276Y-100612228D01*
X143997276Y-100802704D01*
X144044895Y-100897942D01*
X144092514Y-100945561D01*
X144187752Y-100993180D01*
X144378228Y-100993180D01*
X144473466Y-100945561D01*
X144521085Y-100897942D01*
X144568704Y-100802704D01*
X144568704Y-100612228D01*
X144521085Y-100516990D01*
X144473466Y-100469371D01*
X144378228Y-100421752D01*
X120007142Y-98082380D02*
X119673809Y-97606190D01*
X119435714Y-98082380D02*
X119435714Y-97082380D01*
X119816666Y-97082380D01*
X119911904Y-97130000D01*
X119959523Y-97177619D01*
X120007142Y-97272857D01*
X120007142Y-97415714D01*
X119959523Y-97510952D01*
X119911904Y-97558571D01*
X119816666Y-97606190D01*
X119435714Y-97606190D01*
X120959523Y-98082380D02*
X120388095Y-98082380D01*
X120673809Y-98082380D02*
X120673809Y-97082380D01*
X120578571Y-97225238D01*
X120483333Y-97320476D01*
X120388095Y-97368095D01*
X121435714Y-98082380D02*
X121626190Y-98082380D01*
X121721428Y-98034761D01*
X121769047Y-97987142D01*
X121864285Y-97844285D01*
X121911904Y-97653809D01*
X121911904Y-97272857D01*
X121864285Y-97177619D01*
X121816666Y-97130000D01*
X121721428Y-97082380D01*
X121530952Y-97082380D01*
X121435714Y-97130000D01*
X121388095Y-97177619D01*
X121340476Y-97272857D01*
X121340476Y-97510952D01*
X121388095Y-97606190D01*
X121435714Y-97653809D01*
X121530952Y-97701428D01*
X121721428Y-97701428D01*
X121816666Y-97653809D01*
X121864285Y-97606190D01*
X121911904Y-97510952D01*
X141328380Y-100972857D02*
X140852190Y-101306190D01*
X141328380Y-101544285D02*
X140328380Y-101544285D01*
X140328380Y-101163333D01*
X140376000Y-101068095D01*
X140423619Y-101020476D01*
X140518857Y-100972857D01*
X140661714Y-100972857D01*
X140756952Y-101020476D01*
X140804571Y-101068095D01*
X140852190Y-101163333D01*
X140852190Y-101544285D01*
X140423619Y-100591904D02*
X140376000Y-100544285D01*
X140328380Y-100449047D01*
X140328380Y-100210952D01*
X140376000Y-100115714D01*
X140423619Y-100068095D01*
X140518857Y-100020476D01*
X140614095Y-100020476D01*
X140756952Y-100068095D01*
X141328380Y-100639523D01*
X141328380Y-100020476D01*
X140328380Y-99401428D02*
X140328380Y-99306190D01*
X140376000Y-99210952D01*
X140423619Y-99163333D01*
X140518857Y-99115714D01*
X140709333Y-99068095D01*
X140947428Y-99068095D01*
X141137904Y-99115714D01*
X141233142Y-99163333D01*
X141280761Y-99210952D01*
X141328380Y-99306190D01*
X141328380Y-99401428D01*
X141280761Y-99496666D01*
X141233142Y-99544285D01*
X141137904Y-99591904D01*
X140947428Y-99639523D01*
X140709333Y-99639523D01*
X140518857Y-99591904D01*
X140423619Y-99544285D01*
X140376000Y-99496666D01*
X140328380Y-99401428D01*
X125047742Y-123472180D02*
X124714409Y-122995990D01*
X124476314Y-123472180D02*
X124476314Y-122472180D01*
X124857266Y-122472180D01*
X124952504Y-122519800D01*
X125000123Y-122567419D01*
X125047742Y-122662657D01*
X125047742Y-122805514D01*
X125000123Y-122900752D01*
X124952504Y-122948371D01*
X124857266Y-122995990D01*
X124476314Y-122995990D01*
X125428695Y-122567419D02*
X125476314Y-122519800D01*
X125571552Y-122472180D01*
X125809647Y-122472180D01*
X125904885Y-122519800D01*
X125952504Y-122567419D01*
X126000123Y-122662657D01*
X126000123Y-122757895D01*
X125952504Y-122900752D01*
X125381076Y-123472180D01*
X126000123Y-123472180D01*
X126952504Y-123472180D02*
X126381076Y-123472180D01*
X126666790Y-123472180D02*
X126666790Y-122472180D01*
X126571552Y-122615038D01*
X126476314Y-122710276D01*
X126381076Y-122757895D01*
X142562342Y-120586780D02*
X142229009Y-120110590D01*
X141990914Y-120586780D02*
X141990914Y-119586780D01*
X142371866Y-119586780D01*
X142467104Y-119634400D01*
X142514723Y-119682019D01*
X142562342Y-119777257D01*
X142562342Y-119920114D01*
X142514723Y-120015352D01*
X142467104Y-120062971D01*
X142371866Y-120110590D01*
X141990914Y-120110590D01*
X142943295Y-119682019D02*
X142990914Y-119634400D01*
X143086152Y-119586780D01*
X143324247Y-119586780D01*
X143419485Y-119634400D01*
X143467104Y-119682019D01*
X143514723Y-119777257D01*
X143514723Y-119872495D01*
X143467104Y-120015352D01*
X142895676Y-120586780D01*
X143514723Y-120586780D01*
X143895676Y-119682019D02*
X143943295Y-119634400D01*
X144038533Y-119586780D01*
X144276628Y-119586780D01*
X144371866Y-119634400D01*
X144419485Y-119682019D01*
X144467104Y-119777257D01*
X144467104Y-119872495D01*
X144419485Y-120015352D01*
X143848057Y-120586780D01*
X144467104Y-120586780D01*
X133858095Y-104002380D02*
X133858095Y-104811904D01*
X133905714Y-104907142D01*
X133953333Y-104954761D01*
X134048571Y-105002380D01*
X134239047Y-105002380D01*
X134334285Y-104954761D01*
X134381904Y-104907142D01*
X134429523Y-104811904D01*
X134429523Y-104002380D01*
X135429523Y-105002380D02*
X134858095Y-105002380D01*
X135143809Y-105002380D02*
X135143809Y-104002380D01*
X135048571Y-104145238D01*
X134953333Y-104240476D01*
X134858095Y-104288095D01*
M02*
