G04 #@! TF.GenerationSoftware,KiCad,Pcbnew,(5.1.2)-2*
G04 #@! TF.CreationDate,2019-07-11T16:04:03+08:00*
G04 #@! TF.ProjectId,General Purpose Op Amp Eval-Board,47656e65-7261-46c2-9050-7572706f7365,rev?*
G04 #@! TF.SameCoordinates,Original*
G04 #@! TF.FileFunction,Soldermask,Top*
G04 #@! TF.FilePolarity,Negative*
%FSLAX46Y46*%
G04 Gerber Fmt 4.6, Leading zero omitted, Abs format (unit mm)*
G04 Created by KiCad (PCBNEW (5.1.2)-2) date 2019-07-11 16:04:03*
%MOMM*%
%LPD*%
G04 APERTURE LIST*
%ADD10C,0.100000*%
G04 APERTURE END LIST*
D10*
G36*
X101299421Y-120649040D02*
G01*
X101809169Y-120860185D01*
X101809171Y-120860186D01*
X102267934Y-121166721D01*
X102658079Y-121556866D01*
X102953446Y-121998915D01*
X102964615Y-122015631D01*
X103175760Y-122525379D01*
X103283400Y-123066524D01*
X103283400Y-123618276D01*
X103175760Y-124159421D01*
X102964615Y-124669169D01*
X102964614Y-124669171D01*
X102658079Y-125127934D01*
X102267934Y-125518079D01*
X101809171Y-125824614D01*
X101809170Y-125824615D01*
X101809169Y-125824615D01*
X101299421Y-126035760D01*
X100758276Y-126143400D01*
X100206524Y-126143400D01*
X99665379Y-126035760D01*
X99155631Y-125824615D01*
X99155630Y-125824615D01*
X99155629Y-125824614D01*
X98696866Y-125518079D01*
X98306721Y-125127934D01*
X98000186Y-124669171D01*
X98000185Y-124669169D01*
X97789040Y-124159421D01*
X97681400Y-123618276D01*
X97681400Y-123066524D01*
X97789040Y-122525379D01*
X98000185Y-122015631D01*
X98011354Y-121998915D01*
X98306721Y-121556866D01*
X98696866Y-121166721D01*
X99155629Y-120860186D01*
X99155631Y-120860185D01*
X99665379Y-120649040D01*
X100206524Y-120541400D01*
X100758276Y-120541400D01*
X101299421Y-120649040D01*
X101299421Y-120649040D01*
G37*
G36*
X167390221Y-120547440D02*
G01*
X167899969Y-120758585D01*
X167899971Y-120758586D01*
X168358734Y-121065121D01*
X168748879Y-121455266D01*
X169052162Y-121909162D01*
X169055415Y-121914031D01*
X169266560Y-122423779D01*
X169374200Y-122964924D01*
X169374200Y-123516676D01*
X169266560Y-124057821D01*
X169055415Y-124567569D01*
X169055414Y-124567571D01*
X168748879Y-125026334D01*
X168358734Y-125416479D01*
X167899971Y-125723014D01*
X167899970Y-125723015D01*
X167899969Y-125723015D01*
X167390221Y-125934160D01*
X166849076Y-126041800D01*
X166297324Y-126041800D01*
X165756179Y-125934160D01*
X165246431Y-125723015D01*
X165246430Y-125723015D01*
X165246429Y-125723014D01*
X164787666Y-125416479D01*
X164397521Y-125026334D01*
X164090986Y-124567571D01*
X164090985Y-124567569D01*
X163879840Y-124057821D01*
X163772200Y-123516676D01*
X163772200Y-122964924D01*
X163879840Y-122423779D01*
X164090985Y-121914031D01*
X164094238Y-121909162D01*
X164397521Y-121455266D01*
X164787666Y-121065121D01*
X165246429Y-120758586D01*
X165246431Y-120758585D01*
X165756179Y-120547440D01*
X166297324Y-120439800D01*
X166849076Y-120439800D01*
X167390221Y-120547440D01*
X167390221Y-120547440D01*
G37*
G36*
X125362599Y-124142337D02*
G01*
X125372208Y-124145252D01*
X125381072Y-124149990D01*
X125388812Y-124156342D01*
X125388813Y-124156343D01*
X125388837Y-124156363D01*
X125395240Y-124164173D01*
X125395277Y-124164228D01*
X125403080Y-124173747D01*
X125403111Y-124173722D01*
X125414453Y-124187572D01*
X125433379Y-124203137D01*
X125454977Y-124214711D01*
X125478419Y-124221849D01*
X125502802Y-124224276D01*
X125527191Y-124221900D01*
X125550647Y-124214811D01*
X125572270Y-124203282D01*
X125591228Y-124187757D01*
X125606793Y-124168831D01*
X125608629Y-124165775D01*
X125610018Y-124164086D01*
X125610019Y-124164084D01*
X125616401Y-124156325D01*
X125624173Y-124149960D01*
X125624175Y-124149958D01*
X125632999Y-124145254D01*
X125633038Y-124145233D01*
X125642655Y-124142327D01*
X125642685Y-124142318D01*
X125658713Y-124140748D01*
X126796460Y-124140748D01*
X126812599Y-124142337D01*
X126822208Y-124145252D01*
X126831072Y-124149990D01*
X126838837Y-124156363D01*
X126845210Y-124164128D01*
X126849948Y-124172992D01*
X126852863Y-124182601D01*
X126854452Y-124198740D01*
X126854452Y-125686460D01*
X126852863Y-125702599D01*
X126849948Y-125712208D01*
X126845210Y-125721072D01*
X126838837Y-125728837D01*
X126831072Y-125735210D01*
X126822208Y-125739948D01*
X126812599Y-125742863D01*
X126796460Y-125744452D01*
X125658740Y-125744452D01*
X125642601Y-125742863D01*
X125632992Y-125739948D01*
X125624128Y-125735210D01*
X125616363Y-125728837D01*
X125605716Y-125715863D01*
X125599547Y-125706632D01*
X125582219Y-125689306D01*
X125561844Y-125675693D01*
X125539205Y-125666317D01*
X125515172Y-125661537D01*
X125490668Y-125661538D01*
X125466635Y-125666320D01*
X125443996Y-125675698D01*
X125423622Y-125689313D01*
X125406296Y-125706641D01*
X125399425Y-125715917D01*
X125395240Y-125721027D01*
X125388875Y-125728799D01*
X125381116Y-125735181D01*
X125372261Y-125739926D01*
X125369223Y-125740851D01*
X125362685Y-125742842D01*
X125362682Y-125742842D01*
X125362650Y-125742852D01*
X125352600Y-125743847D01*
X125352535Y-125743847D01*
X125346425Y-125744452D01*
X124358740Y-125744452D01*
X124342601Y-125742863D01*
X124332992Y-125739948D01*
X124324128Y-125735210D01*
X124316363Y-125728837D01*
X124309990Y-125721072D01*
X124305252Y-125712208D01*
X124302337Y-125702599D01*
X124300748Y-125686460D01*
X124300748Y-124198740D01*
X124302337Y-124182601D01*
X124305252Y-124172992D01*
X124309990Y-124164128D01*
X124316363Y-124156363D01*
X124324128Y-124149990D01*
X124332992Y-124145252D01*
X124342601Y-124142337D01*
X124358740Y-124140748D01*
X125346460Y-124140748D01*
X125362599Y-124142337D01*
X125362599Y-124142337D01*
G37*
G36*
X142939399Y-123812137D02*
G01*
X142949008Y-123815052D01*
X142957872Y-123819790D01*
X142965612Y-123826142D01*
X142965613Y-123826143D01*
X142965637Y-123826163D01*
X142972040Y-123833973D01*
X142972077Y-123834028D01*
X142979880Y-123843547D01*
X142979911Y-123843522D01*
X142991253Y-123857372D01*
X143010179Y-123872937D01*
X143031777Y-123884511D01*
X143055219Y-123891649D01*
X143079602Y-123894076D01*
X143103991Y-123891700D01*
X143127447Y-123884611D01*
X143149070Y-123873082D01*
X143168028Y-123857557D01*
X143183593Y-123838631D01*
X143185429Y-123835575D01*
X143186818Y-123833886D01*
X143186819Y-123833884D01*
X143193201Y-123826125D01*
X143200973Y-123819760D01*
X143200975Y-123819758D01*
X143209799Y-123815054D01*
X143209838Y-123815033D01*
X143219455Y-123812127D01*
X143219485Y-123812118D01*
X143235513Y-123810548D01*
X144373260Y-123810548D01*
X144389399Y-123812137D01*
X144399008Y-123815052D01*
X144407872Y-123819790D01*
X144415637Y-123826163D01*
X144422010Y-123833928D01*
X144426748Y-123842792D01*
X144429663Y-123852401D01*
X144431252Y-123868540D01*
X144431252Y-125356260D01*
X144429663Y-125372399D01*
X144426748Y-125382008D01*
X144422010Y-125390872D01*
X144415637Y-125398637D01*
X144407872Y-125405010D01*
X144399008Y-125409748D01*
X144389399Y-125412663D01*
X144373260Y-125414252D01*
X143235540Y-125414252D01*
X143219401Y-125412663D01*
X143209792Y-125409748D01*
X143200928Y-125405010D01*
X143193163Y-125398637D01*
X143182516Y-125385663D01*
X143176347Y-125376432D01*
X143159019Y-125359106D01*
X143138644Y-125345493D01*
X143116005Y-125336117D01*
X143091972Y-125331337D01*
X143067468Y-125331338D01*
X143043435Y-125336120D01*
X143020796Y-125345498D01*
X143000422Y-125359113D01*
X142983096Y-125376441D01*
X142976225Y-125385717D01*
X142972040Y-125390827D01*
X142965675Y-125398599D01*
X142957916Y-125404981D01*
X142949061Y-125409726D01*
X142946023Y-125410651D01*
X142939485Y-125412642D01*
X142939482Y-125412642D01*
X142939450Y-125412652D01*
X142929400Y-125413647D01*
X142929335Y-125413647D01*
X142923225Y-125414252D01*
X141935540Y-125414252D01*
X141919401Y-125412663D01*
X141909792Y-125409748D01*
X141900928Y-125405010D01*
X141893163Y-125398637D01*
X141886790Y-125390872D01*
X141882052Y-125382008D01*
X141879137Y-125372399D01*
X141877548Y-125356260D01*
X141877548Y-123868540D01*
X141879137Y-123852401D01*
X141882052Y-123842792D01*
X141886790Y-123833928D01*
X141893163Y-123826163D01*
X141900928Y-123819790D01*
X141909792Y-123815052D01*
X141919401Y-123812137D01*
X141935540Y-123810548D01*
X142923260Y-123810548D01*
X142939399Y-123812137D01*
X142939399Y-123812137D01*
G37*
G36*
X133867626Y-121669037D02*
G01*
X134037465Y-121720557D01*
X134037467Y-121720558D01*
X134193989Y-121804221D01*
X134331186Y-121916814D01*
X134400237Y-122000954D01*
X134443778Y-122054009D01*
X134527443Y-122210534D01*
X134578963Y-122380373D01*
X134592000Y-122512742D01*
X134592000Y-122851257D01*
X134578963Y-122983626D01*
X134527443Y-123153466D01*
X134443778Y-123309991D01*
X134414448Y-123345729D01*
X134331186Y-123447186D01*
X134246513Y-123516674D01*
X134193991Y-123559778D01*
X134037466Y-123643443D01*
X133867627Y-123694963D01*
X133691000Y-123712359D01*
X133514374Y-123694963D01*
X133344535Y-123643443D01*
X133188010Y-123559778D01*
X133050815Y-123447185D01*
X132938222Y-123309991D01*
X132854557Y-123153466D01*
X132803037Y-122983627D01*
X132790000Y-122851258D01*
X132790000Y-122512743D01*
X132803037Y-122380374D01*
X132854557Y-122210535D01*
X132927227Y-122074580D01*
X132938221Y-122054011D01*
X133050814Y-121916814D01*
X133159767Y-121827400D01*
X133188009Y-121804222D01*
X133344534Y-121720557D01*
X133514373Y-121669037D01*
X133691000Y-121651641D01*
X133867626Y-121669037D01*
X133867626Y-121669037D01*
G37*
G36*
X136367626Y-121669037D02*
G01*
X136537465Y-121720557D01*
X136537467Y-121720558D01*
X136693989Y-121804221D01*
X136831186Y-121916814D01*
X136900237Y-122000954D01*
X136943778Y-122054009D01*
X137027443Y-122210534D01*
X137078963Y-122380373D01*
X137092000Y-122512742D01*
X137092000Y-122851257D01*
X137078963Y-122983626D01*
X137027443Y-123153466D01*
X136943778Y-123309991D01*
X136914448Y-123345729D01*
X136831186Y-123447186D01*
X136746513Y-123516674D01*
X136693991Y-123559778D01*
X136537466Y-123643443D01*
X136367627Y-123694963D01*
X136191000Y-123712359D01*
X136014374Y-123694963D01*
X135844535Y-123643443D01*
X135688010Y-123559778D01*
X135550815Y-123447185D01*
X135438222Y-123309991D01*
X135354557Y-123153466D01*
X135303037Y-122983627D01*
X135290000Y-122851258D01*
X135290000Y-122512743D01*
X135303037Y-122380374D01*
X135354557Y-122210535D01*
X135427227Y-122074580D01*
X135438221Y-122054011D01*
X135550814Y-121916814D01*
X135659767Y-121827400D01*
X135688009Y-121804222D01*
X135844534Y-121720557D01*
X136014373Y-121669037D01*
X136191000Y-121651641D01*
X136367626Y-121669037D01*
X136367626Y-121669037D01*
G37*
G36*
X131949600Y-121659989D02*
G01*
X131982652Y-121670015D01*
X132013103Y-121686292D01*
X132039799Y-121708201D01*
X132061708Y-121734897D01*
X132077985Y-121765348D01*
X132088011Y-121798400D01*
X132092000Y-121838903D01*
X132092000Y-123525097D01*
X132088011Y-123565600D01*
X132077985Y-123598652D01*
X132061708Y-123629103D01*
X132039799Y-123655799D01*
X132013103Y-123677708D01*
X131982652Y-123693985D01*
X131949600Y-123704011D01*
X131909097Y-123708000D01*
X130472903Y-123708000D01*
X130432400Y-123704011D01*
X130399348Y-123693985D01*
X130368897Y-123677708D01*
X130342201Y-123655799D01*
X130320292Y-123629103D01*
X130304015Y-123598652D01*
X130293989Y-123565600D01*
X130290000Y-123525097D01*
X130290000Y-121838903D01*
X130293989Y-121798400D01*
X130304015Y-121765348D01*
X130320292Y-121734897D01*
X130342201Y-121708201D01*
X130368897Y-121686292D01*
X130399348Y-121670015D01*
X130432400Y-121659989D01*
X130472903Y-121656000D01*
X131909097Y-121656000D01*
X131949600Y-121659989D01*
X131949600Y-121659989D01*
G37*
G36*
X125230099Y-121068245D02*
G01*
X125267595Y-121079620D01*
X125302154Y-121098092D01*
X125332447Y-121122953D01*
X125357308Y-121153246D01*
X125375780Y-121187805D01*
X125387155Y-121225301D01*
X125391600Y-121270438D01*
X125391600Y-121909162D01*
X125387155Y-121954299D01*
X125375780Y-121991795D01*
X125357308Y-122026354D01*
X125332447Y-122056647D01*
X125302154Y-122081508D01*
X125267595Y-122099980D01*
X125230099Y-122111355D01*
X125184962Y-122115800D01*
X124446238Y-122115800D01*
X124401101Y-122111355D01*
X124363605Y-122099980D01*
X124329046Y-122081508D01*
X124298753Y-122056647D01*
X124273892Y-122026354D01*
X124255420Y-121991795D01*
X124244045Y-121954299D01*
X124239600Y-121909162D01*
X124239600Y-121270438D01*
X124244045Y-121225301D01*
X124255420Y-121187805D01*
X124273892Y-121153246D01*
X124298753Y-121122953D01*
X124329046Y-121098092D01*
X124363605Y-121079620D01*
X124401101Y-121068245D01*
X124446238Y-121063800D01*
X125184962Y-121063800D01*
X125230099Y-121068245D01*
X125230099Y-121068245D01*
G37*
G36*
X126980099Y-121068245D02*
G01*
X127017595Y-121079620D01*
X127052154Y-121098092D01*
X127082447Y-121122953D01*
X127107308Y-121153246D01*
X127125780Y-121187805D01*
X127137155Y-121225301D01*
X127141600Y-121270438D01*
X127141600Y-121909162D01*
X127137155Y-121954299D01*
X127125780Y-121991795D01*
X127107308Y-122026354D01*
X127082447Y-122056647D01*
X127052154Y-122081508D01*
X127017595Y-122099980D01*
X126980099Y-122111355D01*
X126934962Y-122115800D01*
X126196238Y-122115800D01*
X126151101Y-122111355D01*
X126113605Y-122099980D01*
X126079046Y-122081508D01*
X126048753Y-122056647D01*
X126023892Y-122026354D01*
X126005420Y-121991795D01*
X125994045Y-121954299D01*
X125989600Y-121909162D01*
X125989600Y-121270438D01*
X125994045Y-121225301D01*
X126005420Y-121187805D01*
X126023892Y-121153246D01*
X126048753Y-121122953D01*
X126079046Y-121098092D01*
X126113605Y-121079620D01*
X126151101Y-121068245D01*
X126196238Y-121063800D01*
X126934962Y-121063800D01*
X126980099Y-121068245D01*
X126980099Y-121068245D01*
G37*
G36*
X144494699Y-121042845D02*
G01*
X144532195Y-121054220D01*
X144566754Y-121072692D01*
X144597047Y-121097553D01*
X144621908Y-121127846D01*
X144640380Y-121162405D01*
X144651755Y-121199901D01*
X144656200Y-121245038D01*
X144656200Y-121883762D01*
X144651755Y-121928899D01*
X144640380Y-121966395D01*
X144621908Y-122000954D01*
X144597047Y-122031247D01*
X144566754Y-122056108D01*
X144532195Y-122074580D01*
X144494699Y-122085955D01*
X144449562Y-122090400D01*
X143710838Y-122090400D01*
X143665701Y-122085955D01*
X143628205Y-122074580D01*
X143593646Y-122056108D01*
X143563353Y-122031247D01*
X143538492Y-122000954D01*
X143520020Y-121966395D01*
X143508645Y-121928899D01*
X143504200Y-121883762D01*
X143504200Y-121245038D01*
X143508645Y-121199901D01*
X143520020Y-121162405D01*
X143538492Y-121127846D01*
X143563353Y-121097553D01*
X143593646Y-121072692D01*
X143628205Y-121054220D01*
X143665701Y-121042845D01*
X143710838Y-121038400D01*
X144449562Y-121038400D01*
X144494699Y-121042845D01*
X144494699Y-121042845D01*
G37*
G36*
X142744699Y-121042845D02*
G01*
X142782195Y-121054220D01*
X142816754Y-121072692D01*
X142847047Y-121097553D01*
X142871908Y-121127846D01*
X142890380Y-121162405D01*
X142901755Y-121199901D01*
X142906200Y-121245038D01*
X142906200Y-121883762D01*
X142901755Y-121928899D01*
X142890380Y-121966395D01*
X142871908Y-122000954D01*
X142847047Y-122031247D01*
X142816754Y-122056108D01*
X142782195Y-122074580D01*
X142744699Y-122085955D01*
X142699562Y-122090400D01*
X141960838Y-122090400D01*
X141915701Y-122085955D01*
X141878205Y-122074580D01*
X141843646Y-122056108D01*
X141813353Y-122031247D01*
X141788492Y-122000954D01*
X141770020Y-121966395D01*
X141758645Y-121928899D01*
X141754200Y-121883762D01*
X141754200Y-121245038D01*
X141758645Y-121199901D01*
X141770020Y-121162405D01*
X141788492Y-121127846D01*
X141813353Y-121097553D01*
X141843646Y-121072692D01*
X141878205Y-121054220D01*
X141915701Y-121042845D01*
X141960838Y-121038400D01*
X142699562Y-121038400D01*
X142744699Y-121042845D01*
X142744699Y-121042845D01*
G37*
G36*
X159752443Y-119277892D02*
G01*
X159803188Y-119298911D01*
X159839070Y-119313774D01*
X159917032Y-119365867D01*
X159983333Y-119432168D01*
X160035426Y-119510130D01*
X160035426Y-119510131D01*
X160071308Y-119596757D01*
X160089600Y-119688717D01*
X160089600Y-119782483D01*
X160071308Y-119874443D01*
X160050289Y-119925188D01*
X160035426Y-119961070D01*
X159983333Y-120039032D01*
X159917032Y-120105333D01*
X159839070Y-120157426D01*
X159803188Y-120172289D01*
X159752443Y-120193308D01*
X159660483Y-120211600D01*
X159566717Y-120211600D01*
X159474757Y-120193308D01*
X159424012Y-120172289D01*
X159388130Y-120157426D01*
X159310168Y-120105333D01*
X159243867Y-120039032D01*
X159191774Y-119961070D01*
X159176911Y-119925188D01*
X159155892Y-119874443D01*
X159137600Y-119782483D01*
X159137600Y-119688717D01*
X159155892Y-119596757D01*
X159191774Y-119510131D01*
X159191774Y-119510130D01*
X159243867Y-119432168D01*
X159310168Y-119365867D01*
X159388130Y-119313774D01*
X159424012Y-119298911D01*
X159474757Y-119277892D01*
X159566717Y-119259600D01*
X159660483Y-119259600D01*
X159752443Y-119277892D01*
X159752443Y-119277892D01*
G37*
G36*
X108800043Y-118261892D02*
G01*
X108850788Y-118282911D01*
X108886670Y-118297774D01*
X108964632Y-118349867D01*
X109030933Y-118416168D01*
X109083026Y-118494130D01*
X109090986Y-118513347D01*
X109118908Y-118580757D01*
X109137200Y-118672717D01*
X109137200Y-118766483D01*
X109118908Y-118858443D01*
X109097889Y-118909188D01*
X109083026Y-118945070D01*
X109030933Y-119023032D01*
X108964632Y-119089333D01*
X108886670Y-119141426D01*
X108850788Y-119156289D01*
X108800043Y-119177308D01*
X108708083Y-119195600D01*
X108614317Y-119195600D01*
X108522357Y-119177308D01*
X108471612Y-119156289D01*
X108435730Y-119141426D01*
X108357768Y-119089333D01*
X108291467Y-119023032D01*
X108239374Y-118945070D01*
X108224511Y-118909188D01*
X108203492Y-118858443D01*
X108185200Y-118766483D01*
X108185200Y-118672717D01*
X108203492Y-118580757D01*
X108231414Y-118513347D01*
X108239374Y-118494130D01*
X108291467Y-118416168D01*
X108357768Y-118349867D01*
X108435730Y-118297774D01*
X108471612Y-118282911D01*
X108522357Y-118261892D01*
X108614317Y-118243600D01*
X108708083Y-118243600D01*
X108800043Y-118261892D01*
X108800043Y-118261892D01*
G37*
G36*
X142985499Y-117651445D02*
G01*
X143022995Y-117662820D01*
X143057554Y-117681292D01*
X143087847Y-117706153D01*
X143112708Y-117736446D01*
X143131180Y-117771005D01*
X143142555Y-117808501D01*
X143147000Y-117853638D01*
X143147000Y-118592362D01*
X143142555Y-118637499D01*
X143131180Y-118674995D01*
X143112708Y-118709554D01*
X143087847Y-118739847D01*
X143057554Y-118764708D01*
X143022995Y-118783180D01*
X142985499Y-118794555D01*
X142940362Y-118799000D01*
X142301638Y-118799000D01*
X142256501Y-118794555D01*
X142219005Y-118783180D01*
X142184446Y-118764708D01*
X142154153Y-118739847D01*
X142129292Y-118709554D01*
X142110820Y-118674995D01*
X142099445Y-118637499D01*
X142095000Y-118592362D01*
X142095000Y-117853638D01*
X142099445Y-117808501D01*
X142110820Y-117771005D01*
X142129292Y-117736446D01*
X142154153Y-117706153D01*
X142184446Y-117681292D01*
X142219005Y-117662820D01*
X142256501Y-117651445D01*
X142301638Y-117647000D01*
X142940362Y-117647000D01*
X142985499Y-117651445D01*
X142985499Y-117651445D01*
G37*
G36*
X122015699Y-117524945D02*
G01*
X122053195Y-117536320D01*
X122087754Y-117554792D01*
X122118047Y-117579653D01*
X122142908Y-117609946D01*
X122161380Y-117644505D01*
X122172755Y-117682001D01*
X122177200Y-117727138D01*
X122177200Y-118365862D01*
X122172755Y-118410999D01*
X122161380Y-118448495D01*
X122142908Y-118483054D01*
X122118047Y-118513347D01*
X122087754Y-118538208D01*
X122053195Y-118556680D01*
X122015699Y-118568055D01*
X121970562Y-118572500D01*
X121231838Y-118572500D01*
X121186701Y-118568055D01*
X121149205Y-118556680D01*
X121114646Y-118538208D01*
X121084353Y-118513347D01*
X121059492Y-118483054D01*
X121041020Y-118448495D01*
X121029645Y-118410999D01*
X121025200Y-118365862D01*
X121025200Y-117727138D01*
X121029645Y-117682001D01*
X121041020Y-117644505D01*
X121059492Y-117609946D01*
X121084353Y-117579653D01*
X121114646Y-117554792D01*
X121149205Y-117536320D01*
X121186701Y-117524945D01*
X121231838Y-117520500D01*
X121970562Y-117520500D01*
X122015699Y-117524945D01*
X122015699Y-117524945D01*
G37*
G36*
X120265699Y-117524945D02*
G01*
X120303195Y-117536320D01*
X120337754Y-117554792D01*
X120368047Y-117579653D01*
X120392908Y-117609946D01*
X120411380Y-117644505D01*
X120422755Y-117682001D01*
X120427200Y-117727138D01*
X120427200Y-118365862D01*
X120422755Y-118410999D01*
X120411380Y-118448495D01*
X120392908Y-118483054D01*
X120368047Y-118513347D01*
X120337754Y-118538208D01*
X120303195Y-118556680D01*
X120265699Y-118568055D01*
X120220562Y-118572500D01*
X119481838Y-118572500D01*
X119436701Y-118568055D01*
X119399205Y-118556680D01*
X119364646Y-118538208D01*
X119334353Y-118513347D01*
X119309492Y-118483054D01*
X119291020Y-118448495D01*
X119279645Y-118410999D01*
X119275200Y-118365862D01*
X119275200Y-117727138D01*
X119279645Y-117682001D01*
X119291020Y-117644505D01*
X119309492Y-117609946D01*
X119334353Y-117579653D01*
X119364646Y-117554792D01*
X119399205Y-117536320D01*
X119436701Y-117524945D01*
X119481838Y-117520500D01*
X120220562Y-117520500D01*
X120265699Y-117524945D01*
X120265699Y-117524945D01*
G37*
G36*
X127019499Y-117436045D02*
G01*
X127056995Y-117447420D01*
X127091554Y-117465892D01*
X127121847Y-117490753D01*
X127146708Y-117521046D01*
X127165180Y-117555605D01*
X127176555Y-117593101D01*
X127181000Y-117638238D01*
X127181000Y-118276962D01*
X127176555Y-118322099D01*
X127165180Y-118359595D01*
X127146708Y-118394154D01*
X127121847Y-118424447D01*
X127091554Y-118449308D01*
X127056995Y-118467780D01*
X127019499Y-118479155D01*
X126974362Y-118483600D01*
X126235638Y-118483600D01*
X126190501Y-118479155D01*
X126153005Y-118467780D01*
X126118446Y-118449308D01*
X126088153Y-118424447D01*
X126063292Y-118394154D01*
X126044820Y-118359595D01*
X126033445Y-118322099D01*
X126029000Y-118276962D01*
X126029000Y-117638238D01*
X126033445Y-117593101D01*
X126044820Y-117555605D01*
X126063292Y-117521046D01*
X126088153Y-117490753D01*
X126118446Y-117465892D01*
X126153005Y-117447420D01*
X126190501Y-117436045D01*
X126235638Y-117431600D01*
X126974362Y-117431600D01*
X127019499Y-117436045D01*
X127019499Y-117436045D01*
G37*
G36*
X125269499Y-117436045D02*
G01*
X125306995Y-117447420D01*
X125341554Y-117465892D01*
X125371847Y-117490753D01*
X125396708Y-117521046D01*
X125415180Y-117555605D01*
X125426555Y-117593101D01*
X125431000Y-117638238D01*
X125431000Y-118276962D01*
X125426555Y-118322099D01*
X125415180Y-118359595D01*
X125396708Y-118394154D01*
X125371847Y-118424447D01*
X125341554Y-118449308D01*
X125306995Y-118467780D01*
X125269499Y-118479155D01*
X125224362Y-118483600D01*
X124485638Y-118483600D01*
X124440501Y-118479155D01*
X124403005Y-118467780D01*
X124368446Y-118449308D01*
X124338153Y-118424447D01*
X124313292Y-118394154D01*
X124294820Y-118359595D01*
X124283445Y-118322099D01*
X124279000Y-118276962D01*
X124279000Y-117638238D01*
X124283445Y-117593101D01*
X124294820Y-117555605D01*
X124313292Y-117521046D01*
X124338153Y-117490753D01*
X124368446Y-117465892D01*
X124403005Y-117447420D01*
X124440501Y-117436045D01*
X124485638Y-117431600D01*
X125224362Y-117431600D01*
X125269499Y-117436045D01*
X125269499Y-117436045D01*
G37*
G36*
X137588499Y-116572445D02*
G01*
X137625995Y-116583820D01*
X137660554Y-116602292D01*
X137690847Y-116627153D01*
X137715708Y-116657446D01*
X137734180Y-116692005D01*
X137745555Y-116729501D01*
X137750000Y-116774638D01*
X137750000Y-117413362D01*
X137745555Y-117458499D01*
X137734180Y-117495995D01*
X137715708Y-117530554D01*
X137690847Y-117560847D01*
X137660554Y-117585708D01*
X137625995Y-117604180D01*
X137588499Y-117615555D01*
X137543362Y-117620000D01*
X136804638Y-117620000D01*
X136759501Y-117615555D01*
X136722005Y-117604180D01*
X136687446Y-117585708D01*
X136657153Y-117560847D01*
X136632292Y-117530554D01*
X136613820Y-117495995D01*
X136602445Y-117458499D01*
X136598000Y-117413362D01*
X136598000Y-116774638D01*
X136602445Y-116729501D01*
X136613820Y-116692005D01*
X136632292Y-116657446D01*
X136657153Y-116627153D01*
X136687446Y-116602292D01*
X136722005Y-116583820D01*
X136759501Y-116572445D01*
X136804638Y-116568000D01*
X137543362Y-116568000D01*
X137588499Y-116572445D01*
X137588499Y-116572445D01*
G37*
G36*
X139338499Y-116572445D02*
G01*
X139375995Y-116583820D01*
X139410554Y-116602292D01*
X139440847Y-116627153D01*
X139465708Y-116657446D01*
X139484180Y-116692005D01*
X139495555Y-116729501D01*
X139500000Y-116774638D01*
X139500000Y-117413362D01*
X139495555Y-117458499D01*
X139484180Y-117495995D01*
X139465708Y-117530554D01*
X139440847Y-117560847D01*
X139410554Y-117585708D01*
X139375995Y-117604180D01*
X139338499Y-117615555D01*
X139293362Y-117620000D01*
X138554638Y-117620000D01*
X138509501Y-117615555D01*
X138472005Y-117604180D01*
X138437446Y-117585708D01*
X138407153Y-117560847D01*
X138382292Y-117530554D01*
X138363820Y-117495995D01*
X138352445Y-117458499D01*
X138348000Y-117413362D01*
X138348000Y-116774638D01*
X138352445Y-116729501D01*
X138363820Y-116692005D01*
X138382292Y-116657446D01*
X138407153Y-116627153D01*
X138437446Y-116602292D01*
X138472005Y-116583820D01*
X138509501Y-116572445D01*
X138554638Y-116568000D01*
X139293362Y-116568000D01*
X139338499Y-116572445D01*
X139338499Y-116572445D01*
G37*
G36*
X133968499Y-116254445D02*
G01*
X134005995Y-116265820D01*
X134040554Y-116284292D01*
X134070847Y-116309153D01*
X134095708Y-116339446D01*
X134114180Y-116374005D01*
X134125555Y-116411501D01*
X134130000Y-116456638D01*
X134130000Y-117195362D01*
X134125555Y-117240499D01*
X134114180Y-117277995D01*
X134095708Y-117312554D01*
X134070847Y-117342847D01*
X134040554Y-117367708D01*
X134005995Y-117386180D01*
X133968499Y-117397555D01*
X133923362Y-117402000D01*
X133284638Y-117402000D01*
X133239501Y-117397555D01*
X133202005Y-117386180D01*
X133167446Y-117367708D01*
X133137153Y-117342847D01*
X133112292Y-117312554D01*
X133093820Y-117277995D01*
X133082445Y-117240499D01*
X133078000Y-117195362D01*
X133078000Y-116456638D01*
X133082445Y-116411501D01*
X133093820Y-116374005D01*
X133112292Y-116339446D01*
X133137153Y-116309153D01*
X133167446Y-116284292D01*
X133202005Y-116265820D01*
X133239501Y-116254445D01*
X133284638Y-116250000D01*
X133923362Y-116250000D01*
X133968499Y-116254445D01*
X133968499Y-116254445D01*
G37*
G36*
X163807434Y-114711691D02*
G01*
X163969827Y-114743993D01*
X164183845Y-114832642D01*
X164183846Y-114832643D01*
X164376454Y-114961339D01*
X164540261Y-115125146D01*
X164612797Y-115233704D01*
X164668958Y-115317755D01*
X164757607Y-115531773D01*
X164802800Y-115758974D01*
X164802800Y-115990626D01*
X164757607Y-116217827D01*
X164668958Y-116431845D01*
X164668957Y-116431846D01*
X164540261Y-116624454D01*
X164376454Y-116788261D01*
X164248049Y-116874058D01*
X164183845Y-116916958D01*
X163969827Y-117005607D01*
X163831208Y-117033180D01*
X163742627Y-117050800D01*
X163510973Y-117050800D01*
X163422392Y-117033180D01*
X163283773Y-117005607D01*
X163069755Y-116916958D01*
X163005551Y-116874058D01*
X162877146Y-116788261D01*
X162713339Y-116624454D01*
X162584643Y-116431846D01*
X162584642Y-116431845D01*
X162495993Y-116217827D01*
X162450800Y-115990626D01*
X162450800Y-115758974D01*
X162495993Y-115531773D01*
X162584642Y-115317755D01*
X162640803Y-115233704D01*
X162713339Y-115125146D01*
X162877146Y-114961339D01*
X163069754Y-114832643D01*
X163069755Y-114832642D01*
X163283773Y-114743993D01*
X163446166Y-114711691D01*
X163510973Y-114698800D01*
X163742627Y-114698800D01*
X163807434Y-114711691D01*
X163807434Y-114711691D01*
G37*
G36*
X168887434Y-114711691D02*
G01*
X169049827Y-114743993D01*
X169263845Y-114832642D01*
X169263846Y-114832643D01*
X169456454Y-114961339D01*
X169620261Y-115125146D01*
X169692797Y-115233704D01*
X169748958Y-115317755D01*
X169837607Y-115531773D01*
X169882800Y-115758974D01*
X169882800Y-115990626D01*
X169837607Y-116217827D01*
X169748958Y-116431845D01*
X169748957Y-116431846D01*
X169620261Y-116624454D01*
X169456454Y-116788261D01*
X169328049Y-116874058D01*
X169263845Y-116916958D01*
X169049827Y-117005607D01*
X168911208Y-117033180D01*
X168822627Y-117050800D01*
X168590973Y-117050800D01*
X168502392Y-117033180D01*
X168363773Y-117005607D01*
X168149755Y-116916958D01*
X168085551Y-116874058D01*
X167957146Y-116788261D01*
X167793339Y-116624454D01*
X167664643Y-116431846D01*
X167664642Y-116431845D01*
X167575993Y-116217827D01*
X167530800Y-115990626D01*
X167530800Y-115758974D01*
X167575993Y-115531773D01*
X167664642Y-115317755D01*
X167720803Y-115233704D01*
X167793339Y-115125146D01*
X167957146Y-114961339D01*
X168149754Y-114832643D01*
X168149755Y-114832642D01*
X168363773Y-114743993D01*
X168526166Y-114711691D01*
X168590973Y-114698800D01*
X168822627Y-114698800D01*
X168887434Y-114711691D01*
X168887434Y-114711691D01*
G37*
G36*
X142985499Y-115901445D02*
G01*
X143022995Y-115912820D01*
X143057554Y-115931292D01*
X143087847Y-115956153D01*
X143112708Y-115986446D01*
X143131180Y-116021005D01*
X143142555Y-116058501D01*
X143147000Y-116103638D01*
X143147000Y-116842362D01*
X143142555Y-116887499D01*
X143131180Y-116924995D01*
X143112708Y-116959554D01*
X143087847Y-116989847D01*
X143057554Y-117014708D01*
X143022995Y-117033180D01*
X142985499Y-117044555D01*
X142940362Y-117049000D01*
X142301638Y-117049000D01*
X142256501Y-117044555D01*
X142219005Y-117033180D01*
X142184446Y-117014708D01*
X142154153Y-116989847D01*
X142129292Y-116959554D01*
X142110820Y-116924995D01*
X142099445Y-116887499D01*
X142095000Y-116842362D01*
X142095000Y-116103638D01*
X142099445Y-116058501D01*
X142110820Y-116021005D01*
X142129292Y-115986446D01*
X142154153Y-115956153D01*
X142184446Y-115931292D01*
X142219005Y-115912820D01*
X142256501Y-115901445D01*
X142301638Y-115897000D01*
X142940362Y-115897000D01*
X142985499Y-115901445D01*
X142985499Y-115901445D01*
G37*
G36*
X159491642Y-114952181D02*
G01*
X159637414Y-115012562D01*
X159637416Y-115012563D01*
X159768608Y-115100222D01*
X159880178Y-115211792D01*
X159955887Y-115325100D01*
X159967838Y-115342986D01*
X160028219Y-115488758D01*
X160059000Y-115643507D01*
X160059000Y-115801293D01*
X160028219Y-115956042D01*
X159967838Y-116101814D01*
X159967837Y-116101816D01*
X159880178Y-116233008D01*
X159768608Y-116344578D01*
X159637416Y-116432237D01*
X159637415Y-116432238D01*
X159637414Y-116432238D01*
X159491642Y-116492619D01*
X159336893Y-116523400D01*
X159179107Y-116523400D01*
X159024358Y-116492619D01*
X158878586Y-116432238D01*
X158878585Y-116432238D01*
X158878584Y-116432237D01*
X158747392Y-116344578D01*
X158635822Y-116233008D01*
X158548163Y-116101816D01*
X158548162Y-116101814D01*
X158487781Y-115956042D01*
X158457000Y-115801293D01*
X158457000Y-115643507D01*
X158487781Y-115488758D01*
X158548162Y-115342986D01*
X158560113Y-115325100D01*
X158635822Y-115211792D01*
X158747392Y-115100222D01*
X158878584Y-115012563D01*
X158878586Y-115012562D01*
X159024358Y-114952181D01*
X159179107Y-114921400D01*
X159336893Y-114921400D01*
X159491642Y-114952181D01*
X159491642Y-114952181D01*
G37*
G36*
X116901499Y-113824837D02*
G01*
X116911108Y-113827752D01*
X116919972Y-113832490D01*
X116927737Y-113838863D01*
X116934110Y-113846628D01*
X116938848Y-113855492D01*
X116941763Y-113865101D01*
X116943352Y-113881240D01*
X116943352Y-115018960D01*
X116941763Y-115035099D01*
X116938848Y-115044708D01*
X116934110Y-115053572D01*
X116927737Y-115061337D01*
X116914763Y-115071984D01*
X116905532Y-115078153D01*
X116888206Y-115095481D01*
X116874593Y-115115856D01*
X116865217Y-115138495D01*
X116860437Y-115162528D01*
X116860438Y-115187032D01*
X116865220Y-115211065D01*
X116874598Y-115233704D01*
X116888213Y-115254078D01*
X116905541Y-115271404D01*
X116914817Y-115278275D01*
X116919927Y-115282460D01*
X116927699Y-115288825D01*
X116934081Y-115296584D01*
X116938826Y-115305439D01*
X116938826Y-115305440D01*
X116941742Y-115315015D01*
X116941742Y-115315018D01*
X116941752Y-115315050D01*
X116942747Y-115325100D01*
X116942747Y-115325165D01*
X116943352Y-115331275D01*
X116943352Y-116318960D01*
X116941763Y-116335099D01*
X116938848Y-116344708D01*
X116934110Y-116353572D01*
X116927737Y-116361337D01*
X116919972Y-116367710D01*
X116911108Y-116372448D01*
X116901499Y-116375363D01*
X116885360Y-116376952D01*
X115397640Y-116376952D01*
X115381501Y-116375363D01*
X115371892Y-116372448D01*
X115363028Y-116367710D01*
X115355263Y-116361337D01*
X115348890Y-116353572D01*
X115344152Y-116344708D01*
X115341237Y-116335099D01*
X115339648Y-116318960D01*
X115339648Y-115331240D01*
X115341237Y-115315101D01*
X115344152Y-115305492D01*
X115348890Y-115296628D01*
X115355242Y-115288888D01*
X115355243Y-115288887D01*
X115355263Y-115288863D01*
X115363073Y-115282460D01*
X115363128Y-115282423D01*
X115372647Y-115274620D01*
X115372622Y-115274589D01*
X115386472Y-115263247D01*
X115402037Y-115244321D01*
X115413611Y-115222723D01*
X115420749Y-115199281D01*
X115423176Y-115174898D01*
X115420800Y-115150509D01*
X115413711Y-115127053D01*
X115402182Y-115105430D01*
X115386657Y-115086472D01*
X115367731Y-115070907D01*
X115364675Y-115069071D01*
X115362986Y-115067682D01*
X115362984Y-115067681D01*
X115355225Y-115061299D01*
X115353103Y-115058708D01*
X115348858Y-115053525D01*
X115345709Y-115047617D01*
X115344133Y-115044662D01*
X115341227Y-115035045D01*
X115341218Y-115035015D01*
X115339648Y-115018987D01*
X115339648Y-113881240D01*
X115341237Y-113865101D01*
X115344152Y-113855492D01*
X115348890Y-113846628D01*
X115355263Y-113838863D01*
X115363028Y-113832490D01*
X115371892Y-113827752D01*
X115381501Y-113824837D01*
X115397640Y-113823248D01*
X116885360Y-113823248D01*
X116901499Y-113824837D01*
X116901499Y-113824837D01*
G37*
G36*
X111333242Y-114596581D02*
G01*
X111479014Y-114656962D01*
X111479016Y-114656963D01*
X111610208Y-114744622D01*
X111721778Y-114856192D01*
X111809437Y-114987384D01*
X111809438Y-114987386D01*
X111869819Y-115133158D01*
X111900600Y-115287907D01*
X111900600Y-115445693D01*
X111869819Y-115600442D01*
X111824416Y-115710054D01*
X111809437Y-115746216D01*
X111721778Y-115877408D01*
X111610208Y-115988978D01*
X111479016Y-116076637D01*
X111479015Y-116076638D01*
X111479014Y-116076638D01*
X111333242Y-116137019D01*
X111178493Y-116167800D01*
X111020707Y-116167800D01*
X110865958Y-116137019D01*
X110720186Y-116076638D01*
X110720185Y-116076638D01*
X110720184Y-116076637D01*
X110588992Y-115988978D01*
X110477422Y-115877408D01*
X110389763Y-115746216D01*
X110374784Y-115710054D01*
X110329381Y-115600442D01*
X110298600Y-115445693D01*
X110298600Y-115287907D01*
X110329381Y-115133158D01*
X110389762Y-114987386D01*
X110389763Y-114987384D01*
X110477422Y-114856192D01*
X110588992Y-114744622D01*
X110720184Y-114656963D01*
X110720186Y-114656962D01*
X110865958Y-114596581D01*
X111020707Y-114565800D01*
X111178493Y-114565800D01*
X111333242Y-114596581D01*
X111333242Y-114596581D01*
G37*
G36*
X103823560Y-113799464D02*
G01*
X103975027Y-113829593D01*
X104189045Y-113918242D01*
X104253249Y-113961142D01*
X104381654Y-114046939D01*
X104545461Y-114210746D01*
X104611112Y-114309000D01*
X104674158Y-114403355D01*
X104762807Y-114617373D01*
X104771754Y-114662354D01*
X104794127Y-114774827D01*
X104808000Y-114844574D01*
X104808000Y-115076226D01*
X104762807Y-115303427D01*
X104674158Y-115517445D01*
X104664584Y-115531773D01*
X104545461Y-115710054D01*
X104381654Y-115873861D01*
X104258661Y-115956042D01*
X104189045Y-116002558D01*
X103975027Y-116091207D01*
X103823560Y-116121336D01*
X103747827Y-116136400D01*
X103516173Y-116136400D01*
X103440440Y-116121336D01*
X103288973Y-116091207D01*
X103074955Y-116002558D01*
X103005339Y-115956042D01*
X102882346Y-115873861D01*
X102718539Y-115710054D01*
X102599416Y-115531773D01*
X102589842Y-115517445D01*
X102501193Y-115303427D01*
X102456000Y-115076226D01*
X102456000Y-114844574D01*
X102469874Y-114774827D01*
X102492246Y-114662354D01*
X102501193Y-114617373D01*
X102589842Y-114403355D01*
X102652888Y-114309000D01*
X102718539Y-114210746D01*
X102882346Y-114046939D01*
X103010751Y-113961142D01*
X103074955Y-113918242D01*
X103288973Y-113829593D01*
X103440440Y-113799464D01*
X103516173Y-113784400D01*
X103747827Y-113784400D01*
X103823560Y-113799464D01*
X103823560Y-113799464D01*
G37*
G36*
X98743560Y-113799464D02*
G01*
X98895027Y-113829593D01*
X99109045Y-113918242D01*
X99173249Y-113961142D01*
X99301654Y-114046939D01*
X99465461Y-114210746D01*
X99531112Y-114309000D01*
X99594158Y-114403355D01*
X99682807Y-114617373D01*
X99691754Y-114662354D01*
X99714127Y-114774827D01*
X99728000Y-114844574D01*
X99728000Y-115076226D01*
X99682807Y-115303427D01*
X99594158Y-115517445D01*
X99584584Y-115531773D01*
X99465461Y-115710054D01*
X99301654Y-115873861D01*
X99178661Y-115956042D01*
X99109045Y-116002558D01*
X98895027Y-116091207D01*
X98743560Y-116121336D01*
X98667827Y-116136400D01*
X98436173Y-116136400D01*
X98360440Y-116121336D01*
X98208973Y-116091207D01*
X97994955Y-116002558D01*
X97925339Y-115956042D01*
X97802346Y-115873861D01*
X97638539Y-115710054D01*
X97519416Y-115531773D01*
X97509842Y-115517445D01*
X97421193Y-115303427D01*
X97376000Y-115076226D01*
X97376000Y-114844574D01*
X97389874Y-114774827D01*
X97412246Y-114662354D01*
X97421193Y-114617373D01*
X97509842Y-114403355D01*
X97572888Y-114309000D01*
X97638539Y-114210746D01*
X97802346Y-114046939D01*
X97930751Y-113961142D01*
X97994955Y-113918242D01*
X98208973Y-113829593D01*
X98360440Y-113799464D01*
X98436173Y-113784400D01*
X98667827Y-113784400D01*
X98743560Y-113799464D01*
X98743560Y-113799464D01*
G37*
G36*
X133968499Y-114504445D02*
G01*
X134005995Y-114515820D01*
X134040554Y-114534292D01*
X134070847Y-114559153D01*
X134095708Y-114589446D01*
X134114180Y-114624005D01*
X134125555Y-114661501D01*
X134130000Y-114706638D01*
X134130000Y-115445362D01*
X134125555Y-115490499D01*
X134114180Y-115527995D01*
X134095708Y-115562554D01*
X134070847Y-115592847D01*
X134040554Y-115617708D01*
X134005995Y-115636180D01*
X133968499Y-115647555D01*
X133923362Y-115652000D01*
X133284638Y-115652000D01*
X133239501Y-115647555D01*
X133202005Y-115636180D01*
X133167446Y-115617708D01*
X133137153Y-115592847D01*
X133112292Y-115562554D01*
X133093820Y-115527995D01*
X133082445Y-115490499D01*
X133078000Y-115445362D01*
X133078000Y-114706638D01*
X133082445Y-114661501D01*
X133093820Y-114624005D01*
X133112292Y-114589446D01*
X133137153Y-114559153D01*
X133167446Y-114534292D01*
X133202005Y-114515820D01*
X133239501Y-114504445D01*
X133284638Y-114500000D01*
X133923362Y-114500000D01*
X133968499Y-114504445D01*
X133968499Y-114504445D01*
G37*
G36*
X139302499Y-114044645D02*
G01*
X139339995Y-114056020D01*
X139374554Y-114074492D01*
X139404847Y-114099353D01*
X139429708Y-114129646D01*
X139448180Y-114164205D01*
X139459555Y-114201701D01*
X139464000Y-114246838D01*
X139464000Y-114985562D01*
X139459555Y-115030699D01*
X139448180Y-115068195D01*
X139429708Y-115102754D01*
X139404847Y-115133047D01*
X139374554Y-115157908D01*
X139339995Y-115176380D01*
X139302499Y-115187755D01*
X139257362Y-115192200D01*
X138618638Y-115192200D01*
X138573501Y-115187755D01*
X138536005Y-115176380D01*
X138501446Y-115157908D01*
X138471153Y-115133047D01*
X138446292Y-115102754D01*
X138427820Y-115068195D01*
X138416445Y-115030699D01*
X138412000Y-114985562D01*
X138412000Y-114246838D01*
X138416445Y-114201701D01*
X138427820Y-114164205D01*
X138446292Y-114129646D01*
X138471153Y-114099353D01*
X138501446Y-114074492D01*
X138536005Y-114056020D01*
X138573501Y-114044645D01*
X138618638Y-114040200D01*
X139257362Y-114040200D01*
X139302499Y-114044645D01*
X139302499Y-114044645D01*
G37*
G36*
X128469899Y-113524445D02*
G01*
X128507395Y-113535820D01*
X128541954Y-113554292D01*
X128572247Y-113579153D01*
X128597108Y-113609446D01*
X128615580Y-113644005D01*
X128626955Y-113681501D01*
X128631400Y-113726638D01*
X128631400Y-114365362D01*
X128626955Y-114410499D01*
X128615580Y-114447995D01*
X128597108Y-114482554D01*
X128572247Y-114512847D01*
X128541954Y-114537708D01*
X128507395Y-114556180D01*
X128469899Y-114567555D01*
X128424762Y-114572000D01*
X127686038Y-114572000D01*
X127640901Y-114567555D01*
X127603405Y-114556180D01*
X127568846Y-114537708D01*
X127538553Y-114512847D01*
X127513692Y-114482554D01*
X127495220Y-114447995D01*
X127483845Y-114410499D01*
X127479400Y-114365362D01*
X127479400Y-113726638D01*
X127483845Y-113681501D01*
X127495220Y-113644005D01*
X127513692Y-113609446D01*
X127538553Y-113579153D01*
X127568846Y-113554292D01*
X127603405Y-113535820D01*
X127640901Y-113524445D01*
X127686038Y-113520000D01*
X128424762Y-113520000D01*
X128469899Y-113524445D01*
X128469899Y-113524445D01*
G37*
G36*
X130219899Y-113524445D02*
G01*
X130257395Y-113535820D01*
X130291954Y-113554292D01*
X130322247Y-113579153D01*
X130347108Y-113609446D01*
X130365580Y-113644005D01*
X130376955Y-113681501D01*
X130381400Y-113726638D01*
X130381400Y-114365362D01*
X130376955Y-114410499D01*
X130365580Y-114447995D01*
X130347108Y-114482554D01*
X130322247Y-114512847D01*
X130291954Y-114537708D01*
X130257395Y-114556180D01*
X130219899Y-114567555D01*
X130174762Y-114572000D01*
X129436038Y-114572000D01*
X129390901Y-114567555D01*
X129353405Y-114556180D01*
X129318846Y-114537708D01*
X129288553Y-114512847D01*
X129263692Y-114482554D01*
X129245220Y-114447995D01*
X129233845Y-114410499D01*
X129229400Y-114365362D01*
X129229400Y-113726638D01*
X129233845Y-113681501D01*
X129245220Y-113644005D01*
X129263692Y-113609446D01*
X129288553Y-113579153D01*
X129318846Y-113554292D01*
X129353405Y-113535820D01*
X129390901Y-113524445D01*
X129436038Y-113520000D01*
X130174762Y-113520000D01*
X130219899Y-113524445D01*
X130219899Y-113524445D01*
G37*
G36*
X166342071Y-112272583D02*
G01*
X166480658Y-112300150D01*
X166676477Y-112381261D01*
X166852710Y-112499016D01*
X167002584Y-112648890D01*
X167120339Y-112825123D01*
X167201450Y-113020942D01*
X167242800Y-113228823D01*
X167242800Y-113440777D01*
X167201450Y-113648658D01*
X167120339Y-113844477D01*
X167002584Y-114020710D01*
X166852710Y-114170584D01*
X166676477Y-114288339D01*
X166480658Y-114369450D01*
X166342071Y-114397017D01*
X166272778Y-114410800D01*
X166060822Y-114410800D01*
X165991529Y-114397017D01*
X165852942Y-114369450D01*
X165657123Y-114288339D01*
X165480890Y-114170584D01*
X165331016Y-114020710D01*
X165213261Y-113844477D01*
X165132150Y-113648658D01*
X165090800Y-113440777D01*
X165090800Y-113228823D01*
X165132150Y-113020942D01*
X165213261Y-112825123D01*
X165331016Y-112648890D01*
X165480890Y-112499016D01*
X165657123Y-112381261D01*
X165852942Y-112300150D01*
X165991529Y-112272583D01*
X166060822Y-112258800D01*
X166272778Y-112258800D01*
X166342071Y-112272583D01*
X166342071Y-112272583D01*
G37*
G36*
X119896899Y-112876245D02*
G01*
X119934395Y-112887620D01*
X119968954Y-112906092D01*
X119999247Y-112930953D01*
X120024108Y-112961246D01*
X120042580Y-112995805D01*
X120053955Y-113033301D01*
X120058400Y-113078438D01*
X120058400Y-113817162D01*
X120053955Y-113862299D01*
X120042580Y-113899795D01*
X120024108Y-113934354D01*
X119999247Y-113964647D01*
X119968954Y-113989508D01*
X119934395Y-114007980D01*
X119896899Y-114019355D01*
X119851762Y-114023800D01*
X119213038Y-114023800D01*
X119167901Y-114019355D01*
X119130405Y-114007980D01*
X119095846Y-113989508D01*
X119065553Y-113964647D01*
X119040692Y-113934354D01*
X119022220Y-113899795D01*
X119010845Y-113862299D01*
X119006400Y-113817162D01*
X119006400Y-113078438D01*
X119010845Y-113033301D01*
X119022220Y-112995805D01*
X119040692Y-112961246D01*
X119065553Y-112930953D01*
X119095846Y-112906092D01*
X119130405Y-112887620D01*
X119167901Y-112876245D01*
X119213038Y-112871800D01*
X119851762Y-112871800D01*
X119896899Y-112876245D01*
X119896899Y-112876245D01*
G37*
G36*
X101235406Y-111351845D02*
G01*
X101405858Y-111385750D01*
X101601677Y-111466861D01*
X101777910Y-111584616D01*
X101927784Y-111734490D01*
X102045539Y-111910723D01*
X102126650Y-112106542D01*
X102136670Y-112156915D01*
X102167739Y-112313108D01*
X102168000Y-112314423D01*
X102168000Y-112526377D01*
X102126650Y-112734258D01*
X102045539Y-112930077D01*
X101927784Y-113106310D01*
X101777910Y-113256184D01*
X101601677Y-113373939D01*
X101405858Y-113455050D01*
X101267271Y-113482617D01*
X101197978Y-113496400D01*
X100986022Y-113496400D01*
X100916729Y-113482617D01*
X100778142Y-113455050D01*
X100582323Y-113373939D01*
X100406090Y-113256184D01*
X100256216Y-113106310D01*
X100138461Y-112930077D01*
X100057350Y-112734258D01*
X100016000Y-112526377D01*
X100016000Y-112314423D01*
X100016262Y-112313108D01*
X100047330Y-112156915D01*
X100057350Y-112106542D01*
X100138461Y-111910723D01*
X100256216Y-111734490D01*
X100406090Y-111584616D01*
X100582323Y-111466861D01*
X100778142Y-111385750D01*
X100948594Y-111351845D01*
X100986022Y-111344400D01*
X101197978Y-111344400D01*
X101235406Y-111351845D01*
X101235406Y-111351845D01*
G37*
G36*
X139302499Y-112294645D02*
G01*
X139339995Y-112306020D01*
X139374554Y-112324492D01*
X139404847Y-112349353D01*
X139429708Y-112379646D01*
X139448180Y-112414205D01*
X139459555Y-112451701D01*
X139464000Y-112496838D01*
X139464000Y-113235562D01*
X139459555Y-113280699D01*
X139448180Y-113318195D01*
X139429708Y-113352754D01*
X139404847Y-113383047D01*
X139374554Y-113407908D01*
X139339995Y-113426380D01*
X139302499Y-113437755D01*
X139257362Y-113442200D01*
X138618638Y-113442200D01*
X138573501Y-113437755D01*
X138536005Y-113426380D01*
X138501446Y-113407908D01*
X138471153Y-113383047D01*
X138446292Y-113352754D01*
X138427820Y-113318195D01*
X138416445Y-113280699D01*
X138412000Y-113235562D01*
X138412000Y-112496838D01*
X138416445Y-112451701D01*
X138427820Y-112414205D01*
X138446292Y-112379646D01*
X138471153Y-112349353D01*
X138501446Y-112324492D01*
X138536005Y-112306020D01*
X138573501Y-112294645D01*
X138618638Y-112290200D01*
X139257362Y-112290200D01*
X139302499Y-112294645D01*
X139302499Y-112294645D01*
G37*
G36*
X142187199Y-110484737D02*
G01*
X142196808Y-110487652D01*
X142205672Y-110492390D01*
X142213437Y-110498763D01*
X142219810Y-110506528D01*
X142224548Y-110515392D01*
X142227463Y-110525001D01*
X142229052Y-110541140D01*
X142229052Y-111678860D01*
X142227463Y-111694999D01*
X142224548Y-111704608D01*
X142219810Y-111713472D01*
X142213437Y-111721237D01*
X142200463Y-111731884D01*
X142191232Y-111738053D01*
X142173906Y-111755381D01*
X142160293Y-111775756D01*
X142150917Y-111798395D01*
X142146137Y-111822428D01*
X142146138Y-111846932D01*
X142150920Y-111870965D01*
X142160298Y-111893604D01*
X142173913Y-111913978D01*
X142191241Y-111931304D01*
X142200517Y-111938175D01*
X142205627Y-111942360D01*
X142213399Y-111948725D01*
X142219781Y-111956484D01*
X142224526Y-111965339D01*
X142224526Y-111965340D01*
X142227442Y-111974915D01*
X142227442Y-111974918D01*
X142227452Y-111974950D01*
X142228447Y-111985000D01*
X142228447Y-111985065D01*
X142229052Y-111991175D01*
X142229052Y-112978860D01*
X142227463Y-112994999D01*
X142224548Y-113004608D01*
X142219810Y-113013472D01*
X142213437Y-113021237D01*
X142205672Y-113027610D01*
X142196808Y-113032348D01*
X142187199Y-113035263D01*
X142171060Y-113036852D01*
X140683340Y-113036852D01*
X140667201Y-113035263D01*
X140657592Y-113032348D01*
X140648728Y-113027610D01*
X140640963Y-113021237D01*
X140634590Y-113013472D01*
X140629852Y-113004608D01*
X140626937Y-112994999D01*
X140625348Y-112978860D01*
X140625348Y-111991140D01*
X140626937Y-111975001D01*
X140629852Y-111965392D01*
X140634590Y-111956528D01*
X140640942Y-111948788D01*
X140640943Y-111948787D01*
X140640963Y-111948763D01*
X140648773Y-111942360D01*
X140648828Y-111942323D01*
X140658347Y-111934520D01*
X140658322Y-111934489D01*
X140672172Y-111923147D01*
X140687737Y-111904221D01*
X140699311Y-111882623D01*
X140706449Y-111859181D01*
X140708876Y-111834798D01*
X140706500Y-111810409D01*
X140699411Y-111786953D01*
X140687882Y-111765330D01*
X140672357Y-111746372D01*
X140653431Y-111730807D01*
X140650375Y-111728971D01*
X140648686Y-111727582D01*
X140648684Y-111727581D01*
X140640925Y-111721199D01*
X140638803Y-111718608D01*
X140634558Y-111713425D01*
X140631409Y-111707517D01*
X140629833Y-111704562D01*
X140626927Y-111694945D01*
X140626918Y-111694915D01*
X140625348Y-111678887D01*
X140625348Y-110541140D01*
X140626937Y-110525001D01*
X140629852Y-110515392D01*
X140634590Y-110506528D01*
X140640963Y-110498763D01*
X140648728Y-110492390D01*
X140657592Y-110487652D01*
X140667201Y-110484737D01*
X140683340Y-110483148D01*
X142171060Y-110483148D01*
X142187199Y-110484737D01*
X142187199Y-110484737D01*
G37*
G36*
X151951699Y-111606245D02*
G01*
X151989195Y-111617620D01*
X152023754Y-111636092D01*
X152054047Y-111660953D01*
X152078908Y-111691246D01*
X152097380Y-111725805D01*
X152108755Y-111763301D01*
X152113200Y-111808438D01*
X152113200Y-112547162D01*
X152108755Y-112592299D01*
X152097380Y-112629795D01*
X152078908Y-112664354D01*
X152054047Y-112694647D01*
X152023754Y-112719508D01*
X151989195Y-112737980D01*
X151951699Y-112749355D01*
X151906562Y-112753800D01*
X151267838Y-112753800D01*
X151222701Y-112749355D01*
X151185205Y-112737980D01*
X151150646Y-112719508D01*
X151120353Y-112694647D01*
X151095492Y-112664354D01*
X151077020Y-112629795D01*
X151065645Y-112592299D01*
X151061200Y-112547162D01*
X151061200Y-111808438D01*
X151065645Y-111763301D01*
X151077020Y-111725805D01*
X151095492Y-111691246D01*
X151120353Y-111660953D01*
X151150646Y-111636092D01*
X151185205Y-111617620D01*
X151222701Y-111606245D01*
X151267838Y-111601800D01*
X151906562Y-111601800D01*
X151951699Y-111606245D01*
X151951699Y-111606245D01*
G37*
G36*
X149106899Y-111555445D02*
G01*
X149144395Y-111566820D01*
X149178954Y-111585292D01*
X149209247Y-111610153D01*
X149234108Y-111640446D01*
X149252580Y-111675005D01*
X149263955Y-111712501D01*
X149268400Y-111757638D01*
X149268400Y-112496362D01*
X149263955Y-112541499D01*
X149252580Y-112578995D01*
X149234108Y-112613554D01*
X149209247Y-112643847D01*
X149178954Y-112668708D01*
X149144395Y-112687180D01*
X149106899Y-112698555D01*
X149061762Y-112703000D01*
X148423038Y-112703000D01*
X148377901Y-112698555D01*
X148340405Y-112687180D01*
X148305846Y-112668708D01*
X148275553Y-112643847D01*
X148250692Y-112613554D01*
X148232220Y-112578995D01*
X148220845Y-112541499D01*
X148216400Y-112496362D01*
X148216400Y-111757638D01*
X148220845Y-111712501D01*
X148232220Y-111675005D01*
X148250692Y-111640446D01*
X148275553Y-111610153D01*
X148305846Y-111585292D01*
X148340405Y-111566820D01*
X148377901Y-111555445D01*
X148423038Y-111551000D01*
X149061762Y-111551000D01*
X149106899Y-111555445D01*
X149106899Y-111555445D01*
G37*
G36*
X155547599Y-110078337D02*
G01*
X155557208Y-110081252D01*
X155566072Y-110085990D01*
X155573837Y-110092363D01*
X155580210Y-110100128D01*
X155584948Y-110108992D01*
X155587863Y-110118601D01*
X155589452Y-110134740D01*
X155589452Y-111272460D01*
X155587863Y-111288599D01*
X155584948Y-111298208D01*
X155580210Y-111307072D01*
X155573837Y-111314837D01*
X155560863Y-111325484D01*
X155551632Y-111331653D01*
X155534306Y-111348981D01*
X155520693Y-111369356D01*
X155511317Y-111391995D01*
X155506537Y-111416028D01*
X155506538Y-111440532D01*
X155511320Y-111464565D01*
X155520698Y-111487204D01*
X155534313Y-111507578D01*
X155551641Y-111524904D01*
X155560917Y-111531775D01*
X155566027Y-111535960D01*
X155573799Y-111542325D01*
X155580181Y-111550084D01*
X155584926Y-111558939D01*
X155584926Y-111558940D01*
X155587842Y-111568515D01*
X155587842Y-111568518D01*
X155587852Y-111568550D01*
X155588847Y-111578600D01*
X155588847Y-111578665D01*
X155589452Y-111584775D01*
X155589452Y-112572460D01*
X155587863Y-112588599D01*
X155584948Y-112598208D01*
X155580210Y-112607072D01*
X155573837Y-112614837D01*
X155566072Y-112621210D01*
X155557208Y-112625948D01*
X155547599Y-112628863D01*
X155531460Y-112630452D01*
X154043740Y-112630452D01*
X154027601Y-112628863D01*
X154017992Y-112625948D01*
X154009128Y-112621210D01*
X154001363Y-112614837D01*
X153994990Y-112607072D01*
X153990252Y-112598208D01*
X153987337Y-112588599D01*
X153985748Y-112572460D01*
X153985748Y-111584740D01*
X153987337Y-111568601D01*
X153990252Y-111558992D01*
X153994990Y-111550128D01*
X154001342Y-111542388D01*
X154001343Y-111542387D01*
X154001363Y-111542363D01*
X154009173Y-111535960D01*
X154009228Y-111535923D01*
X154018747Y-111528120D01*
X154018722Y-111528089D01*
X154032572Y-111516747D01*
X154048137Y-111497821D01*
X154059711Y-111476223D01*
X154066849Y-111452781D01*
X154069276Y-111428398D01*
X154066900Y-111404009D01*
X154059811Y-111380553D01*
X154048282Y-111358930D01*
X154032757Y-111339972D01*
X154013831Y-111324407D01*
X154010775Y-111322571D01*
X154009086Y-111321182D01*
X154009084Y-111321181D01*
X154001325Y-111314799D01*
X153999203Y-111312208D01*
X153994958Y-111307025D01*
X153991809Y-111301117D01*
X153990233Y-111298162D01*
X153987327Y-111288545D01*
X153987318Y-111288515D01*
X153985748Y-111272487D01*
X153985748Y-110134740D01*
X153987337Y-110118601D01*
X153990252Y-110108992D01*
X153994990Y-110100128D01*
X154001363Y-110092363D01*
X154009128Y-110085990D01*
X154017992Y-110081252D01*
X154027601Y-110078337D01*
X154043740Y-110076748D01*
X155531460Y-110076748D01*
X155547599Y-110078337D01*
X155547599Y-110078337D01*
G37*
G36*
X125688099Y-111199845D02*
G01*
X125725595Y-111211220D01*
X125760154Y-111229692D01*
X125790447Y-111254553D01*
X125815308Y-111284846D01*
X125833780Y-111319405D01*
X125845155Y-111356901D01*
X125849600Y-111402038D01*
X125849600Y-112140762D01*
X125845155Y-112185899D01*
X125833780Y-112223395D01*
X125815308Y-112257954D01*
X125790447Y-112288247D01*
X125760154Y-112313108D01*
X125725595Y-112331580D01*
X125688099Y-112342955D01*
X125642962Y-112347400D01*
X125004238Y-112347400D01*
X124959101Y-112342955D01*
X124921605Y-112331580D01*
X124887046Y-112313108D01*
X124856753Y-112288247D01*
X124831892Y-112257954D01*
X124813420Y-112223395D01*
X124802045Y-112185899D01*
X124797600Y-112140762D01*
X124797600Y-111402038D01*
X124802045Y-111356901D01*
X124813420Y-111319405D01*
X124831892Y-111284846D01*
X124856753Y-111254553D01*
X124887046Y-111229692D01*
X124921605Y-111211220D01*
X124959101Y-111199845D01*
X125004238Y-111195400D01*
X125642962Y-111195400D01*
X125688099Y-111199845D01*
X125688099Y-111199845D01*
G37*
G36*
X119896899Y-111126245D02*
G01*
X119934395Y-111137620D01*
X119968954Y-111156092D01*
X119999247Y-111180953D01*
X120024108Y-111211246D01*
X120042580Y-111245805D01*
X120053955Y-111283301D01*
X120058400Y-111328438D01*
X120058400Y-112067162D01*
X120053955Y-112112299D01*
X120042580Y-112149795D01*
X120024108Y-112184354D01*
X119999247Y-112214647D01*
X119968954Y-112239508D01*
X119934395Y-112257980D01*
X119896899Y-112269355D01*
X119851762Y-112273800D01*
X119213038Y-112273800D01*
X119167901Y-112269355D01*
X119130405Y-112257980D01*
X119095846Y-112239508D01*
X119065553Y-112214647D01*
X119040692Y-112184354D01*
X119022220Y-112149795D01*
X119010845Y-112112299D01*
X119006400Y-112067162D01*
X119006400Y-111328438D01*
X119010845Y-111283301D01*
X119022220Y-111245805D01*
X119040692Y-111211246D01*
X119065553Y-111180953D01*
X119095846Y-111156092D01*
X119130405Y-111137620D01*
X119167901Y-111126245D01*
X119213038Y-111121800D01*
X119851762Y-111121800D01*
X119896899Y-111126245D01*
X119896899Y-111126245D01*
G37*
G36*
X163764445Y-109623140D02*
G01*
X163969827Y-109663993D01*
X164183845Y-109752642D01*
X164183846Y-109752643D01*
X164376454Y-109881339D01*
X164540261Y-110045146D01*
X164613960Y-110155445D01*
X164668958Y-110237755D01*
X164757607Y-110451773D01*
X164783330Y-110581092D01*
X164802800Y-110678973D01*
X164802800Y-110910627D01*
X164794371Y-110953000D01*
X164757607Y-111137827D01*
X164668958Y-111351845D01*
X164635420Y-111402038D01*
X164540261Y-111544454D01*
X164376454Y-111708261D01*
X164294993Y-111762691D01*
X164183845Y-111836958D01*
X163969827Y-111925607D01*
X163853288Y-111948788D01*
X163742627Y-111970800D01*
X163510973Y-111970800D01*
X163400312Y-111948788D01*
X163283773Y-111925607D01*
X163069755Y-111836958D01*
X162958607Y-111762691D01*
X162877146Y-111708261D01*
X162713339Y-111544454D01*
X162618180Y-111402038D01*
X162584642Y-111351845D01*
X162495993Y-111137827D01*
X162459229Y-110953000D01*
X162450800Y-110910627D01*
X162450800Y-110678973D01*
X162470270Y-110581092D01*
X162495993Y-110451773D01*
X162584642Y-110237755D01*
X162639640Y-110155445D01*
X162713339Y-110045146D01*
X162877146Y-109881339D01*
X163069754Y-109752643D01*
X163069755Y-109752642D01*
X163283773Y-109663993D01*
X163489155Y-109623140D01*
X163510973Y-109618800D01*
X163742627Y-109618800D01*
X163764445Y-109623140D01*
X163764445Y-109623140D01*
G37*
G36*
X168844445Y-109623140D02*
G01*
X169049827Y-109663993D01*
X169263845Y-109752642D01*
X169263846Y-109752643D01*
X169456454Y-109881339D01*
X169620261Y-110045146D01*
X169693960Y-110155445D01*
X169748958Y-110237755D01*
X169837607Y-110451773D01*
X169863330Y-110581092D01*
X169882800Y-110678973D01*
X169882800Y-110910627D01*
X169874371Y-110953000D01*
X169837607Y-111137827D01*
X169748958Y-111351845D01*
X169715420Y-111402038D01*
X169620261Y-111544454D01*
X169456454Y-111708261D01*
X169374993Y-111762691D01*
X169263845Y-111836958D01*
X169049827Y-111925607D01*
X168933288Y-111948788D01*
X168822627Y-111970800D01*
X168590973Y-111970800D01*
X168480312Y-111948788D01*
X168363773Y-111925607D01*
X168149755Y-111836958D01*
X168038607Y-111762691D01*
X167957146Y-111708261D01*
X167793339Y-111544454D01*
X167698180Y-111402038D01*
X167664642Y-111351845D01*
X167575993Y-111137827D01*
X167539229Y-110953000D01*
X167530800Y-110910627D01*
X167530800Y-110678973D01*
X167550270Y-110581092D01*
X167575993Y-110451773D01*
X167664642Y-110237755D01*
X167719640Y-110155445D01*
X167793339Y-110045146D01*
X167957146Y-109881339D01*
X168149754Y-109752643D01*
X168149755Y-109752642D01*
X168363773Y-109663993D01*
X168569155Y-109623140D01*
X168590973Y-109618800D01*
X168822627Y-109618800D01*
X168844445Y-109623140D01*
X168844445Y-109623140D01*
G37*
G36*
X111197399Y-110704545D02*
G01*
X111234895Y-110715920D01*
X111269454Y-110734392D01*
X111299747Y-110759253D01*
X111324608Y-110789546D01*
X111343080Y-110824105D01*
X111354455Y-110861601D01*
X111358900Y-110906738D01*
X111358900Y-111645462D01*
X111354455Y-111690599D01*
X111343080Y-111728095D01*
X111324608Y-111762654D01*
X111299747Y-111792947D01*
X111269454Y-111817808D01*
X111234895Y-111836280D01*
X111197399Y-111847655D01*
X111152262Y-111852100D01*
X110513538Y-111852100D01*
X110468401Y-111847655D01*
X110430905Y-111836280D01*
X110396346Y-111817808D01*
X110366053Y-111792947D01*
X110341192Y-111762654D01*
X110322720Y-111728095D01*
X110311345Y-111690599D01*
X110306900Y-111645462D01*
X110306900Y-110906738D01*
X110311345Y-110861601D01*
X110322720Y-110824105D01*
X110341192Y-110789546D01*
X110366053Y-110759253D01*
X110396346Y-110734392D01*
X110430905Y-110715920D01*
X110468401Y-110704545D01*
X110513538Y-110700100D01*
X111152262Y-110700100D01*
X111197399Y-110704545D01*
X111197399Y-110704545D01*
G37*
G36*
X116277399Y-110704545D02*
G01*
X116314895Y-110715920D01*
X116349454Y-110734392D01*
X116379747Y-110759253D01*
X116404608Y-110789546D01*
X116423080Y-110824105D01*
X116434455Y-110861601D01*
X116438900Y-110906738D01*
X116438900Y-111645462D01*
X116434455Y-111690599D01*
X116423080Y-111728095D01*
X116404608Y-111762654D01*
X116379747Y-111792947D01*
X116349454Y-111817808D01*
X116314895Y-111836280D01*
X116277399Y-111847655D01*
X116232262Y-111852100D01*
X115593538Y-111852100D01*
X115548401Y-111847655D01*
X115510905Y-111836280D01*
X115476346Y-111817808D01*
X115446053Y-111792947D01*
X115421192Y-111762654D01*
X115402720Y-111728095D01*
X115391345Y-111690599D01*
X115386900Y-111645462D01*
X115386900Y-110906738D01*
X115391345Y-110861601D01*
X115402720Y-110824105D01*
X115421192Y-110789546D01*
X115446053Y-110759253D01*
X115476346Y-110734392D01*
X115510905Y-110715920D01*
X115548401Y-110704545D01*
X115593538Y-110700100D01*
X116232262Y-110700100D01*
X116277399Y-110704545D01*
X116277399Y-110704545D01*
G37*
G36*
X114259899Y-109100437D02*
G01*
X114269508Y-109103352D01*
X114278372Y-109108090D01*
X114286137Y-109114463D01*
X114292510Y-109122228D01*
X114297248Y-109131092D01*
X114300163Y-109140701D01*
X114301752Y-109156840D01*
X114301752Y-110294560D01*
X114300163Y-110310699D01*
X114297248Y-110320308D01*
X114292510Y-110329172D01*
X114286137Y-110336937D01*
X114273163Y-110347584D01*
X114263932Y-110353753D01*
X114246606Y-110371081D01*
X114232993Y-110391456D01*
X114223617Y-110414095D01*
X114218837Y-110438128D01*
X114218838Y-110462632D01*
X114223620Y-110486665D01*
X114232998Y-110509304D01*
X114246613Y-110529678D01*
X114263941Y-110547004D01*
X114273217Y-110553875D01*
X114278327Y-110558060D01*
X114286099Y-110564425D01*
X114292481Y-110572184D01*
X114297226Y-110581039D01*
X114298151Y-110584077D01*
X114300142Y-110590615D01*
X114300142Y-110590618D01*
X114300152Y-110590650D01*
X114301147Y-110600700D01*
X114301147Y-110600765D01*
X114301752Y-110606875D01*
X114301752Y-111594560D01*
X114300163Y-111610699D01*
X114297248Y-111620308D01*
X114292510Y-111629172D01*
X114286137Y-111636937D01*
X114278372Y-111643310D01*
X114269508Y-111648048D01*
X114259899Y-111650963D01*
X114243760Y-111652552D01*
X112756040Y-111652552D01*
X112739901Y-111650963D01*
X112730292Y-111648048D01*
X112721428Y-111643310D01*
X112713663Y-111636937D01*
X112707290Y-111629172D01*
X112702552Y-111620308D01*
X112699637Y-111610699D01*
X112698048Y-111594560D01*
X112698048Y-110606840D01*
X112699637Y-110590701D01*
X112702552Y-110581092D01*
X112707290Y-110572228D01*
X112713642Y-110564488D01*
X112713643Y-110564487D01*
X112713663Y-110564463D01*
X112721473Y-110558060D01*
X112721528Y-110558023D01*
X112731047Y-110550220D01*
X112731022Y-110550189D01*
X112744872Y-110538847D01*
X112760437Y-110519921D01*
X112772011Y-110498323D01*
X112779149Y-110474881D01*
X112781576Y-110450498D01*
X112779200Y-110426109D01*
X112772111Y-110402653D01*
X112760582Y-110381030D01*
X112745057Y-110362072D01*
X112726131Y-110346507D01*
X112723075Y-110344671D01*
X112721386Y-110343282D01*
X112721384Y-110343281D01*
X112713625Y-110336899D01*
X112711503Y-110334308D01*
X112707258Y-110329125D01*
X112704109Y-110323217D01*
X112702533Y-110320262D01*
X112699627Y-110310645D01*
X112699618Y-110310615D01*
X112698048Y-110294587D01*
X112698048Y-109156840D01*
X112699637Y-109140701D01*
X112702552Y-109131092D01*
X112707290Y-109122228D01*
X112713663Y-109114463D01*
X112721428Y-109108090D01*
X112730292Y-109103352D01*
X112739901Y-109100437D01*
X112756040Y-109098848D01*
X114243760Y-109098848D01*
X114259899Y-109100437D01*
X114259899Y-109100437D01*
G37*
G36*
X98737178Y-108718195D02*
G01*
X98895027Y-108749593D01*
X99109045Y-108838242D01*
X99119051Y-108844928D01*
X99301654Y-108966939D01*
X99465461Y-109130746D01*
X99551258Y-109259151D01*
X99594158Y-109323355D01*
X99682807Y-109537373D01*
X99699004Y-109618800D01*
X99728000Y-109764573D01*
X99728000Y-109996227D01*
X99715625Y-110058438D01*
X99682807Y-110223427D01*
X99594158Y-110437445D01*
X99570137Y-110473395D01*
X99465461Y-110630054D01*
X99301654Y-110793861D01*
X99178770Y-110875969D01*
X99109045Y-110922558D01*
X98895027Y-111011207D01*
X98794349Y-111031233D01*
X98667827Y-111056400D01*
X98436173Y-111056400D01*
X98309651Y-111031233D01*
X98208973Y-111011207D01*
X97994955Y-110922558D01*
X97925230Y-110875969D01*
X97802346Y-110793861D01*
X97638539Y-110630054D01*
X97533863Y-110473395D01*
X97509842Y-110437445D01*
X97421193Y-110223427D01*
X97388375Y-110058438D01*
X97376000Y-109996227D01*
X97376000Y-109764573D01*
X97404996Y-109618800D01*
X97421193Y-109537373D01*
X97509842Y-109323355D01*
X97552742Y-109259151D01*
X97638539Y-109130746D01*
X97802346Y-108966939D01*
X97984949Y-108844928D01*
X97994955Y-108838242D01*
X98208973Y-108749593D01*
X98366822Y-108718195D01*
X98436173Y-108704400D01*
X98667827Y-108704400D01*
X98737178Y-108718195D01*
X98737178Y-108718195D01*
G37*
G36*
X103817178Y-108718195D02*
G01*
X103975027Y-108749593D01*
X104189045Y-108838242D01*
X104199051Y-108844928D01*
X104381654Y-108966939D01*
X104545461Y-109130746D01*
X104631258Y-109259151D01*
X104674158Y-109323355D01*
X104762807Y-109537373D01*
X104779004Y-109618800D01*
X104808000Y-109764573D01*
X104808000Y-109996227D01*
X104795625Y-110058438D01*
X104762807Y-110223427D01*
X104674158Y-110437445D01*
X104650137Y-110473395D01*
X104545461Y-110630054D01*
X104381654Y-110793861D01*
X104258770Y-110875969D01*
X104189045Y-110922558D01*
X103975027Y-111011207D01*
X103874349Y-111031233D01*
X103747827Y-111056400D01*
X103516173Y-111056400D01*
X103389651Y-111031233D01*
X103288973Y-111011207D01*
X103074955Y-110922558D01*
X103005230Y-110875969D01*
X102882346Y-110793861D01*
X102718539Y-110630054D01*
X102613863Y-110473395D01*
X102589842Y-110437445D01*
X102501193Y-110223427D01*
X102468375Y-110058438D01*
X102456000Y-109996227D01*
X102456000Y-109764573D01*
X102484996Y-109618800D01*
X102501193Y-109537373D01*
X102589842Y-109323355D01*
X102632742Y-109259151D01*
X102718539Y-109130746D01*
X102882346Y-108966939D01*
X103064949Y-108844928D01*
X103074955Y-108838242D01*
X103288973Y-108749593D01*
X103446822Y-108718195D01*
X103516173Y-108704400D01*
X103747827Y-108704400D01*
X103817178Y-108718195D01*
X103817178Y-108718195D01*
G37*
G36*
X151951699Y-109856245D02*
G01*
X151989195Y-109867620D01*
X152023754Y-109886092D01*
X152054047Y-109910953D01*
X152078908Y-109941246D01*
X152097380Y-109975805D01*
X152108755Y-110013301D01*
X152113200Y-110058438D01*
X152113200Y-110797162D01*
X152108755Y-110842299D01*
X152097380Y-110879795D01*
X152078908Y-110914354D01*
X152054047Y-110944647D01*
X152023754Y-110969508D01*
X151989195Y-110987980D01*
X151951699Y-110999355D01*
X151906562Y-111003800D01*
X151267838Y-111003800D01*
X151222701Y-110999355D01*
X151185205Y-110987980D01*
X151150646Y-110969508D01*
X151120353Y-110944647D01*
X151095492Y-110914354D01*
X151077020Y-110879795D01*
X151065645Y-110842299D01*
X151061200Y-110797162D01*
X151061200Y-110058438D01*
X151065645Y-110013301D01*
X151077020Y-109975805D01*
X151095492Y-109941246D01*
X151120353Y-109910953D01*
X151150646Y-109886092D01*
X151185205Y-109867620D01*
X151222701Y-109856245D01*
X151267838Y-109851800D01*
X151906562Y-109851800D01*
X151951699Y-109856245D01*
X151951699Y-109856245D01*
G37*
G36*
X149106899Y-109805445D02*
G01*
X149144395Y-109816820D01*
X149178954Y-109835292D01*
X149209247Y-109860153D01*
X149234108Y-109890446D01*
X149252580Y-109925005D01*
X149263955Y-109962501D01*
X149268400Y-110007638D01*
X149268400Y-110746362D01*
X149263955Y-110791499D01*
X149252580Y-110828995D01*
X149234108Y-110863554D01*
X149209247Y-110893847D01*
X149178954Y-110918708D01*
X149144395Y-110937180D01*
X149106899Y-110948555D01*
X149061762Y-110953000D01*
X148423038Y-110953000D01*
X148377901Y-110948555D01*
X148340405Y-110937180D01*
X148305846Y-110918708D01*
X148275553Y-110893847D01*
X148250692Y-110863554D01*
X148232220Y-110828995D01*
X148220845Y-110791499D01*
X148216400Y-110746362D01*
X148216400Y-110007638D01*
X148220845Y-109962501D01*
X148232220Y-109925005D01*
X148250692Y-109890446D01*
X148275553Y-109860153D01*
X148305846Y-109835292D01*
X148340405Y-109816820D01*
X148377901Y-109805445D01*
X148423038Y-109801000D01*
X149061762Y-109801000D01*
X149106899Y-109805445D01*
X149106899Y-109805445D01*
G37*
G36*
X125688099Y-109449845D02*
G01*
X125725595Y-109461220D01*
X125760154Y-109479692D01*
X125790447Y-109504553D01*
X125815308Y-109534846D01*
X125833780Y-109569405D01*
X125845155Y-109606901D01*
X125849600Y-109652038D01*
X125849600Y-110390762D01*
X125845155Y-110435899D01*
X125833780Y-110473395D01*
X125815308Y-110507954D01*
X125790447Y-110538247D01*
X125760154Y-110563108D01*
X125725595Y-110581580D01*
X125688099Y-110592955D01*
X125642962Y-110597400D01*
X125004238Y-110597400D01*
X124959101Y-110592955D01*
X124921605Y-110581580D01*
X124887046Y-110563108D01*
X124856753Y-110538247D01*
X124831892Y-110507954D01*
X124813420Y-110473395D01*
X124802045Y-110435899D01*
X124797600Y-110390762D01*
X124797600Y-109652038D01*
X124802045Y-109606901D01*
X124813420Y-109569405D01*
X124831892Y-109534846D01*
X124856753Y-109504553D01*
X124887046Y-109479692D01*
X124921605Y-109461220D01*
X124959101Y-109449845D01*
X125004238Y-109445400D01*
X125642962Y-109445400D01*
X125688099Y-109449845D01*
X125688099Y-109449845D01*
G37*
G36*
X159368499Y-109269445D02*
G01*
X159405995Y-109280820D01*
X159440554Y-109299292D01*
X159470847Y-109324153D01*
X159495708Y-109354446D01*
X159514180Y-109389005D01*
X159525555Y-109426501D01*
X159530000Y-109471638D01*
X159530000Y-110210362D01*
X159525555Y-110255499D01*
X159514180Y-110292995D01*
X159495708Y-110327554D01*
X159470847Y-110357847D01*
X159440554Y-110382708D01*
X159405995Y-110401180D01*
X159368499Y-110412555D01*
X159323362Y-110417000D01*
X158684638Y-110417000D01*
X158639501Y-110412555D01*
X158602005Y-110401180D01*
X158567446Y-110382708D01*
X158537153Y-110357847D01*
X158512292Y-110327554D01*
X158493820Y-110292995D01*
X158482445Y-110255499D01*
X158478000Y-110210362D01*
X158478000Y-109471638D01*
X158482445Y-109426501D01*
X158493820Y-109389005D01*
X158512292Y-109354446D01*
X158537153Y-109324153D01*
X158567446Y-109299292D01*
X158602005Y-109280820D01*
X158639501Y-109269445D01*
X158684638Y-109265000D01*
X159323362Y-109265000D01*
X159368499Y-109269445D01*
X159368499Y-109269445D01*
G37*
G36*
X133079928Y-109506764D02*
G01*
X133101009Y-109513160D01*
X133120445Y-109523548D01*
X133137476Y-109537524D01*
X133151452Y-109554555D01*
X133161840Y-109573991D01*
X133168236Y-109595072D01*
X133171000Y-109623140D01*
X133171000Y-110086860D01*
X133168236Y-110114928D01*
X133161840Y-110136009D01*
X133151452Y-110155445D01*
X133137476Y-110172476D01*
X133120445Y-110186452D01*
X133101009Y-110196840D01*
X133079928Y-110203236D01*
X133051860Y-110206000D01*
X131238140Y-110206000D01*
X131210072Y-110203236D01*
X131188991Y-110196840D01*
X131169555Y-110186452D01*
X131152524Y-110172476D01*
X131138548Y-110155445D01*
X131128160Y-110136009D01*
X131121764Y-110114928D01*
X131119000Y-110086860D01*
X131119000Y-109623140D01*
X131121764Y-109595072D01*
X131128160Y-109573991D01*
X131138548Y-109554555D01*
X131152524Y-109537524D01*
X131169555Y-109523548D01*
X131188991Y-109513160D01*
X131210072Y-109506764D01*
X131238140Y-109504000D01*
X133051860Y-109504000D01*
X133079928Y-109506764D01*
X133079928Y-109506764D01*
G37*
G36*
X138029928Y-109506764D02*
G01*
X138051009Y-109513160D01*
X138070445Y-109523548D01*
X138087476Y-109537524D01*
X138101452Y-109554555D01*
X138111840Y-109573991D01*
X138118236Y-109595072D01*
X138121000Y-109623140D01*
X138121000Y-110086860D01*
X138118236Y-110114928D01*
X138111840Y-110136009D01*
X138101452Y-110155445D01*
X138087476Y-110172476D01*
X138070445Y-110186452D01*
X138051009Y-110196840D01*
X138029928Y-110203236D01*
X138001860Y-110206000D01*
X136188140Y-110206000D01*
X136160072Y-110203236D01*
X136138991Y-110196840D01*
X136119555Y-110186452D01*
X136102524Y-110172476D01*
X136088548Y-110155445D01*
X136078160Y-110136009D01*
X136071764Y-110114928D01*
X136069000Y-110086860D01*
X136069000Y-109623140D01*
X136071764Y-109595072D01*
X136078160Y-109573991D01*
X136088548Y-109554555D01*
X136102524Y-109537524D01*
X136119555Y-109523548D01*
X136138991Y-109513160D01*
X136160072Y-109506764D01*
X136188140Y-109504000D01*
X138001860Y-109504000D01*
X138029928Y-109506764D01*
X138029928Y-109506764D01*
G37*
G36*
X121685499Y-109155645D02*
G01*
X121722995Y-109167020D01*
X121757554Y-109185492D01*
X121787847Y-109210353D01*
X121812708Y-109240646D01*
X121831180Y-109275205D01*
X121842555Y-109312701D01*
X121847000Y-109357838D01*
X121847000Y-109996562D01*
X121842555Y-110041699D01*
X121831180Y-110079195D01*
X121812708Y-110113754D01*
X121787847Y-110144047D01*
X121757554Y-110168908D01*
X121722995Y-110187380D01*
X121685499Y-110198755D01*
X121640362Y-110203200D01*
X120901638Y-110203200D01*
X120856501Y-110198755D01*
X120819005Y-110187380D01*
X120784446Y-110168908D01*
X120754153Y-110144047D01*
X120729292Y-110113754D01*
X120710820Y-110079195D01*
X120699445Y-110041699D01*
X120695000Y-109996562D01*
X120695000Y-109357838D01*
X120699445Y-109312701D01*
X120710820Y-109275205D01*
X120729292Y-109240646D01*
X120754153Y-109210353D01*
X120784446Y-109185492D01*
X120819005Y-109167020D01*
X120856501Y-109155645D01*
X120901638Y-109151200D01*
X121640362Y-109151200D01*
X121685499Y-109155645D01*
X121685499Y-109155645D01*
G37*
G36*
X119935499Y-109155645D02*
G01*
X119972995Y-109167020D01*
X120007554Y-109185492D01*
X120037847Y-109210353D01*
X120062708Y-109240646D01*
X120081180Y-109275205D01*
X120092555Y-109312701D01*
X120097000Y-109357838D01*
X120097000Y-109996562D01*
X120092555Y-110041699D01*
X120081180Y-110079195D01*
X120062708Y-110113754D01*
X120037847Y-110144047D01*
X120007554Y-110168908D01*
X119972995Y-110187380D01*
X119935499Y-110198755D01*
X119890362Y-110203200D01*
X119151638Y-110203200D01*
X119106501Y-110198755D01*
X119069005Y-110187380D01*
X119034446Y-110168908D01*
X119004153Y-110144047D01*
X118979292Y-110113754D01*
X118960820Y-110079195D01*
X118949445Y-110041699D01*
X118945000Y-109996562D01*
X118945000Y-109357838D01*
X118949445Y-109312701D01*
X118960820Y-109275205D01*
X118979292Y-109240646D01*
X119004153Y-109210353D01*
X119034446Y-109185492D01*
X119069005Y-109167020D01*
X119106501Y-109155645D01*
X119151638Y-109151200D01*
X119890362Y-109151200D01*
X119935499Y-109155645D01*
X119935499Y-109155645D01*
G37*
G36*
X111197399Y-108954545D02*
G01*
X111234895Y-108965920D01*
X111269454Y-108984392D01*
X111299747Y-109009253D01*
X111324608Y-109039546D01*
X111343080Y-109074105D01*
X111354455Y-109111601D01*
X111358900Y-109156738D01*
X111358900Y-109895462D01*
X111354455Y-109940599D01*
X111343080Y-109978095D01*
X111324608Y-110012654D01*
X111299747Y-110042947D01*
X111269454Y-110067808D01*
X111234895Y-110086280D01*
X111197399Y-110097655D01*
X111152262Y-110102100D01*
X110513538Y-110102100D01*
X110468401Y-110097655D01*
X110430905Y-110086280D01*
X110396346Y-110067808D01*
X110366053Y-110042947D01*
X110341192Y-110012654D01*
X110322720Y-109978095D01*
X110311345Y-109940599D01*
X110306900Y-109895462D01*
X110306900Y-109156738D01*
X110311345Y-109111601D01*
X110322720Y-109074105D01*
X110341192Y-109039546D01*
X110366053Y-109009253D01*
X110396346Y-108984392D01*
X110430905Y-108965920D01*
X110468401Y-108954545D01*
X110513538Y-108950100D01*
X111152262Y-108950100D01*
X111197399Y-108954545D01*
X111197399Y-108954545D01*
G37*
G36*
X116277399Y-108954545D02*
G01*
X116314895Y-108965920D01*
X116349454Y-108984392D01*
X116379747Y-109009253D01*
X116404608Y-109039546D01*
X116423080Y-109074105D01*
X116434455Y-109111601D01*
X116438900Y-109156738D01*
X116438900Y-109895462D01*
X116434455Y-109940599D01*
X116423080Y-109978095D01*
X116404608Y-110012654D01*
X116379747Y-110042947D01*
X116349454Y-110067808D01*
X116314895Y-110086280D01*
X116277399Y-110097655D01*
X116232262Y-110102100D01*
X115593538Y-110102100D01*
X115548401Y-110097655D01*
X115510905Y-110086280D01*
X115476346Y-110067808D01*
X115446053Y-110042947D01*
X115421192Y-110012654D01*
X115402720Y-109978095D01*
X115391345Y-109940599D01*
X115386900Y-109895462D01*
X115386900Y-109156738D01*
X115391345Y-109111601D01*
X115402720Y-109074105D01*
X115421192Y-109039546D01*
X115446053Y-109009253D01*
X115476346Y-108984392D01*
X115510905Y-108965920D01*
X115548401Y-108954545D01*
X115593538Y-108950100D01*
X116232262Y-108950100D01*
X116277399Y-108954545D01*
X116277399Y-108954545D01*
G37*
G36*
X128685299Y-107948645D02*
G01*
X128722795Y-107960020D01*
X128757354Y-107978492D01*
X128787647Y-108003353D01*
X128812508Y-108033646D01*
X128830980Y-108068205D01*
X128842355Y-108105701D01*
X128846800Y-108150838D01*
X128846800Y-108889562D01*
X128842355Y-108934699D01*
X128830980Y-108972195D01*
X128812508Y-109006754D01*
X128787647Y-109037047D01*
X128757354Y-109061908D01*
X128722795Y-109080380D01*
X128685299Y-109091755D01*
X128640162Y-109096200D01*
X128001438Y-109096200D01*
X127956301Y-109091755D01*
X127918805Y-109080380D01*
X127884246Y-109061908D01*
X127853953Y-109037047D01*
X127829092Y-109006754D01*
X127810620Y-108972195D01*
X127799245Y-108934699D01*
X127794800Y-108889562D01*
X127794800Y-108150838D01*
X127799245Y-108105701D01*
X127810620Y-108068205D01*
X127829092Y-108033646D01*
X127853953Y-108003353D01*
X127884246Y-107978492D01*
X127918805Y-107960020D01*
X127956301Y-107948645D01*
X128001438Y-107944200D01*
X128640162Y-107944200D01*
X128685299Y-107948645D01*
X128685299Y-107948645D01*
G37*
G36*
X133079928Y-108236764D02*
G01*
X133101009Y-108243160D01*
X133120445Y-108253548D01*
X133137476Y-108267524D01*
X133151452Y-108284555D01*
X133161840Y-108303991D01*
X133168236Y-108325072D01*
X133171000Y-108353140D01*
X133171000Y-108816860D01*
X133168236Y-108844928D01*
X133161840Y-108866009D01*
X133151452Y-108885445D01*
X133137476Y-108902476D01*
X133120445Y-108916452D01*
X133101009Y-108926840D01*
X133079928Y-108933236D01*
X133051860Y-108936000D01*
X131238140Y-108936000D01*
X131210072Y-108933236D01*
X131188991Y-108926840D01*
X131169555Y-108916452D01*
X131152524Y-108902476D01*
X131138548Y-108885445D01*
X131128160Y-108866009D01*
X131121764Y-108844928D01*
X131119000Y-108816860D01*
X131119000Y-108353140D01*
X131121764Y-108325072D01*
X131128160Y-108303991D01*
X131138548Y-108284555D01*
X131152524Y-108267524D01*
X131169555Y-108253548D01*
X131188991Y-108243160D01*
X131210072Y-108236764D01*
X131238140Y-108234000D01*
X133051860Y-108234000D01*
X133079928Y-108236764D01*
X133079928Y-108236764D01*
G37*
G36*
X138029928Y-108236764D02*
G01*
X138051009Y-108243160D01*
X138070445Y-108253548D01*
X138087476Y-108267524D01*
X138101452Y-108284555D01*
X138111840Y-108303991D01*
X138118236Y-108325072D01*
X138121000Y-108353140D01*
X138121000Y-108816860D01*
X138118236Y-108844928D01*
X138111840Y-108866009D01*
X138101452Y-108885445D01*
X138087476Y-108902476D01*
X138070445Y-108916452D01*
X138051009Y-108926840D01*
X138029928Y-108933236D01*
X138001860Y-108936000D01*
X136188140Y-108936000D01*
X136160072Y-108933236D01*
X136138991Y-108926840D01*
X136119555Y-108916452D01*
X136102524Y-108902476D01*
X136088548Y-108885445D01*
X136078160Y-108866009D01*
X136071764Y-108844928D01*
X136069000Y-108816860D01*
X136069000Y-108353140D01*
X136071764Y-108325072D01*
X136078160Y-108303991D01*
X136088548Y-108284555D01*
X136102524Y-108267524D01*
X136119555Y-108253548D01*
X136138991Y-108243160D01*
X136160072Y-108236764D01*
X136188140Y-108234000D01*
X138001860Y-108234000D01*
X138029928Y-108236764D01*
X138029928Y-108236764D01*
G37*
G36*
X142071099Y-107694645D02*
G01*
X142108595Y-107706020D01*
X142143154Y-107724492D01*
X142173447Y-107749353D01*
X142198308Y-107779646D01*
X142216780Y-107814205D01*
X142228155Y-107851701D01*
X142232600Y-107896838D01*
X142232600Y-108635562D01*
X142228155Y-108680699D01*
X142216780Y-108718195D01*
X142198308Y-108752754D01*
X142173447Y-108783047D01*
X142143154Y-108807908D01*
X142108595Y-108826380D01*
X142071099Y-108837755D01*
X142025962Y-108842200D01*
X141387238Y-108842200D01*
X141342101Y-108837755D01*
X141304605Y-108826380D01*
X141270046Y-108807908D01*
X141239753Y-108783047D01*
X141214892Y-108752754D01*
X141196420Y-108718195D01*
X141185045Y-108680699D01*
X141180600Y-108635562D01*
X141180600Y-107896838D01*
X141185045Y-107851701D01*
X141196420Y-107814205D01*
X141214892Y-107779646D01*
X141239753Y-107749353D01*
X141270046Y-107724492D01*
X141304605Y-107706020D01*
X141342101Y-107694645D01*
X141387238Y-107690200D01*
X142025962Y-107690200D01*
X142071099Y-107694645D01*
X142071099Y-107694645D01*
G37*
G36*
X144611099Y-107694645D02*
G01*
X144648595Y-107706020D01*
X144683154Y-107724492D01*
X144713447Y-107749353D01*
X144738308Y-107779646D01*
X144756780Y-107814205D01*
X144768155Y-107851701D01*
X144772600Y-107896838D01*
X144772600Y-108635562D01*
X144768155Y-108680699D01*
X144756780Y-108718195D01*
X144738308Y-108752754D01*
X144713447Y-108783047D01*
X144683154Y-108807908D01*
X144648595Y-108826380D01*
X144611099Y-108837755D01*
X144565962Y-108842200D01*
X143927238Y-108842200D01*
X143882101Y-108837755D01*
X143844605Y-108826380D01*
X143810046Y-108807908D01*
X143779753Y-108783047D01*
X143754892Y-108752754D01*
X143736420Y-108718195D01*
X143725045Y-108680699D01*
X143720600Y-108635562D01*
X143720600Y-107896838D01*
X143725045Y-107851701D01*
X143736420Y-107814205D01*
X143754892Y-107779646D01*
X143779753Y-107749353D01*
X143810046Y-107724492D01*
X143844605Y-107706020D01*
X143882101Y-107694645D01*
X143927238Y-107690200D01*
X144565962Y-107690200D01*
X144611099Y-107694645D01*
X144611099Y-107694645D01*
G37*
G36*
X159368499Y-107519445D02*
G01*
X159405995Y-107530820D01*
X159440554Y-107549292D01*
X159470847Y-107574153D01*
X159495708Y-107604446D01*
X159514180Y-107639005D01*
X159525555Y-107676501D01*
X159530000Y-107721638D01*
X159530000Y-108460362D01*
X159525555Y-108505499D01*
X159514180Y-108542995D01*
X159495708Y-108577554D01*
X159470847Y-108607847D01*
X159440554Y-108632708D01*
X159405995Y-108651180D01*
X159368499Y-108662555D01*
X159323362Y-108667000D01*
X158684638Y-108667000D01*
X158639501Y-108662555D01*
X158602005Y-108651180D01*
X158567446Y-108632708D01*
X158537153Y-108607847D01*
X158512292Y-108577554D01*
X158493820Y-108542995D01*
X158482445Y-108505499D01*
X158478000Y-108460362D01*
X158478000Y-107721638D01*
X158482445Y-107676501D01*
X158493820Y-107639005D01*
X158512292Y-107604446D01*
X158537153Y-107574153D01*
X158567446Y-107549292D01*
X158602005Y-107530820D01*
X158639501Y-107519445D01*
X158684638Y-107515000D01*
X159323362Y-107515000D01*
X159368499Y-107519445D01*
X159368499Y-107519445D01*
G37*
G36*
X138029928Y-106966764D02*
G01*
X138051009Y-106973160D01*
X138070445Y-106983548D01*
X138087476Y-106997524D01*
X138101452Y-107014555D01*
X138111840Y-107033991D01*
X138118236Y-107055072D01*
X138121000Y-107083140D01*
X138121000Y-107546860D01*
X138118236Y-107574928D01*
X138111840Y-107596009D01*
X138101452Y-107615445D01*
X138087476Y-107632476D01*
X138070445Y-107646452D01*
X138051009Y-107656840D01*
X138029928Y-107663236D01*
X138001860Y-107666000D01*
X136188140Y-107666000D01*
X136160072Y-107663236D01*
X136138991Y-107656840D01*
X136119555Y-107646452D01*
X136102524Y-107632476D01*
X136088548Y-107615445D01*
X136078160Y-107596009D01*
X136071764Y-107574928D01*
X136069000Y-107546860D01*
X136069000Y-107083140D01*
X136071764Y-107055072D01*
X136078160Y-107033991D01*
X136088548Y-107014555D01*
X136102524Y-106997524D01*
X136119555Y-106983548D01*
X136138991Y-106973160D01*
X136160072Y-106966764D01*
X136188140Y-106964000D01*
X138001860Y-106964000D01*
X138029928Y-106966764D01*
X138029928Y-106966764D01*
G37*
G36*
X133079928Y-106966764D02*
G01*
X133101009Y-106973160D01*
X133120445Y-106983548D01*
X133137476Y-106997524D01*
X133151452Y-107014555D01*
X133161840Y-107033991D01*
X133168236Y-107055072D01*
X133171000Y-107083140D01*
X133171000Y-107546860D01*
X133168236Y-107574928D01*
X133161840Y-107596009D01*
X133151452Y-107615445D01*
X133137476Y-107632476D01*
X133120445Y-107646452D01*
X133101009Y-107656840D01*
X133079928Y-107663236D01*
X133051860Y-107666000D01*
X131238140Y-107666000D01*
X131210072Y-107663236D01*
X131188991Y-107656840D01*
X131169555Y-107646452D01*
X131152524Y-107632476D01*
X131138548Y-107615445D01*
X131128160Y-107596009D01*
X131121764Y-107574928D01*
X131119000Y-107546860D01*
X131119000Y-107083140D01*
X131121764Y-107055072D01*
X131128160Y-107033991D01*
X131138548Y-107014555D01*
X131152524Y-106997524D01*
X131169555Y-106983548D01*
X131188991Y-106973160D01*
X131210072Y-106966764D01*
X131238140Y-106964000D01*
X133051860Y-106964000D01*
X133079928Y-106966764D01*
X133079928Y-106966764D01*
G37*
G36*
X120138699Y-106310845D02*
G01*
X120176195Y-106322220D01*
X120210754Y-106340692D01*
X120241047Y-106365553D01*
X120265908Y-106395846D01*
X120284380Y-106430405D01*
X120295755Y-106467901D01*
X120300200Y-106513038D01*
X120300200Y-107151762D01*
X120295755Y-107196899D01*
X120284380Y-107234395D01*
X120265908Y-107268954D01*
X120241047Y-107299247D01*
X120210754Y-107324108D01*
X120176195Y-107342580D01*
X120138699Y-107353955D01*
X120093562Y-107358400D01*
X119354838Y-107358400D01*
X119309701Y-107353955D01*
X119272205Y-107342580D01*
X119237646Y-107324108D01*
X119207353Y-107299247D01*
X119182492Y-107268954D01*
X119164020Y-107234395D01*
X119152645Y-107196899D01*
X119148200Y-107151762D01*
X119148200Y-106513038D01*
X119152645Y-106467901D01*
X119164020Y-106430405D01*
X119182492Y-106395846D01*
X119207353Y-106365553D01*
X119237646Y-106340692D01*
X119272205Y-106322220D01*
X119309701Y-106310845D01*
X119354838Y-106306400D01*
X120093562Y-106306400D01*
X120138699Y-106310845D01*
X120138699Y-106310845D01*
G37*
G36*
X121888699Y-106310845D02*
G01*
X121926195Y-106322220D01*
X121960754Y-106340692D01*
X121991047Y-106365553D01*
X122015908Y-106395846D01*
X122034380Y-106430405D01*
X122045755Y-106467901D01*
X122050200Y-106513038D01*
X122050200Y-107151762D01*
X122045755Y-107196899D01*
X122034380Y-107234395D01*
X122015908Y-107268954D01*
X121991047Y-107299247D01*
X121960754Y-107324108D01*
X121926195Y-107342580D01*
X121888699Y-107353955D01*
X121843562Y-107358400D01*
X121104838Y-107358400D01*
X121059701Y-107353955D01*
X121022205Y-107342580D01*
X120987646Y-107324108D01*
X120957353Y-107299247D01*
X120932492Y-107268954D01*
X120914020Y-107234395D01*
X120902645Y-107196899D01*
X120898200Y-107151762D01*
X120898200Y-106513038D01*
X120902645Y-106467901D01*
X120914020Y-106430405D01*
X120932492Y-106395846D01*
X120957353Y-106365553D01*
X120987646Y-106340692D01*
X121022205Y-106322220D01*
X121059701Y-106310845D01*
X121104838Y-106306400D01*
X121843562Y-106306400D01*
X121888699Y-106310845D01*
X121888699Y-106310845D01*
G37*
G36*
X128685299Y-106198645D02*
G01*
X128722795Y-106210020D01*
X128757354Y-106228492D01*
X128787647Y-106253353D01*
X128812508Y-106283646D01*
X128830980Y-106318205D01*
X128842355Y-106355701D01*
X128846800Y-106400838D01*
X128846800Y-107139562D01*
X128842355Y-107184699D01*
X128830980Y-107222195D01*
X128812508Y-107256754D01*
X128787647Y-107287047D01*
X128757354Y-107311908D01*
X128722795Y-107330380D01*
X128685299Y-107341755D01*
X128640162Y-107346200D01*
X128001438Y-107346200D01*
X127956301Y-107341755D01*
X127918805Y-107330380D01*
X127884246Y-107311908D01*
X127853953Y-107287047D01*
X127829092Y-107256754D01*
X127810620Y-107222195D01*
X127799245Y-107184699D01*
X127794800Y-107139562D01*
X127794800Y-106400838D01*
X127799245Y-106355701D01*
X127810620Y-106318205D01*
X127829092Y-106283646D01*
X127853953Y-106253353D01*
X127884246Y-106228492D01*
X127918805Y-106210020D01*
X127956301Y-106198645D01*
X128001438Y-106194200D01*
X128640162Y-106194200D01*
X128685299Y-106198645D01*
X128685299Y-106198645D01*
G37*
G36*
X144611099Y-105944645D02*
G01*
X144648595Y-105956020D01*
X144683154Y-105974492D01*
X144713447Y-105999353D01*
X144738308Y-106029646D01*
X144756780Y-106064205D01*
X144768155Y-106101701D01*
X144772600Y-106146838D01*
X144772600Y-106885562D01*
X144768155Y-106930699D01*
X144756780Y-106968195D01*
X144738308Y-107002754D01*
X144713447Y-107033047D01*
X144683154Y-107057908D01*
X144648595Y-107076380D01*
X144611099Y-107087755D01*
X144565962Y-107092200D01*
X143927238Y-107092200D01*
X143882101Y-107087755D01*
X143844605Y-107076380D01*
X143810046Y-107057908D01*
X143779753Y-107033047D01*
X143754892Y-107002754D01*
X143736420Y-106968195D01*
X143725045Y-106930699D01*
X143720600Y-106885562D01*
X143720600Y-106146838D01*
X143725045Y-106101701D01*
X143736420Y-106064205D01*
X143754892Y-106029646D01*
X143779753Y-105999353D01*
X143810046Y-105974492D01*
X143844605Y-105956020D01*
X143882101Y-105944645D01*
X143927238Y-105940200D01*
X144565962Y-105940200D01*
X144611099Y-105944645D01*
X144611099Y-105944645D01*
G37*
G36*
X142071099Y-105944645D02*
G01*
X142108595Y-105956020D01*
X142143154Y-105974492D01*
X142173447Y-105999353D01*
X142198308Y-106029646D01*
X142216780Y-106064205D01*
X142228155Y-106101701D01*
X142232600Y-106146838D01*
X142232600Y-106885562D01*
X142228155Y-106930699D01*
X142216780Y-106968195D01*
X142198308Y-107002754D01*
X142173447Y-107033047D01*
X142143154Y-107057908D01*
X142108595Y-107076380D01*
X142071099Y-107087755D01*
X142025962Y-107092200D01*
X141387238Y-107092200D01*
X141342101Y-107087755D01*
X141304605Y-107076380D01*
X141270046Y-107057908D01*
X141239753Y-107033047D01*
X141214892Y-107002754D01*
X141196420Y-106968195D01*
X141185045Y-106930699D01*
X141180600Y-106885562D01*
X141180600Y-106146838D01*
X141185045Y-106101701D01*
X141196420Y-106064205D01*
X141214892Y-106029646D01*
X141239753Y-105999353D01*
X141270046Y-105974492D01*
X141304605Y-105956020D01*
X141342101Y-105944645D01*
X141387238Y-105940200D01*
X142025962Y-105940200D01*
X142071099Y-105944645D01*
X142071099Y-105944645D01*
G37*
G36*
X138029928Y-105696764D02*
G01*
X138051009Y-105703160D01*
X138070445Y-105713548D01*
X138087476Y-105727524D01*
X138101452Y-105744555D01*
X138111840Y-105763991D01*
X138118236Y-105785072D01*
X138121000Y-105813140D01*
X138121000Y-106276860D01*
X138118236Y-106304928D01*
X138111840Y-106326009D01*
X138101452Y-106345445D01*
X138087476Y-106362476D01*
X138070445Y-106376452D01*
X138051009Y-106386840D01*
X138029928Y-106393236D01*
X138001860Y-106396000D01*
X136188140Y-106396000D01*
X136160072Y-106393236D01*
X136138991Y-106386840D01*
X136119555Y-106376452D01*
X136102524Y-106362476D01*
X136088548Y-106345445D01*
X136078160Y-106326009D01*
X136071764Y-106304928D01*
X136069000Y-106276860D01*
X136069000Y-105813140D01*
X136071764Y-105785072D01*
X136078160Y-105763991D01*
X136088548Y-105744555D01*
X136102524Y-105727524D01*
X136119555Y-105713548D01*
X136138991Y-105703160D01*
X136160072Y-105696764D01*
X136188140Y-105694000D01*
X138001860Y-105694000D01*
X138029928Y-105696764D01*
X138029928Y-105696764D01*
G37*
G36*
X133079928Y-105696764D02*
G01*
X133101009Y-105703160D01*
X133120445Y-105713548D01*
X133137476Y-105727524D01*
X133151452Y-105744555D01*
X133161840Y-105763991D01*
X133168236Y-105785072D01*
X133171000Y-105813140D01*
X133171000Y-106276860D01*
X133168236Y-106304928D01*
X133161840Y-106326009D01*
X133151452Y-106345445D01*
X133137476Y-106362476D01*
X133120445Y-106376452D01*
X133101009Y-106386840D01*
X133079928Y-106393236D01*
X133051860Y-106396000D01*
X131238140Y-106396000D01*
X131210072Y-106393236D01*
X131188991Y-106386840D01*
X131169555Y-106376452D01*
X131152524Y-106362476D01*
X131138548Y-106345445D01*
X131128160Y-106326009D01*
X131121764Y-106304928D01*
X131119000Y-106276860D01*
X131119000Y-105813140D01*
X131121764Y-105785072D01*
X131128160Y-105763991D01*
X131138548Y-105744555D01*
X131152524Y-105727524D01*
X131169555Y-105713548D01*
X131188991Y-105703160D01*
X131210072Y-105696764D01*
X131238140Y-105694000D01*
X133051860Y-105694000D01*
X133079928Y-105696764D01*
X133079928Y-105696764D01*
G37*
G36*
X156686699Y-105345645D02*
G01*
X156724195Y-105357020D01*
X156758754Y-105375492D01*
X156789047Y-105400353D01*
X156813908Y-105430646D01*
X156832380Y-105465205D01*
X156843755Y-105502701D01*
X156848200Y-105547838D01*
X156848200Y-106186562D01*
X156843755Y-106231699D01*
X156832380Y-106269195D01*
X156813908Y-106303754D01*
X156789047Y-106334047D01*
X156758754Y-106358908D01*
X156724195Y-106377380D01*
X156686699Y-106388755D01*
X156641562Y-106393200D01*
X155902838Y-106393200D01*
X155857701Y-106388755D01*
X155820205Y-106377380D01*
X155785646Y-106358908D01*
X155755353Y-106334047D01*
X155730492Y-106303754D01*
X155712020Y-106269195D01*
X155700645Y-106231699D01*
X155696200Y-106186562D01*
X155696200Y-105547838D01*
X155700645Y-105502701D01*
X155712020Y-105465205D01*
X155730492Y-105430646D01*
X155755353Y-105400353D01*
X155785646Y-105375492D01*
X155820205Y-105357020D01*
X155857701Y-105345645D01*
X155902838Y-105341200D01*
X156641562Y-105341200D01*
X156686699Y-105345645D01*
X156686699Y-105345645D01*
G37*
G36*
X154936699Y-105345645D02*
G01*
X154974195Y-105357020D01*
X155008754Y-105375492D01*
X155039047Y-105400353D01*
X155063908Y-105430646D01*
X155082380Y-105465205D01*
X155093755Y-105502701D01*
X155098200Y-105547838D01*
X155098200Y-106186562D01*
X155093755Y-106231699D01*
X155082380Y-106269195D01*
X155063908Y-106303754D01*
X155039047Y-106334047D01*
X155008754Y-106358908D01*
X154974195Y-106377380D01*
X154936699Y-106388755D01*
X154891562Y-106393200D01*
X154152838Y-106393200D01*
X154107701Y-106388755D01*
X154070205Y-106377380D01*
X154035646Y-106358908D01*
X154005353Y-106334047D01*
X153980492Y-106303754D01*
X153962020Y-106269195D01*
X153950645Y-106231699D01*
X153946200Y-106186562D01*
X153946200Y-105547838D01*
X153950645Y-105502701D01*
X153962020Y-105465205D01*
X153980492Y-105430646D01*
X154005353Y-105400353D01*
X154035646Y-105375492D01*
X154070205Y-105357020D01*
X154107701Y-105345645D01*
X154152838Y-105341200D01*
X154891562Y-105341200D01*
X154936699Y-105345645D01*
X154936699Y-105345645D01*
G37*
G36*
X149157699Y-105205445D02*
G01*
X149195195Y-105216820D01*
X149229754Y-105235292D01*
X149260047Y-105260153D01*
X149284908Y-105290446D01*
X149303380Y-105325005D01*
X149314755Y-105362501D01*
X149319200Y-105407638D01*
X149319200Y-106146362D01*
X149314755Y-106191499D01*
X149303380Y-106228995D01*
X149284908Y-106263554D01*
X149260047Y-106293847D01*
X149229754Y-106318708D01*
X149195195Y-106337180D01*
X149157699Y-106348555D01*
X149112562Y-106353000D01*
X148473838Y-106353000D01*
X148428701Y-106348555D01*
X148391205Y-106337180D01*
X148356646Y-106318708D01*
X148326353Y-106293847D01*
X148301492Y-106263554D01*
X148283020Y-106228995D01*
X148271645Y-106191499D01*
X148267200Y-106146362D01*
X148267200Y-105407638D01*
X148271645Y-105362501D01*
X148283020Y-105325005D01*
X148301492Y-105290446D01*
X148326353Y-105260153D01*
X148356646Y-105235292D01*
X148391205Y-105216820D01*
X148428701Y-105205445D01*
X148473838Y-105201000D01*
X149112562Y-105201000D01*
X149157699Y-105205445D01*
X149157699Y-105205445D01*
G37*
G36*
X147165599Y-103626737D02*
G01*
X147175208Y-103629652D01*
X147184072Y-103634390D01*
X147191837Y-103640763D01*
X147198210Y-103648528D01*
X147202948Y-103657392D01*
X147205863Y-103667001D01*
X147207452Y-103683140D01*
X147207452Y-104820860D01*
X147205863Y-104836999D01*
X147202948Y-104846608D01*
X147198210Y-104855472D01*
X147191837Y-104863237D01*
X147178863Y-104873884D01*
X147169632Y-104880053D01*
X147152306Y-104897381D01*
X147138693Y-104917756D01*
X147129317Y-104940395D01*
X147124537Y-104964428D01*
X147124538Y-104988932D01*
X147129320Y-105012965D01*
X147138698Y-105035604D01*
X147152313Y-105055978D01*
X147169641Y-105073304D01*
X147178917Y-105080175D01*
X147184027Y-105084360D01*
X147191799Y-105090725D01*
X147198181Y-105098484D01*
X147202926Y-105107339D01*
X147202926Y-105107340D01*
X147205842Y-105116915D01*
X147205842Y-105116918D01*
X147205852Y-105116950D01*
X147206847Y-105127000D01*
X147206847Y-105127065D01*
X147207452Y-105133175D01*
X147207452Y-106120860D01*
X147205863Y-106136999D01*
X147202948Y-106146608D01*
X147198210Y-106155472D01*
X147191837Y-106163237D01*
X147184072Y-106169610D01*
X147175208Y-106174348D01*
X147165599Y-106177263D01*
X147149460Y-106178852D01*
X145661740Y-106178852D01*
X145645601Y-106177263D01*
X145635992Y-106174348D01*
X145627128Y-106169610D01*
X145619363Y-106163237D01*
X145612990Y-106155472D01*
X145608252Y-106146608D01*
X145605337Y-106136999D01*
X145603748Y-106120860D01*
X145603748Y-105133140D01*
X145605337Y-105117001D01*
X145608252Y-105107392D01*
X145612990Y-105098528D01*
X145619342Y-105090788D01*
X145619343Y-105090787D01*
X145619363Y-105090763D01*
X145627173Y-105084360D01*
X145627228Y-105084323D01*
X145636747Y-105076520D01*
X145636722Y-105076489D01*
X145650572Y-105065147D01*
X145666137Y-105046221D01*
X145677711Y-105024623D01*
X145684849Y-105001181D01*
X145687276Y-104976798D01*
X145684900Y-104952409D01*
X145677811Y-104928953D01*
X145666282Y-104907330D01*
X145650757Y-104888372D01*
X145631831Y-104872807D01*
X145628775Y-104870971D01*
X145627086Y-104869582D01*
X145627084Y-104869581D01*
X145619325Y-104863199D01*
X145617203Y-104860608D01*
X145612958Y-104855425D01*
X145609809Y-104849517D01*
X145608233Y-104846562D01*
X145605327Y-104836945D01*
X145605318Y-104836915D01*
X145603748Y-104820887D01*
X145603748Y-103683140D01*
X145605337Y-103667001D01*
X145608252Y-103657392D01*
X145612990Y-103648528D01*
X145619363Y-103640763D01*
X145627128Y-103634390D01*
X145635992Y-103629652D01*
X145645601Y-103626737D01*
X145661740Y-103625148D01*
X147149460Y-103625148D01*
X147165599Y-103626737D01*
X147165599Y-103626737D01*
G37*
G36*
X168948944Y-103608969D02*
G01*
X169126027Y-103644193D01*
X169340045Y-103732842D01*
X169340046Y-103732843D01*
X169532654Y-103861539D01*
X169696461Y-104025346D01*
X169729621Y-104074974D01*
X169825158Y-104217955D01*
X169913807Y-104431973D01*
X169934067Y-104533827D01*
X169959000Y-104659173D01*
X169959000Y-104890827D01*
X169952423Y-104923893D01*
X169913807Y-105118027D01*
X169825158Y-105332045D01*
X169789425Y-105385523D01*
X169696461Y-105524654D01*
X169532654Y-105688461D01*
X169448703Y-105744555D01*
X169340045Y-105817158D01*
X169126027Y-105905807D01*
X168974560Y-105935936D01*
X168898827Y-105951000D01*
X168667173Y-105951000D01*
X168591440Y-105935936D01*
X168439973Y-105905807D01*
X168225955Y-105817158D01*
X168117297Y-105744555D01*
X168033346Y-105688461D01*
X167869539Y-105524654D01*
X167776575Y-105385523D01*
X167740842Y-105332045D01*
X167652193Y-105118027D01*
X167613577Y-104923893D01*
X167607000Y-104890827D01*
X167607000Y-104659173D01*
X167631933Y-104533827D01*
X167652193Y-104431973D01*
X167740842Y-104217955D01*
X167836379Y-104074974D01*
X167869539Y-104025346D01*
X168033346Y-103861539D01*
X168225954Y-103732843D01*
X168225955Y-103732842D01*
X168439973Y-103644193D01*
X168617056Y-103608969D01*
X168667173Y-103599000D01*
X168898827Y-103599000D01*
X168948944Y-103608969D01*
X168948944Y-103608969D01*
G37*
G36*
X163868944Y-103608969D02*
G01*
X164046027Y-103644193D01*
X164260045Y-103732842D01*
X164260046Y-103732843D01*
X164452654Y-103861539D01*
X164616461Y-104025346D01*
X164649621Y-104074974D01*
X164745158Y-104217955D01*
X164833807Y-104431973D01*
X164854067Y-104533827D01*
X164879000Y-104659173D01*
X164879000Y-104890827D01*
X164872423Y-104923893D01*
X164833807Y-105118027D01*
X164745158Y-105332045D01*
X164709425Y-105385523D01*
X164616461Y-105524654D01*
X164452654Y-105688461D01*
X164368703Y-105744555D01*
X164260045Y-105817158D01*
X164046027Y-105905807D01*
X163894560Y-105935936D01*
X163818827Y-105951000D01*
X163587173Y-105951000D01*
X163511440Y-105935936D01*
X163359973Y-105905807D01*
X163145955Y-105817158D01*
X163037297Y-105744555D01*
X162953346Y-105688461D01*
X162789539Y-105524654D01*
X162696575Y-105385523D01*
X162660842Y-105332045D01*
X162572193Y-105118027D01*
X162533577Y-104923893D01*
X162527000Y-104890827D01*
X162527000Y-104659173D01*
X162551933Y-104533827D01*
X162572193Y-104431973D01*
X162660842Y-104217955D01*
X162756379Y-104074974D01*
X162789539Y-104025346D01*
X162953346Y-103861539D01*
X163145954Y-103732843D01*
X163145955Y-103732842D01*
X163359973Y-103644193D01*
X163537056Y-103608969D01*
X163587173Y-103599000D01*
X163818827Y-103599000D01*
X163868944Y-103608969D01*
X163868944Y-103608969D01*
G37*
G36*
X98743560Y-103029864D02*
G01*
X98895027Y-103059993D01*
X99109045Y-103148642D01*
X99109046Y-103148643D01*
X99301654Y-103277339D01*
X99465461Y-103441146D01*
X99521155Y-103524499D01*
X99594158Y-103633755D01*
X99682807Y-103847773D01*
X99712936Y-103999240D01*
X99728000Y-104074973D01*
X99728000Y-104306627D01*
X99721857Y-104337508D01*
X99682807Y-104533827D01*
X99594158Y-104747845D01*
X99594157Y-104747846D01*
X99465461Y-104940454D01*
X99301654Y-105104261D01*
X99173249Y-105190058D01*
X99109045Y-105232958D01*
X98895027Y-105321607D01*
X98771123Y-105346253D01*
X98667827Y-105366800D01*
X98436173Y-105366800D01*
X98332877Y-105346253D01*
X98208973Y-105321607D01*
X97994955Y-105232958D01*
X97930751Y-105190058D01*
X97802346Y-105104261D01*
X97638539Y-104940454D01*
X97509843Y-104747846D01*
X97509842Y-104747845D01*
X97421193Y-104533827D01*
X97382143Y-104337508D01*
X97376000Y-104306627D01*
X97376000Y-104074973D01*
X97391064Y-103999240D01*
X97421193Y-103847773D01*
X97509842Y-103633755D01*
X97582845Y-103524499D01*
X97638539Y-103441146D01*
X97802346Y-103277339D01*
X97994954Y-103148643D01*
X97994955Y-103148642D01*
X98208973Y-103059993D01*
X98360440Y-103029864D01*
X98436173Y-103014800D01*
X98667827Y-103014800D01*
X98743560Y-103029864D01*
X98743560Y-103029864D01*
G37*
G36*
X103823560Y-103029864D02*
G01*
X103975027Y-103059993D01*
X104189045Y-103148642D01*
X104189046Y-103148643D01*
X104381654Y-103277339D01*
X104545461Y-103441146D01*
X104601155Y-103524499D01*
X104674158Y-103633755D01*
X104762807Y-103847773D01*
X104792936Y-103999240D01*
X104808000Y-104074973D01*
X104808000Y-104306627D01*
X104801857Y-104337508D01*
X104762807Y-104533827D01*
X104674158Y-104747845D01*
X104674157Y-104747846D01*
X104545461Y-104940454D01*
X104381654Y-105104261D01*
X104253249Y-105190058D01*
X104189045Y-105232958D01*
X103975027Y-105321607D01*
X103851123Y-105346253D01*
X103747827Y-105366800D01*
X103516173Y-105366800D01*
X103412877Y-105346253D01*
X103288973Y-105321607D01*
X103074955Y-105232958D01*
X103010751Y-105190058D01*
X102882346Y-105104261D01*
X102718539Y-104940454D01*
X102589843Y-104747846D01*
X102589842Y-104747845D01*
X102501193Y-104533827D01*
X102462143Y-104337508D01*
X102456000Y-104306627D01*
X102456000Y-104074973D01*
X102471064Y-103999240D01*
X102501193Y-103847773D01*
X102589842Y-103633755D01*
X102662845Y-103524499D01*
X102718539Y-103441146D01*
X102882346Y-103277339D01*
X103074954Y-103148643D01*
X103074955Y-103148642D01*
X103288973Y-103059993D01*
X103440440Y-103029864D01*
X103516173Y-103014800D01*
X103747827Y-103014800D01*
X103823560Y-103029864D01*
X103823560Y-103029864D01*
G37*
G36*
X124397399Y-103390537D02*
G01*
X124407008Y-103393452D01*
X124415872Y-103398190D01*
X124423612Y-103404542D01*
X124423613Y-103404543D01*
X124423637Y-103404563D01*
X124430040Y-103412373D01*
X124430077Y-103412428D01*
X124437880Y-103421947D01*
X124437911Y-103421922D01*
X124449253Y-103435772D01*
X124468179Y-103451337D01*
X124489777Y-103462911D01*
X124513219Y-103470049D01*
X124537602Y-103472476D01*
X124561991Y-103470100D01*
X124585447Y-103463011D01*
X124607070Y-103451482D01*
X124626028Y-103435957D01*
X124641593Y-103417031D01*
X124643429Y-103413975D01*
X124644818Y-103412286D01*
X124644819Y-103412284D01*
X124651201Y-103404525D01*
X124658973Y-103398160D01*
X124658975Y-103398158D01*
X124667799Y-103393454D01*
X124667838Y-103393433D01*
X124677455Y-103390527D01*
X124677485Y-103390518D01*
X124693513Y-103388948D01*
X125831260Y-103388948D01*
X125847399Y-103390537D01*
X125857008Y-103393452D01*
X125865872Y-103398190D01*
X125873637Y-103404563D01*
X125880010Y-103412328D01*
X125884748Y-103421192D01*
X125887663Y-103430801D01*
X125889252Y-103446940D01*
X125889252Y-104934660D01*
X125887663Y-104950799D01*
X125884748Y-104960408D01*
X125880010Y-104969272D01*
X125873637Y-104977037D01*
X125865872Y-104983410D01*
X125857008Y-104988148D01*
X125847399Y-104991063D01*
X125831260Y-104992652D01*
X124693540Y-104992652D01*
X124677401Y-104991063D01*
X124667792Y-104988148D01*
X124658928Y-104983410D01*
X124651163Y-104977037D01*
X124640516Y-104964063D01*
X124634347Y-104954832D01*
X124617019Y-104937506D01*
X124596644Y-104923893D01*
X124574005Y-104914517D01*
X124549972Y-104909737D01*
X124525468Y-104909738D01*
X124501435Y-104914520D01*
X124478796Y-104923898D01*
X124458422Y-104937513D01*
X124441096Y-104954841D01*
X124434225Y-104964117D01*
X124430040Y-104969227D01*
X124423675Y-104976999D01*
X124415916Y-104983381D01*
X124407061Y-104988126D01*
X124404023Y-104989051D01*
X124397485Y-104991042D01*
X124397482Y-104991042D01*
X124397450Y-104991052D01*
X124387400Y-104992047D01*
X124387335Y-104992047D01*
X124381225Y-104992652D01*
X123393540Y-104992652D01*
X123377401Y-104991063D01*
X123367792Y-104988148D01*
X123358928Y-104983410D01*
X123351163Y-104977037D01*
X123344790Y-104969272D01*
X123340052Y-104960408D01*
X123337137Y-104950799D01*
X123335548Y-104934660D01*
X123335548Y-103446940D01*
X123337137Y-103430801D01*
X123340052Y-103421192D01*
X123344790Y-103412328D01*
X123351163Y-103404563D01*
X123358928Y-103398190D01*
X123367792Y-103393452D01*
X123377401Y-103390537D01*
X123393540Y-103388948D01*
X124381260Y-103388948D01*
X124397399Y-103390537D01*
X124397399Y-103390537D01*
G37*
G36*
X120189499Y-103618445D02*
G01*
X120226995Y-103629820D01*
X120261554Y-103648292D01*
X120291847Y-103673153D01*
X120316708Y-103703446D01*
X120335180Y-103738005D01*
X120346555Y-103775501D01*
X120351000Y-103820638D01*
X120351000Y-104459362D01*
X120346555Y-104504499D01*
X120335180Y-104541995D01*
X120316708Y-104576554D01*
X120291847Y-104606847D01*
X120261554Y-104631708D01*
X120226995Y-104650180D01*
X120189499Y-104661555D01*
X120144362Y-104666000D01*
X119405638Y-104666000D01*
X119360501Y-104661555D01*
X119323005Y-104650180D01*
X119288446Y-104631708D01*
X119258153Y-104606847D01*
X119233292Y-104576554D01*
X119214820Y-104541995D01*
X119203445Y-104504499D01*
X119199000Y-104459362D01*
X119199000Y-103820638D01*
X119203445Y-103775501D01*
X119214820Y-103738005D01*
X119233292Y-103703446D01*
X119258153Y-103673153D01*
X119288446Y-103648292D01*
X119323005Y-103629820D01*
X119360501Y-103618445D01*
X119405638Y-103614000D01*
X120144362Y-103614000D01*
X120189499Y-103618445D01*
X120189499Y-103618445D01*
G37*
G36*
X121939499Y-103618445D02*
G01*
X121976995Y-103629820D01*
X122011554Y-103648292D01*
X122041847Y-103673153D01*
X122066708Y-103703446D01*
X122085180Y-103738005D01*
X122096555Y-103775501D01*
X122101000Y-103820638D01*
X122101000Y-104459362D01*
X122096555Y-104504499D01*
X122085180Y-104541995D01*
X122066708Y-104576554D01*
X122041847Y-104606847D01*
X122011554Y-104631708D01*
X121976995Y-104650180D01*
X121939499Y-104661555D01*
X121894362Y-104666000D01*
X121155638Y-104666000D01*
X121110501Y-104661555D01*
X121073005Y-104650180D01*
X121038446Y-104631708D01*
X121008153Y-104606847D01*
X120983292Y-104576554D01*
X120964820Y-104541995D01*
X120953445Y-104504499D01*
X120949000Y-104459362D01*
X120949000Y-103820638D01*
X120953445Y-103775501D01*
X120964820Y-103738005D01*
X120983292Y-103703446D01*
X121008153Y-103673153D01*
X121038446Y-103648292D01*
X121073005Y-103629820D01*
X121110501Y-103618445D01*
X121155638Y-103614000D01*
X121894362Y-103614000D01*
X121939499Y-103618445D01*
X121939499Y-103618445D01*
G37*
G36*
X149157699Y-103455445D02*
G01*
X149195195Y-103466820D01*
X149229754Y-103485292D01*
X149260047Y-103510153D01*
X149284908Y-103540446D01*
X149303380Y-103575005D01*
X149314755Y-103612501D01*
X149319200Y-103657638D01*
X149319200Y-104396362D01*
X149314755Y-104441499D01*
X149303380Y-104478995D01*
X149284908Y-104513554D01*
X149260047Y-104543847D01*
X149229754Y-104568708D01*
X149195195Y-104587180D01*
X149157699Y-104598555D01*
X149112562Y-104603000D01*
X148473838Y-104603000D01*
X148428701Y-104598555D01*
X148391205Y-104587180D01*
X148356646Y-104568708D01*
X148326353Y-104543847D01*
X148301492Y-104513554D01*
X148283020Y-104478995D01*
X148271645Y-104441499D01*
X148267200Y-104396362D01*
X148267200Y-103657638D01*
X148271645Y-103612501D01*
X148283020Y-103575005D01*
X148301492Y-103540446D01*
X148326353Y-103510153D01*
X148356646Y-103485292D01*
X148391205Y-103466820D01*
X148428701Y-103455445D01*
X148473838Y-103451000D01*
X149112562Y-103451000D01*
X149157699Y-103455445D01*
X149157699Y-103455445D01*
G37*
G36*
X116061499Y-103224245D02*
G01*
X116098995Y-103235620D01*
X116133554Y-103254092D01*
X116163847Y-103278953D01*
X116188708Y-103309246D01*
X116207180Y-103343805D01*
X116218555Y-103381301D01*
X116223000Y-103426438D01*
X116223000Y-104165162D01*
X116218555Y-104210299D01*
X116207180Y-104247795D01*
X116188708Y-104282354D01*
X116163847Y-104312647D01*
X116133554Y-104337508D01*
X116098995Y-104355980D01*
X116061499Y-104367355D01*
X116016362Y-104371800D01*
X115377638Y-104371800D01*
X115332501Y-104367355D01*
X115295005Y-104355980D01*
X115260446Y-104337508D01*
X115230153Y-104312647D01*
X115205292Y-104282354D01*
X115186820Y-104247795D01*
X115175445Y-104210299D01*
X115171000Y-104165162D01*
X115171000Y-103426438D01*
X115175445Y-103381301D01*
X115186820Y-103343805D01*
X115205292Y-103309246D01*
X115230153Y-103278953D01*
X115260446Y-103254092D01*
X115295005Y-103235620D01*
X115332501Y-103224245D01*
X115377638Y-103219800D01*
X116016362Y-103219800D01*
X116061499Y-103224245D01*
X116061499Y-103224245D01*
G37*
G36*
X113521499Y-103224245D02*
G01*
X113558995Y-103235620D01*
X113593554Y-103254092D01*
X113623847Y-103278953D01*
X113648708Y-103309246D01*
X113667180Y-103343805D01*
X113678555Y-103381301D01*
X113683000Y-103426438D01*
X113683000Y-104165162D01*
X113678555Y-104210299D01*
X113667180Y-104247795D01*
X113648708Y-104282354D01*
X113623847Y-104312647D01*
X113593554Y-104337508D01*
X113558995Y-104355980D01*
X113521499Y-104367355D01*
X113476362Y-104371800D01*
X112837638Y-104371800D01*
X112792501Y-104367355D01*
X112755005Y-104355980D01*
X112720446Y-104337508D01*
X112690153Y-104312647D01*
X112665292Y-104282354D01*
X112646820Y-104247795D01*
X112635445Y-104210299D01*
X112631000Y-104165162D01*
X112631000Y-103426438D01*
X112635445Y-103381301D01*
X112646820Y-103343805D01*
X112665292Y-103309246D01*
X112690153Y-103278953D01*
X112720446Y-103254092D01*
X112755005Y-103235620D01*
X112792501Y-103224245D01*
X112837638Y-103219800D01*
X113476362Y-103219800D01*
X113521499Y-103224245D01*
X113521499Y-103224245D01*
G37*
G36*
X128634499Y-102538445D02*
G01*
X128671995Y-102549820D01*
X128706554Y-102568292D01*
X128736847Y-102593153D01*
X128761708Y-102623446D01*
X128780180Y-102658005D01*
X128791555Y-102695501D01*
X128796000Y-102740638D01*
X128796000Y-103479362D01*
X128791555Y-103524499D01*
X128780180Y-103561995D01*
X128761708Y-103596554D01*
X128736847Y-103626847D01*
X128706554Y-103651708D01*
X128671995Y-103670180D01*
X128634499Y-103681555D01*
X128589362Y-103686000D01*
X127950638Y-103686000D01*
X127905501Y-103681555D01*
X127868005Y-103670180D01*
X127833446Y-103651708D01*
X127803153Y-103626847D01*
X127778292Y-103596554D01*
X127759820Y-103561995D01*
X127748445Y-103524499D01*
X127744000Y-103479362D01*
X127744000Y-102740638D01*
X127748445Y-102695501D01*
X127759820Y-102658005D01*
X127778292Y-102623446D01*
X127803153Y-102593153D01*
X127833446Y-102568292D01*
X127868005Y-102549820D01*
X127905501Y-102538445D01*
X127950638Y-102534000D01*
X128589362Y-102534000D01*
X128634499Y-102538445D01*
X128634499Y-102538445D01*
G37*
G36*
X156534299Y-102551645D02*
G01*
X156571795Y-102563020D01*
X156606354Y-102581492D01*
X156636647Y-102606353D01*
X156661508Y-102636646D01*
X156679980Y-102671205D01*
X156691355Y-102708701D01*
X156695800Y-102753838D01*
X156695800Y-103392562D01*
X156691355Y-103437699D01*
X156679980Y-103475195D01*
X156661508Y-103509754D01*
X156636647Y-103540047D01*
X156606354Y-103564908D01*
X156571795Y-103583380D01*
X156534299Y-103594755D01*
X156489162Y-103599200D01*
X155750438Y-103599200D01*
X155705301Y-103594755D01*
X155667805Y-103583380D01*
X155633246Y-103564908D01*
X155602953Y-103540047D01*
X155578092Y-103509754D01*
X155559620Y-103475195D01*
X155548245Y-103437699D01*
X155543800Y-103392562D01*
X155543800Y-102753838D01*
X155548245Y-102708701D01*
X155559620Y-102671205D01*
X155578092Y-102636646D01*
X155602953Y-102606353D01*
X155633246Y-102581492D01*
X155667805Y-102563020D01*
X155705301Y-102551645D01*
X155750438Y-102547200D01*
X156489162Y-102547200D01*
X156534299Y-102551645D01*
X156534299Y-102551645D01*
G37*
G36*
X154784299Y-102551645D02*
G01*
X154821795Y-102563020D01*
X154856354Y-102581492D01*
X154886647Y-102606353D01*
X154911508Y-102636646D01*
X154929980Y-102671205D01*
X154941355Y-102708701D01*
X154945800Y-102753838D01*
X154945800Y-103392562D01*
X154941355Y-103437699D01*
X154929980Y-103475195D01*
X154911508Y-103509754D01*
X154886647Y-103540047D01*
X154856354Y-103564908D01*
X154821795Y-103583380D01*
X154784299Y-103594755D01*
X154739162Y-103599200D01*
X154000438Y-103599200D01*
X153955301Y-103594755D01*
X153917805Y-103583380D01*
X153883246Y-103564908D01*
X153852953Y-103540047D01*
X153828092Y-103509754D01*
X153809620Y-103475195D01*
X153798245Y-103437699D01*
X153793800Y-103392562D01*
X153793800Y-102753838D01*
X153798245Y-102708701D01*
X153809620Y-102671205D01*
X153828092Y-102636646D01*
X153852953Y-102606353D01*
X153883246Y-102581492D01*
X153917805Y-102563020D01*
X153955301Y-102551645D01*
X154000438Y-102547200D01*
X154739162Y-102547200D01*
X154784299Y-102551645D01*
X154784299Y-102551645D01*
G37*
G36*
X137016499Y-102411445D02*
G01*
X137053995Y-102422820D01*
X137088554Y-102441292D01*
X137118847Y-102466153D01*
X137143708Y-102496446D01*
X137162180Y-102531005D01*
X137173555Y-102568501D01*
X137178000Y-102613638D01*
X137178000Y-103352362D01*
X137173555Y-103397499D01*
X137162180Y-103434995D01*
X137143708Y-103469554D01*
X137118847Y-103499847D01*
X137088554Y-103524708D01*
X137053995Y-103543180D01*
X137016499Y-103554555D01*
X136971362Y-103559000D01*
X136332638Y-103559000D01*
X136287501Y-103554555D01*
X136250005Y-103543180D01*
X136215446Y-103524708D01*
X136185153Y-103499847D01*
X136160292Y-103469554D01*
X136141820Y-103434995D01*
X136130445Y-103397499D01*
X136126000Y-103352362D01*
X136126000Y-102613638D01*
X136130445Y-102568501D01*
X136141820Y-102531005D01*
X136160292Y-102496446D01*
X136185153Y-102466153D01*
X136215446Y-102441292D01*
X136250005Y-102422820D01*
X136287501Y-102411445D01*
X136332638Y-102407000D01*
X136971362Y-102407000D01*
X137016499Y-102411445D01*
X137016499Y-102411445D01*
G37*
G36*
X131682499Y-102284445D02*
G01*
X131719995Y-102295820D01*
X131754554Y-102314292D01*
X131784847Y-102339153D01*
X131809708Y-102369446D01*
X131828180Y-102404005D01*
X131839555Y-102441501D01*
X131844000Y-102486638D01*
X131844000Y-103225362D01*
X131839555Y-103270499D01*
X131828180Y-103307995D01*
X131809708Y-103342554D01*
X131784847Y-103372847D01*
X131754554Y-103397708D01*
X131719995Y-103416180D01*
X131682499Y-103427555D01*
X131637362Y-103432000D01*
X130998638Y-103432000D01*
X130953501Y-103427555D01*
X130916005Y-103416180D01*
X130881446Y-103397708D01*
X130851153Y-103372847D01*
X130826292Y-103342554D01*
X130807820Y-103307995D01*
X130796445Y-103270499D01*
X130792000Y-103225362D01*
X130792000Y-102486638D01*
X130796445Y-102441501D01*
X130807820Y-102404005D01*
X130826292Y-102369446D01*
X130851153Y-102339153D01*
X130881446Y-102314292D01*
X130916005Y-102295820D01*
X130953501Y-102284445D01*
X130998638Y-102280000D01*
X131637362Y-102280000D01*
X131682499Y-102284445D01*
X131682499Y-102284445D01*
G37*
G36*
X166371329Y-101163446D02*
G01*
X166556858Y-101200350D01*
X166752677Y-101281461D01*
X166928910Y-101399216D01*
X167078784Y-101549090D01*
X167196539Y-101725323D01*
X167277650Y-101921142D01*
X167295149Y-102009115D01*
X167314417Y-102105980D01*
X167319000Y-102129023D01*
X167319000Y-102340977D01*
X167277650Y-102548858D01*
X167196539Y-102744677D01*
X167078784Y-102920910D01*
X166928910Y-103070784D01*
X166752677Y-103188539D01*
X166556858Y-103269650D01*
X166424387Y-103296000D01*
X166348978Y-103311000D01*
X166137022Y-103311000D01*
X166061613Y-103296000D01*
X165929142Y-103269650D01*
X165733323Y-103188539D01*
X165557090Y-103070784D01*
X165407216Y-102920910D01*
X165289461Y-102744677D01*
X165208350Y-102548858D01*
X165167000Y-102340977D01*
X165167000Y-102129023D01*
X165171584Y-102105980D01*
X165190851Y-102009115D01*
X165208350Y-101921142D01*
X165289461Y-101725323D01*
X165407216Y-101549090D01*
X165557090Y-101399216D01*
X165733323Y-101281461D01*
X165929142Y-101200350D01*
X166114671Y-101163446D01*
X166137022Y-101159000D01*
X166348978Y-101159000D01*
X166371329Y-101163446D01*
X166371329Y-101163446D01*
G37*
G36*
X101267271Y-100588583D02*
G01*
X101405858Y-100616150D01*
X101601677Y-100697261D01*
X101777910Y-100815016D01*
X101927784Y-100964890D01*
X102045539Y-101141123D01*
X102126650Y-101336942D01*
X102139037Y-101399216D01*
X102168000Y-101544822D01*
X102168000Y-101756778D01*
X102156996Y-101812099D01*
X102126650Y-101964658D01*
X102045539Y-102160477D01*
X101927784Y-102336710D01*
X101777910Y-102486584D01*
X101601677Y-102604339D01*
X101405858Y-102685450D01*
X101267271Y-102713017D01*
X101197978Y-102726800D01*
X100986022Y-102726800D01*
X100916729Y-102713017D01*
X100778142Y-102685450D01*
X100582323Y-102604339D01*
X100406090Y-102486584D01*
X100256216Y-102336710D01*
X100138461Y-102160477D01*
X100057350Y-101964658D01*
X100027004Y-101812099D01*
X100016000Y-101756778D01*
X100016000Y-101544822D01*
X100044963Y-101399216D01*
X100057350Y-101336942D01*
X100138461Y-101141123D01*
X100256216Y-100964890D01*
X100406090Y-100815016D01*
X100582323Y-100697261D01*
X100778142Y-100616150D01*
X100916729Y-100588583D01*
X100986022Y-100574800D01*
X101197978Y-100574800D01*
X101267271Y-100588583D01*
X101267271Y-100588583D01*
G37*
G36*
X113521499Y-101474245D02*
G01*
X113558995Y-101485620D01*
X113593554Y-101504092D01*
X113623847Y-101528953D01*
X113648708Y-101559246D01*
X113667180Y-101593805D01*
X113678555Y-101631301D01*
X113683000Y-101676438D01*
X113683000Y-102415162D01*
X113678555Y-102460299D01*
X113667180Y-102497795D01*
X113648708Y-102532354D01*
X113623847Y-102562647D01*
X113593554Y-102587508D01*
X113558995Y-102605980D01*
X113521499Y-102617355D01*
X113476362Y-102621800D01*
X112837638Y-102621800D01*
X112792501Y-102617355D01*
X112755005Y-102605980D01*
X112720446Y-102587508D01*
X112690153Y-102562647D01*
X112665292Y-102532354D01*
X112646820Y-102497795D01*
X112635445Y-102460299D01*
X112631000Y-102415162D01*
X112631000Y-101676438D01*
X112635445Y-101631301D01*
X112646820Y-101593805D01*
X112665292Y-101559246D01*
X112690153Y-101528953D01*
X112720446Y-101504092D01*
X112755005Y-101485620D01*
X112792501Y-101474245D01*
X112837638Y-101469800D01*
X113476362Y-101469800D01*
X113521499Y-101474245D01*
X113521499Y-101474245D01*
G37*
G36*
X116061499Y-101474245D02*
G01*
X116098995Y-101485620D01*
X116133554Y-101504092D01*
X116163847Y-101528953D01*
X116188708Y-101559246D01*
X116207180Y-101593805D01*
X116218555Y-101631301D01*
X116223000Y-101676438D01*
X116223000Y-102415162D01*
X116218555Y-102460299D01*
X116207180Y-102497795D01*
X116188708Y-102532354D01*
X116163847Y-102562647D01*
X116133554Y-102587508D01*
X116098995Y-102605980D01*
X116061499Y-102617355D01*
X116016362Y-102621800D01*
X115377638Y-102621800D01*
X115332501Y-102617355D01*
X115295005Y-102605980D01*
X115260446Y-102587508D01*
X115230153Y-102562647D01*
X115205292Y-102532354D01*
X115186820Y-102497795D01*
X115175445Y-102460299D01*
X115171000Y-102415162D01*
X115171000Y-101676438D01*
X115175445Y-101631301D01*
X115186820Y-101593805D01*
X115205292Y-101559246D01*
X115230153Y-101528953D01*
X115260446Y-101504092D01*
X115295005Y-101485620D01*
X115332501Y-101474245D01*
X115377638Y-101469800D01*
X116016362Y-101469800D01*
X116061499Y-101474245D01*
X116061499Y-101474245D01*
G37*
G36*
X120189499Y-101078445D02*
G01*
X120226995Y-101089820D01*
X120261554Y-101108292D01*
X120291847Y-101133153D01*
X120316708Y-101163446D01*
X120335180Y-101198005D01*
X120346555Y-101235501D01*
X120351000Y-101280638D01*
X120351000Y-101919362D01*
X120346555Y-101964499D01*
X120335180Y-102001995D01*
X120316708Y-102036554D01*
X120291847Y-102066847D01*
X120261554Y-102091708D01*
X120226995Y-102110180D01*
X120189499Y-102121555D01*
X120144362Y-102126000D01*
X119405638Y-102126000D01*
X119360501Y-102121555D01*
X119323005Y-102110180D01*
X119288446Y-102091708D01*
X119258153Y-102066847D01*
X119233292Y-102036554D01*
X119214820Y-102001995D01*
X119203445Y-101964499D01*
X119199000Y-101919362D01*
X119199000Y-101280638D01*
X119203445Y-101235501D01*
X119214820Y-101198005D01*
X119233292Y-101163446D01*
X119258153Y-101133153D01*
X119288446Y-101108292D01*
X119323005Y-101089820D01*
X119360501Y-101078445D01*
X119405638Y-101074000D01*
X120144362Y-101074000D01*
X120189499Y-101078445D01*
X120189499Y-101078445D01*
G37*
G36*
X121939499Y-101078445D02*
G01*
X121976995Y-101089820D01*
X122011554Y-101108292D01*
X122041847Y-101133153D01*
X122066708Y-101163446D01*
X122085180Y-101198005D01*
X122096555Y-101235501D01*
X122101000Y-101280638D01*
X122101000Y-101919362D01*
X122096555Y-101964499D01*
X122085180Y-102001995D01*
X122066708Y-102036554D01*
X122041847Y-102066847D01*
X122011554Y-102091708D01*
X121976995Y-102110180D01*
X121939499Y-102121555D01*
X121894362Y-102126000D01*
X121155638Y-102126000D01*
X121110501Y-102121555D01*
X121073005Y-102110180D01*
X121038446Y-102091708D01*
X121008153Y-102066847D01*
X120983292Y-102036554D01*
X120964820Y-102001995D01*
X120953445Y-101964499D01*
X120949000Y-101919362D01*
X120949000Y-101280638D01*
X120953445Y-101235501D01*
X120964820Y-101198005D01*
X120983292Y-101163446D01*
X121008153Y-101133153D01*
X121038446Y-101108292D01*
X121073005Y-101089820D01*
X121110501Y-101078445D01*
X121155638Y-101074000D01*
X121894362Y-101074000D01*
X121939499Y-101078445D01*
X121939499Y-101078445D01*
G37*
G36*
X150946299Y-100926045D02*
G01*
X150983795Y-100937420D01*
X151018354Y-100955892D01*
X151048647Y-100980753D01*
X151073508Y-101011046D01*
X151091980Y-101045605D01*
X151103355Y-101083101D01*
X151107800Y-101128238D01*
X151107800Y-101766962D01*
X151103355Y-101812099D01*
X151091980Y-101849595D01*
X151073508Y-101884154D01*
X151048647Y-101914447D01*
X151018354Y-101939308D01*
X150983795Y-101957780D01*
X150946299Y-101969155D01*
X150901162Y-101973600D01*
X150162438Y-101973600D01*
X150117301Y-101969155D01*
X150079805Y-101957780D01*
X150045246Y-101939308D01*
X150014953Y-101914447D01*
X149990092Y-101884154D01*
X149971620Y-101849595D01*
X149960245Y-101812099D01*
X149955800Y-101766962D01*
X149955800Y-101128238D01*
X149960245Y-101083101D01*
X149971620Y-101045605D01*
X149990092Y-101011046D01*
X150014953Y-100980753D01*
X150045246Y-100955892D01*
X150079805Y-100937420D01*
X150117301Y-100926045D01*
X150162438Y-100921600D01*
X150901162Y-100921600D01*
X150946299Y-100926045D01*
X150946299Y-100926045D01*
G37*
G36*
X149196299Y-100926045D02*
G01*
X149233795Y-100937420D01*
X149268354Y-100955892D01*
X149298647Y-100980753D01*
X149323508Y-101011046D01*
X149341980Y-101045605D01*
X149353355Y-101083101D01*
X149357800Y-101128238D01*
X149357800Y-101766962D01*
X149353355Y-101812099D01*
X149341980Y-101849595D01*
X149323508Y-101884154D01*
X149298647Y-101914447D01*
X149268354Y-101939308D01*
X149233795Y-101957780D01*
X149196299Y-101969155D01*
X149151162Y-101973600D01*
X148412438Y-101973600D01*
X148367301Y-101969155D01*
X148329805Y-101957780D01*
X148295246Y-101939308D01*
X148264953Y-101914447D01*
X148240092Y-101884154D01*
X148221620Y-101849595D01*
X148210245Y-101812099D01*
X148205800Y-101766962D01*
X148205800Y-101128238D01*
X148210245Y-101083101D01*
X148221620Y-101045605D01*
X148240092Y-101011046D01*
X148264953Y-100980753D01*
X148295246Y-100955892D01*
X148329805Y-100937420D01*
X148367301Y-100926045D01*
X148412438Y-100921600D01*
X149151162Y-100921600D01*
X149196299Y-100926045D01*
X149196299Y-100926045D01*
G37*
G36*
X128634499Y-100788445D02*
G01*
X128671995Y-100799820D01*
X128706554Y-100818292D01*
X128736847Y-100843153D01*
X128761708Y-100873446D01*
X128780180Y-100908005D01*
X128791555Y-100945501D01*
X128796000Y-100990638D01*
X128796000Y-101729362D01*
X128791555Y-101774499D01*
X128780180Y-101811995D01*
X128761708Y-101846554D01*
X128736847Y-101876847D01*
X128706554Y-101901708D01*
X128671995Y-101920180D01*
X128634499Y-101931555D01*
X128589362Y-101936000D01*
X127950638Y-101936000D01*
X127905501Y-101931555D01*
X127868005Y-101920180D01*
X127833446Y-101901708D01*
X127803153Y-101876847D01*
X127778292Y-101846554D01*
X127759820Y-101811995D01*
X127748445Y-101774499D01*
X127744000Y-101729362D01*
X127744000Y-100990638D01*
X127748445Y-100945501D01*
X127759820Y-100908005D01*
X127778292Y-100873446D01*
X127803153Y-100843153D01*
X127833446Y-100818292D01*
X127868005Y-100799820D01*
X127905501Y-100788445D01*
X127950638Y-100784000D01*
X128589362Y-100784000D01*
X128634499Y-100788445D01*
X128634499Y-100788445D01*
G37*
G36*
X137016499Y-100661445D02*
G01*
X137053995Y-100672820D01*
X137088554Y-100691292D01*
X137118847Y-100716153D01*
X137143708Y-100746446D01*
X137162180Y-100781005D01*
X137173555Y-100818501D01*
X137178000Y-100863638D01*
X137178000Y-101602362D01*
X137173555Y-101647499D01*
X137162180Y-101684995D01*
X137143708Y-101719554D01*
X137118847Y-101749847D01*
X137088554Y-101774708D01*
X137053995Y-101793180D01*
X137016499Y-101804555D01*
X136971362Y-101809000D01*
X136332638Y-101809000D01*
X136287501Y-101804555D01*
X136250005Y-101793180D01*
X136215446Y-101774708D01*
X136185153Y-101749847D01*
X136160292Y-101719554D01*
X136141820Y-101684995D01*
X136130445Y-101647499D01*
X136126000Y-101602362D01*
X136126000Y-100863638D01*
X136130445Y-100818501D01*
X136141820Y-100781005D01*
X136160292Y-100746446D01*
X136185153Y-100716153D01*
X136215446Y-100691292D01*
X136250005Y-100672820D01*
X136287501Y-100661445D01*
X136332638Y-100657000D01*
X136971362Y-100657000D01*
X137016499Y-100661445D01*
X137016499Y-100661445D01*
G37*
G36*
X139810499Y-100633445D02*
G01*
X139847995Y-100644820D01*
X139882554Y-100663292D01*
X139912847Y-100688153D01*
X139937708Y-100718446D01*
X139956180Y-100753005D01*
X139967555Y-100790501D01*
X139972000Y-100835638D01*
X139972000Y-101574362D01*
X139967555Y-101619499D01*
X139956180Y-101656995D01*
X139937708Y-101691554D01*
X139912847Y-101721847D01*
X139882554Y-101746708D01*
X139847995Y-101765180D01*
X139810499Y-101776555D01*
X139765362Y-101781000D01*
X139126638Y-101781000D01*
X139081501Y-101776555D01*
X139044005Y-101765180D01*
X139009446Y-101746708D01*
X138979153Y-101721847D01*
X138954292Y-101691554D01*
X138935820Y-101656995D01*
X138924445Y-101619499D01*
X138920000Y-101574362D01*
X138920000Y-100835638D01*
X138924445Y-100790501D01*
X138935820Y-100753005D01*
X138954292Y-100718446D01*
X138979153Y-100688153D01*
X139009446Y-100663292D01*
X139044005Y-100644820D01*
X139081501Y-100633445D01*
X139126638Y-100629000D01*
X139765362Y-100629000D01*
X139810499Y-100633445D01*
X139810499Y-100633445D01*
G37*
G36*
X131682499Y-100534445D02*
G01*
X131719995Y-100545820D01*
X131754554Y-100564292D01*
X131784847Y-100589153D01*
X131809708Y-100619446D01*
X131828180Y-100654005D01*
X131839555Y-100691501D01*
X131844000Y-100736638D01*
X131844000Y-101475362D01*
X131839555Y-101520499D01*
X131828180Y-101557995D01*
X131809708Y-101592554D01*
X131784847Y-101622847D01*
X131754554Y-101647708D01*
X131719995Y-101666180D01*
X131682499Y-101677555D01*
X131637362Y-101682000D01*
X130998638Y-101682000D01*
X130953501Y-101677555D01*
X130916005Y-101666180D01*
X130881446Y-101647708D01*
X130851153Y-101622847D01*
X130826292Y-101592554D01*
X130807820Y-101557995D01*
X130796445Y-101520499D01*
X130792000Y-101475362D01*
X130792000Y-100736638D01*
X130796445Y-100691501D01*
X130807820Y-100654005D01*
X130826292Y-100619446D01*
X130851153Y-100589153D01*
X130881446Y-100564292D01*
X130916005Y-100545820D01*
X130953501Y-100534445D01*
X130998638Y-100530000D01*
X131637362Y-100530000D01*
X131682499Y-100534445D01*
X131682499Y-100534445D01*
G37*
G36*
X163894236Y-98534000D02*
G01*
X164046027Y-98564193D01*
X164260045Y-98652842D01*
X164260046Y-98652843D01*
X164452654Y-98781539D01*
X164616461Y-98945346D01*
X164649621Y-98994974D01*
X164745158Y-99137955D01*
X164833807Y-99351973D01*
X164879000Y-99579174D01*
X164879000Y-99810826D01*
X164833807Y-100038027D01*
X164745158Y-100252045D01*
X164745157Y-100252046D01*
X164616461Y-100444654D01*
X164452654Y-100608461D01*
X164350048Y-100677020D01*
X164260045Y-100737158D01*
X164046027Y-100825807D01*
X163894560Y-100855936D01*
X163818827Y-100871000D01*
X163587173Y-100871000D01*
X163511440Y-100855936D01*
X163359973Y-100825807D01*
X163145955Y-100737158D01*
X163055952Y-100677020D01*
X162953346Y-100608461D01*
X162789539Y-100444654D01*
X162660843Y-100252046D01*
X162660842Y-100252045D01*
X162572193Y-100038027D01*
X162527000Y-99810826D01*
X162527000Y-99579174D01*
X162572193Y-99351973D01*
X162660842Y-99137955D01*
X162756379Y-98994974D01*
X162789539Y-98945346D01*
X162953346Y-98781539D01*
X163145954Y-98652843D01*
X163145955Y-98652842D01*
X163359973Y-98564193D01*
X163511764Y-98534000D01*
X163587173Y-98519000D01*
X163818827Y-98519000D01*
X163894236Y-98534000D01*
X163894236Y-98534000D01*
G37*
G36*
X168974236Y-98534000D02*
G01*
X169126027Y-98564193D01*
X169340045Y-98652842D01*
X169340046Y-98652843D01*
X169532654Y-98781539D01*
X169696461Y-98945346D01*
X169729621Y-98994974D01*
X169825158Y-99137955D01*
X169913807Y-99351973D01*
X169959000Y-99579174D01*
X169959000Y-99810826D01*
X169913807Y-100038027D01*
X169825158Y-100252045D01*
X169825157Y-100252046D01*
X169696461Y-100444654D01*
X169532654Y-100608461D01*
X169430048Y-100677020D01*
X169340045Y-100737158D01*
X169126027Y-100825807D01*
X168974560Y-100855936D01*
X168898827Y-100871000D01*
X168667173Y-100871000D01*
X168591440Y-100855936D01*
X168439973Y-100825807D01*
X168225955Y-100737158D01*
X168135952Y-100677020D01*
X168033346Y-100608461D01*
X167869539Y-100444654D01*
X167740843Y-100252046D01*
X167740842Y-100252045D01*
X167652193Y-100038027D01*
X167607000Y-99810826D01*
X167607000Y-99579174D01*
X167652193Y-99351973D01*
X167740842Y-99137955D01*
X167836379Y-98994974D01*
X167869539Y-98945346D01*
X168033346Y-98781539D01*
X168225954Y-98652843D01*
X168225955Y-98652842D01*
X168439973Y-98564193D01*
X168591764Y-98534000D01*
X168667173Y-98519000D01*
X168898827Y-98519000D01*
X168974236Y-98534000D01*
X168974236Y-98534000D01*
G37*
G36*
X98743560Y-97949864D02*
G01*
X98895027Y-97979993D01*
X99109045Y-98068642D01*
X99109046Y-98068643D01*
X99301654Y-98197339D01*
X99465461Y-98361146D01*
X99494098Y-98404005D01*
X99594158Y-98553755D01*
X99682807Y-98767773D01*
X99728000Y-98994974D01*
X99728000Y-99226626D01*
X99682807Y-99453827D01*
X99594158Y-99667845D01*
X99594157Y-99667846D01*
X99465461Y-99860454D01*
X99301654Y-100024261D01*
X99173249Y-100110058D01*
X99109045Y-100152958D01*
X98895027Y-100241607D01*
X98743560Y-100271736D01*
X98667827Y-100286800D01*
X98436173Y-100286800D01*
X98360440Y-100271736D01*
X98208973Y-100241607D01*
X97994955Y-100152958D01*
X97930751Y-100110058D01*
X97802346Y-100024261D01*
X97638539Y-99860454D01*
X97509843Y-99667846D01*
X97509842Y-99667845D01*
X97421193Y-99453827D01*
X97376000Y-99226626D01*
X97376000Y-98994974D01*
X97421193Y-98767773D01*
X97509842Y-98553755D01*
X97609902Y-98404005D01*
X97638539Y-98361146D01*
X97802346Y-98197339D01*
X97994954Y-98068643D01*
X97994955Y-98068642D01*
X98208973Y-97979993D01*
X98360440Y-97949864D01*
X98436173Y-97934800D01*
X98667827Y-97934800D01*
X98743560Y-97949864D01*
X98743560Y-97949864D01*
G37*
G36*
X103823560Y-97949864D02*
G01*
X103975027Y-97979993D01*
X104189045Y-98068642D01*
X104189046Y-98068643D01*
X104381654Y-98197339D01*
X104545461Y-98361146D01*
X104574098Y-98404005D01*
X104674158Y-98553755D01*
X104762807Y-98767773D01*
X104808000Y-98994974D01*
X104808000Y-99226626D01*
X104762807Y-99453827D01*
X104674158Y-99667845D01*
X104674157Y-99667846D01*
X104545461Y-99860454D01*
X104381654Y-100024261D01*
X104253249Y-100110058D01*
X104189045Y-100152958D01*
X103975027Y-100241607D01*
X103823560Y-100271736D01*
X103747827Y-100286800D01*
X103516173Y-100286800D01*
X103440440Y-100271736D01*
X103288973Y-100241607D01*
X103074955Y-100152958D01*
X103010751Y-100110058D01*
X102882346Y-100024261D01*
X102718539Y-99860454D01*
X102589843Y-99667846D01*
X102589842Y-99667845D01*
X102501193Y-99453827D01*
X102456000Y-99226626D01*
X102456000Y-98994974D01*
X102501193Y-98767773D01*
X102589842Y-98553755D01*
X102689902Y-98404005D01*
X102718539Y-98361146D01*
X102882346Y-98197339D01*
X103074954Y-98068643D01*
X103074955Y-98068642D01*
X103288973Y-97979993D01*
X103440440Y-97949864D01*
X103516173Y-97934800D01*
X103747827Y-97934800D01*
X103823560Y-97949864D01*
X103823560Y-97949864D01*
G37*
G36*
X139810499Y-98883445D02*
G01*
X139847995Y-98894820D01*
X139882554Y-98913292D01*
X139912847Y-98938153D01*
X139937708Y-98968446D01*
X139956180Y-99003005D01*
X139967555Y-99040501D01*
X139972000Y-99085638D01*
X139972000Y-99824362D01*
X139967555Y-99869499D01*
X139956180Y-99906995D01*
X139937708Y-99941554D01*
X139912847Y-99971847D01*
X139882554Y-99996708D01*
X139847995Y-100015180D01*
X139810499Y-100026555D01*
X139765362Y-100031000D01*
X139126638Y-100031000D01*
X139081501Y-100026555D01*
X139044005Y-100015180D01*
X139009446Y-99996708D01*
X138979153Y-99971847D01*
X138954292Y-99941554D01*
X138935820Y-99906995D01*
X138924445Y-99869499D01*
X138920000Y-99824362D01*
X138920000Y-99085638D01*
X138924445Y-99040501D01*
X138935820Y-99003005D01*
X138954292Y-98968446D01*
X138979153Y-98938153D01*
X139009446Y-98913292D01*
X139044005Y-98894820D01*
X139081501Y-98883445D01*
X139126638Y-98879000D01*
X139765362Y-98879000D01*
X139810499Y-98883445D01*
X139810499Y-98883445D01*
G37*
G36*
X144596299Y-98589245D02*
G01*
X144633795Y-98600620D01*
X144668354Y-98619092D01*
X144698647Y-98643953D01*
X144723508Y-98674246D01*
X144741980Y-98708805D01*
X144753355Y-98746301D01*
X144757800Y-98791438D01*
X144757800Y-99430162D01*
X144753355Y-99475299D01*
X144741980Y-99512795D01*
X144723508Y-99547354D01*
X144698647Y-99577647D01*
X144668354Y-99602508D01*
X144633795Y-99620980D01*
X144596299Y-99632355D01*
X144551162Y-99636800D01*
X143812438Y-99636800D01*
X143767301Y-99632355D01*
X143729805Y-99620980D01*
X143695246Y-99602508D01*
X143664953Y-99577647D01*
X143640092Y-99547354D01*
X143621620Y-99512795D01*
X143610245Y-99475299D01*
X143605800Y-99430162D01*
X143605800Y-98791438D01*
X143610245Y-98746301D01*
X143621620Y-98708805D01*
X143640092Y-98674246D01*
X143664953Y-98643953D01*
X143695246Y-98619092D01*
X143729805Y-98600620D01*
X143767301Y-98589245D01*
X143812438Y-98584800D01*
X144551162Y-98584800D01*
X144596299Y-98589245D01*
X144596299Y-98589245D01*
G37*
G36*
X142846299Y-98589245D02*
G01*
X142883795Y-98600620D01*
X142918354Y-98619092D01*
X142948647Y-98643953D01*
X142973508Y-98674246D01*
X142991980Y-98708805D01*
X143003355Y-98746301D01*
X143007800Y-98791438D01*
X143007800Y-99430162D01*
X143003355Y-99475299D01*
X142991980Y-99512795D01*
X142973508Y-99547354D01*
X142948647Y-99577647D01*
X142918354Y-99602508D01*
X142883795Y-99620980D01*
X142846299Y-99632355D01*
X142801162Y-99636800D01*
X142062438Y-99636800D01*
X142017301Y-99632355D01*
X141979805Y-99620980D01*
X141945246Y-99602508D01*
X141914953Y-99577647D01*
X141890092Y-99547354D01*
X141871620Y-99512795D01*
X141860245Y-99475299D01*
X141855800Y-99430162D01*
X141855800Y-98791438D01*
X141860245Y-98746301D01*
X141871620Y-98708805D01*
X141890092Y-98674246D01*
X141914953Y-98643953D01*
X141945246Y-98619092D01*
X141979805Y-98600620D01*
X142017301Y-98589245D01*
X142062438Y-98584800D01*
X142801162Y-98584800D01*
X142846299Y-98589245D01*
X142846299Y-98589245D01*
G37*
G36*
X121939499Y-98538445D02*
G01*
X121976995Y-98549820D01*
X122011554Y-98568292D01*
X122041847Y-98593153D01*
X122066708Y-98623446D01*
X122085180Y-98658005D01*
X122096555Y-98695501D01*
X122101000Y-98740638D01*
X122101000Y-99379362D01*
X122096555Y-99424499D01*
X122085180Y-99461995D01*
X122066708Y-99496554D01*
X122041847Y-99526847D01*
X122011554Y-99551708D01*
X121976995Y-99570180D01*
X121939499Y-99581555D01*
X121894362Y-99586000D01*
X121155638Y-99586000D01*
X121110501Y-99581555D01*
X121073005Y-99570180D01*
X121038446Y-99551708D01*
X121008153Y-99526847D01*
X120983292Y-99496554D01*
X120964820Y-99461995D01*
X120953445Y-99424499D01*
X120949000Y-99379362D01*
X120949000Y-98740638D01*
X120953445Y-98695501D01*
X120964820Y-98658005D01*
X120983292Y-98623446D01*
X121008153Y-98593153D01*
X121038446Y-98568292D01*
X121073005Y-98549820D01*
X121110501Y-98538445D01*
X121155638Y-98534000D01*
X121894362Y-98534000D01*
X121939499Y-98538445D01*
X121939499Y-98538445D01*
G37*
G36*
X120189499Y-98538445D02*
G01*
X120226995Y-98549820D01*
X120261554Y-98568292D01*
X120291847Y-98593153D01*
X120316708Y-98623446D01*
X120335180Y-98658005D01*
X120346555Y-98695501D01*
X120351000Y-98740638D01*
X120351000Y-99379362D01*
X120346555Y-99424499D01*
X120335180Y-99461995D01*
X120316708Y-99496554D01*
X120291847Y-99526847D01*
X120261554Y-99551708D01*
X120226995Y-99570180D01*
X120189499Y-99581555D01*
X120144362Y-99586000D01*
X119405638Y-99586000D01*
X119360501Y-99581555D01*
X119323005Y-99570180D01*
X119288446Y-99551708D01*
X119258153Y-99526847D01*
X119233292Y-99496554D01*
X119214820Y-99461995D01*
X119203445Y-99424499D01*
X119199000Y-99379362D01*
X119199000Y-98740638D01*
X119203445Y-98695501D01*
X119214820Y-98658005D01*
X119233292Y-98623446D01*
X119258153Y-98593153D01*
X119288446Y-98568292D01*
X119323005Y-98549820D01*
X119360501Y-98538445D01*
X119405638Y-98534000D01*
X120144362Y-98534000D01*
X120189499Y-98538445D01*
X120189499Y-98538445D01*
G37*
G36*
X150895499Y-98284445D02*
G01*
X150932995Y-98295820D01*
X150967554Y-98314292D01*
X150997847Y-98339153D01*
X151022708Y-98369446D01*
X151041180Y-98404005D01*
X151052555Y-98441501D01*
X151057000Y-98486638D01*
X151057000Y-99125362D01*
X151052555Y-99170499D01*
X151041180Y-99207995D01*
X151022708Y-99242554D01*
X150997847Y-99272847D01*
X150967554Y-99297708D01*
X150932995Y-99316180D01*
X150895499Y-99327555D01*
X150850362Y-99332000D01*
X150111638Y-99332000D01*
X150066501Y-99327555D01*
X150029005Y-99316180D01*
X149994446Y-99297708D01*
X149964153Y-99272847D01*
X149939292Y-99242554D01*
X149920820Y-99207995D01*
X149909445Y-99170499D01*
X149905000Y-99125362D01*
X149905000Y-98486638D01*
X149909445Y-98441501D01*
X149920820Y-98404005D01*
X149939292Y-98369446D01*
X149964153Y-98339153D01*
X149994446Y-98314292D01*
X150029005Y-98295820D01*
X150066501Y-98284445D01*
X150111638Y-98280000D01*
X150850362Y-98280000D01*
X150895499Y-98284445D01*
X150895499Y-98284445D01*
G37*
G36*
X149145499Y-98284445D02*
G01*
X149182995Y-98295820D01*
X149217554Y-98314292D01*
X149247847Y-98339153D01*
X149272708Y-98369446D01*
X149291180Y-98404005D01*
X149302555Y-98441501D01*
X149307000Y-98486638D01*
X149307000Y-99125362D01*
X149302555Y-99170499D01*
X149291180Y-99207995D01*
X149272708Y-99242554D01*
X149247847Y-99272847D01*
X149217554Y-99297708D01*
X149182995Y-99316180D01*
X149145499Y-99327555D01*
X149100362Y-99332000D01*
X148361638Y-99332000D01*
X148316501Y-99327555D01*
X148279005Y-99316180D01*
X148244446Y-99297708D01*
X148214153Y-99272847D01*
X148189292Y-99242554D01*
X148170820Y-99207995D01*
X148159445Y-99170499D01*
X148155000Y-99125362D01*
X148155000Y-98486638D01*
X148159445Y-98441501D01*
X148170820Y-98404005D01*
X148189292Y-98369446D01*
X148214153Y-98339153D01*
X148244446Y-98314292D01*
X148279005Y-98295820D01*
X148316501Y-98284445D01*
X148361638Y-98280000D01*
X149100362Y-98280000D01*
X149145499Y-98284445D01*
X149145499Y-98284445D01*
G37*
G36*
X144336560Y-94216064D02*
G01*
X144488027Y-94246193D01*
X144702045Y-94334842D01*
X144715478Y-94343818D01*
X144894654Y-94463539D01*
X145058461Y-94627346D01*
X145102299Y-94692955D01*
X145187158Y-94819955D01*
X145275807Y-95033973D01*
X145321000Y-95261174D01*
X145321000Y-95492826D01*
X145275807Y-95720027D01*
X145187158Y-95934045D01*
X145187157Y-95934046D01*
X145058461Y-96126654D01*
X144894654Y-96290461D01*
X144766249Y-96376258D01*
X144702045Y-96419158D01*
X144488027Y-96507807D01*
X144336560Y-96537936D01*
X144260827Y-96553000D01*
X144029173Y-96553000D01*
X143953440Y-96537936D01*
X143801973Y-96507807D01*
X143587955Y-96419158D01*
X143523751Y-96376258D01*
X143395346Y-96290461D01*
X143231539Y-96126654D01*
X143102843Y-95934046D01*
X143102842Y-95934045D01*
X143014193Y-95720027D01*
X142969000Y-95492826D01*
X142969000Y-95261174D01*
X143014193Y-95033973D01*
X143102842Y-94819955D01*
X143187701Y-94692955D01*
X143231539Y-94627346D01*
X143395346Y-94463539D01*
X143574522Y-94343818D01*
X143587955Y-94334842D01*
X143801973Y-94246193D01*
X143953440Y-94216064D01*
X144029173Y-94201000D01*
X144260827Y-94201000D01*
X144336560Y-94216064D01*
X144336560Y-94216064D01*
G37*
G36*
X139256560Y-94216064D02*
G01*
X139408027Y-94246193D01*
X139622045Y-94334842D01*
X139635478Y-94343818D01*
X139814654Y-94463539D01*
X139978461Y-94627346D01*
X140022299Y-94692955D01*
X140107158Y-94819955D01*
X140195807Y-95033973D01*
X140241000Y-95261174D01*
X140241000Y-95492826D01*
X140195807Y-95720027D01*
X140107158Y-95934045D01*
X140107157Y-95934046D01*
X139978461Y-96126654D01*
X139814654Y-96290461D01*
X139686249Y-96376258D01*
X139622045Y-96419158D01*
X139408027Y-96507807D01*
X139256560Y-96537936D01*
X139180827Y-96553000D01*
X138949173Y-96553000D01*
X138873440Y-96537936D01*
X138721973Y-96507807D01*
X138507955Y-96419158D01*
X138443751Y-96376258D01*
X138315346Y-96290461D01*
X138151539Y-96126654D01*
X138022843Y-95934046D01*
X138022842Y-95934045D01*
X137934193Y-95720027D01*
X137889000Y-95492826D01*
X137889000Y-95261174D01*
X137934193Y-95033973D01*
X138022842Y-94819955D01*
X138107701Y-94692955D01*
X138151539Y-94627346D01*
X138315346Y-94463539D01*
X138494522Y-94343818D01*
X138507955Y-94334842D01*
X138721973Y-94246193D01*
X138873440Y-94216064D01*
X138949173Y-94201000D01*
X139180827Y-94201000D01*
X139256560Y-94216064D01*
X139256560Y-94216064D01*
G37*
G36*
X123762560Y-94089064D02*
G01*
X123914027Y-94119193D01*
X124128045Y-94207842D01*
X124185441Y-94246193D01*
X124320654Y-94336539D01*
X124484461Y-94500346D01*
X124510796Y-94539760D01*
X124613158Y-94692955D01*
X124701807Y-94906973D01*
X124747000Y-95134174D01*
X124747000Y-95365826D01*
X124701807Y-95593027D01*
X124613158Y-95807045D01*
X124613157Y-95807046D01*
X124484461Y-95999654D01*
X124320654Y-96163461D01*
X124192249Y-96249258D01*
X124128045Y-96292158D01*
X123914027Y-96380807D01*
X123762560Y-96410936D01*
X123686827Y-96426000D01*
X123455173Y-96426000D01*
X123379440Y-96410936D01*
X123227973Y-96380807D01*
X123013955Y-96292158D01*
X122949751Y-96249258D01*
X122821346Y-96163461D01*
X122657539Y-95999654D01*
X122528843Y-95807046D01*
X122528842Y-95807045D01*
X122440193Y-95593027D01*
X122395000Y-95365826D01*
X122395000Y-95134174D01*
X122440193Y-94906973D01*
X122528842Y-94692955D01*
X122631204Y-94539760D01*
X122657539Y-94500346D01*
X122821346Y-94336539D01*
X122956559Y-94246193D01*
X123013955Y-94207842D01*
X123227973Y-94119193D01*
X123379440Y-94089064D01*
X123455173Y-94074000D01*
X123686827Y-94074000D01*
X123762560Y-94089064D01*
X123762560Y-94089064D01*
G37*
G36*
X128842560Y-94089064D02*
G01*
X128994027Y-94119193D01*
X129208045Y-94207842D01*
X129265441Y-94246193D01*
X129400654Y-94336539D01*
X129564461Y-94500346D01*
X129590796Y-94539760D01*
X129693158Y-94692955D01*
X129781807Y-94906973D01*
X129827000Y-95134174D01*
X129827000Y-95365826D01*
X129781807Y-95593027D01*
X129693158Y-95807045D01*
X129693157Y-95807046D01*
X129564461Y-95999654D01*
X129400654Y-96163461D01*
X129272249Y-96249258D01*
X129208045Y-96292158D01*
X128994027Y-96380807D01*
X128842560Y-96410936D01*
X128766827Y-96426000D01*
X128535173Y-96426000D01*
X128459440Y-96410936D01*
X128307973Y-96380807D01*
X128093955Y-96292158D01*
X128029751Y-96249258D01*
X127901346Y-96163461D01*
X127737539Y-95999654D01*
X127608843Y-95807046D01*
X127608842Y-95807045D01*
X127520193Y-95593027D01*
X127475000Y-95365826D01*
X127475000Y-95134174D01*
X127520193Y-94906973D01*
X127608842Y-94692955D01*
X127711204Y-94539760D01*
X127737539Y-94500346D01*
X127901346Y-94336539D01*
X128036559Y-94246193D01*
X128093955Y-94207842D01*
X128307973Y-94119193D01*
X128459440Y-94089064D01*
X128535173Y-94074000D01*
X128766827Y-94074000D01*
X128842560Y-94089064D01*
X128842560Y-94089064D01*
G37*
G36*
X167441021Y-89254640D02*
G01*
X167950769Y-89465785D01*
X167950771Y-89465786D01*
X168409534Y-89772321D01*
X168799679Y-90162466D01*
X169106214Y-90621229D01*
X169106215Y-90621231D01*
X169317360Y-91130979D01*
X169425000Y-91672124D01*
X169425000Y-92223876D01*
X169317360Y-92765021D01*
X169129035Y-93219677D01*
X169106214Y-93274771D01*
X168799679Y-93733534D01*
X168409534Y-94123679D01*
X167950771Y-94430214D01*
X167950770Y-94430215D01*
X167950769Y-94430215D01*
X167441021Y-94641360D01*
X166899876Y-94749000D01*
X166348124Y-94749000D01*
X165806979Y-94641360D01*
X165297231Y-94430215D01*
X165297230Y-94430215D01*
X165297229Y-94430214D01*
X164838466Y-94123679D01*
X164448321Y-93733534D01*
X164141786Y-93274771D01*
X164118965Y-93219677D01*
X163930640Y-92765021D01*
X163823000Y-92223876D01*
X163823000Y-91672124D01*
X163930640Y-91130979D01*
X164141785Y-90621231D01*
X164141786Y-90621229D01*
X164448321Y-90162466D01*
X164838466Y-89772321D01*
X165297229Y-89465786D01*
X165297231Y-89465785D01*
X165806979Y-89254640D01*
X166348124Y-89147000D01*
X166899876Y-89147000D01*
X167441021Y-89254640D01*
X167441021Y-89254640D01*
G37*
G36*
X101299421Y-89153040D02*
G01*
X101809169Y-89364185D01*
X101809171Y-89364186D01*
X102267934Y-89670721D01*
X102658079Y-90060866D01*
X102964614Y-90519629D01*
X102964615Y-90519631D01*
X103175760Y-91029379D01*
X103283400Y-91570524D01*
X103283400Y-92122276D01*
X103175760Y-92663421D01*
X102964615Y-93173169D01*
X102964614Y-93173171D01*
X102658079Y-93631934D01*
X102267934Y-94022079D01*
X101809171Y-94328614D01*
X101809170Y-94328615D01*
X101809169Y-94328615D01*
X101299421Y-94539760D01*
X100758276Y-94647400D01*
X100206524Y-94647400D01*
X99665379Y-94539760D01*
X99155631Y-94328615D01*
X99155630Y-94328615D01*
X99155629Y-94328614D01*
X98696866Y-94022079D01*
X98306721Y-93631934D01*
X98000186Y-93173171D01*
X98000185Y-93173169D01*
X97789040Y-92663421D01*
X97681400Y-92122276D01*
X97681400Y-91570524D01*
X97789040Y-91029379D01*
X98000185Y-90519631D01*
X98000186Y-90519629D01*
X98306721Y-90060866D01*
X98696866Y-89670721D01*
X99155629Y-89364186D01*
X99155631Y-89364185D01*
X99665379Y-89153040D01*
X100206524Y-89045400D01*
X100758276Y-89045400D01*
X101299421Y-89153040D01*
X101299421Y-89153040D01*
G37*
G36*
X148976042Y-92803381D02*
G01*
X149121814Y-92863762D01*
X149121816Y-92863763D01*
X149253008Y-92951422D01*
X149364578Y-93062992D01*
X149452237Y-93194184D01*
X149452238Y-93194186D01*
X149512619Y-93339958D01*
X149543400Y-93494707D01*
X149543400Y-93652493D01*
X149512619Y-93807242D01*
X149485940Y-93871650D01*
X149452237Y-93953016D01*
X149364578Y-94084208D01*
X149253008Y-94195778D01*
X149121816Y-94283437D01*
X149121815Y-94283438D01*
X149121814Y-94283438D01*
X148976042Y-94343819D01*
X148821293Y-94374600D01*
X148663507Y-94374600D01*
X148508758Y-94343819D01*
X148362986Y-94283438D01*
X148362985Y-94283438D01*
X148362984Y-94283437D01*
X148231792Y-94195778D01*
X148120222Y-94084208D01*
X148032563Y-93953016D01*
X147998860Y-93871650D01*
X147972181Y-93807242D01*
X147941400Y-93652493D01*
X147941400Y-93494707D01*
X147972181Y-93339958D01*
X148032562Y-93194186D01*
X148032563Y-93194184D01*
X148120222Y-93062992D01*
X148231792Y-92951422D01*
X148362984Y-92863763D01*
X148362986Y-92863762D01*
X148508758Y-92803381D01*
X148663507Y-92772600D01*
X148821293Y-92772600D01*
X148976042Y-92803381D01*
X148976042Y-92803381D01*
G37*
G36*
X119410442Y-92752581D02*
G01*
X119556214Y-92812962D01*
X119556216Y-92812963D01*
X119687408Y-92900622D01*
X119798978Y-93012192D01*
X119886637Y-93143384D01*
X119886638Y-93143386D01*
X119947019Y-93289158D01*
X119977800Y-93443907D01*
X119977800Y-93601693D01*
X119947019Y-93756442D01*
X119925976Y-93807243D01*
X119886637Y-93902216D01*
X119798978Y-94033408D01*
X119687408Y-94144978D01*
X119556216Y-94232637D01*
X119556215Y-94232638D01*
X119556214Y-94232638D01*
X119410442Y-94293019D01*
X119255693Y-94323800D01*
X119097907Y-94323800D01*
X118943158Y-94293019D01*
X118797386Y-94232638D01*
X118797385Y-94232638D01*
X118797384Y-94232637D01*
X118666192Y-94144978D01*
X118554622Y-94033408D01*
X118466963Y-93902216D01*
X118427624Y-93807243D01*
X118406581Y-93756442D01*
X118375800Y-93601693D01*
X118375800Y-93443907D01*
X118406581Y-93289158D01*
X118466962Y-93143386D01*
X118466963Y-93143384D01*
X118554622Y-93012192D01*
X118666192Y-92900622D01*
X118797384Y-92812963D01*
X118797386Y-92812962D01*
X118943158Y-92752581D01*
X119097907Y-92721800D01*
X119255693Y-92721800D01*
X119410442Y-92752581D01*
X119410442Y-92752581D01*
G37*
G36*
X141780271Y-91774783D02*
G01*
X141918858Y-91802350D01*
X142114677Y-91883461D01*
X142290910Y-92001216D01*
X142440784Y-92151090D01*
X142558539Y-92327323D01*
X142639650Y-92523142D01*
X142639650Y-92523144D01*
X142679166Y-92721800D01*
X142681000Y-92731023D01*
X142681000Y-92942977D01*
X142639650Y-93150858D01*
X142558539Y-93346677D01*
X142440784Y-93522910D01*
X142290910Y-93672784D01*
X142114677Y-93790539D01*
X141918858Y-93871650D01*
X141780271Y-93899217D01*
X141710978Y-93913000D01*
X141499022Y-93913000D01*
X141429729Y-93899217D01*
X141291142Y-93871650D01*
X141095323Y-93790539D01*
X140919090Y-93672784D01*
X140769216Y-93522910D01*
X140651461Y-93346677D01*
X140570350Y-93150858D01*
X140529000Y-92942977D01*
X140529000Y-92731023D01*
X140530835Y-92721800D01*
X140570350Y-92523144D01*
X140570350Y-92523142D01*
X140651461Y-92327323D01*
X140769216Y-92151090D01*
X140919090Y-92001216D01*
X141095323Y-91883461D01*
X141291142Y-91802350D01*
X141429729Y-91774783D01*
X141499022Y-91761000D01*
X141710978Y-91761000D01*
X141780271Y-91774783D01*
X141780271Y-91774783D01*
G37*
G36*
X126286271Y-91647783D02*
G01*
X126424858Y-91675350D01*
X126620677Y-91756461D01*
X126796910Y-91874216D01*
X126946784Y-92024090D01*
X127064539Y-92200323D01*
X127145650Y-92396142D01*
X127187000Y-92604023D01*
X127187000Y-92815977D01*
X127145650Y-93023858D01*
X127064539Y-93219677D01*
X126946784Y-93395910D01*
X126796910Y-93545784D01*
X126620677Y-93663539D01*
X126424858Y-93744650D01*
X126286271Y-93772217D01*
X126216978Y-93786000D01*
X126005022Y-93786000D01*
X125935729Y-93772217D01*
X125797142Y-93744650D01*
X125601323Y-93663539D01*
X125425090Y-93545784D01*
X125275216Y-93395910D01*
X125157461Y-93219677D01*
X125076350Y-93023858D01*
X125035000Y-92815977D01*
X125035000Y-92604023D01*
X125076350Y-92396142D01*
X125157461Y-92200323D01*
X125275216Y-92024090D01*
X125425090Y-91874216D01*
X125601323Y-91756461D01*
X125797142Y-91675350D01*
X125935729Y-91647783D01*
X126005022Y-91634000D01*
X126216978Y-91634000D01*
X126286271Y-91647783D01*
X126286271Y-91647783D01*
G37*
G36*
X139256560Y-89136064D02*
G01*
X139408027Y-89166193D01*
X139622045Y-89254842D01*
X139686249Y-89297742D01*
X139814654Y-89383539D01*
X139978461Y-89547346D01*
X140022299Y-89612955D01*
X140107158Y-89739955D01*
X140195807Y-89953973D01*
X140241000Y-90181174D01*
X140241000Y-90412826D01*
X140195807Y-90640027D01*
X140107158Y-90854045D01*
X140107157Y-90854046D01*
X139978461Y-91046654D01*
X139814654Y-91210461D01*
X139686249Y-91296258D01*
X139622045Y-91339158D01*
X139408027Y-91427807D01*
X139256560Y-91457936D01*
X139180827Y-91473000D01*
X138949173Y-91473000D01*
X138873440Y-91457936D01*
X138721973Y-91427807D01*
X138507955Y-91339158D01*
X138443751Y-91296258D01*
X138315346Y-91210461D01*
X138151539Y-91046654D01*
X138022843Y-90854046D01*
X138022842Y-90854045D01*
X137934193Y-90640027D01*
X137889000Y-90412826D01*
X137889000Y-90181174D01*
X137934193Y-89953973D01*
X138022842Y-89739955D01*
X138107701Y-89612955D01*
X138151539Y-89547346D01*
X138315346Y-89383539D01*
X138443751Y-89297742D01*
X138507955Y-89254842D01*
X138721973Y-89166193D01*
X138873440Y-89136064D01*
X138949173Y-89121000D01*
X139180827Y-89121000D01*
X139256560Y-89136064D01*
X139256560Y-89136064D01*
G37*
G36*
X144336560Y-89136064D02*
G01*
X144488027Y-89166193D01*
X144702045Y-89254842D01*
X144766249Y-89297742D01*
X144894654Y-89383539D01*
X145058461Y-89547346D01*
X145102299Y-89612955D01*
X145187158Y-89739955D01*
X145275807Y-89953973D01*
X145321000Y-90181174D01*
X145321000Y-90412826D01*
X145275807Y-90640027D01*
X145187158Y-90854045D01*
X145187157Y-90854046D01*
X145058461Y-91046654D01*
X144894654Y-91210461D01*
X144766249Y-91296258D01*
X144702045Y-91339158D01*
X144488027Y-91427807D01*
X144336560Y-91457936D01*
X144260827Y-91473000D01*
X144029173Y-91473000D01*
X143953440Y-91457936D01*
X143801973Y-91427807D01*
X143587955Y-91339158D01*
X143523751Y-91296258D01*
X143395346Y-91210461D01*
X143231539Y-91046654D01*
X143102843Y-90854046D01*
X143102842Y-90854045D01*
X143014193Y-90640027D01*
X142969000Y-90412826D01*
X142969000Y-90181174D01*
X143014193Y-89953973D01*
X143102842Y-89739955D01*
X143187701Y-89612955D01*
X143231539Y-89547346D01*
X143395346Y-89383539D01*
X143523751Y-89297742D01*
X143587955Y-89254842D01*
X143801973Y-89166193D01*
X143953440Y-89136064D01*
X144029173Y-89121000D01*
X144260827Y-89121000D01*
X144336560Y-89136064D01*
X144336560Y-89136064D01*
G37*
G36*
X128842560Y-89009064D02*
G01*
X128994027Y-89039193D01*
X129208045Y-89127842D01*
X129208046Y-89127843D01*
X129400654Y-89256539D01*
X129564461Y-89420346D01*
X129649318Y-89547344D01*
X129693158Y-89612955D01*
X129781807Y-89826973D01*
X129781807Y-89826975D01*
X129827000Y-90054173D01*
X129827000Y-90285827D01*
X129819453Y-90323768D01*
X129781807Y-90513027D01*
X129693158Y-90727045D01*
X129660660Y-90775682D01*
X129564461Y-90919654D01*
X129400654Y-91083461D01*
X129371112Y-91103200D01*
X129208045Y-91212158D01*
X128994027Y-91300807D01*
X128842560Y-91330936D01*
X128766827Y-91346000D01*
X128535173Y-91346000D01*
X128459440Y-91330936D01*
X128307973Y-91300807D01*
X128093955Y-91212158D01*
X127930888Y-91103200D01*
X127901346Y-91083461D01*
X127737539Y-90919654D01*
X127641340Y-90775682D01*
X127608842Y-90727045D01*
X127520193Y-90513027D01*
X127482547Y-90323768D01*
X127475000Y-90285827D01*
X127475000Y-90054173D01*
X127520193Y-89826975D01*
X127520193Y-89826973D01*
X127608842Y-89612955D01*
X127652682Y-89547344D01*
X127737539Y-89420346D01*
X127901346Y-89256539D01*
X128093954Y-89127843D01*
X128093955Y-89127842D01*
X128307973Y-89039193D01*
X128459440Y-89009064D01*
X128535173Y-88994000D01*
X128766827Y-88994000D01*
X128842560Y-89009064D01*
X128842560Y-89009064D01*
G37*
G36*
X123762560Y-89009064D02*
G01*
X123914027Y-89039193D01*
X124128045Y-89127842D01*
X124128046Y-89127843D01*
X124320654Y-89256539D01*
X124484461Y-89420346D01*
X124569318Y-89547344D01*
X124613158Y-89612955D01*
X124701807Y-89826973D01*
X124701807Y-89826975D01*
X124747000Y-90054173D01*
X124747000Y-90285827D01*
X124739453Y-90323768D01*
X124701807Y-90513027D01*
X124613158Y-90727045D01*
X124580660Y-90775682D01*
X124484461Y-90919654D01*
X124320654Y-91083461D01*
X124291112Y-91103200D01*
X124128045Y-91212158D01*
X123914027Y-91300807D01*
X123762560Y-91330936D01*
X123686827Y-91346000D01*
X123455173Y-91346000D01*
X123379440Y-91330936D01*
X123227973Y-91300807D01*
X123013955Y-91212158D01*
X122850888Y-91103200D01*
X122821346Y-91083461D01*
X122657539Y-90919654D01*
X122561340Y-90775682D01*
X122528842Y-90727045D01*
X122440193Y-90513027D01*
X122402547Y-90323768D01*
X122395000Y-90285827D01*
X122395000Y-90054173D01*
X122440193Y-89826975D01*
X122440193Y-89826973D01*
X122528842Y-89612955D01*
X122572682Y-89547344D01*
X122657539Y-89420346D01*
X122821346Y-89256539D01*
X123013954Y-89127843D01*
X123013955Y-89127842D01*
X123227973Y-89039193D01*
X123379440Y-89009064D01*
X123455173Y-88994000D01*
X123686827Y-88994000D01*
X123762560Y-89009064D01*
X123762560Y-89009064D01*
G37*
G36*
X151268843Y-90271092D02*
G01*
X151304416Y-90285827D01*
X151355470Y-90306974D01*
X151433432Y-90359067D01*
X151499733Y-90425368D01*
X151551826Y-90503330D01*
X151558577Y-90519629D01*
X151587708Y-90589957D01*
X151606000Y-90681917D01*
X151606000Y-90775683D01*
X151587708Y-90867643D01*
X151566689Y-90918388D01*
X151551826Y-90954270D01*
X151499733Y-91032232D01*
X151433432Y-91098533D01*
X151355470Y-91150626D01*
X151319588Y-91165489D01*
X151268843Y-91186508D01*
X151176883Y-91204800D01*
X151083117Y-91204800D01*
X150991157Y-91186508D01*
X150940412Y-91165489D01*
X150904530Y-91150626D01*
X150826568Y-91098533D01*
X150760267Y-91032232D01*
X150708174Y-90954270D01*
X150693311Y-90918388D01*
X150672292Y-90867643D01*
X150654000Y-90775683D01*
X150654000Y-90681917D01*
X150672292Y-90589957D01*
X150701423Y-90519629D01*
X150708174Y-90503330D01*
X150760267Y-90425368D01*
X150826568Y-90359067D01*
X150904530Y-90306974D01*
X150955584Y-90285827D01*
X150991157Y-90271092D01*
X151083117Y-90252800D01*
X151176883Y-90252800D01*
X151268843Y-90271092D01*
X151268843Y-90271092D01*
G37*
G36*
X116318443Y-90169492D02*
G01*
X116369188Y-90190511D01*
X116405070Y-90205374D01*
X116483032Y-90257467D01*
X116549333Y-90323768D01*
X116601426Y-90401730D01*
X116601426Y-90401731D01*
X116637308Y-90488357D01*
X116655600Y-90580317D01*
X116655600Y-90674083D01*
X116637308Y-90766043D01*
X116616289Y-90816788D01*
X116601426Y-90852670D01*
X116549333Y-90930632D01*
X116483032Y-90996933D01*
X116405070Y-91049026D01*
X116369188Y-91063889D01*
X116318443Y-91084908D01*
X116226483Y-91103200D01*
X116132717Y-91103200D01*
X116040757Y-91084908D01*
X115990012Y-91063889D01*
X115954130Y-91049026D01*
X115876168Y-90996933D01*
X115809867Y-90930632D01*
X115757774Y-90852670D01*
X115742911Y-90816788D01*
X115721892Y-90766043D01*
X115703600Y-90674083D01*
X115703600Y-90580317D01*
X115721892Y-90488357D01*
X115757774Y-90401731D01*
X115757774Y-90401730D01*
X115809867Y-90323768D01*
X115876168Y-90257467D01*
X115954130Y-90205374D01*
X115990012Y-90190511D01*
X116040757Y-90169492D01*
X116132717Y-90151200D01*
X116226483Y-90151200D01*
X116318443Y-90169492D01*
X116318443Y-90169492D01*
G37*
M02*
