G04 #@! TF.GenerationSoftware,KiCad,Pcbnew,(5.1.2)-2*
G04 #@! TF.CreationDate,2019-07-21T11:30:30+08:00*
G04 #@! TF.ProjectId,SPI,5350492e-6b69-4636-9164-5f7063625858,rev?*
G04 #@! TF.SameCoordinates,Original*
G04 #@! TF.FileFunction,Legend,Top*
G04 #@! TF.FilePolarity,Positive*
%FSLAX46Y46*%
G04 Gerber Fmt 4.6, Leading zero omitted, Abs format (unit mm)*
G04 Created by KiCad (PCBNEW (5.1.2)-2) date 2019-07-21 11:30:30*
%MOMM*%
%LPD*%
G04 APERTURE LIST*
%ADD10C,0.250000*%
%ADD11C,0.120000*%
%ADD12C,0.150000*%
G04 APERTURE END LIST*
D10*
X148638333Y-82089523D02*
X148924047Y-82184761D01*
X149400238Y-82184761D01*
X149590714Y-82089523D01*
X149685952Y-81994285D01*
X149781190Y-81803809D01*
X149781190Y-81613333D01*
X149685952Y-81422857D01*
X149590714Y-81327619D01*
X149400238Y-81232380D01*
X149019285Y-81137142D01*
X148828809Y-81041904D01*
X148733571Y-80946666D01*
X148638333Y-80756190D01*
X148638333Y-80565714D01*
X148733571Y-80375238D01*
X148828809Y-80280000D01*
X149019285Y-80184761D01*
X149495476Y-80184761D01*
X149781190Y-80280000D01*
X150638333Y-82184761D02*
X150638333Y-80184761D01*
X151400238Y-80184761D01*
X151590714Y-80280000D01*
X151685952Y-80375238D01*
X151781190Y-80565714D01*
X151781190Y-80851428D01*
X151685952Y-81041904D01*
X151590714Y-81137142D01*
X151400238Y-81232380D01*
X150638333Y-81232380D01*
X152638333Y-82184761D02*
X152638333Y-80184761D01*
X153114523Y-82375238D02*
X154638333Y-82375238D01*
X155114523Y-82184761D02*
X155114523Y-80184761D01*
X155114523Y-81137142D02*
X156257380Y-81137142D01*
X156257380Y-82184761D02*
X156257380Y-80184761D01*
X158066904Y-80851428D02*
X158066904Y-82184761D01*
X157209761Y-80851428D02*
X157209761Y-81899047D01*
X157305000Y-82089523D01*
X157495476Y-82184761D01*
X157781190Y-82184761D01*
X157971666Y-82089523D01*
X158066904Y-81994285D01*
X159019285Y-82184761D02*
X159019285Y-80184761D01*
X159019285Y-80946666D02*
X159209761Y-80851428D01*
X159590714Y-80851428D01*
X159781190Y-80946666D01*
X159876428Y-81041904D01*
X159971666Y-81232380D01*
X159971666Y-81803809D01*
X159876428Y-81994285D01*
X159781190Y-82089523D01*
X159590714Y-82184761D01*
X159209761Y-82184761D01*
X159019285Y-82089523D01*
D11*
X138430000Y-95310000D02*
X138430000Y-92650000D01*
X138430000Y-95310000D02*
X186750000Y-95310000D01*
X186750000Y-95310000D02*
X186750000Y-92650000D01*
X138430000Y-92650000D02*
X186750000Y-92650000D01*
X135830000Y-92650000D02*
X137160000Y-92650000D01*
X135830000Y-93980000D02*
X135830000Y-92650000D01*
X135830000Y-88900000D02*
X135830000Y-87570000D01*
X135830000Y-87570000D02*
X137160000Y-87570000D01*
X135830000Y-90170000D02*
X138430000Y-90170000D01*
X138430000Y-90170000D02*
X138430000Y-87570000D01*
X138430000Y-87570000D02*
X186750000Y-87570000D01*
X186750000Y-92770000D02*
X186750000Y-87570000D01*
X135830000Y-92770000D02*
X186750000Y-92770000D01*
X135830000Y-92770000D02*
X135830000Y-90170000D01*
X138430000Y-109280000D02*
X138430000Y-106620000D01*
X138430000Y-109280000D02*
X186750000Y-109280000D01*
X186750000Y-109280000D02*
X186750000Y-106620000D01*
X138430000Y-106620000D02*
X186750000Y-106620000D01*
X135830000Y-106620000D02*
X137160000Y-106620000D01*
X135830000Y-107950000D02*
X135830000Y-106620000D01*
X135830000Y-102870000D02*
X135830000Y-101540000D01*
X135830000Y-101540000D02*
X137160000Y-101540000D01*
X135830000Y-104140000D02*
X138430000Y-104140000D01*
X138430000Y-104140000D02*
X138430000Y-101540000D01*
X138430000Y-101540000D02*
X186750000Y-101540000D01*
X186750000Y-106740000D02*
X186750000Y-101540000D01*
X135830000Y-106740000D02*
X186750000Y-106740000D01*
X135830000Y-106740000D02*
X135830000Y-104140000D01*
X138430000Y-123885000D02*
X138430000Y-121225000D01*
X138430000Y-123885000D02*
X186750000Y-123885000D01*
X186750000Y-123885000D02*
X186750000Y-121225000D01*
X138430000Y-121225000D02*
X186750000Y-121225000D01*
X135830000Y-121225000D02*
X137160000Y-121225000D01*
X135830000Y-122555000D02*
X135830000Y-121225000D01*
X135830000Y-117475000D02*
X135830000Y-116145000D01*
X135830000Y-116145000D02*
X137160000Y-116145000D01*
X135830000Y-118745000D02*
X138430000Y-118745000D01*
X138430000Y-118745000D02*
X138430000Y-116145000D01*
X138430000Y-116145000D02*
X186750000Y-116145000D01*
X186750000Y-121345000D02*
X186750000Y-116145000D01*
X135830000Y-121345000D02*
X186750000Y-121345000D01*
X135830000Y-121345000D02*
X135830000Y-118745000D01*
X135830000Y-136525000D02*
X135830000Y-135195000D01*
X135830000Y-135195000D02*
X137160000Y-135195000D01*
X138430000Y-135195000D02*
X186750000Y-135195000D01*
X186750000Y-137855000D02*
X186750000Y-135195000D01*
X138430000Y-137855000D02*
X186750000Y-137855000D01*
X138430000Y-137855000D02*
X138430000Y-135195000D01*
X135830000Y-135315000D02*
X135830000Y-132715000D01*
X135830000Y-135315000D02*
X186750000Y-135315000D01*
X186750000Y-135315000D02*
X186750000Y-130115000D01*
X138430000Y-130115000D02*
X186750000Y-130115000D01*
X138430000Y-132715000D02*
X138430000Y-130115000D01*
X135830000Y-132715000D02*
X138430000Y-132715000D01*
X135830000Y-130115000D02*
X137160000Y-130115000D01*
X135830000Y-131445000D02*
X135830000Y-130115000D01*
X119705000Y-75990000D02*
X119705000Y-77240000D01*
X120955000Y-75990000D02*
X119705000Y-75990000D01*
X126855000Y-81490000D02*
X123805000Y-81490000D01*
X126855000Y-78540000D02*
X126855000Y-81490000D01*
X127605000Y-78540000D02*
X126855000Y-78540000D01*
X120755000Y-81490000D02*
X123805000Y-81490000D01*
X120755000Y-78540000D02*
X120755000Y-81490000D01*
X120005000Y-78540000D02*
X120755000Y-78540000D01*
X127605000Y-76290000D02*
X125805000Y-76290000D01*
X127605000Y-77040000D02*
X127605000Y-76290000D01*
X125805000Y-77040000D02*
X127605000Y-77040000D01*
X125805000Y-76290000D02*
X125805000Y-77040000D01*
X121805000Y-76290000D02*
X120005000Y-76290000D01*
X121805000Y-77040000D02*
X121805000Y-76290000D01*
X120005000Y-77040000D02*
X121805000Y-77040000D01*
X120005000Y-76290000D02*
X120005000Y-77040000D01*
X124305000Y-76290000D02*
X123305000Y-76290000D01*
X124305000Y-77040000D02*
X124305000Y-76290000D01*
X123305000Y-77040000D02*
X124305000Y-77040000D01*
X123305000Y-76290000D02*
X123305000Y-77040000D01*
X127615000Y-76280000D02*
X119995000Y-76280000D01*
X127615000Y-82250000D02*
X127615000Y-76280000D01*
X119995000Y-82250000D02*
X127615000Y-82250000D01*
X119995000Y-76280000D02*
X119995000Y-82250000D01*
X122495000Y-87570000D02*
X125095000Y-87570000D01*
X122495000Y-87570000D02*
X122495000Y-138490000D01*
X122495000Y-138490000D02*
X127695000Y-138490000D01*
X127695000Y-90170000D02*
X127695000Y-138490000D01*
X125095000Y-90170000D02*
X127695000Y-90170000D01*
X125095000Y-87570000D02*
X125095000Y-90170000D01*
X127695000Y-87570000D02*
X127695000Y-88900000D01*
X126365000Y-87570000D02*
X127695000Y-87570000D01*
X118110000Y-87570000D02*
X119440000Y-87570000D01*
X119440000Y-87570000D02*
X119440000Y-88900000D01*
X116840000Y-87570000D02*
X116840000Y-90170000D01*
X116840000Y-90170000D02*
X119440000Y-90170000D01*
X119440000Y-90170000D02*
X119440000Y-138490000D01*
X114240000Y-138490000D02*
X119440000Y-138490000D01*
X114240000Y-87570000D02*
X114240000Y-138490000D01*
X114240000Y-87570000D02*
X116840000Y-87570000D01*
D12*
X190952380Y-97059047D02*
X189952380Y-97059047D01*
X190666666Y-96725714D01*
X189952380Y-96392380D01*
X190952380Y-96392380D01*
X189952380Y-95725714D02*
X189952380Y-95535238D01*
X190000000Y-95440000D01*
X190095238Y-95344761D01*
X190285714Y-95297142D01*
X190619047Y-95297142D01*
X190809523Y-95344761D01*
X190904761Y-95440000D01*
X190952380Y-95535238D01*
X190952380Y-95725714D01*
X190904761Y-95820952D01*
X190809523Y-95916190D01*
X190619047Y-95963809D01*
X190285714Y-95963809D01*
X190095238Y-95916190D01*
X190000000Y-95820952D01*
X189952380Y-95725714D01*
X190904761Y-94916190D02*
X190952380Y-94773333D01*
X190952380Y-94535238D01*
X190904761Y-94440000D01*
X190857142Y-94392380D01*
X190761904Y-94344761D01*
X190666666Y-94344761D01*
X190571428Y-94392380D01*
X190523809Y-94440000D01*
X190476190Y-94535238D01*
X190428571Y-94725714D01*
X190380952Y-94820952D01*
X190333333Y-94868571D01*
X190238095Y-94916190D01*
X190142857Y-94916190D01*
X190047619Y-94868571D01*
X190000000Y-94820952D01*
X189952380Y-94725714D01*
X189952380Y-94487619D01*
X190000000Y-94344761D01*
X190952380Y-93916190D02*
X189952380Y-93916190D01*
X190952380Y-92678095D02*
X189952380Y-92678095D01*
X190666666Y-92344761D01*
X189952380Y-92011428D01*
X190952380Y-92011428D01*
X190952380Y-91535238D02*
X189952380Y-91535238D01*
X190904761Y-91106666D02*
X190952380Y-90963809D01*
X190952380Y-90725714D01*
X190904761Y-90630476D01*
X190857142Y-90582857D01*
X190761904Y-90535238D01*
X190666666Y-90535238D01*
X190571428Y-90582857D01*
X190523809Y-90630476D01*
X190476190Y-90725714D01*
X190428571Y-90916190D01*
X190380952Y-91011428D01*
X190333333Y-91059047D01*
X190238095Y-91106666D01*
X190142857Y-91106666D01*
X190047619Y-91059047D01*
X190000000Y-91011428D01*
X189952380Y-90916190D01*
X189952380Y-90678095D01*
X190000000Y-90535238D01*
X189952380Y-89916190D02*
X189952380Y-89725714D01*
X190000000Y-89630476D01*
X190095238Y-89535238D01*
X190285714Y-89487619D01*
X190619047Y-89487619D01*
X190809523Y-89535238D01*
X190904761Y-89630476D01*
X190952380Y-89725714D01*
X190952380Y-89916190D01*
X190904761Y-90011428D01*
X190809523Y-90106666D01*
X190619047Y-90154285D01*
X190285714Y-90154285D01*
X190095238Y-90106666D01*
X190000000Y-90011428D01*
X189952380Y-89916190D01*
X190904761Y-88344761D02*
X190952380Y-88201904D01*
X190952380Y-87963809D01*
X190904761Y-87868571D01*
X190857142Y-87820952D01*
X190761904Y-87773333D01*
X190666666Y-87773333D01*
X190571428Y-87820952D01*
X190523809Y-87868571D01*
X190476190Y-87963809D01*
X190428571Y-88154285D01*
X190380952Y-88249523D01*
X190333333Y-88297142D01*
X190238095Y-88344761D01*
X190142857Y-88344761D01*
X190047619Y-88297142D01*
X190000000Y-88249523D01*
X189952380Y-88154285D01*
X189952380Y-87916190D01*
X190000000Y-87773333D01*
X190857142Y-86773333D02*
X190904761Y-86820952D01*
X190952380Y-86963809D01*
X190952380Y-87059047D01*
X190904761Y-87201904D01*
X190809523Y-87297142D01*
X190714285Y-87344761D01*
X190523809Y-87392380D01*
X190380952Y-87392380D01*
X190190476Y-87344761D01*
X190095238Y-87297142D01*
X190000000Y-87201904D01*
X189952380Y-87059047D01*
X189952380Y-86963809D01*
X190000000Y-86820952D01*
X190047619Y-86773333D01*
X190952380Y-86344761D02*
X189952380Y-86344761D01*
X190952380Y-85773333D02*
X190380952Y-86201904D01*
X189952380Y-85773333D02*
X190523809Y-86344761D01*
X190952380Y-111029047D02*
X189952380Y-111029047D01*
X190666666Y-110695714D01*
X189952380Y-110362380D01*
X190952380Y-110362380D01*
X189952380Y-109695714D02*
X189952380Y-109505238D01*
X190000000Y-109410000D01*
X190095238Y-109314761D01*
X190285714Y-109267142D01*
X190619047Y-109267142D01*
X190809523Y-109314761D01*
X190904761Y-109410000D01*
X190952380Y-109505238D01*
X190952380Y-109695714D01*
X190904761Y-109790952D01*
X190809523Y-109886190D01*
X190619047Y-109933809D01*
X190285714Y-109933809D01*
X190095238Y-109886190D01*
X190000000Y-109790952D01*
X189952380Y-109695714D01*
X190904761Y-108886190D02*
X190952380Y-108743333D01*
X190952380Y-108505238D01*
X190904761Y-108410000D01*
X190857142Y-108362380D01*
X190761904Y-108314761D01*
X190666666Y-108314761D01*
X190571428Y-108362380D01*
X190523809Y-108410000D01*
X190476190Y-108505238D01*
X190428571Y-108695714D01*
X190380952Y-108790952D01*
X190333333Y-108838571D01*
X190238095Y-108886190D01*
X190142857Y-108886190D01*
X190047619Y-108838571D01*
X190000000Y-108790952D01*
X189952380Y-108695714D01*
X189952380Y-108457619D01*
X190000000Y-108314761D01*
X190952380Y-107886190D02*
X189952380Y-107886190D01*
X190952380Y-106648095D02*
X189952380Y-106648095D01*
X190666666Y-106314761D01*
X189952380Y-105981428D01*
X190952380Y-105981428D01*
X190952380Y-105505238D02*
X189952380Y-105505238D01*
X190904761Y-105076666D02*
X190952380Y-104933809D01*
X190952380Y-104695714D01*
X190904761Y-104600476D01*
X190857142Y-104552857D01*
X190761904Y-104505238D01*
X190666666Y-104505238D01*
X190571428Y-104552857D01*
X190523809Y-104600476D01*
X190476190Y-104695714D01*
X190428571Y-104886190D01*
X190380952Y-104981428D01*
X190333333Y-105029047D01*
X190238095Y-105076666D01*
X190142857Y-105076666D01*
X190047619Y-105029047D01*
X190000000Y-104981428D01*
X189952380Y-104886190D01*
X189952380Y-104648095D01*
X190000000Y-104505238D01*
X189952380Y-103886190D02*
X189952380Y-103695714D01*
X190000000Y-103600476D01*
X190095238Y-103505238D01*
X190285714Y-103457619D01*
X190619047Y-103457619D01*
X190809523Y-103505238D01*
X190904761Y-103600476D01*
X190952380Y-103695714D01*
X190952380Y-103886190D01*
X190904761Y-103981428D01*
X190809523Y-104076666D01*
X190619047Y-104124285D01*
X190285714Y-104124285D01*
X190095238Y-104076666D01*
X190000000Y-103981428D01*
X189952380Y-103886190D01*
X190904761Y-102314761D02*
X190952380Y-102171904D01*
X190952380Y-101933809D01*
X190904761Y-101838571D01*
X190857142Y-101790952D01*
X190761904Y-101743333D01*
X190666666Y-101743333D01*
X190571428Y-101790952D01*
X190523809Y-101838571D01*
X190476190Y-101933809D01*
X190428571Y-102124285D01*
X190380952Y-102219523D01*
X190333333Y-102267142D01*
X190238095Y-102314761D01*
X190142857Y-102314761D01*
X190047619Y-102267142D01*
X190000000Y-102219523D01*
X189952380Y-102124285D01*
X189952380Y-101886190D01*
X190000000Y-101743333D01*
X190857142Y-100743333D02*
X190904761Y-100790952D01*
X190952380Y-100933809D01*
X190952380Y-101029047D01*
X190904761Y-101171904D01*
X190809523Y-101267142D01*
X190714285Y-101314761D01*
X190523809Y-101362380D01*
X190380952Y-101362380D01*
X190190476Y-101314761D01*
X190095238Y-101267142D01*
X190000000Y-101171904D01*
X189952380Y-101029047D01*
X189952380Y-100933809D01*
X190000000Y-100790952D01*
X190047619Y-100743333D01*
X190952380Y-100314761D02*
X189952380Y-100314761D01*
X190952380Y-99743333D02*
X190380952Y-100171904D01*
X189952380Y-99743333D02*
X190523809Y-100314761D01*
X190952380Y-125634047D02*
X189952380Y-125634047D01*
X190666666Y-125300714D01*
X189952380Y-124967380D01*
X190952380Y-124967380D01*
X189952380Y-124300714D02*
X189952380Y-124110238D01*
X190000000Y-124015000D01*
X190095238Y-123919761D01*
X190285714Y-123872142D01*
X190619047Y-123872142D01*
X190809523Y-123919761D01*
X190904761Y-124015000D01*
X190952380Y-124110238D01*
X190952380Y-124300714D01*
X190904761Y-124395952D01*
X190809523Y-124491190D01*
X190619047Y-124538809D01*
X190285714Y-124538809D01*
X190095238Y-124491190D01*
X190000000Y-124395952D01*
X189952380Y-124300714D01*
X190904761Y-123491190D02*
X190952380Y-123348333D01*
X190952380Y-123110238D01*
X190904761Y-123015000D01*
X190857142Y-122967380D01*
X190761904Y-122919761D01*
X190666666Y-122919761D01*
X190571428Y-122967380D01*
X190523809Y-123015000D01*
X190476190Y-123110238D01*
X190428571Y-123300714D01*
X190380952Y-123395952D01*
X190333333Y-123443571D01*
X190238095Y-123491190D01*
X190142857Y-123491190D01*
X190047619Y-123443571D01*
X190000000Y-123395952D01*
X189952380Y-123300714D01*
X189952380Y-123062619D01*
X190000000Y-122919761D01*
X190952380Y-122491190D02*
X189952380Y-122491190D01*
X190952380Y-121253095D02*
X189952380Y-121253095D01*
X190666666Y-120919761D01*
X189952380Y-120586428D01*
X190952380Y-120586428D01*
X190952380Y-120110238D02*
X189952380Y-120110238D01*
X190904761Y-119681666D02*
X190952380Y-119538809D01*
X190952380Y-119300714D01*
X190904761Y-119205476D01*
X190857142Y-119157857D01*
X190761904Y-119110238D01*
X190666666Y-119110238D01*
X190571428Y-119157857D01*
X190523809Y-119205476D01*
X190476190Y-119300714D01*
X190428571Y-119491190D01*
X190380952Y-119586428D01*
X190333333Y-119634047D01*
X190238095Y-119681666D01*
X190142857Y-119681666D01*
X190047619Y-119634047D01*
X190000000Y-119586428D01*
X189952380Y-119491190D01*
X189952380Y-119253095D01*
X190000000Y-119110238D01*
X189952380Y-118491190D02*
X189952380Y-118300714D01*
X190000000Y-118205476D01*
X190095238Y-118110238D01*
X190285714Y-118062619D01*
X190619047Y-118062619D01*
X190809523Y-118110238D01*
X190904761Y-118205476D01*
X190952380Y-118300714D01*
X190952380Y-118491190D01*
X190904761Y-118586428D01*
X190809523Y-118681666D01*
X190619047Y-118729285D01*
X190285714Y-118729285D01*
X190095238Y-118681666D01*
X190000000Y-118586428D01*
X189952380Y-118491190D01*
X190904761Y-116919761D02*
X190952380Y-116776904D01*
X190952380Y-116538809D01*
X190904761Y-116443571D01*
X190857142Y-116395952D01*
X190761904Y-116348333D01*
X190666666Y-116348333D01*
X190571428Y-116395952D01*
X190523809Y-116443571D01*
X190476190Y-116538809D01*
X190428571Y-116729285D01*
X190380952Y-116824523D01*
X190333333Y-116872142D01*
X190238095Y-116919761D01*
X190142857Y-116919761D01*
X190047619Y-116872142D01*
X190000000Y-116824523D01*
X189952380Y-116729285D01*
X189952380Y-116491190D01*
X190000000Y-116348333D01*
X190857142Y-115348333D02*
X190904761Y-115395952D01*
X190952380Y-115538809D01*
X190952380Y-115634047D01*
X190904761Y-115776904D01*
X190809523Y-115872142D01*
X190714285Y-115919761D01*
X190523809Y-115967380D01*
X190380952Y-115967380D01*
X190190476Y-115919761D01*
X190095238Y-115872142D01*
X190000000Y-115776904D01*
X189952380Y-115634047D01*
X189952380Y-115538809D01*
X190000000Y-115395952D01*
X190047619Y-115348333D01*
X190952380Y-114919761D02*
X189952380Y-114919761D01*
X190952380Y-114348333D02*
X190380952Y-114776904D01*
X189952380Y-114348333D02*
X190523809Y-114919761D01*
X190952380Y-139604047D02*
X189952380Y-139604047D01*
X190666666Y-139270714D01*
X189952380Y-138937380D01*
X190952380Y-138937380D01*
X189952380Y-138270714D02*
X189952380Y-138080238D01*
X190000000Y-137985000D01*
X190095238Y-137889761D01*
X190285714Y-137842142D01*
X190619047Y-137842142D01*
X190809523Y-137889761D01*
X190904761Y-137985000D01*
X190952380Y-138080238D01*
X190952380Y-138270714D01*
X190904761Y-138365952D01*
X190809523Y-138461190D01*
X190619047Y-138508809D01*
X190285714Y-138508809D01*
X190095238Y-138461190D01*
X190000000Y-138365952D01*
X189952380Y-138270714D01*
X190904761Y-137461190D02*
X190952380Y-137318333D01*
X190952380Y-137080238D01*
X190904761Y-136985000D01*
X190857142Y-136937380D01*
X190761904Y-136889761D01*
X190666666Y-136889761D01*
X190571428Y-136937380D01*
X190523809Y-136985000D01*
X190476190Y-137080238D01*
X190428571Y-137270714D01*
X190380952Y-137365952D01*
X190333333Y-137413571D01*
X190238095Y-137461190D01*
X190142857Y-137461190D01*
X190047619Y-137413571D01*
X190000000Y-137365952D01*
X189952380Y-137270714D01*
X189952380Y-137032619D01*
X190000000Y-136889761D01*
X190952380Y-136461190D02*
X189952380Y-136461190D01*
X190952380Y-135223095D02*
X189952380Y-135223095D01*
X190666666Y-134889761D01*
X189952380Y-134556428D01*
X190952380Y-134556428D01*
X190952380Y-134080238D02*
X189952380Y-134080238D01*
X190904761Y-133651666D02*
X190952380Y-133508809D01*
X190952380Y-133270714D01*
X190904761Y-133175476D01*
X190857142Y-133127857D01*
X190761904Y-133080238D01*
X190666666Y-133080238D01*
X190571428Y-133127857D01*
X190523809Y-133175476D01*
X190476190Y-133270714D01*
X190428571Y-133461190D01*
X190380952Y-133556428D01*
X190333333Y-133604047D01*
X190238095Y-133651666D01*
X190142857Y-133651666D01*
X190047619Y-133604047D01*
X190000000Y-133556428D01*
X189952380Y-133461190D01*
X189952380Y-133223095D01*
X190000000Y-133080238D01*
X189952380Y-132461190D02*
X189952380Y-132270714D01*
X190000000Y-132175476D01*
X190095238Y-132080238D01*
X190285714Y-132032619D01*
X190619047Y-132032619D01*
X190809523Y-132080238D01*
X190904761Y-132175476D01*
X190952380Y-132270714D01*
X190952380Y-132461190D01*
X190904761Y-132556428D01*
X190809523Y-132651666D01*
X190619047Y-132699285D01*
X190285714Y-132699285D01*
X190095238Y-132651666D01*
X190000000Y-132556428D01*
X189952380Y-132461190D01*
X190904761Y-130889761D02*
X190952380Y-130746904D01*
X190952380Y-130508809D01*
X190904761Y-130413571D01*
X190857142Y-130365952D01*
X190761904Y-130318333D01*
X190666666Y-130318333D01*
X190571428Y-130365952D01*
X190523809Y-130413571D01*
X190476190Y-130508809D01*
X190428571Y-130699285D01*
X190380952Y-130794523D01*
X190333333Y-130842142D01*
X190238095Y-130889761D01*
X190142857Y-130889761D01*
X190047619Y-130842142D01*
X190000000Y-130794523D01*
X189952380Y-130699285D01*
X189952380Y-130461190D01*
X190000000Y-130318333D01*
X190857142Y-129318333D02*
X190904761Y-129365952D01*
X190952380Y-129508809D01*
X190952380Y-129604047D01*
X190904761Y-129746904D01*
X190809523Y-129842142D01*
X190714285Y-129889761D01*
X190523809Y-129937380D01*
X190380952Y-129937380D01*
X190190476Y-129889761D01*
X190095238Y-129842142D01*
X190000000Y-129746904D01*
X189952380Y-129604047D01*
X189952380Y-129508809D01*
X190000000Y-129365952D01*
X190047619Y-129318333D01*
X190952380Y-128889761D02*
X189952380Y-128889761D01*
X190952380Y-128318333D02*
X190380952Y-128746904D01*
X189952380Y-128318333D02*
X190523809Y-128889761D01*
X121253571Y-82685000D02*
X121158333Y-82637380D01*
X121015476Y-82637380D01*
X120872619Y-82685000D01*
X120777380Y-82780238D01*
X120729761Y-82875476D01*
X120682142Y-83065952D01*
X120682142Y-83208809D01*
X120729761Y-83399285D01*
X120777380Y-83494523D01*
X120872619Y-83589761D01*
X121015476Y-83637380D01*
X121110714Y-83637380D01*
X121253571Y-83589761D01*
X121301190Y-83542142D01*
X121301190Y-83208809D01*
X121110714Y-83208809D01*
X121729761Y-83637380D02*
X121729761Y-82637380D01*
X122301190Y-83637380D01*
X122301190Y-82637380D01*
X122777380Y-83637380D02*
X122777380Y-82637380D01*
X123015476Y-82637380D01*
X123158333Y-82685000D01*
X123253571Y-82780238D01*
X123301190Y-82875476D01*
X123348809Y-83065952D01*
X123348809Y-83208809D01*
X123301190Y-83399285D01*
X123253571Y-83494523D01*
X123158333Y-83589761D01*
X123015476Y-83637380D01*
X122777380Y-83637380D01*
X124396428Y-82637380D02*
X124729761Y-83637380D01*
X125063095Y-82637380D01*
X125967857Y-83542142D02*
X125920238Y-83589761D01*
X125777380Y-83637380D01*
X125682142Y-83637380D01*
X125539285Y-83589761D01*
X125444047Y-83494523D01*
X125396428Y-83399285D01*
X125348809Y-83208809D01*
X125348809Y-83065952D01*
X125396428Y-82875476D01*
X125444047Y-82780238D01*
X125539285Y-82685000D01*
X125682142Y-82637380D01*
X125777380Y-82637380D01*
X125920238Y-82685000D01*
X125967857Y-82732619D01*
X126967857Y-83542142D02*
X126920238Y-83589761D01*
X126777380Y-83637380D01*
X126682142Y-83637380D01*
X126539285Y-83589761D01*
X126444047Y-83494523D01*
X126396428Y-83399285D01*
X126348809Y-83208809D01*
X126348809Y-83065952D01*
X126396428Y-82875476D01*
X126444047Y-82780238D01*
X126539285Y-82685000D01*
X126682142Y-82637380D01*
X126777380Y-82637380D01*
X126920238Y-82685000D01*
X126967857Y-82732619D01*
X122523571Y-85630000D02*
X122428333Y-85582380D01*
X122285476Y-85582380D01*
X122142619Y-85630000D01*
X122047380Y-85725238D01*
X121999761Y-85820476D01*
X121952142Y-86010952D01*
X121952142Y-86153809D01*
X121999761Y-86344285D01*
X122047380Y-86439523D01*
X122142619Y-86534761D01*
X122285476Y-86582380D01*
X122380714Y-86582380D01*
X122523571Y-86534761D01*
X122571190Y-86487142D01*
X122571190Y-86153809D01*
X122380714Y-86153809D01*
X122999761Y-86582380D02*
X122999761Y-85582380D01*
X123571190Y-86582380D01*
X123571190Y-85582380D01*
X124047380Y-86582380D02*
X124047380Y-85582380D01*
X124285476Y-85582380D01*
X124428333Y-85630000D01*
X124523571Y-85725238D01*
X124571190Y-85820476D01*
X124618809Y-86010952D01*
X124618809Y-86153809D01*
X124571190Y-86344285D01*
X124523571Y-86439523D01*
X124428333Y-86534761D01*
X124285476Y-86582380D01*
X124047380Y-86582380D01*
X125666428Y-85582380D02*
X125999761Y-86582380D01*
X126333095Y-85582380D01*
X127237857Y-86487142D02*
X127190238Y-86534761D01*
X127047380Y-86582380D01*
X126952142Y-86582380D01*
X126809285Y-86534761D01*
X126714047Y-86439523D01*
X126666428Y-86344285D01*
X126618809Y-86153809D01*
X126618809Y-86010952D01*
X126666428Y-85820476D01*
X126714047Y-85725238D01*
X126809285Y-85630000D01*
X126952142Y-85582380D01*
X127047380Y-85582380D01*
X127190238Y-85630000D01*
X127237857Y-85677619D01*
X128237857Y-86487142D02*
X128190238Y-86534761D01*
X128047380Y-86582380D01*
X127952142Y-86582380D01*
X127809285Y-86534761D01*
X127714047Y-86439523D01*
X127666428Y-86344285D01*
X127618809Y-86153809D01*
X127618809Y-86010952D01*
X127666428Y-85820476D01*
X127714047Y-85725238D01*
X127809285Y-85630000D01*
X127952142Y-85582380D01*
X128047380Y-85582380D01*
X128190238Y-85630000D01*
X128237857Y-85677619D01*
X114268571Y-85630000D02*
X114173333Y-85582380D01*
X114030476Y-85582380D01*
X113887619Y-85630000D01*
X113792380Y-85725238D01*
X113744761Y-85820476D01*
X113697142Y-86010952D01*
X113697142Y-86153809D01*
X113744761Y-86344285D01*
X113792380Y-86439523D01*
X113887619Y-86534761D01*
X114030476Y-86582380D01*
X114125714Y-86582380D01*
X114268571Y-86534761D01*
X114316190Y-86487142D01*
X114316190Y-86153809D01*
X114125714Y-86153809D01*
X114744761Y-86582380D02*
X114744761Y-85582380D01*
X115316190Y-86582380D01*
X115316190Y-85582380D01*
X115792380Y-86582380D02*
X115792380Y-85582380D01*
X116030476Y-85582380D01*
X116173333Y-85630000D01*
X116268571Y-85725238D01*
X116316190Y-85820476D01*
X116363809Y-86010952D01*
X116363809Y-86153809D01*
X116316190Y-86344285D01*
X116268571Y-86439523D01*
X116173333Y-86534761D01*
X116030476Y-86582380D01*
X115792380Y-86582380D01*
X117411428Y-85582380D02*
X117744761Y-86582380D01*
X118078095Y-85582380D01*
X118982857Y-86487142D02*
X118935238Y-86534761D01*
X118792380Y-86582380D01*
X118697142Y-86582380D01*
X118554285Y-86534761D01*
X118459047Y-86439523D01*
X118411428Y-86344285D01*
X118363809Y-86153809D01*
X118363809Y-86010952D01*
X118411428Y-85820476D01*
X118459047Y-85725238D01*
X118554285Y-85630000D01*
X118697142Y-85582380D01*
X118792380Y-85582380D01*
X118935238Y-85630000D01*
X118982857Y-85677619D01*
X119982857Y-86487142D02*
X119935238Y-86534761D01*
X119792380Y-86582380D01*
X119697142Y-86582380D01*
X119554285Y-86534761D01*
X119459047Y-86439523D01*
X119411428Y-86344285D01*
X119363809Y-86153809D01*
X119363809Y-86010952D01*
X119411428Y-85820476D01*
X119459047Y-85725238D01*
X119554285Y-85630000D01*
X119697142Y-85582380D01*
X119792380Y-85582380D01*
X119935238Y-85630000D01*
X119982857Y-85677619D01*
M02*
