G04 #@! TF.GenerationSoftware,KiCad,Pcbnew,(5.1.2)-2*
G04 #@! TF.CreationDate,2019-07-08T22:36:46+08:00*
G04 #@! TF.ProjectId,General Purpose Op Amp Eval-Board,47656e65-7261-46c2-9050-7572706f7365,rev?*
G04 #@! TF.SameCoordinates,Original*
G04 #@! TF.FileFunction,Legend,Top*
G04 #@! TF.FilePolarity,Positive*
%FSLAX46Y46*%
G04 Gerber Fmt 4.6, Leading zero omitted, Abs format (unit mm)*
G04 Created by KiCad (PCBNEW (5.1.2)-2) date 2019-07-08 22:36:46*
%MOMM*%
%LPD*%
G04 APERTURE LIST*
%ADD10C,0.120000*%
%ADD11C,0.150000*%
G04 APERTURE END LIST*
D10*
X166995800Y-97613000D02*
X167690800Y-97613000D01*
X166995800Y-98298000D02*
X166995800Y-97613000D01*
X168299076Y-98983000D02*
X168385800Y-98983000D01*
X166995800Y-98983000D02*
X167082524Y-98983000D01*
X168385800Y-98983000D02*
X168385800Y-98858000D01*
X166995800Y-98983000D02*
X166995800Y-98858000D01*
X166995800Y-98983000D02*
X168385800Y-98983000D01*
X167015200Y-101600000D02*
G75*
G03X167015200Y-101600000I-950000J0D01*
G01*
X136941600Y-97942400D02*
G75*
G03X136941600Y-97942400I-950000J0D01*
G01*
X132655000Y-94260200D02*
X133350000Y-94260200D01*
X132655000Y-94945200D02*
X132655000Y-94260200D01*
X133958276Y-95630200D02*
X134045000Y-95630200D01*
X132655000Y-95630200D02*
X132741724Y-95630200D01*
X134045000Y-95630200D02*
X134045000Y-95505200D01*
X132655000Y-95630200D02*
X132655000Y-95505200D01*
X132655000Y-95630200D02*
X134045000Y-95630200D01*
X97247400Y-99543400D02*
X97942400Y-99543400D01*
X97247400Y-100228400D02*
X97247400Y-99543400D01*
X98550676Y-100913400D02*
X98637400Y-100913400D01*
X97247400Y-100913400D02*
X97334124Y-100913400D01*
X98637400Y-100913400D02*
X98637400Y-100788400D01*
X97247400Y-100913400D02*
X97247400Y-100788400D01*
X97247400Y-100913400D02*
X98637400Y-100913400D01*
X132623600Y-98145600D02*
G75*
G03X132623600Y-98145600I-950000J0D01*
G01*
X101889600Y-103682800D02*
G75*
G03X101889600Y-103682800I-950000J0D01*
G01*
X145405600Y-106302000D02*
X145405600Y-103502000D01*
X145405600Y-103502000D02*
X147405600Y-103502000D01*
X147405600Y-103502000D02*
X147405600Y-106302000D01*
X147405600Y-106302000D02*
X145405600Y-106302000D01*
X140427200Y-113160000D02*
X140427200Y-110360000D01*
X140427200Y-110360000D02*
X142427200Y-110360000D01*
X142427200Y-110360000D02*
X142427200Y-113160000D01*
X142427200Y-113160000D02*
X140427200Y-113160000D01*
X153787600Y-112753600D02*
X153787600Y-109953600D01*
X153787600Y-109953600D02*
X155787600Y-109953600D01*
X155787600Y-109953600D02*
X155787600Y-112753600D01*
X155787600Y-112753600D02*
X153787600Y-112753600D01*
X123212400Y-103190800D02*
X126012400Y-103190800D01*
X126012400Y-103190800D02*
X126012400Y-105190800D01*
X126012400Y-105190800D02*
X123212400Y-105190800D01*
X123212400Y-105190800D02*
X123212400Y-103190800D01*
X104924400Y-102378000D02*
X107724400Y-102378000D01*
X107724400Y-102378000D02*
X107724400Y-104378000D01*
X107724400Y-104378000D02*
X104924400Y-104378000D01*
X104924400Y-104378000D02*
X104924400Y-102378000D01*
X103190800Y-111737600D02*
X103190800Y-108937600D01*
X103190800Y-108937600D02*
X105190800Y-108937600D01*
X105190800Y-108937600D02*
X105190800Y-111737600D01*
X105190800Y-111737600D02*
X103190800Y-111737600D01*
X141754400Y-123612400D02*
X144554400Y-123612400D01*
X144554400Y-123612400D02*
X144554400Y-125612400D01*
X144554400Y-125612400D02*
X141754400Y-125612400D01*
X141754400Y-125612400D02*
X141754400Y-123612400D01*
X124177600Y-124323600D02*
X126977600Y-124323600D01*
X126977600Y-124323600D02*
X126977600Y-126323600D01*
X126977600Y-126323600D02*
X124177600Y-126323600D01*
X124177600Y-126323600D02*
X124177600Y-124323600D01*
X134114000Y-116122267D02*
X134114000Y-115779733D01*
X133094000Y-116122267D02*
X133094000Y-115779733D01*
X125833600Y-110725133D02*
X125833600Y-111067667D01*
X124813600Y-110725133D02*
X124813600Y-111067667D01*
X149252400Y-111080733D02*
X149252400Y-111423267D01*
X148232400Y-111080733D02*
X148232400Y-111423267D01*
X127810800Y-107473933D02*
X127810800Y-107816467D01*
X128830800Y-107473933D02*
X128830800Y-107816467D01*
X120567267Y-110187200D02*
X120224733Y-110187200D01*
X120567267Y-109167200D02*
X120224733Y-109167200D01*
X141196600Y-107219933D02*
X141196600Y-107562467D01*
X142216600Y-107219933D02*
X142216600Y-107562467D01*
X130808000Y-101809733D02*
X130808000Y-102152267D01*
X131828000Y-101809733D02*
X131828000Y-102152267D01*
X149777267Y-98296000D02*
X149434733Y-98296000D01*
X149777267Y-99316000D02*
X149434733Y-99316000D01*
X120478733Y-101090000D02*
X120821267Y-101090000D01*
X120478733Y-102110000D02*
X120821267Y-102110000D01*
X149828067Y-100937600D02*
X149485533Y-100937600D01*
X149828067Y-101957600D02*
X149485533Y-101957600D01*
X128759133Y-113536000D02*
X129101667Y-113536000D01*
X128759133Y-114556000D02*
X129101667Y-114556000D01*
X125901267Y-118467600D02*
X125558733Y-118467600D01*
X125901267Y-117447600D02*
X125558733Y-117447600D01*
X136142000Y-101936733D02*
X136142000Y-102279267D01*
X137162000Y-101936733D02*
X137162000Y-102279267D01*
X142111000Y-117519267D02*
X142111000Y-117176733D01*
X143131000Y-117519267D02*
X143131000Y-117176733D01*
X100835800Y-91361600D02*
X100835800Y-94261600D01*
X107545800Y-91361600D02*
X107545800Y-94261600D01*
X102740800Y-96166600D02*
X105640800Y-96166600D01*
X102740800Y-89456600D02*
X105640800Y-89456600D01*
X113662800Y-89355000D02*
X116562800Y-89355000D01*
X113662800Y-96065000D02*
X116562800Y-96065000D01*
X118467800Y-91260000D02*
X118467800Y-94160000D01*
X111757800Y-91260000D02*
X111757800Y-94160000D01*
X159459000Y-91260000D02*
X159459000Y-94160000D01*
X166169000Y-91260000D02*
X166169000Y-94160000D01*
X161364000Y-96065000D02*
X164264000Y-96065000D01*
X161364000Y-89355000D02*
X164264000Y-89355000D01*
X150746800Y-89507400D02*
X153646800Y-89507400D01*
X150746800Y-96217400D02*
X153646800Y-96217400D01*
X155551800Y-91412400D02*
X155551800Y-94312400D01*
X148841800Y-91412400D02*
X148841800Y-94312400D01*
X128631000Y-120222000D02*
X128631000Y-126192000D01*
X128631000Y-126192000D02*
X138751000Y-126192000D01*
X138751000Y-126192000D02*
X138751000Y-120222000D01*
X138751000Y-120222000D02*
X128631000Y-120222000D01*
X131941000Y-120232000D02*
X131941000Y-120982000D01*
X131941000Y-120982000D02*
X135441000Y-120982000D01*
X135441000Y-120982000D02*
X135441000Y-120232000D01*
X135441000Y-120232000D02*
X131941000Y-120232000D01*
X128641000Y-120232000D02*
X128641000Y-120982000D01*
X128641000Y-120982000D02*
X130441000Y-120982000D01*
X130441000Y-120982000D02*
X130441000Y-120232000D01*
X130441000Y-120232000D02*
X128641000Y-120232000D01*
X136941000Y-120232000D02*
X136941000Y-120982000D01*
X136941000Y-120982000D02*
X138741000Y-120982000D01*
X138741000Y-120982000D02*
X138741000Y-120232000D01*
X138741000Y-120232000D02*
X136941000Y-120232000D01*
X128641000Y-122482000D02*
X129391000Y-122482000D01*
X129391000Y-122482000D02*
X129391000Y-125432000D01*
X129391000Y-125432000D02*
X133691000Y-125432000D01*
X138741000Y-122482000D02*
X137991000Y-122482000D01*
X137991000Y-122482000D02*
X137991000Y-125432000D01*
X137991000Y-125432000D02*
X133691000Y-125432000D01*
X129591000Y-119932000D02*
X128341000Y-119932000D01*
X128341000Y-119932000D02*
X128341000Y-121182000D01*
X124661000Y-89355000D02*
X127561000Y-89355000D01*
X124661000Y-96065000D02*
X127561000Y-96065000D01*
X129466000Y-91260000D02*
X129466000Y-94160000D01*
X122756000Y-91260000D02*
X122756000Y-94160000D01*
X138250000Y-91387000D02*
X138250000Y-94287000D01*
X144960000Y-91387000D02*
X144960000Y-94287000D01*
X140155000Y-96192000D02*
X143055000Y-96192000D01*
X140155000Y-89482000D02*
X143055000Y-89482000D01*
X114382733Y-100201000D02*
X114725267Y-100201000D01*
X114382733Y-101221000D02*
X114725267Y-101221000D01*
X106470267Y-100201000D02*
X106127733Y-100201000D01*
X106470267Y-101221000D02*
X106127733Y-101221000D01*
X158494000Y-109137267D02*
X158494000Y-108794733D01*
X159514000Y-109137267D02*
X159514000Y-108794733D01*
X155568467Y-106377200D02*
X155225933Y-106377200D01*
X155568467Y-105357200D02*
X155225933Y-105357200D01*
X152097200Y-111474067D02*
X152097200Y-111131533D01*
X151077200Y-111474067D02*
X151077200Y-111131533D01*
X106470267Y-106301000D02*
X106127733Y-106301000D01*
X106470267Y-105281000D02*
X106127733Y-105281000D01*
X155073533Y-102563200D02*
X155416067Y-102563200D01*
X155073533Y-103583200D02*
X155416067Y-103583200D01*
X114725267Y-103761000D02*
X114382733Y-103761000D01*
X114725267Y-102741000D02*
X114382733Y-102741000D01*
X108079000Y-110407267D02*
X108079000Y-110064733D01*
X107059000Y-110407267D02*
X107059000Y-110064733D01*
X139448000Y-113912467D02*
X139448000Y-113569933D01*
X138428000Y-113912467D02*
X138428000Y-113569933D01*
X138220267Y-117604000D02*
X137877733Y-117604000D01*
X138220267Y-116584000D02*
X137877733Y-116584000D01*
X114090267Y-112901000D02*
X113747733Y-112901000D01*
X114090267Y-113921000D02*
X113747733Y-113921000D01*
X120770467Y-106322400D02*
X120427933Y-106322400D01*
X120770467Y-107342400D02*
X120427933Y-107342400D01*
X144756600Y-107219933D02*
X144756600Y-107562467D01*
X143736600Y-107219933D02*
X143736600Y-107562467D01*
X120478733Y-104650000D02*
X120821267Y-104650000D01*
X120478733Y-103630000D02*
X120821267Y-103630000D01*
X148283200Y-104730733D02*
X148283200Y-105073267D01*
X149303200Y-104730733D02*
X149303200Y-105073267D01*
X128780000Y-102063733D02*
X128780000Y-102406267D01*
X127760000Y-102063733D02*
X127760000Y-102406267D01*
X143478067Y-99620800D02*
X143135533Y-99620800D01*
X143478067Y-98600800D02*
X143135533Y-98600800D01*
X120478733Y-98550000D02*
X120821267Y-98550000D01*
X120478733Y-99570000D02*
X120821267Y-99570000D01*
X138936000Y-100158733D02*
X138936000Y-100501267D01*
X139956000Y-100158733D02*
X139956000Y-100501267D01*
X125861867Y-121460800D02*
X125519333Y-121460800D01*
X125861867Y-122480800D02*
X125519333Y-122480800D01*
X143033933Y-122074400D02*
X143376467Y-122074400D01*
X143033933Y-121054400D02*
X143376467Y-121054400D01*
X134620000Y-110510000D02*
X136570000Y-110510000D01*
X134620000Y-110510000D02*
X132670000Y-110510000D01*
X134620000Y-105390000D02*
X136570000Y-105390000D01*
X134620000Y-105390000D02*
X131170000Y-105390000D01*
D11*
X167894095Y-95969200D02*
X167798857Y-95921580D01*
X167656000Y-95921580D01*
X167513142Y-95969200D01*
X167417904Y-96064438D01*
X167370285Y-96159676D01*
X167322666Y-96350152D01*
X167322666Y-96493009D01*
X167370285Y-96683485D01*
X167417904Y-96778723D01*
X167513142Y-96873961D01*
X167656000Y-96921580D01*
X167751238Y-96921580D01*
X167894095Y-96873961D01*
X167941714Y-96826342D01*
X167941714Y-96493009D01*
X167751238Y-96493009D01*
X168370285Y-96921580D02*
X168370285Y-95921580D01*
X168941714Y-96921580D01*
X168941714Y-95921580D01*
X169417904Y-96921580D02*
X169417904Y-95921580D01*
X169656000Y-95921580D01*
X169798857Y-95969200D01*
X169894095Y-96064438D01*
X169941714Y-96159676D01*
X169989333Y-96350152D01*
X169989333Y-96493009D01*
X169941714Y-96683485D01*
X169894095Y-96778723D01*
X169798857Y-96873961D01*
X169656000Y-96921580D01*
X169417904Y-96921580D01*
X164803295Y-99404380D02*
X165374723Y-99404380D01*
X165089009Y-100404380D02*
X165089009Y-99404380D01*
X165708057Y-100404380D02*
X165708057Y-99404380D01*
X166089009Y-99404380D01*
X166184247Y-99452000D01*
X166231866Y-99499619D01*
X166279485Y-99594857D01*
X166279485Y-99737714D01*
X166231866Y-99832952D01*
X166184247Y-99880571D01*
X166089009Y-99928190D01*
X165708057Y-99928190D01*
X167136628Y-99737714D02*
X167136628Y-100404380D01*
X166898533Y-99356761D02*
X166660438Y-100071047D01*
X167279485Y-100071047D01*
X134729695Y-95746780D02*
X135301123Y-95746780D01*
X135015409Y-96746780D02*
X135015409Y-95746780D01*
X135634457Y-96746780D02*
X135634457Y-95746780D01*
X136015409Y-95746780D01*
X136110647Y-95794400D01*
X136158266Y-95842019D01*
X136205885Y-95937257D01*
X136205885Y-96080114D01*
X136158266Y-96175352D01*
X136110647Y-96222971D01*
X136015409Y-96270590D01*
X135634457Y-96270590D01*
X136539219Y-95746780D02*
X137158266Y-95746780D01*
X136824933Y-96127733D01*
X136967790Y-96127733D01*
X137063028Y-96175352D01*
X137110647Y-96222971D01*
X137158266Y-96318209D01*
X137158266Y-96556304D01*
X137110647Y-96651542D01*
X137063028Y-96699161D01*
X136967790Y-96746780D01*
X136682076Y-96746780D01*
X136586838Y-96699161D01*
X136539219Y-96651542D01*
X132588095Y-92885200D02*
X132492857Y-92837580D01*
X132350000Y-92837580D01*
X132207142Y-92885200D01*
X132111904Y-92980438D01*
X132064285Y-93075676D01*
X132016666Y-93266152D01*
X132016666Y-93409009D01*
X132064285Y-93599485D01*
X132111904Y-93694723D01*
X132207142Y-93789961D01*
X132350000Y-93837580D01*
X132445238Y-93837580D01*
X132588095Y-93789961D01*
X132635714Y-93742342D01*
X132635714Y-93409009D01*
X132445238Y-93409009D01*
X133064285Y-93837580D02*
X133064285Y-92837580D01*
X133635714Y-93837580D01*
X133635714Y-92837580D01*
X134111904Y-93837580D02*
X134111904Y-92837580D01*
X134350000Y-92837580D01*
X134492857Y-92885200D01*
X134588095Y-92980438D01*
X134635714Y-93075676D01*
X134683333Y-93266152D01*
X134683333Y-93409009D01*
X134635714Y-93599485D01*
X134588095Y-93694723D01*
X134492857Y-93789961D01*
X134350000Y-93837580D01*
X134111904Y-93837580D01*
X97180495Y-98168400D02*
X97085257Y-98120780D01*
X96942400Y-98120780D01*
X96799542Y-98168400D01*
X96704304Y-98263638D01*
X96656685Y-98358876D01*
X96609066Y-98549352D01*
X96609066Y-98692209D01*
X96656685Y-98882685D01*
X96704304Y-98977923D01*
X96799542Y-99073161D01*
X96942400Y-99120780D01*
X97037638Y-99120780D01*
X97180495Y-99073161D01*
X97228114Y-99025542D01*
X97228114Y-98692209D01*
X97037638Y-98692209D01*
X97656685Y-99120780D02*
X97656685Y-98120780D01*
X98228114Y-99120780D01*
X98228114Y-98120780D01*
X98704304Y-99120780D02*
X98704304Y-98120780D01*
X98942400Y-98120780D01*
X99085257Y-98168400D01*
X99180495Y-98263638D01*
X99228114Y-98358876D01*
X99275733Y-98549352D01*
X99275733Y-98692209D01*
X99228114Y-98882685D01*
X99180495Y-98977923D01*
X99085257Y-99073161D01*
X98942400Y-99120780D01*
X98704304Y-99120780D01*
X127871695Y-97851980D02*
X128443123Y-97851980D01*
X128157409Y-98851980D02*
X128157409Y-97851980D01*
X128776457Y-98851980D02*
X128776457Y-97851980D01*
X129157409Y-97851980D01*
X129252647Y-97899600D01*
X129300266Y-97947219D01*
X129347885Y-98042457D01*
X129347885Y-98185314D01*
X129300266Y-98280552D01*
X129252647Y-98328171D01*
X129157409Y-98375790D01*
X128776457Y-98375790D01*
X129728838Y-97947219D02*
X129776457Y-97899600D01*
X129871695Y-97851980D01*
X130109790Y-97851980D01*
X130205028Y-97899600D01*
X130252647Y-97947219D01*
X130300266Y-98042457D01*
X130300266Y-98137695D01*
X130252647Y-98280552D01*
X129681219Y-98851980D01*
X130300266Y-98851980D01*
X99677695Y-101487180D02*
X100249123Y-101487180D01*
X99963409Y-102487180D02*
X99963409Y-101487180D01*
X100582457Y-102487180D02*
X100582457Y-101487180D01*
X100963409Y-101487180D01*
X101058647Y-101534800D01*
X101106266Y-101582419D01*
X101153885Y-101677657D01*
X101153885Y-101820514D01*
X101106266Y-101915752D01*
X101058647Y-101963371D01*
X100963409Y-102010990D01*
X100582457Y-102010990D01*
X102106266Y-102487180D02*
X101534838Y-102487180D01*
X101820552Y-102487180D02*
X101820552Y-101487180D01*
X101725314Y-101630038D01*
X101630076Y-101725276D01*
X101534838Y-101772895D01*
X144057980Y-104973333D02*
X144772266Y-104973333D01*
X144915123Y-105020952D01*
X145010361Y-105116190D01*
X145057980Y-105259047D01*
X145057980Y-105354285D01*
X145057980Y-104497142D02*
X144057980Y-104497142D01*
X144057980Y-104116190D01*
X144105600Y-104020952D01*
X144153219Y-103973333D01*
X144248457Y-103925714D01*
X144391314Y-103925714D01*
X144486552Y-103973333D01*
X144534171Y-104020952D01*
X144581790Y-104116190D01*
X144581790Y-104497142D01*
X144057980Y-103020952D02*
X144057980Y-103497142D01*
X144534171Y-103544761D01*
X144486552Y-103497142D01*
X144438933Y-103401904D01*
X144438933Y-103163809D01*
X144486552Y-103068571D01*
X144534171Y-103020952D01*
X144629409Y-102973333D01*
X144867504Y-102973333D01*
X144962742Y-103020952D01*
X145010361Y-103068571D01*
X145057980Y-103163809D01*
X145057980Y-103401904D01*
X145010361Y-103497142D01*
X144962742Y-103544761D01*
X143368780Y-112085333D02*
X144083066Y-112085333D01*
X144225923Y-112132952D01*
X144321161Y-112228190D01*
X144368780Y-112371047D01*
X144368780Y-112466285D01*
X144368780Y-111609142D02*
X143368780Y-111609142D01*
X143368780Y-111228190D01*
X143416400Y-111132952D01*
X143464019Y-111085333D01*
X143559257Y-111037714D01*
X143702114Y-111037714D01*
X143797352Y-111085333D01*
X143844971Y-111132952D01*
X143892590Y-111228190D01*
X143892590Y-111609142D01*
X143702114Y-110180571D02*
X144368780Y-110180571D01*
X143321161Y-110418666D02*
X144035447Y-110656761D01*
X144035447Y-110037714D01*
X156271980Y-112390133D02*
X156986266Y-112390133D01*
X157129123Y-112437752D01*
X157224361Y-112532990D01*
X157271980Y-112675847D01*
X157271980Y-112771085D01*
X157271980Y-111913942D02*
X156271980Y-111913942D01*
X156271980Y-111532990D01*
X156319600Y-111437752D01*
X156367219Y-111390133D01*
X156462457Y-111342514D01*
X156605314Y-111342514D01*
X156700552Y-111390133D01*
X156748171Y-111437752D01*
X156795790Y-111532990D01*
X156795790Y-111913942D01*
X156271980Y-110485371D02*
X156271980Y-110675847D01*
X156319600Y-110771085D01*
X156367219Y-110818704D01*
X156510076Y-110913942D01*
X156700552Y-110961561D01*
X157081504Y-110961561D01*
X157176742Y-110913942D01*
X157224361Y-110866323D01*
X157271980Y-110771085D01*
X157271980Y-110580609D01*
X157224361Y-110485371D01*
X157176742Y-110437752D01*
X157081504Y-110390133D01*
X156843409Y-110390133D01*
X156748171Y-110437752D01*
X156700552Y-110485371D01*
X156652933Y-110580609D01*
X156652933Y-110771085D01*
X156700552Y-110866323D01*
X156748171Y-110913942D01*
X156843409Y-110961561D01*
X123779066Y-101843180D02*
X123779066Y-102557466D01*
X123731447Y-102700323D01*
X123636209Y-102795561D01*
X123493352Y-102843180D01*
X123398114Y-102843180D01*
X124255257Y-102843180D02*
X124255257Y-101843180D01*
X124636209Y-101843180D01*
X124731447Y-101890800D01*
X124779066Y-101938419D01*
X124826685Y-102033657D01*
X124826685Y-102176514D01*
X124779066Y-102271752D01*
X124731447Y-102319371D01*
X124636209Y-102366990D01*
X124255257Y-102366990D01*
X125160019Y-101843180D02*
X125779066Y-101843180D01*
X125445733Y-102224133D01*
X125588590Y-102224133D01*
X125683828Y-102271752D01*
X125731447Y-102319371D01*
X125779066Y-102414609D01*
X125779066Y-102652704D01*
X125731447Y-102747942D01*
X125683828Y-102795561D01*
X125588590Y-102843180D01*
X125302876Y-102843180D01*
X125207638Y-102795561D01*
X125160019Y-102747942D01*
X105643466Y-101030380D02*
X105643466Y-101744666D01*
X105595847Y-101887523D01*
X105500609Y-101982761D01*
X105357752Y-102030380D01*
X105262514Y-102030380D01*
X106119657Y-102030380D02*
X106119657Y-101030380D01*
X106500609Y-101030380D01*
X106595847Y-101078000D01*
X106643466Y-101125619D01*
X106691085Y-101220857D01*
X106691085Y-101363714D01*
X106643466Y-101458952D01*
X106595847Y-101506571D01*
X106500609Y-101554190D01*
X106119657Y-101554190D01*
X107643466Y-102030380D02*
X107072038Y-102030380D01*
X107357752Y-102030380D02*
X107357752Y-101030380D01*
X107262514Y-101173238D01*
X107167276Y-101268476D01*
X107072038Y-101316095D01*
X101843180Y-111170933D02*
X102557466Y-111170933D01*
X102700323Y-111218552D01*
X102795561Y-111313790D01*
X102843180Y-111456647D01*
X102843180Y-111551885D01*
X102843180Y-110694742D02*
X101843180Y-110694742D01*
X101843180Y-110313790D01*
X101890800Y-110218552D01*
X101938419Y-110170933D01*
X102033657Y-110123314D01*
X102176514Y-110123314D01*
X102271752Y-110170933D01*
X102319371Y-110218552D01*
X102366990Y-110313790D01*
X102366990Y-110694742D01*
X101938419Y-109742361D02*
X101890800Y-109694742D01*
X101843180Y-109599504D01*
X101843180Y-109361409D01*
X101890800Y-109266171D01*
X101938419Y-109218552D01*
X102033657Y-109170933D01*
X102128895Y-109170933D01*
X102271752Y-109218552D01*
X102843180Y-109789980D01*
X102843180Y-109170933D01*
X142371866Y-126198380D02*
X142371866Y-126912666D01*
X142324247Y-127055523D01*
X142229009Y-127150761D01*
X142086152Y-127198380D01*
X141990914Y-127198380D01*
X142848057Y-127198380D02*
X142848057Y-126198380D01*
X143229009Y-126198380D01*
X143324247Y-126246000D01*
X143371866Y-126293619D01*
X143419485Y-126388857D01*
X143419485Y-126531714D01*
X143371866Y-126626952D01*
X143324247Y-126674571D01*
X143229009Y-126722190D01*
X142848057Y-126722190D01*
X143990914Y-126626952D02*
X143895676Y-126579333D01*
X143848057Y-126531714D01*
X143800438Y-126436476D01*
X143800438Y-126388857D01*
X143848057Y-126293619D01*
X143895676Y-126246000D01*
X143990914Y-126198380D01*
X144181390Y-126198380D01*
X144276628Y-126246000D01*
X144324247Y-126293619D01*
X144371866Y-126388857D01*
X144371866Y-126436476D01*
X144324247Y-126531714D01*
X144276628Y-126579333D01*
X144181390Y-126626952D01*
X143990914Y-126626952D01*
X143895676Y-126674571D01*
X143848057Y-126722190D01*
X143800438Y-126817428D01*
X143800438Y-127007904D01*
X143848057Y-127103142D01*
X143895676Y-127150761D01*
X143990914Y-127198380D01*
X144181390Y-127198380D01*
X144276628Y-127150761D01*
X144324247Y-127103142D01*
X144371866Y-127007904D01*
X144371866Y-126817428D01*
X144324247Y-126722190D01*
X144276628Y-126674571D01*
X144181390Y-126626952D01*
X124896666Y-127011180D02*
X124896666Y-127725466D01*
X124849047Y-127868323D01*
X124753809Y-127963561D01*
X124610952Y-128011180D01*
X124515714Y-128011180D01*
X125372857Y-128011180D02*
X125372857Y-127011180D01*
X125753809Y-127011180D01*
X125849047Y-127058800D01*
X125896666Y-127106419D01*
X125944285Y-127201657D01*
X125944285Y-127344514D01*
X125896666Y-127439752D01*
X125849047Y-127487371D01*
X125753809Y-127534990D01*
X125372857Y-127534990D01*
X126277619Y-127011180D02*
X126944285Y-127011180D01*
X126515714Y-128011180D01*
X132531142Y-116117666D02*
X132578761Y-116165285D01*
X132626380Y-116308142D01*
X132626380Y-116403380D01*
X132578761Y-116546238D01*
X132483523Y-116641476D01*
X132388285Y-116689095D01*
X132197809Y-116736714D01*
X132054952Y-116736714D01*
X131864476Y-116689095D01*
X131769238Y-116641476D01*
X131674000Y-116546238D01*
X131626380Y-116403380D01*
X131626380Y-116308142D01*
X131674000Y-116165285D01*
X131721619Y-116117666D01*
X132626380Y-115165285D02*
X132626380Y-115736714D01*
X132626380Y-115451000D02*
X131626380Y-115451000D01*
X131769238Y-115546238D01*
X131864476Y-115641476D01*
X131912095Y-115736714D01*
X127110742Y-111063066D02*
X127158361Y-111110685D01*
X127205980Y-111253542D01*
X127205980Y-111348780D01*
X127158361Y-111491638D01*
X127063123Y-111586876D01*
X126967885Y-111634495D01*
X126777409Y-111682114D01*
X126634552Y-111682114D01*
X126444076Y-111634495D01*
X126348838Y-111586876D01*
X126253600Y-111491638D01*
X126205980Y-111348780D01*
X126205980Y-111253542D01*
X126253600Y-111110685D01*
X126301219Y-111063066D01*
X126301219Y-110682114D02*
X126253600Y-110634495D01*
X126205980Y-110539257D01*
X126205980Y-110301161D01*
X126253600Y-110205923D01*
X126301219Y-110158304D01*
X126396457Y-110110685D01*
X126491695Y-110110685D01*
X126634552Y-110158304D01*
X127205980Y-110729733D01*
X127205980Y-110110685D01*
X150529542Y-111418666D02*
X150577161Y-111466285D01*
X150624780Y-111609142D01*
X150624780Y-111704380D01*
X150577161Y-111847238D01*
X150481923Y-111942476D01*
X150386685Y-111990095D01*
X150196209Y-112037714D01*
X150053352Y-112037714D01*
X149862876Y-111990095D01*
X149767638Y-111942476D01*
X149672400Y-111847238D01*
X149624780Y-111704380D01*
X149624780Y-111609142D01*
X149672400Y-111466285D01*
X149720019Y-111418666D01*
X149624780Y-111085333D02*
X149624780Y-110466285D01*
X150005733Y-110799619D01*
X150005733Y-110656761D01*
X150053352Y-110561523D01*
X150100971Y-110513904D01*
X150196209Y-110466285D01*
X150434304Y-110466285D01*
X150529542Y-110513904D01*
X150577161Y-110561523D01*
X150624780Y-110656761D01*
X150624780Y-110942476D01*
X150577161Y-111037714D01*
X150529542Y-111085333D01*
X130107942Y-107811866D02*
X130155561Y-107859485D01*
X130203180Y-108002342D01*
X130203180Y-108097580D01*
X130155561Y-108240438D01*
X130060323Y-108335676D01*
X129965085Y-108383295D01*
X129774609Y-108430914D01*
X129631752Y-108430914D01*
X129441276Y-108383295D01*
X129346038Y-108335676D01*
X129250800Y-108240438D01*
X129203180Y-108097580D01*
X129203180Y-108002342D01*
X129250800Y-107859485D01*
X129298419Y-107811866D01*
X129536514Y-106954723D02*
X130203180Y-106954723D01*
X129155561Y-107192819D02*
X129869847Y-107430914D01*
X129869847Y-106811866D01*
X120229333Y-111464342D02*
X120181714Y-111511961D01*
X120038857Y-111559580D01*
X119943619Y-111559580D01*
X119800761Y-111511961D01*
X119705523Y-111416723D01*
X119657904Y-111321485D01*
X119610285Y-111131009D01*
X119610285Y-110988152D01*
X119657904Y-110797676D01*
X119705523Y-110702438D01*
X119800761Y-110607200D01*
X119943619Y-110559580D01*
X120038857Y-110559580D01*
X120181714Y-110607200D01*
X120229333Y-110654819D01*
X121134095Y-110559580D02*
X120657904Y-110559580D01*
X120610285Y-111035771D01*
X120657904Y-110988152D01*
X120753142Y-110940533D01*
X120991238Y-110940533D01*
X121086476Y-110988152D01*
X121134095Y-111035771D01*
X121181714Y-111131009D01*
X121181714Y-111369104D01*
X121134095Y-111464342D01*
X121086476Y-111511961D01*
X120991238Y-111559580D01*
X120753142Y-111559580D01*
X120657904Y-111511961D01*
X120610285Y-111464342D01*
X140057142Y-107557866D02*
X140104761Y-107605485D01*
X140152380Y-107748342D01*
X140152380Y-107843580D01*
X140104761Y-107986438D01*
X140009523Y-108081676D01*
X139914285Y-108129295D01*
X139723809Y-108176914D01*
X139580952Y-108176914D01*
X139390476Y-108129295D01*
X139295238Y-108081676D01*
X139200000Y-107986438D01*
X139152380Y-107843580D01*
X139152380Y-107748342D01*
X139200000Y-107605485D01*
X139247619Y-107557866D01*
X139152380Y-106700723D02*
X139152380Y-106891200D01*
X139200000Y-106986438D01*
X139247619Y-107034057D01*
X139390476Y-107129295D01*
X139580952Y-107176914D01*
X139961904Y-107176914D01*
X140057142Y-107129295D01*
X140104761Y-107081676D01*
X140152380Y-106986438D01*
X140152380Y-106795961D01*
X140104761Y-106700723D01*
X140057142Y-106653104D01*
X139961904Y-106605485D01*
X139723809Y-106605485D01*
X139628571Y-106653104D01*
X139580952Y-106700723D01*
X139533333Y-106795961D01*
X139533333Y-106986438D01*
X139580952Y-107081676D01*
X139628571Y-107129295D01*
X139723809Y-107176914D01*
X133105142Y-102147666D02*
X133152761Y-102195285D01*
X133200380Y-102338142D01*
X133200380Y-102433380D01*
X133152761Y-102576238D01*
X133057523Y-102671476D01*
X132962285Y-102719095D01*
X132771809Y-102766714D01*
X132628952Y-102766714D01*
X132438476Y-102719095D01*
X132343238Y-102671476D01*
X132248000Y-102576238D01*
X132200380Y-102433380D01*
X132200380Y-102338142D01*
X132248000Y-102195285D01*
X132295619Y-102147666D01*
X132200380Y-101814333D02*
X132200380Y-101147666D01*
X133200380Y-101576238D01*
X149439333Y-100593142D02*
X149391714Y-100640761D01*
X149248857Y-100688380D01*
X149153619Y-100688380D01*
X149010761Y-100640761D01*
X148915523Y-100545523D01*
X148867904Y-100450285D01*
X148820285Y-100259809D01*
X148820285Y-100116952D01*
X148867904Y-99926476D01*
X148915523Y-99831238D01*
X149010761Y-99736000D01*
X149153619Y-99688380D01*
X149248857Y-99688380D01*
X149391714Y-99736000D01*
X149439333Y-99783619D01*
X150010761Y-100116952D02*
X149915523Y-100069333D01*
X149867904Y-100021714D01*
X149820285Y-99926476D01*
X149820285Y-99878857D01*
X149867904Y-99783619D01*
X149915523Y-99736000D01*
X150010761Y-99688380D01*
X150201238Y-99688380D01*
X150296476Y-99736000D01*
X150344095Y-99783619D01*
X150391714Y-99878857D01*
X150391714Y-99926476D01*
X150344095Y-100021714D01*
X150296476Y-100069333D01*
X150201238Y-100116952D01*
X150010761Y-100116952D01*
X149915523Y-100164571D01*
X149867904Y-100212190D01*
X149820285Y-100307428D01*
X149820285Y-100497904D01*
X149867904Y-100593142D01*
X149915523Y-100640761D01*
X150010761Y-100688380D01*
X150201238Y-100688380D01*
X150296476Y-100640761D01*
X150344095Y-100593142D01*
X150391714Y-100497904D01*
X150391714Y-100307428D01*
X150344095Y-100212190D01*
X150296476Y-100164571D01*
X150201238Y-100116952D01*
X120483333Y-100527142D02*
X120435714Y-100574761D01*
X120292857Y-100622380D01*
X120197619Y-100622380D01*
X120054761Y-100574761D01*
X119959523Y-100479523D01*
X119911904Y-100384285D01*
X119864285Y-100193809D01*
X119864285Y-100050952D01*
X119911904Y-99860476D01*
X119959523Y-99765238D01*
X120054761Y-99670000D01*
X120197619Y-99622380D01*
X120292857Y-99622380D01*
X120435714Y-99670000D01*
X120483333Y-99717619D01*
X120959523Y-100622380D02*
X121150000Y-100622380D01*
X121245238Y-100574761D01*
X121292857Y-100527142D01*
X121388095Y-100384285D01*
X121435714Y-100193809D01*
X121435714Y-99812857D01*
X121388095Y-99717619D01*
X121340476Y-99670000D01*
X121245238Y-99622380D01*
X121054761Y-99622380D01*
X120959523Y-99670000D01*
X120911904Y-99717619D01*
X120864285Y-99812857D01*
X120864285Y-100050952D01*
X120911904Y-100146190D01*
X120959523Y-100193809D01*
X121054761Y-100241428D01*
X121245238Y-100241428D01*
X121340476Y-100193809D01*
X121388095Y-100146190D01*
X121435714Y-100050952D01*
X149013942Y-103234742D02*
X148966323Y-103282361D01*
X148823466Y-103329980D01*
X148728228Y-103329980D01*
X148585371Y-103282361D01*
X148490133Y-103187123D01*
X148442514Y-103091885D01*
X148394895Y-102901409D01*
X148394895Y-102758552D01*
X148442514Y-102568076D01*
X148490133Y-102472838D01*
X148585371Y-102377600D01*
X148728228Y-102329980D01*
X148823466Y-102329980D01*
X148966323Y-102377600D01*
X149013942Y-102425219D01*
X149966323Y-103329980D02*
X149394895Y-103329980D01*
X149680609Y-103329980D02*
X149680609Y-102329980D01*
X149585371Y-102472838D01*
X149490133Y-102568076D01*
X149394895Y-102615695D01*
X150585371Y-102329980D02*
X150680609Y-102329980D01*
X150775847Y-102377600D01*
X150823466Y-102425219D01*
X150871085Y-102520457D01*
X150918704Y-102710933D01*
X150918704Y-102949028D01*
X150871085Y-103139504D01*
X150823466Y-103234742D01*
X150775847Y-103282361D01*
X150680609Y-103329980D01*
X150585371Y-103329980D01*
X150490133Y-103282361D01*
X150442514Y-103234742D01*
X150394895Y-103139504D01*
X150347276Y-102949028D01*
X150347276Y-102710933D01*
X150394895Y-102520457D01*
X150442514Y-102425219D01*
X150490133Y-102377600D01*
X150585371Y-102329980D01*
X128287542Y-112973142D02*
X128239923Y-113020761D01*
X128097066Y-113068380D01*
X128001828Y-113068380D01*
X127858971Y-113020761D01*
X127763733Y-112925523D01*
X127716114Y-112830285D01*
X127668495Y-112639809D01*
X127668495Y-112496952D01*
X127716114Y-112306476D01*
X127763733Y-112211238D01*
X127858971Y-112116000D01*
X128001828Y-112068380D01*
X128097066Y-112068380D01*
X128239923Y-112116000D01*
X128287542Y-112163619D01*
X129239923Y-113068380D02*
X128668495Y-113068380D01*
X128954209Y-113068380D02*
X128954209Y-112068380D01*
X128858971Y-112211238D01*
X128763733Y-112306476D01*
X128668495Y-112354095D01*
X130192304Y-113068380D02*
X129620876Y-113068380D01*
X129906590Y-113068380D02*
X129906590Y-112068380D01*
X129811352Y-112211238D01*
X129716114Y-112306476D01*
X129620876Y-112354095D01*
X125087142Y-119744742D02*
X125039523Y-119792361D01*
X124896666Y-119839980D01*
X124801428Y-119839980D01*
X124658571Y-119792361D01*
X124563333Y-119697123D01*
X124515714Y-119601885D01*
X124468095Y-119411409D01*
X124468095Y-119268552D01*
X124515714Y-119078076D01*
X124563333Y-118982838D01*
X124658571Y-118887600D01*
X124801428Y-118839980D01*
X124896666Y-118839980D01*
X125039523Y-118887600D01*
X125087142Y-118935219D01*
X126039523Y-119839980D02*
X125468095Y-119839980D01*
X125753809Y-119839980D02*
X125753809Y-118839980D01*
X125658571Y-118982838D01*
X125563333Y-119078076D01*
X125468095Y-119125695D01*
X126420476Y-118935219D02*
X126468095Y-118887600D01*
X126563333Y-118839980D01*
X126801428Y-118839980D01*
X126896666Y-118887600D01*
X126944285Y-118935219D01*
X126991904Y-119030457D01*
X126991904Y-119125695D01*
X126944285Y-119268552D01*
X126372857Y-119839980D01*
X126991904Y-119839980D01*
X138439142Y-102750857D02*
X138486761Y-102798476D01*
X138534380Y-102941333D01*
X138534380Y-103036571D01*
X138486761Y-103179428D01*
X138391523Y-103274666D01*
X138296285Y-103322285D01*
X138105809Y-103369904D01*
X137962952Y-103369904D01*
X137772476Y-103322285D01*
X137677238Y-103274666D01*
X137582000Y-103179428D01*
X137534380Y-103036571D01*
X137534380Y-102941333D01*
X137582000Y-102798476D01*
X137629619Y-102750857D01*
X138534380Y-101798476D02*
X138534380Y-102369904D01*
X138534380Y-102084190D02*
X137534380Y-102084190D01*
X137677238Y-102179428D01*
X137772476Y-102274666D01*
X137820095Y-102369904D01*
X137534380Y-101465142D02*
X137534380Y-100846095D01*
X137915333Y-101179428D01*
X137915333Y-101036571D01*
X137962952Y-100941333D01*
X138010571Y-100893714D01*
X138105809Y-100846095D01*
X138343904Y-100846095D01*
X138439142Y-100893714D01*
X138486761Y-100941333D01*
X138534380Y-101036571D01*
X138534380Y-101322285D01*
X138486761Y-101417523D01*
X138439142Y-101465142D01*
X141548142Y-117990857D02*
X141595761Y-118038476D01*
X141643380Y-118181333D01*
X141643380Y-118276571D01*
X141595761Y-118419428D01*
X141500523Y-118514666D01*
X141405285Y-118562285D01*
X141214809Y-118609904D01*
X141071952Y-118609904D01*
X140881476Y-118562285D01*
X140786238Y-118514666D01*
X140691000Y-118419428D01*
X140643380Y-118276571D01*
X140643380Y-118181333D01*
X140691000Y-118038476D01*
X140738619Y-117990857D01*
X141643380Y-117038476D02*
X141643380Y-117609904D01*
X141643380Y-117324190D02*
X140643380Y-117324190D01*
X140786238Y-117419428D01*
X140881476Y-117514666D01*
X140929095Y-117609904D01*
X140976714Y-116181333D02*
X141643380Y-116181333D01*
X140595761Y-116419428D02*
X141310047Y-116657523D01*
X141310047Y-116038476D01*
X102143180Y-88513980D02*
X102143180Y-87513980D01*
X102619371Y-88513980D02*
X102619371Y-87513980D01*
X103190800Y-88513980D01*
X103190800Y-87513980D01*
X103619371Y-88228266D02*
X104095561Y-88228266D01*
X103524133Y-88513980D02*
X103857466Y-87513980D01*
X104190800Y-88513980D01*
X104524133Y-88133028D02*
X105286038Y-88133028D01*
X104905085Y-88513980D02*
X104905085Y-87752076D01*
X106286038Y-88513980D02*
X105714609Y-88513980D01*
X106000323Y-88513980D02*
X106000323Y-87513980D01*
X105905085Y-87656838D01*
X105809847Y-87752076D01*
X105714609Y-87799695D01*
X113065180Y-88412380D02*
X113065180Y-87412380D01*
X113541371Y-88412380D02*
X113541371Y-87412380D01*
X114112800Y-88412380D01*
X114112800Y-87412380D01*
X114541371Y-88126666D02*
X115017561Y-88126666D01*
X114446133Y-88412380D02*
X114779466Y-87412380D01*
X115112800Y-88412380D01*
X115446133Y-88031428D02*
X116208038Y-88031428D01*
X117208038Y-88412380D02*
X116636609Y-88412380D01*
X116922323Y-88412380D02*
X116922323Y-87412380D01*
X116827085Y-87555238D01*
X116731847Y-87650476D01*
X116636609Y-87698095D01*
X160694952Y-88412380D02*
X160694952Y-87412380D01*
X161171142Y-88412380D02*
X161171142Y-87412380D01*
X161742571Y-88412380D01*
X161742571Y-87412380D01*
X162552095Y-87888571D02*
X162694952Y-87936190D01*
X162742571Y-87983809D01*
X162790190Y-88079047D01*
X162790190Y-88221904D01*
X162742571Y-88317142D01*
X162694952Y-88364761D01*
X162599714Y-88412380D01*
X162218761Y-88412380D01*
X162218761Y-87412380D01*
X162552095Y-87412380D01*
X162647333Y-87460000D01*
X162694952Y-87507619D01*
X162742571Y-87602857D01*
X162742571Y-87698095D01*
X162694952Y-87793333D01*
X162647333Y-87840952D01*
X162552095Y-87888571D01*
X162218761Y-87888571D01*
X163218761Y-88031428D02*
X163980666Y-88031428D01*
X163599714Y-88412380D02*
X163599714Y-87650476D01*
X164980666Y-88412380D02*
X164409238Y-88412380D01*
X164694952Y-88412380D02*
X164694952Y-87412380D01*
X164599714Y-87555238D01*
X164504476Y-87650476D01*
X164409238Y-87698095D01*
X150077752Y-88564780D02*
X150077752Y-87564780D01*
X150553942Y-88564780D02*
X150553942Y-87564780D01*
X151125371Y-88564780D01*
X151125371Y-87564780D01*
X151934895Y-88040971D02*
X152077752Y-88088590D01*
X152125371Y-88136209D01*
X152172990Y-88231447D01*
X152172990Y-88374304D01*
X152125371Y-88469542D01*
X152077752Y-88517161D01*
X151982514Y-88564780D01*
X151601561Y-88564780D01*
X151601561Y-87564780D01*
X151934895Y-87564780D01*
X152030133Y-87612400D01*
X152077752Y-87660019D01*
X152125371Y-87755257D01*
X152125371Y-87850495D01*
X152077752Y-87945733D01*
X152030133Y-87993352D01*
X151934895Y-88040971D01*
X151601561Y-88040971D01*
X152601561Y-88183828D02*
X153363466Y-88183828D01*
X154363466Y-88564780D02*
X153792038Y-88564780D01*
X154077752Y-88564780D02*
X154077752Y-87564780D01*
X153982514Y-87707638D01*
X153887276Y-87802876D01*
X153792038Y-87850495D01*
X128397619Y-126452380D02*
X128730952Y-127452380D01*
X129064285Y-126452380D01*
X129397619Y-126928571D02*
X129730952Y-126928571D01*
X129873809Y-127452380D02*
X129397619Y-127452380D01*
X129397619Y-126452380D01*
X129873809Y-126452380D01*
X130302380Y-126928571D02*
X130635714Y-126928571D01*
X130778571Y-127452380D02*
X130302380Y-127452380D01*
X130302380Y-126452380D01*
X130778571Y-126452380D01*
X132492857Y-126500000D02*
X132397619Y-126452380D01*
X132254761Y-126452380D01*
X132111904Y-126500000D01*
X132016666Y-126595238D01*
X131969047Y-126690476D01*
X131921428Y-126880952D01*
X131921428Y-127023809D01*
X131969047Y-127214285D01*
X132016666Y-127309523D01*
X132111904Y-127404761D01*
X132254761Y-127452380D01*
X132350000Y-127452380D01*
X132492857Y-127404761D01*
X132540476Y-127357142D01*
X132540476Y-127023809D01*
X132350000Y-127023809D01*
X132969047Y-127452380D02*
X132969047Y-126452380D01*
X133540476Y-127452380D01*
X133540476Y-126452380D01*
X134016666Y-127452380D02*
X134016666Y-126452380D01*
X134254761Y-126452380D01*
X134397619Y-126500000D01*
X134492857Y-126595238D01*
X134540476Y-126690476D01*
X134588095Y-126880952D01*
X134588095Y-127023809D01*
X134540476Y-127214285D01*
X134492857Y-127309523D01*
X134397619Y-127404761D01*
X134254761Y-127452380D01*
X134016666Y-127452380D01*
X135635714Y-126452380D02*
X135969047Y-127452380D01*
X136302380Y-126452380D01*
X137207142Y-127357142D02*
X137159523Y-127404761D01*
X137016666Y-127452380D01*
X136921428Y-127452380D01*
X136778571Y-127404761D01*
X136683333Y-127309523D01*
X136635714Y-127214285D01*
X136588095Y-127023809D01*
X136588095Y-126880952D01*
X136635714Y-126690476D01*
X136683333Y-126595238D01*
X136778571Y-126500000D01*
X136921428Y-126452380D01*
X137016666Y-126452380D01*
X137159523Y-126500000D01*
X137207142Y-126547619D01*
X138207142Y-127357142D02*
X138159523Y-127404761D01*
X138016666Y-127452380D01*
X137921428Y-127452380D01*
X137778571Y-127404761D01*
X137683333Y-127309523D01*
X137635714Y-127214285D01*
X137588095Y-127023809D01*
X137588095Y-126880952D01*
X137635714Y-126690476D01*
X137683333Y-126595238D01*
X137778571Y-126500000D01*
X137921428Y-126452380D01*
X138016666Y-126452380D01*
X138159523Y-126500000D01*
X138207142Y-126547619D01*
X124206238Y-87412380D02*
X124396714Y-87412380D01*
X124491952Y-87460000D01*
X124587190Y-87555238D01*
X124634809Y-87745714D01*
X124634809Y-88079047D01*
X124587190Y-88269523D01*
X124491952Y-88364761D01*
X124396714Y-88412380D01*
X124206238Y-88412380D01*
X124111000Y-88364761D01*
X124015761Y-88269523D01*
X123968142Y-88079047D01*
X123968142Y-87745714D01*
X124015761Y-87555238D01*
X124111000Y-87460000D01*
X124206238Y-87412380D01*
X125063380Y-87412380D02*
X125063380Y-88221904D01*
X125111000Y-88317142D01*
X125158619Y-88364761D01*
X125253857Y-88412380D01*
X125444333Y-88412380D01*
X125539571Y-88364761D01*
X125587190Y-88317142D01*
X125634809Y-88221904D01*
X125634809Y-87412380D01*
X125968142Y-87412380D02*
X126539571Y-87412380D01*
X126253857Y-88412380D02*
X126253857Y-87412380D01*
X126825285Y-88126666D02*
X127301476Y-88126666D01*
X126730047Y-88412380D02*
X127063380Y-87412380D01*
X127396714Y-88412380D01*
X128253857Y-88412380D02*
X127682428Y-88412380D01*
X127968142Y-88412380D02*
X127968142Y-87412380D01*
X127872904Y-87555238D01*
X127777666Y-87650476D01*
X127682428Y-87698095D01*
X139628809Y-87539380D02*
X139819285Y-87539380D01*
X139914523Y-87587000D01*
X140009761Y-87682238D01*
X140057380Y-87872714D01*
X140057380Y-88206047D01*
X140009761Y-88396523D01*
X139914523Y-88491761D01*
X139819285Y-88539380D01*
X139628809Y-88539380D01*
X139533571Y-88491761D01*
X139438333Y-88396523D01*
X139390714Y-88206047D01*
X139390714Y-87872714D01*
X139438333Y-87682238D01*
X139533571Y-87587000D01*
X139628809Y-87539380D01*
X140485952Y-87539380D02*
X140485952Y-88348904D01*
X140533571Y-88444142D01*
X140581190Y-88491761D01*
X140676428Y-88539380D01*
X140866904Y-88539380D01*
X140962142Y-88491761D01*
X141009761Y-88444142D01*
X141057380Y-88348904D01*
X141057380Y-87539380D01*
X141390714Y-87539380D02*
X141962142Y-87539380D01*
X141676428Y-88539380D02*
X141676428Y-87539380D01*
X142628809Y-88015571D02*
X142771666Y-88063190D01*
X142819285Y-88110809D01*
X142866904Y-88206047D01*
X142866904Y-88348904D01*
X142819285Y-88444142D01*
X142771666Y-88491761D01*
X142676428Y-88539380D01*
X142295476Y-88539380D01*
X142295476Y-87539380D01*
X142628809Y-87539380D01*
X142724047Y-87587000D01*
X142771666Y-87634619D01*
X142819285Y-87729857D01*
X142819285Y-87825095D01*
X142771666Y-87920333D01*
X142724047Y-87967952D01*
X142628809Y-88015571D01*
X142295476Y-88015571D01*
X143819285Y-88539380D02*
X143247857Y-88539380D01*
X143533571Y-88539380D02*
X143533571Y-87539380D01*
X143438333Y-87682238D01*
X143343095Y-87777476D01*
X143247857Y-87825095D01*
X114387333Y-99733380D02*
X114054000Y-99257190D01*
X113815904Y-99733380D02*
X113815904Y-98733380D01*
X114196857Y-98733380D01*
X114292095Y-98781000D01*
X114339714Y-98828619D01*
X114387333Y-98923857D01*
X114387333Y-99066714D01*
X114339714Y-99161952D01*
X114292095Y-99209571D01*
X114196857Y-99257190D01*
X113815904Y-99257190D01*
X115339714Y-99733380D02*
X114768285Y-99733380D01*
X115054000Y-99733380D02*
X115054000Y-98733380D01*
X114958761Y-98876238D01*
X114863523Y-98971476D01*
X114768285Y-99019095D01*
X105954533Y-99512380D02*
X105621200Y-99036190D01*
X105383104Y-99512380D02*
X105383104Y-98512380D01*
X105764057Y-98512380D01*
X105859295Y-98560000D01*
X105906914Y-98607619D01*
X105954533Y-98702857D01*
X105954533Y-98845714D01*
X105906914Y-98940952D01*
X105859295Y-98988571D01*
X105764057Y-99036190D01*
X105383104Y-99036190D01*
X106335485Y-98607619D02*
X106383104Y-98560000D01*
X106478342Y-98512380D01*
X106716438Y-98512380D01*
X106811676Y-98560000D01*
X106859295Y-98607619D01*
X106906914Y-98702857D01*
X106906914Y-98798095D01*
X106859295Y-98940952D01*
X106287866Y-99512380D01*
X106906914Y-99512380D01*
X158026380Y-109132666D02*
X157550190Y-109466000D01*
X158026380Y-109704095D02*
X157026380Y-109704095D01*
X157026380Y-109323142D01*
X157074000Y-109227904D01*
X157121619Y-109180285D01*
X157216857Y-109132666D01*
X157359714Y-109132666D01*
X157454952Y-109180285D01*
X157502571Y-109227904D01*
X157550190Y-109323142D01*
X157550190Y-109704095D01*
X157026380Y-108799333D02*
X157026380Y-108180285D01*
X157407333Y-108513619D01*
X157407333Y-108370761D01*
X157454952Y-108275523D01*
X157502571Y-108227904D01*
X157597809Y-108180285D01*
X157835904Y-108180285D01*
X157931142Y-108227904D01*
X157978761Y-108275523D01*
X158026380Y-108370761D01*
X158026380Y-108656476D01*
X157978761Y-108751714D01*
X157931142Y-108799333D01*
X155230533Y-107749580D02*
X154897200Y-107273390D01*
X154659104Y-107749580D02*
X154659104Y-106749580D01*
X155040057Y-106749580D01*
X155135295Y-106797200D01*
X155182914Y-106844819D01*
X155230533Y-106940057D01*
X155230533Y-107082914D01*
X155182914Y-107178152D01*
X155135295Y-107225771D01*
X155040057Y-107273390D01*
X154659104Y-107273390D01*
X156087676Y-107082914D02*
X156087676Y-107749580D01*
X155849580Y-106701961D02*
X155611485Y-107416247D01*
X156230533Y-107416247D01*
X153665180Y-111571066D02*
X153188990Y-111904400D01*
X153665180Y-112142495D02*
X152665180Y-112142495D01*
X152665180Y-111761542D01*
X152712800Y-111666304D01*
X152760419Y-111618685D01*
X152855657Y-111571066D01*
X152998514Y-111571066D01*
X153093752Y-111618685D01*
X153141371Y-111666304D01*
X153188990Y-111761542D01*
X153188990Y-112142495D01*
X152665180Y-110666304D02*
X152665180Y-111142495D01*
X153141371Y-111190114D01*
X153093752Y-111142495D01*
X153046133Y-111047257D01*
X153046133Y-110809161D01*
X153093752Y-110713923D01*
X153141371Y-110666304D01*
X153236609Y-110618685D01*
X153474704Y-110618685D01*
X153569942Y-110666304D01*
X153617561Y-110713923D01*
X153665180Y-110809161D01*
X153665180Y-111047257D01*
X153617561Y-111142495D01*
X153569942Y-111190114D01*
X106132333Y-107673380D02*
X105799000Y-107197190D01*
X105560904Y-107673380D02*
X105560904Y-106673380D01*
X105941857Y-106673380D01*
X106037095Y-106721000D01*
X106084714Y-106768619D01*
X106132333Y-106863857D01*
X106132333Y-107006714D01*
X106084714Y-107101952D01*
X106037095Y-107149571D01*
X105941857Y-107197190D01*
X105560904Y-107197190D01*
X106989476Y-106673380D02*
X106799000Y-106673380D01*
X106703761Y-106721000D01*
X106656142Y-106768619D01*
X106560904Y-106911476D01*
X106513285Y-107101952D01*
X106513285Y-107482904D01*
X106560904Y-107578142D01*
X106608523Y-107625761D01*
X106703761Y-107673380D01*
X106894238Y-107673380D01*
X106989476Y-107625761D01*
X107037095Y-107578142D01*
X107084714Y-107482904D01*
X107084714Y-107244809D01*
X107037095Y-107149571D01*
X106989476Y-107101952D01*
X106894238Y-107054333D01*
X106703761Y-107054333D01*
X106608523Y-107101952D01*
X106560904Y-107149571D01*
X106513285Y-107244809D01*
X155078133Y-102095580D02*
X154744800Y-101619390D01*
X154506704Y-102095580D02*
X154506704Y-101095580D01*
X154887657Y-101095580D01*
X154982895Y-101143200D01*
X155030514Y-101190819D01*
X155078133Y-101286057D01*
X155078133Y-101428914D01*
X155030514Y-101524152D01*
X154982895Y-101571771D01*
X154887657Y-101619390D01*
X154506704Y-101619390D01*
X155411466Y-101095580D02*
X156078133Y-101095580D01*
X155649561Y-102095580D01*
X114387333Y-105133380D02*
X114054000Y-104657190D01*
X113815904Y-105133380D02*
X113815904Y-104133380D01*
X114196857Y-104133380D01*
X114292095Y-104181000D01*
X114339714Y-104228619D01*
X114387333Y-104323857D01*
X114387333Y-104466714D01*
X114339714Y-104561952D01*
X114292095Y-104609571D01*
X114196857Y-104657190D01*
X113815904Y-104657190D01*
X114958761Y-104561952D02*
X114863523Y-104514333D01*
X114815904Y-104466714D01*
X114768285Y-104371476D01*
X114768285Y-104323857D01*
X114815904Y-104228619D01*
X114863523Y-104181000D01*
X114958761Y-104133380D01*
X115149238Y-104133380D01*
X115244476Y-104181000D01*
X115292095Y-104228619D01*
X115339714Y-104323857D01*
X115339714Y-104371476D01*
X115292095Y-104466714D01*
X115244476Y-104514333D01*
X115149238Y-104561952D01*
X114958761Y-104561952D01*
X114863523Y-104609571D01*
X114815904Y-104657190D01*
X114768285Y-104752428D01*
X114768285Y-104942904D01*
X114815904Y-105038142D01*
X114863523Y-105085761D01*
X114958761Y-105133380D01*
X115149238Y-105133380D01*
X115244476Y-105085761D01*
X115292095Y-105038142D01*
X115339714Y-104942904D01*
X115339714Y-104752428D01*
X115292095Y-104657190D01*
X115244476Y-104609571D01*
X115149238Y-104561952D01*
X106591380Y-110402666D02*
X106115190Y-110736000D01*
X106591380Y-110974095D02*
X105591380Y-110974095D01*
X105591380Y-110593142D01*
X105639000Y-110497904D01*
X105686619Y-110450285D01*
X105781857Y-110402666D01*
X105924714Y-110402666D01*
X106019952Y-110450285D01*
X106067571Y-110497904D01*
X106115190Y-110593142D01*
X106115190Y-110974095D01*
X106591380Y-109926476D02*
X106591380Y-109736000D01*
X106543761Y-109640761D01*
X106496142Y-109593142D01*
X106353285Y-109497904D01*
X106162809Y-109450285D01*
X105781857Y-109450285D01*
X105686619Y-109497904D01*
X105639000Y-109545523D01*
X105591380Y-109640761D01*
X105591380Y-109831238D01*
X105639000Y-109926476D01*
X105686619Y-109974095D01*
X105781857Y-110021714D01*
X106019952Y-110021714D01*
X106115190Y-109974095D01*
X106162809Y-109926476D01*
X106210428Y-109831238D01*
X106210428Y-109640761D01*
X106162809Y-109545523D01*
X106115190Y-109497904D01*
X106019952Y-109450285D01*
X137960380Y-114384057D02*
X137484190Y-114717390D01*
X137960380Y-114955485D02*
X136960380Y-114955485D01*
X136960380Y-114574533D01*
X137008000Y-114479295D01*
X137055619Y-114431676D01*
X137150857Y-114384057D01*
X137293714Y-114384057D01*
X137388952Y-114431676D01*
X137436571Y-114479295D01*
X137484190Y-114574533D01*
X137484190Y-114955485D01*
X137960380Y-113431676D02*
X137960380Y-114003104D01*
X137960380Y-113717390D02*
X136960380Y-113717390D01*
X137103238Y-113812628D01*
X137198476Y-113907866D01*
X137246095Y-114003104D01*
X136960380Y-112812628D02*
X136960380Y-112717390D01*
X137008000Y-112622152D01*
X137055619Y-112574533D01*
X137150857Y-112526914D01*
X137341333Y-112479295D01*
X137579428Y-112479295D01*
X137769904Y-112526914D01*
X137865142Y-112574533D01*
X137912761Y-112622152D01*
X137960380Y-112717390D01*
X137960380Y-112812628D01*
X137912761Y-112907866D01*
X137865142Y-112955485D01*
X137769904Y-113003104D01*
X137579428Y-113050723D01*
X137341333Y-113050723D01*
X137150857Y-113003104D01*
X137055619Y-112955485D01*
X137008000Y-112907866D01*
X136960380Y-112812628D01*
X137406142Y-118976380D02*
X137072809Y-118500190D01*
X136834714Y-118976380D02*
X136834714Y-117976380D01*
X137215666Y-117976380D01*
X137310904Y-118024000D01*
X137358523Y-118071619D01*
X137406142Y-118166857D01*
X137406142Y-118309714D01*
X137358523Y-118404952D01*
X137310904Y-118452571D01*
X137215666Y-118500190D01*
X136834714Y-118500190D01*
X138358523Y-118976380D02*
X137787095Y-118976380D01*
X138072809Y-118976380D02*
X138072809Y-117976380D01*
X137977571Y-118119238D01*
X137882333Y-118214476D01*
X137787095Y-118262095D01*
X139310904Y-118976380D02*
X138739476Y-118976380D01*
X139025190Y-118976380D02*
X139025190Y-117976380D01*
X138929952Y-118119238D01*
X138834714Y-118214476D01*
X138739476Y-118262095D01*
X113276142Y-115293380D02*
X112942809Y-114817190D01*
X112704714Y-115293380D02*
X112704714Y-114293380D01*
X113085666Y-114293380D01*
X113180904Y-114341000D01*
X113228523Y-114388619D01*
X113276142Y-114483857D01*
X113276142Y-114626714D01*
X113228523Y-114721952D01*
X113180904Y-114769571D01*
X113085666Y-114817190D01*
X112704714Y-114817190D01*
X114228523Y-115293380D02*
X113657095Y-115293380D01*
X113942809Y-115293380D02*
X113942809Y-114293380D01*
X113847571Y-114436238D01*
X113752333Y-114531476D01*
X113657095Y-114579095D01*
X114609476Y-114388619D02*
X114657095Y-114341000D01*
X114752333Y-114293380D01*
X114990428Y-114293380D01*
X115085666Y-114341000D01*
X115133285Y-114388619D01*
X115180904Y-114483857D01*
X115180904Y-114579095D01*
X115133285Y-114721952D01*
X114561857Y-115293380D01*
X115180904Y-115293380D01*
X119803942Y-105913180D02*
X119470609Y-105436990D01*
X119232514Y-105913180D02*
X119232514Y-104913180D01*
X119613466Y-104913180D01*
X119708704Y-104960800D01*
X119756323Y-105008419D01*
X119803942Y-105103657D01*
X119803942Y-105246514D01*
X119756323Y-105341752D01*
X119708704Y-105389371D01*
X119613466Y-105436990D01*
X119232514Y-105436990D01*
X120756323Y-105913180D02*
X120184895Y-105913180D01*
X120470609Y-105913180D02*
X120470609Y-104913180D01*
X120375371Y-105056038D01*
X120280133Y-105151276D01*
X120184895Y-105198895D01*
X121089657Y-104913180D02*
X121708704Y-104913180D01*
X121375371Y-105294133D01*
X121518228Y-105294133D01*
X121613466Y-105341752D01*
X121661085Y-105389371D01*
X121708704Y-105484609D01*
X121708704Y-105722704D01*
X121661085Y-105817942D01*
X121613466Y-105865561D01*
X121518228Y-105913180D01*
X121232514Y-105913180D01*
X121137276Y-105865561D01*
X121089657Y-105817942D01*
X146128980Y-108034057D02*
X145652790Y-108367390D01*
X146128980Y-108605485D02*
X145128980Y-108605485D01*
X145128980Y-108224533D01*
X145176600Y-108129295D01*
X145224219Y-108081676D01*
X145319457Y-108034057D01*
X145462314Y-108034057D01*
X145557552Y-108081676D01*
X145605171Y-108129295D01*
X145652790Y-108224533D01*
X145652790Y-108605485D01*
X146128980Y-107081676D02*
X146128980Y-107653104D01*
X146128980Y-107367390D02*
X145128980Y-107367390D01*
X145271838Y-107462628D01*
X145367076Y-107557866D01*
X145414695Y-107653104D01*
X145462314Y-106224533D02*
X146128980Y-106224533D01*
X145081361Y-106462628D02*
X145795647Y-106700723D01*
X145795647Y-106081676D01*
X120007142Y-103162380D02*
X119673809Y-102686190D01*
X119435714Y-103162380D02*
X119435714Y-102162380D01*
X119816666Y-102162380D01*
X119911904Y-102210000D01*
X119959523Y-102257619D01*
X120007142Y-102352857D01*
X120007142Y-102495714D01*
X119959523Y-102590952D01*
X119911904Y-102638571D01*
X119816666Y-102686190D01*
X119435714Y-102686190D01*
X120959523Y-103162380D02*
X120388095Y-103162380D01*
X120673809Y-103162380D02*
X120673809Y-102162380D01*
X120578571Y-102305238D01*
X120483333Y-102400476D01*
X120388095Y-102448095D01*
X121864285Y-102162380D02*
X121388095Y-102162380D01*
X121340476Y-102638571D01*
X121388095Y-102590952D01*
X121483333Y-102543333D01*
X121721428Y-102543333D01*
X121816666Y-102590952D01*
X121864285Y-102638571D01*
X121911904Y-102733809D01*
X121911904Y-102971904D01*
X121864285Y-103067142D01*
X121816666Y-103114761D01*
X121721428Y-103162380D01*
X121483333Y-103162380D01*
X121388095Y-103114761D01*
X121340476Y-103067142D01*
X150675580Y-105544857D02*
X150199390Y-105878190D01*
X150675580Y-106116285D02*
X149675580Y-106116285D01*
X149675580Y-105735333D01*
X149723200Y-105640095D01*
X149770819Y-105592476D01*
X149866057Y-105544857D01*
X150008914Y-105544857D01*
X150104152Y-105592476D01*
X150151771Y-105640095D01*
X150199390Y-105735333D01*
X150199390Y-106116285D01*
X150675580Y-104592476D02*
X150675580Y-105163904D01*
X150675580Y-104878190D02*
X149675580Y-104878190D01*
X149818438Y-104973428D01*
X149913676Y-105068666D01*
X149961295Y-105163904D01*
X149675580Y-103735333D02*
X149675580Y-103925809D01*
X149723200Y-104021047D01*
X149770819Y-104068666D01*
X149913676Y-104163904D01*
X150104152Y-104211523D01*
X150485104Y-104211523D01*
X150580342Y-104163904D01*
X150627961Y-104116285D01*
X150675580Y-104021047D01*
X150675580Y-103830571D01*
X150627961Y-103735333D01*
X150580342Y-103687714D01*
X150485104Y-103640095D01*
X150247009Y-103640095D01*
X150151771Y-103687714D01*
X150104152Y-103735333D01*
X150056533Y-103830571D01*
X150056533Y-104021047D01*
X150104152Y-104116285D01*
X150151771Y-104163904D01*
X150247009Y-104211523D01*
X130152380Y-102877857D02*
X129676190Y-103211190D01*
X130152380Y-103449285D02*
X129152380Y-103449285D01*
X129152380Y-103068333D01*
X129200000Y-102973095D01*
X129247619Y-102925476D01*
X129342857Y-102877857D01*
X129485714Y-102877857D01*
X129580952Y-102925476D01*
X129628571Y-102973095D01*
X129676190Y-103068333D01*
X129676190Y-103449285D01*
X130152380Y-101925476D02*
X130152380Y-102496904D01*
X130152380Y-102211190D02*
X129152380Y-102211190D01*
X129295238Y-102306428D01*
X129390476Y-102401666D01*
X129438095Y-102496904D01*
X129152380Y-101592142D02*
X129152380Y-100925476D01*
X130152380Y-101354047D01*
X142663942Y-100993180D02*
X142330609Y-100516990D01*
X142092514Y-100993180D02*
X142092514Y-99993180D01*
X142473466Y-99993180D01*
X142568704Y-100040800D01*
X142616323Y-100088419D01*
X142663942Y-100183657D01*
X142663942Y-100326514D01*
X142616323Y-100421752D01*
X142568704Y-100469371D01*
X142473466Y-100516990D01*
X142092514Y-100516990D01*
X143616323Y-100993180D02*
X143044895Y-100993180D01*
X143330609Y-100993180D02*
X143330609Y-99993180D01*
X143235371Y-100136038D01*
X143140133Y-100231276D01*
X143044895Y-100278895D01*
X144187752Y-100421752D02*
X144092514Y-100374133D01*
X144044895Y-100326514D01*
X143997276Y-100231276D01*
X143997276Y-100183657D01*
X144044895Y-100088419D01*
X144092514Y-100040800D01*
X144187752Y-99993180D01*
X144378228Y-99993180D01*
X144473466Y-100040800D01*
X144521085Y-100088419D01*
X144568704Y-100183657D01*
X144568704Y-100231276D01*
X144521085Y-100326514D01*
X144473466Y-100374133D01*
X144378228Y-100421752D01*
X144187752Y-100421752D01*
X144092514Y-100469371D01*
X144044895Y-100516990D01*
X143997276Y-100612228D01*
X143997276Y-100802704D01*
X144044895Y-100897942D01*
X144092514Y-100945561D01*
X144187752Y-100993180D01*
X144378228Y-100993180D01*
X144473466Y-100945561D01*
X144521085Y-100897942D01*
X144568704Y-100802704D01*
X144568704Y-100612228D01*
X144521085Y-100516990D01*
X144473466Y-100469371D01*
X144378228Y-100421752D01*
X120007142Y-98082380D02*
X119673809Y-97606190D01*
X119435714Y-98082380D02*
X119435714Y-97082380D01*
X119816666Y-97082380D01*
X119911904Y-97130000D01*
X119959523Y-97177619D01*
X120007142Y-97272857D01*
X120007142Y-97415714D01*
X119959523Y-97510952D01*
X119911904Y-97558571D01*
X119816666Y-97606190D01*
X119435714Y-97606190D01*
X120959523Y-98082380D02*
X120388095Y-98082380D01*
X120673809Y-98082380D02*
X120673809Y-97082380D01*
X120578571Y-97225238D01*
X120483333Y-97320476D01*
X120388095Y-97368095D01*
X121435714Y-98082380D02*
X121626190Y-98082380D01*
X121721428Y-98034761D01*
X121769047Y-97987142D01*
X121864285Y-97844285D01*
X121911904Y-97653809D01*
X121911904Y-97272857D01*
X121864285Y-97177619D01*
X121816666Y-97130000D01*
X121721428Y-97082380D01*
X121530952Y-97082380D01*
X121435714Y-97130000D01*
X121388095Y-97177619D01*
X121340476Y-97272857D01*
X121340476Y-97510952D01*
X121388095Y-97606190D01*
X121435714Y-97653809D01*
X121530952Y-97701428D01*
X121721428Y-97701428D01*
X121816666Y-97653809D01*
X121864285Y-97606190D01*
X121911904Y-97510952D01*
X141328380Y-100972857D02*
X140852190Y-101306190D01*
X141328380Y-101544285D02*
X140328380Y-101544285D01*
X140328380Y-101163333D01*
X140376000Y-101068095D01*
X140423619Y-101020476D01*
X140518857Y-100972857D01*
X140661714Y-100972857D01*
X140756952Y-101020476D01*
X140804571Y-101068095D01*
X140852190Y-101163333D01*
X140852190Y-101544285D01*
X140423619Y-100591904D02*
X140376000Y-100544285D01*
X140328380Y-100449047D01*
X140328380Y-100210952D01*
X140376000Y-100115714D01*
X140423619Y-100068095D01*
X140518857Y-100020476D01*
X140614095Y-100020476D01*
X140756952Y-100068095D01*
X141328380Y-100639523D01*
X141328380Y-100020476D01*
X140328380Y-99401428D02*
X140328380Y-99306190D01*
X140376000Y-99210952D01*
X140423619Y-99163333D01*
X140518857Y-99115714D01*
X140709333Y-99068095D01*
X140947428Y-99068095D01*
X141137904Y-99115714D01*
X141233142Y-99163333D01*
X141280761Y-99210952D01*
X141328380Y-99306190D01*
X141328380Y-99401428D01*
X141280761Y-99496666D01*
X141233142Y-99544285D01*
X141137904Y-99591904D01*
X140947428Y-99639523D01*
X140709333Y-99639523D01*
X140518857Y-99591904D01*
X140423619Y-99544285D01*
X140376000Y-99496666D01*
X140328380Y-99401428D01*
X125047742Y-123853180D02*
X124714409Y-123376990D01*
X124476314Y-123853180D02*
X124476314Y-122853180D01*
X124857266Y-122853180D01*
X124952504Y-122900800D01*
X125000123Y-122948419D01*
X125047742Y-123043657D01*
X125047742Y-123186514D01*
X125000123Y-123281752D01*
X124952504Y-123329371D01*
X124857266Y-123376990D01*
X124476314Y-123376990D01*
X125428695Y-122948419D02*
X125476314Y-122900800D01*
X125571552Y-122853180D01*
X125809647Y-122853180D01*
X125904885Y-122900800D01*
X125952504Y-122948419D01*
X126000123Y-123043657D01*
X126000123Y-123138895D01*
X125952504Y-123281752D01*
X125381076Y-123853180D01*
X126000123Y-123853180D01*
X126952504Y-123853180D02*
X126381076Y-123853180D01*
X126666790Y-123853180D02*
X126666790Y-122853180D01*
X126571552Y-122996038D01*
X126476314Y-123091276D01*
X126381076Y-123138895D01*
X142562342Y-120586780D02*
X142229009Y-120110590D01*
X141990914Y-120586780D02*
X141990914Y-119586780D01*
X142371866Y-119586780D01*
X142467104Y-119634400D01*
X142514723Y-119682019D01*
X142562342Y-119777257D01*
X142562342Y-119920114D01*
X142514723Y-120015352D01*
X142467104Y-120062971D01*
X142371866Y-120110590D01*
X141990914Y-120110590D01*
X142943295Y-119682019D02*
X142990914Y-119634400D01*
X143086152Y-119586780D01*
X143324247Y-119586780D01*
X143419485Y-119634400D01*
X143467104Y-119682019D01*
X143514723Y-119777257D01*
X143514723Y-119872495D01*
X143467104Y-120015352D01*
X142895676Y-120586780D01*
X143514723Y-120586780D01*
X143895676Y-119682019D02*
X143943295Y-119634400D01*
X144038533Y-119586780D01*
X144276628Y-119586780D01*
X144371866Y-119634400D01*
X144419485Y-119682019D01*
X144467104Y-119777257D01*
X144467104Y-119872495D01*
X144419485Y-120015352D01*
X143848057Y-120586780D01*
X144467104Y-120586780D01*
X133858095Y-104002380D02*
X133858095Y-104811904D01*
X133905714Y-104907142D01*
X133953333Y-104954761D01*
X134048571Y-105002380D01*
X134239047Y-105002380D01*
X134334285Y-104954761D01*
X134381904Y-104907142D01*
X134429523Y-104811904D01*
X134429523Y-104002380D01*
X135429523Y-105002380D02*
X134858095Y-105002380D01*
X135143809Y-105002380D02*
X135143809Y-104002380D01*
X135048571Y-104145238D01*
X134953333Y-104240476D01*
X134858095Y-104288095D01*
M02*
