M48
; DRILL file {KiCad (5.1.2)-2} date 2019/7/8 22:36:49
; FORMAT={-:-/ absolute / inch / decimal}
; #@! TF.CreationDate,2019-07-08T22:36:49+08:00
; #@! TF.GenerationSoftware,Kicad,Pcbnew,(5.1.2)-2
; #@! TF.FileFunction,Plated,1,2,PTH
FMAT,2
INCH
T1C0.0157
T2C0.0197
T3C0.0374
T4C0.0591
T5C0.0669
T6C0.1260
%
G90
G05
T1
X4.75Y-4.268
X4.842Y-4.268
X4.946Y-4.554
X5.082Y-4.554
X5.508Y-4.178
X5.612Y-4.488
X5.816Y-4.258
X5.998Y-4.08
T2
X5.25Y-3.738
X3.856Y-3.946
X6.602Y-3.87
T3
X5.165Y-4.83
X5.2634Y-4.83
X5.3619Y-4.83
T4
X4.102Y-3.654
X4.965Y-3.65
X5.992Y-3.656
X6.41Y-3.65
X5.575Y-3.655
X4.532Y-3.65
T5
X4.002Y-3.554
X4.002Y-3.754
X4.202Y-3.554
X4.202Y-3.754
X4.865Y-3.55
X4.865Y-3.75
X5.065Y-3.55
X5.065Y-3.75
X5.892Y-3.556
X5.892Y-3.756
X6.092Y-3.556
X6.092Y-3.756
X6.31Y-3.55
X6.31Y-3.75
X6.51Y-3.55
X6.51Y-3.75
X5.475Y-3.555
X5.475Y-3.755
X5.675Y-3.555
X5.675Y-3.755
X4.432Y-3.55
X4.432Y-3.75
X4.632Y-3.55
X4.632Y-3.75
T6
X3.748Y-3.602
X6.758Y-3.612
X3.75Y-4.85
X6.724Y-4.85
T0
M30
