G04 #@! TF.GenerationSoftware,KiCad,Pcbnew,(5.1.2)-2*
G04 #@! TF.CreationDate,2019-07-08T22:36:46+08:00*
G04 #@! TF.ProjectId,General Purpose Op Amp Eval-Board,47656e65-7261-46c2-9050-7572706f7365,rev?*
G04 #@! TF.SameCoordinates,Original*
G04 #@! TF.FileFunction,Soldermask,Top*
G04 #@! TF.FilePolarity,Negative*
%FSLAX46Y46*%
G04 Gerber Fmt 4.6, Leading zero omitted, Abs format (unit mm)*
G04 Created by KiCad (PCBNEW (5.1.2)-2) date 2019-07-08 22:36:46*
%MOMM*%
%LPD*%
G04 APERTURE LIST*
%ADD10C,0.100000*%
G04 APERTURE END LIST*
D10*
G36*
X125362599Y-124523337D02*
G01*
X125372208Y-124526252D01*
X125381072Y-124530990D01*
X125388812Y-124537342D01*
X125388813Y-124537343D01*
X125388837Y-124537363D01*
X125395240Y-124545173D01*
X125395277Y-124545228D01*
X125403080Y-124554747D01*
X125403111Y-124554722D01*
X125414453Y-124568572D01*
X125433379Y-124584137D01*
X125454977Y-124595711D01*
X125478419Y-124602849D01*
X125502802Y-124605276D01*
X125527191Y-124602900D01*
X125550647Y-124595811D01*
X125572270Y-124584282D01*
X125591228Y-124568757D01*
X125606793Y-124549831D01*
X125608629Y-124546775D01*
X125610018Y-124545086D01*
X125610019Y-124545084D01*
X125616401Y-124537325D01*
X125624173Y-124530960D01*
X125624175Y-124530958D01*
X125632999Y-124526254D01*
X125633038Y-124526233D01*
X125642655Y-124523327D01*
X125642685Y-124523318D01*
X125658713Y-124521748D01*
X126796460Y-124521748D01*
X126812599Y-124523337D01*
X126822208Y-124526252D01*
X126831072Y-124530990D01*
X126838837Y-124537363D01*
X126845210Y-124545128D01*
X126849948Y-124553992D01*
X126852863Y-124563601D01*
X126854452Y-124579740D01*
X126854452Y-126067460D01*
X126852863Y-126083599D01*
X126849948Y-126093208D01*
X126845210Y-126102072D01*
X126838837Y-126109837D01*
X126831072Y-126116210D01*
X126822208Y-126120948D01*
X126812599Y-126123863D01*
X126796460Y-126125452D01*
X125658740Y-126125452D01*
X125642601Y-126123863D01*
X125632992Y-126120948D01*
X125624128Y-126116210D01*
X125616363Y-126109837D01*
X125605716Y-126096863D01*
X125599547Y-126087632D01*
X125582219Y-126070306D01*
X125561844Y-126056693D01*
X125539205Y-126047317D01*
X125515172Y-126042537D01*
X125490668Y-126042538D01*
X125466635Y-126047320D01*
X125443996Y-126056698D01*
X125423622Y-126070313D01*
X125406296Y-126087641D01*
X125399425Y-126096917D01*
X125395240Y-126102027D01*
X125388875Y-126109799D01*
X125381116Y-126116181D01*
X125372261Y-126120926D01*
X125369223Y-126121851D01*
X125362685Y-126123842D01*
X125362682Y-126123842D01*
X125362650Y-126123852D01*
X125352600Y-126124847D01*
X125352535Y-126124847D01*
X125346425Y-126125452D01*
X124358740Y-126125452D01*
X124342601Y-126123863D01*
X124332992Y-126120948D01*
X124324128Y-126116210D01*
X124316363Y-126109837D01*
X124309990Y-126102072D01*
X124305252Y-126093208D01*
X124302337Y-126083599D01*
X124300748Y-126067460D01*
X124300748Y-124579740D01*
X124302337Y-124563601D01*
X124305252Y-124553992D01*
X124309990Y-124545128D01*
X124316363Y-124537363D01*
X124324128Y-124530990D01*
X124332992Y-124526252D01*
X124342601Y-124523337D01*
X124358740Y-124521748D01*
X125346460Y-124521748D01*
X125362599Y-124523337D01*
X125362599Y-124523337D01*
G37*
G36*
X171606621Y-120496640D02*
G01*
X172116369Y-120707785D01*
X172116371Y-120707786D01*
X172575134Y-121014321D01*
X172965279Y-121404466D01*
X173247874Y-121827400D01*
X173271815Y-121863231D01*
X173482960Y-122372979D01*
X173590600Y-122914124D01*
X173590600Y-123465876D01*
X173482960Y-124007021D01*
X173271815Y-124516769D01*
X173271814Y-124516771D01*
X172965279Y-124975534D01*
X172575134Y-125365679D01*
X172116371Y-125672214D01*
X172116370Y-125672215D01*
X172116369Y-125672215D01*
X171606621Y-125883360D01*
X171065476Y-125991000D01*
X170513724Y-125991000D01*
X169972579Y-125883360D01*
X169462831Y-125672215D01*
X169462830Y-125672215D01*
X169462829Y-125672214D01*
X169004066Y-125365679D01*
X168613921Y-124975534D01*
X168307386Y-124516771D01*
X168307385Y-124516769D01*
X168096240Y-124007021D01*
X167988600Y-123465876D01*
X167988600Y-122914124D01*
X168096240Y-122372979D01*
X168307385Y-121863231D01*
X168331326Y-121827400D01*
X168613921Y-121404466D01*
X169004066Y-121014321D01*
X169462829Y-120707786D01*
X169462831Y-120707785D01*
X169972579Y-120496640D01*
X170513724Y-120389000D01*
X171065476Y-120389000D01*
X171606621Y-120496640D01*
X171606621Y-120496640D01*
G37*
G36*
X96067021Y-120496640D02*
G01*
X96576769Y-120707785D01*
X96576771Y-120707786D01*
X97035534Y-121014321D01*
X97425679Y-121404466D01*
X97708274Y-121827400D01*
X97732215Y-121863231D01*
X97943360Y-122372979D01*
X98051000Y-122914124D01*
X98051000Y-123465876D01*
X97943360Y-124007021D01*
X97732215Y-124516769D01*
X97732214Y-124516771D01*
X97425679Y-124975534D01*
X97035534Y-125365679D01*
X96576771Y-125672214D01*
X96576770Y-125672215D01*
X96576769Y-125672215D01*
X96067021Y-125883360D01*
X95525876Y-125991000D01*
X94974124Y-125991000D01*
X94432979Y-125883360D01*
X93923231Y-125672215D01*
X93923230Y-125672215D01*
X93923229Y-125672214D01*
X93464466Y-125365679D01*
X93074321Y-124975534D01*
X92767786Y-124516771D01*
X92767785Y-124516769D01*
X92556640Y-124007021D01*
X92449000Y-123465876D01*
X92449000Y-122914124D01*
X92556640Y-122372979D01*
X92767785Y-121863231D01*
X92791726Y-121827400D01*
X93074321Y-121404466D01*
X93464466Y-121014321D01*
X93923229Y-120707786D01*
X93923231Y-120707785D01*
X94432979Y-120496640D01*
X94974124Y-120389000D01*
X95525876Y-120389000D01*
X96067021Y-120496640D01*
X96067021Y-120496640D01*
G37*
G36*
X142939399Y-123812137D02*
G01*
X142949008Y-123815052D01*
X142957872Y-123819790D01*
X142965612Y-123826142D01*
X142965613Y-123826143D01*
X142965637Y-123826163D01*
X142972040Y-123833973D01*
X142972077Y-123834028D01*
X142979880Y-123843547D01*
X142979911Y-123843522D01*
X142991253Y-123857372D01*
X143010179Y-123872937D01*
X143031777Y-123884511D01*
X143055219Y-123891649D01*
X143079602Y-123894076D01*
X143103991Y-123891700D01*
X143127447Y-123884611D01*
X143149070Y-123873082D01*
X143168028Y-123857557D01*
X143183593Y-123838631D01*
X143185429Y-123835575D01*
X143186818Y-123833886D01*
X143186819Y-123833884D01*
X143193201Y-123826125D01*
X143200973Y-123819760D01*
X143200975Y-123819758D01*
X143209799Y-123815054D01*
X143209838Y-123815033D01*
X143219455Y-123812127D01*
X143219485Y-123812118D01*
X143235513Y-123810548D01*
X144373260Y-123810548D01*
X144389399Y-123812137D01*
X144399008Y-123815052D01*
X144407872Y-123819790D01*
X144415637Y-123826163D01*
X144422010Y-123833928D01*
X144426748Y-123842792D01*
X144429663Y-123852401D01*
X144431252Y-123868540D01*
X144431252Y-125356260D01*
X144429663Y-125372399D01*
X144426748Y-125382008D01*
X144422010Y-125390872D01*
X144415637Y-125398637D01*
X144407872Y-125405010D01*
X144399008Y-125409748D01*
X144389399Y-125412663D01*
X144373260Y-125414252D01*
X143235540Y-125414252D01*
X143219401Y-125412663D01*
X143209792Y-125409748D01*
X143200928Y-125405010D01*
X143193163Y-125398637D01*
X143182516Y-125385663D01*
X143176347Y-125376432D01*
X143159019Y-125359106D01*
X143138644Y-125345493D01*
X143116005Y-125336117D01*
X143091972Y-125331337D01*
X143067468Y-125331338D01*
X143043435Y-125336120D01*
X143020796Y-125345498D01*
X143000422Y-125359113D01*
X142983096Y-125376441D01*
X142976225Y-125385717D01*
X142972040Y-125390827D01*
X142965675Y-125398599D01*
X142957916Y-125404981D01*
X142949061Y-125409726D01*
X142946023Y-125410651D01*
X142939485Y-125412642D01*
X142939482Y-125412642D01*
X142939450Y-125412652D01*
X142929400Y-125413647D01*
X142929335Y-125413647D01*
X142923225Y-125414252D01*
X141935540Y-125414252D01*
X141919401Y-125412663D01*
X141909792Y-125409748D01*
X141900928Y-125405010D01*
X141893163Y-125398637D01*
X141886790Y-125390872D01*
X141882052Y-125382008D01*
X141879137Y-125372399D01*
X141877548Y-125356260D01*
X141877548Y-123868540D01*
X141879137Y-123852401D01*
X141882052Y-123842792D01*
X141886790Y-123833928D01*
X141893163Y-123826163D01*
X141900928Y-123819790D01*
X141909792Y-123815052D01*
X141919401Y-123812137D01*
X141935540Y-123810548D01*
X142923260Y-123810548D01*
X142939399Y-123812137D01*
X142939399Y-123812137D01*
G37*
G36*
X136367626Y-121669037D02*
G01*
X136537465Y-121720557D01*
X136537467Y-121720558D01*
X136693989Y-121804221D01*
X136831186Y-121916814D01*
X136900237Y-122000954D01*
X136943778Y-122054009D01*
X137027443Y-122210534D01*
X137078963Y-122380373D01*
X137078963Y-122380375D01*
X137087053Y-122462508D01*
X137092000Y-122512742D01*
X137092000Y-122851257D01*
X137078963Y-122983626D01*
X137027443Y-123153466D01*
X136943778Y-123309991D01*
X136914448Y-123345729D01*
X136831186Y-123447186D01*
X136736250Y-123525097D01*
X136693991Y-123559778D01*
X136537466Y-123643443D01*
X136367627Y-123694963D01*
X136191000Y-123712359D01*
X136014374Y-123694963D01*
X135844535Y-123643443D01*
X135688010Y-123559778D01*
X135550815Y-123447185D01*
X135438222Y-123309991D01*
X135354557Y-123153466D01*
X135303037Y-122983627D01*
X135290000Y-122851258D01*
X135290000Y-122512743D01*
X135303037Y-122380374D01*
X135354557Y-122210535D01*
X135429472Y-122070380D01*
X135438221Y-122054011D01*
X135550814Y-121916814D01*
X135659767Y-121827400D01*
X135688009Y-121804222D01*
X135844534Y-121720557D01*
X136014373Y-121669037D01*
X136191000Y-121651641D01*
X136367626Y-121669037D01*
X136367626Y-121669037D01*
G37*
G36*
X133867626Y-121669037D02*
G01*
X134037465Y-121720557D01*
X134037467Y-121720558D01*
X134193989Y-121804221D01*
X134331186Y-121916814D01*
X134400237Y-122000954D01*
X134443778Y-122054009D01*
X134527443Y-122210534D01*
X134578963Y-122380373D01*
X134578963Y-122380375D01*
X134587053Y-122462508D01*
X134592000Y-122512742D01*
X134592000Y-122851257D01*
X134578963Y-122983626D01*
X134527443Y-123153466D01*
X134443778Y-123309991D01*
X134414448Y-123345729D01*
X134331186Y-123447186D01*
X134236250Y-123525097D01*
X134193991Y-123559778D01*
X134037466Y-123643443D01*
X133867627Y-123694963D01*
X133691000Y-123712359D01*
X133514374Y-123694963D01*
X133344535Y-123643443D01*
X133188010Y-123559778D01*
X133050815Y-123447185D01*
X132938222Y-123309991D01*
X132854557Y-123153466D01*
X132803037Y-122983627D01*
X132790000Y-122851258D01*
X132790000Y-122512743D01*
X132803037Y-122380374D01*
X132854557Y-122210535D01*
X132929472Y-122070380D01*
X132938221Y-122054011D01*
X133050814Y-121916814D01*
X133159767Y-121827400D01*
X133188009Y-121804222D01*
X133344534Y-121720557D01*
X133514373Y-121669037D01*
X133691000Y-121651641D01*
X133867626Y-121669037D01*
X133867626Y-121669037D01*
G37*
G36*
X131949600Y-121659989D02*
G01*
X131982652Y-121670015D01*
X132013103Y-121686292D01*
X132039799Y-121708201D01*
X132061708Y-121734897D01*
X132077985Y-121765348D01*
X132088011Y-121798400D01*
X132092000Y-121838903D01*
X132092000Y-123525097D01*
X132088011Y-123565600D01*
X132077985Y-123598652D01*
X132061708Y-123629103D01*
X132039799Y-123655799D01*
X132013103Y-123677708D01*
X131982652Y-123693985D01*
X131949600Y-123704011D01*
X131909097Y-123708000D01*
X130472903Y-123708000D01*
X130432400Y-123704011D01*
X130399348Y-123693985D01*
X130368897Y-123677708D01*
X130342201Y-123655799D01*
X130320292Y-123629103D01*
X130304015Y-123598652D01*
X130293989Y-123565600D01*
X130290000Y-123525097D01*
X130290000Y-121838903D01*
X130293989Y-121798400D01*
X130304015Y-121765348D01*
X130320292Y-121734897D01*
X130342201Y-121708201D01*
X130368897Y-121686292D01*
X130399348Y-121670015D01*
X130432400Y-121659989D01*
X130472903Y-121656000D01*
X131909097Y-121656000D01*
X131949600Y-121659989D01*
X131949600Y-121659989D01*
G37*
G36*
X125230099Y-121449245D02*
G01*
X125267595Y-121460620D01*
X125302154Y-121479092D01*
X125332447Y-121503953D01*
X125357308Y-121534246D01*
X125375780Y-121568805D01*
X125387155Y-121606301D01*
X125391600Y-121651438D01*
X125391600Y-122290162D01*
X125387155Y-122335299D01*
X125375780Y-122372795D01*
X125357308Y-122407354D01*
X125332447Y-122437647D01*
X125302154Y-122462508D01*
X125267595Y-122480980D01*
X125230099Y-122492355D01*
X125184962Y-122496800D01*
X124446238Y-122496800D01*
X124401101Y-122492355D01*
X124363605Y-122480980D01*
X124329046Y-122462508D01*
X124298753Y-122437647D01*
X124273892Y-122407354D01*
X124255420Y-122372795D01*
X124244045Y-122335299D01*
X124239600Y-122290162D01*
X124239600Y-121651438D01*
X124244045Y-121606301D01*
X124255420Y-121568805D01*
X124273892Y-121534246D01*
X124298753Y-121503953D01*
X124329046Y-121479092D01*
X124363605Y-121460620D01*
X124401101Y-121449245D01*
X124446238Y-121444800D01*
X125184962Y-121444800D01*
X125230099Y-121449245D01*
X125230099Y-121449245D01*
G37*
G36*
X126980099Y-121449245D02*
G01*
X127017595Y-121460620D01*
X127052154Y-121479092D01*
X127082447Y-121503953D01*
X127107308Y-121534246D01*
X127125780Y-121568805D01*
X127137155Y-121606301D01*
X127141600Y-121651438D01*
X127141600Y-122290162D01*
X127137155Y-122335299D01*
X127125780Y-122372795D01*
X127107308Y-122407354D01*
X127082447Y-122437647D01*
X127052154Y-122462508D01*
X127017595Y-122480980D01*
X126980099Y-122492355D01*
X126934962Y-122496800D01*
X126196238Y-122496800D01*
X126151101Y-122492355D01*
X126113605Y-122480980D01*
X126079046Y-122462508D01*
X126048753Y-122437647D01*
X126023892Y-122407354D01*
X126005420Y-122372795D01*
X125994045Y-122335299D01*
X125989600Y-122290162D01*
X125989600Y-121651438D01*
X125994045Y-121606301D01*
X126005420Y-121568805D01*
X126023892Y-121534246D01*
X126048753Y-121503953D01*
X126079046Y-121479092D01*
X126113605Y-121460620D01*
X126151101Y-121449245D01*
X126196238Y-121444800D01*
X126934962Y-121444800D01*
X126980099Y-121449245D01*
X126980099Y-121449245D01*
G37*
G36*
X144494699Y-121042845D02*
G01*
X144532195Y-121054220D01*
X144566754Y-121072692D01*
X144597047Y-121097553D01*
X144621908Y-121127846D01*
X144640380Y-121162405D01*
X144651755Y-121199901D01*
X144656200Y-121245038D01*
X144656200Y-121883762D01*
X144651755Y-121928899D01*
X144640380Y-121966395D01*
X144621908Y-122000954D01*
X144597047Y-122031247D01*
X144566754Y-122056108D01*
X144532195Y-122074580D01*
X144494699Y-122085955D01*
X144449562Y-122090400D01*
X143710838Y-122090400D01*
X143665701Y-122085955D01*
X143628205Y-122074580D01*
X143593646Y-122056108D01*
X143563353Y-122031247D01*
X143538492Y-122000954D01*
X143520020Y-121966395D01*
X143508645Y-121928899D01*
X143504200Y-121883762D01*
X143504200Y-121245038D01*
X143508645Y-121199901D01*
X143520020Y-121162405D01*
X143538492Y-121127846D01*
X143563353Y-121097553D01*
X143593646Y-121072692D01*
X143628205Y-121054220D01*
X143665701Y-121042845D01*
X143710838Y-121038400D01*
X144449562Y-121038400D01*
X144494699Y-121042845D01*
X144494699Y-121042845D01*
G37*
G36*
X142744699Y-121042845D02*
G01*
X142782195Y-121054220D01*
X142816754Y-121072692D01*
X142847047Y-121097553D01*
X142871908Y-121127846D01*
X142890380Y-121162405D01*
X142901755Y-121199901D01*
X142906200Y-121245038D01*
X142906200Y-121883762D01*
X142901755Y-121928899D01*
X142890380Y-121966395D01*
X142871908Y-122000954D01*
X142847047Y-122031247D01*
X142816754Y-122056108D01*
X142782195Y-122074580D01*
X142744699Y-122085955D01*
X142699562Y-122090400D01*
X141960838Y-122090400D01*
X141915701Y-122085955D01*
X141878205Y-122074580D01*
X141843646Y-122056108D01*
X141813353Y-122031247D01*
X141788492Y-122000954D01*
X141770020Y-121966395D01*
X141758645Y-121928899D01*
X141754200Y-121883762D01*
X141754200Y-121245038D01*
X141758645Y-121199901D01*
X141770020Y-121162405D01*
X141788492Y-121127846D01*
X141813353Y-121097553D01*
X141843646Y-121072692D01*
X141878205Y-121054220D01*
X141915701Y-121042845D01*
X141960838Y-121038400D01*
X142699562Y-121038400D01*
X142744699Y-121042845D01*
X142744699Y-121042845D01*
G37*
G36*
X142985499Y-117651445D02*
G01*
X143022995Y-117662820D01*
X143057554Y-117681292D01*
X143087847Y-117706153D01*
X143112708Y-117736446D01*
X143131180Y-117771005D01*
X143142555Y-117808501D01*
X143147000Y-117853638D01*
X143147000Y-118592362D01*
X143142555Y-118637499D01*
X143131180Y-118674995D01*
X143112708Y-118709554D01*
X143087847Y-118739847D01*
X143057554Y-118764708D01*
X143022995Y-118783180D01*
X142985499Y-118794555D01*
X142940362Y-118799000D01*
X142301638Y-118799000D01*
X142256501Y-118794555D01*
X142219005Y-118783180D01*
X142184446Y-118764708D01*
X142154153Y-118739847D01*
X142129292Y-118709554D01*
X142110820Y-118674995D01*
X142099445Y-118637499D01*
X142095000Y-118592362D01*
X142095000Y-117853638D01*
X142099445Y-117808501D01*
X142110820Y-117771005D01*
X142129292Y-117736446D01*
X142154153Y-117706153D01*
X142184446Y-117681292D01*
X142219005Y-117662820D01*
X142256501Y-117651445D01*
X142301638Y-117647000D01*
X142940362Y-117647000D01*
X142985499Y-117651445D01*
X142985499Y-117651445D01*
G37*
G36*
X127019499Y-117436045D02*
G01*
X127056995Y-117447420D01*
X127091554Y-117465892D01*
X127121847Y-117490753D01*
X127146708Y-117521046D01*
X127165180Y-117555605D01*
X127176555Y-117593101D01*
X127181000Y-117638238D01*
X127181000Y-118276962D01*
X127176555Y-118322099D01*
X127165180Y-118359595D01*
X127146708Y-118394154D01*
X127121847Y-118424447D01*
X127091554Y-118449308D01*
X127056995Y-118467780D01*
X127019499Y-118479155D01*
X126974362Y-118483600D01*
X126235638Y-118483600D01*
X126190501Y-118479155D01*
X126153005Y-118467780D01*
X126118446Y-118449308D01*
X126088153Y-118424447D01*
X126063292Y-118394154D01*
X126044820Y-118359595D01*
X126033445Y-118322099D01*
X126029000Y-118276962D01*
X126029000Y-117638238D01*
X126033445Y-117593101D01*
X126044820Y-117555605D01*
X126063292Y-117521046D01*
X126088153Y-117490753D01*
X126118446Y-117465892D01*
X126153005Y-117447420D01*
X126190501Y-117436045D01*
X126235638Y-117431600D01*
X126974362Y-117431600D01*
X127019499Y-117436045D01*
X127019499Y-117436045D01*
G37*
G36*
X125269499Y-117436045D02*
G01*
X125306995Y-117447420D01*
X125341554Y-117465892D01*
X125371847Y-117490753D01*
X125396708Y-117521046D01*
X125415180Y-117555605D01*
X125426555Y-117593101D01*
X125431000Y-117638238D01*
X125431000Y-118276962D01*
X125426555Y-118322099D01*
X125415180Y-118359595D01*
X125396708Y-118394154D01*
X125371847Y-118424447D01*
X125341554Y-118449308D01*
X125306995Y-118467780D01*
X125269499Y-118479155D01*
X125224362Y-118483600D01*
X124485638Y-118483600D01*
X124440501Y-118479155D01*
X124403005Y-118467780D01*
X124368446Y-118449308D01*
X124338153Y-118424447D01*
X124313292Y-118394154D01*
X124294820Y-118359595D01*
X124283445Y-118322099D01*
X124279000Y-118276962D01*
X124279000Y-117638238D01*
X124283445Y-117593101D01*
X124294820Y-117555605D01*
X124313292Y-117521046D01*
X124338153Y-117490753D01*
X124368446Y-117465892D01*
X124403005Y-117447420D01*
X124440501Y-117436045D01*
X124485638Y-117431600D01*
X125224362Y-117431600D01*
X125269499Y-117436045D01*
X125269499Y-117436045D01*
G37*
G36*
X137588499Y-116572445D02*
G01*
X137625995Y-116583820D01*
X137660554Y-116602292D01*
X137690847Y-116627153D01*
X137715708Y-116657446D01*
X137734180Y-116692005D01*
X137745555Y-116729501D01*
X137750000Y-116774638D01*
X137750000Y-117413362D01*
X137745555Y-117458499D01*
X137734180Y-117495995D01*
X137715708Y-117530554D01*
X137690847Y-117560847D01*
X137660554Y-117585708D01*
X137625995Y-117604180D01*
X137588499Y-117615555D01*
X137543362Y-117620000D01*
X136804638Y-117620000D01*
X136759501Y-117615555D01*
X136722005Y-117604180D01*
X136687446Y-117585708D01*
X136657153Y-117560847D01*
X136632292Y-117530554D01*
X136613820Y-117495995D01*
X136602445Y-117458499D01*
X136598000Y-117413362D01*
X136598000Y-116774638D01*
X136602445Y-116729501D01*
X136613820Y-116692005D01*
X136632292Y-116657446D01*
X136657153Y-116627153D01*
X136687446Y-116602292D01*
X136722005Y-116583820D01*
X136759501Y-116572445D01*
X136804638Y-116568000D01*
X137543362Y-116568000D01*
X137588499Y-116572445D01*
X137588499Y-116572445D01*
G37*
G36*
X139338499Y-116572445D02*
G01*
X139375995Y-116583820D01*
X139410554Y-116602292D01*
X139440847Y-116627153D01*
X139465708Y-116657446D01*
X139484180Y-116692005D01*
X139495555Y-116729501D01*
X139500000Y-116774638D01*
X139500000Y-117413362D01*
X139495555Y-117458499D01*
X139484180Y-117495995D01*
X139465708Y-117530554D01*
X139440847Y-117560847D01*
X139410554Y-117585708D01*
X139375995Y-117604180D01*
X139338499Y-117615555D01*
X139293362Y-117620000D01*
X138554638Y-117620000D01*
X138509501Y-117615555D01*
X138472005Y-117604180D01*
X138437446Y-117585708D01*
X138407153Y-117560847D01*
X138382292Y-117530554D01*
X138363820Y-117495995D01*
X138352445Y-117458499D01*
X138348000Y-117413362D01*
X138348000Y-116774638D01*
X138352445Y-116729501D01*
X138363820Y-116692005D01*
X138382292Y-116657446D01*
X138407153Y-116627153D01*
X138437446Y-116602292D01*
X138472005Y-116583820D01*
X138509501Y-116572445D01*
X138554638Y-116568000D01*
X139293362Y-116568000D01*
X139338499Y-116572445D01*
X139338499Y-116572445D01*
G37*
G36*
X133968499Y-116254445D02*
G01*
X134005995Y-116265820D01*
X134040554Y-116284292D01*
X134070847Y-116309153D01*
X134095708Y-116339446D01*
X134114180Y-116374005D01*
X134125555Y-116411501D01*
X134130000Y-116456638D01*
X134130000Y-117195362D01*
X134125555Y-117240499D01*
X134114180Y-117277995D01*
X134095708Y-117312554D01*
X134070847Y-117342847D01*
X134040554Y-117367708D01*
X134005995Y-117386180D01*
X133968499Y-117397555D01*
X133923362Y-117402000D01*
X133284638Y-117402000D01*
X133239501Y-117397555D01*
X133202005Y-117386180D01*
X133167446Y-117367708D01*
X133137153Y-117342847D01*
X133112292Y-117312554D01*
X133093820Y-117277995D01*
X133082445Y-117240499D01*
X133078000Y-117195362D01*
X133078000Y-116456638D01*
X133082445Y-116411501D01*
X133093820Y-116374005D01*
X133112292Y-116339446D01*
X133137153Y-116309153D01*
X133167446Y-116284292D01*
X133202005Y-116265820D01*
X133239501Y-116254445D01*
X133284638Y-116250000D01*
X133923362Y-116250000D01*
X133968499Y-116254445D01*
X133968499Y-116254445D01*
G37*
G36*
X142985499Y-115901445D02*
G01*
X143022995Y-115912820D01*
X143057554Y-115931292D01*
X143087847Y-115956153D01*
X143112708Y-115986446D01*
X143131180Y-116021005D01*
X143142555Y-116058501D01*
X143147000Y-116103638D01*
X143147000Y-116842362D01*
X143142555Y-116887499D01*
X143131180Y-116924995D01*
X143112708Y-116959554D01*
X143087847Y-116989847D01*
X143057554Y-117014708D01*
X143022995Y-117033180D01*
X142985499Y-117044555D01*
X142940362Y-117049000D01*
X142301638Y-117049000D01*
X142256501Y-117044555D01*
X142219005Y-117033180D01*
X142184446Y-117014708D01*
X142154153Y-116989847D01*
X142129292Y-116959554D01*
X142110820Y-116924995D01*
X142099445Y-116887499D01*
X142095000Y-116842362D01*
X142095000Y-116103638D01*
X142099445Y-116058501D01*
X142110820Y-116021005D01*
X142129292Y-115986446D01*
X142154153Y-115956153D01*
X142184446Y-115931292D01*
X142219005Y-115912820D01*
X142256501Y-115901445D01*
X142301638Y-115897000D01*
X142940362Y-115897000D01*
X142985499Y-115901445D01*
X142985499Y-115901445D01*
G37*
G36*
X133968499Y-114504445D02*
G01*
X134005995Y-114515820D01*
X134040554Y-114534292D01*
X134070847Y-114559153D01*
X134095708Y-114589446D01*
X134114180Y-114624005D01*
X134125555Y-114661501D01*
X134130000Y-114706638D01*
X134130000Y-115445362D01*
X134125555Y-115490499D01*
X134114180Y-115527995D01*
X134095708Y-115562554D01*
X134070847Y-115592847D01*
X134040554Y-115617708D01*
X134005995Y-115636180D01*
X133968499Y-115647555D01*
X133923362Y-115652000D01*
X133284638Y-115652000D01*
X133239501Y-115647555D01*
X133202005Y-115636180D01*
X133167446Y-115617708D01*
X133137153Y-115592847D01*
X133112292Y-115562554D01*
X133093820Y-115527995D01*
X133082445Y-115490499D01*
X133078000Y-115445362D01*
X133078000Y-114706638D01*
X133082445Y-114661501D01*
X133093820Y-114624005D01*
X133112292Y-114589446D01*
X133137153Y-114559153D01*
X133167446Y-114534292D01*
X133202005Y-114515820D01*
X133239501Y-114504445D01*
X133284638Y-114500000D01*
X133923362Y-114500000D01*
X133968499Y-114504445D01*
X133968499Y-114504445D01*
G37*
G36*
X139302499Y-114044645D02*
G01*
X139339995Y-114056020D01*
X139374554Y-114074492D01*
X139404847Y-114099353D01*
X139429708Y-114129646D01*
X139448180Y-114164205D01*
X139459555Y-114201701D01*
X139464000Y-114246838D01*
X139464000Y-114985562D01*
X139459555Y-115030699D01*
X139448180Y-115068195D01*
X139429708Y-115102754D01*
X139404847Y-115133047D01*
X139374554Y-115157908D01*
X139339995Y-115176380D01*
X139302499Y-115187755D01*
X139257362Y-115192200D01*
X138618638Y-115192200D01*
X138573501Y-115187755D01*
X138536005Y-115176380D01*
X138501446Y-115157908D01*
X138471153Y-115133047D01*
X138446292Y-115102754D01*
X138427820Y-115068195D01*
X138416445Y-115030699D01*
X138412000Y-114985562D01*
X138412000Y-114246838D01*
X138416445Y-114201701D01*
X138427820Y-114164205D01*
X138446292Y-114129646D01*
X138471153Y-114099353D01*
X138501446Y-114074492D01*
X138536005Y-114056020D01*
X138573501Y-114044645D01*
X138618638Y-114040200D01*
X139257362Y-114040200D01*
X139302499Y-114044645D01*
X139302499Y-114044645D01*
G37*
G36*
X128469899Y-113524445D02*
G01*
X128507395Y-113535820D01*
X128541954Y-113554292D01*
X128572247Y-113579153D01*
X128597108Y-113609446D01*
X128615580Y-113644005D01*
X128626955Y-113681501D01*
X128631400Y-113726638D01*
X128631400Y-114365362D01*
X128626955Y-114410499D01*
X128615580Y-114447995D01*
X128597108Y-114482554D01*
X128572247Y-114512847D01*
X128541954Y-114537708D01*
X128507395Y-114556180D01*
X128469899Y-114567555D01*
X128424762Y-114572000D01*
X127686038Y-114572000D01*
X127640901Y-114567555D01*
X127603405Y-114556180D01*
X127568846Y-114537708D01*
X127538553Y-114512847D01*
X127513692Y-114482554D01*
X127495220Y-114447995D01*
X127483845Y-114410499D01*
X127479400Y-114365362D01*
X127479400Y-113726638D01*
X127483845Y-113681501D01*
X127495220Y-113644005D01*
X127513692Y-113609446D01*
X127538553Y-113579153D01*
X127568846Y-113554292D01*
X127603405Y-113535820D01*
X127640901Y-113524445D01*
X127686038Y-113520000D01*
X128424762Y-113520000D01*
X128469899Y-113524445D01*
X128469899Y-113524445D01*
G37*
G36*
X130219899Y-113524445D02*
G01*
X130257395Y-113535820D01*
X130291954Y-113554292D01*
X130322247Y-113579153D01*
X130347108Y-113609446D01*
X130365580Y-113644005D01*
X130376955Y-113681501D01*
X130381400Y-113726638D01*
X130381400Y-114365362D01*
X130376955Y-114410499D01*
X130365580Y-114447995D01*
X130347108Y-114482554D01*
X130322247Y-114512847D01*
X130291954Y-114537708D01*
X130257395Y-114556180D01*
X130219899Y-114567555D01*
X130174762Y-114572000D01*
X129436038Y-114572000D01*
X129390901Y-114567555D01*
X129353405Y-114556180D01*
X129318846Y-114537708D01*
X129288553Y-114512847D01*
X129263692Y-114482554D01*
X129245220Y-114447995D01*
X129233845Y-114410499D01*
X129229400Y-114365362D01*
X129229400Y-113726638D01*
X129233845Y-113681501D01*
X129245220Y-113644005D01*
X129263692Y-113609446D01*
X129288553Y-113579153D01*
X129318846Y-113554292D01*
X129353405Y-113535820D01*
X129390901Y-113524445D01*
X129436038Y-113520000D01*
X130174762Y-113520000D01*
X130219899Y-113524445D01*
X130219899Y-113524445D01*
G37*
G36*
X115208499Y-112889445D02*
G01*
X115245995Y-112900820D01*
X115280554Y-112919292D01*
X115310847Y-112944153D01*
X115335708Y-112974446D01*
X115354180Y-113009005D01*
X115365555Y-113046501D01*
X115370000Y-113091638D01*
X115370000Y-113730362D01*
X115365555Y-113775499D01*
X115354180Y-113812995D01*
X115335708Y-113847554D01*
X115310847Y-113877847D01*
X115280554Y-113902708D01*
X115245995Y-113921180D01*
X115208499Y-113932555D01*
X115163362Y-113937000D01*
X114424638Y-113937000D01*
X114379501Y-113932555D01*
X114342005Y-113921180D01*
X114307446Y-113902708D01*
X114277153Y-113877847D01*
X114252292Y-113847554D01*
X114233820Y-113812995D01*
X114222445Y-113775499D01*
X114218000Y-113730362D01*
X114218000Y-113091638D01*
X114222445Y-113046501D01*
X114233820Y-113009005D01*
X114252292Y-112974446D01*
X114277153Y-112944153D01*
X114307446Y-112919292D01*
X114342005Y-112900820D01*
X114379501Y-112889445D01*
X114424638Y-112885000D01*
X115163362Y-112885000D01*
X115208499Y-112889445D01*
X115208499Y-112889445D01*
G37*
G36*
X113458499Y-112889445D02*
G01*
X113495995Y-112900820D01*
X113530554Y-112919292D01*
X113560847Y-112944153D01*
X113585708Y-112974446D01*
X113604180Y-113009005D01*
X113615555Y-113046501D01*
X113620000Y-113091638D01*
X113620000Y-113730362D01*
X113615555Y-113775499D01*
X113604180Y-113812995D01*
X113585708Y-113847554D01*
X113560847Y-113877847D01*
X113530554Y-113902708D01*
X113495995Y-113921180D01*
X113458499Y-113932555D01*
X113413362Y-113937000D01*
X112674638Y-113937000D01*
X112629501Y-113932555D01*
X112592005Y-113921180D01*
X112557446Y-113902708D01*
X112527153Y-113877847D01*
X112502292Y-113847554D01*
X112483820Y-113812995D01*
X112472445Y-113775499D01*
X112468000Y-113730362D01*
X112468000Y-113091638D01*
X112472445Y-113046501D01*
X112483820Y-113009005D01*
X112502292Y-112974446D01*
X112527153Y-112944153D01*
X112557446Y-112919292D01*
X112592005Y-112900820D01*
X112629501Y-112889445D01*
X112674638Y-112885000D01*
X113413362Y-112885000D01*
X113458499Y-112889445D01*
X113458499Y-112889445D01*
G37*
G36*
X139302499Y-112294645D02*
G01*
X139339995Y-112306020D01*
X139374554Y-112324492D01*
X139404847Y-112349353D01*
X139429708Y-112379646D01*
X139448180Y-112414205D01*
X139459555Y-112451701D01*
X139464000Y-112496838D01*
X139464000Y-113235562D01*
X139459555Y-113280699D01*
X139448180Y-113318195D01*
X139429708Y-113352754D01*
X139404847Y-113383047D01*
X139374554Y-113407908D01*
X139339995Y-113426380D01*
X139302499Y-113437755D01*
X139257362Y-113442200D01*
X138618638Y-113442200D01*
X138573501Y-113437755D01*
X138536005Y-113426380D01*
X138501446Y-113407908D01*
X138471153Y-113383047D01*
X138446292Y-113352754D01*
X138427820Y-113318195D01*
X138416445Y-113280699D01*
X138412000Y-113235562D01*
X138412000Y-112496838D01*
X138416445Y-112451701D01*
X138427820Y-112414205D01*
X138446292Y-112379646D01*
X138471153Y-112349353D01*
X138501446Y-112324492D01*
X138536005Y-112306020D01*
X138573501Y-112294645D01*
X138618638Y-112290200D01*
X139257362Y-112290200D01*
X139302499Y-112294645D01*
X139302499Y-112294645D01*
G37*
G36*
X142187199Y-110484737D02*
G01*
X142196808Y-110487652D01*
X142205672Y-110492390D01*
X142213437Y-110498763D01*
X142219810Y-110506528D01*
X142224548Y-110515392D01*
X142227463Y-110525001D01*
X142229052Y-110541140D01*
X142229052Y-111678860D01*
X142227463Y-111694999D01*
X142224548Y-111704608D01*
X142219810Y-111713472D01*
X142213437Y-111721237D01*
X142200463Y-111731884D01*
X142191232Y-111738053D01*
X142173906Y-111755381D01*
X142160293Y-111775756D01*
X142150917Y-111798395D01*
X142146137Y-111822428D01*
X142146138Y-111846932D01*
X142150920Y-111870965D01*
X142160298Y-111893604D01*
X142173913Y-111913978D01*
X142191241Y-111931304D01*
X142200517Y-111938175D01*
X142205627Y-111942360D01*
X142213399Y-111948725D01*
X142219781Y-111956484D01*
X142224526Y-111965339D01*
X142224526Y-111965340D01*
X142227442Y-111974915D01*
X142227442Y-111974918D01*
X142227452Y-111974950D01*
X142228447Y-111985000D01*
X142228447Y-111985065D01*
X142229052Y-111991175D01*
X142229052Y-112978860D01*
X142227463Y-112994999D01*
X142224548Y-113004608D01*
X142219810Y-113013472D01*
X142213437Y-113021237D01*
X142205672Y-113027610D01*
X142196808Y-113032348D01*
X142187199Y-113035263D01*
X142171060Y-113036852D01*
X140683340Y-113036852D01*
X140667201Y-113035263D01*
X140657592Y-113032348D01*
X140648728Y-113027610D01*
X140640963Y-113021237D01*
X140634590Y-113013472D01*
X140629852Y-113004608D01*
X140626937Y-112994999D01*
X140625348Y-112978860D01*
X140625348Y-111991140D01*
X140626937Y-111975001D01*
X140629852Y-111965392D01*
X140634590Y-111956528D01*
X140640942Y-111948788D01*
X140640943Y-111948787D01*
X140640963Y-111948763D01*
X140648773Y-111942360D01*
X140648828Y-111942323D01*
X140658347Y-111934520D01*
X140658322Y-111934489D01*
X140672172Y-111923147D01*
X140687737Y-111904221D01*
X140699311Y-111882623D01*
X140706449Y-111859181D01*
X140708876Y-111834798D01*
X140706500Y-111810409D01*
X140699411Y-111786953D01*
X140687882Y-111765330D01*
X140672357Y-111746372D01*
X140653431Y-111730807D01*
X140650375Y-111728971D01*
X140648686Y-111727582D01*
X140648684Y-111727581D01*
X140640925Y-111721199D01*
X140638803Y-111718608D01*
X140634558Y-111713425D01*
X140631409Y-111707517D01*
X140629833Y-111704562D01*
X140626927Y-111694945D01*
X140626918Y-111694915D01*
X140625348Y-111678887D01*
X140625348Y-110541140D01*
X140626937Y-110525001D01*
X140629852Y-110515392D01*
X140634590Y-110506528D01*
X140640963Y-110498763D01*
X140648728Y-110492390D01*
X140657592Y-110487652D01*
X140667201Y-110484737D01*
X140683340Y-110483148D01*
X142171060Y-110483148D01*
X142187199Y-110484737D01*
X142187199Y-110484737D01*
G37*
G36*
X151951699Y-111606245D02*
G01*
X151989195Y-111617620D01*
X152023754Y-111636092D01*
X152054047Y-111660953D01*
X152078908Y-111691246D01*
X152097380Y-111725805D01*
X152108755Y-111763301D01*
X152113200Y-111808438D01*
X152113200Y-112547162D01*
X152108755Y-112592299D01*
X152097380Y-112629795D01*
X152078908Y-112664354D01*
X152054047Y-112694647D01*
X152023754Y-112719508D01*
X151989195Y-112737980D01*
X151951699Y-112749355D01*
X151906562Y-112753800D01*
X151267838Y-112753800D01*
X151222701Y-112749355D01*
X151185205Y-112737980D01*
X151150646Y-112719508D01*
X151120353Y-112694647D01*
X151095492Y-112664354D01*
X151077020Y-112629795D01*
X151065645Y-112592299D01*
X151061200Y-112547162D01*
X151061200Y-111808438D01*
X151065645Y-111763301D01*
X151077020Y-111725805D01*
X151095492Y-111691246D01*
X151120353Y-111660953D01*
X151150646Y-111636092D01*
X151185205Y-111617620D01*
X151222701Y-111606245D01*
X151267838Y-111601800D01*
X151906562Y-111601800D01*
X151951699Y-111606245D01*
X151951699Y-111606245D01*
G37*
G36*
X149106899Y-111555445D02*
G01*
X149144395Y-111566820D01*
X149178954Y-111585292D01*
X149209247Y-111610153D01*
X149234108Y-111640446D01*
X149252580Y-111675005D01*
X149263955Y-111712501D01*
X149268400Y-111757638D01*
X149268400Y-112496362D01*
X149263955Y-112541499D01*
X149252580Y-112578995D01*
X149234108Y-112613554D01*
X149209247Y-112643847D01*
X149178954Y-112668708D01*
X149144395Y-112687180D01*
X149106899Y-112698555D01*
X149061762Y-112703000D01*
X148423038Y-112703000D01*
X148377901Y-112698555D01*
X148340405Y-112687180D01*
X148305846Y-112668708D01*
X148275553Y-112643847D01*
X148250692Y-112613554D01*
X148232220Y-112578995D01*
X148220845Y-112541499D01*
X148216400Y-112496362D01*
X148216400Y-111757638D01*
X148220845Y-111712501D01*
X148232220Y-111675005D01*
X148250692Y-111640446D01*
X148275553Y-111610153D01*
X148305846Y-111585292D01*
X148340405Y-111566820D01*
X148377901Y-111555445D01*
X148423038Y-111551000D01*
X149061762Y-111551000D01*
X149106899Y-111555445D01*
X149106899Y-111555445D01*
G37*
G36*
X155547599Y-110078337D02*
G01*
X155557208Y-110081252D01*
X155566072Y-110085990D01*
X155573837Y-110092363D01*
X155580210Y-110100128D01*
X155584948Y-110108992D01*
X155587863Y-110118601D01*
X155589452Y-110134740D01*
X155589452Y-111272460D01*
X155587863Y-111288599D01*
X155584948Y-111298208D01*
X155580210Y-111307072D01*
X155573837Y-111314837D01*
X155560863Y-111325484D01*
X155551632Y-111331653D01*
X155534306Y-111348981D01*
X155520693Y-111369356D01*
X155511317Y-111391995D01*
X155506537Y-111416028D01*
X155506538Y-111440532D01*
X155511320Y-111464565D01*
X155520698Y-111487204D01*
X155534313Y-111507578D01*
X155551641Y-111524904D01*
X155560917Y-111531775D01*
X155566027Y-111535960D01*
X155573799Y-111542325D01*
X155580181Y-111550084D01*
X155584926Y-111558939D01*
X155584926Y-111558940D01*
X155587842Y-111568515D01*
X155587842Y-111568518D01*
X155587852Y-111568550D01*
X155588847Y-111578600D01*
X155588847Y-111578665D01*
X155589452Y-111584775D01*
X155589452Y-112572460D01*
X155587863Y-112588599D01*
X155584948Y-112598208D01*
X155580210Y-112607072D01*
X155573837Y-112614837D01*
X155566072Y-112621210D01*
X155557208Y-112625948D01*
X155547599Y-112628863D01*
X155531460Y-112630452D01*
X154043740Y-112630452D01*
X154027601Y-112628863D01*
X154017992Y-112625948D01*
X154009128Y-112621210D01*
X154001363Y-112614837D01*
X153994990Y-112607072D01*
X153990252Y-112598208D01*
X153987337Y-112588599D01*
X153985748Y-112572460D01*
X153985748Y-111584740D01*
X153987337Y-111568601D01*
X153990252Y-111558992D01*
X153994990Y-111550128D01*
X154001342Y-111542388D01*
X154001343Y-111542387D01*
X154001363Y-111542363D01*
X154009173Y-111535960D01*
X154009228Y-111535923D01*
X154018747Y-111528120D01*
X154018722Y-111528089D01*
X154032572Y-111516747D01*
X154048137Y-111497821D01*
X154059711Y-111476223D01*
X154066849Y-111452781D01*
X154069276Y-111428398D01*
X154066900Y-111404009D01*
X154059811Y-111380553D01*
X154048282Y-111358930D01*
X154032757Y-111339972D01*
X154013831Y-111324407D01*
X154010775Y-111322571D01*
X154009086Y-111321182D01*
X154009084Y-111321181D01*
X154001325Y-111314799D01*
X153999203Y-111312208D01*
X153994958Y-111307025D01*
X153991809Y-111301117D01*
X153990233Y-111298162D01*
X153987327Y-111288545D01*
X153987318Y-111288515D01*
X153985748Y-111272487D01*
X153985748Y-110134740D01*
X153987337Y-110118601D01*
X153990252Y-110108992D01*
X153994990Y-110100128D01*
X154001363Y-110092363D01*
X154009128Y-110085990D01*
X154017992Y-110081252D01*
X154027601Y-110078337D01*
X154043740Y-110076748D01*
X155531460Y-110076748D01*
X155547599Y-110078337D01*
X155547599Y-110078337D01*
G37*
G36*
X125688099Y-111199845D02*
G01*
X125725595Y-111211220D01*
X125760154Y-111229692D01*
X125790447Y-111254553D01*
X125815308Y-111284846D01*
X125833780Y-111319405D01*
X125845155Y-111356901D01*
X125849600Y-111402038D01*
X125849600Y-112140762D01*
X125845155Y-112185899D01*
X125833780Y-112223395D01*
X125815308Y-112257954D01*
X125790447Y-112288247D01*
X125760154Y-112313108D01*
X125725595Y-112331580D01*
X125688099Y-112342955D01*
X125642962Y-112347400D01*
X125004238Y-112347400D01*
X124959101Y-112342955D01*
X124921605Y-112331580D01*
X124887046Y-112313108D01*
X124856753Y-112288247D01*
X124831892Y-112257954D01*
X124813420Y-112223395D01*
X124802045Y-112185899D01*
X124797600Y-112140762D01*
X124797600Y-111402038D01*
X124802045Y-111356901D01*
X124813420Y-111319405D01*
X124831892Y-111284846D01*
X124856753Y-111254553D01*
X124887046Y-111229692D01*
X124921605Y-111211220D01*
X124959101Y-111199845D01*
X125004238Y-111195400D01*
X125642962Y-111195400D01*
X125688099Y-111199845D01*
X125688099Y-111199845D01*
G37*
G36*
X107933499Y-110539445D02*
G01*
X107970995Y-110550820D01*
X108005554Y-110569292D01*
X108035847Y-110594153D01*
X108060708Y-110624446D01*
X108079180Y-110659005D01*
X108090555Y-110696501D01*
X108095000Y-110741638D01*
X108095000Y-111480362D01*
X108090555Y-111525499D01*
X108079180Y-111562995D01*
X108060708Y-111597554D01*
X108035847Y-111627847D01*
X108005554Y-111652708D01*
X107970995Y-111671180D01*
X107933499Y-111682555D01*
X107888362Y-111687000D01*
X107249638Y-111687000D01*
X107204501Y-111682555D01*
X107167005Y-111671180D01*
X107132446Y-111652708D01*
X107102153Y-111627847D01*
X107077292Y-111597554D01*
X107058820Y-111562995D01*
X107047445Y-111525499D01*
X107043000Y-111480362D01*
X107043000Y-110741638D01*
X107047445Y-110696501D01*
X107058820Y-110659005D01*
X107077292Y-110624446D01*
X107102153Y-110594153D01*
X107132446Y-110569292D01*
X107167005Y-110550820D01*
X107204501Y-110539445D01*
X107249638Y-110535000D01*
X107888362Y-110535000D01*
X107933499Y-110539445D01*
X107933499Y-110539445D01*
G37*
G36*
X104950799Y-109062337D02*
G01*
X104960408Y-109065252D01*
X104969272Y-109069990D01*
X104977037Y-109076363D01*
X104983410Y-109084128D01*
X104988148Y-109092992D01*
X104991063Y-109102601D01*
X104992652Y-109118740D01*
X104992652Y-110256460D01*
X104991063Y-110272599D01*
X104988148Y-110282208D01*
X104983410Y-110291072D01*
X104977037Y-110298837D01*
X104964063Y-110309484D01*
X104954832Y-110315653D01*
X104937506Y-110332981D01*
X104923893Y-110353356D01*
X104914517Y-110375995D01*
X104909737Y-110400028D01*
X104909738Y-110424532D01*
X104914520Y-110448565D01*
X104923898Y-110471204D01*
X104937513Y-110491578D01*
X104954841Y-110508904D01*
X104964117Y-110515775D01*
X104969227Y-110519960D01*
X104976999Y-110526325D01*
X104983381Y-110534084D01*
X104988126Y-110542939D01*
X104988126Y-110542940D01*
X104991042Y-110552515D01*
X104991042Y-110552518D01*
X104991052Y-110552550D01*
X104992047Y-110562600D01*
X104992047Y-110562665D01*
X104992652Y-110568775D01*
X104992652Y-111556460D01*
X104991063Y-111572599D01*
X104988148Y-111582208D01*
X104983410Y-111591072D01*
X104977037Y-111598837D01*
X104969272Y-111605210D01*
X104960408Y-111609948D01*
X104950799Y-111612863D01*
X104934660Y-111614452D01*
X103446940Y-111614452D01*
X103430801Y-111612863D01*
X103421192Y-111609948D01*
X103412328Y-111605210D01*
X103404563Y-111598837D01*
X103398190Y-111591072D01*
X103393452Y-111582208D01*
X103390537Y-111572599D01*
X103388948Y-111556460D01*
X103388948Y-110568740D01*
X103390537Y-110552601D01*
X103393452Y-110542992D01*
X103398190Y-110534128D01*
X103404542Y-110526388D01*
X103404543Y-110526387D01*
X103404563Y-110526363D01*
X103412373Y-110519960D01*
X103412428Y-110519923D01*
X103421947Y-110512120D01*
X103421922Y-110512089D01*
X103435772Y-110500747D01*
X103451337Y-110481821D01*
X103462911Y-110460223D01*
X103470049Y-110436781D01*
X103472476Y-110412398D01*
X103470100Y-110388009D01*
X103463011Y-110364553D01*
X103451482Y-110342930D01*
X103435957Y-110323972D01*
X103417031Y-110308407D01*
X103413975Y-110306571D01*
X103412286Y-110305182D01*
X103412284Y-110305181D01*
X103404525Y-110298799D01*
X103402403Y-110296208D01*
X103398158Y-110291025D01*
X103395009Y-110285117D01*
X103393433Y-110282162D01*
X103390527Y-110272545D01*
X103390518Y-110272515D01*
X103388948Y-110256487D01*
X103388948Y-109118740D01*
X103390537Y-109102601D01*
X103393452Y-109092992D01*
X103398190Y-109084128D01*
X103404563Y-109076363D01*
X103412328Y-109069990D01*
X103421192Y-109065252D01*
X103430801Y-109062337D01*
X103446940Y-109060748D01*
X104934660Y-109060748D01*
X104950799Y-109062337D01*
X104950799Y-109062337D01*
G37*
G36*
X151951699Y-109856245D02*
G01*
X151989195Y-109867620D01*
X152023754Y-109886092D01*
X152054047Y-109910953D01*
X152078908Y-109941246D01*
X152097380Y-109975805D01*
X152108755Y-110013301D01*
X152113200Y-110058438D01*
X152113200Y-110797162D01*
X152108755Y-110842299D01*
X152097380Y-110879795D01*
X152078908Y-110914354D01*
X152054047Y-110944647D01*
X152023754Y-110969508D01*
X151989195Y-110987980D01*
X151951699Y-110999355D01*
X151906562Y-111003800D01*
X151267838Y-111003800D01*
X151222701Y-110999355D01*
X151185205Y-110987980D01*
X151150646Y-110969508D01*
X151120353Y-110944647D01*
X151095492Y-110914354D01*
X151077020Y-110879795D01*
X151065645Y-110842299D01*
X151061200Y-110797162D01*
X151061200Y-110058438D01*
X151065645Y-110013301D01*
X151077020Y-109975805D01*
X151095492Y-109941246D01*
X151120353Y-109910953D01*
X151150646Y-109886092D01*
X151185205Y-109867620D01*
X151222701Y-109856245D01*
X151267838Y-109851800D01*
X151906562Y-109851800D01*
X151951699Y-109856245D01*
X151951699Y-109856245D01*
G37*
G36*
X149106899Y-109805445D02*
G01*
X149144395Y-109816820D01*
X149178954Y-109835292D01*
X149209247Y-109860153D01*
X149234108Y-109890446D01*
X149252580Y-109925005D01*
X149263955Y-109962501D01*
X149268400Y-110007638D01*
X149268400Y-110746362D01*
X149263955Y-110791499D01*
X149252580Y-110828995D01*
X149234108Y-110863554D01*
X149209247Y-110893847D01*
X149178954Y-110918708D01*
X149144395Y-110937180D01*
X149106899Y-110948555D01*
X149061762Y-110953000D01*
X148423038Y-110953000D01*
X148377901Y-110948555D01*
X148340405Y-110937180D01*
X148305846Y-110918708D01*
X148275553Y-110893847D01*
X148250692Y-110863554D01*
X148232220Y-110828995D01*
X148220845Y-110791499D01*
X148216400Y-110746362D01*
X148216400Y-110007638D01*
X148220845Y-109962501D01*
X148232220Y-109925005D01*
X148250692Y-109890446D01*
X148275553Y-109860153D01*
X148305846Y-109835292D01*
X148340405Y-109816820D01*
X148377901Y-109805445D01*
X148423038Y-109801000D01*
X149061762Y-109801000D01*
X149106899Y-109805445D01*
X149106899Y-109805445D01*
G37*
G36*
X125688099Y-109449845D02*
G01*
X125725595Y-109461220D01*
X125760154Y-109479692D01*
X125790447Y-109504553D01*
X125815308Y-109534846D01*
X125833780Y-109569405D01*
X125845155Y-109606901D01*
X125849600Y-109652038D01*
X125849600Y-110390762D01*
X125845155Y-110435899D01*
X125833780Y-110473395D01*
X125815308Y-110507954D01*
X125790447Y-110538247D01*
X125760154Y-110563108D01*
X125725595Y-110581580D01*
X125688099Y-110592955D01*
X125642962Y-110597400D01*
X125004238Y-110597400D01*
X124959101Y-110592955D01*
X124921605Y-110581580D01*
X124887046Y-110563108D01*
X124856753Y-110538247D01*
X124831892Y-110507954D01*
X124813420Y-110473395D01*
X124802045Y-110435899D01*
X124797600Y-110390762D01*
X124797600Y-109652038D01*
X124802045Y-109606901D01*
X124813420Y-109569405D01*
X124831892Y-109534846D01*
X124856753Y-109504553D01*
X124887046Y-109479692D01*
X124921605Y-109461220D01*
X124959101Y-109449845D01*
X125004238Y-109445400D01*
X125642962Y-109445400D01*
X125688099Y-109449845D01*
X125688099Y-109449845D01*
G37*
G36*
X159368499Y-109269445D02*
G01*
X159405995Y-109280820D01*
X159440554Y-109299292D01*
X159470847Y-109324153D01*
X159495708Y-109354446D01*
X159514180Y-109389005D01*
X159525555Y-109426501D01*
X159530000Y-109471638D01*
X159530000Y-110210362D01*
X159525555Y-110255499D01*
X159514180Y-110292995D01*
X159495708Y-110327554D01*
X159470847Y-110357847D01*
X159440554Y-110382708D01*
X159405995Y-110401180D01*
X159368499Y-110412555D01*
X159323362Y-110417000D01*
X158684638Y-110417000D01*
X158639501Y-110412555D01*
X158602005Y-110401180D01*
X158567446Y-110382708D01*
X158537153Y-110357847D01*
X158512292Y-110327554D01*
X158493820Y-110292995D01*
X158482445Y-110255499D01*
X158478000Y-110210362D01*
X158478000Y-109471638D01*
X158482445Y-109426501D01*
X158493820Y-109389005D01*
X158512292Y-109354446D01*
X158537153Y-109324153D01*
X158567446Y-109299292D01*
X158602005Y-109280820D01*
X158639501Y-109269445D01*
X158684638Y-109265000D01*
X159323362Y-109265000D01*
X159368499Y-109269445D01*
X159368499Y-109269445D01*
G37*
G36*
X138029928Y-109506764D02*
G01*
X138051009Y-109513160D01*
X138070445Y-109523548D01*
X138087476Y-109537524D01*
X138101452Y-109554555D01*
X138111840Y-109573991D01*
X138118236Y-109595072D01*
X138121000Y-109623140D01*
X138121000Y-110086860D01*
X138118236Y-110114928D01*
X138111840Y-110136009D01*
X138101452Y-110155445D01*
X138087476Y-110172476D01*
X138070445Y-110186452D01*
X138051009Y-110196840D01*
X138029928Y-110203236D01*
X138001860Y-110206000D01*
X136188140Y-110206000D01*
X136160072Y-110203236D01*
X136138991Y-110196840D01*
X136119555Y-110186452D01*
X136102524Y-110172476D01*
X136088548Y-110155445D01*
X136078160Y-110136009D01*
X136071764Y-110114928D01*
X136069000Y-110086860D01*
X136069000Y-109623140D01*
X136071764Y-109595072D01*
X136078160Y-109573991D01*
X136088548Y-109554555D01*
X136102524Y-109537524D01*
X136119555Y-109523548D01*
X136138991Y-109513160D01*
X136160072Y-109506764D01*
X136188140Y-109504000D01*
X138001860Y-109504000D01*
X138029928Y-109506764D01*
X138029928Y-109506764D01*
G37*
G36*
X133079928Y-109506764D02*
G01*
X133101009Y-109513160D01*
X133120445Y-109523548D01*
X133137476Y-109537524D01*
X133151452Y-109554555D01*
X133161840Y-109573991D01*
X133168236Y-109595072D01*
X133171000Y-109623140D01*
X133171000Y-110086860D01*
X133168236Y-110114928D01*
X133161840Y-110136009D01*
X133151452Y-110155445D01*
X133137476Y-110172476D01*
X133120445Y-110186452D01*
X133101009Y-110196840D01*
X133079928Y-110203236D01*
X133051860Y-110206000D01*
X131238140Y-110206000D01*
X131210072Y-110203236D01*
X131188991Y-110196840D01*
X131169555Y-110186452D01*
X131152524Y-110172476D01*
X131138548Y-110155445D01*
X131128160Y-110136009D01*
X131121764Y-110114928D01*
X131119000Y-110086860D01*
X131119000Y-109623140D01*
X131121764Y-109595072D01*
X131128160Y-109573991D01*
X131138548Y-109554555D01*
X131152524Y-109537524D01*
X131169555Y-109523548D01*
X131188991Y-109513160D01*
X131210072Y-109506764D01*
X131238140Y-109504000D01*
X133051860Y-109504000D01*
X133079928Y-109506764D01*
X133079928Y-109506764D01*
G37*
G36*
X119935499Y-109155645D02*
G01*
X119972995Y-109167020D01*
X120007554Y-109185492D01*
X120037847Y-109210353D01*
X120062708Y-109240646D01*
X120081180Y-109275205D01*
X120092555Y-109312701D01*
X120097000Y-109357838D01*
X120097000Y-109996562D01*
X120092555Y-110041699D01*
X120081180Y-110079195D01*
X120062708Y-110113754D01*
X120037847Y-110144047D01*
X120007554Y-110168908D01*
X119972995Y-110187380D01*
X119935499Y-110198755D01*
X119890362Y-110203200D01*
X119151638Y-110203200D01*
X119106501Y-110198755D01*
X119069005Y-110187380D01*
X119034446Y-110168908D01*
X119004153Y-110144047D01*
X118979292Y-110113754D01*
X118960820Y-110079195D01*
X118949445Y-110041699D01*
X118945000Y-109996562D01*
X118945000Y-109357838D01*
X118949445Y-109312701D01*
X118960820Y-109275205D01*
X118979292Y-109240646D01*
X119004153Y-109210353D01*
X119034446Y-109185492D01*
X119069005Y-109167020D01*
X119106501Y-109155645D01*
X119151638Y-109151200D01*
X119890362Y-109151200D01*
X119935499Y-109155645D01*
X119935499Y-109155645D01*
G37*
G36*
X121685499Y-109155645D02*
G01*
X121722995Y-109167020D01*
X121757554Y-109185492D01*
X121787847Y-109210353D01*
X121812708Y-109240646D01*
X121831180Y-109275205D01*
X121842555Y-109312701D01*
X121847000Y-109357838D01*
X121847000Y-109996562D01*
X121842555Y-110041699D01*
X121831180Y-110079195D01*
X121812708Y-110113754D01*
X121787847Y-110144047D01*
X121757554Y-110168908D01*
X121722995Y-110187380D01*
X121685499Y-110198755D01*
X121640362Y-110203200D01*
X120901638Y-110203200D01*
X120856501Y-110198755D01*
X120819005Y-110187380D01*
X120784446Y-110168908D01*
X120754153Y-110144047D01*
X120729292Y-110113754D01*
X120710820Y-110079195D01*
X120699445Y-110041699D01*
X120695000Y-109996562D01*
X120695000Y-109357838D01*
X120699445Y-109312701D01*
X120710820Y-109275205D01*
X120729292Y-109240646D01*
X120754153Y-109210353D01*
X120784446Y-109185492D01*
X120819005Y-109167020D01*
X120856501Y-109155645D01*
X120901638Y-109151200D01*
X121640362Y-109151200D01*
X121685499Y-109155645D01*
X121685499Y-109155645D01*
G37*
G36*
X107933499Y-108789445D02*
G01*
X107970995Y-108800820D01*
X108005554Y-108819292D01*
X108035847Y-108844153D01*
X108060708Y-108874446D01*
X108079180Y-108909005D01*
X108090555Y-108946501D01*
X108095000Y-108991638D01*
X108095000Y-109730362D01*
X108090555Y-109775499D01*
X108079180Y-109812995D01*
X108060708Y-109847554D01*
X108035847Y-109877847D01*
X108005554Y-109902708D01*
X107970995Y-109921180D01*
X107933499Y-109932555D01*
X107888362Y-109937000D01*
X107249638Y-109937000D01*
X107204501Y-109932555D01*
X107167005Y-109921180D01*
X107132446Y-109902708D01*
X107102153Y-109877847D01*
X107077292Y-109847554D01*
X107058820Y-109812995D01*
X107047445Y-109775499D01*
X107043000Y-109730362D01*
X107043000Y-108991638D01*
X107047445Y-108946501D01*
X107058820Y-108909005D01*
X107077292Y-108874446D01*
X107102153Y-108844153D01*
X107132446Y-108819292D01*
X107167005Y-108800820D01*
X107204501Y-108789445D01*
X107249638Y-108785000D01*
X107888362Y-108785000D01*
X107933499Y-108789445D01*
X107933499Y-108789445D01*
G37*
G36*
X128685299Y-107948645D02*
G01*
X128722795Y-107960020D01*
X128757354Y-107978492D01*
X128787647Y-108003353D01*
X128812508Y-108033646D01*
X128830980Y-108068205D01*
X128842355Y-108105701D01*
X128846800Y-108150838D01*
X128846800Y-108889562D01*
X128842355Y-108934699D01*
X128830980Y-108972195D01*
X128812508Y-109006754D01*
X128787647Y-109037047D01*
X128757354Y-109061908D01*
X128722795Y-109080380D01*
X128685299Y-109091755D01*
X128640162Y-109096200D01*
X128001438Y-109096200D01*
X127956301Y-109091755D01*
X127918805Y-109080380D01*
X127884246Y-109061908D01*
X127853953Y-109037047D01*
X127829092Y-109006754D01*
X127810620Y-108972195D01*
X127799245Y-108934699D01*
X127794800Y-108889562D01*
X127794800Y-108150838D01*
X127799245Y-108105701D01*
X127810620Y-108068205D01*
X127829092Y-108033646D01*
X127853953Y-108003353D01*
X127884246Y-107978492D01*
X127918805Y-107960020D01*
X127956301Y-107948645D01*
X128001438Y-107944200D01*
X128640162Y-107944200D01*
X128685299Y-107948645D01*
X128685299Y-107948645D01*
G37*
G36*
X133079928Y-108236764D02*
G01*
X133101009Y-108243160D01*
X133120445Y-108253548D01*
X133137476Y-108267524D01*
X133151452Y-108284555D01*
X133161840Y-108303991D01*
X133168236Y-108325072D01*
X133171000Y-108353140D01*
X133171000Y-108816860D01*
X133168236Y-108844928D01*
X133161840Y-108866009D01*
X133151452Y-108885445D01*
X133137476Y-108902476D01*
X133120445Y-108916452D01*
X133101009Y-108926840D01*
X133079928Y-108933236D01*
X133051860Y-108936000D01*
X131238140Y-108936000D01*
X131210072Y-108933236D01*
X131188991Y-108926840D01*
X131169555Y-108916452D01*
X131152524Y-108902476D01*
X131138548Y-108885445D01*
X131128160Y-108866009D01*
X131121764Y-108844928D01*
X131119000Y-108816860D01*
X131119000Y-108353140D01*
X131121764Y-108325072D01*
X131128160Y-108303991D01*
X131138548Y-108284555D01*
X131152524Y-108267524D01*
X131169555Y-108253548D01*
X131188991Y-108243160D01*
X131210072Y-108236764D01*
X131238140Y-108234000D01*
X133051860Y-108234000D01*
X133079928Y-108236764D01*
X133079928Y-108236764D01*
G37*
G36*
X138029928Y-108236764D02*
G01*
X138051009Y-108243160D01*
X138070445Y-108253548D01*
X138087476Y-108267524D01*
X138101452Y-108284555D01*
X138111840Y-108303991D01*
X138118236Y-108325072D01*
X138121000Y-108353140D01*
X138121000Y-108816860D01*
X138118236Y-108844928D01*
X138111840Y-108866009D01*
X138101452Y-108885445D01*
X138087476Y-108902476D01*
X138070445Y-108916452D01*
X138051009Y-108926840D01*
X138029928Y-108933236D01*
X138001860Y-108936000D01*
X136188140Y-108936000D01*
X136160072Y-108933236D01*
X136138991Y-108926840D01*
X136119555Y-108916452D01*
X136102524Y-108902476D01*
X136088548Y-108885445D01*
X136078160Y-108866009D01*
X136071764Y-108844928D01*
X136069000Y-108816860D01*
X136069000Y-108353140D01*
X136071764Y-108325072D01*
X136078160Y-108303991D01*
X136088548Y-108284555D01*
X136102524Y-108267524D01*
X136119555Y-108253548D01*
X136138991Y-108243160D01*
X136160072Y-108236764D01*
X136188140Y-108234000D01*
X138001860Y-108234000D01*
X138029928Y-108236764D01*
X138029928Y-108236764D01*
G37*
G36*
X144611099Y-107694645D02*
G01*
X144648595Y-107706020D01*
X144683154Y-107724492D01*
X144713447Y-107749353D01*
X144738308Y-107779646D01*
X144756780Y-107814205D01*
X144768155Y-107851701D01*
X144772600Y-107896838D01*
X144772600Y-108635562D01*
X144768155Y-108680699D01*
X144756780Y-108718195D01*
X144738308Y-108752754D01*
X144713447Y-108783047D01*
X144683154Y-108807908D01*
X144648595Y-108826380D01*
X144611099Y-108837755D01*
X144565962Y-108842200D01*
X143927238Y-108842200D01*
X143882101Y-108837755D01*
X143844605Y-108826380D01*
X143810046Y-108807908D01*
X143779753Y-108783047D01*
X143754892Y-108752754D01*
X143736420Y-108718195D01*
X143725045Y-108680699D01*
X143720600Y-108635562D01*
X143720600Y-107896838D01*
X143725045Y-107851701D01*
X143736420Y-107814205D01*
X143754892Y-107779646D01*
X143779753Y-107749353D01*
X143810046Y-107724492D01*
X143844605Y-107706020D01*
X143882101Y-107694645D01*
X143927238Y-107690200D01*
X144565962Y-107690200D01*
X144611099Y-107694645D01*
X144611099Y-107694645D01*
G37*
G36*
X142071099Y-107694645D02*
G01*
X142108595Y-107706020D01*
X142143154Y-107724492D01*
X142173447Y-107749353D01*
X142198308Y-107779646D01*
X142216780Y-107814205D01*
X142228155Y-107851701D01*
X142232600Y-107896838D01*
X142232600Y-108635562D01*
X142228155Y-108680699D01*
X142216780Y-108718195D01*
X142198308Y-108752754D01*
X142173447Y-108783047D01*
X142143154Y-108807908D01*
X142108595Y-108826380D01*
X142071099Y-108837755D01*
X142025962Y-108842200D01*
X141387238Y-108842200D01*
X141342101Y-108837755D01*
X141304605Y-108826380D01*
X141270046Y-108807908D01*
X141239753Y-108783047D01*
X141214892Y-108752754D01*
X141196420Y-108718195D01*
X141185045Y-108680699D01*
X141180600Y-108635562D01*
X141180600Y-107896838D01*
X141185045Y-107851701D01*
X141196420Y-107814205D01*
X141214892Y-107779646D01*
X141239753Y-107749353D01*
X141270046Y-107724492D01*
X141304605Y-107706020D01*
X141342101Y-107694645D01*
X141387238Y-107690200D01*
X142025962Y-107690200D01*
X142071099Y-107694645D01*
X142071099Y-107694645D01*
G37*
G36*
X159368499Y-107519445D02*
G01*
X159405995Y-107530820D01*
X159440554Y-107549292D01*
X159470847Y-107574153D01*
X159495708Y-107604446D01*
X159514180Y-107639005D01*
X159525555Y-107676501D01*
X159530000Y-107721638D01*
X159530000Y-108460362D01*
X159525555Y-108505499D01*
X159514180Y-108542995D01*
X159495708Y-108577554D01*
X159470847Y-108607847D01*
X159440554Y-108632708D01*
X159405995Y-108651180D01*
X159368499Y-108662555D01*
X159323362Y-108667000D01*
X158684638Y-108667000D01*
X158639501Y-108662555D01*
X158602005Y-108651180D01*
X158567446Y-108632708D01*
X158537153Y-108607847D01*
X158512292Y-108577554D01*
X158493820Y-108542995D01*
X158482445Y-108505499D01*
X158478000Y-108460362D01*
X158478000Y-107721638D01*
X158482445Y-107676501D01*
X158493820Y-107639005D01*
X158512292Y-107604446D01*
X158537153Y-107574153D01*
X158567446Y-107549292D01*
X158602005Y-107530820D01*
X158639501Y-107519445D01*
X158684638Y-107515000D01*
X159323362Y-107515000D01*
X159368499Y-107519445D01*
X159368499Y-107519445D01*
G37*
G36*
X133079928Y-106966764D02*
G01*
X133101009Y-106973160D01*
X133120445Y-106983548D01*
X133137476Y-106997524D01*
X133151452Y-107014555D01*
X133161840Y-107033991D01*
X133168236Y-107055072D01*
X133171000Y-107083140D01*
X133171000Y-107546860D01*
X133168236Y-107574928D01*
X133161840Y-107596009D01*
X133151452Y-107615445D01*
X133137476Y-107632476D01*
X133120445Y-107646452D01*
X133101009Y-107656840D01*
X133079928Y-107663236D01*
X133051860Y-107666000D01*
X131238140Y-107666000D01*
X131210072Y-107663236D01*
X131188991Y-107656840D01*
X131169555Y-107646452D01*
X131152524Y-107632476D01*
X131138548Y-107615445D01*
X131128160Y-107596009D01*
X131121764Y-107574928D01*
X131119000Y-107546860D01*
X131119000Y-107083140D01*
X131121764Y-107055072D01*
X131128160Y-107033991D01*
X131138548Y-107014555D01*
X131152524Y-106997524D01*
X131169555Y-106983548D01*
X131188991Y-106973160D01*
X131210072Y-106966764D01*
X131238140Y-106964000D01*
X133051860Y-106964000D01*
X133079928Y-106966764D01*
X133079928Y-106966764D01*
G37*
G36*
X138029928Y-106966764D02*
G01*
X138051009Y-106973160D01*
X138070445Y-106983548D01*
X138087476Y-106997524D01*
X138101452Y-107014555D01*
X138111840Y-107033991D01*
X138118236Y-107055072D01*
X138121000Y-107083140D01*
X138121000Y-107546860D01*
X138118236Y-107574928D01*
X138111840Y-107596009D01*
X138101452Y-107615445D01*
X138087476Y-107632476D01*
X138070445Y-107646452D01*
X138051009Y-107656840D01*
X138029928Y-107663236D01*
X138001860Y-107666000D01*
X136188140Y-107666000D01*
X136160072Y-107663236D01*
X136138991Y-107656840D01*
X136119555Y-107646452D01*
X136102524Y-107632476D01*
X136088548Y-107615445D01*
X136078160Y-107596009D01*
X136071764Y-107574928D01*
X136069000Y-107546860D01*
X136069000Y-107083140D01*
X136071764Y-107055072D01*
X136078160Y-107033991D01*
X136088548Y-107014555D01*
X136102524Y-106997524D01*
X136119555Y-106983548D01*
X136138991Y-106973160D01*
X136160072Y-106966764D01*
X136188140Y-106964000D01*
X138001860Y-106964000D01*
X138029928Y-106966764D01*
X138029928Y-106966764D01*
G37*
G36*
X120138699Y-106310845D02*
G01*
X120176195Y-106322220D01*
X120210754Y-106340692D01*
X120241047Y-106365553D01*
X120265908Y-106395846D01*
X120284380Y-106430405D01*
X120295755Y-106467901D01*
X120300200Y-106513038D01*
X120300200Y-107151762D01*
X120295755Y-107196899D01*
X120284380Y-107234395D01*
X120265908Y-107268954D01*
X120241047Y-107299247D01*
X120210754Y-107324108D01*
X120176195Y-107342580D01*
X120138699Y-107353955D01*
X120093562Y-107358400D01*
X119354838Y-107358400D01*
X119309701Y-107353955D01*
X119272205Y-107342580D01*
X119237646Y-107324108D01*
X119207353Y-107299247D01*
X119182492Y-107268954D01*
X119164020Y-107234395D01*
X119152645Y-107196899D01*
X119148200Y-107151762D01*
X119148200Y-106513038D01*
X119152645Y-106467901D01*
X119164020Y-106430405D01*
X119182492Y-106395846D01*
X119207353Y-106365553D01*
X119237646Y-106340692D01*
X119272205Y-106322220D01*
X119309701Y-106310845D01*
X119354838Y-106306400D01*
X120093562Y-106306400D01*
X120138699Y-106310845D01*
X120138699Y-106310845D01*
G37*
G36*
X121888699Y-106310845D02*
G01*
X121926195Y-106322220D01*
X121960754Y-106340692D01*
X121991047Y-106365553D01*
X122015908Y-106395846D01*
X122034380Y-106430405D01*
X122045755Y-106467901D01*
X122050200Y-106513038D01*
X122050200Y-107151762D01*
X122045755Y-107196899D01*
X122034380Y-107234395D01*
X122015908Y-107268954D01*
X121991047Y-107299247D01*
X121960754Y-107324108D01*
X121926195Y-107342580D01*
X121888699Y-107353955D01*
X121843562Y-107358400D01*
X121104838Y-107358400D01*
X121059701Y-107353955D01*
X121022205Y-107342580D01*
X120987646Y-107324108D01*
X120957353Y-107299247D01*
X120932492Y-107268954D01*
X120914020Y-107234395D01*
X120902645Y-107196899D01*
X120898200Y-107151762D01*
X120898200Y-106513038D01*
X120902645Y-106467901D01*
X120914020Y-106430405D01*
X120932492Y-106395846D01*
X120957353Y-106365553D01*
X120987646Y-106340692D01*
X121022205Y-106322220D01*
X121059701Y-106310845D01*
X121104838Y-106306400D01*
X121843562Y-106306400D01*
X121888699Y-106310845D01*
X121888699Y-106310845D01*
G37*
G36*
X128685299Y-106198645D02*
G01*
X128722795Y-106210020D01*
X128757354Y-106228492D01*
X128787647Y-106253353D01*
X128812508Y-106283646D01*
X128830980Y-106318205D01*
X128842355Y-106355701D01*
X128846800Y-106400838D01*
X128846800Y-107139562D01*
X128842355Y-107184699D01*
X128830980Y-107222195D01*
X128812508Y-107256754D01*
X128787647Y-107287047D01*
X128757354Y-107311908D01*
X128722795Y-107330380D01*
X128685299Y-107341755D01*
X128640162Y-107346200D01*
X128001438Y-107346200D01*
X127956301Y-107341755D01*
X127918805Y-107330380D01*
X127884246Y-107311908D01*
X127853953Y-107287047D01*
X127829092Y-107256754D01*
X127810620Y-107222195D01*
X127799245Y-107184699D01*
X127794800Y-107139562D01*
X127794800Y-106400838D01*
X127799245Y-106355701D01*
X127810620Y-106318205D01*
X127829092Y-106283646D01*
X127853953Y-106253353D01*
X127884246Y-106228492D01*
X127918805Y-106210020D01*
X127956301Y-106198645D01*
X128001438Y-106194200D01*
X128640162Y-106194200D01*
X128685299Y-106198645D01*
X128685299Y-106198645D01*
G37*
G36*
X142071099Y-105944645D02*
G01*
X142108595Y-105956020D01*
X142143154Y-105974492D01*
X142173447Y-105999353D01*
X142198308Y-106029646D01*
X142216780Y-106064205D01*
X142228155Y-106101701D01*
X142232600Y-106146838D01*
X142232600Y-106885562D01*
X142228155Y-106930699D01*
X142216780Y-106968195D01*
X142198308Y-107002754D01*
X142173447Y-107033047D01*
X142143154Y-107057908D01*
X142108595Y-107076380D01*
X142071099Y-107087755D01*
X142025962Y-107092200D01*
X141387238Y-107092200D01*
X141342101Y-107087755D01*
X141304605Y-107076380D01*
X141270046Y-107057908D01*
X141239753Y-107033047D01*
X141214892Y-107002754D01*
X141196420Y-106968195D01*
X141185045Y-106930699D01*
X141180600Y-106885562D01*
X141180600Y-106146838D01*
X141185045Y-106101701D01*
X141196420Y-106064205D01*
X141214892Y-106029646D01*
X141239753Y-105999353D01*
X141270046Y-105974492D01*
X141304605Y-105956020D01*
X141342101Y-105944645D01*
X141387238Y-105940200D01*
X142025962Y-105940200D01*
X142071099Y-105944645D01*
X142071099Y-105944645D01*
G37*
G36*
X144611099Y-105944645D02*
G01*
X144648595Y-105956020D01*
X144683154Y-105974492D01*
X144713447Y-105999353D01*
X144738308Y-106029646D01*
X144756780Y-106064205D01*
X144768155Y-106101701D01*
X144772600Y-106146838D01*
X144772600Y-106885562D01*
X144768155Y-106930699D01*
X144756780Y-106968195D01*
X144738308Y-107002754D01*
X144713447Y-107033047D01*
X144683154Y-107057908D01*
X144648595Y-107076380D01*
X144611099Y-107087755D01*
X144565962Y-107092200D01*
X143927238Y-107092200D01*
X143882101Y-107087755D01*
X143844605Y-107076380D01*
X143810046Y-107057908D01*
X143779753Y-107033047D01*
X143754892Y-107002754D01*
X143736420Y-106968195D01*
X143725045Y-106930699D01*
X143720600Y-106885562D01*
X143720600Y-106146838D01*
X143725045Y-106101701D01*
X143736420Y-106064205D01*
X143754892Y-106029646D01*
X143779753Y-105999353D01*
X143810046Y-105974492D01*
X143844605Y-105956020D01*
X143882101Y-105944645D01*
X143927238Y-105940200D01*
X144565962Y-105940200D01*
X144611099Y-105944645D01*
X144611099Y-105944645D01*
G37*
G36*
X133079928Y-105696764D02*
G01*
X133101009Y-105703160D01*
X133120445Y-105713548D01*
X133137476Y-105727524D01*
X133151452Y-105744555D01*
X133161840Y-105763991D01*
X133168236Y-105785072D01*
X133171000Y-105813140D01*
X133171000Y-106276860D01*
X133168236Y-106304928D01*
X133161840Y-106326009D01*
X133151452Y-106345445D01*
X133137476Y-106362476D01*
X133120445Y-106376452D01*
X133101009Y-106386840D01*
X133079928Y-106393236D01*
X133051860Y-106396000D01*
X131238140Y-106396000D01*
X131210072Y-106393236D01*
X131188991Y-106386840D01*
X131169555Y-106376452D01*
X131152524Y-106362476D01*
X131138548Y-106345445D01*
X131128160Y-106326009D01*
X131121764Y-106304928D01*
X131119000Y-106276860D01*
X131119000Y-105813140D01*
X131121764Y-105785072D01*
X131128160Y-105763991D01*
X131138548Y-105744555D01*
X131152524Y-105727524D01*
X131169555Y-105713548D01*
X131188991Y-105703160D01*
X131210072Y-105696764D01*
X131238140Y-105694000D01*
X133051860Y-105694000D01*
X133079928Y-105696764D01*
X133079928Y-105696764D01*
G37*
G36*
X138029928Y-105696764D02*
G01*
X138051009Y-105703160D01*
X138070445Y-105713548D01*
X138087476Y-105727524D01*
X138101452Y-105744555D01*
X138111840Y-105763991D01*
X138118236Y-105785072D01*
X138121000Y-105813140D01*
X138121000Y-106276860D01*
X138118236Y-106304928D01*
X138111840Y-106326009D01*
X138101452Y-106345445D01*
X138087476Y-106362476D01*
X138070445Y-106376452D01*
X138051009Y-106386840D01*
X138029928Y-106393236D01*
X138001860Y-106396000D01*
X136188140Y-106396000D01*
X136160072Y-106393236D01*
X136138991Y-106386840D01*
X136119555Y-106376452D01*
X136102524Y-106362476D01*
X136088548Y-106345445D01*
X136078160Y-106326009D01*
X136071764Y-106304928D01*
X136069000Y-106276860D01*
X136069000Y-105813140D01*
X136071764Y-105785072D01*
X136078160Y-105763991D01*
X136088548Y-105744555D01*
X136102524Y-105727524D01*
X136119555Y-105713548D01*
X136138991Y-105703160D01*
X136160072Y-105696764D01*
X136188140Y-105694000D01*
X138001860Y-105694000D01*
X138029928Y-105696764D01*
X138029928Y-105696764D01*
G37*
G36*
X156686699Y-105345645D02*
G01*
X156724195Y-105357020D01*
X156758754Y-105375492D01*
X156789047Y-105400353D01*
X156813908Y-105430646D01*
X156832380Y-105465205D01*
X156843755Y-105502701D01*
X156848200Y-105547838D01*
X156848200Y-106186562D01*
X156843755Y-106231699D01*
X156832380Y-106269195D01*
X156813908Y-106303754D01*
X156789047Y-106334047D01*
X156758754Y-106358908D01*
X156724195Y-106377380D01*
X156686699Y-106388755D01*
X156641562Y-106393200D01*
X155902838Y-106393200D01*
X155857701Y-106388755D01*
X155820205Y-106377380D01*
X155785646Y-106358908D01*
X155755353Y-106334047D01*
X155730492Y-106303754D01*
X155712020Y-106269195D01*
X155700645Y-106231699D01*
X155696200Y-106186562D01*
X155696200Y-105547838D01*
X155700645Y-105502701D01*
X155712020Y-105465205D01*
X155730492Y-105430646D01*
X155755353Y-105400353D01*
X155785646Y-105375492D01*
X155820205Y-105357020D01*
X155857701Y-105345645D01*
X155902838Y-105341200D01*
X156641562Y-105341200D01*
X156686699Y-105345645D01*
X156686699Y-105345645D01*
G37*
G36*
X154936699Y-105345645D02*
G01*
X154974195Y-105357020D01*
X155008754Y-105375492D01*
X155039047Y-105400353D01*
X155063908Y-105430646D01*
X155082380Y-105465205D01*
X155093755Y-105502701D01*
X155098200Y-105547838D01*
X155098200Y-106186562D01*
X155093755Y-106231699D01*
X155082380Y-106269195D01*
X155063908Y-106303754D01*
X155039047Y-106334047D01*
X155008754Y-106358908D01*
X154974195Y-106377380D01*
X154936699Y-106388755D01*
X154891562Y-106393200D01*
X154152838Y-106393200D01*
X154107701Y-106388755D01*
X154070205Y-106377380D01*
X154035646Y-106358908D01*
X154005353Y-106334047D01*
X153980492Y-106303754D01*
X153962020Y-106269195D01*
X153950645Y-106231699D01*
X153946200Y-106186562D01*
X153946200Y-105547838D01*
X153950645Y-105502701D01*
X153962020Y-105465205D01*
X153980492Y-105430646D01*
X154005353Y-105400353D01*
X154035646Y-105375492D01*
X154070205Y-105357020D01*
X154107701Y-105345645D01*
X154152838Y-105341200D01*
X154891562Y-105341200D01*
X154936699Y-105345645D01*
X154936699Y-105345645D01*
G37*
G36*
X149157699Y-105205445D02*
G01*
X149195195Y-105216820D01*
X149229754Y-105235292D01*
X149260047Y-105260153D01*
X149284908Y-105290446D01*
X149303380Y-105325005D01*
X149314755Y-105362501D01*
X149319200Y-105407638D01*
X149319200Y-106146362D01*
X149314755Y-106191499D01*
X149303380Y-106228995D01*
X149284908Y-106263554D01*
X149260047Y-106293847D01*
X149229754Y-106318708D01*
X149195195Y-106337180D01*
X149157699Y-106348555D01*
X149112562Y-106353000D01*
X148473838Y-106353000D01*
X148428701Y-106348555D01*
X148391205Y-106337180D01*
X148356646Y-106318708D01*
X148326353Y-106293847D01*
X148301492Y-106263554D01*
X148283020Y-106228995D01*
X148271645Y-106191499D01*
X148267200Y-106146362D01*
X148267200Y-105407638D01*
X148271645Y-105362501D01*
X148283020Y-105325005D01*
X148301492Y-105290446D01*
X148326353Y-105260153D01*
X148356646Y-105235292D01*
X148391205Y-105216820D01*
X148428701Y-105205445D01*
X148473838Y-105201000D01*
X149112562Y-105201000D01*
X149157699Y-105205445D01*
X149157699Y-105205445D01*
G37*
G36*
X107588499Y-105269445D02*
G01*
X107625995Y-105280820D01*
X107660554Y-105299292D01*
X107690847Y-105324153D01*
X107715708Y-105354446D01*
X107734180Y-105389005D01*
X107745555Y-105426501D01*
X107750000Y-105471638D01*
X107750000Y-106110362D01*
X107745555Y-106155499D01*
X107734180Y-106192995D01*
X107715708Y-106227554D01*
X107690847Y-106257847D01*
X107660554Y-106282708D01*
X107625995Y-106301180D01*
X107588499Y-106312555D01*
X107543362Y-106317000D01*
X106804638Y-106317000D01*
X106759501Y-106312555D01*
X106722005Y-106301180D01*
X106687446Y-106282708D01*
X106657153Y-106257847D01*
X106632292Y-106227554D01*
X106613820Y-106192995D01*
X106602445Y-106155499D01*
X106598000Y-106110362D01*
X106598000Y-105471638D01*
X106602445Y-105426501D01*
X106613820Y-105389005D01*
X106632292Y-105354446D01*
X106657153Y-105324153D01*
X106687446Y-105299292D01*
X106722005Y-105280820D01*
X106759501Y-105269445D01*
X106804638Y-105265000D01*
X107543362Y-105265000D01*
X107588499Y-105269445D01*
X107588499Y-105269445D01*
G37*
G36*
X105838499Y-105269445D02*
G01*
X105875995Y-105280820D01*
X105910554Y-105299292D01*
X105940847Y-105324153D01*
X105965708Y-105354446D01*
X105984180Y-105389005D01*
X105995555Y-105426501D01*
X106000000Y-105471638D01*
X106000000Y-106110362D01*
X105995555Y-106155499D01*
X105984180Y-106192995D01*
X105965708Y-106227554D01*
X105940847Y-106257847D01*
X105910554Y-106282708D01*
X105875995Y-106301180D01*
X105838499Y-106312555D01*
X105793362Y-106317000D01*
X105054638Y-106317000D01*
X105009501Y-106312555D01*
X104972005Y-106301180D01*
X104937446Y-106282708D01*
X104907153Y-106257847D01*
X104882292Y-106227554D01*
X104863820Y-106192995D01*
X104852445Y-106155499D01*
X104848000Y-106110362D01*
X104848000Y-105471638D01*
X104852445Y-105426501D01*
X104863820Y-105389005D01*
X104882292Y-105354446D01*
X104907153Y-105324153D01*
X104937446Y-105299292D01*
X104972005Y-105280820D01*
X105009501Y-105269445D01*
X105054638Y-105265000D01*
X105793362Y-105265000D01*
X105838499Y-105269445D01*
X105838499Y-105269445D01*
G37*
G36*
X147165599Y-103626737D02*
G01*
X147175208Y-103629652D01*
X147184072Y-103634390D01*
X147191837Y-103640763D01*
X147198210Y-103648528D01*
X147202948Y-103657392D01*
X147205863Y-103667001D01*
X147207452Y-103683140D01*
X147207452Y-104820860D01*
X147205863Y-104836999D01*
X147202948Y-104846608D01*
X147198210Y-104855472D01*
X147191837Y-104863237D01*
X147178863Y-104873884D01*
X147169632Y-104880053D01*
X147152306Y-104897381D01*
X147138693Y-104917756D01*
X147129317Y-104940395D01*
X147124537Y-104964428D01*
X147124538Y-104988932D01*
X147129320Y-105012965D01*
X147138698Y-105035604D01*
X147152313Y-105055978D01*
X147169641Y-105073304D01*
X147178917Y-105080175D01*
X147184027Y-105084360D01*
X147191799Y-105090725D01*
X147198181Y-105098484D01*
X147202926Y-105107339D01*
X147202926Y-105107340D01*
X147205842Y-105116915D01*
X147205842Y-105116918D01*
X147205852Y-105116950D01*
X147206847Y-105127000D01*
X147206847Y-105127065D01*
X147207452Y-105133175D01*
X147207452Y-106120860D01*
X147205863Y-106136999D01*
X147202948Y-106146608D01*
X147198210Y-106155472D01*
X147191837Y-106163237D01*
X147184072Y-106169610D01*
X147175208Y-106174348D01*
X147165599Y-106177263D01*
X147149460Y-106178852D01*
X145661740Y-106178852D01*
X145645601Y-106177263D01*
X145635992Y-106174348D01*
X145627128Y-106169610D01*
X145619363Y-106163237D01*
X145612990Y-106155472D01*
X145608252Y-106146608D01*
X145605337Y-106136999D01*
X145603748Y-106120860D01*
X145603748Y-105133140D01*
X145605337Y-105117001D01*
X145608252Y-105107392D01*
X145612990Y-105098528D01*
X145619342Y-105090788D01*
X145619343Y-105090787D01*
X145619363Y-105090763D01*
X145627173Y-105084360D01*
X145627228Y-105084323D01*
X145636747Y-105076520D01*
X145636722Y-105076489D01*
X145650572Y-105065147D01*
X145666137Y-105046221D01*
X145677711Y-105024623D01*
X145684849Y-105001181D01*
X145687276Y-104976798D01*
X145684900Y-104952409D01*
X145677811Y-104928953D01*
X145666282Y-104907330D01*
X145650757Y-104888372D01*
X145631831Y-104872807D01*
X145628775Y-104870971D01*
X145627086Y-104869582D01*
X145627084Y-104869581D01*
X145619325Y-104863199D01*
X145617203Y-104860608D01*
X145612958Y-104855425D01*
X145609809Y-104849517D01*
X145608233Y-104846562D01*
X145605327Y-104836945D01*
X145605318Y-104836915D01*
X145603748Y-104820887D01*
X145603748Y-103683140D01*
X145605337Y-103667001D01*
X145608252Y-103657392D01*
X145612990Y-103648528D01*
X145619363Y-103640763D01*
X145627128Y-103634390D01*
X145635992Y-103629652D01*
X145645601Y-103626737D01*
X145661740Y-103625148D01*
X147149460Y-103625148D01*
X147165599Y-103626737D01*
X147165599Y-103626737D01*
G37*
G36*
X124397399Y-103390537D02*
G01*
X124407008Y-103393452D01*
X124415872Y-103398190D01*
X124423612Y-103404542D01*
X124423613Y-103404543D01*
X124423637Y-103404563D01*
X124430040Y-103412373D01*
X124430077Y-103412428D01*
X124437880Y-103421947D01*
X124437911Y-103421922D01*
X124449253Y-103435772D01*
X124468179Y-103451337D01*
X124489777Y-103462911D01*
X124513219Y-103470049D01*
X124537602Y-103472476D01*
X124561991Y-103470100D01*
X124585447Y-103463011D01*
X124607070Y-103451482D01*
X124626028Y-103435957D01*
X124641593Y-103417031D01*
X124643429Y-103413975D01*
X124644818Y-103412286D01*
X124644819Y-103412284D01*
X124651201Y-103404525D01*
X124658973Y-103398160D01*
X124658975Y-103398158D01*
X124667799Y-103393454D01*
X124667838Y-103393433D01*
X124677455Y-103390527D01*
X124677485Y-103390518D01*
X124693513Y-103388948D01*
X125831260Y-103388948D01*
X125847399Y-103390537D01*
X125857008Y-103393452D01*
X125865872Y-103398190D01*
X125873637Y-103404563D01*
X125880010Y-103412328D01*
X125884748Y-103421192D01*
X125887663Y-103430801D01*
X125889252Y-103446940D01*
X125889252Y-104934660D01*
X125887663Y-104950799D01*
X125884748Y-104960408D01*
X125880010Y-104969272D01*
X125873637Y-104977037D01*
X125865872Y-104983410D01*
X125857008Y-104988148D01*
X125847399Y-104991063D01*
X125831260Y-104992652D01*
X124693540Y-104992652D01*
X124677401Y-104991063D01*
X124667792Y-104988148D01*
X124658928Y-104983410D01*
X124651163Y-104977037D01*
X124640516Y-104964063D01*
X124634347Y-104954832D01*
X124617019Y-104937506D01*
X124596644Y-104923893D01*
X124574005Y-104914517D01*
X124549972Y-104909737D01*
X124525468Y-104909738D01*
X124501435Y-104914520D01*
X124478796Y-104923898D01*
X124458422Y-104937513D01*
X124441096Y-104954841D01*
X124434225Y-104964117D01*
X124430040Y-104969227D01*
X124423675Y-104976999D01*
X124415916Y-104983381D01*
X124407061Y-104988126D01*
X124404023Y-104989051D01*
X124397485Y-104991042D01*
X124397482Y-104991042D01*
X124397450Y-104991052D01*
X124387400Y-104992047D01*
X124387335Y-104992047D01*
X124381225Y-104992652D01*
X123393540Y-104992652D01*
X123377401Y-104991063D01*
X123367792Y-104988148D01*
X123358928Y-104983410D01*
X123351163Y-104977037D01*
X123344790Y-104969272D01*
X123340052Y-104960408D01*
X123337137Y-104950799D01*
X123335548Y-104934660D01*
X123335548Y-103446940D01*
X123337137Y-103430801D01*
X123340052Y-103421192D01*
X123344790Y-103412328D01*
X123351163Y-103404563D01*
X123358928Y-103398190D01*
X123367792Y-103393452D01*
X123377401Y-103390537D01*
X123393540Y-103388948D01*
X124381260Y-103388948D01*
X124397399Y-103390537D01*
X124397399Y-103390537D01*
G37*
G36*
X120189499Y-103618445D02*
G01*
X120226995Y-103629820D01*
X120261554Y-103648292D01*
X120291847Y-103673153D01*
X120316708Y-103703446D01*
X120335180Y-103738005D01*
X120346555Y-103775501D01*
X120351000Y-103820638D01*
X120351000Y-104459362D01*
X120346555Y-104504499D01*
X120335180Y-104541995D01*
X120316708Y-104576554D01*
X120291847Y-104606847D01*
X120261554Y-104631708D01*
X120226995Y-104650180D01*
X120189499Y-104661555D01*
X120144362Y-104666000D01*
X119405638Y-104666000D01*
X119360501Y-104661555D01*
X119323005Y-104650180D01*
X119288446Y-104631708D01*
X119258153Y-104606847D01*
X119233292Y-104576554D01*
X119214820Y-104541995D01*
X119203445Y-104504499D01*
X119199000Y-104459362D01*
X119199000Y-103820638D01*
X119203445Y-103775501D01*
X119214820Y-103738005D01*
X119233292Y-103703446D01*
X119258153Y-103673153D01*
X119288446Y-103648292D01*
X119323005Y-103629820D01*
X119360501Y-103618445D01*
X119405638Y-103614000D01*
X120144362Y-103614000D01*
X120189499Y-103618445D01*
X120189499Y-103618445D01*
G37*
G36*
X121939499Y-103618445D02*
G01*
X121976995Y-103629820D01*
X122011554Y-103648292D01*
X122041847Y-103673153D01*
X122066708Y-103703446D01*
X122085180Y-103738005D01*
X122096555Y-103775501D01*
X122101000Y-103820638D01*
X122101000Y-104459362D01*
X122096555Y-104504499D01*
X122085180Y-104541995D01*
X122066708Y-104576554D01*
X122041847Y-104606847D01*
X122011554Y-104631708D01*
X121976995Y-104650180D01*
X121939499Y-104661555D01*
X121894362Y-104666000D01*
X121155638Y-104666000D01*
X121110501Y-104661555D01*
X121073005Y-104650180D01*
X121038446Y-104631708D01*
X121008153Y-104606847D01*
X120983292Y-104576554D01*
X120964820Y-104541995D01*
X120953445Y-104504499D01*
X120949000Y-104459362D01*
X120949000Y-103820638D01*
X120953445Y-103775501D01*
X120964820Y-103738005D01*
X120983292Y-103703446D01*
X121008153Y-103673153D01*
X121038446Y-103648292D01*
X121073005Y-103629820D01*
X121110501Y-103618445D01*
X121155638Y-103614000D01*
X121894362Y-103614000D01*
X121939499Y-103618445D01*
X121939499Y-103618445D01*
G37*
G36*
X149157699Y-103455445D02*
G01*
X149195195Y-103466820D01*
X149229754Y-103485292D01*
X149260047Y-103510153D01*
X149284908Y-103540446D01*
X149303380Y-103575005D01*
X149314755Y-103612501D01*
X149319200Y-103657638D01*
X149319200Y-104396362D01*
X149314755Y-104441499D01*
X149303380Y-104478995D01*
X149284908Y-104513554D01*
X149260047Y-104543847D01*
X149229754Y-104568708D01*
X149195195Y-104587180D01*
X149157699Y-104598555D01*
X149112562Y-104603000D01*
X148473838Y-104603000D01*
X148428701Y-104598555D01*
X148391205Y-104587180D01*
X148356646Y-104568708D01*
X148326353Y-104543847D01*
X148301492Y-104513554D01*
X148283020Y-104478995D01*
X148271645Y-104441499D01*
X148267200Y-104396362D01*
X148267200Y-103657638D01*
X148271645Y-103612501D01*
X148283020Y-103575005D01*
X148301492Y-103540446D01*
X148326353Y-103510153D01*
X148356646Y-103485292D01*
X148391205Y-103466820D01*
X148428701Y-103455445D01*
X148473838Y-103451000D01*
X149112562Y-103451000D01*
X149157699Y-103455445D01*
X149157699Y-103455445D01*
G37*
G36*
X101173242Y-102912581D02*
G01*
X101319014Y-102972962D01*
X101319016Y-102972963D01*
X101450208Y-103060622D01*
X101561778Y-103172192D01*
X101626894Y-103269646D01*
X101649438Y-103303386D01*
X101709819Y-103449158D01*
X101740600Y-103603907D01*
X101740600Y-103761693D01*
X101709819Y-103916442D01*
X101649438Y-104062214D01*
X101649437Y-104062216D01*
X101561778Y-104193408D01*
X101450208Y-104304978D01*
X101319016Y-104392637D01*
X101319015Y-104392638D01*
X101319014Y-104392638D01*
X101173242Y-104453019D01*
X101018493Y-104483800D01*
X100860707Y-104483800D01*
X100705958Y-104453019D01*
X100560186Y-104392638D01*
X100560185Y-104392638D01*
X100560184Y-104392637D01*
X100428992Y-104304978D01*
X100317422Y-104193408D01*
X100229763Y-104062216D01*
X100229762Y-104062214D01*
X100169381Y-103916442D01*
X100138600Y-103761693D01*
X100138600Y-103603907D01*
X100169381Y-103449158D01*
X100229762Y-103303386D01*
X100252306Y-103269646D01*
X100317422Y-103172192D01*
X100428992Y-103060622D01*
X100560184Y-102972963D01*
X100560186Y-102972962D01*
X100705958Y-102912581D01*
X100860707Y-102881800D01*
X101018493Y-102881800D01*
X101173242Y-102912581D01*
X101173242Y-102912581D01*
G37*
G36*
X106109399Y-102577737D02*
G01*
X106119008Y-102580652D01*
X106127872Y-102585390D01*
X106135612Y-102591742D01*
X106135613Y-102591743D01*
X106135637Y-102591763D01*
X106142040Y-102599573D01*
X106142077Y-102599628D01*
X106149880Y-102609147D01*
X106149911Y-102609122D01*
X106161253Y-102622972D01*
X106180179Y-102638537D01*
X106201777Y-102650111D01*
X106225219Y-102657249D01*
X106249602Y-102659676D01*
X106273991Y-102657300D01*
X106297447Y-102650211D01*
X106319070Y-102638682D01*
X106338028Y-102623157D01*
X106353593Y-102604231D01*
X106355429Y-102601175D01*
X106356818Y-102599486D01*
X106356819Y-102599484D01*
X106363201Y-102591725D01*
X106370973Y-102585360D01*
X106370975Y-102585358D01*
X106379799Y-102580654D01*
X106379838Y-102580633D01*
X106389455Y-102577727D01*
X106389485Y-102577718D01*
X106405513Y-102576148D01*
X107543260Y-102576148D01*
X107559399Y-102577737D01*
X107569008Y-102580652D01*
X107577872Y-102585390D01*
X107585637Y-102591763D01*
X107592010Y-102599528D01*
X107596748Y-102608392D01*
X107599663Y-102618001D01*
X107601252Y-102634140D01*
X107601252Y-104121860D01*
X107599663Y-104137999D01*
X107596748Y-104147608D01*
X107592010Y-104156472D01*
X107585637Y-104164237D01*
X107577872Y-104170610D01*
X107569008Y-104175348D01*
X107559399Y-104178263D01*
X107543260Y-104179852D01*
X106405540Y-104179852D01*
X106389401Y-104178263D01*
X106379792Y-104175348D01*
X106370928Y-104170610D01*
X106363163Y-104164237D01*
X106352516Y-104151263D01*
X106346347Y-104142032D01*
X106329019Y-104124706D01*
X106308644Y-104111093D01*
X106286005Y-104101717D01*
X106261972Y-104096937D01*
X106237468Y-104096938D01*
X106213435Y-104101720D01*
X106190796Y-104111098D01*
X106170422Y-104124713D01*
X106153096Y-104142041D01*
X106146225Y-104151317D01*
X106142040Y-104156427D01*
X106135675Y-104164199D01*
X106127916Y-104170581D01*
X106119061Y-104175326D01*
X106116023Y-104176251D01*
X106109485Y-104178242D01*
X106109482Y-104178242D01*
X106109450Y-104178252D01*
X106099400Y-104179247D01*
X106099335Y-104179247D01*
X106093225Y-104179852D01*
X105105540Y-104179852D01*
X105089401Y-104178263D01*
X105079792Y-104175348D01*
X105070928Y-104170610D01*
X105063163Y-104164237D01*
X105056790Y-104156472D01*
X105052052Y-104147608D01*
X105049137Y-104137999D01*
X105047548Y-104121860D01*
X105047548Y-102634140D01*
X105049137Y-102618001D01*
X105052052Y-102608392D01*
X105056790Y-102599528D01*
X105063163Y-102591763D01*
X105070928Y-102585390D01*
X105079792Y-102580652D01*
X105089401Y-102577737D01*
X105105540Y-102576148D01*
X106093260Y-102576148D01*
X106109399Y-102577737D01*
X106109399Y-102577737D01*
G37*
G36*
X114093499Y-102729445D02*
G01*
X114130995Y-102740820D01*
X114165554Y-102759292D01*
X114195847Y-102784153D01*
X114220708Y-102814446D01*
X114239180Y-102849005D01*
X114250555Y-102886501D01*
X114255000Y-102931638D01*
X114255000Y-103570362D01*
X114250555Y-103615499D01*
X114239180Y-103652995D01*
X114220708Y-103687554D01*
X114195847Y-103717847D01*
X114165554Y-103742708D01*
X114130995Y-103761180D01*
X114093499Y-103772555D01*
X114048362Y-103777000D01*
X113309638Y-103777000D01*
X113264501Y-103772555D01*
X113227005Y-103761180D01*
X113192446Y-103742708D01*
X113162153Y-103717847D01*
X113137292Y-103687554D01*
X113118820Y-103652995D01*
X113107445Y-103615499D01*
X113103000Y-103570362D01*
X113103000Y-102931638D01*
X113107445Y-102886501D01*
X113118820Y-102849005D01*
X113137292Y-102814446D01*
X113162153Y-102784153D01*
X113192446Y-102759292D01*
X113227005Y-102740820D01*
X113264501Y-102729445D01*
X113309638Y-102725000D01*
X114048362Y-102725000D01*
X114093499Y-102729445D01*
X114093499Y-102729445D01*
G37*
G36*
X115843499Y-102729445D02*
G01*
X115880995Y-102740820D01*
X115915554Y-102759292D01*
X115945847Y-102784153D01*
X115970708Y-102814446D01*
X115989180Y-102849005D01*
X116000555Y-102886501D01*
X116005000Y-102931638D01*
X116005000Y-103570362D01*
X116000555Y-103615499D01*
X115989180Y-103652995D01*
X115970708Y-103687554D01*
X115945847Y-103717847D01*
X115915554Y-103742708D01*
X115880995Y-103761180D01*
X115843499Y-103772555D01*
X115798362Y-103777000D01*
X115059638Y-103777000D01*
X115014501Y-103772555D01*
X114977005Y-103761180D01*
X114942446Y-103742708D01*
X114912153Y-103717847D01*
X114887292Y-103687554D01*
X114868820Y-103652995D01*
X114857445Y-103615499D01*
X114853000Y-103570362D01*
X114853000Y-102931638D01*
X114857445Y-102886501D01*
X114868820Y-102849005D01*
X114887292Y-102814446D01*
X114912153Y-102784153D01*
X114942446Y-102759292D01*
X114977005Y-102740820D01*
X115014501Y-102729445D01*
X115059638Y-102725000D01*
X115798362Y-102725000D01*
X115843499Y-102729445D01*
X115843499Y-102729445D01*
G37*
G36*
X128634499Y-102538445D02*
G01*
X128671995Y-102549820D01*
X128706554Y-102568292D01*
X128736847Y-102593153D01*
X128761708Y-102623446D01*
X128780180Y-102658005D01*
X128791555Y-102695501D01*
X128796000Y-102740638D01*
X128796000Y-103479362D01*
X128791555Y-103524499D01*
X128780180Y-103561995D01*
X128761708Y-103596554D01*
X128736847Y-103626847D01*
X128706554Y-103651708D01*
X128671995Y-103670180D01*
X128634499Y-103681555D01*
X128589362Y-103686000D01*
X127950638Y-103686000D01*
X127905501Y-103681555D01*
X127868005Y-103670180D01*
X127833446Y-103651708D01*
X127803153Y-103626847D01*
X127778292Y-103596554D01*
X127759820Y-103561995D01*
X127748445Y-103524499D01*
X127744000Y-103479362D01*
X127744000Y-102740638D01*
X127748445Y-102695501D01*
X127759820Y-102658005D01*
X127778292Y-102623446D01*
X127803153Y-102593153D01*
X127833446Y-102568292D01*
X127868005Y-102549820D01*
X127905501Y-102538445D01*
X127950638Y-102534000D01*
X128589362Y-102534000D01*
X128634499Y-102538445D01*
X128634499Y-102538445D01*
G37*
G36*
X156534299Y-102551645D02*
G01*
X156571795Y-102563020D01*
X156606354Y-102581492D01*
X156636647Y-102606353D01*
X156661508Y-102636646D01*
X156679980Y-102671205D01*
X156691355Y-102708701D01*
X156695800Y-102753838D01*
X156695800Y-103392562D01*
X156691355Y-103437699D01*
X156679980Y-103475195D01*
X156661508Y-103509754D01*
X156636647Y-103540047D01*
X156606354Y-103564908D01*
X156571795Y-103583380D01*
X156534299Y-103594755D01*
X156489162Y-103599200D01*
X155750438Y-103599200D01*
X155705301Y-103594755D01*
X155667805Y-103583380D01*
X155633246Y-103564908D01*
X155602953Y-103540047D01*
X155578092Y-103509754D01*
X155559620Y-103475195D01*
X155548245Y-103437699D01*
X155543800Y-103392562D01*
X155543800Y-102753838D01*
X155548245Y-102708701D01*
X155559620Y-102671205D01*
X155578092Y-102636646D01*
X155602953Y-102606353D01*
X155633246Y-102581492D01*
X155667805Y-102563020D01*
X155705301Y-102551645D01*
X155750438Y-102547200D01*
X156489162Y-102547200D01*
X156534299Y-102551645D01*
X156534299Y-102551645D01*
G37*
G36*
X154784299Y-102551645D02*
G01*
X154821795Y-102563020D01*
X154856354Y-102581492D01*
X154886647Y-102606353D01*
X154911508Y-102636646D01*
X154929980Y-102671205D01*
X154941355Y-102708701D01*
X154945800Y-102753838D01*
X154945800Y-103392562D01*
X154941355Y-103437699D01*
X154929980Y-103475195D01*
X154911508Y-103509754D01*
X154886647Y-103540047D01*
X154856354Y-103564908D01*
X154821795Y-103583380D01*
X154784299Y-103594755D01*
X154739162Y-103599200D01*
X154000438Y-103599200D01*
X153955301Y-103594755D01*
X153917805Y-103583380D01*
X153883246Y-103564908D01*
X153852953Y-103540047D01*
X153828092Y-103509754D01*
X153809620Y-103475195D01*
X153798245Y-103437699D01*
X153793800Y-103392562D01*
X153793800Y-102753838D01*
X153798245Y-102708701D01*
X153809620Y-102671205D01*
X153828092Y-102636646D01*
X153852953Y-102606353D01*
X153883246Y-102581492D01*
X153917805Y-102563020D01*
X153955301Y-102551645D01*
X154000438Y-102547200D01*
X154739162Y-102547200D01*
X154784299Y-102551645D01*
X154784299Y-102551645D01*
G37*
G36*
X137016499Y-102411445D02*
G01*
X137053995Y-102422820D01*
X137088554Y-102441292D01*
X137118847Y-102466153D01*
X137143708Y-102496446D01*
X137162180Y-102531005D01*
X137173555Y-102568501D01*
X137178000Y-102613638D01*
X137178000Y-103352362D01*
X137173555Y-103397499D01*
X137162180Y-103434995D01*
X137143708Y-103469554D01*
X137118847Y-103499847D01*
X137088554Y-103524708D01*
X137053995Y-103543180D01*
X137016499Y-103554555D01*
X136971362Y-103559000D01*
X136332638Y-103559000D01*
X136287501Y-103554555D01*
X136250005Y-103543180D01*
X136215446Y-103524708D01*
X136185153Y-103499847D01*
X136160292Y-103469554D01*
X136141820Y-103434995D01*
X136130445Y-103397499D01*
X136126000Y-103352362D01*
X136126000Y-102613638D01*
X136130445Y-102568501D01*
X136141820Y-102531005D01*
X136160292Y-102496446D01*
X136185153Y-102466153D01*
X136215446Y-102441292D01*
X136250005Y-102422820D01*
X136287501Y-102411445D01*
X136332638Y-102407000D01*
X136971362Y-102407000D01*
X137016499Y-102411445D01*
X137016499Y-102411445D01*
G37*
G36*
X131682499Y-102284445D02*
G01*
X131719995Y-102295820D01*
X131754554Y-102314292D01*
X131784847Y-102339153D01*
X131809708Y-102369446D01*
X131828180Y-102404005D01*
X131839555Y-102441501D01*
X131844000Y-102486638D01*
X131844000Y-103225362D01*
X131839555Y-103270499D01*
X131828180Y-103307995D01*
X131809708Y-103342554D01*
X131784847Y-103372847D01*
X131754554Y-103397708D01*
X131719995Y-103416180D01*
X131682499Y-103427555D01*
X131637362Y-103432000D01*
X130998638Y-103432000D01*
X130953501Y-103427555D01*
X130916005Y-103416180D01*
X130881446Y-103397708D01*
X130851153Y-103372847D01*
X130826292Y-103342554D01*
X130807820Y-103307995D01*
X130796445Y-103270499D01*
X130792000Y-103225362D01*
X130792000Y-102486638D01*
X130796445Y-102441501D01*
X130807820Y-102404005D01*
X130826292Y-102369446D01*
X130851153Y-102339153D01*
X130881446Y-102314292D01*
X130916005Y-102295820D01*
X130953501Y-102284445D01*
X130998638Y-102280000D01*
X131637362Y-102280000D01*
X131682499Y-102284445D01*
X131682499Y-102284445D01*
G37*
G36*
X166298842Y-100829781D02*
G01*
X166444614Y-100890162D01*
X166444616Y-100890163D01*
X166575808Y-100977822D01*
X166687378Y-101089392D01*
X166772629Y-101216980D01*
X166775038Y-101220586D01*
X166835419Y-101366358D01*
X166866200Y-101521107D01*
X166866200Y-101678893D01*
X166835419Y-101833642D01*
X166785739Y-101953580D01*
X166775037Y-101979416D01*
X166687378Y-102110608D01*
X166575808Y-102222178D01*
X166444616Y-102309837D01*
X166444615Y-102309838D01*
X166444614Y-102309838D01*
X166298842Y-102370219D01*
X166144093Y-102401000D01*
X165986307Y-102401000D01*
X165831558Y-102370219D01*
X165685786Y-102309838D01*
X165685785Y-102309838D01*
X165685784Y-102309837D01*
X165554592Y-102222178D01*
X165443022Y-102110608D01*
X165355363Y-101979416D01*
X165344661Y-101953580D01*
X165294981Y-101833642D01*
X165264200Y-101678893D01*
X165264200Y-101521107D01*
X165294981Y-101366358D01*
X165355362Y-101220586D01*
X165357771Y-101216980D01*
X165443022Y-101089392D01*
X165554592Y-100977822D01*
X165685784Y-100890163D01*
X165685786Y-100890162D01*
X165831558Y-100829781D01*
X165986307Y-100799000D01*
X166144093Y-100799000D01*
X166298842Y-100829781D01*
X166298842Y-100829781D01*
G37*
G36*
X120189499Y-101078445D02*
G01*
X120226995Y-101089820D01*
X120261554Y-101108292D01*
X120291847Y-101133153D01*
X120316708Y-101163446D01*
X120335180Y-101198005D01*
X120346555Y-101235501D01*
X120351000Y-101280638D01*
X120351000Y-101919362D01*
X120346555Y-101964499D01*
X120335180Y-102001995D01*
X120316708Y-102036554D01*
X120291847Y-102066847D01*
X120261554Y-102091708D01*
X120226995Y-102110180D01*
X120189499Y-102121555D01*
X120144362Y-102126000D01*
X119405638Y-102126000D01*
X119360501Y-102121555D01*
X119323005Y-102110180D01*
X119288446Y-102091708D01*
X119258153Y-102066847D01*
X119233292Y-102036554D01*
X119214820Y-102001995D01*
X119203445Y-101964499D01*
X119199000Y-101919362D01*
X119199000Y-101280638D01*
X119203445Y-101235501D01*
X119214820Y-101198005D01*
X119233292Y-101163446D01*
X119258153Y-101133153D01*
X119288446Y-101108292D01*
X119323005Y-101089820D01*
X119360501Y-101078445D01*
X119405638Y-101074000D01*
X120144362Y-101074000D01*
X120189499Y-101078445D01*
X120189499Y-101078445D01*
G37*
G36*
X121939499Y-101078445D02*
G01*
X121976995Y-101089820D01*
X122011554Y-101108292D01*
X122041847Y-101133153D01*
X122066708Y-101163446D01*
X122085180Y-101198005D01*
X122096555Y-101235501D01*
X122101000Y-101280638D01*
X122101000Y-101919362D01*
X122096555Y-101964499D01*
X122085180Y-102001995D01*
X122066708Y-102036554D01*
X122041847Y-102066847D01*
X122011554Y-102091708D01*
X121976995Y-102110180D01*
X121939499Y-102121555D01*
X121894362Y-102126000D01*
X121155638Y-102126000D01*
X121110501Y-102121555D01*
X121073005Y-102110180D01*
X121038446Y-102091708D01*
X121008153Y-102066847D01*
X120983292Y-102036554D01*
X120964820Y-102001995D01*
X120953445Y-101964499D01*
X120949000Y-101919362D01*
X120949000Y-101280638D01*
X120953445Y-101235501D01*
X120964820Y-101198005D01*
X120983292Y-101163446D01*
X121008153Y-101133153D01*
X121038446Y-101108292D01*
X121073005Y-101089820D01*
X121110501Y-101078445D01*
X121155638Y-101074000D01*
X121894362Y-101074000D01*
X121939499Y-101078445D01*
X121939499Y-101078445D01*
G37*
G36*
X149196299Y-100926045D02*
G01*
X149233795Y-100937420D01*
X149268354Y-100955892D01*
X149298647Y-100980753D01*
X149323508Y-101011046D01*
X149341980Y-101045605D01*
X149353355Y-101083101D01*
X149357800Y-101128238D01*
X149357800Y-101766962D01*
X149353355Y-101812099D01*
X149341980Y-101849595D01*
X149323508Y-101884154D01*
X149298647Y-101914447D01*
X149268354Y-101939308D01*
X149233795Y-101957780D01*
X149196299Y-101969155D01*
X149151162Y-101973600D01*
X148412438Y-101973600D01*
X148367301Y-101969155D01*
X148329805Y-101957780D01*
X148295246Y-101939308D01*
X148264953Y-101914447D01*
X148240092Y-101884154D01*
X148221620Y-101849595D01*
X148210245Y-101812099D01*
X148205800Y-101766962D01*
X148205800Y-101128238D01*
X148210245Y-101083101D01*
X148221620Y-101045605D01*
X148240092Y-101011046D01*
X148264953Y-100980753D01*
X148295246Y-100955892D01*
X148329805Y-100937420D01*
X148367301Y-100926045D01*
X148412438Y-100921600D01*
X149151162Y-100921600D01*
X149196299Y-100926045D01*
X149196299Y-100926045D01*
G37*
G36*
X150946299Y-100926045D02*
G01*
X150983795Y-100937420D01*
X151018354Y-100955892D01*
X151048647Y-100980753D01*
X151073508Y-101011046D01*
X151091980Y-101045605D01*
X151103355Y-101083101D01*
X151107800Y-101128238D01*
X151107800Y-101766962D01*
X151103355Y-101812099D01*
X151091980Y-101849595D01*
X151073508Y-101884154D01*
X151048647Y-101914447D01*
X151018354Y-101939308D01*
X150983795Y-101957780D01*
X150946299Y-101969155D01*
X150901162Y-101973600D01*
X150162438Y-101973600D01*
X150117301Y-101969155D01*
X150079805Y-101957780D01*
X150045246Y-101939308D01*
X150014953Y-101914447D01*
X149990092Y-101884154D01*
X149971620Y-101849595D01*
X149960245Y-101812099D01*
X149955800Y-101766962D01*
X149955800Y-101128238D01*
X149960245Y-101083101D01*
X149971620Y-101045605D01*
X149990092Y-101011046D01*
X150014953Y-100980753D01*
X150045246Y-100955892D01*
X150079805Y-100937420D01*
X150117301Y-100926045D01*
X150162438Y-100921600D01*
X150901162Y-100921600D01*
X150946299Y-100926045D01*
X150946299Y-100926045D01*
G37*
G36*
X128634499Y-100788445D02*
G01*
X128671995Y-100799820D01*
X128706554Y-100818292D01*
X128736847Y-100843153D01*
X128761708Y-100873446D01*
X128780180Y-100908005D01*
X128791555Y-100945501D01*
X128796000Y-100990638D01*
X128796000Y-101729362D01*
X128791555Y-101774499D01*
X128780180Y-101811995D01*
X128761708Y-101846554D01*
X128736847Y-101876847D01*
X128706554Y-101901708D01*
X128671995Y-101920180D01*
X128634499Y-101931555D01*
X128589362Y-101936000D01*
X127950638Y-101936000D01*
X127905501Y-101931555D01*
X127868005Y-101920180D01*
X127833446Y-101901708D01*
X127803153Y-101876847D01*
X127778292Y-101846554D01*
X127759820Y-101811995D01*
X127748445Y-101774499D01*
X127744000Y-101729362D01*
X127744000Y-100990638D01*
X127748445Y-100945501D01*
X127759820Y-100908005D01*
X127778292Y-100873446D01*
X127803153Y-100843153D01*
X127833446Y-100818292D01*
X127868005Y-100799820D01*
X127905501Y-100788445D01*
X127950638Y-100784000D01*
X128589362Y-100784000D01*
X128634499Y-100788445D01*
X128634499Y-100788445D01*
G37*
G36*
X137016499Y-100661445D02*
G01*
X137053995Y-100672820D01*
X137088554Y-100691292D01*
X137118847Y-100716153D01*
X137143708Y-100746446D01*
X137162180Y-100781005D01*
X137173555Y-100818501D01*
X137178000Y-100863638D01*
X137178000Y-101602362D01*
X137173555Y-101647499D01*
X137162180Y-101684995D01*
X137143708Y-101719554D01*
X137118847Y-101749847D01*
X137088554Y-101774708D01*
X137053995Y-101793180D01*
X137016499Y-101804555D01*
X136971362Y-101809000D01*
X136332638Y-101809000D01*
X136287501Y-101804555D01*
X136250005Y-101793180D01*
X136215446Y-101774708D01*
X136185153Y-101749847D01*
X136160292Y-101719554D01*
X136141820Y-101684995D01*
X136130445Y-101647499D01*
X136126000Y-101602362D01*
X136126000Y-100863638D01*
X136130445Y-100818501D01*
X136141820Y-100781005D01*
X136160292Y-100746446D01*
X136185153Y-100716153D01*
X136215446Y-100691292D01*
X136250005Y-100672820D01*
X136287501Y-100661445D01*
X136332638Y-100657000D01*
X136971362Y-100657000D01*
X137016499Y-100661445D01*
X137016499Y-100661445D01*
G37*
G36*
X139810499Y-100633445D02*
G01*
X139847995Y-100644820D01*
X139882554Y-100663292D01*
X139912847Y-100688153D01*
X139937708Y-100718446D01*
X139956180Y-100753005D01*
X139967555Y-100790501D01*
X139972000Y-100835638D01*
X139972000Y-101574362D01*
X139967555Y-101619499D01*
X139956180Y-101656995D01*
X139937708Y-101691554D01*
X139912847Y-101721847D01*
X139882554Y-101746708D01*
X139847995Y-101765180D01*
X139810499Y-101776555D01*
X139765362Y-101781000D01*
X139126638Y-101781000D01*
X139081501Y-101776555D01*
X139044005Y-101765180D01*
X139009446Y-101746708D01*
X138979153Y-101721847D01*
X138954292Y-101691554D01*
X138935820Y-101656995D01*
X138924445Y-101619499D01*
X138920000Y-101574362D01*
X138920000Y-100835638D01*
X138924445Y-100790501D01*
X138935820Y-100753005D01*
X138954292Y-100718446D01*
X138979153Y-100688153D01*
X139009446Y-100663292D01*
X139044005Y-100644820D01*
X139081501Y-100633445D01*
X139126638Y-100629000D01*
X139765362Y-100629000D01*
X139810499Y-100633445D01*
X139810499Y-100633445D01*
G37*
G36*
X131682499Y-100534445D02*
G01*
X131719995Y-100545820D01*
X131754554Y-100564292D01*
X131784847Y-100589153D01*
X131809708Y-100619446D01*
X131828180Y-100654005D01*
X131839555Y-100691501D01*
X131844000Y-100736638D01*
X131844000Y-101475362D01*
X131839555Y-101520499D01*
X131828180Y-101557995D01*
X131809708Y-101592554D01*
X131784847Y-101622847D01*
X131754554Y-101647708D01*
X131719995Y-101666180D01*
X131682499Y-101677555D01*
X131637362Y-101682000D01*
X130998638Y-101682000D01*
X130953501Y-101677555D01*
X130916005Y-101666180D01*
X130881446Y-101647708D01*
X130851153Y-101622847D01*
X130826292Y-101592554D01*
X130807820Y-101557995D01*
X130796445Y-101520499D01*
X130792000Y-101475362D01*
X130792000Y-100736638D01*
X130796445Y-100691501D01*
X130807820Y-100654005D01*
X130826292Y-100619446D01*
X130851153Y-100589153D01*
X130881446Y-100564292D01*
X130916005Y-100545820D01*
X130953501Y-100534445D01*
X130998638Y-100530000D01*
X131637362Y-100530000D01*
X131682499Y-100534445D01*
X131682499Y-100534445D01*
G37*
G36*
X114093499Y-100189445D02*
G01*
X114130995Y-100200820D01*
X114165554Y-100219292D01*
X114195847Y-100244153D01*
X114220708Y-100274446D01*
X114239180Y-100309005D01*
X114250555Y-100346501D01*
X114255000Y-100391638D01*
X114255000Y-101030362D01*
X114250555Y-101075499D01*
X114239180Y-101112995D01*
X114220708Y-101147554D01*
X114195847Y-101177847D01*
X114165554Y-101202708D01*
X114130995Y-101221180D01*
X114093499Y-101232555D01*
X114048362Y-101237000D01*
X113309638Y-101237000D01*
X113264501Y-101232555D01*
X113227005Y-101221180D01*
X113192446Y-101202708D01*
X113162153Y-101177847D01*
X113137292Y-101147554D01*
X113118820Y-101112995D01*
X113107445Y-101075499D01*
X113103000Y-101030362D01*
X113103000Y-100391638D01*
X113107445Y-100346501D01*
X113118820Y-100309005D01*
X113137292Y-100274446D01*
X113162153Y-100244153D01*
X113192446Y-100219292D01*
X113227005Y-100200820D01*
X113264501Y-100189445D01*
X113309638Y-100185000D01*
X114048362Y-100185000D01*
X114093499Y-100189445D01*
X114093499Y-100189445D01*
G37*
G36*
X105838499Y-100189445D02*
G01*
X105875995Y-100200820D01*
X105910554Y-100219292D01*
X105940847Y-100244153D01*
X105965708Y-100274446D01*
X105984180Y-100309005D01*
X105995555Y-100346501D01*
X106000000Y-100391638D01*
X106000000Y-101030362D01*
X105995555Y-101075499D01*
X105984180Y-101112995D01*
X105965708Y-101147554D01*
X105940847Y-101177847D01*
X105910554Y-101202708D01*
X105875995Y-101221180D01*
X105838499Y-101232555D01*
X105793362Y-101237000D01*
X105054638Y-101237000D01*
X105009501Y-101232555D01*
X104972005Y-101221180D01*
X104937446Y-101202708D01*
X104907153Y-101177847D01*
X104882292Y-101147554D01*
X104863820Y-101112995D01*
X104852445Y-101075499D01*
X104848000Y-101030362D01*
X104848000Y-100391638D01*
X104852445Y-100346501D01*
X104863820Y-100309005D01*
X104882292Y-100274446D01*
X104907153Y-100244153D01*
X104937446Y-100219292D01*
X104972005Y-100200820D01*
X105009501Y-100189445D01*
X105054638Y-100185000D01*
X105793362Y-100185000D01*
X105838499Y-100189445D01*
X105838499Y-100189445D01*
G37*
G36*
X107588499Y-100189445D02*
G01*
X107625995Y-100200820D01*
X107660554Y-100219292D01*
X107690847Y-100244153D01*
X107715708Y-100274446D01*
X107734180Y-100309005D01*
X107745555Y-100346501D01*
X107750000Y-100391638D01*
X107750000Y-101030362D01*
X107745555Y-101075499D01*
X107734180Y-101112995D01*
X107715708Y-101147554D01*
X107690847Y-101177847D01*
X107660554Y-101202708D01*
X107625995Y-101221180D01*
X107588499Y-101232555D01*
X107543362Y-101237000D01*
X106804638Y-101237000D01*
X106759501Y-101232555D01*
X106722005Y-101221180D01*
X106687446Y-101202708D01*
X106657153Y-101177847D01*
X106632292Y-101147554D01*
X106613820Y-101112995D01*
X106602445Y-101075499D01*
X106598000Y-101030362D01*
X106598000Y-100391638D01*
X106602445Y-100346501D01*
X106613820Y-100309005D01*
X106632292Y-100274446D01*
X106657153Y-100244153D01*
X106687446Y-100219292D01*
X106722005Y-100200820D01*
X106759501Y-100189445D01*
X106804638Y-100185000D01*
X107543362Y-100185000D01*
X107588499Y-100189445D01*
X107588499Y-100189445D01*
G37*
G36*
X115843499Y-100189445D02*
G01*
X115880995Y-100200820D01*
X115915554Y-100219292D01*
X115945847Y-100244153D01*
X115970708Y-100274446D01*
X115989180Y-100309005D01*
X116000555Y-100346501D01*
X116005000Y-100391638D01*
X116005000Y-101030362D01*
X116000555Y-101075499D01*
X115989180Y-101112995D01*
X115970708Y-101147554D01*
X115945847Y-101177847D01*
X115915554Y-101202708D01*
X115880995Y-101221180D01*
X115843499Y-101232555D01*
X115798362Y-101237000D01*
X115059638Y-101237000D01*
X115014501Y-101232555D01*
X114977005Y-101221180D01*
X114942446Y-101202708D01*
X114912153Y-101177847D01*
X114887292Y-101147554D01*
X114868820Y-101112995D01*
X114857445Y-101075499D01*
X114853000Y-101030362D01*
X114853000Y-100391638D01*
X114857445Y-100346501D01*
X114868820Y-100309005D01*
X114887292Y-100274446D01*
X114912153Y-100244153D01*
X114942446Y-100219292D01*
X114977005Y-100200820D01*
X115014501Y-100189445D01*
X115059638Y-100185000D01*
X115798362Y-100185000D01*
X115843499Y-100189445D01*
X115843499Y-100189445D01*
G37*
G36*
X98081243Y-99770692D02*
G01*
X98131988Y-99791711D01*
X98167870Y-99806574D01*
X98245832Y-99858667D01*
X98312133Y-99924968D01*
X98364226Y-100002930D01*
X98375853Y-100031000D01*
X98400108Y-100089557D01*
X98418400Y-100181517D01*
X98418400Y-100275283D01*
X98400108Y-100367243D01*
X98390003Y-100391638D01*
X98364226Y-100453870D01*
X98312133Y-100531832D01*
X98245832Y-100598133D01*
X98167870Y-100650226D01*
X98136325Y-100663292D01*
X98081243Y-100686108D01*
X97989283Y-100704400D01*
X97895517Y-100704400D01*
X97803557Y-100686108D01*
X97748475Y-100663292D01*
X97716930Y-100650226D01*
X97638968Y-100598133D01*
X97572667Y-100531832D01*
X97520574Y-100453870D01*
X97494797Y-100391638D01*
X97484692Y-100367243D01*
X97466400Y-100275283D01*
X97466400Y-100181517D01*
X97484692Y-100089557D01*
X97508947Y-100031000D01*
X97520574Y-100002930D01*
X97572667Y-99924968D01*
X97638968Y-99858667D01*
X97716930Y-99806574D01*
X97752812Y-99791711D01*
X97803557Y-99770692D01*
X97895517Y-99752400D01*
X97989283Y-99752400D01*
X98081243Y-99770692D01*
X98081243Y-99770692D01*
G37*
G36*
X139810499Y-98883445D02*
G01*
X139847995Y-98894820D01*
X139882554Y-98913292D01*
X139912847Y-98938153D01*
X139937708Y-98968446D01*
X139956180Y-99003005D01*
X139967555Y-99040501D01*
X139972000Y-99085638D01*
X139972000Y-99824362D01*
X139967555Y-99869499D01*
X139956180Y-99906995D01*
X139937708Y-99941554D01*
X139912847Y-99971847D01*
X139882554Y-99996708D01*
X139847995Y-100015180D01*
X139810499Y-100026555D01*
X139765362Y-100031000D01*
X139126638Y-100031000D01*
X139081501Y-100026555D01*
X139044005Y-100015180D01*
X139009446Y-99996708D01*
X138979153Y-99971847D01*
X138954292Y-99941554D01*
X138935820Y-99906995D01*
X138924445Y-99869499D01*
X138920000Y-99824362D01*
X138920000Y-99085638D01*
X138924445Y-99040501D01*
X138935820Y-99003005D01*
X138954292Y-98968446D01*
X138979153Y-98938153D01*
X139009446Y-98913292D01*
X139044005Y-98894820D01*
X139081501Y-98883445D01*
X139126638Y-98879000D01*
X139765362Y-98879000D01*
X139810499Y-98883445D01*
X139810499Y-98883445D01*
G37*
G36*
X144596299Y-98589245D02*
G01*
X144633795Y-98600620D01*
X144668354Y-98619092D01*
X144698647Y-98643953D01*
X144723508Y-98674246D01*
X144741980Y-98708805D01*
X144753355Y-98746301D01*
X144757800Y-98791438D01*
X144757800Y-99430162D01*
X144753355Y-99475299D01*
X144741980Y-99512795D01*
X144723508Y-99547354D01*
X144698647Y-99577647D01*
X144668354Y-99602508D01*
X144633795Y-99620980D01*
X144596299Y-99632355D01*
X144551162Y-99636800D01*
X143812438Y-99636800D01*
X143767301Y-99632355D01*
X143729805Y-99620980D01*
X143695246Y-99602508D01*
X143664953Y-99577647D01*
X143640092Y-99547354D01*
X143621620Y-99512795D01*
X143610245Y-99475299D01*
X143605800Y-99430162D01*
X143605800Y-98791438D01*
X143610245Y-98746301D01*
X143621620Y-98708805D01*
X143640092Y-98674246D01*
X143664953Y-98643953D01*
X143695246Y-98619092D01*
X143729805Y-98600620D01*
X143767301Y-98589245D01*
X143812438Y-98584800D01*
X144551162Y-98584800D01*
X144596299Y-98589245D01*
X144596299Y-98589245D01*
G37*
G36*
X142846299Y-98589245D02*
G01*
X142883795Y-98600620D01*
X142918354Y-98619092D01*
X142948647Y-98643953D01*
X142973508Y-98674246D01*
X142991980Y-98708805D01*
X143003355Y-98746301D01*
X143007800Y-98791438D01*
X143007800Y-99430162D01*
X143003355Y-99475299D01*
X142991980Y-99512795D01*
X142973508Y-99547354D01*
X142948647Y-99577647D01*
X142918354Y-99602508D01*
X142883795Y-99620980D01*
X142846299Y-99632355D01*
X142801162Y-99636800D01*
X142062438Y-99636800D01*
X142017301Y-99632355D01*
X141979805Y-99620980D01*
X141945246Y-99602508D01*
X141914953Y-99577647D01*
X141890092Y-99547354D01*
X141871620Y-99512795D01*
X141860245Y-99475299D01*
X141855800Y-99430162D01*
X141855800Y-98791438D01*
X141860245Y-98746301D01*
X141871620Y-98708805D01*
X141890092Y-98674246D01*
X141914953Y-98643953D01*
X141945246Y-98619092D01*
X141979805Y-98600620D01*
X142017301Y-98589245D01*
X142062438Y-98584800D01*
X142801162Y-98584800D01*
X142846299Y-98589245D01*
X142846299Y-98589245D01*
G37*
G36*
X120189499Y-98538445D02*
G01*
X120226995Y-98549820D01*
X120261554Y-98568292D01*
X120291847Y-98593153D01*
X120316708Y-98623446D01*
X120335180Y-98658005D01*
X120346555Y-98695501D01*
X120351000Y-98740638D01*
X120351000Y-99379362D01*
X120346555Y-99424499D01*
X120335180Y-99461995D01*
X120316708Y-99496554D01*
X120291847Y-99526847D01*
X120261554Y-99551708D01*
X120226995Y-99570180D01*
X120189499Y-99581555D01*
X120144362Y-99586000D01*
X119405638Y-99586000D01*
X119360501Y-99581555D01*
X119323005Y-99570180D01*
X119288446Y-99551708D01*
X119258153Y-99526847D01*
X119233292Y-99496554D01*
X119214820Y-99461995D01*
X119203445Y-99424499D01*
X119199000Y-99379362D01*
X119199000Y-98740638D01*
X119203445Y-98695501D01*
X119214820Y-98658005D01*
X119233292Y-98623446D01*
X119258153Y-98593153D01*
X119288446Y-98568292D01*
X119323005Y-98549820D01*
X119360501Y-98538445D01*
X119405638Y-98534000D01*
X120144362Y-98534000D01*
X120189499Y-98538445D01*
X120189499Y-98538445D01*
G37*
G36*
X121939499Y-98538445D02*
G01*
X121976995Y-98549820D01*
X122011554Y-98568292D01*
X122041847Y-98593153D01*
X122066708Y-98623446D01*
X122085180Y-98658005D01*
X122096555Y-98695501D01*
X122101000Y-98740638D01*
X122101000Y-99379362D01*
X122096555Y-99424499D01*
X122085180Y-99461995D01*
X122066708Y-99496554D01*
X122041847Y-99526847D01*
X122011554Y-99551708D01*
X121976995Y-99570180D01*
X121939499Y-99581555D01*
X121894362Y-99586000D01*
X121155638Y-99586000D01*
X121110501Y-99581555D01*
X121073005Y-99570180D01*
X121038446Y-99551708D01*
X121008153Y-99526847D01*
X120983292Y-99496554D01*
X120964820Y-99461995D01*
X120953445Y-99424499D01*
X120949000Y-99379362D01*
X120949000Y-98740638D01*
X120953445Y-98695501D01*
X120964820Y-98658005D01*
X120983292Y-98623446D01*
X121008153Y-98593153D01*
X121038446Y-98568292D01*
X121073005Y-98549820D01*
X121110501Y-98538445D01*
X121155638Y-98534000D01*
X121894362Y-98534000D01*
X121939499Y-98538445D01*
X121939499Y-98538445D01*
G37*
G36*
X149145499Y-98284445D02*
G01*
X149182995Y-98295820D01*
X149217554Y-98314292D01*
X149247847Y-98339153D01*
X149272708Y-98369446D01*
X149291180Y-98404005D01*
X149302555Y-98441501D01*
X149307000Y-98486638D01*
X149307000Y-99125362D01*
X149302555Y-99170499D01*
X149291180Y-99207995D01*
X149272708Y-99242554D01*
X149247847Y-99272847D01*
X149217554Y-99297708D01*
X149182995Y-99316180D01*
X149145499Y-99327555D01*
X149100362Y-99332000D01*
X148361638Y-99332000D01*
X148316501Y-99327555D01*
X148279005Y-99316180D01*
X148244446Y-99297708D01*
X148214153Y-99272847D01*
X148189292Y-99242554D01*
X148170820Y-99207995D01*
X148159445Y-99170499D01*
X148155000Y-99125362D01*
X148155000Y-98486638D01*
X148159445Y-98441501D01*
X148170820Y-98404005D01*
X148189292Y-98369446D01*
X148214153Y-98339153D01*
X148244446Y-98314292D01*
X148279005Y-98295820D01*
X148316501Y-98284445D01*
X148361638Y-98280000D01*
X149100362Y-98280000D01*
X149145499Y-98284445D01*
X149145499Y-98284445D01*
G37*
G36*
X150895499Y-98284445D02*
G01*
X150932995Y-98295820D01*
X150967554Y-98314292D01*
X150997847Y-98339153D01*
X151022708Y-98369446D01*
X151041180Y-98404005D01*
X151052555Y-98441501D01*
X151057000Y-98486638D01*
X151057000Y-99125362D01*
X151052555Y-99170499D01*
X151041180Y-99207995D01*
X151022708Y-99242554D01*
X150997847Y-99272847D01*
X150967554Y-99297708D01*
X150932995Y-99316180D01*
X150895499Y-99327555D01*
X150850362Y-99332000D01*
X150111638Y-99332000D01*
X150066501Y-99327555D01*
X150029005Y-99316180D01*
X149994446Y-99297708D01*
X149964153Y-99272847D01*
X149939292Y-99242554D01*
X149920820Y-99207995D01*
X149909445Y-99170499D01*
X149905000Y-99125362D01*
X149905000Y-98486638D01*
X149909445Y-98441501D01*
X149920820Y-98404005D01*
X149939292Y-98369446D01*
X149964153Y-98339153D01*
X149994446Y-98314292D01*
X150029005Y-98295820D01*
X150066501Y-98284445D01*
X150111638Y-98280000D01*
X150850362Y-98280000D01*
X150895499Y-98284445D01*
X150895499Y-98284445D01*
G37*
G36*
X131907242Y-97375381D02*
G01*
X132043432Y-97431793D01*
X132053016Y-97435763D01*
X132184208Y-97523422D01*
X132295778Y-97634992D01*
X132345066Y-97708758D01*
X132383438Y-97766186D01*
X132443819Y-97911958D01*
X132474600Y-98066707D01*
X132474600Y-98224493D01*
X132443819Y-98379242D01*
X132383438Y-98525014D01*
X132383437Y-98525016D01*
X132295778Y-98656208D01*
X132184208Y-98767778D01*
X132053016Y-98855437D01*
X132053015Y-98855438D01*
X132053014Y-98855438D01*
X131907242Y-98915819D01*
X131752493Y-98946600D01*
X131594707Y-98946600D01*
X131439958Y-98915819D01*
X131294186Y-98855438D01*
X131294185Y-98855438D01*
X131294184Y-98855437D01*
X131162992Y-98767778D01*
X131051422Y-98656208D01*
X130963763Y-98525016D01*
X130963762Y-98525014D01*
X130903381Y-98379242D01*
X130872600Y-98224493D01*
X130872600Y-98066707D01*
X130903381Y-97911958D01*
X130963762Y-97766186D01*
X131002134Y-97708758D01*
X131051422Y-97634992D01*
X131162992Y-97523422D01*
X131294184Y-97435763D01*
X131303768Y-97431793D01*
X131439958Y-97375381D01*
X131594707Y-97344600D01*
X131752493Y-97344600D01*
X131907242Y-97375381D01*
X131907242Y-97375381D01*
G37*
G36*
X167829643Y-97840292D02*
G01*
X167880388Y-97861311D01*
X167916270Y-97876174D01*
X167994232Y-97928267D01*
X168060533Y-97994568D01*
X168112626Y-98072530D01*
X168112626Y-98072531D01*
X168148508Y-98159157D01*
X168166800Y-98251117D01*
X168166800Y-98344883D01*
X168148508Y-98436843D01*
X168141812Y-98453008D01*
X168112626Y-98523470D01*
X168060533Y-98601432D01*
X167994232Y-98667733D01*
X167916270Y-98719826D01*
X167880388Y-98734689D01*
X167829643Y-98755708D01*
X167737683Y-98774000D01*
X167643917Y-98774000D01*
X167551957Y-98755708D01*
X167501212Y-98734689D01*
X167465330Y-98719826D01*
X167387368Y-98667733D01*
X167321067Y-98601432D01*
X167268974Y-98523470D01*
X167239788Y-98453008D01*
X167233092Y-98436843D01*
X167214800Y-98344883D01*
X167214800Y-98251117D01*
X167233092Y-98159157D01*
X167268974Y-98072531D01*
X167268974Y-98072530D01*
X167321067Y-97994568D01*
X167387368Y-97928267D01*
X167465330Y-97876174D01*
X167501212Y-97861311D01*
X167551957Y-97840292D01*
X167643917Y-97822000D01*
X167737683Y-97822000D01*
X167829643Y-97840292D01*
X167829643Y-97840292D01*
G37*
G36*
X136225242Y-97172181D02*
G01*
X136371014Y-97232562D01*
X136371016Y-97232563D01*
X136502208Y-97320222D01*
X136613778Y-97431792D01*
X136701437Y-97562984D01*
X136701438Y-97562986D01*
X136761819Y-97708758D01*
X136792600Y-97863507D01*
X136792600Y-98021293D01*
X136761819Y-98176042D01*
X136730721Y-98251118D01*
X136701437Y-98321816D01*
X136613778Y-98453008D01*
X136502208Y-98564578D01*
X136371016Y-98652237D01*
X136371015Y-98652238D01*
X136371014Y-98652238D01*
X136225242Y-98712619D01*
X136070493Y-98743400D01*
X135912707Y-98743400D01*
X135757958Y-98712619D01*
X135612186Y-98652238D01*
X135612185Y-98652238D01*
X135612184Y-98652237D01*
X135480992Y-98564578D01*
X135369422Y-98453008D01*
X135281763Y-98321816D01*
X135252479Y-98251118D01*
X135221381Y-98176042D01*
X135190600Y-98021293D01*
X135190600Y-97863507D01*
X135221381Y-97708758D01*
X135281762Y-97562986D01*
X135281763Y-97562984D01*
X135369422Y-97431792D01*
X135480992Y-97320222D01*
X135612184Y-97232563D01*
X135612186Y-97232562D01*
X135757958Y-97172181D01*
X135912707Y-97141400D01*
X136070493Y-97141400D01*
X136225242Y-97172181D01*
X136225242Y-97172181D01*
G37*
G36*
X154928360Y-94241464D02*
G01*
X155079827Y-94271593D01*
X155293845Y-94360242D01*
X155293846Y-94360243D01*
X155486454Y-94488939D01*
X155650261Y-94652746D01*
X155736058Y-94781151D01*
X155778958Y-94845355D01*
X155867607Y-95059373D01*
X155882486Y-95134174D01*
X155907748Y-95261173D01*
X155912800Y-95286574D01*
X155912800Y-95518226D01*
X155867607Y-95745427D01*
X155778958Y-95959445D01*
X155778957Y-95959446D01*
X155650261Y-96152054D01*
X155486454Y-96315861D01*
X155389255Y-96380807D01*
X155293845Y-96444558D01*
X155079827Y-96533207D01*
X154928360Y-96563336D01*
X154852627Y-96578400D01*
X154620973Y-96578400D01*
X154545240Y-96563336D01*
X154393773Y-96533207D01*
X154179755Y-96444558D01*
X154084345Y-96380807D01*
X153987146Y-96315861D01*
X153823339Y-96152054D01*
X153694643Y-95959446D01*
X153694642Y-95959445D01*
X153605993Y-95745427D01*
X153560800Y-95518226D01*
X153560800Y-95286574D01*
X153565853Y-95261173D01*
X153591114Y-95134174D01*
X153605993Y-95059373D01*
X153694642Y-94845355D01*
X153737542Y-94781151D01*
X153823339Y-94652746D01*
X153987146Y-94488939D01*
X154179754Y-94360243D01*
X154179755Y-94360242D01*
X154393773Y-94271593D01*
X154545240Y-94241464D01*
X154620973Y-94226400D01*
X154852627Y-94226400D01*
X154928360Y-94241464D01*
X154928360Y-94241464D01*
G37*
G36*
X149848360Y-94241464D02*
G01*
X149999827Y-94271593D01*
X150213845Y-94360242D01*
X150213846Y-94360243D01*
X150406454Y-94488939D01*
X150570261Y-94652746D01*
X150656058Y-94781151D01*
X150698958Y-94845355D01*
X150787607Y-95059373D01*
X150802486Y-95134174D01*
X150827748Y-95261173D01*
X150832800Y-95286574D01*
X150832800Y-95518226D01*
X150787607Y-95745427D01*
X150698958Y-95959445D01*
X150698957Y-95959446D01*
X150570261Y-96152054D01*
X150406454Y-96315861D01*
X150309255Y-96380807D01*
X150213845Y-96444558D01*
X149999827Y-96533207D01*
X149848360Y-96563336D01*
X149772627Y-96578400D01*
X149540973Y-96578400D01*
X149465240Y-96563336D01*
X149313773Y-96533207D01*
X149099755Y-96444558D01*
X149004345Y-96380807D01*
X148907146Y-96315861D01*
X148743339Y-96152054D01*
X148614643Y-95959446D01*
X148614642Y-95959445D01*
X148525993Y-95745427D01*
X148480800Y-95518226D01*
X148480800Y-95286574D01*
X148485853Y-95261173D01*
X148511114Y-95134174D01*
X148525993Y-95059373D01*
X148614642Y-94845355D01*
X148657542Y-94781151D01*
X148743339Y-94652746D01*
X148907146Y-94488939D01*
X149099754Y-94360243D01*
X149099755Y-94360242D01*
X149313773Y-94271593D01*
X149465240Y-94241464D01*
X149540973Y-94226400D01*
X149772627Y-94226400D01*
X149848360Y-94241464D01*
X149848360Y-94241464D01*
G37*
G36*
X139256560Y-94216064D02*
G01*
X139408027Y-94246193D01*
X139622045Y-94334842D01*
X139660060Y-94360243D01*
X139814654Y-94463539D01*
X139978461Y-94627346D01*
X140022299Y-94692955D01*
X140107158Y-94819955D01*
X140195807Y-95033973D01*
X140215738Y-95134173D01*
X140241000Y-95261173D01*
X140241000Y-95492827D01*
X140225936Y-95568560D01*
X140195807Y-95720027D01*
X140107158Y-95934045D01*
X140064258Y-95998249D01*
X139978461Y-96126654D01*
X139814654Y-96290461D01*
X139686249Y-96376258D01*
X139622045Y-96419158D01*
X139408027Y-96507807D01*
X139280332Y-96533207D01*
X139180827Y-96553000D01*
X138949173Y-96553000D01*
X138849668Y-96533207D01*
X138721973Y-96507807D01*
X138507955Y-96419158D01*
X138443751Y-96376258D01*
X138315346Y-96290461D01*
X138151539Y-96126654D01*
X138065742Y-95998249D01*
X138022842Y-95934045D01*
X137934193Y-95720027D01*
X137904064Y-95568560D01*
X137889000Y-95492827D01*
X137889000Y-95261173D01*
X137914262Y-95134173D01*
X137934193Y-95033973D01*
X138022842Y-94819955D01*
X138107701Y-94692955D01*
X138151539Y-94627346D01*
X138315346Y-94463539D01*
X138469940Y-94360243D01*
X138507955Y-94334842D01*
X138721973Y-94246193D01*
X138873440Y-94216064D01*
X138949173Y-94201000D01*
X139180827Y-94201000D01*
X139256560Y-94216064D01*
X139256560Y-94216064D01*
G37*
G36*
X144336560Y-94216064D02*
G01*
X144488027Y-94246193D01*
X144702045Y-94334842D01*
X144740060Y-94360243D01*
X144894654Y-94463539D01*
X145058461Y-94627346D01*
X145102299Y-94692955D01*
X145187158Y-94819955D01*
X145275807Y-95033973D01*
X145295738Y-95134173D01*
X145321000Y-95261173D01*
X145321000Y-95492827D01*
X145305936Y-95568560D01*
X145275807Y-95720027D01*
X145187158Y-95934045D01*
X145144258Y-95998249D01*
X145058461Y-96126654D01*
X144894654Y-96290461D01*
X144766249Y-96376258D01*
X144702045Y-96419158D01*
X144488027Y-96507807D01*
X144360332Y-96533207D01*
X144260827Y-96553000D01*
X144029173Y-96553000D01*
X143929668Y-96533207D01*
X143801973Y-96507807D01*
X143587955Y-96419158D01*
X143523751Y-96376258D01*
X143395346Y-96290461D01*
X143231539Y-96126654D01*
X143145742Y-95998249D01*
X143102842Y-95934045D01*
X143014193Y-95720027D01*
X142984064Y-95568560D01*
X142969000Y-95492827D01*
X142969000Y-95261173D01*
X142994262Y-95134173D01*
X143014193Y-95033973D01*
X143102842Y-94819955D01*
X143187701Y-94692955D01*
X143231539Y-94627346D01*
X143395346Y-94463539D01*
X143549940Y-94360243D01*
X143587955Y-94334842D01*
X143801973Y-94246193D01*
X143953440Y-94216064D01*
X144029173Y-94201000D01*
X144260827Y-94201000D01*
X144336560Y-94216064D01*
X144336560Y-94216064D01*
G37*
G36*
X101842360Y-94190664D02*
G01*
X101993827Y-94220793D01*
X102207845Y-94309442D01*
X102245860Y-94334843D01*
X102400454Y-94438139D01*
X102564261Y-94601946D01*
X102590869Y-94641768D01*
X102692958Y-94794555D01*
X102781607Y-95008573D01*
X102811736Y-95160040D01*
X102826800Y-95235773D01*
X102826800Y-95467427D01*
X102816695Y-95518226D01*
X102781607Y-95694627D01*
X102692958Y-95908645D01*
X102659014Y-95959445D01*
X102564261Y-96101254D01*
X102400454Y-96265061D01*
X102359900Y-96292158D01*
X102207845Y-96393758D01*
X101993827Y-96482407D01*
X101866132Y-96507807D01*
X101766627Y-96527600D01*
X101534973Y-96527600D01*
X101435468Y-96507807D01*
X101307773Y-96482407D01*
X101093755Y-96393758D01*
X100941700Y-96292158D01*
X100901146Y-96265061D01*
X100737339Y-96101254D01*
X100642586Y-95959445D01*
X100608642Y-95908645D01*
X100519993Y-95694627D01*
X100484905Y-95518226D01*
X100474800Y-95467427D01*
X100474800Y-95235773D01*
X100489864Y-95160040D01*
X100519993Y-95008573D01*
X100608642Y-94794555D01*
X100710731Y-94641768D01*
X100737339Y-94601946D01*
X100901146Y-94438139D01*
X101055740Y-94334843D01*
X101093755Y-94309442D01*
X101307773Y-94220793D01*
X101459240Y-94190664D01*
X101534973Y-94175600D01*
X101766627Y-94175600D01*
X101842360Y-94190664D01*
X101842360Y-94190664D01*
G37*
G36*
X106922360Y-94190664D02*
G01*
X107073827Y-94220793D01*
X107287845Y-94309442D01*
X107325860Y-94334843D01*
X107480454Y-94438139D01*
X107644261Y-94601946D01*
X107670869Y-94641768D01*
X107772958Y-94794555D01*
X107861607Y-95008573D01*
X107891736Y-95160040D01*
X107906800Y-95235773D01*
X107906800Y-95467427D01*
X107896695Y-95518226D01*
X107861607Y-95694627D01*
X107772958Y-95908645D01*
X107739014Y-95959445D01*
X107644261Y-96101254D01*
X107480454Y-96265061D01*
X107439900Y-96292158D01*
X107287845Y-96393758D01*
X107073827Y-96482407D01*
X106946132Y-96507807D01*
X106846627Y-96527600D01*
X106614973Y-96527600D01*
X106515468Y-96507807D01*
X106387773Y-96482407D01*
X106173755Y-96393758D01*
X106021700Y-96292158D01*
X105981146Y-96265061D01*
X105817339Y-96101254D01*
X105722586Y-95959445D01*
X105688642Y-95908645D01*
X105599993Y-95694627D01*
X105564905Y-95518226D01*
X105554800Y-95467427D01*
X105554800Y-95235773D01*
X105569864Y-95160040D01*
X105599993Y-95008573D01*
X105688642Y-94794555D01*
X105790731Y-94641768D01*
X105817339Y-94601946D01*
X105981146Y-94438139D01*
X106135740Y-94334843D01*
X106173755Y-94309442D01*
X106387773Y-94220793D01*
X106539240Y-94190664D01*
X106614973Y-94175600D01*
X106846627Y-94175600D01*
X106922360Y-94190664D01*
X106922360Y-94190664D01*
G37*
G36*
X112764360Y-94089064D02*
G01*
X112915827Y-94119193D01*
X113129845Y-94207842D01*
X113129846Y-94207843D01*
X113322454Y-94336539D01*
X113486261Y-94500346D01*
X113516632Y-94545800D01*
X113614958Y-94692955D01*
X113703607Y-94906973D01*
X113703607Y-94906975D01*
X113748800Y-95134173D01*
X113748800Y-95365827D01*
X113733736Y-95441560D01*
X113703607Y-95593027D01*
X113614958Y-95807045D01*
X113614957Y-95807046D01*
X113486261Y-95999654D01*
X113322454Y-96163461D01*
X113194049Y-96249258D01*
X113129845Y-96292158D01*
X112915827Y-96380807D01*
X112764360Y-96410936D01*
X112688627Y-96426000D01*
X112456973Y-96426000D01*
X112381240Y-96410936D01*
X112229773Y-96380807D01*
X112015755Y-96292158D01*
X111951551Y-96249258D01*
X111823146Y-96163461D01*
X111659339Y-95999654D01*
X111530643Y-95807046D01*
X111530642Y-95807045D01*
X111441993Y-95593027D01*
X111411864Y-95441560D01*
X111396800Y-95365827D01*
X111396800Y-95134173D01*
X111441993Y-94906975D01*
X111441993Y-94906973D01*
X111530642Y-94692955D01*
X111628968Y-94545800D01*
X111659339Y-94500346D01*
X111823146Y-94336539D01*
X112015754Y-94207843D01*
X112015755Y-94207842D01*
X112229773Y-94119193D01*
X112381240Y-94089064D01*
X112456973Y-94074000D01*
X112688627Y-94074000D01*
X112764360Y-94089064D01*
X112764360Y-94089064D01*
G37*
G36*
X117844360Y-94089064D02*
G01*
X117995827Y-94119193D01*
X118209845Y-94207842D01*
X118209846Y-94207843D01*
X118402454Y-94336539D01*
X118566261Y-94500346D01*
X118596632Y-94545800D01*
X118694958Y-94692955D01*
X118783607Y-94906973D01*
X118783607Y-94906975D01*
X118828800Y-95134173D01*
X118828800Y-95365827D01*
X118813736Y-95441560D01*
X118783607Y-95593027D01*
X118694958Y-95807045D01*
X118694957Y-95807046D01*
X118566261Y-95999654D01*
X118402454Y-96163461D01*
X118274049Y-96249258D01*
X118209845Y-96292158D01*
X117995827Y-96380807D01*
X117844360Y-96410936D01*
X117768627Y-96426000D01*
X117536973Y-96426000D01*
X117461240Y-96410936D01*
X117309773Y-96380807D01*
X117095755Y-96292158D01*
X117031551Y-96249258D01*
X116903146Y-96163461D01*
X116739339Y-95999654D01*
X116610643Y-95807046D01*
X116610642Y-95807045D01*
X116521993Y-95593027D01*
X116491864Y-95441560D01*
X116476800Y-95365827D01*
X116476800Y-95134173D01*
X116521993Y-94906975D01*
X116521993Y-94906973D01*
X116610642Y-94692955D01*
X116708968Y-94545800D01*
X116739339Y-94500346D01*
X116903146Y-94336539D01*
X117095754Y-94207843D01*
X117095755Y-94207842D01*
X117309773Y-94119193D01*
X117461240Y-94089064D01*
X117536973Y-94074000D01*
X117768627Y-94074000D01*
X117844360Y-94089064D01*
X117844360Y-94089064D01*
G37*
G36*
X128842560Y-94089064D02*
G01*
X128994027Y-94119193D01*
X129208045Y-94207842D01*
X129208046Y-94207843D01*
X129400654Y-94336539D01*
X129564461Y-94500346D01*
X129594832Y-94545800D01*
X129693158Y-94692955D01*
X129781807Y-94906973D01*
X129781807Y-94906975D01*
X129827000Y-95134173D01*
X129827000Y-95365827D01*
X129811936Y-95441560D01*
X129781807Y-95593027D01*
X129693158Y-95807045D01*
X129693157Y-95807046D01*
X129564461Y-95999654D01*
X129400654Y-96163461D01*
X129272249Y-96249258D01*
X129208045Y-96292158D01*
X128994027Y-96380807D01*
X128842560Y-96410936D01*
X128766827Y-96426000D01*
X128535173Y-96426000D01*
X128459440Y-96410936D01*
X128307973Y-96380807D01*
X128093955Y-96292158D01*
X128029751Y-96249258D01*
X127901346Y-96163461D01*
X127737539Y-95999654D01*
X127608843Y-95807046D01*
X127608842Y-95807045D01*
X127520193Y-95593027D01*
X127490064Y-95441560D01*
X127475000Y-95365827D01*
X127475000Y-95134173D01*
X127520193Y-94906975D01*
X127520193Y-94906973D01*
X127608842Y-94692955D01*
X127707168Y-94545800D01*
X127737539Y-94500346D01*
X127901346Y-94336539D01*
X128093954Y-94207843D01*
X128093955Y-94207842D01*
X128307973Y-94119193D01*
X128459440Y-94089064D01*
X128535173Y-94074000D01*
X128766827Y-94074000D01*
X128842560Y-94089064D01*
X128842560Y-94089064D01*
G37*
G36*
X123762560Y-94089064D02*
G01*
X123914027Y-94119193D01*
X124128045Y-94207842D01*
X124128046Y-94207843D01*
X124320654Y-94336539D01*
X124484461Y-94500346D01*
X124514832Y-94545800D01*
X124613158Y-94692955D01*
X124701807Y-94906973D01*
X124701807Y-94906975D01*
X124747000Y-95134173D01*
X124747000Y-95365827D01*
X124731936Y-95441560D01*
X124701807Y-95593027D01*
X124613158Y-95807045D01*
X124613157Y-95807046D01*
X124484461Y-95999654D01*
X124320654Y-96163461D01*
X124192249Y-96249258D01*
X124128045Y-96292158D01*
X123914027Y-96380807D01*
X123762560Y-96410936D01*
X123686827Y-96426000D01*
X123455173Y-96426000D01*
X123379440Y-96410936D01*
X123227973Y-96380807D01*
X123013955Y-96292158D01*
X122949751Y-96249258D01*
X122821346Y-96163461D01*
X122657539Y-95999654D01*
X122528843Y-95807046D01*
X122528842Y-95807045D01*
X122440193Y-95593027D01*
X122410064Y-95441560D01*
X122395000Y-95365827D01*
X122395000Y-95134173D01*
X122440193Y-94906975D01*
X122440193Y-94906973D01*
X122528842Y-94692955D01*
X122627168Y-94545800D01*
X122657539Y-94500346D01*
X122821346Y-94336539D01*
X123013954Y-94207843D01*
X123013955Y-94207842D01*
X123227973Y-94119193D01*
X123379440Y-94089064D01*
X123455173Y-94074000D01*
X123686827Y-94074000D01*
X123762560Y-94089064D01*
X123762560Y-94089064D01*
G37*
G36*
X160465560Y-94089064D02*
G01*
X160617027Y-94119193D01*
X160831045Y-94207842D01*
X160831046Y-94207843D01*
X161023654Y-94336539D01*
X161187461Y-94500346D01*
X161217832Y-94545800D01*
X161316158Y-94692955D01*
X161404807Y-94906973D01*
X161404807Y-94906975D01*
X161450000Y-95134173D01*
X161450000Y-95365827D01*
X161434936Y-95441560D01*
X161404807Y-95593027D01*
X161316158Y-95807045D01*
X161316157Y-95807046D01*
X161187461Y-95999654D01*
X161023654Y-96163461D01*
X160895249Y-96249258D01*
X160831045Y-96292158D01*
X160617027Y-96380807D01*
X160465560Y-96410936D01*
X160389827Y-96426000D01*
X160158173Y-96426000D01*
X160082440Y-96410936D01*
X159930973Y-96380807D01*
X159716955Y-96292158D01*
X159652751Y-96249258D01*
X159524346Y-96163461D01*
X159360539Y-95999654D01*
X159231843Y-95807046D01*
X159231842Y-95807045D01*
X159143193Y-95593027D01*
X159113064Y-95441560D01*
X159098000Y-95365827D01*
X159098000Y-95134173D01*
X159143193Y-94906975D01*
X159143193Y-94906973D01*
X159231842Y-94692955D01*
X159330168Y-94545800D01*
X159360539Y-94500346D01*
X159524346Y-94336539D01*
X159716954Y-94207843D01*
X159716955Y-94207842D01*
X159930973Y-94119193D01*
X160082440Y-94089064D01*
X160158173Y-94074000D01*
X160389827Y-94074000D01*
X160465560Y-94089064D01*
X160465560Y-94089064D01*
G37*
G36*
X165545560Y-94089064D02*
G01*
X165697027Y-94119193D01*
X165911045Y-94207842D01*
X165911046Y-94207843D01*
X166103654Y-94336539D01*
X166267461Y-94500346D01*
X166297832Y-94545800D01*
X166396158Y-94692955D01*
X166484807Y-94906973D01*
X166484807Y-94906975D01*
X166530000Y-95134173D01*
X166530000Y-95365827D01*
X166514936Y-95441560D01*
X166484807Y-95593027D01*
X166396158Y-95807045D01*
X166396157Y-95807046D01*
X166267461Y-95999654D01*
X166103654Y-96163461D01*
X165975249Y-96249258D01*
X165911045Y-96292158D01*
X165697027Y-96380807D01*
X165545560Y-96410936D01*
X165469827Y-96426000D01*
X165238173Y-96426000D01*
X165162440Y-96410936D01*
X165010973Y-96380807D01*
X164796955Y-96292158D01*
X164732751Y-96249258D01*
X164604346Y-96163461D01*
X164440539Y-95999654D01*
X164311843Y-95807046D01*
X164311842Y-95807045D01*
X164223193Y-95593027D01*
X164193064Y-95441560D01*
X164178000Y-95365827D01*
X164178000Y-95134173D01*
X164223193Y-94906975D01*
X164223193Y-94906973D01*
X164311842Y-94692955D01*
X164410168Y-94545800D01*
X164440539Y-94500346D01*
X164604346Y-94336539D01*
X164796954Y-94207843D01*
X164796955Y-94207842D01*
X165010973Y-94119193D01*
X165162440Y-94089064D01*
X165238173Y-94074000D01*
X165469827Y-94074000D01*
X165545560Y-94089064D01*
X165545560Y-94089064D01*
G37*
G36*
X133488843Y-94487492D02*
G01*
X133539588Y-94508511D01*
X133575470Y-94523374D01*
X133653432Y-94575467D01*
X133719733Y-94641768D01*
X133771826Y-94719730D01*
X133771826Y-94719731D01*
X133807708Y-94806357D01*
X133826000Y-94898317D01*
X133826000Y-94992083D01*
X133807708Y-95084043D01*
X133786943Y-95134173D01*
X133771826Y-95170670D01*
X133719733Y-95248632D01*
X133653432Y-95314933D01*
X133575470Y-95367026D01*
X133539588Y-95381889D01*
X133488843Y-95402908D01*
X133396883Y-95421200D01*
X133303117Y-95421200D01*
X133211157Y-95402908D01*
X133160412Y-95381889D01*
X133124530Y-95367026D01*
X133046568Y-95314933D01*
X132980267Y-95248632D01*
X132928174Y-95170670D01*
X132913057Y-95134173D01*
X132892292Y-95084043D01*
X132874000Y-94992083D01*
X132874000Y-94898317D01*
X132892292Y-94806357D01*
X132928174Y-94719731D01*
X132928174Y-94719730D01*
X132980267Y-94641768D01*
X133046568Y-94575467D01*
X133124530Y-94523374D01*
X133160412Y-94508511D01*
X133211157Y-94487492D01*
X133303117Y-94469200D01*
X133396883Y-94469200D01*
X133488843Y-94487492D01*
X133488843Y-94487492D01*
G37*
G36*
X172470221Y-89051440D02*
G01*
X172979969Y-89262585D01*
X172979971Y-89262586D01*
X173438734Y-89569121D01*
X173828879Y-89959266D01*
X174114966Y-90387427D01*
X174135415Y-90418031D01*
X174346560Y-90927779D01*
X174454200Y-91468924D01*
X174454200Y-92020676D01*
X174346560Y-92561821D01*
X174135415Y-93071569D01*
X174135414Y-93071571D01*
X173828879Y-93530334D01*
X173438734Y-93920479D01*
X172979971Y-94227014D01*
X172979970Y-94227015D01*
X172979969Y-94227015D01*
X172470221Y-94438160D01*
X171929076Y-94545800D01*
X171377324Y-94545800D01*
X170836179Y-94438160D01*
X170326431Y-94227015D01*
X170326430Y-94227015D01*
X170326429Y-94227014D01*
X169867666Y-93920479D01*
X169477521Y-93530334D01*
X169170986Y-93071571D01*
X169170985Y-93071569D01*
X168959840Y-92561821D01*
X168852200Y-92020676D01*
X168852200Y-91468924D01*
X168959840Y-90927779D01*
X169170985Y-90418031D01*
X169191434Y-90387427D01*
X169477521Y-89959266D01*
X169867666Y-89569121D01*
X170326429Y-89262586D01*
X170326431Y-89262585D01*
X170836179Y-89051440D01*
X171377324Y-88943800D01*
X171929076Y-88943800D01*
X172470221Y-89051440D01*
X172470221Y-89051440D01*
G37*
G36*
X96016221Y-88797440D02*
G01*
X96525969Y-89008585D01*
X96525971Y-89008586D01*
X96984734Y-89315121D01*
X97374879Y-89705266D01*
X97675898Y-90155774D01*
X97681415Y-90164031D01*
X97892560Y-90673779D01*
X98000200Y-91214924D01*
X98000200Y-91766676D01*
X97892560Y-92307821D01*
X97682074Y-92815977D01*
X97681414Y-92817571D01*
X97374879Y-93276334D01*
X96984734Y-93666479D01*
X96525971Y-93973014D01*
X96525970Y-93973015D01*
X96525969Y-93973015D01*
X96016221Y-94184160D01*
X95475076Y-94291800D01*
X94923324Y-94291800D01*
X94382179Y-94184160D01*
X93872431Y-93973015D01*
X93872430Y-93973015D01*
X93872429Y-93973014D01*
X93413666Y-93666479D01*
X93023521Y-93276334D01*
X92716986Y-92817571D01*
X92716326Y-92815977D01*
X92505840Y-92307821D01*
X92398200Y-91766676D01*
X92398200Y-91214924D01*
X92505840Y-90673779D01*
X92716985Y-90164031D01*
X92722502Y-90155774D01*
X93023521Y-89705266D01*
X93413666Y-89315121D01*
X93872429Y-89008586D01*
X93872431Y-89008585D01*
X94382179Y-88797440D01*
X94923324Y-88689800D01*
X95475076Y-88689800D01*
X96016221Y-88797440D01*
X96016221Y-88797440D01*
G37*
G36*
X152372071Y-91800183D02*
G01*
X152510658Y-91827750D01*
X152706477Y-91908861D01*
X152882710Y-92026616D01*
X153032584Y-92176490D01*
X153150339Y-92352723D01*
X153231450Y-92548542D01*
X153242486Y-92604023D01*
X153267748Y-92731022D01*
X153272800Y-92756423D01*
X153272800Y-92968377D01*
X153231450Y-93176258D01*
X153150339Y-93372077D01*
X153032584Y-93548310D01*
X152882710Y-93698184D01*
X152706477Y-93815939D01*
X152510658Y-93897050D01*
X152392872Y-93920479D01*
X152302778Y-93938400D01*
X152090822Y-93938400D01*
X152000728Y-93920479D01*
X151882942Y-93897050D01*
X151687123Y-93815939D01*
X151510890Y-93698184D01*
X151361016Y-93548310D01*
X151243261Y-93372077D01*
X151162150Y-93176258D01*
X151120800Y-92968377D01*
X151120800Y-92756423D01*
X151125853Y-92731022D01*
X151151114Y-92604023D01*
X151162150Y-92548542D01*
X151243261Y-92352723D01*
X151361016Y-92176490D01*
X151510890Y-92026616D01*
X151687123Y-91908861D01*
X151882942Y-91827750D01*
X152021529Y-91800183D01*
X152090822Y-91786400D01*
X152302778Y-91786400D01*
X152372071Y-91800183D01*
X152372071Y-91800183D01*
G37*
G36*
X141780271Y-91774783D02*
G01*
X141918858Y-91802350D01*
X142114677Y-91883461D01*
X142290910Y-92001216D01*
X142440784Y-92151090D01*
X142558539Y-92327323D01*
X142639650Y-92523142D01*
X142647344Y-92561822D01*
X142681000Y-92731022D01*
X142681000Y-92942978D01*
X142667217Y-93012271D01*
X142639650Y-93150858D01*
X142558539Y-93346677D01*
X142440784Y-93522910D01*
X142290910Y-93672784D01*
X142114677Y-93790539D01*
X141918858Y-93871650D01*
X141791163Y-93897050D01*
X141710978Y-93913000D01*
X141499022Y-93913000D01*
X141418837Y-93897050D01*
X141291142Y-93871650D01*
X141095323Y-93790539D01*
X140919090Y-93672784D01*
X140769216Y-93522910D01*
X140651461Y-93346677D01*
X140570350Y-93150858D01*
X140542783Y-93012271D01*
X140529000Y-92942978D01*
X140529000Y-92731022D01*
X140562656Y-92561822D01*
X140570350Y-92523142D01*
X140651461Y-92327323D01*
X140769216Y-92151090D01*
X140919090Y-92001216D01*
X141095323Y-91883461D01*
X141291142Y-91802350D01*
X141429729Y-91774783D01*
X141499022Y-91761000D01*
X141710978Y-91761000D01*
X141780271Y-91774783D01*
X141780271Y-91774783D01*
G37*
G36*
X104366071Y-91749383D02*
G01*
X104504658Y-91776950D01*
X104700477Y-91858061D01*
X104876710Y-91975816D01*
X105026584Y-92125690D01*
X105144339Y-92301923D01*
X105225450Y-92497742D01*
X105253017Y-92636329D01*
X105266800Y-92705622D01*
X105266800Y-92917578D01*
X105256695Y-92968377D01*
X105225450Y-93125458D01*
X105144339Y-93321277D01*
X105026584Y-93497510D01*
X104876710Y-93647384D01*
X104700477Y-93765139D01*
X104504658Y-93846250D01*
X104376963Y-93871650D01*
X104296778Y-93887600D01*
X104084822Y-93887600D01*
X104004637Y-93871650D01*
X103876942Y-93846250D01*
X103681123Y-93765139D01*
X103504890Y-93647384D01*
X103355016Y-93497510D01*
X103237261Y-93321277D01*
X103156150Y-93125458D01*
X103124905Y-92968377D01*
X103114800Y-92917578D01*
X103114800Y-92705622D01*
X103128583Y-92636329D01*
X103156150Y-92497742D01*
X103237261Y-92301923D01*
X103355016Y-92125690D01*
X103504890Y-91975816D01*
X103681123Y-91858061D01*
X103876942Y-91776950D01*
X104015529Y-91749383D01*
X104084822Y-91735600D01*
X104296778Y-91735600D01*
X104366071Y-91749383D01*
X104366071Y-91749383D01*
G37*
G36*
X126286271Y-91647783D02*
G01*
X126424858Y-91675350D01*
X126620677Y-91756461D01*
X126796910Y-91874216D01*
X126946784Y-92024090D01*
X127064539Y-92200323D01*
X127145650Y-92396142D01*
X127145650Y-92396144D01*
X127187000Y-92604022D01*
X127187000Y-92815978D01*
X127186683Y-92817571D01*
X127145650Y-93023858D01*
X127064539Y-93219677D01*
X126946784Y-93395910D01*
X126796910Y-93545784D01*
X126620677Y-93663539D01*
X126424858Y-93744650D01*
X126286271Y-93772217D01*
X126216978Y-93786000D01*
X126005022Y-93786000D01*
X125935729Y-93772217D01*
X125797142Y-93744650D01*
X125601323Y-93663539D01*
X125425090Y-93545784D01*
X125275216Y-93395910D01*
X125157461Y-93219677D01*
X125076350Y-93023858D01*
X125035317Y-92817571D01*
X125035000Y-92815978D01*
X125035000Y-92604022D01*
X125076350Y-92396144D01*
X125076350Y-92396142D01*
X125157461Y-92200323D01*
X125275216Y-92024090D01*
X125425090Y-91874216D01*
X125601323Y-91756461D01*
X125797142Y-91675350D01*
X125935729Y-91647783D01*
X126005022Y-91634000D01*
X126216978Y-91634000D01*
X126286271Y-91647783D01*
X126286271Y-91647783D01*
G37*
G36*
X162989271Y-91647783D02*
G01*
X163127858Y-91675350D01*
X163323677Y-91756461D01*
X163499910Y-91874216D01*
X163649784Y-92024090D01*
X163767539Y-92200323D01*
X163848650Y-92396142D01*
X163848650Y-92396144D01*
X163890000Y-92604022D01*
X163890000Y-92815978D01*
X163889683Y-92817571D01*
X163848650Y-93023858D01*
X163767539Y-93219677D01*
X163649784Y-93395910D01*
X163499910Y-93545784D01*
X163323677Y-93663539D01*
X163127858Y-93744650D01*
X162989271Y-93772217D01*
X162919978Y-93786000D01*
X162708022Y-93786000D01*
X162638729Y-93772217D01*
X162500142Y-93744650D01*
X162304323Y-93663539D01*
X162128090Y-93545784D01*
X161978216Y-93395910D01*
X161860461Y-93219677D01*
X161779350Y-93023858D01*
X161738317Y-92817571D01*
X161738000Y-92815978D01*
X161738000Y-92604022D01*
X161779350Y-92396144D01*
X161779350Y-92396142D01*
X161860461Y-92200323D01*
X161978216Y-92024090D01*
X162128090Y-91874216D01*
X162304323Y-91756461D01*
X162500142Y-91675350D01*
X162638729Y-91647783D01*
X162708022Y-91634000D01*
X162919978Y-91634000D01*
X162989271Y-91647783D01*
X162989271Y-91647783D01*
G37*
G36*
X115288071Y-91647783D02*
G01*
X115426658Y-91675350D01*
X115622477Y-91756461D01*
X115798710Y-91874216D01*
X115948584Y-92024090D01*
X116066339Y-92200323D01*
X116147450Y-92396142D01*
X116147450Y-92396144D01*
X116188800Y-92604022D01*
X116188800Y-92815978D01*
X116188483Y-92817571D01*
X116147450Y-93023858D01*
X116066339Y-93219677D01*
X115948584Y-93395910D01*
X115798710Y-93545784D01*
X115622477Y-93663539D01*
X115426658Y-93744650D01*
X115288071Y-93772217D01*
X115218778Y-93786000D01*
X115006822Y-93786000D01*
X114937529Y-93772217D01*
X114798942Y-93744650D01*
X114603123Y-93663539D01*
X114426890Y-93545784D01*
X114277016Y-93395910D01*
X114159261Y-93219677D01*
X114078150Y-93023858D01*
X114037117Y-92817571D01*
X114036800Y-92815978D01*
X114036800Y-92604022D01*
X114078150Y-92396144D01*
X114078150Y-92396142D01*
X114159261Y-92200323D01*
X114277016Y-92024090D01*
X114426890Y-91874216D01*
X114603123Y-91756461D01*
X114798942Y-91675350D01*
X114937529Y-91647783D01*
X115006822Y-91634000D01*
X115218778Y-91634000D01*
X115288071Y-91647783D01*
X115288071Y-91647783D01*
G37*
G36*
X154928360Y-89161464D02*
G01*
X155079827Y-89191593D01*
X155293845Y-89280242D01*
X155293846Y-89280243D01*
X155486454Y-89408939D01*
X155650261Y-89572746D01*
X155736058Y-89701151D01*
X155778958Y-89765355D01*
X155867607Y-89979373D01*
X155882486Y-90054174D01*
X155907748Y-90181173D01*
X155912800Y-90206574D01*
X155912800Y-90438226D01*
X155867607Y-90665427D01*
X155778958Y-90879445D01*
X155778957Y-90879446D01*
X155650261Y-91072054D01*
X155486454Y-91235861D01*
X155389255Y-91300807D01*
X155293845Y-91364558D01*
X155079827Y-91453207D01*
X154928360Y-91483336D01*
X154852627Y-91498400D01*
X154620973Y-91498400D01*
X154545240Y-91483336D01*
X154393773Y-91453207D01*
X154179755Y-91364558D01*
X154084345Y-91300807D01*
X153987146Y-91235861D01*
X153823339Y-91072054D01*
X153694643Y-90879446D01*
X153694642Y-90879445D01*
X153605993Y-90665427D01*
X153560800Y-90438226D01*
X153560800Y-90206574D01*
X153565853Y-90181173D01*
X153591114Y-90054174D01*
X153605993Y-89979373D01*
X153694642Y-89765355D01*
X153737542Y-89701151D01*
X153823339Y-89572746D01*
X153987146Y-89408939D01*
X154179754Y-89280243D01*
X154179755Y-89280242D01*
X154393773Y-89191593D01*
X154545240Y-89161464D01*
X154620973Y-89146400D01*
X154852627Y-89146400D01*
X154928360Y-89161464D01*
X154928360Y-89161464D01*
G37*
G36*
X149848360Y-89161464D02*
G01*
X149999827Y-89191593D01*
X150213845Y-89280242D01*
X150213846Y-89280243D01*
X150406454Y-89408939D01*
X150570261Y-89572746D01*
X150656058Y-89701151D01*
X150698958Y-89765355D01*
X150787607Y-89979373D01*
X150802486Y-90054174D01*
X150827748Y-90181173D01*
X150832800Y-90206574D01*
X150832800Y-90438226D01*
X150787607Y-90665427D01*
X150698958Y-90879445D01*
X150698957Y-90879446D01*
X150570261Y-91072054D01*
X150406454Y-91235861D01*
X150309255Y-91300807D01*
X150213845Y-91364558D01*
X149999827Y-91453207D01*
X149848360Y-91483336D01*
X149772627Y-91498400D01*
X149540973Y-91498400D01*
X149465240Y-91483336D01*
X149313773Y-91453207D01*
X149099755Y-91364558D01*
X149004345Y-91300807D01*
X148907146Y-91235861D01*
X148743339Y-91072054D01*
X148614643Y-90879446D01*
X148614642Y-90879445D01*
X148525993Y-90665427D01*
X148480800Y-90438226D01*
X148480800Y-90206574D01*
X148485853Y-90181173D01*
X148511114Y-90054174D01*
X148525993Y-89979373D01*
X148614642Y-89765355D01*
X148657542Y-89701151D01*
X148743339Y-89572746D01*
X148907146Y-89408939D01*
X149099754Y-89280243D01*
X149099755Y-89280242D01*
X149313773Y-89191593D01*
X149465240Y-89161464D01*
X149540973Y-89146400D01*
X149772627Y-89146400D01*
X149848360Y-89161464D01*
X149848360Y-89161464D01*
G37*
G36*
X139256560Y-89136064D02*
G01*
X139408027Y-89166193D01*
X139622045Y-89254842D01*
X139660060Y-89280243D01*
X139814654Y-89383539D01*
X139978461Y-89547346D01*
X140022299Y-89612955D01*
X140107158Y-89739955D01*
X140195807Y-89953973D01*
X140215738Y-90054173D01*
X140241000Y-90181173D01*
X140241000Y-90412827D01*
X140225936Y-90488560D01*
X140195807Y-90640027D01*
X140107158Y-90854045D01*
X140064258Y-90918249D01*
X139978461Y-91046654D01*
X139814654Y-91210461D01*
X139686249Y-91296258D01*
X139622045Y-91339158D01*
X139408027Y-91427807D01*
X139280332Y-91453207D01*
X139180827Y-91473000D01*
X138949173Y-91473000D01*
X138849668Y-91453207D01*
X138721973Y-91427807D01*
X138507955Y-91339158D01*
X138443751Y-91296258D01*
X138315346Y-91210461D01*
X138151539Y-91046654D01*
X138065742Y-90918249D01*
X138022842Y-90854045D01*
X137934193Y-90640027D01*
X137904064Y-90488560D01*
X137889000Y-90412827D01*
X137889000Y-90181173D01*
X137914262Y-90054173D01*
X137934193Y-89953973D01*
X138022842Y-89739955D01*
X138107701Y-89612955D01*
X138151539Y-89547346D01*
X138315346Y-89383539D01*
X138469940Y-89280243D01*
X138507955Y-89254842D01*
X138721973Y-89166193D01*
X138873440Y-89136064D01*
X138949173Y-89121000D01*
X139180827Y-89121000D01*
X139256560Y-89136064D01*
X139256560Y-89136064D01*
G37*
G36*
X144336560Y-89136064D02*
G01*
X144488027Y-89166193D01*
X144702045Y-89254842D01*
X144740060Y-89280243D01*
X144894654Y-89383539D01*
X145058461Y-89547346D01*
X145102299Y-89612955D01*
X145187158Y-89739955D01*
X145275807Y-89953973D01*
X145295738Y-90054173D01*
X145321000Y-90181173D01*
X145321000Y-90412827D01*
X145305936Y-90488560D01*
X145275807Y-90640027D01*
X145187158Y-90854045D01*
X145144258Y-90918249D01*
X145058461Y-91046654D01*
X144894654Y-91210461D01*
X144766249Y-91296258D01*
X144702045Y-91339158D01*
X144488027Y-91427807D01*
X144360332Y-91453207D01*
X144260827Y-91473000D01*
X144029173Y-91473000D01*
X143929668Y-91453207D01*
X143801973Y-91427807D01*
X143587955Y-91339158D01*
X143523751Y-91296258D01*
X143395346Y-91210461D01*
X143231539Y-91046654D01*
X143145742Y-90918249D01*
X143102842Y-90854045D01*
X143014193Y-90640027D01*
X142984064Y-90488560D01*
X142969000Y-90412827D01*
X142969000Y-90181173D01*
X142994262Y-90054173D01*
X143014193Y-89953973D01*
X143102842Y-89739955D01*
X143187701Y-89612955D01*
X143231539Y-89547346D01*
X143395346Y-89383539D01*
X143549940Y-89280243D01*
X143587955Y-89254842D01*
X143801973Y-89166193D01*
X143953440Y-89136064D01*
X144029173Y-89121000D01*
X144260827Y-89121000D01*
X144336560Y-89136064D01*
X144336560Y-89136064D01*
G37*
G36*
X106922360Y-89110664D02*
G01*
X107073827Y-89140793D01*
X107287845Y-89229442D01*
X107325860Y-89254843D01*
X107480454Y-89358139D01*
X107644261Y-89521946D01*
X107675782Y-89569121D01*
X107772958Y-89714555D01*
X107861607Y-89928573D01*
X107891736Y-90080040D01*
X107906800Y-90155773D01*
X107906800Y-90387427D01*
X107900713Y-90418029D01*
X107861607Y-90614627D01*
X107772958Y-90828645D01*
X107739014Y-90879445D01*
X107644261Y-91021254D01*
X107480454Y-91185061D01*
X107404429Y-91235859D01*
X107287845Y-91313758D01*
X107073827Y-91402407D01*
X106946132Y-91427807D01*
X106846627Y-91447600D01*
X106614973Y-91447600D01*
X106515468Y-91427807D01*
X106387773Y-91402407D01*
X106173755Y-91313758D01*
X106057171Y-91235859D01*
X105981146Y-91185061D01*
X105817339Y-91021254D01*
X105722586Y-90879445D01*
X105688642Y-90828645D01*
X105599993Y-90614627D01*
X105560887Y-90418029D01*
X105554800Y-90387427D01*
X105554800Y-90155773D01*
X105569864Y-90080040D01*
X105599993Y-89928573D01*
X105688642Y-89714555D01*
X105785818Y-89569121D01*
X105817339Y-89521946D01*
X105981146Y-89358139D01*
X106135740Y-89254843D01*
X106173755Y-89229442D01*
X106387773Y-89140793D01*
X106539240Y-89110664D01*
X106614973Y-89095600D01*
X106846627Y-89095600D01*
X106922360Y-89110664D01*
X106922360Y-89110664D01*
G37*
G36*
X101842360Y-89110664D02*
G01*
X101993827Y-89140793D01*
X102207845Y-89229442D01*
X102245860Y-89254843D01*
X102400454Y-89358139D01*
X102564261Y-89521946D01*
X102595782Y-89569121D01*
X102692958Y-89714555D01*
X102781607Y-89928573D01*
X102811736Y-90080040D01*
X102826800Y-90155773D01*
X102826800Y-90387427D01*
X102820713Y-90418029D01*
X102781607Y-90614627D01*
X102692958Y-90828645D01*
X102659014Y-90879445D01*
X102564261Y-91021254D01*
X102400454Y-91185061D01*
X102324429Y-91235859D01*
X102207845Y-91313758D01*
X101993827Y-91402407D01*
X101866132Y-91427807D01*
X101766627Y-91447600D01*
X101534973Y-91447600D01*
X101435468Y-91427807D01*
X101307773Y-91402407D01*
X101093755Y-91313758D01*
X100977171Y-91235859D01*
X100901146Y-91185061D01*
X100737339Y-91021254D01*
X100642586Y-90879445D01*
X100608642Y-90828645D01*
X100519993Y-90614627D01*
X100480887Y-90418029D01*
X100474800Y-90387427D01*
X100474800Y-90155773D01*
X100489864Y-90080040D01*
X100519993Y-89928573D01*
X100608642Y-89714555D01*
X100705818Y-89569121D01*
X100737339Y-89521946D01*
X100901146Y-89358139D01*
X101055740Y-89254843D01*
X101093755Y-89229442D01*
X101307773Y-89140793D01*
X101459240Y-89110664D01*
X101534973Y-89095600D01*
X101766627Y-89095600D01*
X101842360Y-89110664D01*
X101842360Y-89110664D01*
G37*
G36*
X117841950Y-89008585D02*
G01*
X117995827Y-89039193D01*
X118209845Y-89127842D01*
X118209846Y-89127843D01*
X118402454Y-89256539D01*
X118566261Y-89420346D01*
X118634146Y-89521944D01*
X118694958Y-89612955D01*
X118783607Y-89826973D01*
X118828800Y-90054174D01*
X118828800Y-90285826D01*
X118783607Y-90513027D01*
X118694958Y-90727045D01*
X118694957Y-90727046D01*
X118566261Y-90919654D01*
X118402454Y-91083461D01*
X118274049Y-91169258D01*
X118209845Y-91212158D01*
X117995827Y-91300807D01*
X117844360Y-91330936D01*
X117768627Y-91346000D01*
X117536973Y-91346000D01*
X117461240Y-91330936D01*
X117309773Y-91300807D01*
X117095755Y-91212158D01*
X117031551Y-91169258D01*
X116903146Y-91083461D01*
X116739339Y-90919654D01*
X116610643Y-90727046D01*
X116610642Y-90727045D01*
X116521993Y-90513027D01*
X116476800Y-90285826D01*
X116476800Y-90054174D01*
X116521993Y-89826973D01*
X116610642Y-89612955D01*
X116671454Y-89521944D01*
X116739339Y-89420346D01*
X116903146Y-89256539D01*
X117095754Y-89127843D01*
X117095755Y-89127842D01*
X117309773Y-89039193D01*
X117463650Y-89008585D01*
X117536973Y-88994000D01*
X117768627Y-88994000D01*
X117841950Y-89008585D01*
X117841950Y-89008585D01*
G37*
G36*
X165543150Y-89008585D02*
G01*
X165697027Y-89039193D01*
X165911045Y-89127842D01*
X165911046Y-89127843D01*
X166103654Y-89256539D01*
X166267461Y-89420346D01*
X166335346Y-89521944D01*
X166396158Y-89612955D01*
X166484807Y-89826973D01*
X166530000Y-90054174D01*
X166530000Y-90285826D01*
X166484807Y-90513027D01*
X166396158Y-90727045D01*
X166396157Y-90727046D01*
X166267461Y-90919654D01*
X166103654Y-91083461D01*
X165975249Y-91169258D01*
X165911045Y-91212158D01*
X165697027Y-91300807D01*
X165545560Y-91330936D01*
X165469827Y-91346000D01*
X165238173Y-91346000D01*
X165162440Y-91330936D01*
X165010973Y-91300807D01*
X164796955Y-91212158D01*
X164732751Y-91169258D01*
X164604346Y-91083461D01*
X164440539Y-90919654D01*
X164311843Y-90727046D01*
X164311842Y-90727045D01*
X164223193Y-90513027D01*
X164178000Y-90285826D01*
X164178000Y-90054174D01*
X164223193Y-89826973D01*
X164311842Y-89612955D01*
X164372654Y-89521944D01*
X164440539Y-89420346D01*
X164604346Y-89256539D01*
X164796954Y-89127843D01*
X164796955Y-89127842D01*
X165010973Y-89039193D01*
X165164850Y-89008585D01*
X165238173Y-88994000D01*
X165469827Y-88994000D01*
X165543150Y-89008585D01*
X165543150Y-89008585D01*
G37*
G36*
X160463150Y-89008585D02*
G01*
X160617027Y-89039193D01*
X160831045Y-89127842D01*
X160831046Y-89127843D01*
X161023654Y-89256539D01*
X161187461Y-89420346D01*
X161255346Y-89521944D01*
X161316158Y-89612955D01*
X161404807Y-89826973D01*
X161450000Y-90054174D01*
X161450000Y-90285826D01*
X161404807Y-90513027D01*
X161316158Y-90727045D01*
X161316157Y-90727046D01*
X161187461Y-90919654D01*
X161023654Y-91083461D01*
X160895249Y-91169258D01*
X160831045Y-91212158D01*
X160617027Y-91300807D01*
X160465560Y-91330936D01*
X160389827Y-91346000D01*
X160158173Y-91346000D01*
X160082440Y-91330936D01*
X159930973Y-91300807D01*
X159716955Y-91212158D01*
X159652751Y-91169258D01*
X159524346Y-91083461D01*
X159360539Y-90919654D01*
X159231843Y-90727046D01*
X159231842Y-90727045D01*
X159143193Y-90513027D01*
X159098000Y-90285826D01*
X159098000Y-90054174D01*
X159143193Y-89826973D01*
X159231842Y-89612955D01*
X159292654Y-89521944D01*
X159360539Y-89420346D01*
X159524346Y-89256539D01*
X159716954Y-89127843D01*
X159716955Y-89127842D01*
X159930973Y-89039193D01*
X160084850Y-89008585D01*
X160158173Y-88994000D01*
X160389827Y-88994000D01*
X160463150Y-89008585D01*
X160463150Y-89008585D01*
G37*
G36*
X128840150Y-89008585D02*
G01*
X128994027Y-89039193D01*
X129208045Y-89127842D01*
X129208046Y-89127843D01*
X129400654Y-89256539D01*
X129564461Y-89420346D01*
X129632346Y-89521944D01*
X129693158Y-89612955D01*
X129781807Y-89826973D01*
X129827000Y-90054174D01*
X129827000Y-90285826D01*
X129781807Y-90513027D01*
X129693158Y-90727045D01*
X129693157Y-90727046D01*
X129564461Y-90919654D01*
X129400654Y-91083461D01*
X129272249Y-91169258D01*
X129208045Y-91212158D01*
X128994027Y-91300807D01*
X128842560Y-91330936D01*
X128766827Y-91346000D01*
X128535173Y-91346000D01*
X128459440Y-91330936D01*
X128307973Y-91300807D01*
X128093955Y-91212158D01*
X128029751Y-91169258D01*
X127901346Y-91083461D01*
X127737539Y-90919654D01*
X127608843Y-90727046D01*
X127608842Y-90727045D01*
X127520193Y-90513027D01*
X127475000Y-90285826D01*
X127475000Y-90054174D01*
X127520193Y-89826973D01*
X127608842Y-89612955D01*
X127669654Y-89521944D01*
X127737539Y-89420346D01*
X127901346Y-89256539D01*
X128093954Y-89127843D01*
X128093955Y-89127842D01*
X128307973Y-89039193D01*
X128461850Y-89008585D01*
X128535173Y-88994000D01*
X128766827Y-88994000D01*
X128840150Y-89008585D01*
X128840150Y-89008585D01*
G37*
G36*
X123760150Y-89008585D02*
G01*
X123914027Y-89039193D01*
X124128045Y-89127842D01*
X124128046Y-89127843D01*
X124320654Y-89256539D01*
X124484461Y-89420346D01*
X124552346Y-89521944D01*
X124613158Y-89612955D01*
X124701807Y-89826973D01*
X124747000Y-90054174D01*
X124747000Y-90285826D01*
X124701807Y-90513027D01*
X124613158Y-90727045D01*
X124613157Y-90727046D01*
X124484461Y-90919654D01*
X124320654Y-91083461D01*
X124192249Y-91169258D01*
X124128045Y-91212158D01*
X123914027Y-91300807D01*
X123762560Y-91330936D01*
X123686827Y-91346000D01*
X123455173Y-91346000D01*
X123379440Y-91330936D01*
X123227973Y-91300807D01*
X123013955Y-91212158D01*
X122949751Y-91169258D01*
X122821346Y-91083461D01*
X122657539Y-90919654D01*
X122528843Y-90727046D01*
X122528842Y-90727045D01*
X122440193Y-90513027D01*
X122395000Y-90285826D01*
X122395000Y-90054174D01*
X122440193Y-89826973D01*
X122528842Y-89612955D01*
X122589654Y-89521944D01*
X122657539Y-89420346D01*
X122821346Y-89256539D01*
X123013954Y-89127843D01*
X123013955Y-89127842D01*
X123227973Y-89039193D01*
X123381850Y-89008585D01*
X123455173Y-88994000D01*
X123686827Y-88994000D01*
X123760150Y-89008585D01*
X123760150Y-89008585D01*
G37*
G36*
X112761950Y-89008585D02*
G01*
X112915827Y-89039193D01*
X113129845Y-89127842D01*
X113129846Y-89127843D01*
X113322454Y-89256539D01*
X113486261Y-89420346D01*
X113554146Y-89521944D01*
X113614958Y-89612955D01*
X113703607Y-89826973D01*
X113748800Y-90054174D01*
X113748800Y-90285826D01*
X113703607Y-90513027D01*
X113614958Y-90727045D01*
X113614957Y-90727046D01*
X113486261Y-90919654D01*
X113322454Y-91083461D01*
X113194049Y-91169258D01*
X113129845Y-91212158D01*
X112915827Y-91300807D01*
X112764360Y-91330936D01*
X112688627Y-91346000D01*
X112456973Y-91346000D01*
X112381240Y-91330936D01*
X112229773Y-91300807D01*
X112015755Y-91212158D01*
X111951551Y-91169258D01*
X111823146Y-91083461D01*
X111659339Y-90919654D01*
X111530643Y-90727046D01*
X111530642Y-90727045D01*
X111441993Y-90513027D01*
X111396800Y-90285826D01*
X111396800Y-90054174D01*
X111441993Y-89826973D01*
X111530642Y-89612955D01*
X111591454Y-89521944D01*
X111659339Y-89420346D01*
X111823146Y-89256539D01*
X112015754Y-89127843D01*
X112015755Y-89127842D01*
X112229773Y-89039193D01*
X112383650Y-89008585D01*
X112456973Y-88994000D01*
X112688627Y-88994000D01*
X112761950Y-89008585D01*
X112761950Y-89008585D01*
G37*
M02*
