M48
; DRILL file {KiCad (5.1.2)-2} date 2019/7/21 11:30:34
; FORMAT={-:-/ absolute / inch / decimal}
; #@! TF.CreationDate,2019-07-21T11:30:34+08:00
; #@! TF.GenerationSoftware,Kicad,Pcbnew,(5.1.2)-2
; #@! TF.FileFunction,Plated,1,2,PTH
FMAT,2
INCH
T1C0.0394
T2C0.1260
%
G90
G05
T1
X5.4Y-3.7
X5.5Y-3.7
X5.6Y-3.7
X5.7Y-3.7
X5.8Y-3.7
X5.9Y-3.7
X6.0Y-3.7
X6.1Y-3.7
X6.2Y-3.7
X6.3Y-3.7
X6.4Y-3.7
X6.5Y-3.7
X6.6Y-3.7
X6.7Y-3.7
X6.8Y-3.7
X6.9Y-3.7
X7.0Y-3.7
X7.1Y-3.7
X7.2Y-3.7
X7.3Y-3.7
X5.4Y-4.25
X5.5Y-4.25
X5.6Y-4.25
X5.7Y-4.25
X5.8Y-4.25
X5.9Y-4.25
X6.0Y-4.25
X6.1Y-4.25
X6.2Y-4.25
X6.3Y-4.25
X6.4Y-4.25
X6.5Y-4.25
X6.6Y-4.25
X6.7Y-4.25
X6.8Y-4.25
X6.9Y-4.25
X7.0Y-4.25
X7.1Y-4.25
X7.2Y-4.25
X7.3Y-4.25
X5.4Y-3.5
X5.4Y-3.6
X5.5Y-3.5
X5.5Y-3.6
X5.6Y-3.5
X5.6Y-3.6
X5.7Y-3.5
X5.7Y-3.6
X5.8Y-3.5
X5.8Y-3.6
X5.9Y-3.5
X5.9Y-3.6
X6.0Y-3.5
X6.0Y-3.6
X6.1Y-3.5
X6.1Y-3.6
X6.2Y-3.5
X6.2Y-3.6
X6.3Y-3.5
X6.3Y-3.6
X6.4Y-3.5
X6.4Y-3.6
X6.5Y-3.5
X6.5Y-3.6
X6.6Y-3.5
X6.6Y-3.6
X6.7Y-3.5
X6.7Y-3.6
X6.8Y-3.5
X6.8Y-3.6
X6.9Y-3.5
X6.9Y-3.6
X7.0Y-3.5
X7.0Y-3.6
X7.1Y-3.5
X7.1Y-3.6
X7.2Y-3.5
X7.2Y-3.6
X7.3Y-3.5
X7.3Y-3.6
X5.4Y-4.05
X5.4Y-4.15
X5.5Y-4.05
X5.5Y-4.15
X5.6Y-4.05
X5.6Y-4.15
X5.7Y-4.05
X5.7Y-4.15
X5.8Y-4.05
X5.8Y-4.15
X5.9Y-4.05
X5.9Y-4.15
X6.0Y-4.05
X6.0Y-4.15
X6.1Y-4.05
X6.1Y-4.15
X6.2Y-4.05
X6.2Y-4.15
X6.3Y-4.05
X6.3Y-4.15
X6.4Y-4.05
X6.4Y-4.15
X6.5Y-4.05
X6.5Y-4.15
X6.6Y-4.05
X6.6Y-4.15
X6.7Y-4.05
X6.7Y-4.15
X6.8Y-4.05
X6.8Y-4.15
X6.9Y-4.05
X6.9Y-4.15
X7.0Y-4.05
X7.0Y-4.15
X7.1Y-4.05
X7.1Y-4.15
X7.2Y-4.05
X7.2Y-4.15
X7.3Y-4.05
X7.3Y-4.15
X5.4Y-4.625
X5.4Y-4.725
X5.5Y-4.625
X5.5Y-4.725
X5.6Y-4.625
X5.6Y-4.725
X5.7Y-4.625
X5.7Y-4.725
X5.8Y-4.625
X5.8Y-4.725
X5.9Y-4.625
X5.9Y-4.725
X6.0Y-4.625
X6.0Y-4.725
X6.1Y-4.625
X6.1Y-4.725
X6.2Y-4.625
X6.2Y-4.725
X6.3Y-4.625
X6.3Y-4.725
X6.4Y-4.625
X6.4Y-4.725
X6.5Y-4.625
X6.5Y-4.725
X6.6Y-4.625
X6.6Y-4.725
X6.7Y-4.625
X6.7Y-4.725
X6.8Y-4.625
X6.8Y-4.725
X6.9Y-4.625
X6.9Y-4.725
X7.0Y-4.625
X7.0Y-4.725
X7.1Y-4.625
X7.1Y-4.725
X7.2Y-4.625
X7.2Y-4.725
X7.3Y-4.625
X7.3Y-4.725
X4.875Y-3.5
X4.875Y-3.6
X4.875Y-3.7
X4.875Y-3.8
X4.875Y-3.9
X4.875Y-4.0
X4.875Y-4.1
X4.875Y-4.2
X4.875Y-4.3
X4.875Y-4.4
X4.875Y-4.5
X4.875Y-4.6
X4.875Y-4.7
X4.875Y-4.8
X4.875Y-4.9
X4.875Y-5.0
X4.875Y-5.1
X4.875Y-5.2
X4.875Y-5.3
X4.875Y-5.4
X4.975Y-3.5
X4.975Y-3.6
X4.975Y-3.7
X4.975Y-3.8
X4.975Y-3.9
X4.975Y-4.0
X4.975Y-4.1
X4.975Y-4.2
X4.975Y-4.3
X4.975Y-4.4
X4.975Y-4.5
X4.975Y-4.6
X4.975Y-4.7
X4.975Y-4.8
X4.975Y-4.9
X4.975Y-5.0
X4.975Y-5.1
X4.975Y-5.2
X4.975Y-5.3
X4.975Y-5.4
X5.4Y-5.375
X5.5Y-5.375
X5.6Y-5.375
X5.7Y-5.375
X5.8Y-5.375
X5.9Y-5.375
X6.0Y-5.375
X6.1Y-5.375
X6.2Y-5.375
X6.3Y-5.375
X6.4Y-5.375
X6.5Y-5.375
X6.6Y-5.375
X6.7Y-5.375
X6.8Y-5.375
X6.9Y-5.375
X7.0Y-5.375
X7.1Y-5.375
X7.2Y-5.375
X7.3Y-5.375
X4.55Y-3.5
X4.55Y-3.6
X4.55Y-3.7
X4.55Y-3.8
X4.55Y-3.9
X4.55Y-4.0
X4.55Y-4.1
X4.55Y-4.2
X4.55Y-4.3
X4.55Y-4.4
X4.55Y-4.5
X4.55Y-4.6
X4.55Y-4.7
X4.55Y-4.8
X4.55Y-4.9
X4.55Y-5.0
X4.55Y-5.1
X4.55Y-5.2
X4.55Y-5.3
X4.55Y-5.4
X4.65Y-3.5
X4.65Y-3.6
X4.65Y-3.7
X4.65Y-3.8
X4.65Y-3.9
X4.65Y-4.0
X4.65Y-4.1
X4.65Y-4.2
X4.65Y-4.3
X4.65Y-4.4
X4.65Y-4.5
X4.65Y-4.6
X4.65Y-4.7
X4.65Y-4.8
X4.65Y-4.9
X4.65Y-5.0
X4.65Y-5.1
X4.65Y-5.2
X4.65Y-5.3
X4.65Y-5.4
X5.4Y-4.825
X5.5Y-4.825
X5.6Y-4.825
X5.7Y-4.825
X5.8Y-4.825
X5.9Y-4.825
X6.0Y-4.825
X6.1Y-4.825
X6.2Y-4.825
X6.3Y-4.825
X6.4Y-4.825
X6.5Y-4.825
X6.6Y-4.825
X6.7Y-4.825
X6.8Y-4.825
X6.9Y-4.825
X7.0Y-4.825
X7.1Y-4.825
X7.2Y-4.825
X7.3Y-4.825
X4.825Y-3.1
X4.9234Y-3.1
X5.4Y-5.175
X5.4Y-5.275
X5.5Y-5.175
X5.5Y-5.275
X5.6Y-5.175
X5.6Y-5.275
X5.7Y-5.175
X5.7Y-5.275
X5.8Y-5.175
X5.8Y-5.275
X5.9Y-5.175
X5.9Y-5.275
X6.0Y-5.175
X6.0Y-5.275
X6.1Y-5.175
X6.1Y-5.275
X6.2Y-5.175
X6.2Y-5.275
X6.3Y-5.175
X6.3Y-5.275
X6.4Y-5.175
X6.4Y-5.275
X6.5Y-5.175
X6.5Y-5.275
X6.6Y-5.175
X6.6Y-5.275
X6.7Y-5.175
X6.7Y-5.275
X6.8Y-5.175
X6.8Y-5.275
X6.9Y-5.175
X6.9Y-5.275
X7.0Y-5.175
X7.0Y-5.275
X7.1Y-5.175
X7.1Y-5.275
X7.2Y-5.175
X7.2Y-5.275
X7.3Y-5.175
X7.3Y-5.275
T2
X4.375Y-5.65
X7.65Y-3.1
X7.625Y-5.65
X4.35Y-3.1
T0
M30
