G04 #@! TF.GenerationSoftware,KiCad,Pcbnew,(5.1.2)-2*
G04 #@! TF.CreationDate,2019-07-08T09:46:09+08:00*
G04 #@! TF.ProjectId,active_filter,61637469-7665-45f6-9669-6c7465722e6b,rev?*
G04 #@! TF.SameCoordinates,Original*
G04 #@! TF.FileFunction,Copper,L2,Bot*
G04 #@! TF.FilePolarity,Positive*
%FSLAX46Y46*%
G04 Gerber Fmt 4.6, Leading zero omitted, Abs format (unit mm)*
G04 Created by KiCad (PCBNEW (5.1.2)-2) date 2019-07-08 09:46:09*
%MOMM*%
%LPD*%
G04 APERTURE LIST*
%ADD10O,1.700000X1.950000*%
%ADD11C,0.100000*%
%ADD12C,1.700000*%
%ADD13O,1.700000X1.700000*%
%ADD14R,1.700000X1.700000*%
%ADD15C,1.000000*%
%ADD16C,5.500000*%
%ADD17C,2.050000*%
%ADD18C,2.250000*%
%ADD19C,0.800000*%
%ADD20C,0.400000*%
%ADD21C,0.254000*%
G04 APERTURE END LIST*
D10*
X142160000Y-106680000D03*
X139660000Y-106680000D03*
D11*
G36*
X137784594Y-105706203D02*
G01*
X137808853Y-105709802D01*
X137832642Y-105715761D01*
X137855733Y-105724023D01*
X137877902Y-105734508D01*
X137898937Y-105747116D01*
X137918635Y-105761725D01*
X137936806Y-105778194D01*
X137953275Y-105796365D01*
X137967884Y-105816063D01*
X137980492Y-105837098D01*
X137990977Y-105859267D01*
X137999239Y-105882358D01*
X138005198Y-105906147D01*
X138008797Y-105930406D01*
X138010000Y-105954900D01*
X138010000Y-107405100D01*
X138008797Y-107429594D01*
X138005198Y-107453853D01*
X137999239Y-107477642D01*
X137990977Y-107500733D01*
X137980492Y-107522902D01*
X137967884Y-107543937D01*
X137953275Y-107563635D01*
X137936806Y-107581806D01*
X137918635Y-107598275D01*
X137898937Y-107612884D01*
X137877902Y-107625492D01*
X137855733Y-107635977D01*
X137832642Y-107644239D01*
X137808853Y-107650198D01*
X137784594Y-107653797D01*
X137760100Y-107655000D01*
X136559900Y-107655000D01*
X136535406Y-107653797D01*
X136511147Y-107650198D01*
X136487358Y-107644239D01*
X136464267Y-107635977D01*
X136442098Y-107625492D01*
X136421063Y-107612884D01*
X136401365Y-107598275D01*
X136383194Y-107581806D01*
X136366725Y-107563635D01*
X136352116Y-107543937D01*
X136339508Y-107522902D01*
X136329023Y-107500733D01*
X136320761Y-107477642D01*
X136314802Y-107453853D01*
X136311203Y-107429594D01*
X136310000Y-107405100D01*
X136310000Y-105954900D01*
X136311203Y-105930406D01*
X136314802Y-105906147D01*
X136320761Y-105882358D01*
X136329023Y-105859267D01*
X136339508Y-105837098D01*
X136352116Y-105816063D01*
X136366725Y-105796365D01*
X136383194Y-105778194D01*
X136401365Y-105761725D01*
X136421063Y-105747116D01*
X136442098Y-105734508D01*
X136464267Y-105724023D01*
X136487358Y-105715761D01*
X136511147Y-105709802D01*
X136535406Y-105706203D01*
X136559900Y-105705000D01*
X137760100Y-105705000D01*
X137784594Y-105706203D01*
X137784594Y-105706203D01*
G37*
D12*
X137160000Y-106680000D03*
D13*
X138430000Y-87630000D03*
X135890000Y-87630000D03*
D14*
X133350000Y-87630000D03*
D13*
X128270000Y-89535000D03*
X128270000Y-86995000D03*
D14*
X128270000Y-84455000D03*
D13*
X147955000Y-88900000D03*
X147955000Y-91440000D03*
D14*
X147955000Y-93980000D03*
D13*
X158115000Y-86995000D03*
X155575000Y-86995000D03*
D14*
X153035000Y-86995000D03*
D15*
X143510000Y-83185000D03*
X170180000Y-84455000D03*
X115570000Y-84455000D03*
D16*
X170815000Y-106680000D03*
X114935000Y-106680000D03*
X171450000Y-76835000D03*
X114300000Y-76835000D03*
D17*
X123190000Y-78105000D03*
D18*
X125730000Y-80645000D03*
X125730000Y-75565000D03*
X120650000Y-75565000D03*
X120650000Y-80645000D03*
X160020000Y-80645000D03*
X160020000Y-75565000D03*
X165100000Y-75565000D03*
X165100000Y-80645000D03*
D17*
X162560000Y-78105000D03*
D18*
X131985001Y-80645000D03*
X131985001Y-75565000D03*
X137065001Y-75565000D03*
X137065001Y-80645000D03*
D17*
X134525001Y-78105000D03*
X151130000Y-78105000D03*
D18*
X153670000Y-80645000D03*
X153670000Y-75565000D03*
X148590000Y-75565000D03*
X148590000Y-80645000D03*
D19*
X140970000Y-104140000D03*
X143510000Y-104140000D03*
X130175000Y-86830000D03*
X131445000Y-90805000D03*
D20*
X140970000Y-104140000D02*
X143510000Y-104140000D01*
X130175000Y-86830000D02*
X130175000Y-89535000D01*
X130175000Y-89535000D02*
X131445000Y-90805000D01*
D21*
G36*
X175235000Y-111100000D02*
G01*
X110515000Y-111100000D01*
X110515000Y-106346607D01*
X111550000Y-106346607D01*
X111550000Y-107013393D01*
X111680083Y-107667368D01*
X111935252Y-108283399D01*
X112305698Y-108837812D01*
X112777188Y-109309302D01*
X113331601Y-109679748D01*
X113947632Y-109934917D01*
X114601607Y-110065000D01*
X115268393Y-110065000D01*
X115922368Y-109934917D01*
X116538399Y-109679748D01*
X117092812Y-109309302D01*
X117564302Y-108837812D01*
X117934748Y-108283399D01*
X118189917Y-107667368D01*
X118320000Y-107013393D01*
X118320000Y-106346607D01*
X118242086Y-105954900D01*
X135671928Y-105954900D01*
X135671928Y-107405100D01*
X135688990Y-107578335D01*
X135739521Y-107744912D01*
X135821578Y-107898431D01*
X135932009Y-108032991D01*
X136066569Y-108143422D01*
X136220088Y-108225479D01*
X136386665Y-108276010D01*
X136559900Y-108293072D01*
X137760100Y-108293072D01*
X137933335Y-108276010D01*
X138099912Y-108225479D01*
X138253431Y-108143422D01*
X138387991Y-108032991D01*
X138498422Y-107898431D01*
X138554738Y-107793071D01*
X138570951Y-107814429D01*
X138788807Y-108007496D01*
X139040142Y-108154352D01*
X139303110Y-108246476D01*
X139533000Y-108125155D01*
X139533000Y-106807000D01*
X139513000Y-106807000D01*
X139513000Y-106553000D01*
X139533000Y-106553000D01*
X139533000Y-105234845D01*
X139787000Y-105234845D01*
X139787000Y-106553000D01*
X139807000Y-106553000D01*
X139807000Y-106807000D01*
X139787000Y-106807000D01*
X139787000Y-108125155D01*
X140016890Y-108246476D01*
X140279858Y-108154352D01*
X140531193Y-108007496D01*
X140749049Y-107814429D01*
X140905538Y-107608278D01*
X140919294Y-107634014D01*
X141104866Y-107860134D01*
X141330987Y-108045706D01*
X141588967Y-108183599D01*
X141868890Y-108268513D01*
X142160000Y-108297185D01*
X142451111Y-108268513D01*
X142731034Y-108183599D01*
X142989014Y-108045706D01*
X143215134Y-107860134D01*
X143400706Y-107634014D01*
X143538599Y-107376033D01*
X143623513Y-107096110D01*
X143645000Y-106877949D01*
X143645000Y-106482050D01*
X143631661Y-106346607D01*
X167430000Y-106346607D01*
X167430000Y-107013393D01*
X167560083Y-107667368D01*
X167815252Y-108283399D01*
X168185698Y-108837812D01*
X168657188Y-109309302D01*
X169211601Y-109679748D01*
X169827632Y-109934917D01*
X170481607Y-110065000D01*
X171148393Y-110065000D01*
X171802368Y-109934917D01*
X172418399Y-109679748D01*
X172972812Y-109309302D01*
X173444302Y-108837812D01*
X173814748Y-108283399D01*
X174069917Y-107667368D01*
X174200000Y-107013393D01*
X174200000Y-106346607D01*
X174069917Y-105692632D01*
X173814748Y-105076601D01*
X173444302Y-104522188D01*
X172972812Y-104050698D01*
X172418399Y-103680252D01*
X171802368Y-103425083D01*
X171148393Y-103295000D01*
X170481607Y-103295000D01*
X169827632Y-103425083D01*
X169211601Y-103680252D01*
X168657188Y-104050698D01*
X168185698Y-104522188D01*
X167815252Y-105076601D01*
X167560083Y-105692632D01*
X167430000Y-106346607D01*
X143631661Y-106346607D01*
X143623513Y-106263889D01*
X143538599Y-105983966D01*
X143400706Y-105725986D01*
X143215134Y-105499866D01*
X142989013Y-105314294D01*
X142731033Y-105176401D01*
X142451110Y-105091487D01*
X142160000Y-105062815D01*
X141868889Y-105091487D01*
X141588966Y-105176401D01*
X141330986Y-105314294D01*
X141104866Y-105499866D01*
X140919294Y-105725987D01*
X140905538Y-105751722D01*
X140749049Y-105545571D01*
X140531193Y-105352504D01*
X140279858Y-105205648D01*
X140016890Y-105113524D01*
X139787000Y-105234845D01*
X139533000Y-105234845D01*
X139303110Y-105113524D01*
X139040142Y-105205648D01*
X138788807Y-105352504D01*
X138570951Y-105545571D01*
X138554738Y-105566929D01*
X138498422Y-105461569D01*
X138387991Y-105327009D01*
X138253431Y-105216578D01*
X138099912Y-105134521D01*
X137933335Y-105083990D01*
X137760100Y-105066928D01*
X136559900Y-105066928D01*
X136386665Y-105083990D01*
X136220088Y-105134521D01*
X136066569Y-105216578D01*
X135932009Y-105327009D01*
X135821578Y-105461569D01*
X135739521Y-105615088D01*
X135688990Y-105781665D01*
X135671928Y-105954900D01*
X118242086Y-105954900D01*
X118189917Y-105692632D01*
X117934748Y-105076601D01*
X117564302Y-104522188D01*
X117092812Y-104050698D01*
X116538399Y-103680252D01*
X115922368Y-103425083D01*
X115268393Y-103295000D01*
X114601607Y-103295000D01*
X113947632Y-103425083D01*
X113331601Y-103680252D01*
X112777188Y-104050698D01*
X112305698Y-104522188D01*
X111935252Y-105076601D01*
X111680083Y-105692632D01*
X111550000Y-106346607D01*
X110515000Y-106346607D01*
X110515000Y-89535000D01*
X126777815Y-89535000D01*
X126806487Y-89826111D01*
X126891401Y-90106034D01*
X127029294Y-90364014D01*
X127214866Y-90590134D01*
X127440986Y-90775706D01*
X127698966Y-90913599D01*
X127978889Y-90998513D01*
X128197050Y-91020000D01*
X128342950Y-91020000D01*
X128561111Y-90998513D01*
X128841034Y-90913599D01*
X129099014Y-90775706D01*
X129325134Y-90590134D01*
X129510706Y-90364014D01*
X129648599Y-90106034D01*
X129733513Y-89826111D01*
X129762185Y-89535000D01*
X129733513Y-89243889D01*
X129648599Y-88963966D01*
X129510706Y-88705986D01*
X129325134Y-88479866D01*
X129099014Y-88294294D01*
X129034477Y-88259799D01*
X129151355Y-88190178D01*
X129367588Y-87995269D01*
X129541641Y-87761920D01*
X129666825Y-87499099D01*
X129711476Y-87351890D01*
X129590155Y-87122000D01*
X128397000Y-87122000D01*
X128397000Y-87142000D01*
X128143000Y-87142000D01*
X128143000Y-87122000D01*
X126949845Y-87122000D01*
X126828524Y-87351890D01*
X126873175Y-87499099D01*
X126998359Y-87761920D01*
X127172412Y-87995269D01*
X127388645Y-88190178D01*
X127505523Y-88259799D01*
X127440986Y-88294294D01*
X127214866Y-88479866D01*
X127029294Y-88705986D01*
X126891401Y-88963966D01*
X126806487Y-89243889D01*
X126777815Y-89535000D01*
X110515000Y-89535000D01*
X110515000Y-85233166D01*
X114971439Y-85233166D01*
X115006550Y-85446588D01*
X115210826Y-85537458D01*
X115428905Y-85586731D01*
X115652406Y-85592511D01*
X115872740Y-85554577D01*
X116081440Y-85474387D01*
X116133450Y-85446588D01*
X116168561Y-85233166D01*
X115570000Y-84634605D01*
X114971439Y-85233166D01*
X110515000Y-85233166D01*
X110515000Y-84537406D01*
X114432489Y-84537406D01*
X114470423Y-84757740D01*
X114550613Y-84966440D01*
X114578412Y-85018450D01*
X114791834Y-85053561D01*
X115390395Y-84455000D01*
X115749605Y-84455000D01*
X116348166Y-85053561D01*
X116561588Y-85018450D01*
X116652458Y-84814174D01*
X116701731Y-84596095D01*
X116707511Y-84372594D01*
X116669577Y-84152260D01*
X116589387Y-83943560D01*
X116561588Y-83891550D01*
X116348166Y-83856439D01*
X115749605Y-84455000D01*
X115390395Y-84455000D01*
X114791834Y-83856439D01*
X114578412Y-83891550D01*
X114487542Y-84095826D01*
X114438269Y-84313905D01*
X114432489Y-84537406D01*
X110515000Y-84537406D01*
X110515000Y-83676834D01*
X114971439Y-83676834D01*
X115570000Y-84275395D01*
X116168561Y-83676834D01*
X116156744Y-83605000D01*
X126781928Y-83605000D01*
X126781928Y-85305000D01*
X126794188Y-85429482D01*
X126830498Y-85549180D01*
X126889463Y-85659494D01*
X126968815Y-85756185D01*
X127065506Y-85835537D01*
X127175820Y-85894502D01*
X127256466Y-85918966D01*
X127172412Y-85994731D01*
X126998359Y-86228080D01*
X126873175Y-86490901D01*
X126828524Y-86638110D01*
X126949845Y-86868000D01*
X128143000Y-86868000D01*
X128143000Y-86848000D01*
X128397000Y-86848000D01*
X128397000Y-86868000D01*
X129590155Y-86868000D01*
X129636595Y-86780000D01*
X131861928Y-86780000D01*
X131861928Y-88480000D01*
X131874188Y-88604482D01*
X131910498Y-88724180D01*
X131969463Y-88834494D01*
X132048815Y-88931185D01*
X132145506Y-89010537D01*
X132255820Y-89069502D01*
X132375518Y-89105812D01*
X132500000Y-89118072D01*
X134200000Y-89118072D01*
X134324482Y-89105812D01*
X134444180Y-89069502D01*
X134554494Y-89010537D01*
X134651185Y-88931185D01*
X134730537Y-88834494D01*
X134789502Y-88724180D01*
X134810393Y-88655313D01*
X134834866Y-88685134D01*
X135060986Y-88870706D01*
X135318966Y-89008599D01*
X135598889Y-89093513D01*
X135817050Y-89115000D01*
X135962950Y-89115000D01*
X136181111Y-89093513D01*
X136461034Y-89008599D01*
X136719014Y-88870706D01*
X136945134Y-88685134D01*
X137130706Y-88459014D01*
X137160000Y-88404209D01*
X137189294Y-88459014D01*
X137374866Y-88685134D01*
X137600986Y-88870706D01*
X137858966Y-89008599D01*
X138138889Y-89093513D01*
X138357050Y-89115000D01*
X138502950Y-89115000D01*
X138721111Y-89093513D01*
X139001034Y-89008599D01*
X139204208Y-88900000D01*
X146462815Y-88900000D01*
X146491487Y-89191111D01*
X146576401Y-89471034D01*
X146714294Y-89729014D01*
X146899866Y-89955134D01*
X147125986Y-90140706D01*
X147180791Y-90170000D01*
X147125986Y-90199294D01*
X146899866Y-90384866D01*
X146714294Y-90610986D01*
X146576401Y-90868966D01*
X146491487Y-91148889D01*
X146462815Y-91440000D01*
X146491487Y-91731111D01*
X146576401Y-92011034D01*
X146714294Y-92269014D01*
X146899866Y-92495134D01*
X146929687Y-92519607D01*
X146860820Y-92540498D01*
X146750506Y-92599463D01*
X146653815Y-92678815D01*
X146574463Y-92775506D01*
X146515498Y-92885820D01*
X146479188Y-93005518D01*
X146466928Y-93130000D01*
X146466928Y-94830000D01*
X146479188Y-94954482D01*
X146515498Y-95074180D01*
X146574463Y-95184494D01*
X146653815Y-95281185D01*
X146750506Y-95360537D01*
X146860820Y-95419502D01*
X146980518Y-95455812D01*
X147105000Y-95468072D01*
X148805000Y-95468072D01*
X148929482Y-95455812D01*
X149049180Y-95419502D01*
X149159494Y-95360537D01*
X149256185Y-95281185D01*
X149335537Y-95184494D01*
X149394502Y-95074180D01*
X149430812Y-94954482D01*
X149443072Y-94830000D01*
X149443072Y-93130000D01*
X149430812Y-93005518D01*
X149394502Y-92885820D01*
X149335537Y-92775506D01*
X149256185Y-92678815D01*
X149159494Y-92599463D01*
X149049180Y-92540498D01*
X148980313Y-92519607D01*
X149010134Y-92495134D01*
X149195706Y-92269014D01*
X149333599Y-92011034D01*
X149418513Y-91731111D01*
X149447185Y-91440000D01*
X149418513Y-91148889D01*
X149333599Y-90868966D01*
X149195706Y-90610986D01*
X149010134Y-90384866D01*
X148784014Y-90199294D01*
X148729209Y-90170000D01*
X148784014Y-90140706D01*
X149010134Y-89955134D01*
X149195706Y-89729014D01*
X149333599Y-89471034D01*
X149418513Y-89191111D01*
X149447185Y-88900000D01*
X149418513Y-88608889D01*
X149333599Y-88328966D01*
X149195706Y-88070986D01*
X149010244Y-87845000D01*
X151546928Y-87845000D01*
X151559188Y-87969482D01*
X151595498Y-88089180D01*
X151654463Y-88199494D01*
X151733815Y-88296185D01*
X151830506Y-88375537D01*
X151940820Y-88434502D01*
X152060518Y-88470812D01*
X152185000Y-88483072D01*
X152749250Y-88480000D01*
X152908000Y-88321250D01*
X152908000Y-87122000D01*
X151708750Y-87122000D01*
X151550000Y-87280750D01*
X151546928Y-87845000D01*
X149010244Y-87845000D01*
X149010134Y-87844866D01*
X148784014Y-87659294D01*
X148526034Y-87521401D01*
X148246111Y-87436487D01*
X148027950Y-87415000D01*
X147882050Y-87415000D01*
X147663889Y-87436487D01*
X147383966Y-87521401D01*
X147125986Y-87659294D01*
X146899866Y-87844866D01*
X146714294Y-88070986D01*
X146576401Y-88328966D01*
X146491487Y-88608889D01*
X146462815Y-88900000D01*
X139204208Y-88900000D01*
X139259014Y-88870706D01*
X139485134Y-88685134D01*
X139670706Y-88459014D01*
X139808599Y-88201034D01*
X139893513Y-87921111D01*
X139922185Y-87630000D01*
X139893513Y-87338889D01*
X139808599Y-87058966D01*
X139670706Y-86800986D01*
X139485134Y-86574866D01*
X139259014Y-86389294D01*
X139001034Y-86251401D01*
X138721111Y-86166487D01*
X138502950Y-86145000D01*
X151546928Y-86145000D01*
X151550000Y-86709250D01*
X151708750Y-86868000D01*
X152908000Y-86868000D01*
X152908000Y-85668750D01*
X153162000Y-85668750D01*
X153162000Y-86868000D01*
X153182000Y-86868000D01*
X153182000Y-87122000D01*
X153162000Y-87122000D01*
X153162000Y-88321250D01*
X153320750Y-88480000D01*
X153885000Y-88483072D01*
X154009482Y-88470812D01*
X154129180Y-88434502D01*
X154239494Y-88375537D01*
X154336185Y-88296185D01*
X154415537Y-88199494D01*
X154474502Y-88089180D01*
X154495393Y-88020313D01*
X154519866Y-88050134D01*
X154745986Y-88235706D01*
X155003966Y-88373599D01*
X155283889Y-88458513D01*
X155502050Y-88480000D01*
X155647950Y-88480000D01*
X155866111Y-88458513D01*
X156146034Y-88373599D01*
X156404014Y-88235706D01*
X156630134Y-88050134D01*
X156815706Y-87824014D01*
X156845000Y-87769209D01*
X156874294Y-87824014D01*
X157059866Y-88050134D01*
X157285986Y-88235706D01*
X157543966Y-88373599D01*
X157823889Y-88458513D01*
X158042050Y-88480000D01*
X158187950Y-88480000D01*
X158406111Y-88458513D01*
X158686034Y-88373599D01*
X158944014Y-88235706D01*
X159170134Y-88050134D01*
X159355706Y-87824014D01*
X159493599Y-87566034D01*
X159578513Y-87286111D01*
X159607185Y-86995000D01*
X159578513Y-86703889D01*
X159493599Y-86423966D01*
X159355706Y-86165986D01*
X159170134Y-85939866D01*
X158944014Y-85754294D01*
X158686034Y-85616401D01*
X158406111Y-85531487D01*
X158187950Y-85510000D01*
X158042050Y-85510000D01*
X157823889Y-85531487D01*
X157543966Y-85616401D01*
X157285986Y-85754294D01*
X157059866Y-85939866D01*
X156874294Y-86165986D01*
X156845000Y-86220791D01*
X156815706Y-86165986D01*
X156630134Y-85939866D01*
X156404014Y-85754294D01*
X156146034Y-85616401D01*
X155866111Y-85531487D01*
X155647950Y-85510000D01*
X155502050Y-85510000D01*
X155283889Y-85531487D01*
X155003966Y-85616401D01*
X154745986Y-85754294D01*
X154519866Y-85939866D01*
X154495393Y-85969687D01*
X154474502Y-85900820D01*
X154415537Y-85790506D01*
X154336185Y-85693815D01*
X154239494Y-85614463D01*
X154129180Y-85555498D01*
X154009482Y-85519188D01*
X153885000Y-85506928D01*
X153320750Y-85510000D01*
X153162000Y-85668750D01*
X152908000Y-85668750D01*
X152749250Y-85510000D01*
X152185000Y-85506928D01*
X152060518Y-85519188D01*
X151940820Y-85555498D01*
X151830506Y-85614463D01*
X151733815Y-85693815D01*
X151654463Y-85790506D01*
X151595498Y-85900820D01*
X151559188Y-86020518D01*
X151546928Y-86145000D01*
X138502950Y-86145000D01*
X138357050Y-86145000D01*
X138138889Y-86166487D01*
X137858966Y-86251401D01*
X137600986Y-86389294D01*
X137374866Y-86574866D01*
X137189294Y-86800986D01*
X137160000Y-86855791D01*
X137130706Y-86800986D01*
X136945134Y-86574866D01*
X136719014Y-86389294D01*
X136461034Y-86251401D01*
X136181111Y-86166487D01*
X135962950Y-86145000D01*
X135817050Y-86145000D01*
X135598889Y-86166487D01*
X135318966Y-86251401D01*
X135060986Y-86389294D01*
X134834866Y-86574866D01*
X134810393Y-86604687D01*
X134789502Y-86535820D01*
X134730537Y-86425506D01*
X134651185Y-86328815D01*
X134554494Y-86249463D01*
X134444180Y-86190498D01*
X134324482Y-86154188D01*
X134200000Y-86141928D01*
X132500000Y-86141928D01*
X132375518Y-86154188D01*
X132255820Y-86190498D01*
X132145506Y-86249463D01*
X132048815Y-86328815D01*
X131969463Y-86425506D01*
X131910498Y-86535820D01*
X131874188Y-86655518D01*
X131861928Y-86780000D01*
X129636595Y-86780000D01*
X129711476Y-86638110D01*
X129666825Y-86490901D01*
X129541641Y-86228080D01*
X129367588Y-85994731D01*
X129283534Y-85918966D01*
X129364180Y-85894502D01*
X129474494Y-85835537D01*
X129571185Y-85756185D01*
X129650537Y-85659494D01*
X129709502Y-85549180D01*
X129745812Y-85429482D01*
X129758072Y-85305000D01*
X129758072Y-85233166D01*
X169581439Y-85233166D01*
X169616550Y-85446588D01*
X169820826Y-85537458D01*
X170038905Y-85586731D01*
X170262406Y-85592511D01*
X170482740Y-85554577D01*
X170691440Y-85474387D01*
X170743450Y-85446588D01*
X170778561Y-85233166D01*
X170180000Y-84634605D01*
X169581439Y-85233166D01*
X129758072Y-85233166D01*
X129758072Y-84537406D01*
X169042489Y-84537406D01*
X169080423Y-84757740D01*
X169160613Y-84966440D01*
X169188412Y-85018450D01*
X169401834Y-85053561D01*
X170000395Y-84455000D01*
X170359605Y-84455000D01*
X170958166Y-85053561D01*
X171171588Y-85018450D01*
X171262458Y-84814174D01*
X171311731Y-84596095D01*
X171317511Y-84372594D01*
X171279577Y-84152260D01*
X171199387Y-83943560D01*
X171171588Y-83891550D01*
X170958166Y-83856439D01*
X170359605Y-84455000D01*
X170000395Y-84455000D01*
X169401834Y-83856439D01*
X169188412Y-83891550D01*
X169097542Y-84095826D01*
X169048269Y-84313905D01*
X169042489Y-84537406D01*
X129758072Y-84537406D01*
X129758072Y-83963166D01*
X142911439Y-83963166D01*
X142946550Y-84176588D01*
X143150826Y-84267458D01*
X143368905Y-84316731D01*
X143592406Y-84322511D01*
X143812740Y-84284577D01*
X144021440Y-84204387D01*
X144073450Y-84176588D01*
X144108561Y-83963166D01*
X143510000Y-83364605D01*
X142911439Y-83963166D01*
X129758072Y-83963166D01*
X129758072Y-83605000D01*
X129745812Y-83480518D01*
X129709502Y-83360820D01*
X129659571Y-83267406D01*
X142372489Y-83267406D01*
X142410423Y-83487740D01*
X142490613Y-83696440D01*
X142518412Y-83748450D01*
X142731834Y-83783561D01*
X143330395Y-83185000D01*
X143689605Y-83185000D01*
X144288166Y-83783561D01*
X144501588Y-83748450D01*
X144533445Y-83676834D01*
X169581439Y-83676834D01*
X170180000Y-84275395D01*
X170778561Y-83676834D01*
X170743450Y-83463412D01*
X170539174Y-83372542D01*
X170321095Y-83323269D01*
X170097594Y-83317489D01*
X169877260Y-83355423D01*
X169668560Y-83435613D01*
X169616550Y-83463412D01*
X169581439Y-83676834D01*
X144533445Y-83676834D01*
X144592458Y-83544174D01*
X144641731Y-83326095D01*
X144647511Y-83102594D01*
X144609577Y-82882260D01*
X144529387Y-82673560D01*
X144501588Y-82621550D01*
X144288166Y-82586439D01*
X143689605Y-83185000D01*
X143330395Y-83185000D01*
X142731834Y-82586439D01*
X142518412Y-82621550D01*
X142427542Y-82825826D01*
X142378269Y-83043905D01*
X142372489Y-83267406D01*
X129659571Y-83267406D01*
X129650537Y-83250506D01*
X129571185Y-83153815D01*
X129474494Y-83074463D01*
X129364180Y-83015498D01*
X129244482Y-82979188D01*
X129120000Y-82966928D01*
X127420000Y-82966928D01*
X127295518Y-82979188D01*
X127175820Y-83015498D01*
X127065506Y-83074463D01*
X126968815Y-83153815D01*
X126889463Y-83250506D01*
X126830498Y-83360820D01*
X126794188Y-83480518D01*
X126781928Y-83605000D01*
X116156744Y-83605000D01*
X116133450Y-83463412D01*
X115929174Y-83372542D01*
X115711095Y-83323269D01*
X115487594Y-83317489D01*
X115267260Y-83355423D01*
X115058560Y-83435613D01*
X115006550Y-83463412D01*
X114971439Y-83676834D01*
X110515000Y-83676834D01*
X110515000Y-81869531D01*
X119605074Y-81869531D01*
X119715921Y-82146714D01*
X120026840Y-82300089D01*
X120361705Y-82389860D01*
X120707650Y-82412576D01*
X121051380Y-82367366D01*
X121379685Y-82255966D01*
X121584079Y-82146714D01*
X121694926Y-81869531D01*
X124685074Y-81869531D01*
X124795921Y-82146714D01*
X125106840Y-82300089D01*
X125441705Y-82389860D01*
X125787650Y-82412576D01*
X126131380Y-82367366D01*
X126459685Y-82255966D01*
X126664079Y-82146714D01*
X126774926Y-81869531D01*
X130940075Y-81869531D01*
X131050922Y-82146714D01*
X131361841Y-82300089D01*
X131696706Y-82389860D01*
X132042651Y-82412576D01*
X132386381Y-82367366D01*
X132714686Y-82255966D01*
X132919080Y-82146714D01*
X133029927Y-81869531D01*
X136020075Y-81869531D01*
X136130922Y-82146714D01*
X136441841Y-82300089D01*
X136776706Y-82389860D01*
X137122651Y-82412576D01*
X137166307Y-82406834D01*
X142911439Y-82406834D01*
X143510000Y-83005395D01*
X144108561Y-82406834D01*
X144073450Y-82193412D01*
X143869174Y-82102542D01*
X143651095Y-82053269D01*
X143427594Y-82047489D01*
X143207260Y-82085423D01*
X142998560Y-82165613D01*
X142946550Y-82193412D01*
X142911439Y-82406834D01*
X137166307Y-82406834D01*
X137466381Y-82367366D01*
X137794686Y-82255966D01*
X137999080Y-82146714D01*
X138109927Y-81869531D01*
X147545074Y-81869531D01*
X147655921Y-82146714D01*
X147966840Y-82300089D01*
X148301705Y-82389860D01*
X148647650Y-82412576D01*
X148991380Y-82367366D01*
X149319685Y-82255966D01*
X149524079Y-82146714D01*
X149634926Y-81869531D01*
X152625074Y-81869531D01*
X152735921Y-82146714D01*
X153046840Y-82300089D01*
X153381705Y-82389860D01*
X153727650Y-82412576D01*
X154071380Y-82367366D01*
X154399685Y-82255966D01*
X154604079Y-82146714D01*
X154714926Y-81869531D01*
X158975074Y-81869531D01*
X159085921Y-82146714D01*
X159396840Y-82300089D01*
X159731705Y-82389860D01*
X160077650Y-82412576D01*
X160421380Y-82367366D01*
X160749685Y-82255966D01*
X160954079Y-82146714D01*
X161064926Y-81869531D01*
X164055074Y-81869531D01*
X164165921Y-82146714D01*
X164476840Y-82300089D01*
X164811705Y-82389860D01*
X165157650Y-82412576D01*
X165501380Y-82367366D01*
X165829685Y-82255966D01*
X166034079Y-82146714D01*
X166144926Y-81869531D01*
X165100000Y-80824605D01*
X164055074Y-81869531D01*
X161064926Y-81869531D01*
X160020000Y-80824605D01*
X158975074Y-81869531D01*
X154714926Y-81869531D01*
X153670000Y-80824605D01*
X152625074Y-81869531D01*
X149634926Y-81869531D01*
X148590000Y-80824605D01*
X147545074Y-81869531D01*
X138109927Y-81869531D01*
X137065001Y-80824605D01*
X136020075Y-81869531D01*
X133029927Y-81869531D01*
X131985001Y-80824605D01*
X130940075Y-81869531D01*
X126774926Y-81869531D01*
X125730000Y-80824605D01*
X124685074Y-81869531D01*
X121694926Y-81869531D01*
X120650000Y-80824605D01*
X119605074Y-81869531D01*
X110515000Y-81869531D01*
X110515000Y-80702650D01*
X118882424Y-80702650D01*
X118927634Y-81046380D01*
X119039034Y-81374685D01*
X119148286Y-81579079D01*
X119425469Y-81689926D01*
X120470395Y-80645000D01*
X120829605Y-80645000D01*
X121874531Y-81689926D01*
X122151714Y-81579079D01*
X122305089Y-81268160D01*
X122394860Y-80933295D01*
X122410004Y-80702650D01*
X123962424Y-80702650D01*
X124007634Y-81046380D01*
X124119034Y-81374685D01*
X124228286Y-81579079D01*
X124505469Y-81689926D01*
X125550395Y-80645000D01*
X125909605Y-80645000D01*
X126954531Y-81689926D01*
X127231714Y-81579079D01*
X127385089Y-81268160D01*
X127474860Y-80933295D01*
X127490004Y-80702650D01*
X130217425Y-80702650D01*
X130262635Y-81046380D01*
X130374035Y-81374685D01*
X130483287Y-81579079D01*
X130760470Y-81689926D01*
X131805396Y-80645000D01*
X132164606Y-80645000D01*
X133209532Y-81689926D01*
X133486715Y-81579079D01*
X133640090Y-81268160D01*
X133729861Y-80933295D01*
X133745005Y-80702650D01*
X135297425Y-80702650D01*
X135342635Y-81046380D01*
X135454035Y-81374685D01*
X135563287Y-81579079D01*
X135840470Y-81689926D01*
X136885396Y-80645000D01*
X137244606Y-80645000D01*
X138289532Y-81689926D01*
X138566715Y-81579079D01*
X138720090Y-81268160D01*
X138809861Y-80933295D01*
X138825005Y-80702650D01*
X146822424Y-80702650D01*
X146867634Y-81046380D01*
X146979034Y-81374685D01*
X147088286Y-81579079D01*
X147365469Y-81689926D01*
X148410395Y-80645000D01*
X148769605Y-80645000D01*
X149814531Y-81689926D01*
X150091714Y-81579079D01*
X150245089Y-81268160D01*
X150334860Y-80933295D01*
X150350004Y-80702650D01*
X151902424Y-80702650D01*
X151947634Y-81046380D01*
X152059034Y-81374685D01*
X152168286Y-81579079D01*
X152445469Y-81689926D01*
X153490395Y-80645000D01*
X153849605Y-80645000D01*
X154894531Y-81689926D01*
X155171714Y-81579079D01*
X155325089Y-81268160D01*
X155414860Y-80933295D01*
X155430004Y-80702650D01*
X158252424Y-80702650D01*
X158297634Y-81046380D01*
X158409034Y-81374685D01*
X158518286Y-81579079D01*
X158795469Y-81689926D01*
X159840395Y-80645000D01*
X160199605Y-80645000D01*
X161244531Y-81689926D01*
X161521714Y-81579079D01*
X161675089Y-81268160D01*
X161764860Y-80933295D01*
X161780004Y-80702650D01*
X163332424Y-80702650D01*
X163377634Y-81046380D01*
X163489034Y-81374685D01*
X163598286Y-81579079D01*
X163875469Y-81689926D01*
X164920395Y-80645000D01*
X165279605Y-80645000D01*
X166324531Y-81689926D01*
X166601714Y-81579079D01*
X166755089Y-81268160D01*
X166844860Y-80933295D01*
X166867576Y-80587350D01*
X166822366Y-80243620D01*
X166710966Y-79915315D01*
X166601714Y-79710921D01*
X166324531Y-79600074D01*
X165279605Y-80645000D01*
X164920395Y-80645000D01*
X163875469Y-79600074D01*
X163598286Y-79710921D01*
X163444911Y-80021840D01*
X163355140Y-80356705D01*
X163332424Y-80702650D01*
X161780004Y-80702650D01*
X161787576Y-80587350D01*
X161742366Y-80243620D01*
X161630966Y-79915315D01*
X161521714Y-79710921D01*
X161244531Y-79600074D01*
X160199605Y-80645000D01*
X159840395Y-80645000D01*
X158795469Y-79600074D01*
X158518286Y-79710921D01*
X158364911Y-80021840D01*
X158275140Y-80356705D01*
X158252424Y-80702650D01*
X155430004Y-80702650D01*
X155437576Y-80587350D01*
X155392366Y-80243620D01*
X155280966Y-79915315D01*
X155171714Y-79710921D01*
X154894531Y-79600074D01*
X153849605Y-80645000D01*
X153490395Y-80645000D01*
X152445469Y-79600074D01*
X152168286Y-79710921D01*
X152014911Y-80021840D01*
X151925140Y-80356705D01*
X151902424Y-80702650D01*
X150350004Y-80702650D01*
X150357576Y-80587350D01*
X150312366Y-80243620D01*
X150200966Y-79915315D01*
X150091714Y-79710921D01*
X149814531Y-79600074D01*
X148769605Y-80645000D01*
X148410395Y-80645000D01*
X147365469Y-79600074D01*
X147088286Y-79710921D01*
X146934911Y-80021840D01*
X146845140Y-80356705D01*
X146822424Y-80702650D01*
X138825005Y-80702650D01*
X138832577Y-80587350D01*
X138787367Y-80243620D01*
X138675967Y-79915315D01*
X138566715Y-79710921D01*
X138289532Y-79600074D01*
X137244606Y-80645000D01*
X136885396Y-80645000D01*
X135840470Y-79600074D01*
X135563287Y-79710921D01*
X135409912Y-80021840D01*
X135320141Y-80356705D01*
X135297425Y-80702650D01*
X133745005Y-80702650D01*
X133752577Y-80587350D01*
X133707367Y-80243620D01*
X133595967Y-79915315D01*
X133486715Y-79710921D01*
X133209532Y-79600074D01*
X132164606Y-80645000D01*
X131805396Y-80645000D01*
X130760470Y-79600074D01*
X130483287Y-79710921D01*
X130329912Y-80021840D01*
X130240141Y-80356705D01*
X130217425Y-80702650D01*
X127490004Y-80702650D01*
X127497576Y-80587350D01*
X127452366Y-80243620D01*
X127340966Y-79915315D01*
X127231714Y-79710921D01*
X126954531Y-79600074D01*
X125909605Y-80645000D01*
X125550395Y-80645000D01*
X124505469Y-79600074D01*
X124228286Y-79710921D01*
X124074911Y-80021840D01*
X123985140Y-80356705D01*
X123962424Y-80702650D01*
X122410004Y-80702650D01*
X122417576Y-80587350D01*
X122372366Y-80243620D01*
X122260966Y-79915315D01*
X122151714Y-79710921D01*
X121874531Y-79600074D01*
X120829605Y-80645000D01*
X120470395Y-80645000D01*
X119425469Y-79600074D01*
X119148286Y-79710921D01*
X118994911Y-80021840D01*
X118905140Y-80356705D01*
X118882424Y-80702650D01*
X110515000Y-80702650D01*
X110515000Y-76501607D01*
X110915000Y-76501607D01*
X110915000Y-77168393D01*
X111045083Y-77822368D01*
X111300252Y-78438399D01*
X111670698Y-78992812D01*
X112142188Y-79464302D01*
X112696601Y-79834748D01*
X113312632Y-80089917D01*
X113966607Y-80220000D01*
X114633393Y-80220000D01*
X115287368Y-80089917D01*
X115903399Y-79834748D01*
X116457812Y-79464302D01*
X116501645Y-79420469D01*
X119605074Y-79420469D01*
X120650000Y-80465395D01*
X121694926Y-79420469D01*
X121584079Y-79143286D01*
X121273160Y-78989911D01*
X120938295Y-78900140D01*
X120592350Y-78877424D01*
X120248620Y-78922634D01*
X119920315Y-79034034D01*
X119715921Y-79143286D01*
X119605074Y-79420469D01*
X116501645Y-79420469D01*
X116929302Y-78992812D01*
X117299748Y-78438399D01*
X117505569Y-77941504D01*
X121530000Y-77941504D01*
X121530000Y-78268496D01*
X121593793Y-78589204D01*
X121718927Y-78891305D01*
X121900594Y-79163188D01*
X122131812Y-79394406D01*
X122403695Y-79576073D01*
X122705796Y-79701207D01*
X123026504Y-79765000D01*
X123353496Y-79765000D01*
X123674204Y-79701207D01*
X123976305Y-79576073D01*
X124209182Y-79420469D01*
X124685074Y-79420469D01*
X125730000Y-80465395D01*
X126774926Y-79420469D01*
X130940075Y-79420469D01*
X131985001Y-80465395D01*
X133029927Y-79420469D01*
X132919080Y-79143286D01*
X132608161Y-78989911D01*
X132273296Y-78900140D01*
X131927351Y-78877424D01*
X131583621Y-78922634D01*
X131255316Y-79034034D01*
X131050922Y-79143286D01*
X130940075Y-79420469D01*
X126774926Y-79420469D01*
X126664079Y-79143286D01*
X126353160Y-78989911D01*
X126018295Y-78900140D01*
X125672350Y-78877424D01*
X125328620Y-78922634D01*
X125000315Y-79034034D01*
X124795921Y-79143286D01*
X124685074Y-79420469D01*
X124209182Y-79420469D01*
X124248188Y-79394406D01*
X124479406Y-79163188D01*
X124661073Y-78891305D01*
X124786207Y-78589204D01*
X124850000Y-78268496D01*
X124850000Y-77941504D01*
X132865001Y-77941504D01*
X132865001Y-78268496D01*
X132928794Y-78589204D01*
X133053928Y-78891305D01*
X133235595Y-79163188D01*
X133466813Y-79394406D01*
X133738696Y-79576073D01*
X134040797Y-79701207D01*
X134361505Y-79765000D01*
X134688497Y-79765000D01*
X135009205Y-79701207D01*
X135311306Y-79576073D01*
X135544183Y-79420469D01*
X136020075Y-79420469D01*
X137065001Y-80465395D01*
X138109927Y-79420469D01*
X147545074Y-79420469D01*
X148590000Y-80465395D01*
X149634926Y-79420469D01*
X149524079Y-79143286D01*
X149213160Y-78989911D01*
X148878295Y-78900140D01*
X148532350Y-78877424D01*
X148188620Y-78922634D01*
X147860315Y-79034034D01*
X147655921Y-79143286D01*
X147545074Y-79420469D01*
X138109927Y-79420469D01*
X137999080Y-79143286D01*
X137688161Y-78989911D01*
X137353296Y-78900140D01*
X137007351Y-78877424D01*
X136663621Y-78922634D01*
X136335316Y-79034034D01*
X136130922Y-79143286D01*
X136020075Y-79420469D01*
X135544183Y-79420469D01*
X135583189Y-79394406D01*
X135814407Y-79163188D01*
X135996074Y-78891305D01*
X136121208Y-78589204D01*
X136185001Y-78268496D01*
X136185001Y-77941504D01*
X149470000Y-77941504D01*
X149470000Y-78268496D01*
X149533793Y-78589204D01*
X149658927Y-78891305D01*
X149840594Y-79163188D01*
X150071812Y-79394406D01*
X150343695Y-79576073D01*
X150645796Y-79701207D01*
X150966504Y-79765000D01*
X151293496Y-79765000D01*
X151614204Y-79701207D01*
X151916305Y-79576073D01*
X152149182Y-79420469D01*
X152625074Y-79420469D01*
X153670000Y-80465395D01*
X154714926Y-79420469D01*
X158975074Y-79420469D01*
X160020000Y-80465395D01*
X161064926Y-79420469D01*
X160954079Y-79143286D01*
X160643160Y-78989911D01*
X160308295Y-78900140D01*
X159962350Y-78877424D01*
X159618620Y-78922634D01*
X159290315Y-79034034D01*
X159085921Y-79143286D01*
X158975074Y-79420469D01*
X154714926Y-79420469D01*
X154604079Y-79143286D01*
X154293160Y-78989911D01*
X153958295Y-78900140D01*
X153612350Y-78877424D01*
X153268620Y-78922634D01*
X152940315Y-79034034D01*
X152735921Y-79143286D01*
X152625074Y-79420469D01*
X152149182Y-79420469D01*
X152188188Y-79394406D01*
X152419406Y-79163188D01*
X152601073Y-78891305D01*
X152726207Y-78589204D01*
X152790000Y-78268496D01*
X152790000Y-77941504D01*
X160900000Y-77941504D01*
X160900000Y-78268496D01*
X160963793Y-78589204D01*
X161088927Y-78891305D01*
X161270594Y-79163188D01*
X161501812Y-79394406D01*
X161773695Y-79576073D01*
X162075796Y-79701207D01*
X162396504Y-79765000D01*
X162723496Y-79765000D01*
X163044204Y-79701207D01*
X163346305Y-79576073D01*
X163579182Y-79420469D01*
X164055074Y-79420469D01*
X165100000Y-80465395D01*
X166144926Y-79420469D01*
X166034079Y-79143286D01*
X165723160Y-78989911D01*
X165388295Y-78900140D01*
X165042350Y-78877424D01*
X164698620Y-78922634D01*
X164370315Y-79034034D01*
X164165921Y-79143286D01*
X164055074Y-79420469D01*
X163579182Y-79420469D01*
X163618188Y-79394406D01*
X163849406Y-79163188D01*
X164031073Y-78891305D01*
X164156207Y-78589204D01*
X164220000Y-78268496D01*
X164220000Y-77941504D01*
X164156207Y-77620796D01*
X164031073Y-77318695D01*
X163849406Y-77046812D01*
X163618188Y-76815594D01*
X163579183Y-76789531D01*
X164055074Y-76789531D01*
X164165921Y-77066714D01*
X164476840Y-77220089D01*
X164811705Y-77309860D01*
X165157650Y-77332576D01*
X165501380Y-77287366D01*
X165829685Y-77175966D01*
X166034079Y-77066714D01*
X166144926Y-76789531D01*
X165100000Y-75744605D01*
X164055074Y-76789531D01*
X163579183Y-76789531D01*
X163346305Y-76633927D01*
X163044204Y-76508793D01*
X162723496Y-76445000D01*
X162396504Y-76445000D01*
X162075796Y-76508793D01*
X161773695Y-76633927D01*
X161501812Y-76815594D01*
X161270594Y-77046812D01*
X161088927Y-77318695D01*
X160963793Y-77620796D01*
X160900000Y-77941504D01*
X152790000Y-77941504D01*
X152726207Y-77620796D01*
X152601073Y-77318695D01*
X152419406Y-77046812D01*
X152188188Y-76815594D01*
X152149183Y-76789531D01*
X152625074Y-76789531D01*
X152735921Y-77066714D01*
X153046840Y-77220089D01*
X153381705Y-77309860D01*
X153727650Y-77332576D01*
X154071380Y-77287366D01*
X154399685Y-77175966D01*
X154604079Y-77066714D01*
X154714926Y-76789531D01*
X158975074Y-76789531D01*
X159085921Y-77066714D01*
X159396840Y-77220089D01*
X159731705Y-77309860D01*
X160077650Y-77332576D01*
X160421380Y-77287366D01*
X160749685Y-77175966D01*
X160954079Y-77066714D01*
X161064926Y-76789531D01*
X160020000Y-75744605D01*
X158975074Y-76789531D01*
X154714926Y-76789531D01*
X153670000Y-75744605D01*
X152625074Y-76789531D01*
X152149183Y-76789531D01*
X151916305Y-76633927D01*
X151614204Y-76508793D01*
X151293496Y-76445000D01*
X150966504Y-76445000D01*
X150645796Y-76508793D01*
X150343695Y-76633927D01*
X150071812Y-76815594D01*
X149840594Y-77046812D01*
X149658927Y-77318695D01*
X149533793Y-77620796D01*
X149470000Y-77941504D01*
X136185001Y-77941504D01*
X136121208Y-77620796D01*
X135996074Y-77318695D01*
X135814407Y-77046812D01*
X135583189Y-76815594D01*
X135544184Y-76789531D01*
X136020075Y-76789531D01*
X136130922Y-77066714D01*
X136441841Y-77220089D01*
X136776706Y-77309860D01*
X137122651Y-77332576D01*
X137466381Y-77287366D01*
X137794686Y-77175966D01*
X137999080Y-77066714D01*
X138109927Y-76789531D01*
X147545074Y-76789531D01*
X147655921Y-77066714D01*
X147966840Y-77220089D01*
X148301705Y-77309860D01*
X148647650Y-77332576D01*
X148991380Y-77287366D01*
X149319685Y-77175966D01*
X149524079Y-77066714D01*
X149634926Y-76789531D01*
X148590000Y-75744605D01*
X147545074Y-76789531D01*
X138109927Y-76789531D01*
X137065001Y-75744605D01*
X136020075Y-76789531D01*
X135544184Y-76789531D01*
X135311306Y-76633927D01*
X135009205Y-76508793D01*
X134688497Y-76445000D01*
X134361505Y-76445000D01*
X134040797Y-76508793D01*
X133738696Y-76633927D01*
X133466813Y-76815594D01*
X133235595Y-77046812D01*
X133053928Y-77318695D01*
X132928794Y-77620796D01*
X132865001Y-77941504D01*
X124850000Y-77941504D01*
X124786207Y-77620796D01*
X124661073Y-77318695D01*
X124479406Y-77046812D01*
X124248188Y-76815594D01*
X124209183Y-76789531D01*
X124685074Y-76789531D01*
X124795921Y-77066714D01*
X125106840Y-77220089D01*
X125441705Y-77309860D01*
X125787650Y-77332576D01*
X126131380Y-77287366D01*
X126459685Y-77175966D01*
X126664079Y-77066714D01*
X126774926Y-76789531D01*
X130940075Y-76789531D01*
X131050922Y-77066714D01*
X131361841Y-77220089D01*
X131696706Y-77309860D01*
X132042651Y-77332576D01*
X132386381Y-77287366D01*
X132714686Y-77175966D01*
X132919080Y-77066714D01*
X133029927Y-76789531D01*
X131985001Y-75744605D01*
X130940075Y-76789531D01*
X126774926Y-76789531D01*
X125730000Y-75744605D01*
X124685074Y-76789531D01*
X124209183Y-76789531D01*
X123976305Y-76633927D01*
X123674204Y-76508793D01*
X123353496Y-76445000D01*
X123026504Y-76445000D01*
X122705796Y-76508793D01*
X122403695Y-76633927D01*
X122131812Y-76815594D01*
X121900594Y-77046812D01*
X121718927Y-77318695D01*
X121593793Y-77620796D01*
X121530000Y-77941504D01*
X117505569Y-77941504D01*
X117554917Y-77822368D01*
X117685000Y-77168393D01*
X117685000Y-76789531D01*
X119605074Y-76789531D01*
X119715921Y-77066714D01*
X120026840Y-77220089D01*
X120361705Y-77309860D01*
X120707650Y-77332576D01*
X121051380Y-77287366D01*
X121379685Y-77175966D01*
X121584079Y-77066714D01*
X121694926Y-76789531D01*
X120650000Y-75744605D01*
X119605074Y-76789531D01*
X117685000Y-76789531D01*
X117685000Y-76501607D01*
X117554917Y-75847632D01*
X117461727Y-75622650D01*
X118882424Y-75622650D01*
X118927634Y-75966380D01*
X119039034Y-76294685D01*
X119148286Y-76499079D01*
X119425469Y-76609926D01*
X120470395Y-75565000D01*
X120829605Y-75565000D01*
X121874531Y-76609926D01*
X122151714Y-76499079D01*
X122305089Y-76188160D01*
X122394860Y-75853295D01*
X122410004Y-75622650D01*
X123962424Y-75622650D01*
X124007634Y-75966380D01*
X124119034Y-76294685D01*
X124228286Y-76499079D01*
X124505469Y-76609926D01*
X125550395Y-75565000D01*
X125909605Y-75565000D01*
X126954531Y-76609926D01*
X127231714Y-76499079D01*
X127385089Y-76188160D01*
X127474860Y-75853295D01*
X127490004Y-75622650D01*
X130217425Y-75622650D01*
X130262635Y-75966380D01*
X130374035Y-76294685D01*
X130483287Y-76499079D01*
X130760470Y-76609926D01*
X131805396Y-75565000D01*
X132164606Y-75565000D01*
X133209532Y-76609926D01*
X133486715Y-76499079D01*
X133640090Y-76188160D01*
X133729861Y-75853295D01*
X133745005Y-75622650D01*
X135297425Y-75622650D01*
X135342635Y-75966380D01*
X135454035Y-76294685D01*
X135563287Y-76499079D01*
X135840470Y-76609926D01*
X136885396Y-75565000D01*
X137244606Y-75565000D01*
X138289532Y-76609926D01*
X138566715Y-76499079D01*
X138720090Y-76188160D01*
X138809861Y-75853295D01*
X138825005Y-75622650D01*
X146822424Y-75622650D01*
X146867634Y-75966380D01*
X146979034Y-76294685D01*
X147088286Y-76499079D01*
X147365469Y-76609926D01*
X148410395Y-75565000D01*
X148769605Y-75565000D01*
X149814531Y-76609926D01*
X150091714Y-76499079D01*
X150245089Y-76188160D01*
X150334860Y-75853295D01*
X150350004Y-75622650D01*
X151902424Y-75622650D01*
X151947634Y-75966380D01*
X152059034Y-76294685D01*
X152168286Y-76499079D01*
X152445469Y-76609926D01*
X153490395Y-75565000D01*
X153849605Y-75565000D01*
X154894531Y-76609926D01*
X155171714Y-76499079D01*
X155325089Y-76188160D01*
X155414860Y-75853295D01*
X155430004Y-75622650D01*
X158252424Y-75622650D01*
X158297634Y-75966380D01*
X158409034Y-76294685D01*
X158518286Y-76499079D01*
X158795469Y-76609926D01*
X159840395Y-75565000D01*
X160199605Y-75565000D01*
X161244531Y-76609926D01*
X161521714Y-76499079D01*
X161675089Y-76188160D01*
X161764860Y-75853295D01*
X161780004Y-75622650D01*
X163332424Y-75622650D01*
X163377634Y-75966380D01*
X163489034Y-76294685D01*
X163598286Y-76499079D01*
X163875469Y-76609926D01*
X164920395Y-75565000D01*
X165279605Y-75565000D01*
X166324531Y-76609926D01*
X166595392Y-76501607D01*
X168065000Y-76501607D01*
X168065000Y-77168393D01*
X168195083Y-77822368D01*
X168450252Y-78438399D01*
X168820698Y-78992812D01*
X169292188Y-79464302D01*
X169846601Y-79834748D01*
X170462632Y-80089917D01*
X171116607Y-80220000D01*
X171783393Y-80220000D01*
X172437368Y-80089917D01*
X173053399Y-79834748D01*
X173607812Y-79464302D01*
X174079302Y-78992812D01*
X174449748Y-78438399D01*
X174704917Y-77822368D01*
X174835000Y-77168393D01*
X174835000Y-76501607D01*
X174704917Y-75847632D01*
X174449748Y-75231601D01*
X174079302Y-74677188D01*
X173607812Y-74205698D01*
X173053399Y-73835252D01*
X172437368Y-73580083D01*
X171783393Y-73450000D01*
X171116607Y-73450000D01*
X170462632Y-73580083D01*
X169846601Y-73835252D01*
X169292188Y-74205698D01*
X168820698Y-74677188D01*
X168450252Y-75231601D01*
X168195083Y-75847632D01*
X168065000Y-76501607D01*
X166595392Y-76501607D01*
X166601714Y-76499079D01*
X166755089Y-76188160D01*
X166844860Y-75853295D01*
X166867576Y-75507350D01*
X166822366Y-75163620D01*
X166710966Y-74835315D01*
X166601714Y-74630921D01*
X166324531Y-74520074D01*
X165279605Y-75565000D01*
X164920395Y-75565000D01*
X163875469Y-74520074D01*
X163598286Y-74630921D01*
X163444911Y-74941840D01*
X163355140Y-75276705D01*
X163332424Y-75622650D01*
X161780004Y-75622650D01*
X161787576Y-75507350D01*
X161742366Y-75163620D01*
X161630966Y-74835315D01*
X161521714Y-74630921D01*
X161244531Y-74520074D01*
X160199605Y-75565000D01*
X159840395Y-75565000D01*
X158795469Y-74520074D01*
X158518286Y-74630921D01*
X158364911Y-74941840D01*
X158275140Y-75276705D01*
X158252424Y-75622650D01*
X155430004Y-75622650D01*
X155437576Y-75507350D01*
X155392366Y-75163620D01*
X155280966Y-74835315D01*
X155171714Y-74630921D01*
X154894531Y-74520074D01*
X153849605Y-75565000D01*
X153490395Y-75565000D01*
X152445469Y-74520074D01*
X152168286Y-74630921D01*
X152014911Y-74941840D01*
X151925140Y-75276705D01*
X151902424Y-75622650D01*
X150350004Y-75622650D01*
X150357576Y-75507350D01*
X150312366Y-75163620D01*
X150200966Y-74835315D01*
X150091714Y-74630921D01*
X149814531Y-74520074D01*
X148769605Y-75565000D01*
X148410395Y-75565000D01*
X147365469Y-74520074D01*
X147088286Y-74630921D01*
X146934911Y-74941840D01*
X146845140Y-75276705D01*
X146822424Y-75622650D01*
X138825005Y-75622650D01*
X138832577Y-75507350D01*
X138787367Y-75163620D01*
X138675967Y-74835315D01*
X138566715Y-74630921D01*
X138289532Y-74520074D01*
X137244606Y-75565000D01*
X136885396Y-75565000D01*
X135840470Y-74520074D01*
X135563287Y-74630921D01*
X135409912Y-74941840D01*
X135320141Y-75276705D01*
X135297425Y-75622650D01*
X133745005Y-75622650D01*
X133752577Y-75507350D01*
X133707367Y-75163620D01*
X133595967Y-74835315D01*
X133486715Y-74630921D01*
X133209532Y-74520074D01*
X132164606Y-75565000D01*
X131805396Y-75565000D01*
X130760470Y-74520074D01*
X130483287Y-74630921D01*
X130329912Y-74941840D01*
X130240141Y-75276705D01*
X130217425Y-75622650D01*
X127490004Y-75622650D01*
X127497576Y-75507350D01*
X127452366Y-75163620D01*
X127340966Y-74835315D01*
X127231714Y-74630921D01*
X126954531Y-74520074D01*
X125909605Y-75565000D01*
X125550395Y-75565000D01*
X124505469Y-74520074D01*
X124228286Y-74630921D01*
X124074911Y-74941840D01*
X123985140Y-75276705D01*
X123962424Y-75622650D01*
X122410004Y-75622650D01*
X122417576Y-75507350D01*
X122372366Y-75163620D01*
X122260966Y-74835315D01*
X122151714Y-74630921D01*
X121874531Y-74520074D01*
X120829605Y-75565000D01*
X120470395Y-75565000D01*
X119425469Y-74520074D01*
X119148286Y-74630921D01*
X118994911Y-74941840D01*
X118905140Y-75276705D01*
X118882424Y-75622650D01*
X117461727Y-75622650D01*
X117299748Y-75231601D01*
X116929302Y-74677188D01*
X116592583Y-74340469D01*
X119605074Y-74340469D01*
X120650000Y-75385395D01*
X121694926Y-74340469D01*
X124685074Y-74340469D01*
X125730000Y-75385395D01*
X126774926Y-74340469D01*
X130940075Y-74340469D01*
X131985001Y-75385395D01*
X133029927Y-74340469D01*
X136020075Y-74340469D01*
X137065001Y-75385395D01*
X138109927Y-74340469D01*
X147545074Y-74340469D01*
X148590000Y-75385395D01*
X149634926Y-74340469D01*
X152625074Y-74340469D01*
X153670000Y-75385395D01*
X154714926Y-74340469D01*
X158975074Y-74340469D01*
X160020000Y-75385395D01*
X161064926Y-74340469D01*
X164055074Y-74340469D01*
X165100000Y-75385395D01*
X166144926Y-74340469D01*
X166034079Y-74063286D01*
X165723160Y-73909911D01*
X165388295Y-73820140D01*
X165042350Y-73797424D01*
X164698620Y-73842634D01*
X164370315Y-73954034D01*
X164165921Y-74063286D01*
X164055074Y-74340469D01*
X161064926Y-74340469D01*
X160954079Y-74063286D01*
X160643160Y-73909911D01*
X160308295Y-73820140D01*
X159962350Y-73797424D01*
X159618620Y-73842634D01*
X159290315Y-73954034D01*
X159085921Y-74063286D01*
X158975074Y-74340469D01*
X154714926Y-74340469D01*
X154604079Y-74063286D01*
X154293160Y-73909911D01*
X153958295Y-73820140D01*
X153612350Y-73797424D01*
X153268620Y-73842634D01*
X152940315Y-73954034D01*
X152735921Y-74063286D01*
X152625074Y-74340469D01*
X149634926Y-74340469D01*
X149524079Y-74063286D01*
X149213160Y-73909911D01*
X148878295Y-73820140D01*
X148532350Y-73797424D01*
X148188620Y-73842634D01*
X147860315Y-73954034D01*
X147655921Y-74063286D01*
X147545074Y-74340469D01*
X138109927Y-74340469D01*
X137999080Y-74063286D01*
X137688161Y-73909911D01*
X137353296Y-73820140D01*
X137007351Y-73797424D01*
X136663621Y-73842634D01*
X136335316Y-73954034D01*
X136130922Y-74063286D01*
X136020075Y-74340469D01*
X133029927Y-74340469D01*
X132919080Y-74063286D01*
X132608161Y-73909911D01*
X132273296Y-73820140D01*
X131927351Y-73797424D01*
X131583621Y-73842634D01*
X131255316Y-73954034D01*
X131050922Y-74063286D01*
X130940075Y-74340469D01*
X126774926Y-74340469D01*
X126664079Y-74063286D01*
X126353160Y-73909911D01*
X126018295Y-73820140D01*
X125672350Y-73797424D01*
X125328620Y-73842634D01*
X125000315Y-73954034D01*
X124795921Y-74063286D01*
X124685074Y-74340469D01*
X121694926Y-74340469D01*
X121584079Y-74063286D01*
X121273160Y-73909911D01*
X120938295Y-73820140D01*
X120592350Y-73797424D01*
X120248620Y-73842634D01*
X119920315Y-73954034D01*
X119715921Y-74063286D01*
X119605074Y-74340469D01*
X116592583Y-74340469D01*
X116457812Y-74205698D01*
X115903399Y-73835252D01*
X115287368Y-73580083D01*
X114633393Y-73450000D01*
X113966607Y-73450000D01*
X113312632Y-73580083D01*
X112696601Y-73835252D01*
X112142188Y-74205698D01*
X111670698Y-74677188D01*
X111300252Y-75231601D01*
X111045083Y-75847632D01*
X110915000Y-76501607D01*
X110515000Y-76501607D01*
X110515000Y-72415000D01*
X175235001Y-72415000D01*
X175235000Y-111100000D01*
X175235000Y-111100000D01*
G37*
X175235000Y-111100000D02*
X110515000Y-111100000D01*
X110515000Y-106346607D01*
X111550000Y-106346607D01*
X111550000Y-107013393D01*
X111680083Y-107667368D01*
X111935252Y-108283399D01*
X112305698Y-108837812D01*
X112777188Y-109309302D01*
X113331601Y-109679748D01*
X113947632Y-109934917D01*
X114601607Y-110065000D01*
X115268393Y-110065000D01*
X115922368Y-109934917D01*
X116538399Y-109679748D01*
X117092812Y-109309302D01*
X117564302Y-108837812D01*
X117934748Y-108283399D01*
X118189917Y-107667368D01*
X118320000Y-107013393D01*
X118320000Y-106346607D01*
X118242086Y-105954900D01*
X135671928Y-105954900D01*
X135671928Y-107405100D01*
X135688990Y-107578335D01*
X135739521Y-107744912D01*
X135821578Y-107898431D01*
X135932009Y-108032991D01*
X136066569Y-108143422D01*
X136220088Y-108225479D01*
X136386665Y-108276010D01*
X136559900Y-108293072D01*
X137760100Y-108293072D01*
X137933335Y-108276010D01*
X138099912Y-108225479D01*
X138253431Y-108143422D01*
X138387991Y-108032991D01*
X138498422Y-107898431D01*
X138554738Y-107793071D01*
X138570951Y-107814429D01*
X138788807Y-108007496D01*
X139040142Y-108154352D01*
X139303110Y-108246476D01*
X139533000Y-108125155D01*
X139533000Y-106807000D01*
X139513000Y-106807000D01*
X139513000Y-106553000D01*
X139533000Y-106553000D01*
X139533000Y-105234845D01*
X139787000Y-105234845D01*
X139787000Y-106553000D01*
X139807000Y-106553000D01*
X139807000Y-106807000D01*
X139787000Y-106807000D01*
X139787000Y-108125155D01*
X140016890Y-108246476D01*
X140279858Y-108154352D01*
X140531193Y-108007496D01*
X140749049Y-107814429D01*
X140905538Y-107608278D01*
X140919294Y-107634014D01*
X141104866Y-107860134D01*
X141330987Y-108045706D01*
X141588967Y-108183599D01*
X141868890Y-108268513D01*
X142160000Y-108297185D01*
X142451111Y-108268513D01*
X142731034Y-108183599D01*
X142989014Y-108045706D01*
X143215134Y-107860134D01*
X143400706Y-107634014D01*
X143538599Y-107376033D01*
X143623513Y-107096110D01*
X143645000Y-106877949D01*
X143645000Y-106482050D01*
X143631661Y-106346607D01*
X167430000Y-106346607D01*
X167430000Y-107013393D01*
X167560083Y-107667368D01*
X167815252Y-108283399D01*
X168185698Y-108837812D01*
X168657188Y-109309302D01*
X169211601Y-109679748D01*
X169827632Y-109934917D01*
X170481607Y-110065000D01*
X171148393Y-110065000D01*
X171802368Y-109934917D01*
X172418399Y-109679748D01*
X172972812Y-109309302D01*
X173444302Y-108837812D01*
X173814748Y-108283399D01*
X174069917Y-107667368D01*
X174200000Y-107013393D01*
X174200000Y-106346607D01*
X174069917Y-105692632D01*
X173814748Y-105076601D01*
X173444302Y-104522188D01*
X172972812Y-104050698D01*
X172418399Y-103680252D01*
X171802368Y-103425083D01*
X171148393Y-103295000D01*
X170481607Y-103295000D01*
X169827632Y-103425083D01*
X169211601Y-103680252D01*
X168657188Y-104050698D01*
X168185698Y-104522188D01*
X167815252Y-105076601D01*
X167560083Y-105692632D01*
X167430000Y-106346607D01*
X143631661Y-106346607D01*
X143623513Y-106263889D01*
X143538599Y-105983966D01*
X143400706Y-105725986D01*
X143215134Y-105499866D01*
X142989013Y-105314294D01*
X142731033Y-105176401D01*
X142451110Y-105091487D01*
X142160000Y-105062815D01*
X141868889Y-105091487D01*
X141588966Y-105176401D01*
X141330986Y-105314294D01*
X141104866Y-105499866D01*
X140919294Y-105725987D01*
X140905538Y-105751722D01*
X140749049Y-105545571D01*
X140531193Y-105352504D01*
X140279858Y-105205648D01*
X140016890Y-105113524D01*
X139787000Y-105234845D01*
X139533000Y-105234845D01*
X139303110Y-105113524D01*
X139040142Y-105205648D01*
X138788807Y-105352504D01*
X138570951Y-105545571D01*
X138554738Y-105566929D01*
X138498422Y-105461569D01*
X138387991Y-105327009D01*
X138253431Y-105216578D01*
X138099912Y-105134521D01*
X137933335Y-105083990D01*
X137760100Y-105066928D01*
X136559900Y-105066928D01*
X136386665Y-105083990D01*
X136220088Y-105134521D01*
X136066569Y-105216578D01*
X135932009Y-105327009D01*
X135821578Y-105461569D01*
X135739521Y-105615088D01*
X135688990Y-105781665D01*
X135671928Y-105954900D01*
X118242086Y-105954900D01*
X118189917Y-105692632D01*
X117934748Y-105076601D01*
X117564302Y-104522188D01*
X117092812Y-104050698D01*
X116538399Y-103680252D01*
X115922368Y-103425083D01*
X115268393Y-103295000D01*
X114601607Y-103295000D01*
X113947632Y-103425083D01*
X113331601Y-103680252D01*
X112777188Y-104050698D01*
X112305698Y-104522188D01*
X111935252Y-105076601D01*
X111680083Y-105692632D01*
X111550000Y-106346607D01*
X110515000Y-106346607D01*
X110515000Y-89535000D01*
X126777815Y-89535000D01*
X126806487Y-89826111D01*
X126891401Y-90106034D01*
X127029294Y-90364014D01*
X127214866Y-90590134D01*
X127440986Y-90775706D01*
X127698966Y-90913599D01*
X127978889Y-90998513D01*
X128197050Y-91020000D01*
X128342950Y-91020000D01*
X128561111Y-90998513D01*
X128841034Y-90913599D01*
X129099014Y-90775706D01*
X129325134Y-90590134D01*
X129510706Y-90364014D01*
X129648599Y-90106034D01*
X129733513Y-89826111D01*
X129762185Y-89535000D01*
X129733513Y-89243889D01*
X129648599Y-88963966D01*
X129510706Y-88705986D01*
X129325134Y-88479866D01*
X129099014Y-88294294D01*
X129034477Y-88259799D01*
X129151355Y-88190178D01*
X129367588Y-87995269D01*
X129541641Y-87761920D01*
X129666825Y-87499099D01*
X129711476Y-87351890D01*
X129590155Y-87122000D01*
X128397000Y-87122000D01*
X128397000Y-87142000D01*
X128143000Y-87142000D01*
X128143000Y-87122000D01*
X126949845Y-87122000D01*
X126828524Y-87351890D01*
X126873175Y-87499099D01*
X126998359Y-87761920D01*
X127172412Y-87995269D01*
X127388645Y-88190178D01*
X127505523Y-88259799D01*
X127440986Y-88294294D01*
X127214866Y-88479866D01*
X127029294Y-88705986D01*
X126891401Y-88963966D01*
X126806487Y-89243889D01*
X126777815Y-89535000D01*
X110515000Y-89535000D01*
X110515000Y-85233166D01*
X114971439Y-85233166D01*
X115006550Y-85446588D01*
X115210826Y-85537458D01*
X115428905Y-85586731D01*
X115652406Y-85592511D01*
X115872740Y-85554577D01*
X116081440Y-85474387D01*
X116133450Y-85446588D01*
X116168561Y-85233166D01*
X115570000Y-84634605D01*
X114971439Y-85233166D01*
X110515000Y-85233166D01*
X110515000Y-84537406D01*
X114432489Y-84537406D01*
X114470423Y-84757740D01*
X114550613Y-84966440D01*
X114578412Y-85018450D01*
X114791834Y-85053561D01*
X115390395Y-84455000D01*
X115749605Y-84455000D01*
X116348166Y-85053561D01*
X116561588Y-85018450D01*
X116652458Y-84814174D01*
X116701731Y-84596095D01*
X116707511Y-84372594D01*
X116669577Y-84152260D01*
X116589387Y-83943560D01*
X116561588Y-83891550D01*
X116348166Y-83856439D01*
X115749605Y-84455000D01*
X115390395Y-84455000D01*
X114791834Y-83856439D01*
X114578412Y-83891550D01*
X114487542Y-84095826D01*
X114438269Y-84313905D01*
X114432489Y-84537406D01*
X110515000Y-84537406D01*
X110515000Y-83676834D01*
X114971439Y-83676834D01*
X115570000Y-84275395D01*
X116168561Y-83676834D01*
X116156744Y-83605000D01*
X126781928Y-83605000D01*
X126781928Y-85305000D01*
X126794188Y-85429482D01*
X126830498Y-85549180D01*
X126889463Y-85659494D01*
X126968815Y-85756185D01*
X127065506Y-85835537D01*
X127175820Y-85894502D01*
X127256466Y-85918966D01*
X127172412Y-85994731D01*
X126998359Y-86228080D01*
X126873175Y-86490901D01*
X126828524Y-86638110D01*
X126949845Y-86868000D01*
X128143000Y-86868000D01*
X128143000Y-86848000D01*
X128397000Y-86848000D01*
X128397000Y-86868000D01*
X129590155Y-86868000D01*
X129636595Y-86780000D01*
X131861928Y-86780000D01*
X131861928Y-88480000D01*
X131874188Y-88604482D01*
X131910498Y-88724180D01*
X131969463Y-88834494D01*
X132048815Y-88931185D01*
X132145506Y-89010537D01*
X132255820Y-89069502D01*
X132375518Y-89105812D01*
X132500000Y-89118072D01*
X134200000Y-89118072D01*
X134324482Y-89105812D01*
X134444180Y-89069502D01*
X134554494Y-89010537D01*
X134651185Y-88931185D01*
X134730537Y-88834494D01*
X134789502Y-88724180D01*
X134810393Y-88655313D01*
X134834866Y-88685134D01*
X135060986Y-88870706D01*
X135318966Y-89008599D01*
X135598889Y-89093513D01*
X135817050Y-89115000D01*
X135962950Y-89115000D01*
X136181111Y-89093513D01*
X136461034Y-89008599D01*
X136719014Y-88870706D01*
X136945134Y-88685134D01*
X137130706Y-88459014D01*
X137160000Y-88404209D01*
X137189294Y-88459014D01*
X137374866Y-88685134D01*
X137600986Y-88870706D01*
X137858966Y-89008599D01*
X138138889Y-89093513D01*
X138357050Y-89115000D01*
X138502950Y-89115000D01*
X138721111Y-89093513D01*
X139001034Y-89008599D01*
X139204208Y-88900000D01*
X146462815Y-88900000D01*
X146491487Y-89191111D01*
X146576401Y-89471034D01*
X146714294Y-89729014D01*
X146899866Y-89955134D01*
X147125986Y-90140706D01*
X147180791Y-90170000D01*
X147125986Y-90199294D01*
X146899866Y-90384866D01*
X146714294Y-90610986D01*
X146576401Y-90868966D01*
X146491487Y-91148889D01*
X146462815Y-91440000D01*
X146491487Y-91731111D01*
X146576401Y-92011034D01*
X146714294Y-92269014D01*
X146899866Y-92495134D01*
X146929687Y-92519607D01*
X146860820Y-92540498D01*
X146750506Y-92599463D01*
X146653815Y-92678815D01*
X146574463Y-92775506D01*
X146515498Y-92885820D01*
X146479188Y-93005518D01*
X146466928Y-93130000D01*
X146466928Y-94830000D01*
X146479188Y-94954482D01*
X146515498Y-95074180D01*
X146574463Y-95184494D01*
X146653815Y-95281185D01*
X146750506Y-95360537D01*
X146860820Y-95419502D01*
X146980518Y-95455812D01*
X147105000Y-95468072D01*
X148805000Y-95468072D01*
X148929482Y-95455812D01*
X149049180Y-95419502D01*
X149159494Y-95360537D01*
X149256185Y-95281185D01*
X149335537Y-95184494D01*
X149394502Y-95074180D01*
X149430812Y-94954482D01*
X149443072Y-94830000D01*
X149443072Y-93130000D01*
X149430812Y-93005518D01*
X149394502Y-92885820D01*
X149335537Y-92775506D01*
X149256185Y-92678815D01*
X149159494Y-92599463D01*
X149049180Y-92540498D01*
X148980313Y-92519607D01*
X149010134Y-92495134D01*
X149195706Y-92269014D01*
X149333599Y-92011034D01*
X149418513Y-91731111D01*
X149447185Y-91440000D01*
X149418513Y-91148889D01*
X149333599Y-90868966D01*
X149195706Y-90610986D01*
X149010134Y-90384866D01*
X148784014Y-90199294D01*
X148729209Y-90170000D01*
X148784014Y-90140706D01*
X149010134Y-89955134D01*
X149195706Y-89729014D01*
X149333599Y-89471034D01*
X149418513Y-89191111D01*
X149447185Y-88900000D01*
X149418513Y-88608889D01*
X149333599Y-88328966D01*
X149195706Y-88070986D01*
X149010244Y-87845000D01*
X151546928Y-87845000D01*
X151559188Y-87969482D01*
X151595498Y-88089180D01*
X151654463Y-88199494D01*
X151733815Y-88296185D01*
X151830506Y-88375537D01*
X151940820Y-88434502D01*
X152060518Y-88470812D01*
X152185000Y-88483072D01*
X152749250Y-88480000D01*
X152908000Y-88321250D01*
X152908000Y-87122000D01*
X151708750Y-87122000D01*
X151550000Y-87280750D01*
X151546928Y-87845000D01*
X149010244Y-87845000D01*
X149010134Y-87844866D01*
X148784014Y-87659294D01*
X148526034Y-87521401D01*
X148246111Y-87436487D01*
X148027950Y-87415000D01*
X147882050Y-87415000D01*
X147663889Y-87436487D01*
X147383966Y-87521401D01*
X147125986Y-87659294D01*
X146899866Y-87844866D01*
X146714294Y-88070986D01*
X146576401Y-88328966D01*
X146491487Y-88608889D01*
X146462815Y-88900000D01*
X139204208Y-88900000D01*
X139259014Y-88870706D01*
X139485134Y-88685134D01*
X139670706Y-88459014D01*
X139808599Y-88201034D01*
X139893513Y-87921111D01*
X139922185Y-87630000D01*
X139893513Y-87338889D01*
X139808599Y-87058966D01*
X139670706Y-86800986D01*
X139485134Y-86574866D01*
X139259014Y-86389294D01*
X139001034Y-86251401D01*
X138721111Y-86166487D01*
X138502950Y-86145000D01*
X151546928Y-86145000D01*
X151550000Y-86709250D01*
X151708750Y-86868000D01*
X152908000Y-86868000D01*
X152908000Y-85668750D01*
X153162000Y-85668750D01*
X153162000Y-86868000D01*
X153182000Y-86868000D01*
X153182000Y-87122000D01*
X153162000Y-87122000D01*
X153162000Y-88321250D01*
X153320750Y-88480000D01*
X153885000Y-88483072D01*
X154009482Y-88470812D01*
X154129180Y-88434502D01*
X154239494Y-88375537D01*
X154336185Y-88296185D01*
X154415537Y-88199494D01*
X154474502Y-88089180D01*
X154495393Y-88020313D01*
X154519866Y-88050134D01*
X154745986Y-88235706D01*
X155003966Y-88373599D01*
X155283889Y-88458513D01*
X155502050Y-88480000D01*
X155647950Y-88480000D01*
X155866111Y-88458513D01*
X156146034Y-88373599D01*
X156404014Y-88235706D01*
X156630134Y-88050134D01*
X156815706Y-87824014D01*
X156845000Y-87769209D01*
X156874294Y-87824014D01*
X157059866Y-88050134D01*
X157285986Y-88235706D01*
X157543966Y-88373599D01*
X157823889Y-88458513D01*
X158042050Y-88480000D01*
X158187950Y-88480000D01*
X158406111Y-88458513D01*
X158686034Y-88373599D01*
X158944014Y-88235706D01*
X159170134Y-88050134D01*
X159355706Y-87824014D01*
X159493599Y-87566034D01*
X159578513Y-87286111D01*
X159607185Y-86995000D01*
X159578513Y-86703889D01*
X159493599Y-86423966D01*
X159355706Y-86165986D01*
X159170134Y-85939866D01*
X158944014Y-85754294D01*
X158686034Y-85616401D01*
X158406111Y-85531487D01*
X158187950Y-85510000D01*
X158042050Y-85510000D01*
X157823889Y-85531487D01*
X157543966Y-85616401D01*
X157285986Y-85754294D01*
X157059866Y-85939866D01*
X156874294Y-86165986D01*
X156845000Y-86220791D01*
X156815706Y-86165986D01*
X156630134Y-85939866D01*
X156404014Y-85754294D01*
X156146034Y-85616401D01*
X155866111Y-85531487D01*
X155647950Y-85510000D01*
X155502050Y-85510000D01*
X155283889Y-85531487D01*
X155003966Y-85616401D01*
X154745986Y-85754294D01*
X154519866Y-85939866D01*
X154495393Y-85969687D01*
X154474502Y-85900820D01*
X154415537Y-85790506D01*
X154336185Y-85693815D01*
X154239494Y-85614463D01*
X154129180Y-85555498D01*
X154009482Y-85519188D01*
X153885000Y-85506928D01*
X153320750Y-85510000D01*
X153162000Y-85668750D01*
X152908000Y-85668750D01*
X152749250Y-85510000D01*
X152185000Y-85506928D01*
X152060518Y-85519188D01*
X151940820Y-85555498D01*
X151830506Y-85614463D01*
X151733815Y-85693815D01*
X151654463Y-85790506D01*
X151595498Y-85900820D01*
X151559188Y-86020518D01*
X151546928Y-86145000D01*
X138502950Y-86145000D01*
X138357050Y-86145000D01*
X138138889Y-86166487D01*
X137858966Y-86251401D01*
X137600986Y-86389294D01*
X137374866Y-86574866D01*
X137189294Y-86800986D01*
X137160000Y-86855791D01*
X137130706Y-86800986D01*
X136945134Y-86574866D01*
X136719014Y-86389294D01*
X136461034Y-86251401D01*
X136181111Y-86166487D01*
X135962950Y-86145000D01*
X135817050Y-86145000D01*
X135598889Y-86166487D01*
X135318966Y-86251401D01*
X135060986Y-86389294D01*
X134834866Y-86574866D01*
X134810393Y-86604687D01*
X134789502Y-86535820D01*
X134730537Y-86425506D01*
X134651185Y-86328815D01*
X134554494Y-86249463D01*
X134444180Y-86190498D01*
X134324482Y-86154188D01*
X134200000Y-86141928D01*
X132500000Y-86141928D01*
X132375518Y-86154188D01*
X132255820Y-86190498D01*
X132145506Y-86249463D01*
X132048815Y-86328815D01*
X131969463Y-86425506D01*
X131910498Y-86535820D01*
X131874188Y-86655518D01*
X131861928Y-86780000D01*
X129636595Y-86780000D01*
X129711476Y-86638110D01*
X129666825Y-86490901D01*
X129541641Y-86228080D01*
X129367588Y-85994731D01*
X129283534Y-85918966D01*
X129364180Y-85894502D01*
X129474494Y-85835537D01*
X129571185Y-85756185D01*
X129650537Y-85659494D01*
X129709502Y-85549180D01*
X129745812Y-85429482D01*
X129758072Y-85305000D01*
X129758072Y-85233166D01*
X169581439Y-85233166D01*
X169616550Y-85446588D01*
X169820826Y-85537458D01*
X170038905Y-85586731D01*
X170262406Y-85592511D01*
X170482740Y-85554577D01*
X170691440Y-85474387D01*
X170743450Y-85446588D01*
X170778561Y-85233166D01*
X170180000Y-84634605D01*
X169581439Y-85233166D01*
X129758072Y-85233166D01*
X129758072Y-84537406D01*
X169042489Y-84537406D01*
X169080423Y-84757740D01*
X169160613Y-84966440D01*
X169188412Y-85018450D01*
X169401834Y-85053561D01*
X170000395Y-84455000D01*
X170359605Y-84455000D01*
X170958166Y-85053561D01*
X171171588Y-85018450D01*
X171262458Y-84814174D01*
X171311731Y-84596095D01*
X171317511Y-84372594D01*
X171279577Y-84152260D01*
X171199387Y-83943560D01*
X171171588Y-83891550D01*
X170958166Y-83856439D01*
X170359605Y-84455000D01*
X170000395Y-84455000D01*
X169401834Y-83856439D01*
X169188412Y-83891550D01*
X169097542Y-84095826D01*
X169048269Y-84313905D01*
X169042489Y-84537406D01*
X129758072Y-84537406D01*
X129758072Y-83963166D01*
X142911439Y-83963166D01*
X142946550Y-84176588D01*
X143150826Y-84267458D01*
X143368905Y-84316731D01*
X143592406Y-84322511D01*
X143812740Y-84284577D01*
X144021440Y-84204387D01*
X144073450Y-84176588D01*
X144108561Y-83963166D01*
X143510000Y-83364605D01*
X142911439Y-83963166D01*
X129758072Y-83963166D01*
X129758072Y-83605000D01*
X129745812Y-83480518D01*
X129709502Y-83360820D01*
X129659571Y-83267406D01*
X142372489Y-83267406D01*
X142410423Y-83487740D01*
X142490613Y-83696440D01*
X142518412Y-83748450D01*
X142731834Y-83783561D01*
X143330395Y-83185000D01*
X143689605Y-83185000D01*
X144288166Y-83783561D01*
X144501588Y-83748450D01*
X144533445Y-83676834D01*
X169581439Y-83676834D01*
X170180000Y-84275395D01*
X170778561Y-83676834D01*
X170743450Y-83463412D01*
X170539174Y-83372542D01*
X170321095Y-83323269D01*
X170097594Y-83317489D01*
X169877260Y-83355423D01*
X169668560Y-83435613D01*
X169616550Y-83463412D01*
X169581439Y-83676834D01*
X144533445Y-83676834D01*
X144592458Y-83544174D01*
X144641731Y-83326095D01*
X144647511Y-83102594D01*
X144609577Y-82882260D01*
X144529387Y-82673560D01*
X144501588Y-82621550D01*
X144288166Y-82586439D01*
X143689605Y-83185000D01*
X143330395Y-83185000D01*
X142731834Y-82586439D01*
X142518412Y-82621550D01*
X142427542Y-82825826D01*
X142378269Y-83043905D01*
X142372489Y-83267406D01*
X129659571Y-83267406D01*
X129650537Y-83250506D01*
X129571185Y-83153815D01*
X129474494Y-83074463D01*
X129364180Y-83015498D01*
X129244482Y-82979188D01*
X129120000Y-82966928D01*
X127420000Y-82966928D01*
X127295518Y-82979188D01*
X127175820Y-83015498D01*
X127065506Y-83074463D01*
X126968815Y-83153815D01*
X126889463Y-83250506D01*
X126830498Y-83360820D01*
X126794188Y-83480518D01*
X126781928Y-83605000D01*
X116156744Y-83605000D01*
X116133450Y-83463412D01*
X115929174Y-83372542D01*
X115711095Y-83323269D01*
X115487594Y-83317489D01*
X115267260Y-83355423D01*
X115058560Y-83435613D01*
X115006550Y-83463412D01*
X114971439Y-83676834D01*
X110515000Y-83676834D01*
X110515000Y-81869531D01*
X119605074Y-81869531D01*
X119715921Y-82146714D01*
X120026840Y-82300089D01*
X120361705Y-82389860D01*
X120707650Y-82412576D01*
X121051380Y-82367366D01*
X121379685Y-82255966D01*
X121584079Y-82146714D01*
X121694926Y-81869531D01*
X124685074Y-81869531D01*
X124795921Y-82146714D01*
X125106840Y-82300089D01*
X125441705Y-82389860D01*
X125787650Y-82412576D01*
X126131380Y-82367366D01*
X126459685Y-82255966D01*
X126664079Y-82146714D01*
X126774926Y-81869531D01*
X130940075Y-81869531D01*
X131050922Y-82146714D01*
X131361841Y-82300089D01*
X131696706Y-82389860D01*
X132042651Y-82412576D01*
X132386381Y-82367366D01*
X132714686Y-82255966D01*
X132919080Y-82146714D01*
X133029927Y-81869531D01*
X136020075Y-81869531D01*
X136130922Y-82146714D01*
X136441841Y-82300089D01*
X136776706Y-82389860D01*
X137122651Y-82412576D01*
X137166307Y-82406834D01*
X142911439Y-82406834D01*
X143510000Y-83005395D01*
X144108561Y-82406834D01*
X144073450Y-82193412D01*
X143869174Y-82102542D01*
X143651095Y-82053269D01*
X143427594Y-82047489D01*
X143207260Y-82085423D01*
X142998560Y-82165613D01*
X142946550Y-82193412D01*
X142911439Y-82406834D01*
X137166307Y-82406834D01*
X137466381Y-82367366D01*
X137794686Y-82255966D01*
X137999080Y-82146714D01*
X138109927Y-81869531D01*
X147545074Y-81869531D01*
X147655921Y-82146714D01*
X147966840Y-82300089D01*
X148301705Y-82389860D01*
X148647650Y-82412576D01*
X148991380Y-82367366D01*
X149319685Y-82255966D01*
X149524079Y-82146714D01*
X149634926Y-81869531D01*
X152625074Y-81869531D01*
X152735921Y-82146714D01*
X153046840Y-82300089D01*
X153381705Y-82389860D01*
X153727650Y-82412576D01*
X154071380Y-82367366D01*
X154399685Y-82255966D01*
X154604079Y-82146714D01*
X154714926Y-81869531D01*
X158975074Y-81869531D01*
X159085921Y-82146714D01*
X159396840Y-82300089D01*
X159731705Y-82389860D01*
X160077650Y-82412576D01*
X160421380Y-82367366D01*
X160749685Y-82255966D01*
X160954079Y-82146714D01*
X161064926Y-81869531D01*
X164055074Y-81869531D01*
X164165921Y-82146714D01*
X164476840Y-82300089D01*
X164811705Y-82389860D01*
X165157650Y-82412576D01*
X165501380Y-82367366D01*
X165829685Y-82255966D01*
X166034079Y-82146714D01*
X166144926Y-81869531D01*
X165100000Y-80824605D01*
X164055074Y-81869531D01*
X161064926Y-81869531D01*
X160020000Y-80824605D01*
X158975074Y-81869531D01*
X154714926Y-81869531D01*
X153670000Y-80824605D01*
X152625074Y-81869531D01*
X149634926Y-81869531D01*
X148590000Y-80824605D01*
X147545074Y-81869531D01*
X138109927Y-81869531D01*
X137065001Y-80824605D01*
X136020075Y-81869531D01*
X133029927Y-81869531D01*
X131985001Y-80824605D01*
X130940075Y-81869531D01*
X126774926Y-81869531D01*
X125730000Y-80824605D01*
X124685074Y-81869531D01*
X121694926Y-81869531D01*
X120650000Y-80824605D01*
X119605074Y-81869531D01*
X110515000Y-81869531D01*
X110515000Y-80702650D01*
X118882424Y-80702650D01*
X118927634Y-81046380D01*
X119039034Y-81374685D01*
X119148286Y-81579079D01*
X119425469Y-81689926D01*
X120470395Y-80645000D01*
X120829605Y-80645000D01*
X121874531Y-81689926D01*
X122151714Y-81579079D01*
X122305089Y-81268160D01*
X122394860Y-80933295D01*
X122410004Y-80702650D01*
X123962424Y-80702650D01*
X124007634Y-81046380D01*
X124119034Y-81374685D01*
X124228286Y-81579079D01*
X124505469Y-81689926D01*
X125550395Y-80645000D01*
X125909605Y-80645000D01*
X126954531Y-81689926D01*
X127231714Y-81579079D01*
X127385089Y-81268160D01*
X127474860Y-80933295D01*
X127490004Y-80702650D01*
X130217425Y-80702650D01*
X130262635Y-81046380D01*
X130374035Y-81374685D01*
X130483287Y-81579079D01*
X130760470Y-81689926D01*
X131805396Y-80645000D01*
X132164606Y-80645000D01*
X133209532Y-81689926D01*
X133486715Y-81579079D01*
X133640090Y-81268160D01*
X133729861Y-80933295D01*
X133745005Y-80702650D01*
X135297425Y-80702650D01*
X135342635Y-81046380D01*
X135454035Y-81374685D01*
X135563287Y-81579079D01*
X135840470Y-81689926D01*
X136885396Y-80645000D01*
X137244606Y-80645000D01*
X138289532Y-81689926D01*
X138566715Y-81579079D01*
X138720090Y-81268160D01*
X138809861Y-80933295D01*
X138825005Y-80702650D01*
X146822424Y-80702650D01*
X146867634Y-81046380D01*
X146979034Y-81374685D01*
X147088286Y-81579079D01*
X147365469Y-81689926D01*
X148410395Y-80645000D01*
X148769605Y-80645000D01*
X149814531Y-81689926D01*
X150091714Y-81579079D01*
X150245089Y-81268160D01*
X150334860Y-80933295D01*
X150350004Y-80702650D01*
X151902424Y-80702650D01*
X151947634Y-81046380D01*
X152059034Y-81374685D01*
X152168286Y-81579079D01*
X152445469Y-81689926D01*
X153490395Y-80645000D01*
X153849605Y-80645000D01*
X154894531Y-81689926D01*
X155171714Y-81579079D01*
X155325089Y-81268160D01*
X155414860Y-80933295D01*
X155430004Y-80702650D01*
X158252424Y-80702650D01*
X158297634Y-81046380D01*
X158409034Y-81374685D01*
X158518286Y-81579079D01*
X158795469Y-81689926D01*
X159840395Y-80645000D01*
X160199605Y-80645000D01*
X161244531Y-81689926D01*
X161521714Y-81579079D01*
X161675089Y-81268160D01*
X161764860Y-80933295D01*
X161780004Y-80702650D01*
X163332424Y-80702650D01*
X163377634Y-81046380D01*
X163489034Y-81374685D01*
X163598286Y-81579079D01*
X163875469Y-81689926D01*
X164920395Y-80645000D01*
X165279605Y-80645000D01*
X166324531Y-81689926D01*
X166601714Y-81579079D01*
X166755089Y-81268160D01*
X166844860Y-80933295D01*
X166867576Y-80587350D01*
X166822366Y-80243620D01*
X166710966Y-79915315D01*
X166601714Y-79710921D01*
X166324531Y-79600074D01*
X165279605Y-80645000D01*
X164920395Y-80645000D01*
X163875469Y-79600074D01*
X163598286Y-79710921D01*
X163444911Y-80021840D01*
X163355140Y-80356705D01*
X163332424Y-80702650D01*
X161780004Y-80702650D01*
X161787576Y-80587350D01*
X161742366Y-80243620D01*
X161630966Y-79915315D01*
X161521714Y-79710921D01*
X161244531Y-79600074D01*
X160199605Y-80645000D01*
X159840395Y-80645000D01*
X158795469Y-79600074D01*
X158518286Y-79710921D01*
X158364911Y-80021840D01*
X158275140Y-80356705D01*
X158252424Y-80702650D01*
X155430004Y-80702650D01*
X155437576Y-80587350D01*
X155392366Y-80243620D01*
X155280966Y-79915315D01*
X155171714Y-79710921D01*
X154894531Y-79600074D01*
X153849605Y-80645000D01*
X153490395Y-80645000D01*
X152445469Y-79600074D01*
X152168286Y-79710921D01*
X152014911Y-80021840D01*
X151925140Y-80356705D01*
X151902424Y-80702650D01*
X150350004Y-80702650D01*
X150357576Y-80587350D01*
X150312366Y-80243620D01*
X150200966Y-79915315D01*
X150091714Y-79710921D01*
X149814531Y-79600074D01*
X148769605Y-80645000D01*
X148410395Y-80645000D01*
X147365469Y-79600074D01*
X147088286Y-79710921D01*
X146934911Y-80021840D01*
X146845140Y-80356705D01*
X146822424Y-80702650D01*
X138825005Y-80702650D01*
X138832577Y-80587350D01*
X138787367Y-80243620D01*
X138675967Y-79915315D01*
X138566715Y-79710921D01*
X138289532Y-79600074D01*
X137244606Y-80645000D01*
X136885396Y-80645000D01*
X135840470Y-79600074D01*
X135563287Y-79710921D01*
X135409912Y-80021840D01*
X135320141Y-80356705D01*
X135297425Y-80702650D01*
X133745005Y-80702650D01*
X133752577Y-80587350D01*
X133707367Y-80243620D01*
X133595967Y-79915315D01*
X133486715Y-79710921D01*
X133209532Y-79600074D01*
X132164606Y-80645000D01*
X131805396Y-80645000D01*
X130760470Y-79600074D01*
X130483287Y-79710921D01*
X130329912Y-80021840D01*
X130240141Y-80356705D01*
X130217425Y-80702650D01*
X127490004Y-80702650D01*
X127497576Y-80587350D01*
X127452366Y-80243620D01*
X127340966Y-79915315D01*
X127231714Y-79710921D01*
X126954531Y-79600074D01*
X125909605Y-80645000D01*
X125550395Y-80645000D01*
X124505469Y-79600074D01*
X124228286Y-79710921D01*
X124074911Y-80021840D01*
X123985140Y-80356705D01*
X123962424Y-80702650D01*
X122410004Y-80702650D01*
X122417576Y-80587350D01*
X122372366Y-80243620D01*
X122260966Y-79915315D01*
X122151714Y-79710921D01*
X121874531Y-79600074D01*
X120829605Y-80645000D01*
X120470395Y-80645000D01*
X119425469Y-79600074D01*
X119148286Y-79710921D01*
X118994911Y-80021840D01*
X118905140Y-80356705D01*
X118882424Y-80702650D01*
X110515000Y-80702650D01*
X110515000Y-76501607D01*
X110915000Y-76501607D01*
X110915000Y-77168393D01*
X111045083Y-77822368D01*
X111300252Y-78438399D01*
X111670698Y-78992812D01*
X112142188Y-79464302D01*
X112696601Y-79834748D01*
X113312632Y-80089917D01*
X113966607Y-80220000D01*
X114633393Y-80220000D01*
X115287368Y-80089917D01*
X115903399Y-79834748D01*
X116457812Y-79464302D01*
X116501645Y-79420469D01*
X119605074Y-79420469D01*
X120650000Y-80465395D01*
X121694926Y-79420469D01*
X121584079Y-79143286D01*
X121273160Y-78989911D01*
X120938295Y-78900140D01*
X120592350Y-78877424D01*
X120248620Y-78922634D01*
X119920315Y-79034034D01*
X119715921Y-79143286D01*
X119605074Y-79420469D01*
X116501645Y-79420469D01*
X116929302Y-78992812D01*
X117299748Y-78438399D01*
X117505569Y-77941504D01*
X121530000Y-77941504D01*
X121530000Y-78268496D01*
X121593793Y-78589204D01*
X121718927Y-78891305D01*
X121900594Y-79163188D01*
X122131812Y-79394406D01*
X122403695Y-79576073D01*
X122705796Y-79701207D01*
X123026504Y-79765000D01*
X123353496Y-79765000D01*
X123674204Y-79701207D01*
X123976305Y-79576073D01*
X124209182Y-79420469D01*
X124685074Y-79420469D01*
X125730000Y-80465395D01*
X126774926Y-79420469D01*
X130940075Y-79420469D01*
X131985001Y-80465395D01*
X133029927Y-79420469D01*
X132919080Y-79143286D01*
X132608161Y-78989911D01*
X132273296Y-78900140D01*
X131927351Y-78877424D01*
X131583621Y-78922634D01*
X131255316Y-79034034D01*
X131050922Y-79143286D01*
X130940075Y-79420469D01*
X126774926Y-79420469D01*
X126664079Y-79143286D01*
X126353160Y-78989911D01*
X126018295Y-78900140D01*
X125672350Y-78877424D01*
X125328620Y-78922634D01*
X125000315Y-79034034D01*
X124795921Y-79143286D01*
X124685074Y-79420469D01*
X124209182Y-79420469D01*
X124248188Y-79394406D01*
X124479406Y-79163188D01*
X124661073Y-78891305D01*
X124786207Y-78589204D01*
X124850000Y-78268496D01*
X124850000Y-77941504D01*
X132865001Y-77941504D01*
X132865001Y-78268496D01*
X132928794Y-78589204D01*
X133053928Y-78891305D01*
X133235595Y-79163188D01*
X133466813Y-79394406D01*
X133738696Y-79576073D01*
X134040797Y-79701207D01*
X134361505Y-79765000D01*
X134688497Y-79765000D01*
X135009205Y-79701207D01*
X135311306Y-79576073D01*
X135544183Y-79420469D01*
X136020075Y-79420469D01*
X137065001Y-80465395D01*
X138109927Y-79420469D01*
X147545074Y-79420469D01*
X148590000Y-80465395D01*
X149634926Y-79420469D01*
X149524079Y-79143286D01*
X149213160Y-78989911D01*
X148878295Y-78900140D01*
X148532350Y-78877424D01*
X148188620Y-78922634D01*
X147860315Y-79034034D01*
X147655921Y-79143286D01*
X147545074Y-79420469D01*
X138109927Y-79420469D01*
X137999080Y-79143286D01*
X137688161Y-78989911D01*
X137353296Y-78900140D01*
X137007351Y-78877424D01*
X136663621Y-78922634D01*
X136335316Y-79034034D01*
X136130922Y-79143286D01*
X136020075Y-79420469D01*
X135544183Y-79420469D01*
X135583189Y-79394406D01*
X135814407Y-79163188D01*
X135996074Y-78891305D01*
X136121208Y-78589204D01*
X136185001Y-78268496D01*
X136185001Y-77941504D01*
X149470000Y-77941504D01*
X149470000Y-78268496D01*
X149533793Y-78589204D01*
X149658927Y-78891305D01*
X149840594Y-79163188D01*
X150071812Y-79394406D01*
X150343695Y-79576073D01*
X150645796Y-79701207D01*
X150966504Y-79765000D01*
X151293496Y-79765000D01*
X151614204Y-79701207D01*
X151916305Y-79576073D01*
X152149182Y-79420469D01*
X152625074Y-79420469D01*
X153670000Y-80465395D01*
X154714926Y-79420469D01*
X158975074Y-79420469D01*
X160020000Y-80465395D01*
X161064926Y-79420469D01*
X160954079Y-79143286D01*
X160643160Y-78989911D01*
X160308295Y-78900140D01*
X159962350Y-78877424D01*
X159618620Y-78922634D01*
X159290315Y-79034034D01*
X159085921Y-79143286D01*
X158975074Y-79420469D01*
X154714926Y-79420469D01*
X154604079Y-79143286D01*
X154293160Y-78989911D01*
X153958295Y-78900140D01*
X153612350Y-78877424D01*
X153268620Y-78922634D01*
X152940315Y-79034034D01*
X152735921Y-79143286D01*
X152625074Y-79420469D01*
X152149182Y-79420469D01*
X152188188Y-79394406D01*
X152419406Y-79163188D01*
X152601073Y-78891305D01*
X152726207Y-78589204D01*
X152790000Y-78268496D01*
X152790000Y-77941504D01*
X160900000Y-77941504D01*
X160900000Y-78268496D01*
X160963793Y-78589204D01*
X161088927Y-78891305D01*
X161270594Y-79163188D01*
X161501812Y-79394406D01*
X161773695Y-79576073D01*
X162075796Y-79701207D01*
X162396504Y-79765000D01*
X162723496Y-79765000D01*
X163044204Y-79701207D01*
X163346305Y-79576073D01*
X163579182Y-79420469D01*
X164055074Y-79420469D01*
X165100000Y-80465395D01*
X166144926Y-79420469D01*
X166034079Y-79143286D01*
X165723160Y-78989911D01*
X165388295Y-78900140D01*
X165042350Y-78877424D01*
X164698620Y-78922634D01*
X164370315Y-79034034D01*
X164165921Y-79143286D01*
X164055074Y-79420469D01*
X163579182Y-79420469D01*
X163618188Y-79394406D01*
X163849406Y-79163188D01*
X164031073Y-78891305D01*
X164156207Y-78589204D01*
X164220000Y-78268496D01*
X164220000Y-77941504D01*
X164156207Y-77620796D01*
X164031073Y-77318695D01*
X163849406Y-77046812D01*
X163618188Y-76815594D01*
X163579183Y-76789531D01*
X164055074Y-76789531D01*
X164165921Y-77066714D01*
X164476840Y-77220089D01*
X164811705Y-77309860D01*
X165157650Y-77332576D01*
X165501380Y-77287366D01*
X165829685Y-77175966D01*
X166034079Y-77066714D01*
X166144926Y-76789531D01*
X165100000Y-75744605D01*
X164055074Y-76789531D01*
X163579183Y-76789531D01*
X163346305Y-76633927D01*
X163044204Y-76508793D01*
X162723496Y-76445000D01*
X162396504Y-76445000D01*
X162075796Y-76508793D01*
X161773695Y-76633927D01*
X161501812Y-76815594D01*
X161270594Y-77046812D01*
X161088927Y-77318695D01*
X160963793Y-77620796D01*
X160900000Y-77941504D01*
X152790000Y-77941504D01*
X152726207Y-77620796D01*
X152601073Y-77318695D01*
X152419406Y-77046812D01*
X152188188Y-76815594D01*
X152149183Y-76789531D01*
X152625074Y-76789531D01*
X152735921Y-77066714D01*
X153046840Y-77220089D01*
X153381705Y-77309860D01*
X153727650Y-77332576D01*
X154071380Y-77287366D01*
X154399685Y-77175966D01*
X154604079Y-77066714D01*
X154714926Y-76789531D01*
X158975074Y-76789531D01*
X159085921Y-77066714D01*
X159396840Y-77220089D01*
X159731705Y-77309860D01*
X160077650Y-77332576D01*
X160421380Y-77287366D01*
X160749685Y-77175966D01*
X160954079Y-77066714D01*
X161064926Y-76789531D01*
X160020000Y-75744605D01*
X158975074Y-76789531D01*
X154714926Y-76789531D01*
X153670000Y-75744605D01*
X152625074Y-76789531D01*
X152149183Y-76789531D01*
X151916305Y-76633927D01*
X151614204Y-76508793D01*
X151293496Y-76445000D01*
X150966504Y-76445000D01*
X150645796Y-76508793D01*
X150343695Y-76633927D01*
X150071812Y-76815594D01*
X149840594Y-77046812D01*
X149658927Y-77318695D01*
X149533793Y-77620796D01*
X149470000Y-77941504D01*
X136185001Y-77941504D01*
X136121208Y-77620796D01*
X135996074Y-77318695D01*
X135814407Y-77046812D01*
X135583189Y-76815594D01*
X135544184Y-76789531D01*
X136020075Y-76789531D01*
X136130922Y-77066714D01*
X136441841Y-77220089D01*
X136776706Y-77309860D01*
X137122651Y-77332576D01*
X137466381Y-77287366D01*
X137794686Y-77175966D01*
X137999080Y-77066714D01*
X138109927Y-76789531D01*
X147545074Y-76789531D01*
X147655921Y-77066714D01*
X147966840Y-77220089D01*
X148301705Y-77309860D01*
X148647650Y-77332576D01*
X148991380Y-77287366D01*
X149319685Y-77175966D01*
X149524079Y-77066714D01*
X149634926Y-76789531D01*
X148590000Y-75744605D01*
X147545074Y-76789531D01*
X138109927Y-76789531D01*
X137065001Y-75744605D01*
X136020075Y-76789531D01*
X135544184Y-76789531D01*
X135311306Y-76633927D01*
X135009205Y-76508793D01*
X134688497Y-76445000D01*
X134361505Y-76445000D01*
X134040797Y-76508793D01*
X133738696Y-76633927D01*
X133466813Y-76815594D01*
X133235595Y-77046812D01*
X133053928Y-77318695D01*
X132928794Y-77620796D01*
X132865001Y-77941504D01*
X124850000Y-77941504D01*
X124786207Y-77620796D01*
X124661073Y-77318695D01*
X124479406Y-77046812D01*
X124248188Y-76815594D01*
X124209183Y-76789531D01*
X124685074Y-76789531D01*
X124795921Y-77066714D01*
X125106840Y-77220089D01*
X125441705Y-77309860D01*
X125787650Y-77332576D01*
X126131380Y-77287366D01*
X126459685Y-77175966D01*
X126664079Y-77066714D01*
X126774926Y-76789531D01*
X130940075Y-76789531D01*
X131050922Y-77066714D01*
X131361841Y-77220089D01*
X131696706Y-77309860D01*
X132042651Y-77332576D01*
X132386381Y-77287366D01*
X132714686Y-77175966D01*
X132919080Y-77066714D01*
X133029927Y-76789531D01*
X131985001Y-75744605D01*
X130940075Y-76789531D01*
X126774926Y-76789531D01*
X125730000Y-75744605D01*
X124685074Y-76789531D01*
X124209183Y-76789531D01*
X123976305Y-76633927D01*
X123674204Y-76508793D01*
X123353496Y-76445000D01*
X123026504Y-76445000D01*
X122705796Y-76508793D01*
X122403695Y-76633927D01*
X122131812Y-76815594D01*
X121900594Y-77046812D01*
X121718927Y-77318695D01*
X121593793Y-77620796D01*
X121530000Y-77941504D01*
X117505569Y-77941504D01*
X117554917Y-77822368D01*
X117685000Y-77168393D01*
X117685000Y-76789531D01*
X119605074Y-76789531D01*
X119715921Y-77066714D01*
X120026840Y-77220089D01*
X120361705Y-77309860D01*
X120707650Y-77332576D01*
X121051380Y-77287366D01*
X121379685Y-77175966D01*
X121584079Y-77066714D01*
X121694926Y-76789531D01*
X120650000Y-75744605D01*
X119605074Y-76789531D01*
X117685000Y-76789531D01*
X117685000Y-76501607D01*
X117554917Y-75847632D01*
X117461727Y-75622650D01*
X118882424Y-75622650D01*
X118927634Y-75966380D01*
X119039034Y-76294685D01*
X119148286Y-76499079D01*
X119425469Y-76609926D01*
X120470395Y-75565000D01*
X120829605Y-75565000D01*
X121874531Y-76609926D01*
X122151714Y-76499079D01*
X122305089Y-76188160D01*
X122394860Y-75853295D01*
X122410004Y-75622650D01*
X123962424Y-75622650D01*
X124007634Y-75966380D01*
X124119034Y-76294685D01*
X124228286Y-76499079D01*
X124505469Y-76609926D01*
X125550395Y-75565000D01*
X125909605Y-75565000D01*
X126954531Y-76609926D01*
X127231714Y-76499079D01*
X127385089Y-76188160D01*
X127474860Y-75853295D01*
X127490004Y-75622650D01*
X130217425Y-75622650D01*
X130262635Y-75966380D01*
X130374035Y-76294685D01*
X130483287Y-76499079D01*
X130760470Y-76609926D01*
X131805396Y-75565000D01*
X132164606Y-75565000D01*
X133209532Y-76609926D01*
X133486715Y-76499079D01*
X133640090Y-76188160D01*
X133729861Y-75853295D01*
X133745005Y-75622650D01*
X135297425Y-75622650D01*
X135342635Y-75966380D01*
X135454035Y-76294685D01*
X135563287Y-76499079D01*
X135840470Y-76609926D01*
X136885396Y-75565000D01*
X137244606Y-75565000D01*
X138289532Y-76609926D01*
X138566715Y-76499079D01*
X138720090Y-76188160D01*
X138809861Y-75853295D01*
X138825005Y-75622650D01*
X146822424Y-75622650D01*
X146867634Y-75966380D01*
X146979034Y-76294685D01*
X147088286Y-76499079D01*
X147365469Y-76609926D01*
X148410395Y-75565000D01*
X148769605Y-75565000D01*
X149814531Y-76609926D01*
X150091714Y-76499079D01*
X150245089Y-76188160D01*
X150334860Y-75853295D01*
X150350004Y-75622650D01*
X151902424Y-75622650D01*
X151947634Y-75966380D01*
X152059034Y-76294685D01*
X152168286Y-76499079D01*
X152445469Y-76609926D01*
X153490395Y-75565000D01*
X153849605Y-75565000D01*
X154894531Y-76609926D01*
X155171714Y-76499079D01*
X155325089Y-76188160D01*
X155414860Y-75853295D01*
X155430004Y-75622650D01*
X158252424Y-75622650D01*
X158297634Y-75966380D01*
X158409034Y-76294685D01*
X158518286Y-76499079D01*
X158795469Y-76609926D01*
X159840395Y-75565000D01*
X160199605Y-75565000D01*
X161244531Y-76609926D01*
X161521714Y-76499079D01*
X161675089Y-76188160D01*
X161764860Y-75853295D01*
X161780004Y-75622650D01*
X163332424Y-75622650D01*
X163377634Y-75966380D01*
X163489034Y-76294685D01*
X163598286Y-76499079D01*
X163875469Y-76609926D01*
X164920395Y-75565000D01*
X165279605Y-75565000D01*
X166324531Y-76609926D01*
X166595392Y-76501607D01*
X168065000Y-76501607D01*
X168065000Y-77168393D01*
X168195083Y-77822368D01*
X168450252Y-78438399D01*
X168820698Y-78992812D01*
X169292188Y-79464302D01*
X169846601Y-79834748D01*
X170462632Y-80089917D01*
X171116607Y-80220000D01*
X171783393Y-80220000D01*
X172437368Y-80089917D01*
X173053399Y-79834748D01*
X173607812Y-79464302D01*
X174079302Y-78992812D01*
X174449748Y-78438399D01*
X174704917Y-77822368D01*
X174835000Y-77168393D01*
X174835000Y-76501607D01*
X174704917Y-75847632D01*
X174449748Y-75231601D01*
X174079302Y-74677188D01*
X173607812Y-74205698D01*
X173053399Y-73835252D01*
X172437368Y-73580083D01*
X171783393Y-73450000D01*
X171116607Y-73450000D01*
X170462632Y-73580083D01*
X169846601Y-73835252D01*
X169292188Y-74205698D01*
X168820698Y-74677188D01*
X168450252Y-75231601D01*
X168195083Y-75847632D01*
X168065000Y-76501607D01*
X166595392Y-76501607D01*
X166601714Y-76499079D01*
X166755089Y-76188160D01*
X166844860Y-75853295D01*
X166867576Y-75507350D01*
X166822366Y-75163620D01*
X166710966Y-74835315D01*
X166601714Y-74630921D01*
X166324531Y-74520074D01*
X165279605Y-75565000D01*
X164920395Y-75565000D01*
X163875469Y-74520074D01*
X163598286Y-74630921D01*
X163444911Y-74941840D01*
X163355140Y-75276705D01*
X163332424Y-75622650D01*
X161780004Y-75622650D01*
X161787576Y-75507350D01*
X161742366Y-75163620D01*
X161630966Y-74835315D01*
X161521714Y-74630921D01*
X161244531Y-74520074D01*
X160199605Y-75565000D01*
X159840395Y-75565000D01*
X158795469Y-74520074D01*
X158518286Y-74630921D01*
X158364911Y-74941840D01*
X158275140Y-75276705D01*
X158252424Y-75622650D01*
X155430004Y-75622650D01*
X155437576Y-75507350D01*
X155392366Y-75163620D01*
X155280966Y-74835315D01*
X155171714Y-74630921D01*
X154894531Y-74520074D01*
X153849605Y-75565000D01*
X153490395Y-75565000D01*
X152445469Y-74520074D01*
X152168286Y-74630921D01*
X152014911Y-74941840D01*
X151925140Y-75276705D01*
X151902424Y-75622650D01*
X150350004Y-75622650D01*
X150357576Y-75507350D01*
X150312366Y-75163620D01*
X150200966Y-74835315D01*
X150091714Y-74630921D01*
X149814531Y-74520074D01*
X148769605Y-75565000D01*
X148410395Y-75565000D01*
X147365469Y-74520074D01*
X147088286Y-74630921D01*
X146934911Y-74941840D01*
X146845140Y-75276705D01*
X146822424Y-75622650D01*
X138825005Y-75622650D01*
X138832577Y-75507350D01*
X138787367Y-75163620D01*
X138675967Y-74835315D01*
X138566715Y-74630921D01*
X138289532Y-74520074D01*
X137244606Y-75565000D01*
X136885396Y-75565000D01*
X135840470Y-74520074D01*
X135563287Y-74630921D01*
X135409912Y-74941840D01*
X135320141Y-75276705D01*
X135297425Y-75622650D01*
X133745005Y-75622650D01*
X133752577Y-75507350D01*
X133707367Y-75163620D01*
X133595967Y-74835315D01*
X133486715Y-74630921D01*
X133209532Y-74520074D01*
X132164606Y-75565000D01*
X131805396Y-75565000D01*
X130760470Y-74520074D01*
X130483287Y-74630921D01*
X130329912Y-74941840D01*
X130240141Y-75276705D01*
X130217425Y-75622650D01*
X127490004Y-75622650D01*
X127497576Y-75507350D01*
X127452366Y-75163620D01*
X127340966Y-74835315D01*
X127231714Y-74630921D01*
X126954531Y-74520074D01*
X125909605Y-75565000D01*
X125550395Y-75565000D01*
X124505469Y-74520074D01*
X124228286Y-74630921D01*
X124074911Y-74941840D01*
X123985140Y-75276705D01*
X123962424Y-75622650D01*
X122410004Y-75622650D01*
X122417576Y-75507350D01*
X122372366Y-75163620D01*
X122260966Y-74835315D01*
X122151714Y-74630921D01*
X121874531Y-74520074D01*
X120829605Y-75565000D01*
X120470395Y-75565000D01*
X119425469Y-74520074D01*
X119148286Y-74630921D01*
X118994911Y-74941840D01*
X118905140Y-75276705D01*
X118882424Y-75622650D01*
X117461727Y-75622650D01*
X117299748Y-75231601D01*
X116929302Y-74677188D01*
X116592583Y-74340469D01*
X119605074Y-74340469D01*
X120650000Y-75385395D01*
X121694926Y-74340469D01*
X124685074Y-74340469D01*
X125730000Y-75385395D01*
X126774926Y-74340469D01*
X130940075Y-74340469D01*
X131985001Y-75385395D01*
X133029927Y-74340469D01*
X136020075Y-74340469D01*
X137065001Y-75385395D01*
X138109927Y-74340469D01*
X147545074Y-74340469D01*
X148590000Y-75385395D01*
X149634926Y-74340469D01*
X152625074Y-74340469D01*
X153670000Y-75385395D01*
X154714926Y-74340469D01*
X158975074Y-74340469D01*
X160020000Y-75385395D01*
X161064926Y-74340469D01*
X164055074Y-74340469D01*
X165100000Y-75385395D01*
X166144926Y-74340469D01*
X166034079Y-74063286D01*
X165723160Y-73909911D01*
X165388295Y-73820140D01*
X165042350Y-73797424D01*
X164698620Y-73842634D01*
X164370315Y-73954034D01*
X164165921Y-74063286D01*
X164055074Y-74340469D01*
X161064926Y-74340469D01*
X160954079Y-74063286D01*
X160643160Y-73909911D01*
X160308295Y-73820140D01*
X159962350Y-73797424D01*
X159618620Y-73842634D01*
X159290315Y-73954034D01*
X159085921Y-74063286D01*
X158975074Y-74340469D01*
X154714926Y-74340469D01*
X154604079Y-74063286D01*
X154293160Y-73909911D01*
X153958295Y-73820140D01*
X153612350Y-73797424D01*
X153268620Y-73842634D01*
X152940315Y-73954034D01*
X152735921Y-74063286D01*
X152625074Y-74340469D01*
X149634926Y-74340469D01*
X149524079Y-74063286D01*
X149213160Y-73909911D01*
X148878295Y-73820140D01*
X148532350Y-73797424D01*
X148188620Y-73842634D01*
X147860315Y-73954034D01*
X147655921Y-74063286D01*
X147545074Y-74340469D01*
X138109927Y-74340469D01*
X137999080Y-74063286D01*
X137688161Y-73909911D01*
X137353296Y-73820140D01*
X137007351Y-73797424D01*
X136663621Y-73842634D01*
X136335316Y-73954034D01*
X136130922Y-74063286D01*
X136020075Y-74340469D01*
X133029927Y-74340469D01*
X132919080Y-74063286D01*
X132608161Y-73909911D01*
X132273296Y-73820140D01*
X131927351Y-73797424D01*
X131583621Y-73842634D01*
X131255316Y-73954034D01*
X131050922Y-74063286D01*
X130940075Y-74340469D01*
X126774926Y-74340469D01*
X126664079Y-74063286D01*
X126353160Y-73909911D01*
X126018295Y-73820140D01*
X125672350Y-73797424D01*
X125328620Y-73842634D01*
X125000315Y-73954034D01*
X124795921Y-74063286D01*
X124685074Y-74340469D01*
X121694926Y-74340469D01*
X121584079Y-74063286D01*
X121273160Y-73909911D01*
X120938295Y-73820140D01*
X120592350Y-73797424D01*
X120248620Y-73842634D01*
X119920315Y-73954034D01*
X119715921Y-74063286D01*
X119605074Y-74340469D01*
X116592583Y-74340469D01*
X116457812Y-74205698D01*
X115903399Y-73835252D01*
X115287368Y-73580083D01*
X114633393Y-73450000D01*
X113966607Y-73450000D01*
X113312632Y-73580083D01*
X112696601Y-73835252D01*
X112142188Y-74205698D01*
X111670698Y-74677188D01*
X111300252Y-75231601D01*
X111045083Y-75847632D01*
X110915000Y-76501607D01*
X110515000Y-76501607D01*
X110515000Y-72415000D01*
X175235001Y-72415000D01*
X175235000Y-111100000D01*
M02*
