G04 #@! TF.GenerationSoftware,KiCad,Pcbnew,(5.1.2)-2*
G04 #@! TF.CreationDate,2019-07-06T17:30:01+08:00*
G04 #@! TF.ProjectId,active_filter,61637469-7665-45f6-9669-6c7465722e6b,rev?*
G04 #@! TF.SameCoordinates,Original*
G04 #@! TF.FileFunction,Copper,L1,Top*
G04 #@! TF.FilePolarity,Positive*
%FSLAX46Y46*%
G04 Gerber Fmt 4.6, Leading zero omitted, Abs format (unit mm)*
G04 Created by KiCad (PCBNEW (5.1.2)-2) date 2019-07-06 17:30:01*
%MOMM*%
%LPD*%
G04 APERTURE LIST*
%ADD10C,1.000000*%
%ADD11C,1.500000*%
%ADD12C,5.500000*%
%ADD13C,0.100000*%
%ADD14C,0.950000*%
%ADD15C,1.600000*%
%ADD16C,2.050000*%
%ADD17C,2.250000*%
%ADD18R,1.700000X1.700000*%
%ADD19O,1.700000X1.700000*%
%ADD20C,0.300000*%
%ADD21C,0.600000*%
%ADD22C,0.800000*%
%ADD23C,0.400000*%
%ADD24C,0.254000*%
G04 APERTURE END LIST*
D10*
X143510000Y-83185000D03*
X170180000Y-84455000D03*
X115570000Y-84455000D03*
D11*
X148590000Y-84455000D03*
X139065000Y-84455000D03*
X165735000Y-85725000D03*
X119380000Y-85725000D03*
D12*
X170815000Y-106680000D03*
X114935000Y-106680000D03*
X171450000Y-76835000D03*
X114300000Y-76835000D03*
D13*
G36*
X135805779Y-97316144D02*
G01*
X135828834Y-97319563D01*
X135851443Y-97325227D01*
X135873387Y-97333079D01*
X135894457Y-97343044D01*
X135914448Y-97355026D01*
X135933168Y-97368910D01*
X135950438Y-97384562D01*
X135966090Y-97401832D01*
X135979974Y-97420552D01*
X135991956Y-97440543D01*
X136001921Y-97461613D01*
X136009773Y-97483557D01*
X136015437Y-97506166D01*
X136018856Y-97529221D01*
X136020000Y-97552500D01*
X136020000Y-98027500D01*
X136018856Y-98050779D01*
X136015437Y-98073834D01*
X136009773Y-98096443D01*
X136001921Y-98118387D01*
X135991956Y-98139457D01*
X135979974Y-98159448D01*
X135966090Y-98178168D01*
X135950438Y-98195438D01*
X135933168Y-98211090D01*
X135914448Y-98224974D01*
X135894457Y-98236956D01*
X135873387Y-98246921D01*
X135851443Y-98254773D01*
X135828834Y-98260437D01*
X135805779Y-98263856D01*
X135782500Y-98265000D01*
X135207500Y-98265000D01*
X135184221Y-98263856D01*
X135161166Y-98260437D01*
X135138557Y-98254773D01*
X135116613Y-98246921D01*
X135095543Y-98236956D01*
X135075552Y-98224974D01*
X135056832Y-98211090D01*
X135039562Y-98195438D01*
X135023910Y-98178168D01*
X135010026Y-98159448D01*
X134998044Y-98139457D01*
X134988079Y-98118387D01*
X134980227Y-98096443D01*
X134974563Y-98073834D01*
X134971144Y-98050779D01*
X134970000Y-98027500D01*
X134970000Y-97552500D01*
X134971144Y-97529221D01*
X134974563Y-97506166D01*
X134980227Y-97483557D01*
X134988079Y-97461613D01*
X134998044Y-97440543D01*
X135010026Y-97420552D01*
X135023910Y-97401832D01*
X135039562Y-97384562D01*
X135056832Y-97368910D01*
X135075552Y-97355026D01*
X135095543Y-97343044D01*
X135116613Y-97333079D01*
X135138557Y-97325227D01*
X135161166Y-97319563D01*
X135184221Y-97316144D01*
X135207500Y-97315000D01*
X135782500Y-97315000D01*
X135805779Y-97316144D01*
X135805779Y-97316144D01*
G37*
D14*
X135495000Y-97790000D03*
D13*
G36*
X134055779Y-97316144D02*
G01*
X134078834Y-97319563D01*
X134101443Y-97325227D01*
X134123387Y-97333079D01*
X134144457Y-97343044D01*
X134164448Y-97355026D01*
X134183168Y-97368910D01*
X134200438Y-97384562D01*
X134216090Y-97401832D01*
X134229974Y-97420552D01*
X134241956Y-97440543D01*
X134251921Y-97461613D01*
X134259773Y-97483557D01*
X134265437Y-97506166D01*
X134268856Y-97529221D01*
X134270000Y-97552500D01*
X134270000Y-98027500D01*
X134268856Y-98050779D01*
X134265437Y-98073834D01*
X134259773Y-98096443D01*
X134251921Y-98118387D01*
X134241956Y-98139457D01*
X134229974Y-98159448D01*
X134216090Y-98178168D01*
X134200438Y-98195438D01*
X134183168Y-98211090D01*
X134164448Y-98224974D01*
X134144457Y-98236956D01*
X134123387Y-98246921D01*
X134101443Y-98254773D01*
X134078834Y-98260437D01*
X134055779Y-98263856D01*
X134032500Y-98265000D01*
X133457500Y-98265000D01*
X133434221Y-98263856D01*
X133411166Y-98260437D01*
X133388557Y-98254773D01*
X133366613Y-98246921D01*
X133345543Y-98236956D01*
X133325552Y-98224974D01*
X133306832Y-98211090D01*
X133289562Y-98195438D01*
X133273910Y-98178168D01*
X133260026Y-98159448D01*
X133248044Y-98139457D01*
X133238079Y-98118387D01*
X133230227Y-98096443D01*
X133224563Y-98073834D01*
X133221144Y-98050779D01*
X133220000Y-98027500D01*
X133220000Y-97552500D01*
X133221144Y-97529221D01*
X133224563Y-97506166D01*
X133230227Y-97483557D01*
X133238079Y-97461613D01*
X133248044Y-97440543D01*
X133260026Y-97420552D01*
X133273910Y-97401832D01*
X133289562Y-97384562D01*
X133306832Y-97368910D01*
X133325552Y-97355026D01*
X133345543Y-97343044D01*
X133366613Y-97333079D01*
X133388557Y-97325227D01*
X133411166Y-97319563D01*
X133434221Y-97316144D01*
X133457500Y-97315000D01*
X134032500Y-97315000D01*
X134055779Y-97316144D01*
X134055779Y-97316144D01*
G37*
D14*
X133745000Y-97790000D03*
D13*
G36*
X134055779Y-101126144D02*
G01*
X134078834Y-101129563D01*
X134101443Y-101135227D01*
X134123387Y-101143079D01*
X134144457Y-101153044D01*
X134164448Y-101165026D01*
X134183168Y-101178910D01*
X134200438Y-101194562D01*
X134216090Y-101211832D01*
X134229974Y-101230552D01*
X134241956Y-101250543D01*
X134251921Y-101271613D01*
X134259773Y-101293557D01*
X134265437Y-101316166D01*
X134268856Y-101339221D01*
X134270000Y-101362500D01*
X134270000Y-101837500D01*
X134268856Y-101860779D01*
X134265437Y-101883834D01*
X134259773Y-101906443D01*
X134251921Y-101928387D01*
X134241956Y-101949457D01*
X134229974Y-101969448D01*
X134216090Y-101988168D01*
X134200438Y-102005438D01*
X134183168Y-102021090D01*
X134164448Y-102034974D01*
X134144457Y-102046956D01*
X134123387Y-102056921D01*
X134101443Y-102064773D01*
X134078834Y-102070437D01*
X134055779Y-102073856D01*
X134032500Y-102075000D01*
X133457500Y-102075000D01*
X133434221Y-102073856D01*
X133411166Y-102070437D01*
X133388557Y-102064773D01*
X133366613Y-102056921D01*
X133345543Y-102046956D01*
X133325552Y-102034974D01*
X133306832Y-102021090D01*
X133289562Y-102005438D01*
X133273910Y-101988168D01*
X133260026Y-101969448D01*
X133248044Y-101949457D01*
X133238079Y-101928387D01*
X133230227Y-101906443D01*
X133224563Y-101883834D01*
X133221144Y-101860779D01*
X133220000Y-101837500D01*
X133220000Y-101362500D01*
X133221144Y-101339221D01*
X133224563Y-101316166D01*
X133230227Y-101293557D01*
X133238079Y-101271613D01*
X133248044Y-101250543D01*
X133260026Y-101230552D01*
X133273910Y-101211832D01*
X133289562Y-101194562D01*
X133306832Y-101178910D01*
X133325552Y-101165026D01*
X133345543Y-101153044D01*
X133366613Y-101143079D01*
X133388557Y-101135227D01*
X133411166Y-101129563D01*
X133434221Y-101126144D01*
X133457500Y-101125000D01*
X134032500Y-101125000D01*
X134055779Y-101126144D01*
X134055779Y-101126144D01*
G37*
D14*
X133745000Y-101600000D03*
D13*
G36*
X135805779Y-101126144D02*
G01*
X135828834Y-101129563D01*
X135851443Y-101135227D01*
X135873387Y-101143079D01*
X135894457Y-101153044D01*
X135914448Y-101165026D01*
X135933168Y-101178910D01*
X135950438Y-101194562D01*
X135966090Y-101211832D01*
X135979974Y-101230552D01*
X135991956Y-101250543D01*
X136001921Y-101271613D01*
X136009773Y-101293557D01*
X136015437Y-101316166D01*
X136018856Y-101339221D01*
X136020000Y-101362500D01*
X136020000Y-101837500D01*
X136018856Y-101860779D01*
X136015437Y-101883834D01*
X136009773Y-101906443D01*
X136001921Y-101928387D01*
X135991956Y-101949457D01*
X135979974Y-101969448D01*
X135966090Y-101988168D01*
X135950438Y-102005438D01*
X135933168Y-102021090D01*
X135914448Y-102034974D01*
X135894457Y-102046956D01*
X135873387Y-102056921D01*
X135851443Y-102064773D01*
X135828834Y-102070437D01*
X135805779Y-102073856D01*
X135782500Y-102075000D01*
X135207500Y-102075000D01*
X135184221Y-102073856D01*
X135161166Y-102070437D01*
X135138557Y-102064773D01*
X135116613Y-102056921D01*
X135095543Y-102046956D01*
X135075552Y-102034974D01*
X135056832Y-102021090D01*
X135039562Y-102005438D01*
X135023910Y-101988168D01*
X135010026Y-101969448D01*
X134998044Y-101949457D01*
X134988079Y-101928387D01*
X134980227Y-101906443D01*
X134974563Y-101883834D01*
X134971144Y-101860779D01*
X134970000Y-101837500D01*
X134970000Y-101362500D01*
X134971144Y-101339221D01*
X134974563Y-101316166D01*
X134980227Y-101293557D01*
X134988079Y-101271613D01*
X134998044Y-101250543D01*
X135010026Y-101230552D01*
X135023910Y-101211832D01*
X135039562Y-101194562D01*
X135056832Y-101178910D01*
X135075552Y-101165026D01*
X135095543Y-101153044D01*
X135116613Y-101143079D01*
X135138557Y-101135227D01*
X135161166Y-101129563D01*
X135184221Y-101126144D01*
X135207500Y-101125000D01*
X135782500Y-101125000D01*
X135805779Y-101126144D01*
X135805779Y-101126144D01*
G37*
D14*
X135495000Y-101600000D03*
D13*
G36*
X135515779Y-93301144D02*
G01*
X135538834Y-93304563D01*
X135561443Y-93310227D01*
X135583387Y-93318079D01*
X135604457Y-93328044D01*
X135624448Y-93340026D01*
X135643168Y-93353910D01*
X135660438Y-93369562D01*
X135676090Y-93386832D01*
X135689974Y-93405552D01*
X135701956Y-93425543D01*
X135711921Y-93446613D01*
X135719773Y-93468557D01*
X135725437Y-93491166D01*
X135728856Y-93514221D01*
X135730000Y-93537500D01*
X135730000Y-94112500D01*
X135728856Y-94135779D01*
X135725437Y-94158834D01*
X135719773Y-94181443D01*
X135711921Y-94203387D01*
X135701956Y-94224457D01*
X135689974Y-94244448D01*
X135676090Y-94263168D01*
X135660438Y-94280438D01*
X135643168Y-94296090D01*
X135624448Y-94309974D01*
X135604457Y-94321956D01*
X135583387Y-94331921D01*
X135561443Y-94339773D01*
X135538834Y-94345437D01*
X135515779Y-94348856D01*
X135492500Y-94350000D01*
X135017500Y-94350000D01*
X134994221Y-94348856D01*
X134971166Y-94345437D01*
X134948557Y-94339773D01*
X134926613Y-94331921D01*
X134905543Y-94321956D01*
X134885552Y-94309974D01*
X134866832Y-94296090D01*
X134849562Y-94280438D01*
X134833910Y-94263168D01*
X134820026Y-94244448D01*
X134808044Y-94224457D01*
X134798079Y-94203387D01*
X134790227Y-94181443D01*
X134784563Y-94158834D01*
X134781144Y-94135779D01*
X134780000Y-94112500D01*
X134780000Y-93537500D01*
X134781144Y-93514221D01*
X134784563Y-93491166D01*
X134790227Y-93468557D01*
X134798079Y-93446613D01*
X134808044Y-93425543D01*
X134820026Y-93405552D01*
X134833910Y-93386832D01*
X134849562Y-93369562D01*
X134866832Y-93353910D01*
X134885552Y-93340026D01*
X134905543Y-93328044D01*
X134926613Y-93318079D01*
X134948557Y-93310227D01*
X134971166Y-93304563D01*
X134994221Y-93301144D01*
X135017500Y-93300000D01*
X135492500Y-93300000D01*
X135515779Y-93301144D01*
X135515779Y-93301144D01*
G37*
D14*
X135255000Y-93825000D03*
D13*
G36*
X135515779Y-91551144D02*
G01*
X135538834Y-91554563D01*
X135561443Y-91560227D01*
X135583387Y-91568079D01*
X135604457Y-91578044D01*
X135624448Y-91590026D01*
X135643168Y-91603910D01*
X135660438Y-91619562D01*
X135676090Y-91636832D01*
X135689974Y-91655552D01*
X135701956Y-91675543D01*
X135711921Y-91696613D01*
X135719773Y-91718557D01*
X135725437Y-91741166D01*
X135728856Y-91764221D01*
X135730000Y-91787500D01*
X135730000Y-92362500D01*
X135728856Y-92385779D01*
X135725437Y-92408834D01*
X135719773Y-92431443D01*
X135711921Y-92453387D01*
X135701956Y-92474457D01*
X135689974Y-92494448D01*
X135676090Y-92513168D01*
X135660438Y-92530438D01*
X135643168Y-92546090D01*
X135624448Y-92559974D01*
X135604457Y-92571956D01*
X135583387Y-92581921D01*
X135561443Y-92589773D01*
X135538834Y-92595437D01*
X135515779Y-92598856D01*
X135492500Y-92600000D01*
X135017500Y-92600000D01*
X134994221Y-92598856D01*
X134971166Y-92595437D01*
X134948557Y-92589773D01*
X134926613Y-92581921D01*
X134905543Y-92571956D01*
X134885552Y-92559974D01*
X134866832Y-92546090D01*
X134849562Y-92530438D01*
X134833910Y-92513168D01*
X134820026Y-92494448D01*
X134808044Y-92474457D01*
X134798079Y-92453387D01*
X134790227Y-92431443D01*
X134784563Y-92408834D01*
X134781144Y-92385779D01*
X134780000Y-92362500D01*
X134780000Y-91787500D01*
X134781144Y-91764221D01*
X134784563Y-91741166D01*
X134790227Y-91718557D01*
X134798079Y-91696613D01*
X134808044Y-91675543D01*
X134820026Y-91655552D01*
X134833910Y-91636832D01*
X134849562Y-91619562D01*
X134866832Y-91603910D01*
X134885552Y-91590026D01*
X134905543Y-91578044D01*
X134926613Y-91568079D01*
X134948557Y-91560227D01*
X134971166Y-91554563D01*
X134994221Y-91551144D01*
X135017500Y-91550000D01*
X135492500Y-91550000D01*
X135515779Y-91551144D01*
X135515779Y-91551144D01*
G37*
D14*
X135255000Y-92075000D03*
D13*
G36*
X132019504Y-103581204D02*
G01*
X132043773Y-103584804D01*
X132067571Y-103590765D01*
X132090671Y-103599030D01*
X132112849Y-103609520D01*
X132133893Y-103622133D01*
X132153598Y-103636747D01*
X132171777Y-103653223D01*
X132188253Y-103671402D01*
X132202867Y-103691107D01*
X132215480Y-103712151D01*
X132225970Y-103734329D01*
X132234235Y-103757429D01*
X132240196Y-103781227D01*
X132243796Y-103805496D01*
X132245000Y-103830000D01*
X132245000Y-105930000D01*
X132243796Y-105954504D01*
X132240196Y-105978773D01*
X132234235Y-106002571D01*
X132225970Y-106025671D01*
X132215480Y-106047849D01*
X132202867Y-106068893D01*
X132188253Y-106088598D01*
X132171777Y-106106777D01*
X132153598Y-106123253D01*
X132133893Y-106137867D01*
X132112849Y-106150480D01*
X132090671Y-106160970D01*
X132067571Y-106169235D01*
X132043773Y-106175196D01*
X132019504Y-106178796D01*
X131995000Y-106180000D01*
X130895000Y-106180000D01*
X130870496Y-106178796D01*
X130846227Y-106175196D01*
X130822429Y-106169235D01*
X130799329Y-106160970D01*
X130777151Y-106150480D01*
X130756107Y-106137867D01*
X130736402Y-106123253D01*
X130718223Y-106106777D01*
X130701747Y-106088598D01*
X130687133Y-106068893D01*
X130674520Y-106047849D01*
X130664030Y-106025671D01*
X130655765Y-106002571D01*
X130649804Y-105978773D01*
X130646204Y-105954504D01*
X130645000Y-105930000D01*
X130645000Y-103830000D01*
X130646204Y-103805496D01*
X130649804Y-103781227D01*
X130655765Y-103757429D01*
X130664030Y-103734329D01*
X130674520Y-103712151D01*
X130687133Y-103691107D01*
X130701747Y-103671402D01*
X130718223Y-103653223D01*
X130736402Y-103636747D01*
X130756107Y-103622133D01*
X130777151Y-103609520D01*
X130799329Y-103599030D01*
X130822429Y-103590765D01*
X130846227Y-103584804D01*
X130870496Y-103581204D01*
X130895000Y-103580000D01*
X131995000Y-103580000D01*
X132019504Y-103581204D01*
X132019504Y-103581204D01*
G37*
D15*
X131445000Y-104880000D03*
D13*
G36*
X132019504Y-107181204D02*
G01*
X132043773Y-107184804D01*
X132067571Y-107190765D01*
X132090671Y-107199030D01*
X132112849Y-107209520D01*
X132133893Y-107222133D01*
X132153598Y-107236747D01*
X132171777Y-107253223D01*
X132188253Y-107271402D01*
X132202867Y-107291107D01*
X132215480Y-107312151D01*
X132225970Y-107334329D01*
X132234235Y-107357429D01*
X132240196Y-107381227D01*
X132243796Y-107405496D01*
X132245000Y-107430000D01*
X132245000Y-109530000D01*
X132243796Y-109554504D01*
X132240196Y-109578773D01*
X132234235Y-109602571D01*
X132225970Y-109625671D01*
X132215480Y-109647849D01*
X132202867Y-109668893D01*
X132188253Y-109688598D01*
X132171777Y-109706777D01*
X132153598Y-109723253D01*
X132133893Y-109737867D01*
X132112849Y-109750480D01*
X132090671Y-109760970D01*
X132067571Y-109769235D01*
X132043773Y-109775196D01*
X132019504Y-109778796D01*
X131995000Y-109780000D01*
X130895000Y-109780000D01*
X130870496Y-109778796D01*
X130846227Y-109775196D01*
X130822429Y-109769235D01*
X130799329Y-109760970D01*
X130777151Y-109750480D01*
X130756107Y-109737867D01*
X130736402Y-109723253D01*
X130718223Y-109706777D01*
X130701747Y-109688598D01*
X130687133Y-109668893D01*
X130674520Y-109647849D01*
X130664030Y-109625671D01*
X130655765Y-109602571D01*
X130649804Y-109578773D01*
X130646204Y-109554504D01*
X130645000Y-109530000D01*
X130645000Y-107430000D01*
X130646204Y-107405496D01*
X130649804Y-107381227D01*
X130655765Y-107357429D01*
X130664030Y-107334329D01*
X130674520Y-107312151D01*
X130687133Y-107291107D01*
X130701747Y-107271402D01*
X130718223Y-107253223D01*
X130736402Y-107236747D01*
X130756107Y-107222133D01*
X130777151Y-107209520D01*
X130799329Y-107199030D01*
X130822429Y-107190765D01*
X130846227Y-107184804D01*
X130870496Y-107181204D01*
X130895000Y-107180000D01*
X131995000Y-107180000D01*
X132019504Y-107181204D01*
X132019504Y-107181204D01*
G37*
D15*
X131445000Y-108480000D03*
D13*
G36*
X152470779Y-94776144D02*
G01*
X152493834Y-94779563D01*
X152516443Y-94785227D01*
X152538387Y-94793079D01*
X152559457Y-94803044D01*
X152579448Y-94815026D01*
X152598168Y-94828910D01*
X152615438Y-94844562D01*
X152631090Y-94861832D01*
X152644974Y-94880552D01*
X152656956Y-94900543D01*
X152666921Y-94921613D01*
X152674773Y-94943557D01*
X152680437Y-94966166D01*
X152683856Y-94989221D01*
X152685000Y-95012500D01*
X152685000Y-95487500D01*
X152683856Y-95510779D01*
X152680437Y-95533834D01*
X152674773Y-95556443D01*
X152666921Y-95578387D01*
X152656956Y-95599457D01*
X152644974Y-95619448D01*
X152631090Y-95638168D01*
X152615438Y-95655438D01*
X152598168Y-95671090D01*
X152579448Y-95684974D01*
X152559457Y-95696956D01*
X152538387Y-95706921D01*
X152516443Y-95714773D01*
X152493834Y-95720437D01*
X152470779Y-95723856D01*
X152447500Y-95725000D01*
X151872500Y-95725000D01*
X151849221Y-95723856D01*
X151826166Y-95720437D01*
X151803557Y-95714773D01*
X151781613Y-95706921D01*
X151760543Y-95696956D01*
X151740552Y-95684974D01*
X151721832Y-95671090D01*
X151704562Y-95655438D01*
X151688910Y-95638168D01*
X151675026Y-95619448D01*
X151663044Y-95599457D01*
X151653079Y-95578387D01*
X151645227Y-95556443D01*
X151639563Y-95533834D01*
X151636144Y-95510779D01*
X151635000Y-95487500D01*
X151635000Y-95012500D01*
X151636144Y-94989221D01*
X151639563Y-94966166D01*
X151645227Y-94943557D01*
X151653079Y-94921613D01*
X151663044Y-94900543D01*
X151675026Y-94880552D01*
X151688910Y-94861832D01*
X151704562Y-94844562D01*
X151721832Y-94828910D01*
X151740552Y-94815026D01*
X151760543Y-94803044D01*
X151781613Y-94793079D01*
X151803557Y-94785227D01*
X151826166Y-94779563D01*
X151849221Y-94776144D01*
X151872500Y-94775000D01*
X152447500Y-94775000D01*
X152470779Y-94776144D01*
X152470779Y-94776144D01*
G37*
D14*
X152160000Y-95250000D03*
D13*
G36*
X154220779Y-94776144D02*
G01*
X154243834Y-94779563D01*
X154266443Y-94785227D01*
X154288387Y-94793079D01*
X154309457Y-94803044D01*
X154329448Y-94815026D01*
X154348168Y-94828910D01*
X154365438Y-94844562D01*
X154381090Y-94861832D01*
X154394974Y-94880552D01*
X154406956Y-94900543D01*
X154416921Y-94921613D01*
X154424773Y-94943557D01*
X154430437Y-94966166D01*
X154433856Y-94989221D01*
X154435000Y-95012500D01*
X154435000Y-95487500D01*
X154433856Y-95510779D01*
X154430437Y-95533834D01*
X154424773Y-95556443D01*
X154416921Y-95578387D01*
X154406956Y-95599457D01*
X154394974Y-95619448D01*
X154381090Y-95638168D01*
X154365438Y-95655438D01*
X154348168Y-95671090D01*
X154329448Y-95684974D01*
X154309457Y-95696956D01*
X154288387Y-95706921D01*
X154266443Y-95714773D01*
X154243834Y-95720437D01*
X154220779Y-95723856D01*
X154197500Y-95725000D01*
X153622500Y-95725000D01*
X153599221Y-95723856D01*
X153576166Y-95720437D01*
X153553557Y-95714773D01*
X153531613Y-95706921D01*
X153510543Y-95696956D01*
X153490552Y-95684974D01*
X153471832Y-95671090D01*
X153454562Y-95655438D01*
X153438910Y-95638168D01*
X153425026Y-95619448D01*
X153413044Y-95599457D01*
X153403079Y-95578387D01*
X153395227Y-95556443D01*
X153389563Y-95533834D01*
X153386144Y-95510779D01*
X153385000Y-95487500D01*
X153385000Y-95012500D01*
X153386144Y-94989221D01*
X153389563Y-94966166D01*
X153395227Y-94943557D01*
X153403079Y-94921613D01*
X153413044Y-94900543D01*
X153425026Y-94880552D01*
X153438910Y-94861832D01*
X153454562Y-94844562D01*
X153471832Y-94828910D01*
X153490552Y-94815026D01*
X153510543Y-94803044D01*
X153531613Y-94793079D01*
X153553557Y-94785227D01*
X153576166Y-94779563D01*
X153599221Y-94776144D01*
X153622500Y-94775000D01*
X154197500Y-94775000D01*
X154220779Y-94776144D01*
X154220779Y-94776144D01*
G37*
D14*
X153910000Y-95250000D03*
D13*
G36*
X129800779Y-93301144D02*
G01*
X129823834Y-93304563D01*
X129846443Y-93310227D01*
X129868387Y-93318079D01*
X129889457Y-93328044D01*
X129909448Y-93340026D01*
X129928168Y-93353910D01*
X129945438Y-93369562D01*
X129961090Y-93386832D01*
X129974974Y-93405552D01*
X129986956Y-93425543D01*
X129996921Y-93446613D01*
X130004773Y-93468557D01*
X130010437Y-93491166D01*
X130013856Y-93514221D01*
X130015000Y-93537500D01*
X130015000Y-94112500D01*
X130013856Y-94135779D01*
X130010437Y-94158834D01*
X130004773Y-94181443D01*
X129996921Y-94203387D01*
X129986956Y-94224457D01*
X129974974Y-94244448D01*
X129961090Y-94263168D01*
X129945438Y-94280438D01*
X129928168Y-94296090D01*
X129909448Y-94309974D01*
X129889457Y-94321956D01*
X129868387Y-94331921D01*
X129846443Y-94339773D01*
X129823834Y-94345437D01*
X129800779Y-94348856D01*
X129777500Y-94350000D01*
X129302500Y-94350000D01*
X129279221Y-94348856D01*
X129256166Y-94345437D01*
X129233557Y-94339773D01*
X129211613Y-94331921D01*
X129190543Y-94321956D01*
X129170552Y-94309974D01*
X129151832Y-94296090D01*
X129134562Y-94280438D01*
X129118910Y-94263168D01*
X129105026Y-94244448D01*
X129093044Y-94224457D01*
X129083079Y-94203387D01*
X129075227Y-94181443D01*
X129069563Y-94158834D01*
X129066144Y-94135779D01*
X129065000Y-94112500D01*
X129065000Y-93537500D01*
X129066144Y-93514221D01*
X129069563Y-93491166D01*
X129075227Y-93468557D01*
X129083079Y-93446613D01*
X129093044Y-93425543D01*
X129105026Y-93405552D01*
X129118910Y-93386832D01*
X129134562Y-93369562D01*
X129151832Y-93353910D01*
X129170552Y-93340026D01*
X129190543Y-93328044D01*
X129211613Y-93318079D01*
X129233557Y-93310227D01*
X129256166Y-93304563D01*
X129279221Y-93301144D01*
X129302500Y-93300000D01*
X129777500Y-93300000D01*
X129800779Y-93301144D01*
X129800779Y-93301144D01*
G37*
D14*
X129540000Y-93825000D03*
D13*
G36*
X129800779Y-91551144D02*
G01*
X129823834Y-91554563D01*
X129846443Y-91560227D01*
X129868387Y-91568079D01*
X129889457Y-91578044D01*
X129909448Y-91590026D01*
X129928168Y-91603910D01*
X129945438Y-91619562D01*
X129961090Y-91636832D01*
X129974974Y-91655552D01*
X129986956Y-91675543D01*
X129996921Y-91696613D01*
X130004773Y-91718557D01*
X130010437Y-91741166D01*
X130013856Y-91764221D01*
X130015000Y-91787500D01*
X130015000Y-92362500D01*
X130013856Y-92385779D01*
X130010437Y-92408834D01*
X130004773Y-92431443D01*
X129996921Y-92453387D01*
X129986956Y-92474457D01*
X129974974Y-92494448D01*
X129961090Y-92513168D01*
X129945438Y-92530438D01*
X129928168Y-92546090D01*
X129909448Y-92559974D01*
X129889457Y-92571956D01*
X129868387Y-92581921D01*
X129846443Y-92589773D01*
X129823834Y-92595437D01*
X129800779Y-92598856D01*
X129777500Y-92600000D01*
X129302500Y-92600000D01*
X129279221Y-92598856D01*
X129256166Y-92595437D01*
X129233557Y-92589773D01*
X129211613Y-92581921D01*
X129190543Y-92571956D01*
X129170552Y-92559974D01*
X129151832Y-92546090D01*
X129134562Y-92530438D01*
X129118910Y-92513168D01*
X129105026Y-92494448D01*
X129093044Y-92474457D01*
X129083079Y-92453387D01*
X129075227Y-92431443D01*
X129069563Y-92408834D01*
X129066144Y-92385779D01*
X129065000Y-92362500D01*
X129065000Y-91787500D01*
X129066144Y-91764221D01*
X129069563Y-91741166D01*
X129075227Y-91718557D01*
X129083079Y-91696613D01*
X129093044Y-91675543D01*
X129105026Y-91655552D01*
X129118910Y-91636832D01*
X129134562Y-91619562D01*
X129151832Y-91603910D01*
X129170552Y-91590026D01*
X129190543Y-91578044D01*
X129211613Y-91568079D01*
X129233557Y-91560227D01*
X129256166Y-91554563D01*
X129279221Y-91551144D01*
X129302500Y-91550000D01*
X129777500Y-91550000D01*
X129800779Y-91551144D01*
X129800779Y-91551144D01*
G37*
D14*
X129540000Y-92075000D03*
D13*
G36*
X154220779Y-91601144D02*
G01*
X154243834Y-91604563D01*
X154266443Y-91610227D01*
X154288387Y-91618079D01*
X154309457Y-91628044D01*
X154329448Y-91640026D01*
X154348168Y-91653910D01*
X154365438Y-91669562D01*
X154381090Y-91686832D01*
X154394974Y-91705552D01*
X154406956Y-91725543D01*
X154416921Y-91746613D01*
X154424773Y-91768557D01*
X154430437Y-91791166D01*
X154433856Y-91814221D01*
X154435000Y-91837500D01*
X154435000Y-92312500D01*
X154433856Y-92335779D01*
X154430437Y-92358834D01*
X154424773Y-92381443D01*
X154416921Y-92403387D01*
X154406956Y-92424457D01*
X154394974Y-92444448D01*
X154381090Y-92463168D01*
X154365438Y-92480438D01*
X154348168Y-92496090D01*
X154329448Y-92509974D01*
X154309457Y-92521956D01*
X154288387Y-92531921D01*
X154266443Y-92539773D01*
X154243834Y-92545437D01*
X154220779Y-92548856D01*
X154197500Y-92550000D01*
X153622500Y-92550000D01*
X153599221Y-92548856D01*
X153576166Y-92545437D01*
X153553557Y-92539773D01*
X153531613Y-92531921D01*
X153510543Y-92521956D01*
X153490552Y-92509974D01*
X153471832Y-92496090D01*
X153454562Y-92480438D01*
X153438910Y-92463168D01*
X153425026Y-92444448D01*
X153413044Y-92424457D01*
X153403079Y-92403387D01*
X153395227Y-92381443D01*
X153389563Y-92358834D01*
X153386144Y-92335779D01*
X153385000Y-92312500D01*
X153385000Y-91837500D01*
X153386144Y-91814221D01*
X153389563Y-91791166D01*
X153395227Y-91768557D01*
X153403079Y-91746613D01*
X153413044Y-91725543D01*
X153425026Y-91705552D01*
X153438910Y-91686832D01*
X153454562Y-91669562D01*
X153471832Y-91653910D01*
X153490552Y-91640026D01*
X153510543Y-91628044D01*
X153531613Y-91618079D01*
X153553557Y-91610227D01*
X153576166Y-91604563D01*
X153599221Y-91601144D01*
X153622500Y-91600000D01*
X154197500Y-91600000D01*
X154220779Y-91601144D01*
X154220779Y-91601144D01*
G37*
D14*
X153910000Y-92075000D03*
D13*
G36*
X152470779Y-91601144D02*
G01*
X152493834Y-91604563D01*
X152516443Y-91610227D01*
X152538387Y-91618079D01*
X152559457Y-91628044D01*
X152579448Y-91640026D01*
X152598168Y-91653910D01*
X152615438Y-91669562D01*
X152631090Y-91686832D01*
X152644974Y-91705552D01*
X152656956Y-91725543D01*
X152666921Y-91746613D01*
X152674773Y-91768557D01*
X152680437Y-91791166D01*
X152683856Y-91814221D01*
X152685000Y-91837500D01*
X152685000Y-92312500D01*
X152683856Y-92335779D01*
X152680437Y-92358834D01*
X152674773Y-92381443D01*
X152666921Y-92403387D01*
X152656956Y-92424457D01*
X152644974Y-92444448D01*
X152631090Y-92463168D01*
X152615438Y-92480438D01*
X152598168Y-92496090D01*
X152579448Y-92509974D01*
X152559457Y-92521956D01*
X152538387Y-92531921D01*
X152516443Y-92539773D01*
X152493834Y-92545437D01*
X152470779Y-92548856D01*
X152447500Y-92550000D01*
X151872500Y-92550000D01*
X151849221Y-92548856D01*
X151826166Y-92545437D01*
X151803557Y-92539773D01*
X151781613Y-92531921D01*
X151760543Y-92521956D01*
X151740552Y-92509974D01*
X151721832Y-92496090D01*
X151704562Y-92480438D01*
X151688910Y-92463168D01*
X151675026Y-92444448D01*
X151663044Y-92424457D01*
X151653079Y-92403387D01*
X151645227Y-92381443D01*
X151639563Y-92358834D01*
X151636144Y-92335779D01*
X151635000Y-92312500D01*
X151635000Y-91837500D01*
X151636144Y-91814221D01*
X151639563Y-91791166D01*
X151645227Y-91768557D01*
X151653079Y-91746613D01*
X151663044Y-91725543D01*
X151675026Y-91705552D01*
X151688910Y-91686832D01*
X151704562Y-91669562D01*
X151721832Y-91653910D01*
X151740552Y-91640026D01*
X151760543Y-91628044D01*
X151781613Y-91618079D01*
X151803557Y-91610227D01*
X151826166Y-91604563D01*
X151849221Y-91601144D01*
X151872500Y-91600000D01*
X152447500Y-91600000D01*
X152470779Y-91601144D01*
X152470779Y-91601144D01*
G37*
D14*
X152160000Y-92075000D03*
D13*
G36*
X148529504Y-107181204D02*
G01*
X148553773Y-107184804D01*
X148577571Y-107190765D01*
X148600671Y-107199030D01*
X148622849Y-107209520D01*
X148643893Y-107222133D01*
X148663598Y-107236747D01*
X148681777Y-107253223D01*
X148698253Y-107271402D01*
X148712867Y-107291107D01*
X148725480Y-107312151D01*
X148735970Y-107334329D01*
X148744235Y-107357429D01*
X148750196Y-107381227D01*
X148753796Y-107405496D01*
X148755000Y-107430000D01*
X148755000Y-109530000D01*
X148753796Y-109554504D01*
X148750196Y-109578773D01*
X148744235Y-109602571D01*
X148735970Y-109625671D01*
X148725480Y-109647849D01*
X148712867Y-109668893D01*
X148698253Y-109688598D01*
X148681777Y-109706777D01*
X148663598Y-109723253D01*
X148643893Y-109737867D01*
X148622849Y-109750480D01*
X148600671Y-109760970D01*
X148577571Y-109769235D01*
X148553773Y-109775196D01*
X148529504Y-109778796D01*
X148505000Y-109780000D01*
X147405000Y-109780000D01*
X147380496Y-109778796D01*
X147356227Y-109775196D01*
X147332429Y-109769235D01*
X147309329Y-109760970D01*
X147287151Y-109750480D01*
X147266107Y-109737867D01*
X147246402Y-109723253D01*
X147228223Y-109706777D01*
X147211747Y-109688598D01*
X147197133Y-109668893D01*
X147184520Y-109647849D01*
X147174030Y-109625671D01*
X147165765Y-109602571D01*
X147159804Y-109578773D01*
X147156204Y-109554504D01*
X147155000Y-109530000D01*
X147155000Y-107430000D01*
X147156204Y-107405496D01*
X147159804Y-107381227D01*
X147165765Y-107357429D01*
X147174030Y-107334329D01*
X147184520Y-107312151D01*
X147197133Y-107291107D01*
X147211747Y-107271402D01*
X147228223Y-107253223D01*
X147246402Y-107236747D01*
X147266107Y-107222133D01*
X147287151Y-107209520D01*
X147309329Y-107199030D01*
X147332429Y-107190765D01*
X147356227Y-107184804D01*
X147380496Y-107181204D01*
X147405000Y-107180000D01*
X148505000Y-107180000D01*
X148529504Y-107181204D01*
X148529504Y-107181204D01*
G37*
D15*
X147955000Y-108480000D03*
D13*
G36*
X148529504Y-103581204D02*
G01*
X148553773Y-103584804D01*
X148577571Y-103590765D01*
X148600671Y-103599030D01*
X148622849Y-103609520D01*
X148643893Y-103622133D01*
X148663598Y-103636747D01*
X148681777Y-103653223D01*
X148698253Y-103671402D01*
X148712867Y-103691107D01*
X148725480Y-103712151D01*
X148735970Y-103734329D01*
X148744235Y-103757429D01*
X148750196Y-103781227D01*
X148753796Y-103805496D01*
X148755000Y-103830000D01*
X148755000Y-105930000D01*
X148753796Y-105954504D01*
X148750196Y-105978773D01*
X148744235Y-106002571D01*
X148735970Y-106025671D01*
X148725480Y-106047849D01*
X148712867Y-106068893D01*
X148698253Y-106088598D01*
X148681777Y-106106777D01*
X148663598Y-106123253D01*
X148643893Y-106137867D01*
X148622849Y-106150480D01*
X148600671Y-106160970D01*
X148577571Y-106169235D01*
X148553773Y-106175196D01*
X148529504Y-106178796D01*
X148505000Y-106180000D01*
X147405000Y-106180000D01*
X147380496Y-106178796D01*
X147356227Y-106175196D01*
X147332429Y-106169235D01*
X147309329Y-106160970D01*
X147287151Y-106150480D01*
X147266107Y-106137867D01*
X147246402Y-106123253D01*
X147228223Y-106106777D01*
X147211747Y-106088598D01*
X147197133Y-106068893D01*
X147184520Y-106047849D01*
X147174030Y-106025671D01*
X147165765Y-106002571D01*
X147159804Y-105978773D01*
X147156204Y-105954504D01*
X147155000Y-105930000D01*
X147155000Y-103830000D01*
X147156204Y-103805496D01*
X147159804Y-103781227D01*
X147165765Y-103757429D01*
X147174030Y-103734329D01*
X147184520Y-103712151D01*
X147197133Y-103691107D01*
X147211747Y-103671402D01*
X147228223Y-103653223D01*
X147246402Y-103636747D01*
X147266107Y-103622133D01*
X147287151Y-103609520D01*
X147309329Y-103599030D01*
X147332429Y-103590765D01*
X147356227Y-103584804D01*
X147380496Y-103581204D01*
X147405000Y-103580000D01*
X148505000Y-103580000D01*
X148529504Y-103581204D01*
X148529504Y-103581204D01*
G37*
D15*
X147955000Y-104880000D03*
D13*
G36*
X144850779Y-97951144D02*
G01*
X144873834Y-97954563D01*
X144896443Y-97960227D01*
X144918387Y-97968079D01*
X144939457Y-97978044D01*
X144959448Y-97990026D01*
X144978168Y-98003910D01*
X144995438Y-98019562D01*
X145011090Y-98036832D01*
X145024974Y-98055552D01*
X145036956Y-98075543D01*
X145046921Y-98096613D01*
X145054773Y-98118557D01*
X145060437Y-98141166D01*
X145063856Y-98164221D01*
X145065000Y-98187500D01*
X145065000Y-98662500D01*
X145063856Y-98685779D01*
X145060437Y-98708834D01*
X145054773Y-98731443D01*
X145046921Y-98753387D01*
X145036956Y-98774457D01*
X145024974Y-98794448D01*
X145011090Y-98813168D01*
X144995438Y-98830438D01*
X144978168Y-98846090D01*
X144959448Y-98859974D01*
X144939457Y-98871956D01*
X144918387Y-98881921D01*
X144896443Y-98889773D01*
X144873834Y-98895437D01*
X144850779Y-98898856D01*
X144827500Y-98900000D01*
X144252500Y-98900000D01*
X144229221Y-98898856D01*
X144206166Y-98895437D01*
X144183557Y-98889773D01*
X144161613Y-98881921D01*
X144140543Y-98871956D01*
X144120552Y-98859974D01*
X144101832Y-98846090D01*
X144084562Y-98830438D01*
X144068910Y-98813168D01*
X144055026Y-98794448D01*
X144043044Y-98774457D01*
X144033079Y-98753387D01*
X144025227Y-98731443D01*
X144019563Y-98708834D01*
X144016144Y-98685779D01*
X144015000Y-98662500D01*
X144015000Y-98187500D01*
X144016144Y-98164221D01*
X144019563Y-98141166D01*
X144025227Y-98118557D01*
X144033079Y-98096613D01*
X144043044Y-98075543D01*
X144055026Y-98055552D01*
X144068910Y-98036832D01*
X144084562Y-98019562D01*
X144101832Y-98003910D01*
X144120552Y-97990026D01*
X144140543Y-97978044D01*
X144161613Y-97968079D01*
X144183557Y-97960227D01*
X144206166Y-97954563D01*
X144229221Y-97951144D01*
X144252500Y-97950000D01*
X144827500Y-97950000D01*
X144850779Y-97951144D01*
X144850779Y-97951144D01*
G37*
D14*
X144540000Y-98425000D03*
D13*
G36*
X146600779Y-97951144D02*
G01*
X146623834Y-97954563D01*
X146646443Y-97960227D01*
X146668387Y-97968079D01*
X146689457Y-97978044D01*
X146709448Y-97990026D01*
X146728168Y-98003910D01*
X146745438Y-98019562D01*
X146761090Y-98036832D01*
X146774974Y-98055552D01*
X146786956Y-98075543D01*
X146796921Y-98096613D01*
X146804773Y-98118557D01*
X146810437Y-98141166D01*
X146813856Y-98164221D01*
X146815000Y-98187500D01*
X146815000Y-98662500D01*
X146813856Y-98685779D01*
X146810437Y-98708834D01*
X146804773Y-98731443D01*
X146796921Y-98753387D01*
X146786956Y-98774457D01*
X146774974Y-98794448D01*
X146761090Y-98813168D01*
X146745438Y-98830438D01*
X146728168Y-98846090D01*
X146709448Y-98859974D01*
X146689457Y-98871956D01*
X146668387Y-98881921D01*
X146646443Y-98889773D01*
X146623834Y-98895437D01*
X146600779Y-98898856D01*
X146577500Y-98900000D01*
X146002500Y-98900000D01*
X145979221Y-98898856D01*
X145956166Y-98895437D01*
X145933557Y-98889773D01*
X145911613Y-98881921D01*
X145890543Y-98871956D01*
X145870552Y-98859974D01*
X145851832Y-98846090D01*
X145834562Y-98830438D01*
X145818910Y-98813168D01*
X145805026Y-98794448D01*
X145793044Y-98774457D01*
X145783079Y-98753387D01*
X145775227Y-98731443D01*
X145769563Y-98708834D01*
X145766144Y-98685779D01*
X145765000Y-98662500D01*
X145765000Y-98187500D01*
X145766144Y-98164221D01*
X145769563Y-98141166D01*
X145775227Y-98118557D01*
X145783079Y-98096613D01*
X145793044Y-98075543D01*
X145805026Y-98055552D01*
X145818910Y-98036832D01*
X145834562Y-98019562D01*
X145851832Y-98003910D01*
X145870552Y-97990026D01*
X145890543Y-97978044D01*
X145911613Y-97968079D01*
X145933557Y-97960227D01*
X145956166Y-97954563D01*
X145979221Y-97951144D01*
X146002500Y-97950000D01*
X146577500Y-97950000D01*
X146600779Y-97951144D01*
X146600779Y-97951144D01*
G37*
D14*
X146290000Y-98425000D03*
D13*
G36*
X146600779Y-101126144D02*
G01*
X146623834Y-101129563D01*
X146646443Y-101135227D01*
X146668387Y-101143079D01*
X146689457Y-101153044D01*
X146709448Y-101165026D01*
X146728168Y-101178910D01*
X146745438Y-101194562D01*
X146761090Y-101211832D01*
X146774974Y-101230552D01*
X146786956Y-101250543D01*
X146796921Y-101271613D01*
X146804773Y-101293557D01*
X146810437Y-101316166D01*
X146813856Y-101339221D01*
X146815000Y-101362500D01*
X146815000Y-101837500D01*
X146813856Y-101860779D01*
X146810437Y-101883834D01*
X146804773Y-101906443D01*
X146796921Y-101928387D01*
X146786956Y-101949457D01*
X146774974Y-101969448D01*
X146761090Y-101988168D01*
X146745438Y-102005438D01*
X146728168Y-102021090D01*
X146709448Y-102034974D01*
X146689457Y-102046956D01*
X146668387Y-102056921D01*
X146646443Y-102064773D01*
X146623834Y-102070437D01*
X146600779Y-102073856D01*
X146577500Y-102075000D01*
X146002500Y-102075000D01*
X145979221Y-102073856D01*
X145956166Y-102070437D01*
X145933557Y-102064773D01*
X145911613Y-102056921D01*
X145890543Y-102046956D01*
X145870552Y-102034974D01*
X145851832Y-102021090D01*
X145834562Y-102005438D01*
X145818910Y-101988168D01*
X145805026Y-101969448D01*
X145793044Y-101949457D01*
X145783079Y-101928387D01*
X145775227Y-101906443D01*
X145769563Y-101883834D01*
X145766144Y-101860779D01*
X145765000Y-101837500D01*
X145765000Y-101362500D01*
X145766144Y-101339221D01*
X145769563Y-101316166D01*
X145775227Y-101293557D01*
X145783079Y-101271613D01*
X145793044Y-101250543D01*
X145805026Y-101230552D01*
X145818910Y-101211832D01*
X145834562Y-101194562D01*
X145851832Y-101178910D01*
X145870552Y-101165026D01*
X145890543Y-101153044D01*
X145911613Y-101143079D01*
X145933557Y-101135227D01*
X145956166Y-101129563D01*
X145979221Y-101126144D01*
X146002500Y-101125000D01*
X146577500Y-101125000D01*
X146600779Y-101126144D01*
X146600779Y-101126144D01*
G37*
D14*
X146290000Y-101600000D03*
D13*
G36*
X144850779Y-101126144D02*
G01*
X144873834Y-101129563D01*
X144896443Y-101135227D01*
X144918387Y-101143079D01*
X144939457Y-101153044D01*
X144959448Y-101165026D01*
X144978168Y-101178910D01*
X144995438Y-101194562D01*
X145011090Y-101211832D01*
X145024974Y-101230552D01*
X145036956Y-101250543D01*
X145046921Y-101271613D01*
X145054773Y-101293557D01*
X145060437Y-101316166D01*
X145063856Y-101339221D01*
X145065000Y-101362500D01*
X145065000Y-101837500D01*
X145063856Y-101860779D01*
X145060437Y-101883834D01*
X145054773Y-101906443D01*
X145046921Y-101928387D01*
X145036956Y-101949457D01*
X145024974Y-101969448D01*
X145011090Y-101988168D01*
X144995438Y-102005438D01*
X144978168Y-102021090D01*
X144959448Y-102034974D01*
X144939457Y-102046956D01*
X144918387Y-102056921D01*
X144896443Y-102064773D01*
X144873834Y-102070437D01*
X144850779Y-102073856D01*
X144827500Y-102075000D01*
X144252500Y-102075000D01*
X144229221Y-102073856D01*
X144206166Y-102070437D01*
X144183557Y-102064773D01*
X144161613Y-102056921D01*
X144140543Y-102046956D01*
X144120552Y-102034974D01*
X144101832Y-102021090D01*
X144084562Y-102005438D01*
X144068910Y-101988168D01*
X144055026Y-101969448D01*
X144043044Y-101949457D01*
X144033079Y-101928387D01*
X144025227Y-101906443D01*
X144019563Y-101883834D01*
X144016144Y-101860779D01*
X144015000Y-101837500D01*
X144015000Y-101362500D01*
X144016144Y-101339221D01*
X144019563Y-101316166D01*
X144025227Y-101293557D01*
X144033079Y-101271613D01*
X144043044Y-101250543D01*
X144055026Y-101230552D01*
X144068910Y-101211832D01*
X144084562Y-101194562D01*
X144101832Y-101178910D01*
X144120552Y-101165026D01*
X144140543Y-101153044D01*
X144161613Y-101143079D01*
X144183557Y-101135227D01*
X144206166Y-101129563D01*
X144229221Y-101126144D01*
X144252500Y-101125000D01*
X144827500Y-101125000D01*
X144850779Y-101126144D01*
X144850779Y-101126144D01*
G37*
D14*
X144540000Y-101600000D03*
D16*
X123190000Y-78105000D03*
D17*
X125730000Y-80645000D03*
X125730000Y-75565000D03*
X120650000Y-75565000D03*
X120650000Y-80645000D03*
X160020000Y-80645000D03*
X160020000Y-75565000D03*
X165100000Y-75565000D03*
X165100000Y-80645000D03*
D16*
X162560000Y-78105000D03*
D18*
X137160000Y-106680000D03*
D19*
X139700000Y-106680000D03*
X142240000Y-106680000D03*
D17*
X131985001Y-80645000D03*
X131985001Y-75565000D03*
X137065001Y-75565000D03*
X137065001Y-80645000D03*
D16*
X134525001Y-78105000D03*
X151130000Y-78105000D03*
D17*
X153670000Y-80645000D03*
X153670000Y-75565000D03*
X148590000Y-75565000D03*
X148590000Y-80645000D03*
D20*
X135890000Y-88900000D03*
D13*
G36*
X135890000Y-87900000D02*
G01*
X136640000Y-88400000D01*
X136640000Y-89400000D01*
X135140000Y-89400000D01*
X135140000Y-88400000D01*
X135890000Y-87900000D01*
X135890000Y-87900000D01*
G37*
D20*
X135890000Y-87450000D03*
D13*
G36*
X136640000Y-86950000D02*
G01*
X136640000Y-88100000D01*
X135890000Y-87600000D01*
X135140000Y-88100000D01*
X135140000Y-86950000D01*
X136640000Y-86950000D01*
X136640000Y-86950000D01*
G37*
D20*
X148590000Y-92075000D03*
D13*
G36*
X148590000Y-91075000D02*
G01*
X149340000Y-91575000D01*
X149340000Y-92575000D01*
X147840000Y-92575000D01*
X147840000Y-91575000D01*
X148590000Y-91075000D01*
X148590000Y-91075000D01*
G37*
D20*
X148590000Y-90625000D03*
D13*
G36*
X149340000Y-90125000D02*
G01*
X149340000Y-91275000D01*
X148590000Y-90775000D01*
X147840000Y-91275000D01*
X147840000Y-90125000D01*
X149340000Y-90125000D01*
X149340000Y-90125000D01*
G37*
D20*
X131355000Y-87630000D03*
D13*
G36*
X130855000Y-86880000D02*
G01*
X132005000Y-86880000D01*
X131505000Y-87630000D01*
X132005000Y-88380000D01*
X130855000Y-88380000D01*
X130855000Y-86880000D01*
X130855000Y-86880000D01*
G37*
D20*
X132805000Y-87630000D03*
D13*
G36*
X131805000Y-87630000D02*
G01*
X132305000Y-86880000D01*
X133305000Y-86880000D01*
X133305000Y-88380000D01*
X132305000Y-88380000D01*
X131805000Y-87630000D01*
X131805000Y-87630000D01*
G37*
D20*
X153760000Y-86360000D03*
D13*
G36*
X154260000Y-87110000D02*
G01*
X153110000Y-87110000D01*
X153610000Y-86360000D01*
X153110000Y-85610000D01*
X154260000Y-85610000D01*
X154260000Y-87110000D01*
X154260000Y-87110000D01*
G37*
D20*
X152310000Y-86360000D03*
D13*
G36*
X153310000Y-86360000D02*
G01*
X152810000Y-87110000D01*
X151810000Y-87110000D01*
X151810000Y-85610000D01*
X152810000Y-85610000D01*
X153310000Y-86360000D01*
X153310000Y-86360000D01*
G37*
G36*
X127260779Y-93301144D02*
G01*
X127283834Y-93304563D01*
X127306443Y-93310227D01*
X127328387Y-93318079D01*
X127349457Y-93328044D01*
X127369448Y-93340026D01*
X127388168Y-93353910D01*
X127405438Y-93369562D01*
X127421090Y-93386832D01*
X127434974Y-93405552D01*
X127446956Y-93425543D01*
X127456921Y-93446613D01*
X127464773Y-93468557D01*
X127470437Y-93491166D01*
X127473856Y-93514221D01*
X127475000Y-93537500D01*
X127475000Y-94112500D01*
X127473856Y-94135779D01*
X127470437Y-94158834D01*
X127464773Y-94181443D01*
X127456921Y-94203387D01*
X127446956Y-94224457D01*
X127434974Y-94244448D01*
X127421090Y-94263168D01*
X127405438Y-94280438D01*
X127388168Y-94296090D01*
X127369448Y-94309974D01*
X127349457Y-94321956D01*
X127328387Y-94331921D01*
X127306443Y-94339773D01*
X127283834Y-94345437D01*
X127260779Y-94348856D01*
X127237500Y-94350000D01*
X126762500Y-94350000D01*
X126739221Y-94348856D01*
X126716166Y-94345437D01*
X126693557Y-94339773D01*
X126671613Y-94331921D01*
X126650543Y-94321956D01*
X126630552Y-94309974D01*
X126611832Y-94296090D01*
X126594562Y-94280438D01*
X126578910Y-94263168D01*
X126565026Y-94244448D01*
X126553044Y-94224457D01*
X126543079Y-94203387D01*
X126535227Y-94181443D01*
X126529563Y-94158834D01*
X126526144Y-94135779D01*
X126525000Y-94112500D01*
X126525000Y-93537500D01*
X126526144Y-93514221D01*
X126529563Y-93491166D01*
X126535227Y-93468557D01*
X126543079Y-93446613D01*
X126553044Y-93425543D01*
X126565026Y-93405552D01*
X126578910Y-93386832D01*
X126594562Y-93369562D01*
X126611832Y-93353910D01*
X126630552Y-93340026D01*
X126650543Y-93328044D01*
X126671613Y-93318079D01*
X126693557Y-93310227D01*
X126716166Y-93304563D01*
X126739221Y-93301144D01*
X126762500Y-93300000D01*
X127237500Y-93300000D01*
X127260779Y-93301144D01*
X127260779Y-93301144D01*
G37*
D14*
X127000000Y-93825000D03*
D13*
G36*
X127260779Y-91551144D02*
G01*
X127283834Y-91554563D01*
X127306443Y-91560227D01*
X127328387Y-91568079D01*
X127349457Y-91578044D01*
X127369448Y-91590026D01*
X127388168Y-91603910D01*
X127405438Y-91619562D01*
X127421090Y-91636832D01*
X127434974Y-91655552D01*
X127446956Y-91675543D01*
X127456921Y-91696613D01*
X127464773Y-91718557D01*
X127470437Y-91741166D01*
X127473856Y-91764221D01*
X127475000Y-91787500D01*
X127475000Y-92362500D01*
X127473856Y-92385779D01*
X127470437Y-92408834D01*
X127464773Y-92431443D01*
X127456921Y-92453387D01*
X127446956Y-92474457D01*
X127434974Y-92494448D01*
X127421090Y-92513168D01*
X127405438Y-92530438D01*
X127388168Y-92546090D01*
X127369448Y-92559974D01*
X127349457Y-92571956D01*
X127328387Y-92581921D01*
X127306443Y-92589773D01*
X127283834Y-92595437D01*
X127260779Y-92598856D01*
X127237500Y-92600000D01*
X126762500Y-92600000D01*
X126739221Y-92598856D01*
X126716166Y-92595437D01*
X126693557Y-92589773D01*
X126671613Y-92581921D01*
X126650543Y-92571956D01*
X126630552Y-92559974D01*
X126611832Y-92546090D01*
X126594562Y-92530438D01*
X126578910Y-92513168D01*
X126565026Y-92494448D01*
X126553044Y-92474457D01*
X126543079Y-92453387D01*
X126535227Y-92431443D01*
X126529563Y-92408834D01*
X126526144Y-92385779D01*
X126525000Y-92362500D01*
X126525000Y-91787500D01*
X126526144Y-91764221D01*
X126529563Y-91741166D01*
X126535227Y-91718557D01*
X126543079Y-91696613D01*
X126553044Y-91675543D01*
X126565026Y-91655552D01*
X126578910Y-91636832D01*
X126594562Y-91619562D01*
X126611832Y-91603910D01*
X126630552Y-91590026D01*
X126650543Y-91578044D01*
X126671613Y-91568079D01*
X126693557Y-91560227D01*
X126716166Y-91554563D01*
X126739221Y-91551144D01*
X126762500Y-91550000D01*
X127237500Y-91550000D01*
X127260779Y-91551144D01*
X127260779Y-91551144D01*
G37*
D14*
X127000000Y-92075000D03*
D13*
G36*
X159010779Y-90281144D02*
G01*
X159033834Y-90284563D01*
X159056443Y-90290227D01*
X159078387Y-90298079D01*
X159099457Y-90308044D01*
X159119448Y-90320026D01*
X159138168Y-90333910D01*
X159155438Y-90349562D01*
X159171090Y-90366832D01*
X159184974Y-90385552D01*
X159196956Y-90405543D01*
X159206921Y-90426613D01*
X159214773Y-90448557D01*
X159220437Y-90471166D01*
X159223856Y-90494221D01*
X159225000Y-90517500D01*
X159225000Y-91092500D01*
X159223856Y-91115779D01*
X159220437Y-91138834D01*
X159214773Y-91161443D01*
X159206921Y-91183387D01*
X159196956Y-91204457D01*
X159184974Y-91224448D01*
X159171090Y-91243168D01*
X159155438Y-91260438D01*
X159138168Y-91276090D01*
X159119448Y-91289974D01*
X159099457Y-91301956D01*
X159078387Y-91311921D01*
X159056443Y-91319773D01*
X159033834Y-91325437D01*
X159010779Y-91328856D01*
X158987500Y-91330000D01*
X158512500Y-91330000D01*
X158489221Y-91328856D01*
X158466166Y-91325437D01*
X158443557Y-91319773D01*
X158421613Y-91311921D01*
X158400543Y-91301956D01*
X158380552Y-91289974D01*
X158361832Y-91276090D01*
X158344562Y-91260438D01*
X158328910Y-91243168D01*
X158315026Y-91224448D01*
X158303044Y-91204457D01*
X158293079Y-91183387D01*
X158285227Y-91161443D01*
X158279563Y-91138834D01*
X158276144Y-91115779D01*
X158275000Y-91092500D01*
X158275000Y-90517500D01*
X158276144Y-90494221D01*
X158279563Y-90471166D01*
X158285227Y-90448557D01*
X158293079Y-90426613D01*
X158303044Y-90405543D01*
X158315026Y-90385552D01*
X158328910Y-90366832D01*
X158344562Y-90349562D01*
X158361832Y-90333910D01*
X158380552Y-90320026D01*
X158400543Y-90308044D01*
X158421613Y-90298079D01*
X158443557Y-90290227D01*
X158466166Y-90284563D01*
X158489221Y-90281144D01*
X158512500Y-90280000D01*
X158987500Y-90280000D01*
X159010779Y-90281144D01*
X159010779Y-90281144D01*
G37*
D14*
X158750000Y-90805000D03*
D13*
G36*
X159010779Y-88531144D02*
G01*
X159033834Y-88534563D01*
X159056443Y-88540227D01*
X159078387Y-88548079D01*
X159099457Y-88558044D01*
X159119448Y-88570026D01*
X159138168Y-88583910D01*
X159155438Y-88599562D01*
X159171090Y-88616832D01*
X159184974Y-88635552D01*
X159196956Y-88655543D01*
X159206921Y-88676613D01*
X159214773Y-88698557D01*
X159220437Y-88721166D01*
X159223856Y-88744221D01*
X159225000Y-88767500D01*
X159225000Y-89342500D01*
X159223856Y-89365779D01*
X159220437Y-89388834D01*
X159214773Y-89411443D01*
X159206921Y-89433387D01*
X159196956Y-89454457D01*
X159184974Y-89474448D01*
X159171090Y-89493168D01*
X159155438Y-89510438D01*
X159138168Y-89526090D01*
X159119448Y-89539974D01*
X159099457Y-89551956D01*
X159078387Y-89561921D01*
X159056443Y-89569773D01*
X159033834Y-89575437D01*
X159010779Y-89578856D01*
X158987500Y-89580000D01*
X158512500Y-89580000D01*
X158489221Y-89578856D01*
X158466166Y-89575437D01*
X158443557Y-89569773D01*
X158421613Y-89561921D01*
X158400543Y-89551956D01*
X158380552Y-89539974D01*
X158361832Y-89526090D01*
X158344562Y-89510438D01*
X158328910Y-89493168D01*
X158315026Y-89474448D01*
X158303044Y-89454457D01*
X158293079Y-89433387D01*
X158285227Y-89411443D01*
X158279563Y-89388834D01*
X158276144Y-89365779D01*
X158275000Y-89342500D01*
X158275000Y-88767500D01*
X158276144Y-88744221D01*
X158279563Y-88721166D01*
X158285227Y-88698557D01*
X158293079Y-88676613D01*
X158303044Y-88655543D01*
X158315026Y-88635552D01*
X158328910Y-88616832D01*
X158344562Y-88599562D01*
X158361832Y-88583910D01*
X158380552Y-88570026D01*
X158400543Y-88558044D01*
X158421613Y-88548079D01*
X158443557Y-88540227D01*
X158466166Y-88534563D01*
X158489221Y-88531144D01*
X158512500Y-88530000D01*
X158987500Y-88530000D01*
X159010779Y-88531144D01*
X159010779Y-88531144D01*
G37*
D14*
X158750000Y-89055000D03*
D13*
G36*
X132340779Y-91551144D02*
G01*
X132363834Y-91554563D01*
X132386443Y-91560227D01*
X132408387Y-91568079D01*
X132429457Y-91578044D01*
X132449448Y-91590026D01*
X132468168Y-91603910D01*
X132485438Y-91619562D01*
X132501090Y-91636832D01*
X132514974Y-91655552D01*
X132526956Y-91675543D01*
X132536921Y-91696613D01*
X132544773Y-91718557D01*
X132550437Y-91741166D01*
X132553856Y-91764221D01*
X132555000Y-91787500D01*
X132555000Y-92362500D01*
X132553856Y-92385779D01*
X132550437Y-92408834D01*
X132544773Y-92431443D01*
X132536921Y-92453387D01*
X132526956Y-92474457D01*
X132514974Y-92494448D01*
X132501090Y-92513168D01*
X132485438Y-92530438D01*
X132468168Y-92546090D01*
X132449448Y-92559974D01*
X132429457Y-92571956D01*
X132408387Y-92581921D01*
X132386443Y-92589773D01*
X132363834Y-92595437D01*
X132340779Y-92598856D01*
X132317500Y-92600000D01*
X131842500Y-92600000D01*
X131819221Y-92598856D01*
X131796166Y-92595437D01*
X131773557Y-92589773D01*
X131751613Y-92581921D01*
X131730543Y-92571956D01*
X131710552Y-92559974D01*
X131691832Y-92546090D01*
X131674562Y-92530438D01*
X131658910Y-92513168D01*
X131645026Y-92494448D01*
X131633044Y-92474457D01*
X131623079Y-92453387D01*
X131615227Y-92431443D01*
X131609563Y-92408834D01*
X131606144Y-92385779D01*
X131605000Y-92362500D01*
X131605000Y-91787500D01*
X131606144Y-91764221D01*
X131609563Y-91741166D01*
X131615227Y-91718557D01*
X131623079Y-91696613D01*
X131633044Y-91675543D01*
X131645026Y-91655552D01*
X131658910Y-91636832D01*
X131674562Y-91619562D01*
X131691832Y-91603910D01*
X131710552Y-91590026D01*
X131730543Y-91578044D01*
X131751613Y-91568079D01*
X131773557Y-91560227D01*
X131796166Y-91554563D01*
X131819221Y-91551144D01*
X131842500Y-91550000D01*
X132317500Y-91550000D01*
X132340779Y-91551144D01*
X132340779Y-91551144D01*
G37*
D14*
X132080000Y-92075000D03*
D13*
G36*
X132340779Y-93301144D02*
G01*
X132363834Y-93304563D01*
X132386443Y-93310227D01*
X132408387Y-93318079D01*
X132429457Y-93328044D01*
X132449448Y-93340026D01*
X132468168Y-93353910D01*
X132485438Y-93369562D01*
X132501090Y-93386832D01*
X132514974Y-93405552D01*
X132526956Y-93425543D01*
X132536921Y-93446613D01*
X132544773Y-93468557D01*
X132550437Y-93491166D01*
X132553856Y-93514221D01*
X132555000Y-93537500D01*
X132555000Y-94112500D01*
X132553856Y-94135779D01*
X132550437Y-94158834D01*
X132544773Y-94181443D01*
X132536921Y-94203387D01*
X132526956Y-94224457D01*
X132514974Y-94244448D01*
X132501090Y-94263168D01*
X132485438Y-94280438D01*
X132468168Y-94296090D01*
X132449448Y-94309974D01*
X132429457Y-94321956D01*
X132408387Y-94331921D01*
X132386443Y-94339773D01*
X132363834Y-94345437D01*
X132340779Y-94348856D01*
X132317500Y-94350000D01*
X131842500Y-94350000D01*
X131819221Y-94348856D01*
X131796166Y-94345437D01*
X131773557Y-94339773D01*
X131751613Y-94331921D01*
X131730543Y-94321956D01*
X131710552Y-94309974D01*
X131691832Y-94296090D01*
X131674562Y-94280438D01*
X131658910Y-94263168D01*
X131645026Y-94244448D01*
X131633044Y-94224457D01*
X131623079Y-94203387D01*
X131615227Y-94181443D01*
X131609563Y-94158834D01*
X131606144Y-94135779D01*
X131605000Y-94112500D01*
X131605000Y-93537500D01*
X131606144Y-93514221D01*
X131609563Y-93491166D01*
X131615227Y-93468557D01*
X131623079Y-93446613D01*
X131633044Y-93425543D01*
X131645026Y-93405552D01*
X131658910Y-93386832D01*
X131674562Y-93369562D01*
X131691832Y-93353910D01*
X131710552Y-93340026D01*
X131730543Y-93328044D01*
X131751613Y-93318079D01*
X131773557Y-93310227D01*
X131796166Y-93304563D01*
X131819221Y-93301144D01*
X131842500Y-93300000D01*
X132317500Y-93300000D01*
X132340779Y-93301144D01*
X132340779Y-93301144D01*
G37*
D14*
X132080000Y-93825000D03*
D13*
G36*
X159010779Y-92341144D02*
G01*
X159033834Y-92344563D01*
X159056443Y-92350227D01*
X159078387Y-92358079D01*
X159099457Y-92368044D01*
X159119448Y-92380026D01*
X159138168Y-92393910D01*
X159155438Y-92409562D01*
X159171090Y-92426832D01*
X159184974Y-92445552D01*
X159196956Y-92465543D01*
X159206921Y-92486613D01*
X159214773Y-92508557D01*
X159220437Y-92531166D01*
X159223856Y-92554221D01*
X159225000Y-92577500D01*
X159225000Y-93152500D01*
X159223856Y-93175779D01*
X159220437Y-93198834D01*
X159214773Y-93221443D01*
X159206921Y-93243387D01*
X159196956Y-93264457D01*
X159184974Y-93284448D01*
X159171090Y-93303168D01*
X159155438Y-93320438D01*
X159138168Y-93336090D01*
X159119448Y-93349974D01*
X159099457Y-93361956D01*
X159078387Y-93371921D01*
X159056443Y-93379773D01*
X159033834Y-93385437D01*
X159010779Y-93388856D01*
X158987500Y-93390000D01*
X158512500Y-93390000D01*
X158489221Y-93388856D01*
X158466166Y-93385437D01*
X158443557Y-93379773D01*
X158421613Y-93371921D01*
X158400543Y-93361956D01*
X158380552Y-93349974D01*
X158361832Y-93336090D01*
X158344562Y-93320438D01*
X158328910Y-93303168D01*
X158315026Y-93284448D01*
X158303044Y-93264457D01*
X158293079Y-93243387D01*
X158285227Y-93221443D01*
X158279563Y-93198834D01*
X158276144Y-93175779D01*
X158275000Y-93152500D01*
X158275000Y-92577500D01*
X158276144Y-92554221D01*
X158279563Y-92531166D01*
X158285227Y-92508557D01*
X158293079Y-92486613D01*
X158303044Y-92465543D01*
X158315026Y-92445552D01*
X158328910Y-92426832D01*
X158344562Y-92409562D01*
X158361832Y-92393910D01*
X158380552Y-92380026D01*
X158400543Y-92368044D01*
X158421613Y-92358079D01*
X158443557Y-92350227D01*
X158466166Y-92344563D01*
X158489221Y-92341144D01*
X158512500Y-92340000D01*
X158987500Y-92340000D01*
X159010779Y-92341144D01*
X159010779Y-92341144D01*
G37*
D14*
X158750000Y-92865000D03*
D13*
G36*
X159010779Y-94091144D02*
G01*
X159033834Y-94094563D01*
X159056443Y-94100227D01*
X159078387Y-94108079D01*
X159099457Y-94118044D01*
X159119448Y-94130026D01*
X159138168Y-94143910D01*
X159155438Y-94159562D01*
X159171090Y-94176832D01*
X159184974Y-94195552D01*
X159196956Y-94215543D01*
X159206921Y-94236613D01*
X159214773Y-94258557D01*
X159220437Y-94281166D01*
X159223856Y-94304221D01*
X159225000Y-94327500D01*
X159225000Y-94902500D01*
X159223856Y-94925779D01*
X159220437Y-94948834D01*
X159214773Y-94971443D01*
X159206921Y-94993387D01*
X159196956Y-95014457D01*
X159184974Y-95034448D01*
X159171090Y-95053168D01*
X159155438Y-95070438D01*
X159138168Y-95086090D01*
X159119448Y-95099974D01*
X159099457Y-95111956D01*
X159078387Y-95121921D01*
X159056443Y-95129773D01*
X159033834Y-95135437D01*
X159010779Y-95138856D01*
X158987500Y-95140000D01*
X158512500Y-95140000D01*
X158489221Y-95138856D01*
X158466166Y-95135437D01*
X158443557Y-95129773D01*
X158421613Y-95121921D01*
X158400543Y-95111956D01*
X158380552Y-95099974D01*
X158361832Y-95086090D01*
X158344562Y-95070438D01*
X158328910Y-95053168D01*
X158315026Y-95034448D01*
X158303044Y-95014457D01*
X158293079Y-94993387D01*
X158285227Y-94971443D01*
X158279563Y-94948834D01*
X158276144Y-94925779D01*
X158275000Y-94902500D01*
X158275000Y-94327500D01*
X158276144Y-94304221D01*
X158279563Y-94281166D01*
X158285227Y-94258557D01*
X158293079Y-94236613D01*
X158303044Y-94215543D01*
X158315026Y-94195552D01*
X158328910Y-94176832D01*
X158344562Y-94159562D01*
X158361832Y-94143910D01*
X158380552Y-94130026D01*
X158400543Y-94118044D01*
X158421613Y-94108079D01*
X158443557Y-94100227D01*
X158466166Y-94094563D01*
X158489221Y-94091144D01*
X158512500Y-94090000D01*
X158987500Y-94090000D01*
X159010779Y-94091144D01*
X159010779Y-94091144D01*
G37*
D14*
X158750000Y-94615000D03*
D13*
G36*
X139969703Y-90505722D02*
G01*
X139984264Y-90507882D01*
X139998543Y-90511459D01*
X140012403Y-90516418D01*
X140025710Y-90522712D01*
X140038336Y-90530280D01*
X140050159Y-90539048D01*
X140061066Y-90548934D01*
X140070952Y-90559841D01*
X140079720Y-90571664D01*
X140087288Y-90584290D01*
X140093582Y-90597597D01*
X140098541Y-90611457D01*
X140102118Y-90625736D01*
X140104278Y-90640297D01*
X140105000Y-90655000D01*
X140105000Y-90955000D01*
X140104278Y-90969703D01*
X140102118Y-90984264D01*
X140098541Y-90998543D01*
X140093582Y-91012403D01*
X140087288Y-91025710D01*
X140079720Y-91038336D01*
X140070952Y-91050159D01*
X140061066Y-91061066D01*
X140050159Y-91070952D01*
X140038336Y-91079720D01*
X140025710Y-91087288D01*
X140012403Y-91093582D01*
X139998543Y-91098541D01*
X139984264Y-91102118D01*
X139969703Y-91104278D01*
X139955000Y-91105000D01*
X138305000Y-91105000D01*
X138290297Y-91104278D01*
X138275736Y-91102118D01*
X138261457Y-91098541D01*
X138247597Y-91093582D01*
X138234290Y-91087288D01*
X138221664Y-91079720D01*
X138209841Y-91070952D01*
X138198934Y-91061066D01*
X138189048Y-91050159D01*
X138180280Y-91038336D01*
X138172712Y-91025710D01*
X138166418Y-91012403D01*
X138161459Y-90998543D01*
X138157882Y-90984264D01*
X138155722Y-90969703D01*
X138155000Y-90955000D01*
X138155000Y-90655000D01*
X138155722Y-90640297D01*
X138157882Y-90625736D01*
X138161459Y-90611457D01*
X138166418Y-90597597D01*
X138172712Y-90584290D01*
X138180280Y-90571664D01*
X138189048Y-90559841D01*
X138198934Y-90548934D01*
X138209841Y-90539048D01*
X138221664Y-90530280D01*
X138234290Y-90522712D01*
X138247597Y-90516418D01*
X138261457Y-90511459D01*
X138275736Y-90507882D01*
X138290297Y-90505722D01*
X138305000Y-90505000D01*
X139955000Y-90505000D01*
X139969703Y-90505722D01*
X139969703Y-90505722D01*
G37*
D21*
X139130000Y-90805000D03*
D13*
G36*
X139969703Y-91775722D02*
G01*
X139984264Y-91777882D01*
X139998543Y-91781459D01*
X140012403Y-91786418D01*
X140025710Y-91792712D01*
X140038336Y-91800280D01*
X140050159Y-91809048D01*
X140061066Y-91818934D01*
X140070952Y-91829841D01*
X140079720Y-91841664D01*
X140087288Y-91854290D01*
X140093582Y-91867597D01*
X140098541Y-91881457D01*
X140102118Y-91895736D01*
X140104278Y-91910297D01*
X140105000Y-91925000D01*
X140105000Y-92225000D01*
X140104278Y-92239703D01*
X140102118Y-92254264D01*
X140098541Y-92268543D01*
X140093582Y-92282403D01*
X140087288Y-92295710D01*
X140079720Y-92308336D01*
X140070952Y-92320159D01*
X140061066Y-92331066D01*
X140050159Y-92340952D01*
X140038336Y-92349720D01*
X140025710Y-92357288D01*
X140012403Y-92363582D01*
X139998543Y-92368541D01*
X139984264Y-92372118D01*
X139969703Y-92374278D01*
X139955000Y-92375000D01*
X138305000Y-92375000D01*
X138290297Y-92374278D01*
X138275736Y-92372118D01*
X138261457Y-92368541D01*
X138247597Y-92363582D01*
X138234290Y-92357288D01*
X138221664Y-92349720D01*
X138209841Y-92340952D01*
X138198934Y-92331066D01*
X138189048Y-92320159D01*
X138180280Y-92308336D01*
X138172712Y-92295710D01*
X138166418Y-92282403D01*
X138161459Y-92268543D01*
X138157882Y-92254264D01*
X138155722Y-92239703D01*
X138155000Y-92225000D01*
X138155000Y-91925000D01*
X138155722Y-91910297D01*
X138157882Y-91895736D01*
X138161459Y-91881457D01*
X138166418Y-91867597D01*
X138172712Y-91854290D01*
X138180280Y-91841664D01*
X138189048Y-91829841D01*
X138198934Y-91818934D01*
X138209841Y-91809048D01*
X138221664Y-91800280D01*
X138234290Y-91792712D01*
X138247597Y-91786418D01*
X138261457Y-91781459D01*
X138275736Y-91777882D01*
X138290297Y-91775722D01*
X138305000Y-91775000D01*
X139955000Y-91775000D01*
X139969703Y-91775722D01*
X139969703Y-91775722D01*
G37*
D21*
X139130000Y-92075000D03*
D13*
G36*
X139969703Y-93045722D02*
G01*
X139984264Y-93047882D01*
X139998543Y-93051459D01*
X140012403Y-93056418D01*
X140025710Y-93062712D01*
X140038336Y-93070280D01*
X140050159Y-93079048D01*
X140061066Y-93088934D01*
X140070952Y-93099841D01*
X140079720Y-93111664D01*
X140087288Y-93124290D01*
X140093582Y-93137597D01*
X140098541Y-93151457D01*
X140102118Y-93165736D01*
X140104278Y-93180297D01*
X140105000Y-93195000D01*
X140105000Y-93495000D01*
X140104278Y-93509703D01*
X140102118Y-93524264D01*
X140098541Y-93538543D01*
X140093582Y-93552403D01*
X140087288Y-93565710D01*
X140079720Y-93578336D01*
X140070952Y-93590159D01*
X140061066Y-93601066D01*
X140050159Y-93610952D01*
X140038336Y-93619720D01*
X140025710Y-93627288D01*
X140012403Y-93633582D01*
X139998543Y-93638541D01*
X139984264Y-93642118D01*
X139969703Y-93644278D01*
X139955000Y-93645000D01*
X138305000Y-93645000D01*
X138290297Y-93644278D01*
X138275736Y-93642118D01*
X138261457Y-93638541D01*
X138247597Y-93633582D01*
X138234290Y-93627288D01*
X138221664Y-93619720D01*
X138209841Y-93610952D01*
X138198934Y-93601066D01*
X138189048Y-93590159D01*
X138180280Y-93578336D01*
X138172712Y-93565710D01*
X138166418Y-93552403D01*
X138161459Y-93538543D01*
X138157882Y-93524264D01*
X138155722Y-93509703D01*
X138155000Y-93495000D01*
X138155000Y-93195000D01*
X138155722Y-93180297D01*
X138157882Y-93165736D01*
X138161459Y-93151457D01*
X138166418Y-93137597D01*
X138172712Y-93124290D01*
X138180280Y-93111664D01*
X138189048Y-93099841D01*
X138198934Y-93088934D01*
X138209841Y-93079048D01*
X138221664Y-93070280D01*
X138234290Y-93062712D01*
X138247597Y-93056418D01*
X138261457Y-93051459D01*
X138275736Y-93047882D01*
X138290297Y-93045722D01*
X138305000Y-93045000D01*
X139955000Y-93045000D01*
X139969703Y-93045722D01*
X139969703Y-93045722D01*
G37*
D21*
X139130000Y-93345000D03*
D13*
G36*
X139969703Y-94315722D02*
G01*
X139984264Y-94317882D01*
X139998543Y-94321459D01*
X140012403Y-94326418D01*
X140025710Y-94332712D01*
X140038336Y-94340280D01*
X140050159Y-94349048D01*
X140061066Y-94358934D01*
X140070952Y-94369841D01*
X140079720Y-94381664D01*
X140087288Y-94394290D01*
X140093582Y-94407597D01*
X140098541Y-94421457D01*
X140102118Y-94435736D01*
X140104278Y-94450297D01*
X140105000Y-94465000D01*
X140105000Y-94765000D01*
X140104278Y-94779703D01*
X140102118Y-94794264D01*
X140098541Y-94808543D01*
X140093582Y-94822403D01*
X140087288Y-94835710D01*
X140079720Y-94848336D01*
X140070952Y-94860159D01*
X140061066Y-94871066D01*
X140050159Y-94880952D01*
X140038336Y-94889720D01*
X140025710Y-94897288D01*
X140012403Y-94903582D01*
X139998543Y-94908541D01*
X139984264Y-94912118D01*
X139969703Y-94914278D01*
X139955000Y-94915000D01*
X138305000Y-94915000D01*
X138290297Y-94914278D01*
X138275736Y-94912118D01*
X138261457Y-94908541D01*
X138247597Y-94903582D01*
X138234290Y-94897288D01*
X138221664Y-94889720D01*
X138209841Y-94880952D01*
X138198934Y-94871066D01*
X138189048Y-94860159D01*
X138180280Y-94848336D01*
X138172712Y-94835710D01*
X138166418Y-94822403D01*
X138161459Y-94808543D01*
X138157882Y-94794264D01*
X138155722Y-94779703D01*
X138155000Y-94765000D01*
X138155000Y-94465000D01*
X138155722Y-94450297D01*
X138157882Y-94435736D01*
X138161459Y-94421457D01*
X138166418Y-94407597D01*
X138172712Y-94394290D01*
X138180280Y-94381664D01*
X138189048Y-94369841D01*
X138198934Y-94358934D01*
X138209841Y-94349048D01*
X138221664Y-94340280D01*
X138234290Y-94332712D01*
X138247597Y-94326418D01*
X138261457Y-94321459D01*
X138275736Y-94317882D01*
X138290297Y-94315722D01*
X138305000Y-94315000D01*
X139955000Y-94315000D01*
X139969703Y-94315722D01*
X139969703Y-94315722D01*
G37*
D21*
X139130000Y-94615000D03*
D13*
G36*
X144919703Y-94315722D02*
G01*
X144934264Y-94317882D01*
X144948543Y-94321459D01*
X144962403Y-94326418D01*
X144975710Y-94332712D01*
X144988336Y-94340280D01*
X145000159Y-94349048D01*
X145011066Y-94358934D01*
X145020952Y-94369841D01*
X145029720Y-94381664D01*
X145037288Y-94394290D01*
X145043582Y-94407597D01*
X145048541Y-94421457D01*
X145052118Y-94435736D01*
X145054278Y-94450297D01*
X145055000Y-94465000D01*
X145055000Y-94765000D01*
X145054278Y-94779703D01*
X145052118Y-94794264D01*
X145048541Y-94808543D01*
X145043582Y-94822403D01*
X145037288Y-94835710D01*
X145029720Y-94848336D01*
X145020952Y-94860159D01*
X145011066Y-94871066D01*
X145000159Y-94880952D01*
X144988336Y-94889720D01*
X144975710Y-94897288D01*
X144962403Y-94903582D01*
X144948543Y-94908541D01*
X144934264Y-94912118D01*
X144919703Y-94914278D01*
X144905000Y-94915000D01*
X143255000Y-94915000D01*
X143240297Y-94914278D01*
X143225736Y-94912118D01*
X143211457Y-94908541D01*
X143197597Y-94903582D01*
X143184290Y-94897288D01*
X143171664Y-94889720D01*
X143159841Y-94880952D01*
X143148934Y-94871066D01*
X143139048Y-94860159D01*
X143130280Y-94848336D01*
X143122712Y-94835710D01*
X143116418Y-94822403D01*
X143111459Y-94808543D01*
X143107882Y-94794264D01*
X143105722Y-94779703D01*
X143105000Y-94765000D01*
X143105000Y-94465000D01*
X143105722Y-94450297D01*
X143107882Y-94435736D01*
X143111459Y-94421457D01*
X143116418Y-94407597D01*
X143122712Y-94394290D01*
X143130280Y-94381664D01*
X143139048Y-94369841D01*
X143148934Y-94358934D01*
X143159841Y-94349048D01*
X143171664Y-94340280D01*
X143184290Y-94332712D01*
X143197597Y-94326418D01*
X143211457Y-94321459D01*
X143225736Y-94317882D01*
X143240297Y-94315722D01*
X143255000Y-94315000D01*
X144905000Y-94315000D01*
X144919703Y-94315722D01*
X144919703Y-94315722D01*
G37*
D21*
X144080000Y-94615000D03*
D13*
G36*
X144919703Y-93045722D02*
G01*
X144934264Y-93047882D01*
X144948543Y-93051459D01*
X144962403Y-93056418D01*
X144975710Y-93062712D01*
X144988336Y-93070280D01*
X145000159Y-93079048D01*
X145011066Y-93088934D01*
X145020952Y-93099841D01*
X145029720Y-93111664D01*
X145037288Y-93124290D01*
X145043582Y-93137597D01*
X145048541Y-93151457D01*
X145052118Y-93165736D01*
X145054278Y-93180297D01*
X145055000Y-93195000D01*
X145055000Y-93495000D01*
X145054278Y-93509703D01*
X145052118Y-93524264D01*
X145048541Y-93538543D01*
X145043582Y-93552403D01*
X145037288Y-93565710D01*
X145029720Y-93578336D01*
X145020952Y-93590159D01*
X145011066Y-93601066D01*
X145000159Y-93610952D01*
X144988336Y-93619720D01*
X144975710Y-93627288D01*
X144962403Y-93633582D01*
X144948543Y-93638541D01*
X144934264Y-93642118D01*
X144919703Y-93644278D01*
X144905000Y-93645000D01*
X143255000Y-93645000D01*
X143240297Y-93644278D01*
X143225736Y-93642118D01*
X143211457Y-93638541D01*
X143197597Y-93633582D01*
X143184290Y-93627288D01*
X143171664Y-93619720D01*
X143159841Y-93610952D01*
X143148934Y-93601066D01*
X143139048Y-93590159D01*
X143130280Y-93578336D01*
X143122712Y-93565710D01*
X143116418Y-93552403D01*
X143111459Y-93538543D01*
X143107882Y-93524264D01*
X143105722Y-93509703D01*
X143105000Y-93495000D01*
X143105000Y-93195000D01*
X143105722Y-93180297D01*
X143107882Y-93165736D01*
X143111459Y-93151457D01*
X143116418Y-93137597D01*
X143122712Y-93124290D01*
X143130280Y-93111664D01*
X143139048Y-93099841D01*
X143148934Y-93088934D01*
X143159841Y-93079048D01*
X143171664Y-93070280D01*
X143184290Y-93062712D01*
X143197597Y-93056418D01*
X143211457Y-93051459D01*
X143225736Y-93047882D01*
X143240297Y-93045722D01*
X143255000Y-93045000D01*
X144905000Y-93045000D01*
X144919703Y-93045722D01*
X144919703Y-93045722D01*
G37*
D21*
X144080000Y-93345000D03*
D13*
G36*
X144919703Y-91775722D02*
G01*
X144934264Y-91777882D01*
X144948543Y-91781459D01*
X144962403Y-91786418D01*
X144975710Y-91792712D01*
X144988336Y-91800280D01*
X145000159Y-91809048D01*
X145011066Y-91818934D01*
X145020952Y-91829841D01*
X145029720Y-91841664D01*
X145037288Y-91854290D01*
X145043582Y-91867597D01*
X145048541Y-91881457D01*
X145052118Y-91895736D01*
X145054278Y-91910297D01*
X145055000Y-91925000D01*
X145055000Y-92225000D01*
X145054278Y-92239703D01*
X145052118Y-92254264D01*
X145048541Y-92268543D01*
X145043582Y-92282403D01*
X145037288Y-92295710D01*
X145029720Y-92308336D01*
X145020952Y-92320159D01*
X145011066Y-92331066D01*
X145000159Y-92340952D01*
X144988336Y-92349720D01*
X144975710Y-92357288D01*
X144962403Y-92363582D01*
X144948543Y-92368541D01*
X144934264Y-92372118D01*
X144919703Y-92374278D01*
X144905000Y-92375000D01*
X143255000Y-92375000D01*
X143240297Y-92374278D01*
X143225736Y-92372118D01*
X143211457Y-92368541D01*
X143197597Y-92363582D01*
X143184290Y-92357288D01*
X143171664Y-92349720D01*
X143159841Y-92340952D01*
X143148934Y-92331066D01*
X143139048Y-92320159D01*
X143130280Y-92308336D01*
X143122712Y-92295710D01*
X143116418Y-92282403D01*
X143111459Y-92268543D01*
X143107882Y-92254264D01*
X143105722Y-92239703D01*
X143105000Y-92225000D01*
X143105000Y-91925000D01*
X143105722Y-91910297D01*
X143107882Y-91895736D01*
X143111459Y-91881457D01*
X143116418Y-91867597D01*
X143122712Y-91854290D01*
X143130280Y-91841664D01*
X143139048Y-91829841D01*
X143148934Y-91818934D01*
X143159841Y-91809048D01*
X143171664Y-91800280D01*
X143184290Y-91792712D01*
X143197597Y-91786418D01*
X143211457Y-91781459D01*
X143225736Y-91777882D01*
X143240297Y-91775722D01*
X143255000Y-91775000D01*
X144905000Y-91775000D01*
X144919703Y-91775722D01*
X144919703Y-91775722D01*
G37*
D21*
X144080000Y-92075000D03*
D13*
G36*
X144919703Y-90505722D02*
G01*
X144934264Y-90507882D01*
X144948543Y-90511459D01*
X144962403Y-90516418D01*
X144975710Y-90522712D01*
X144988336Y-90530280D01*
X145000159Y-90539048D01*
X145011066Y-90548934D01*
X145020952Y-90559841D01*
X145029720Y-90571664D01*
X145037288Y-90584290D01*
X145043582Y-90597597D01*
X145048541Y-90611457D01*
X145052118Y-90625736D01*
X145054278Y-90640297D01*
X145055000Y-90655000D01*
X145055000Y-90955000D01*
X145054278Y-90969703D01*
X145052118Y-90984264D01*
X145048541Y-90998543D01*
X145043582Y-91012403D01*
X145037288Y-91025710D01*
X145029720Y-91038336D01*
X145020952Y-91050159D01*
X145011066Y-91061066D01*
X145000159Y-91070952D01*
X144988336Y-91079720D01*
X144975710Y-91087288D01*
X144962403Y-91093582D01*
X144948543Y-91098541D01*
X144934264Y-91102118D01*
X144919703Y-91104278D01*
X144905000Y-91105000D01*
X143255000Y-91105000D01*
X143240297Y-91104278D01*
X143225736Y-91102118D01*
X143211457Y-91098541D01*
X143197597Y-91093582D01*
X143184290Y-91087288D01*
X143171664Y-91079720D01*
X143159841Y-91070952D01*
X143148934Y-91061066D01*
X143139048Y-91050159D01*
X143130280Y-91038336D01*
X143122712Y-91025710D01*
X143116418Y-91012403D01*
X143111459Y-90998543D01*
X143107882Y-90984264D01*
X143105722Y-90969703D01*
X143105000Y-90955000D01*
X143105000Y-90655000D01*
X143105722Y-90640297D01*
X143107882Y-90625736D01*
X143111459Y-90611457D01*
X143116418Y-90597597D01*
X143122712Y-90584290D01*
X143130280Y-90571664D01*
X143139048Y-90559841D01*
X143148934Y-90548934D01*
X143159841Y-90539048D01*
X143171664Y-90530280D01*
X143184290Y-90522712D01*
X143197597Y-90516418D01*
X143211457Y-90511459D01*
X143225736Y-90507882D01*
X143240297Y-90505722D01*
X143255000Y-90505000D01*
X144905000Y-90505000D01*
X144919703Y-90505722D01*
X144919703Y-90505722D01*
G37*
D21*
X144080000Y-90805000D03*
D22*
X132080000Y-90805000D03*
X130175000Y-89535000D03*
X140970000Y-104140000D03*
X143510000Y-104140000D03*
D23*
X133245000Y-106680000D02*
X131445000Y-104880000D01*
X137160000Y-106680000D02*
X133245000Y-106680000D01*
X132080000Y-101600000D02*
X133745000Y-101600000D01*
X131445000Y-104880000D02*
X131445000Y-102235000D01*
X131445000Y-102235000D02*
X132080000Y-101600000D01*
X133745000Y-101600000D02*
X133745000Y-97790000D01*
X138055000Y-94615000D02*
X139130000Y-94615000D01*
X136345000Y-94615000D02*
X138055000Y-94615000D01*
X133745000Y-97215000D02*
X136345000Y-94615000D01*
X133745000Y-97790000D02*
X133745000Y-97215000D01*
X132080000Y-93825000D02*
X135255000Y-93825000D01*
X138650000Y-93825000D02*
X139130000Y-93345000D01*
X135255000Y-93825000D02*
X138650000Y-93825000D01*
X130860002Y-87135002D02*
X131355000Y-87630000D01*
X130860002Y-81769999D02*
X130860002Y-87135002D01*
X131985001Y-80645000D02*
X130860002Y-81769999D01*
X135255000Y-92075000D02*
X133985000Y-90805000D01*
X133985000Y-90805000D02*
X132080000Y-90805000D01*
X130175000Y-88810000D02*
X131355000Y-87630000D01*
X130175000Y-89535000D02*
X130175000Y-88810000D01*
X153760000Y-85510000D02*
X153760000Y-86360000D01*
X153760000Y-82325990D02*
X153760000Y-85510000D01*
X153670000Y-82235990D02*
X153760000Y-82325990D01*
X153670000Y-80645000D02*
X153670000Y-82235990D01*
X135495000Y-97790000D02*
X135495000Y-101600000D01*
X135495000Y-102475000D02*
X139700000Y-106680000D01*
X135495000Y-101600000D02*
X135495000Y-102475000D01*
X137900000Y-108480000D02*
X131445000Y-108480000D01*
X139700000Y-106680000D02*
X137900000Y-108480000D01*
X146290000Y-98425000D02*
X146290000Y-101600000D01*
X146915000Y-98425000D02*
X146290000Y-98425000D01*
X151310000Y-98425000D02*
X146915000Y-98425000D01*
X153910000Y-95825000D02*
X151310000Y-98425000D01*
X153910000Y-95250000D02*
X153910000Y-95825000D01*
X146290000Y-101600000D02*
X147320000Y-101600000D01*
X147955000Y-102235000D02*
X147955000Y-104880000D01*
X147320000Y-101600000D02*
X147955000Y-102235000D01*
X139700000Y-106680000D02*
X139700000Y-105410000D01*
X139700000Y-105410000D02*
X140970000Y-104140000D01*
X143750000Y-104140000D02*
X146290000Y-101600000D01*
X143510000Y-104140000D02*
X143750000Y-104140000D01*
X168910000Y-84455000D02*
X170180000Y-84455000D01*
X165100000Y-80645000D02*
X168910000Y-84455000D01*
X116840000Y-84455000D02*
X115570000Y-84455000D01*
X120650000Y-80645000D02*
X116840000Y-84455000D01*
X146050000Y-83185000D02*
X148590000Y-80645000D01*
X143510000Y-83185000D02*
X146050000Y-83185000D01*
X144080000Y-94615000D02*
X147320000Y-94615000D01*
X147955000Y-95250000D02*
X152160000Y-95250000D01*
X147320000Y-94615000D02*
X147955000Y-95250000D01*
X158250928Y-94115928D02*
X158750000Y-94615000D01*
X152719072Y-94115928D02*
X158250928Y-94115928D01*
X152160000Y-94675000D02*
X152719072Y-94115928D01*
X152160000Y-95250000D02*
X152160000Y-94675000D01*
X131290000Y-92075000D02*
X129540000Y-93825000D01*
X132080000Y-92075000D02*
X131290000Y-92075000D01*
X129540000Y-93825000D02*
X127000000Y-93825000D01*
X136740000Y-87450000D02*
X135890000Y-87450000D01*
X139130000Y-89840000D02*
X136740000Y-87450000D01*
X139130000Y-90805000D02*
X139130000Y-89840000D01*
X132805000Y-88810000D02*
X132805000Y-87630000D01*
X129540000Y-92075000D02*
X132805000Y-88810000D01*
X134525001Y-78105000D02*
X134525001Y-83090001D01*
X134525001Y-83090001D02*
X135890000Y-84455000D01*
X135890000Y-84455000D02*
X135890000Y-87450000D01*
X132985000Y-87450000D02*
X135890000Y-87450000D01*
X132805000Y-87630000D02*
X132985000Y-87450000D01*
X139065000Y-84455000D02*
X138004340Y-84455000D01*
X138004340Y-84455000D02*
X135890000Y-84455000D01*
X158750000Y-90805000D02*
X158750000Y-92865000D01*
X154700000Y-92865000D02*
X153910000Y-92075000D01*
X158750000Y-92865000D02*
X154700000Y-92865000D01*
X151130000Y-85180000D02*
X152310000Y-86360000D01*
X151130000Y-78105000D02*
X151130000Y-85180000D01*
X147740000Y-90625000D02*
X148590000Y-90625000D01*
X146660710Y-91704290D02*
X147740000Y-90625000D01*
X144450710Y-91704290D02*
X146660710Y-91704290D01*
X144080000Y-92075000D02*
X144450710Y-91704290D01*
X150710000Y-90625000D02*
X152160000Y-92075000D01*
X148590000Y-90625000D02*
X150710000Y-90625000D01*
X148590000Y-90625000D02*
X148590000Y-87630000D01*
X151040000Y-87630000D02*
X152310000Y-86360000D01*
X148590000Y-87630000D02*
X151040000Y-87630000D01*
X151105001Y-85204999D02*
X151130000Y-85180000D01*
X149339999Y-85204999D02*
X151105001Y-85204999D01*
X148590000Y-84455000D02*
X149339999Y-85204999D01*
X144040000Y-108480000D02*
X147955000Y-108480000D01*
X142240000Y-106680000D02*
X144040000Y-108480000D01*
X142875000Y-101600000D02*
X144540000Y-101600000D01*
X142240000Y-106680000D02*
X142240000Y-102235000D01*
X142240000Y-102235000D02*
X142875000Y-101600000D01*
X144540000Y-101600000D02*
X144540000Y-98425000D01*
X144040928Y-97925928D02*
X144540000Y-98425000D01*
X142704990Y-96589990D02*
X144040928Y-97925928D01*
X142704990Y-91105010D02*
X142704990Y-96589990D01*
X143005000Y-90805000D02*
X142704990Y-91105010D01*
X144080000Y-90805000D02*
X143005000Y-90805000D01*
X123190000Y-88265000D02*
X123190000Y-78105000D01*
X127000000Y-92075000D02*
X123190000Y-88265000D01*
X119380000Y-85725000D02*
X121920000Y-88265000D01*
X121920000Y-88265000D02*
X123190000Y-88265000D01*
X162560000Y-85245000D02*
X158750000Y-89055000D01*
X162560000Y-78105000D02*
X162560000Y-85245000D01*
X163040000Y-85725000D02*
X162560000Y-85245000D01*
X165735000Y-85725000D02*
X163040000Y-85725000D01*
X135890000Y-89500000D02*
X135890000Y-88900000D01*
X135890000Y-89910000D02*
X135890000Y-89500000D01*
X138055000Y-92075000D02*
X135890000Y-89910000D01*
X139130000Y-92075000D02*
X138055000Y-92075000D01*
X147320000Y-93345000D02*
X148590000Y-92075000D01*
X144080000Y-93345000D02*
X147320000Y-93345000D01*
D24*
G36*
X175235000Y-111100000D02*
G01*
X110515000Y-111100000D01*
X110515000Y-106346607D01*
X111550000Y-106346607D01*
X111550000Y-107013393D01*
X111680083Y-107667368D01*
X111935252Y-108283399D01*
X112305698Y-108837812D01*
X112777188Y-109309302D01*
X113331601Y-109679748D01*
X113947632Y-109934917D01*
X114601607Y-110065000D01*
X115268393Y-110065000D01*
X115922368Y-109934917D01*
X116296369Y-109780000D01*
X130006928Y-109780000D01*
X130019188Y-109904482D01*
X130055498Y-110024180D01*
X130114463Y-110134494D01*
X130193815Y-110231185D01*
X130290506Y-110310537D01*
X130400820Y-110369502D01*
X130520518Y-110405812D01*
X130645000Y-110418072D01*
X131159250Y-110415000D01*
X131318000Y-110256250D01*
X131318000Y-108607000D01*
X131572000Y-108607000D01*
X131572000Y-110256250D01*
X131730750Y-110415000D01*
X132245000Y-110418072D01*
X132369482Y-110405812D01*
X132489180Y-110369502D01*
X132599494Y-110310537D01*
X132696185Y-110231185D01*
X132775537Y-110134494D01*
X132834502Y-110024180D01*
X132870812Y-109904482D01*
X132883072Y-109780000D01*
X132880000Y-108765750D01*
X132721250Y-108607000D01*
X131572000Y-108607000D01*
X131318000Y-108607000D01*
X130168750Y-108607000D01*
X130010000Y-108765750D01*
X130006928Y-109780000D01*
X116296369Y-109780000D01*
X116538399Y-109679748D01*
X117092812Y-109309302D01*
X117564302Y-108837812D01*
X117934748Y-108283399D01*
X118189917Y-107667368D01*
X118320000Y-107013393D01*
X118320000Y-106346607D01*
X118189917Y-105692632D01*
X117934748Y-105076601D01*
X117564302Y-104522188D01*
X117092812Y-104050698D01*
X116538399Y-103680252D01*
X115922368Y-103425083D01*
X115268393Y-103295000D01*
X114601607Y-103295000D01*
X113947632Y-103425083D01*
X113331601Y-103680252D01*
X112777188Y-104050698D01*
X112305698Y-104522188D01*
X111935252Y-105076601D01*
X111680083Y-105692632D01*
X111550000Y-106346607D01*
X110515000Y-106346607D01*
X110515000Y-85233166D01*
X114971439Y-85233166D01*
X115006550Y-85446588D01*
X115210826Y-85537458D01*
X115428905Y-85586731D01*
X115652406Y-85592511D01*
X115675186Y-85588589D01*
X117995000Y-85588589D01*
X117995000Y-85861411D01*
X118048225Y-86128989D01*
X118152629Y-86381043D01*
X118304201Y-86607886D01*
X118497114Y-86800799D01*
X118723957Y-86952371D01*
X118976011Y-87056775D01*
X119243589Y-87110000D01*
X119516411Y-87110000D01*
X119572897Y-87098764D01*
X121300559Y-88826427D01*
X121326709Y-88858291D01*
X121453854Y-88962636D01*
X121598913Y-89040172D01*
X121756311Y-89087918D01*
X121878981Y-89100000D01*
X121878991Y-89100000D01*
X121919999Y-89104039D01*
X121961007Y-89100000D01*
X122844133Y-89100000D01*
X125886928Y-92142797D01*
X125886928Y-92362500D01*
X125903752Y-92533316D01*
X125953577Y-92697567D01*
X126034488Y-92848942D01*
X126117425Y-92950000D01*
X126034488Y-93051058D01*
X125953577Y-93202433D01*
X125903752Y-93366684D01*
X125886928Y-93537500D01*
X125886928Y-94112500D01*
X125903752Y-94283316D01*
X125953577Y-94447567D01*
X126034488Y-94598942D01*
X126143377Y-94731623D01*
X126276058Y-94840512D01*
X126427433Y-94921423D01*
X126591684Y-94971248D01*
X126762500Y-94988072D01*
X127237500Y-94988072D01*
X127408316Y-94971248D01*
X127572567Y-94921423D01*
X127723942Y-94840512D01*
X127856623Y-94731623D01*
X127915403Y-94660000D01*
X128624597Y-94660000D01*
X128683377Y-94731623D01*
X128816058Y-94840512D01*
X128967433Y-94921423D01*
X129131684Y-94971248D01*
X129302500Y-94988072D01*
X129777500Y-94988072D01*
X129948316Y-94971248D01*
X130112567Y-94921423D01*
X130263942Y-94840512D01*
X130396623Y-94731623D01*
X130505512Y-94598942D01*
X130586423Y-94447567D01*
X130636248Y-94283316D01*
X130653072Y-94112500D01*
X130653072Y-93892796D01*
X130966928Y-93578940D01*
X130966928Y-94112500D01*
X130983752Y-94283316D01*
X131033577Y-94447567D01*
X131114488Y-94598942D01*
X131223377Y-94731623D01*
X131356058Y-94840512D01*
X131507433Y-94921423D01*
X131671684Y-94971248D01*
X131842500Y-94988072D01*
X132317500Y-94988072D01*
X132488316Y-94971248D01*
X132652567Y-94921423D01*
X132803942Y-94840512D01*
X132936623Y-94731623D01*
X132995403Y-94660000D01*
X134339597Y-94660000D01*
X134398377Y-94731623D01*
X134531058Y-94840512D01*
X134682433Y-94921423D01*
X134816915Y-94962218D01*
X133183574Y-96595559D01*
X133151710Y-96621709D01*
X133047365Y-96748854D01*
X133021288Y-96797640D01*
X132971058Y-96824488D01*
X132838377Y-96933377D01*
X132729488Y-97066058D01*
X132648577Y-97217433D01*
X132598752Y-97381684D01*
X132581928Y-97552500D01*
X132581928Y-98027500D01*
X132598752Y-98198316D01*
X132648577Y-98362567D01*
X132729488Y-98513942D01*
X132838377Y-98646623D01*
X132910001Y-98705403D01*
X132910000Y-100684597D01*
X132838377Y-100743377D01*
X132820631Y-100765000D01*
X132121018Y-100765000D01*
X132080000Y-100760960D01*
X132038982Y-100765000D01*
X132038981Y-100765000D01*
X131916311Y-100777082D01*
X131758913Y-100824828D01*
X131613854Y-100902364D01*
X131486709Y-101006709D01*
X131460562Y-101038569D01*
X130883573Y-101615559D01*
X130851710Y-101641709D01*
X130825562Y-101673571D01*
X130747364Y-101768855D01*
X130669828Y-101913914D01*
X130622082Y-102071312D01*
X130605960Y-102235000D01*
X130610001Y-102276028D01*
X130610001Y-102992889D01*
X130555150Y-103009528D01*
X130401614Y-103091595D01*
X130267038Y-103202038D01*
X130156595Y-103336614D01*
X130074528Y-103490150D01*
X130023992Y-103656746D01*
X130006928Y-103830000D01*
X130006928Y-105930000D01*
X130023992Y-106103254D01*
X130074528Y-106269850D01*
X130156595Y-106423386D01*
X130267038Y-106557962D01*
X130343813Y-106620969D01*
X130290506Y-106649463D01*
X130193815Y-106728815D01*
X130114463Y-106825506D01*
X130055498Y-106935820D01*
X130019188Y-107055518D01*
X130006928Y-107180000D01*
X130010000Y-108194250D01*
X130168750Y-108353000D01*
X131318000Y-108353000D01*
X131318000Y-108333000D01*
X131572000Y-108333000D01*
X131572000Y-108353000D01*
X132721250Y-108353000D01*
X132880000Y-108194250D01*
X132882306Y-107432932D01*
X132923913Y-107455172D01*
X133081311Y-107502918D01*
X133203981Y-107515000D01*
X133203991Y-107515000D01*
X133244999Y-107519039D01*
X133286007Y-107515000D01*
X135671928Y-107515000D01*
X135671928Y-107530000D01*
X135684188Y-107654482D01*
X135720498Y-107774180D01*
X135779463Y-107884494D01*
X135858815Y-107981185D01*
X135955506Y-108060537D01*
X136065820Y-108119502D01*
X136185518Y-108155812D01*
X136310000Y-108168072D01*
X138010000Y-108168072D01*
X138134482Y-108155812D01*
X138254180Y-108119502D01*
X138364494Y-108060537D01*
X138461185Y-107981185D01*
X138540537Y-107884494D01*
X138599502Y-107774180D01*
X138623966Y-107693534D01*
X138699731Y-107777588D01*
X138933080Y-107951641D01*
X139195901Y-108076825D01*
X139343110Y-108121476D01*
X139573000Y-108000155D01*
X139573000Y-106807000D01*
X139553000Y-106807000D01*
X139553000Y-106553000D01*
X139573000Y-106553000D01*
X139573000Y-105359845D01*
X139827000Y-105359845D01*
X139827000Y-106553000D01*
X139847000Y-106553000D01*
X139847000Y-106807000D01*
X139827000Y-106807000D01*
X139827000Y-108000155D01*
X140056890Y-108121476D01*
X140204099Y-108076825D01*
X140466920Y-107951641D01*
X140700269Y-107777588D01*
X140895178Y-107561355D01*
X140964799Y-107444477D01*
X140999294Y-107509014D01*
X141184866Y-107735134D01*
X141410986Y-107920706D01*
X141668966Y-108058599D01*
X141948889Y-108143513D01*
X142167050Y-108165000D01*
X142312950Y-108165000D01*
X142523405Y-108144272D01*
X143420559Y-109041427D01*
X143446709Y-109073291D01*
X143573854Y-109177636D01*
X143718913Y-109255172D01*
X143876311Y-109302918D01*
X143998981Y-109315000D01*
X143998991Y-109315000D01*
X144039999Y-109319039D01*
X144081007Y-109315000D01*
X146516928Y-109315000D01*
X146516928Y-109530000D01*
X146533992Y-109703254D01*
X146584528Y-109869850D01*
X146666595Y-110023386D01*
X146777038Y-110157962D01*
X146911614Y-110268405D01*
X147065150Y-110350472D01*
X147231746Y-110401008D01*
X147405000Y-110418072D01*
X148505000Y-110418072D01*
X148678254Y-110401008D01*
X148844850Y-110350472D01*
X148998386Y-110268405D01*
X149132962Y-110157962D01*
X149243405Y-110023386D01*
X149325472Y-109869850D01*
X149376008Y-109703254D01*
X149393072Y-109530000D01*
X149393072Y-107430000D01*
X149376008Y-107256746D01*
X149325472Y-107090150D01*
X149243405Y-106936614D01*
X149132962Y-106802038D01*
X149056187Y-106739031D01*
X149109494Y-106710537D01*
X149206185Y-106631185D01*
X149285537Y-106534494D01*
X149344502Y-106424180D01*
X149368033Y-106346607D01*
X167430000Y-106346607D01*
X167430000Y-107013393D01*
X167560083Y-107667368D01*
X167815252Y-108283399D01*
X168185698Y-108837812D01*
X168657188Y-109309302D01*
X169211601Y-109679748D01*
X169827632Y-109934917D01*
X170481607Y-110065000D01*
X171148393Y-110065000D01*
X171802368Y-109934917D01*
X172418399Y-109679748D01*
X172972812Y-109309302D01*
X173444302Y-108837812D01*
X173814748Y-108283399D01*
X174069917Y-107667368D01*
X174200000Y-107013393D01*
X174200000Y-106346607D01*
X174069917Y-105692632D01*
X173814748Y-105076601D01*
X173444302Y-104522188D01*
X172972812Y-104050698D01*
X172418399Y-103680252D01*
X171802368Y-103425083D01*
X171148393Y-103295000D01*
X170481607Y-103295000D01*
X169827632Y-103425083D01*
X169211601Y-103680252D01*
X168657188Y-104050698D01*
X168185698Y-104522188D01*
X167815252Y-105076601D01*
X167560083Y-105692632D01*
X167430000Y-106346607D01*
X149368033Y-106346607D01*
X149380812Y-106304482D01*
X149393072Y-106180000D01*
X149390000Y-105165750D01*
X149231250Y-105007000D01*
X148082000Y-105007000D01*
X148082000Y-105027000D01*
X147828000Y-105027000D01*
X147828000Y-105007000D01*
X146678750Y-105007000D01*
X146520000Y-105165750D01*
X146516928Y-106180000D01*
X146529188Y-106304482D01*
X146565498Y-106424180D01*
X146624463Y-106534494D01*
X146703815Y-106631185D01*
X146800506Y-106710537D01*
X146853813Y-106739031D01*
X146777038Y-106802038D01*
X146666595Y-106936614D01*
X146584528Y-107090150D01*
X146533992Y-107256746D01*
X146516928Y-107430000D01*
X146516928Y-107645000D01*
X144385868Y-107645000D01*
X143704272Y-106963405D01*
X143732185Y-106680000D01*
X143703513Y-106388889D01*
X143618599Y-106108966D01*
X143480706Y-105850986D01*
X143295134Y-105624866D01*
X143075000Y-105444207D01*
X143075000Y-103580000D01*
X146516928Y-103580000D01*
X146520000Y-104594250D01*
X146678750Y-104753000D01*
X147828000Y-104753000D01*
X147828000Y-103103750D01*
X148082000Y-103103750D01*
X148082000Y-104753000D01*
X149231250Y-104753000D01*
X149390000Y-104594250D01*
X149393072Y-103580000D01*
X149380812Y-103455518D01*
X149344502Y-103335820D01*
X149285537Y-103225506D01*
X149206185Y-103128815D01*
X149109494Y-103049463D01*
X148999180Y-102990498D01*
X148879482Y-102954188D01*
X148755000Y-102941928D01*
X148240750Y-102945000D01*
X148082000Y-103103750D01*
X147828000Y-103103750D01*
X147669250Y-102945000D01*
X147155000Y-102941928D01*
X147030518Y-102954188D01*
X146910820Y-102990498D01*
X146800506Y-103049463D01*
X146703815Y-103128815D01*
X146624463Y-103225506D01*
X146565498Y-103335820D01*
X146529188Y-103455518D01*
X146516928Y-103580000D01*
X143075000Y-103580000D01*
X143075000Y-102580868D01*
X143220868Y-102435000D01*
X143615631Y-102435000D01*
X143633377Y-102456623D01*
X143766058Y-102565512D01*
X143917433Y-102646423D01*
X144081684Y-102696248D01*
X144252500Y-102713072D01*
X144827500Y-102713072D01*
X144998316Y-102696248D01*
X145162567Y-102646423D01*
X145313942Y-102565512D01*
X145337839Y-102545901D01*
X145410506Y-102605537D01*
X145520820Y-102664502D01*
X145640518Y-102700812D01*
X145765000Y-102713072D01*
X146004250Y-102710000D01*
X146163000Y-102551250D01*
X146163000Y-101727000D01*
X146417000Y-101727000D01*
X146417000Y-102551250D01*
X146575750Y-102710000D01*
X146815000Y-102713072D01*
X146939482Y-102700812D01*
X147059180Y-102664502D01*
X147169494Y-102605537D01*
X147266185Y-102526185D01*
X147345537Y-102429494D01*
X147404502Y-102319180D01*
X147440812Y-102199482D01*
X147453072Y-102075000D01*
X147450000Y-101885750D01*
X147291250Y-101727000D01*
X146417000Y-101727000D01*
X146163000Y-101727000D01*
X146143000Y-101727000D01*
X146143000Y-101473000D01*
X146163000Y-101473000D01*
X146163000Y-100648750D01*
X146417000Y-100648750D01*
X146417000Y-101473000D01*
X147291250Y-101473000D01*
X147450000Y-101314250D01*
X147453072Y-101125000D01*
X147440812Y-101000518D01*
X147404502Y-100880820D01*
X147345537Y-100770506D01*
X147266185Y-100673815D01*
X147169494Y-100594463D01*
X147059180Y-100535498D01*
X146939482Y-100499188D01*
X146815000Y-100486928D01*
X146575750Y-100490000D01*
X146417000Y-100648750D01*
X146163000Y-100648750D01*
X146004250Y-100490000D01*
X145765000Y-100486928D01*
X145640518Y-100499188D01*
X145520820Y-100535498D01*
X145410506Y-100594463D01*
X145375000Y-100623602D01*
X145375000Y-99401398D01*
X145410506Y-99430537D01*
X145520820Y-99489502D01*
X145640518Y-99525812D01*
X145765000Y-99538072D01*
X146004250Y-99535000D01*
X146163000Y-99376250D01*
X146163000Y-98552000D01*
X146417000Y-98552000D01*
X146417000Y-99376250D01*
X146575750Y-99535000D01*
X146815000Y-99538072D01*
X146939482Y-99525812D01*
X147059180Y-99489502D01*
X147169494Y-99430537D01*
X147266185Y-99351185D01*
X147345537Y-99254494D01*
X147404502Y-99144180D01*
X147440812Y-99024482D01*
X147453072Y-98900000D01*
X147450000Y-98710750D01*
X147291250Y-98552000D01*
X146417000Y-98552000D01*
X146163000Y-98552000D01*
X146143000Y-98552000D01*
X146143000Y-98298000D01*
X146163000Y-98298000D01*
X146163000Y-97473750D01*
X146417000Y-97473750D01*
X146417000Y-98298000D01*
X147291250Y-98298000D01*
X147450000Y-98139250D01*
X147453072Y-97950000D01*
X147440812Y-97825518D01*
X147404502Y-97705820D01*
X147345537Y-97595506D01*
X147266185Y-97498815D01*
X147169494Y-97419463D01*
X147059180Y-97360498D01*
X146939482Y-97324188D01*
X146815000Y-97311928D01*
X146575750Y-97315000D01*
X146417000Y-97473750D01*
X146163000Y-97473750D01*
X146004250Y-97315000D01*
X145765000Y-97311928D01*
X145640518Y-97324188D01*
X145520820Y-97360498D01*
X145410506Y-97419463D01*
X145337839Y-97479099D01*
X145313942Y-97459488D01*
X145162567Y-97378577D01*
X144998316Y-97328752D01*
X144827500Y-97311928D01*
X144607797Y-97311928D01*
X143539990Y-96244123D01*
X143539990Y-95553072D01*
X144905000Y-95553072D01*
X145058745Y-95537929D01*
X145206582Y-95493084D01*
X145287186Y-95450000D01*
X146974132Y-95450000D01*
X147335562Y-95811431D01*
X147361709Y-95843291D01*
X147393568Y-95869437D01*
X147393570Y-95869439D01*
X147488854Y-95947636D01*
X147633913Y-96025172D01*
X147791311Y-96072918D01*
X147913981Y-96085000D01*
X147913982Y-96085000D01*
X147955000Y-96089040D01*
X147996018Y-96085000D01*
X151235631Y-96085000D01*
X151253377Y-96106623D01*
X151386058Y-96215512D01*
X151537433Y-96296423D01*
X151701684Y-96346248D01*
X151872500Y-96363072D01*
X152447500Y-96363072D01*
X152618316Y-96346248D01*
X152782567Y-96296423D01*
X152933942Y-96215512D01*
X152957839Y-96195901D01*
X153030506Y-96255537D01*
X153140820Y-96314502D01*
X153260518Y-96350812D01*
X153385000Y-96363072D01*
X153624250Y-96360000D01*
X153783000Y-96201250D01*
X153783000Y-95377000D01*
X154037000Y-95377000D01*
X154037000Y-96201250D01*
X154195750Y-96360000D01*
X154435000Y-96363072D01*
X154559482Y-96350812D01*
X154679180Y-96314502D01*
X154789494Y-96255537D01*
X154886185Y-96176185D01*
X154965537Y-96079494D01*
X155024502Y-95969180D01*
X155060812Y-95849482D01*
X155073072Y-95725000D01*
X155070000Y-95535750D01*
X154911250Y-95377000D01*
X154037000Y-95377000D01*
X153783000Y-95377000D01*
X153763000Y-95377000D01*
X153763000Y-95123000D01*
X153783000Y-95123000D01*
X153783000Y-95103000D01*
X154037000Y-95103000D01*
X154037000Y-95123000D01*
X154911250Y-95123000D01*
X155070000Y-94964250D01*
X155070216Y-94950928D01*
X157641698Y-94950928D01*
X157653752Y-95073316D01*
X157703577Y-95237567D01*
X157784488Y-95388942D01*
X157893377Y-95521623D01*
X158026058Y-95630512D01*
X158177433Y-95711423D01*
X158341684Y-95761248D01*
X158512500Y-95778072D01*
X158987500Y-95778072D01*
X159158316Y-95761248D01*
X159322567Y-95711423D01*
X159473942Y-95630512D01*
X159606623Y-95521623D01*
X159715512Y-95388942D01*
X159796423Y-95237567D01*
X159846248Y-95073316D01*
X159863072Y-94902500D01*
X159863072Y-94327500D01*
X159846248Y-94156684D01*
X159796423Y-93992433D01*
X159715512Y-93841058D01*
X159632575Y-93740000D01*
X159715512Y-93638942D01*
X159796423Y-93487567D01*
X159846248Y-93323316D01*
X159863072Y-93152500D01*
X159863072Y-92577500D01*
X159846248Y-92406684D01*
X159796423Y-92242433D01*
X159715512Y-92091058D01*
X159606623Y-91958377D01*
X159585000Y-91940631D01*
X159585000Y-91729369D01*
X159606623Y-91711623D01*
X159715512Y-91578942D01*
X159796423Y-91427567D01*
X159846248Y-91263316D01*
X159863072Y-91092500D01*
X159863072Y-90517500D01*
X159846248Y-90346684D01*
X159796423Y-90182433D01*
X159715512Y-90031058D01*
X159632575Y-89930000D01*
X159715512Y-89828942D01*
X159796423Y-89677567D01*
X159846248Y-89513316D01*
X159863072Y-89342500D01*
X159863072Y-89122795D01*
X162568020Y-86417848D01*
X162573854Y-86422636D01*
X162718913Y-86500172D01*
X162876311Y-86547918D01*
X162998981Y-86560000D01*
X162998982Y-86560000D01*
X163040000Y-86564040D01*
X163081018Y-86560000D01*
X164627205Y-86560000D01*
X164659201Y-86607886D01*
X164852114Y-86800799D01*
X165078957Y-86952371D01*
X165331011Y-87056775D01*
X165598589Y-87110000D01*
X165871411Y-87110000D01*
X166138989Y-87056775D01*
X166391043Y-86952371D01*
X166617886Y-86800799D01*
X166810799Y-86607886D01*
X166962371Y-86381043D01*
X167066775Y-86128989D01*
X167120000Y-85861411D01*
X167120000Y-85588589D01*
X167066775Y-85321011D01*
X167030389Y-85233166D01*
X169581439Y-85233166D01*
X169616550Y-85446588D01*
X169820826Y-85537458D01*
X170038905Y-85586731D01*
X170262406Y-85592511D01*
X170482740Y-85554577D01*
X170691440Y-85474387D01*
X170743450Y-85446588D01*
X170778561Y-85233166D01*
X170180000Y-84634605D01*
X169581439Y-85233166D01*
X167030389Y-85233166D01*
X166962371Y-85068957D01*
X166810799Y-84842114D01*
X166617886Y-84649201D01*
X166450574Y-84537406D01*
X169042489Y-84537406D01*
X169080423Y-84757740D01*
X169160613Y-84966440D01*
X169188412Y-85018450D01*
X169401834Y-85053561D01*
X170000395Y-84455000D01*
X170359605Y-84455000D01*
X170958166Y-85053561D01*
X171171588Y-85018450D01*
X171262458Y-84814174D01*
X171311731Y-84596095D01*
X171317511Y-84372594D01*
X171279577Y-84152260D01*
X171199387Y-83943560D01*
X171171588Y-83891550D01*
X170958166Y-83856439D01*
X170359605Y-84455000D01*
X170000395Y-84455000D01*
X169401834Y-83856439D01*
X169188412Y-83891550D01*
X169097542Y-84095826D01*
X169048269Y-84313905D01*
X169042489Y-84537406D01*
X166450574Y-84537406D01*
X166391043Y-84497629D01*
X166138989Y-84393225D01*
X165871411Y-84340000D01*
X165598589Y-84340000D01*
X165331011Y-84393225D01*
X165078957Y-84497629D01*
X164852114Y-84649201D01*
X164659201Y-84842114D01*
X164627205Y-84890000D01*
X163395000Y-84890000D01*
X163395000Y-83676834D01*
X169581439Y-83676834D01*
X170180000Y-84275395D01*
X170778561Y-83676834D01*
X170743450Y-83463412D01*
X170539174Y-83372542D01*
X170321095Y-83323269D01*
X170097594Y-83317489D01*
X169877260Y-83355423D01*
X169668560Y-83435613D01*
X169616550Y-83463412D01*
X169581439Y-83676834D01*
X163395000Y-83676834D01*
X163395000Y-81869531D01*
X164055074Y-81869531D01*
X164165921Y-82146714D01*
X164476840Y-82300089D01*
X164811705Y-82389860D01*
X165157650Y-82412576D01*
X165501380Y-82367366D01*
X165829685Y-82255966D01*
X166034079Y-82146714D01*
X166144926Y-81869531D01*
X165100000Y-80824605D01*
X164055074Y-81869531D01*
X163395000Y-81869531D01*
X163395000Y-81097559D01*
X163489034Y-81374685D01*
X163598286Y-81579079D01*
X163875469Y-81689926D01*
X164920395Y-80645000D01*
X165279605Y-80645000D01*
X166324531Y-81689926D01*
X166601714Y-81579079D01*
X166755089Y-81268160D01*
X166844860Y-80933295D01*
X166867576Y-80587350D01*
X166822366Y-80243620D01*
X166710966Y-79915315D01*
X166601714Y-79710921D01*
X166324531Y-79600074D01*
X165279605Y-80645000D01*
X164920395Y-80645000D01*
X163875469Y-79600074D01*
X163598286Y-79710921D01*
X163444911Y-80021840D01*
X163395000Y-80208019D01*
X163395000Y-79543536D01*
X163579182Y-79420469D01*
X164055074Y-79420469D01*
X165100000Y-80465395D01*
X166144926Y-79420469D01*
X166034079Y-79143286D01*
X165723160Y-78989911D01*
X165388295Y-78900140D01*
X165042350Y-78877424D01*
X164698620Y-78922634D01*
X164370315Y-79034034D01*
X164165921Y-79143286D01*
X164055074Y-79420469D01*
X163579182Y-79420469D01*
X163618188Y-79394406D01*
X163849406Y-79163188D01*
X164031073Y-78891305D01*
X164156207Y-78589204D01*
X164220000Y-78268496D01*
X164220000Y-77941504D01*
X164156207Y-77620796D01*
X164031073Y-77318695D01*
X163849406Y-77046812D01*
X163618188Y-76815594D01*
X163579183Y-76789531D01*
X164055074Y-76789531D01*
X164165921Y-77066714D01*
X164476840Y-77220089D01*
X164811705Y-77309860D01*
X165157650Y-77332576D01*
X165501380Y-77287366D01*
X165829685Y-77175966D01*
X166034079Y-77066714D01*
X166144926Y-76789531D01*
X165100000Y-75744605D01*
X164055074Y-76789531D01*
X163579183Y-76789531D01*
X163346305Y-76633927D01*
X163044204Y-76508793D01*
X162723496Y-76445000D01*
X162396504Y-76445000D01*
X162075796Y-76508793D01*
X161773695Y-76633927D01*
X161501812Y-76815594D01*
X161270594Y-77046812D01*
X161088927Y-77318695D01*
X160963793Y-77620796D01*
X160900000Y-77941504D01*
X160900000Y-78268496D01*
X160963793Y-78589204D01*
X161088927Y-78891305D01*
X161270594Y-79163188D01*
X161501812Y-79394406D01*
X161725000Y-79543536D01*
X161725000Y-80192442D01*
X161630966Y-79915315D01*
X161521714Y-79710921D01*
X161244531Y-79600074D01*
X160199605Y-80645000D01*
X161244531Y-81689926D01*
X161521714Y-81579079D01*
X161675089Y-81268160D01*
X161725000Y-81081980D01*
X161725001Y-84899130D01*
X158732205Y-87891928D01*
X158512500Y-87891928D01*
X158341684Y-87908752D01*
X158177433Y-87958577D01*
X158026058Y-88039488D01*
X157893377Y-88148377D01*
X157784488Y-88281058D01*
X157703577Y-88432433D01*
X157653752Y-88596684D01*
X157636928Y-88767500D01*
X157636928Y-89342500D01*
X157653752Y-89513316D01*
X157703577Y-89677567D01*
X157784488Y-89828942D01*
X157867425Y-89930000D01*
X157784488Y-90031058D01*
X157703577Y-90182433D01*
X157653752Y-90346684D01*
X157636928Y-90517500D01*
X157636928Y-91092500D01*
X157653752Y-91263316D01*
X157703577Y-91427567D01*
X157784488Y-91578942D01*
X157893377Y-91711623D01*
X157915000Y-91729369D01*
X157915001Y-91940631D01*
X157893377Y-91958377D01*
X157834597Y-92030000D01*
X155073072Y-92030000D01*
X155073072Y-91837500D01*
X155056248Y-91666684D01*
X155006423Y-91502433D01*
X154925512Y-91351058D01*
X154816623Y-91218377D01*
X154683942Y-91109488D01*
X154532567Y-91028577D01*
X154368316Y-90978752D01*
X154197500Y-90961928D01*
X153622500Y-90961928D01*
X153451684Y-90978752D01*
X153287433Y-91028577D01*
X153136058Y-91109488D01*
X153035000Y-91192425D01*
X152933942Y-91109488D01*
X152782567Y-91028577D01*
X152618316Y-90978752D01*
X152447500Y-90961928D01*
X152227796Y-90961928D01*
X151329446Y-90063578D01*
X151303291Y-90031709D01*
X151176146Y-89927364D01*
X151031087Y-89849828D01*
X150873689Y-89802082D01*
X150751019Y-89790000D01*
X150751018Y-89790000D01*
X150710000Y-89785960D01*
X150668982Y-89790000D01*
X149880957Y-89790000D01*
X149870537Y-89770506D01*
X149791185Y-89673815D01*
X149694494Y-89594463D01*
X149584180Y-89535498D01*
X149464482Y-89499188D01*
X149425000Y-89495299D01*
X149425000Y-88465000D01*
X150998982Y-88465000D01*
X151040000Y-88469040D01*
X151081018Y-88465000D01*
X151081019Y-88465000D01*
X151203689Y-88452918D01*
X151361087Y-88405172D01*
X151506146Y-88327636D01*
X151633291Y-88223291D01*
X151659446Y-88191421D01*
X152102795Y-87748072D01*
X152810000Y-87748072D01*
X152935136Y-87735681D01*
X153054796Y-87699246D01*
X153165049Y-87640166D01*
X153261657Y-87560713D01*
X153340908Y-87463939D01*
X153840908Y-86713939D01*
X153899246Y-86604796D01*
X153935681Y-86485136D01*
X153948072Y-86360667D01*
X153935941Y-86236173D01*
X153899757Y-86116437D01*
X153840908Y-86006061D01*
X153340908Y-85256061D01*
X153261185Y-85158815D01*
X153164494Y-85079463D01*
X153054180Y-85020498D01*
X152934482Y-84984188D01*
X152810000Y-84971928D01*
X152102795Y-84971928D01*
X151965000Y-84834133D01*
X151965000Y-81869531D01*
X152625074Y-81869531D01*
X152735921Y-82146714D01*
X153046840Y-82300089D01*
X153381705Y-82389860D01*
X153727650Y-82412576D01*
X154071380Y-82367366D01*
X154399685Y-82255966D01*
X154604079Y-82146714D01*
X154714926Y-81869531D01*
X158975074Y-81869531D01*
X159085921Y-82146714D01*
X159396840Y-82300089D01*
X159731705Y-82389860D01*
X160077650Y-82412576D01*
X160421380Y-82367366D01*
X160749685Y-82255966D01*
X160954079Y-82146714D01*
X161064926Y-81869531D01*
X160020000Y-80824605D01*
X158975074Y-81869531D01*
X154714926Y-81869531D01*
X153670000Y-80824605D01*
X152625074Y-81869531D01*
X151965000Y-81869531D01*
X151965000Y-81097559D01*
X152059034Y-81374685D01*
X152168286Y-81579079D01*
X152445469Y-81689926D01*
X153490395Y-80645000D01*
X153849605Y-80645000D01*
X154894531Y-81689926D01*
X155171714Y-81579079D01*
X155325089Y-81268160D01*
X155414860Y-80933295D01*
X155430004Y-80702650D01*
X158252424Y-80702650D01*
X158297634Y-81046380D01*
X158409034Y-81374685D01*
X158518286Y-81579079D01*
X158795469Y-81689926D01*
X159840395Y-80645000D01*
X158795469Y-79600074D01*
X158518286Y-79710921D01*
X158364911Y-80021840D01*
X158275140Y-80356705D01*
X158252424Y-80702650D01*
X155430004Y-80702650D01*
X155437576Y-80587350D01*
X155392366Y-80243620D01*
X155280966Y-79915315D01*
X155171714Y-79710921D01*
X154894531Y-79600074D01*
X153849605Y-80645000D01*
X153490395Y-80645000D01*
X152445469Y-79600074D01*
X152168286Y-79710921D01*
X152014911Y-80021840D01*
X151965000Y-80208019D01*
X151965000Y-79543536D01*
X152149182Y-79420469D01*
X152625074Y-79420469D01*
X153670000Y-80465395D01*
X154714926Y-79420469D01*
X158975074Y-79420469D01*
X160020000Y-80465395D01*
X161064926Y-79420469D01*
X160954079Y-79143286D01*
X160643160Y-78989911D01*
X160308295Y-78900140D01*
X159962350Y-78877424D01*
X159618620Y-78922634D01*
X159290315Y-79034034D01*
X159085921Y-79143286D01*
X158975074Y-79420469D01*
X154714926Y-79420469D01*
X154604079Y-79143286D01*
X154293160Y-78989911D01*
X153958295Y-78900140D01*
X153612350Y-78877424D01*
X153268620Y-78922634D01*
X152940315Y-79034034D01*
X152735921Y-79143286D01*
X152625074Y-79420469D01*
X152149182Y-79420469D01*
X152188188Y-79394406D01*
X152419406Y-79163188D01*
X152601073Y-78891305D01*
X152726207Y-78589204D01*
X152790000Y-78268496D01*
X152790000Y-77941504D01*
X152726207Y-77620796D01*
X152601073Y-77318695D01*
X152419406Y-77046812D01*
X152188188Y-76815594D01*
X152149183Y-76789531D01*
X152625074Y-76789531D01*
X152735921Y-77066714D01*
X153046840Y-77220089D01*
X153381705Y-77309860D01*
X153727650Y-77332576D01*
X154071380Y-77287366D01*
X154399685Y-77175966D01*
X154604079Y-77066714D01*
X154714926Y-76789531D01*
X158975074Y-76789531D01*
X159085921Y-77066714D01*
X159396840Y-77220089D01*
X159731705Y-77309860D01*
X160077650Y-77332576D01*
X160421380Y-77287366D01*
X160749685Y-77175966D01*
X160954079Y-77066714D01*
X161064926Y-76789531D01*
X160020000Y-75744605D01*
X158975074Y-76789531D01*
X154714926Y-76789531D01*
X153670000Y-75744605D01*
X152625074Y-76789531D01*
X152149183Y-76789531D01*
X151916305Y-76633927D01*
X151614204Y-76508793D01*
X151293496Y-76445000D01*
X150966504Y-76445000D01*
X150645796Y-76508793D01*
X150343695Y-76633927D01*
X150071812Y-76815594D01*
X149840594Y-77046812D01*
X149658927Y-77318695D01*
X149533793Y-77620796D01*
X149470000Y-77941504D01*
X149470000Y-78268496D01*
X149533793Y-78589204D01*
X149658927Y-78891305D01*
X149840594Y-79163188D01*
X150071812Y-79394406D01*
X150295000Y-79543536D01*
X150295000Y-80192442D01*
X150200966Y-79915315D01*
X150091714Y-79710921D01*
X149814531Y-79600074D01*
X148769605Y-80645000D01*
X149814531Y-81689926D01*
X150091714Y-81579079D01*
X150245089Y-81268160D01*
X150295000Y-81081980D01*
X150295001Y-84369999D01*
X149975000Y-84369999D01*
X149975000Y-84318589D01*
X149921775Y-84051011D01*
X149817371Y-83798957D01*
X149665799Y-83572114D01*
X149472886Y-83379201D01*
X149246043Y-83227629D01*
X148993989Y-83123225D01*
X148726411Y-83070000D01*
X148453589Y-83070000D01*
X148186011Y-83123225D01*
X147933957Y-83227629D01*
X147707114Y-83379201D01*
X147514201Y-83572114D01*
X147362629Y-83798957D01*
X147258225Y-84051011D01*
X147205000Y-84318589D01*
X147205000Y-84591411D01*
X147258225Y-84858989D01*
X147362629Y-85111043D01*
X147514201Y-85337886D01*
X147707114Y-85530799D01*
X147933957Y-85682371D01*
X148186011Y-85786775D01*
X148453589Y-85840000D01*
X148726411Y-85840000D01*
X148783656Y-85828613D01*
X148873853Y-85902635D01*
X149018912Y-85980171D01*
X149176310Y-86027917D01*
X149298980Y-86039999D01*
X149298981Y-86039999D01*
X149339999Y-86044039D01*
X149381017Y-86039999D01*
X150809132Y-86039999D01*
X151129132Y-86360000D01*
X150694133Y-86795000D01*
X148631019Y-86795000D01*
X148590000Y-86790960D01*
X148548982Y-86795000D01*
X148548981Y-86795000D01*
X148426311Y-86807082D01*
X148268913Y-86854828D01*
X148123854Y-86932364D01*
X147996709Y-87036709D01*
X147892364Y-87163854D01*
X147814828Y-87308913D01*
X147767082Y-87466311D01*
X147750960Y-87630000D01*
X147755001Y-87671029D01*
X147755000Y-89495299D01*
X147715518Y-89499188D01*
X147595820Y-89535498D01*
X147485506Y-89594463D01*
X147388815Y-89673815D01*
X147309463Y-89770506D01*
X147250498Y-89880820D01*
X147223957Y-89968313D01*
X147146709Y-90031709D01*
X147120563Y-90063568D01*
X146314843Y-90869290D01*
X145693072Y-90869290D01*
X145693072Y-90655000D01*
X145677929Y-90501255D01*
X145633084Y-90353418D01*
X145560258Y-90217171D01*
X145462251Y-90097749D01*
X145342829Y-89999742D01*
X145206582Y-89926916D01*
X145058745Y-89882071D01*
X144905000Y-89866928D01*
X143255000Y-89866928D01*
X143101255Y-89882071D01*
X142953418Y-89926916D01*
X142852221Y-89981007D01*
X142841311Y-89982082D01*
X142683913Y-90029828D01*
X142538854Y-90107364D01*
X142411709Y-90211709D01*
X142385554Y-90243579D01*
X142143569Y-90485564D01*
X142111699Y-90511719D01*
X142032983Y-90607636D01*
X142007354Y-90638865D01*
X141929818Y-90783924D01*
X141882072Y-90941322D01*
X141865950Y-91105010D01*
X141869990Y-91146029D01*
X141869991Y-96548962D01*
X141865950Y-96589990D01*
X141882072Y-96753678D01*
X141929818Y-96911076D01*
X142007354Y-97056135D01*
X142007355Y-97056136D01*
X142111700Y-97183281D01*
X142143564Y-97209431D01*
X143376928Y-98442797D01*
X143376928Y-98662500D01*
X143393752Y-98833316D01*
X143443577Y-98997567D01*
X143524488Y-99148942D01*
X143633377Y-99281623D01*
X143705001Y-99340403D01*
X143705000Y-100684597D01*
X143633377Y-100743377D01*
X143615631Y-100765000D01*
X142916018Y-100765000D01*
X142875000Y-100760960D01*
X142833982Y-100765000D01*
X142833981Y-100765000D01*
X142711311Y-100777082D01*
X142553913Y-100824828D01*
X142408854Y-100902364D01*
X142281709Y-101006709D01*
X142255562Y-101038569D01*
X141678573Y-101615559D01*
X141646710Y-101641709D01*
X141620562Y-101673571D01*
X141542364Y-101768855D01*
X141464828Y-101913914D01*
X141417082Y-102071312D01*
X141400960Y-102235000D01*
X141405001Y-102276028D01*
X141405000Y-105444206D01*
X141184866Y-105624866D01*
X140999294Y-105850986D01*
X140964799Y-105915523D01*
X140895178Y-105798645D01*
X140700269Y-105582412D01*
X140466920Y-105408359D01*
X140204099Y-105283175D01*
X140056890Y-105238524D01*
X139827000Y-105359845D01*
X139573000Y-105359845D01*
X139343110Y-105238524D01*
X139195901Y-105283175D01*
X138933080Y-105408359D01*
X138699731Y-105582412D01*
X138623966Y-105666466D01*
X138599502Y-105585820D01*
X138540537Y-105475506D01*
X138461185Y-105378815D01*
X138364494Y-105299463D01*
X138254180Y-105240498D01*
X138134482Y-105204188D01*
X138010000Y-105191928D01*
X136310000Y-105191928D01*
X136185518Y-105204188D01*
X136065820Y-105240498D01*
X135955506Y-105299463D01*
X135858815Y-105378815D01*
X135779463Y-105475506D01*
X135720498Y-105585820D01*
X135684188Y-105705518D01*
X135671928Y-105830000D01*
X135671928Y-105845000D01*
X133590868Y-105845000D01*
X132883072Y-105137205D01*
X132883072Y-103830000D01*
X132866008Y-103656746D01*
X132815472Y-103490150D01*
X132733405Y-103336614D01*
X132622962Y-103202038D01*
X132488386Y-103091595D01*
X132334850Y-103009528D01*
X132280000Y-102992890D01*
X132280000Y-102580868D01*
X132425868Y-102435000D01*
X132820631Y-102435000D01*
X132838377Y-102456623D01*
X132971058Y-102565512D01*
X133122433Y-102646423D01*
X133286684Y-102696248D01*
X133457500Y-102713072D01*
X134032500Y-102713072D01*
X134203316Y-102696248D01*
X134367567Y-102646423D01*
X134518942Y-102565512D01*
X134542839Y-102545901D01*
X134615506Y-102605537D01*
X134725820Y-102664502D01*
X134845518Y-102700812D01*
X134970000Y-102713072D01*
X135209250Y-102710000D01*
X135368000Y-102551250D01*
X135368000Y-101727000D01*
X135622000Y-101727000D01*
X135622000Y-102551250D01*
X135780750Y-102710000D01*
X136020000Y-102713072D01*
X136144482Y-102700812D01*
X136264180Y-102664502D01*
X136374494Y-102605537D01*
X136471185Y-102526185D01*
X136550537Y-102429494D01*
X136609502Y-102319180D01*
X136645812Y-102199482D01*
X136658072Y-102075000D01*
X136655000Y-101885750D01*
X136496250Y-101727000D01*
X135622000Y-101727000D01*
X135368000Y-101727000D01*
X135348000Y-101727000D01*
X135348000Y-101473000D01*
X135368000Y-101473000D01*
X135368000Y-100648750D01*
X135622000Y-100648750D01*
X135622000Y-101473000D01*
X136496250Y-101473000D01*
X136655000Y-101314250D01*
X136658072Y-101125000D01*
X136645812Y-101000518D01*
X136609502Y-100880820D01*
X136550537Y-100770506D01*
X136471185Y-100673815D01*
X136374494Y-100594463D01*
X136264180Y-100535498D01*
X136144482Y-100499188D01*
X136020000Y-100486928D01*
X135780750Y-100490000D01*
X135622000Y-100648750D01*
X135368000Y-100648750D01*
X135209250Y-100490000D01*
X134970000Y-100486928D01*
X134845518Y-100499188D01*
X134725820Y-100535498D01*
X134615506Y-100594463D01*
X134580000Y-100623602D01*
X134580000Y-98766398D01*
X134615506Y-98795537D01*
X134725820Y-98854502D01*
X134845518Y-98890812D01*
X134970000Y-98903072D01*
X135209250Y-98900000D01*
X135368000Y-98741250D01*
X135368000Y-97917000D01*
X135622000Y-97917000D01*
X135622000Y-98741250D01*
X135780750Y-98900000D01*
X136020000Y-98903072D01*
X136144482Y-98890812D01*
X136264180Y-98854502D01*
X136374494Y-98795537D01*
X136471185Y-98716185D01*
X136550537Y-98619494D01*
X136609502Y-98509180D01*
X136645812Y-98389482D01*
X136658072Y-98265000D01*
X136655000Y-98075750D01*
X136496250Y-97917000D01*
X135622000Y-97917000D01*
X135368000Y-97917000D01*
X135348000Y-97917000D01*
X135348000Y-97663000D01*
X135368000Y-97663000D01*
X135368000Y-96838750D01*
X135622000Y-96838750D01*
X135622000Y-97663000D01*
X136496250Y-97663000D01*
X136655000Y-97504250D01*
X136658072Y-97315000D01*
X136645812Y-97190518D01*
X136609502Y-97070820D01*
X136550537Y-96960506D01*
X136471185Y-96863815D01*
X136374494Y-96784463D01*
X136264180Y-96725498D01*
X136144482Y-96689188D01*
X136020000Y-96676928D01*
X135780750Y-96680000D01*
X135622000Y-96838750D01*
X135368000Y-96838750D01*
X135335059Y-96805809D01*
X136690868Y-95450000D01*
X137922814Y-95450000D01*
X138003418Y-95493084D01*
X138151255Y-95537929D01*
X138305000Y-95553072D01*
X139955000Y-95553072D01*
X140108745Y-95537929D01*
X140256582Y-95493084D01*
X140392829Y-95420258D01*
X140512251Y-95322251D01*
X140610258Y-95202829D01*
X140683084Y-95066582D01*
X140727929Y-94918745D01*
X140743072Y-94765000D01*
X140743072Y-94465000D01*
X140727929Y-94311255D01*
X140683084Y-94163418D01*
X140610258Y-94027171D01*
X140571546Y-93980000D01*
X140610258Y-93932829D01*
X140683084Y-93796582D01*
X140727929Y-93648745D01*
X140743072Y-93495000D01*
X140743072Y-93195000D01*
X140727929Y-93041255D01*
X140683084Y-92893418D01*
X140610258Y-92757171D01*
X140571546Y-92710000D01*
X140610258Y-92662829D01*
X140683084Y-92526582D01*
X140727929Y-92378745D01*
X140743072Y-92225000D01*
X140743072Y-91925000D01*
X140727929Y-91771255D01*
X140683084Y-91623418D01*
X140610258Y-91487171D01*
X140571546Y-91440000D01*
X140610258Y-91392829D01*
X140683084Y-91256582D01*
X140727929Y-91108745D01*
X140743072Y-90955000D01*
X140743072Y-90655000D01*
X140727929Y-90501255D01*
X140683084Y-90353418D01*
X140610258Y-90217171D01*
X140512251Y-90097749D01*
X140392829Y-89999742D01*
X140256582Y-89926916D01*
X140108745Y-89882071D01*
X139966277Y-89868039D01*
X139969039Y-89839999D01*
X139965000Y-89798991D01*
X139965000Y-89798981D01*
X139952918Y-89676311D01*
X139905172Y-89518913D01*
X139827636Y-89373854D01*
X139723291Y-89246709D01*
X139691427Y-89220559D01*
X137359446Y-86888579D01*
X137333291Y-86856709D01*
X137256043Y-86793313D01*
X137229502Y-86705820D01*
X137170537Y-86595506D01*
X137091185Y-86498815D01*
X136994494Y-86419463D01*
X136884180Y-86360498D01*
X136764482Y-86324188D01*
X136725000Y-86320299D01*
X136725000Y-85290000D01*
X137957205Y-85290000D01*
X137989201Y-85337886D01*
X138182114Y-85530799D01*
X138408957Y-85682371D01*
X138661011Y-85786775D01*
X138928589Y-85840000D01*
X139201411Y-85840000D01*
X139468989Y-85786775D01*
X139721043Y-85682371D01*
X139947886Y-85530799D01*
X140140799Y-85337886D01*
X140292371Y-85111043D01*
X140396775Y-84858989D01*
X140450000Y-84591411D01*
X140450000Y-84318589D01*
X140396775Y-84051011D01*
X140360389Y-83963166D01*
X142911439Y-83963166D01*
X142946550Y-84176588D01*
X143150826Y-84267458D01*
X143368905Y-84316731D01*
X143592406Y-84322511D01*
X143812740Y-84284577D01*
X144021440Y-84204387D01*
X144073450Y-84176588D01*
X144108561Y-83963166D01*
X143510000Y-83364605D01*
X142911439Y-83963166D01*
X140360389Y-83963166D01*
X140292371Y-83798957D01*
X140140799Y-83572114D01*
X139947886Y-83379201D01*
X139780574Y-83267406D01*
X142372489Y-83267406D01*
X142410423Y-83487740D01*
X142490613Y-83696440D01*
X142518412Y-83748450D01*
X142731834Y-83783561D01*
X143330395Y-83185000D01*
X143689605Y-83185000D01*
X144288166Y-83783561D01*
X144501588Y-83748450D01*
X144592458Y-83544174D01*
X144641731Y-83326095D01*
X144647511Y-83102594D01*
X144609577Y-82882260D01*
X144529387Y-82673560D01*
X144501588Y-82621550D01*
X144288166Y-82586439D01*
X143689605Y-83185000D01*
X143330395Y-83185000D01*
X142731834Y-82586439D01*
X142518412Y-82621550D01*
X142427542Y-82825826D01*
X142378269Y-83043905D01*
X142372489Y-83267406D01*
X139780574Y-83267406D01*
X139721043Y-83227629D01*
X139468989Y-83123225D01*
X139201411Y-83070000D01*
X138928589Y-83070000D01*
X138661011Y-83123225D01*
X138408957Y-83227629D01*
X138182114Y-83379201D01*
X137989201Y-83572114D01*
X137957205Y-83620000D01*
X136235868Y-83620000D01*
X135360001Y-82744134D01*
X135360001Y-81869531D01*
X136020075Y-81869531D01*
X136130922Y-82146714D01*
X136441841Y-82300089D01*
X136776706Y-82389860D01*
X137122651Y-82412576D01*
X137166307Y-82406834D01*
X142911439Y-82406834D01*
X143510000Y-83005395D01*
X144108561Y-82406834D01*
X144073450Y-82193412D01*
X143869174Y-82102542D01*
X143651095Y-82053269D01*
X143427594Y-82047489D01*
X143207260Y-82085423D01*
X142998560Y-82165613D01*
X142946550Y-82193412D01*
X142911439Y-82406834D01*
X137166307Y-82406834D01*
X137466381Y-82367366D01*
X137794686Y-82255966D01*
X137999080Y-82146714D01*
X138109927Y-81869531D01*
X147545074Y-81869531D01*
X147655921Y-82146714D01*
X147966840Y-82300089D01*
X148301705Y-82389860D01*
X148647650Y-82412576D01*
X148991380Y-82367366D01*
X149319685Y-82255966D01*
X149524079Y-82146714D01*
X149634926Y-81869531D01*
X148590000Y-80824605D01*
X147545074Y-81869531D01*
X138109927Y-81869531D01*
X137065001Y-80824605D01*
X136020075Y-81869531D01*
X135360001Y-81869531D01*
X135360001Y-81097559D01*
X135454035Y-81374685D01*
X135563287Y-81579079D01*
X135840470Y-81689926D01*
X136885396Y-80645000D01*
X137244606Y-80645000D01*
X138289532Y-81689926D01*
X138566715Y-81579079D01*
X138720090Y-81268160D01*
X138809861Y-80933295D01*
X138825005Y-80702650D01*
X146822424Y-80702650D01*
X146867634Y-81046380D01*
X146979034Y-81374685D01*
X147088286Y-81579079D01*
X147365469Y-81689926D01*
X148410395Y-80645000D01*
X147365469Y-79600074D01*
X147088286Y-79710921D01*
X146934911Y-80021840D01*
X146845140Y-80356705D01*
X146822424Y-80702650D01*
X138825005Y-80702650D01*
X138832577Y-80587350D01*
X138787367Y-80243620D01*
X138675967Y-79915315D01*
X138566715Y-79710921D01*
X138289532Y-79600074D01*
X137244606Y-80645000D01*
X136885396Y-80645000D01*
X135840470Y-79600074D01*
X135563287Y-79710921D01*
X135409912Y-80021840D01*
X135360001Y-80208019D01*
X135360001Y-79543536D01*
X135544183Y-79420469D01*
X136020075Y-79420469D01*
X137065001Y-80465395D01*
X138109927Y-79420469D01*
X147545074Y-79420469D01*
X148590000Y-80465395D01*
X149634926Y-79420469D01*
X149524079Y-79143286D01*
X149213160Y-78989911D01*
X148878295Y-78900140D01*
X148532350Y-78877424D01*
X148188620Y-78922634D01*
X147860315Y-79034034D01*
X147655921Y-79143286D01*
X147545074Y-79420469D01*
X138109927Y-79420469D01*
X137999080Y-79143286D01*
X137688161Y-78989911D01*
X137353296Y-78900140D01*
X137007351Y-78877424D01*
X136663621Y-78922634D01*
X136335316Y-79034034D01*
X136130922Y-79143286D01*
X136020075Y-79420469D01*
X135544183Y-79420469D01*
X135583189Y-79394406D01*
X135814407Y-79163188D01*
X135996074Y-78891305D01*
X136121208Y-78589204D01*
X136185001Y-78268496D01*
X136185001Y-77941504D01*
X136121208Y-77620796D01*
X135996074Y-77318695D01*
X135814407Y-77046812D01*
X135583189Y-76815594D01*
X135544184Y-76789531D01*
X136020075Y-76789531D01*
X136130922Y-77066714D01*
X136441841Y-77220089D01*
X136776706Y-77309860D01*
X137122651Y-77332576D01*
X137466381Y-77287366D01*
X137794686Y-77175966D01*
X137999080Y-77066714D01*
X138109927Y-76789531D01*
X147545074Y-76789531D01*
X147655921Y-77066714D01*
X147966840Y-77220089D01*
X148301705Y-77309860D01*
X148647650Y-77332576D01*
X148991380Y-77287366D01*
X149319685Y-77175966D01*
X149524079Y-77066714D01*
X149634926Y-76789531D01*
X148590000Y-75744605D01*
X147545074Y-76789531D01*
X138109927Y-76789531D01*
X137065001Y-75744605D01*
X136020075Y-76789531D01*
X135544184Y-76789531D01*
X135311306Y-76633927D01*
X135009205Y-76508793D01*
X134688497Y-76445000D01*
X134361505Y-76445000D01*
X134040797Y-76508793D01*
X133738696Y-76633927D01*
X133466813Y-76815594D01*
X133235595Y-77046812D01*
X133053928Y-77318695D01*
X132928794Y-77620796D01*
X132865001Y-77941504D01*
X132865001Y-78268496D01*
X132928794Y-78589204D01*
X133053928Y-78891305D01*
X133235595Y-79163188D01*
X133466813Y-79394406D01*
X133690001Y-79543536D01*
X133690001Y-80192442D01*
X133595967Y-79915315D01*
X133486715Y-79710921D01*
X133209532Y-79600074D01*
X132164606Y-80645000D01*
X133209532Y-81689926D01*
X133486715Y-81579079D01*
X133640090Y-81268160D01*
X133690002Y-81081980D01*
X133690002Y-83048973D01*
X133685961Y-83090001D01*
X133702083Y-83253689D01*
X133749829Y-83411087D01*
X133820966Y-83544174D01*
X133827366Y-83556147D01*
X133931711Y-83683292D01*
X133963575Y-83709442D01*
X135055000Y-84800868D01*
X135055001Y-86320299D01*
X135015518Y-86324188D01*
X134895820Y-86360498D01*
X134785506Y-86419463D01*
X134688815Y-86498815D01*
X134609463Y-86595506D01*
X134599043Y-86615000D01*
X133883373Y-86615000D01*
X133835537Y-86525506D01*
X133756185Y-86428815D01*
X133659494Y-86349463D01*
X133549180Y-86290498D01*
X133429482Y-86254188D01*
X133305000Y-86241928D01*
X132305000Y-86241928D01*
X132179864Y-86254319D01*
X132060204Y-86290754D01*
X131949951Y-86349834D01*
X131853343Y-86429287D01*
X131774092Y-86526061D01*
X131274092Y-87276061D01*
X131215754Y-87385204D01*
X131179319Y-87504864D01*
X131166928Y-87629333D01*
X131179059Y-87753827D01*
X131215243Y-87873563D01*
X131274092Y-87983939D01*
X131744532Y-88689600D01*
X129522205Y-90911928D01*
X129302500Y-90911928D01*
X129131684Y-90928752D01*
X128967433Y-90978577D01*
X128816058Y-91059488D01*
X128683377Y-91168377D01*
X128574488Y-91301058D01*
X128493577Y-91452433D01*
X128443752Y-91616684D01*
X128426928Y-91787500D01*
X128426928Y-92362500D01*
X128443752Y-92533316D01*
X128493577Y-92697567D01*
X128574488Y-92848942D01*
X128657425Y-92950000D01*
X128624597Y-92990000D01*
X127915403Y-92990000D01*
X127882575Y-92950000D01*
X127965512Y-92848942D01*
X128046423Y-92697567D01*
X128096248Y-92533316D01*
X128113072Y-92362500D01*
X128113072Y-91787500D01*
X128096248Y-91616684D01*
X128046423Y-91452433D01*
X127965512Y-91301058D01*
X127856623Y-91168377D01*
X127723942Y-91059488D01*
X127572567Y-90978577D01*
X127408316Y-90928752D01*
X127237500Y-90911928D01*
X127017797Y-90911928D01*
X124025000Y-87919133D01*
X124025000Y-81869531D01*
X124685074Y-81869531D01*
X124795921Y-82146714D01*
X125106840Y-82300089D01*
X125441705Y-82389860D01*
X125787650Y-82412576D01*
X126131380Y-82367366D01*
X126459685Y-82255966D01*
X126664079Y-82146714D01*
X126774926Y-81869531D01*
X130940075Y-81869531D01*
X131050922Y-82146714D01*
X131361841Y-82300089D01*
X131696706Y-82389860D01*
X132042651Y-82412576D01*
X132386381Y-82367366D01*
X132714686Y-82255966D01*
X132919080Y-82146714D01*
X133029927Y-81869531D01*
X131985001Y-80824605D01*
X130940075Y-81869531D01*
X126774926Y-81869531D01*
X125730000Y-80824605D01*
X124685074Y-81869531D01*
X124025000Y-81869531D01*
X124025000Y-81097559D01*
X124119034Y-81374685D01*
X124228286Y-81579079D01*
X124505469Y-81689926D01*
X125550395Y-80645000D01*
X125909605Y-80645000D01*
X126954531Y-81689926D01*
X127231714Y-81579079D01*
X127385089Y-81268160D01*
X127474860Y-80933295D01*
X127490004Y-80702650D01*
X130217425Y-80702650D01*
X130262635Y-81046380D01*
X130374035Y-81374685D01*
X130483287Y-81579079D01*
X130760470Y-81689926D01*
X131805396Y-80645000D01*
X130760470Y-79600074D01*
X130483287Y-79710921D01*
X130329912Y-80021840D01*
X130240141Y-80356705D01*
X130217425Y-80702650D01*
X127490004Y-80702650D01*
X127497576Y-80587350D01*
X127452366Y-80243620D01*
X127340966Y-79915315D01*
X127231714Y-79710921D01*
X126954531Y-79600074D01*
X125909605Y-80645000D01*
X125550395Y-80645000D01*
X124505469Y-79600074D01*
X124228286Y-79710921D01*
X124074911Y-80021840D01*
X124025000Y-80208019D01*
X124025000Y-79543536D01*
X124209182Y-79420469D01*
X124685074Y-79420469D01*
X125730000Y-80465395D01*
X126774926Y-79420469D01*
X130940075Y-79420469D01*
X131985001Y-80465395D01*
X133029927Y-79420469D01*
X132919080Y-79143286D01*
X132608161Y-78989911D01*
X132273296Y-78900140D01*
X131927351Y-78877424D01*
X131583621Y-78922634D01*
X131255316Y-79034034D01*
X131050922Y-79143286D01*
X130940075Y-79420469D01*
X126774926Y-79420469D01*
X126664079Y-79143286D01*
X126353160Y-78989911D01*
X126018295Y-78900140D01*
X125672350Y-78877424D01*
X125328620Y-78922634D01*
X125000315Y-79034034D01*
X124795921Y-79143286D01*
X124685074Y-79420469D01*
X124209182Y-79420469D01*
X124248188Y-79394406D01*
X124479406Y-79163188D01*
X124661073Y-78891305D01*
X124786207Y-78589204D01*
X124850000Y-78268496D01*
X124850000Y-77941504D01*
X124786207Y-77620796D01*
X124661073Y-77318695D01*
X124479406Y-77046812D01*
X124248188Y-76815594D01*
X124209183Y-76789531D01*
X124685074Y-76789531D01*
X124795921Y-77066714D01*
X125106840Y-77220089D01*
X125441705Y-77309860D01*
X125787650Y-77332576D01*
X126131380Y-77287366D01*
X126459685Y-77175966D01*
X126664079Y-77066714D01*
X126774926Y-76789531D01*
X130940075Y-76789531D01*
X131050922Y-77066714D01*
X131361841Y-77220089D01*
X131696706Y-77309860D01*
X132042651Y-77332576D01*
X132386381Y-77287366D01*
X132714686Y-77175966D01*
X132919080Y-77066714D01*
X133029927Y-76789531D01*
X131985001Y-75744605D01*
X130940075Y-76789531D01*
X126774926Y-76789531D01*
X125730000Y-75744605D01*
X124685074Y-76789531D01*
X124209183Y-76789531D01*
X123976305Y-76633927D01*
X123674204Y-76508793D01*
X123353496Y-76445000D01*
X123026504Y-76445000D01*
X122705796Y-76508793D01*
X122403695Y-76633927D01*
X122131812Y-76815594D01*
X121900594Y-77046812D01*
X121718927Y-77318695D01*
X121593793Y-77620796D01*
X121530000Y-77941504D01*
X121530000Y-78268496D01*
X121593793Y-78589204D01*
X121718927Y-78891305D01*
X121900594Y-79163188D01*
X122131812Y-79394406D01*
X122355001Y-79543537D01*
X122355001Y-80192442D01*
X122260966Y-79915315D01*
X122151714Y-79710921D01*
X121874531Y-79600074D01*
X120829605Y-80645000D01*
X121874531Y-81689926D01*
X122151714Y-81579079D01*
X122305089Y-81268160D01*
X122355001Y-81081980D01*
X122355000Y-87430000D01*
X122265868Y-87430000D01*
X120753764Y-85917897D01*
X120765000Y-85861411D01*
X120765000Y-85588589D01*
X120711775Y-85321011D01*
X120607371Y-85068957D01*
X120455799Y-84842114D01*
X120262886Y-84649201D01*
X120036043Y-84497629D01*
X119783989Y-84393225D01*
X119516411Y-84340000D01*
X119243589Y-84340000D01*
X118976011Y-84393225D01*
X118723957Y-84497629D01*
X118497114Y-84649201D01*
X118304201Y-84842114D01*
X118152629Y-85068957D01*
X118048225Y-85321011D01*
X117995000Y-85588589D01*
X115675186Y-85588589D01*
X115872740Y-85554577D01*
X116081440Y-85474387D01*
X116133450Y-85446588D01*
X116168561Y-85233166D01*
X115570000Y-84634605D01*
X114971439Y-85233166D01*
X110515000Y-85233166D01*
X110515000Y-84537406D01*
X114432489Y-84537406D01*
X114470423Y-84757740D01*
X114550613Y-84966440D01*
X114578412Y-85018450D01*
X114791834Y-85053561D01*
X115390395Y-84455000D01*
X115749605Y-84455000D01*
X116348166Y-85053561D01*
X116561588Y-85018450D01*
X116652458Y-84814174D01*
X116701731Y-84596095D01*
X116707511Y-84372594D01*
X116669577Y-84152260D01*
X116589387Y-83943560D01*
X116561588Y-83891550D01*
X116348166Y-83856439D01*
X115749605Y-84455000D01*
X115390395Y-84455000D01*
X114791834Y-83856439D01*
X114578412Y-83891550D01*
X114487542Y-84095826D01*
X114438269Y-84313905D01*
X114432489Y-84537406D01*
X110515000Y-84537406D01*
X110515000Y-83676834D01*
X114971439Y-83676834D01*
X115570000Y-84275395D01*
X116168561Y-83676834D01*
X116133450Y-83463412D01*
X115929174Y-83372542D01*
X115711095Y-83323269D01*
X115487594Y-83317489D01*
X115267260Y-83355423D01*
X115058560Y-83435613D01*
X115006550Y-83463412D01*
X114971439Y-83676834D01*
X110515000Y-83676834D01*
X110515000Y-81869531D01*
X119605074Y-81869531D01*
X119715921Y-82146714D01*
X120026840Y-82300089D01*
X120361705Y-82389860D01*
X120707650Y-82412576D01*
X121051380Y-82367366D01*
X121379685Y-82255966D01*
X121584079Y-82146714D01*
X121694926Y-81869531D01*
X120650000Y-80824605D01*
X119605074Y-81869531D01*
X110515000Y-81869531D01*
X110515000Y-80702650D01*
X118882424Y-80702650D01*
X118927634Y-81046380D01*
X119039034Y-81374685D01*
X119148286Y-81579079D01*
X119425469Y-81689926D01*
X120470395Y-80645000D01*
X119425469Y-79600074D01*
X119148286Y-79710921D01*
X118994911Y-80021840D01*
X118905140Y-80356705D01*
X118882424Y-80702650D01*
X110515000Y-80702650D01*
X110515000Y-76501607D01*
X110915000Y-76501607D01*
X110915000Y-77168393D01*
X111045083Y-77822368D01*
X111300252Y-78438399D01*
X111670698Y-78992812D01*
X112142188Y-79464302D01*
X112696601Y-79834748D01*
X113312632Y-80089917D01*
X113966607Y-80220000D01*
X114633393Y-80220000D01*
X115287368Y-80089917D01*
X115903399Y-79834748D01*
X116457812Y-79464302D01*
X116501645Y-79420469D01*
X119605074Y-79420469D01*
X120650000Y-80465395D01*
X121694926Y-79420469D01*
X121584079Y-79143286D01*
X121273160Y-78989911D01*
X120938295Y-78900140D01*
X120592350Y-78877424D01*
X120248620Y-78922634D01*
X119920315Y-79034034D01*
X119715921Y-79143286D01*
X119605074Y-79420469D01*
X116501645Y-79420469D01*
X116929302Y-78992812D01*
X117299748Y-78438399D01*
X117554917Y-77822368D01*
X117685000Y-77168393D01*
X117685000Y-76789531D01*
X119605074Y-76789531D01*
X119715921Y-77066714D01*
X120026840Y-77220089D01*
X120361705Y-77309860D01*
X120707650Y-77332576D01*
X121051380Y-77287366D01*
X121379685Y-77175966D01*
X121584079Y-77066714D01*
X121694926Y-76789531D01*
X120650000Y-75744605D01*
X119605074Y-76789531D01*
X117685000Y-76789531D01*
X117685000Y-76501607D01*
X117554917Y-75847632D01*
X117461727Y-75622650D01*
X118882424Y-75622650D01*
X118927634Y-75966380D01*
X119039034Y-76294685D01*
X119148286Y-76499079D01*
X119425469Y-76609926D01*
X120470395Y-75565000D01*
X120829605Y-75565000D01*
X121874531Y-76609926D01*
X122151714Y-76499079D01*
X122305089Y-76188160D01*
X122394860Y-75853295D01*
X122410004Y-75622650D01*
X123962424Y-75622650D01*
X124007634Y-75966380D01*
X124119034Y-76294685D01*
X124228286Y-76499079D01*
X124505469Y-76609926D01*
X125550395Y-75565000D01*
X125909605Y-75565000D01*
X126954531Y-76609926D01*
X127231714Y-76499079D01*
X127385089Y-76188160D01*
X127474860Y-75853295D01*
X127490004Y-75622650D01*
X130217425Y-75622650D01*
X130262635Y-75966380D01*
X130374035Y-76294685D01*
X130483287Y-76499079D01*
X130760470Y-76609926D01*
X131805396Y-75565000D01*
X132164606Y-75565000D01*
X133209532Y-76609926D01*
X133486715Y-76499079D01*
X133640090Y-76188160D01*
X133729861Y-75853295D01*
X133745005Y-75622650D01*
X135297425Y-75622650D01*
X135342635Y-75966380D01*
X135454035Y-76294685D01*
X135563287Y-76499079D01*
X135840470Y-76609926D01*
X136885396Y-75565000D01*
X137244606Y-75565000D01*
X138289532Y-76609926D01*
X138566715Y-76499079D01*
X138720090Y-76188160D01*
X138809861Y-75853295D01*
X138825005Y-75622650D01*
X146822424Y-75622650D01*
X146867634Y-75966380D01*
X146979034Y-76294685D01*
X147088286Y-76499079D01*
X147365469Y-76609926D01*
X148410395Y-75565000D01*
X148769605Y-75565000D01*
X149814531Y-76609926D01*
X150091714Y-76499079D01*
X150245089Y-76188160D01*
X150334860Y-75853295D01*
X150350004Y-75622650D01*
X151902424Y-75622650D01*
X151947634Y-75966380D01*
X152059034Y-76294685D01*
X152168286Y-76499079D01*
X152445469Y-76609926D01*
X153490395Y-75565000D01*
X153849605Y-75565000D01*
X154894531Y-76609926D01*
X155171714Y-76499079D01*
X155325089Y-76188160D01*
X155414860Y-75853295D01*
X155430004Y-75622650D01*
X158252424Y-75622650D01*
X158297634Y-75966380D01*
X158409034Y-76294685D01*
X158518286Y-76499079D01*
X158795469Y-76609926D01*
X159840395Y-75565000D01*
X160199605Y-75565000D01*
X161244531Y-76609926D01*
X161521714Y-76499079D01*
X161675089Y-76188160D01*
X161764860Y-75853295D01*
X161780004Y-75622650D01*
X163332424Y-75622650D01*
X163377634Y-75966380D01*
X163489034Y-76294685D01*
X163598286Y-76499079D01*
X163875469Y-76609926D01*
X164920395Y-75565000D01*
X165279605Y-75565000D01*
X166324531Y-76609926D01*
X166595392Y-76501607D01*
X168065000Y-76501607D01*
X168065000Y-77168393D01*
X168195083Y-77822368D01*
X168450252Y-78438399D01*
X168820698Y-78992812D01*
X169292188Y-79464302D01*
X169846601Y-79834748D01*
X170462632Y-80089917D01*
X171116607Y-80220000D01*
X171783393Y-80220000D01*
X172437368Y-80089917D01*
X173053399Y-79834748D01*
X173607812Y-79464302D01*
X174079302Y-78992812D01*
X174449748Y-78438399D01*
X174704917Y-77822368D01*
X174835000Y-77168393D01*
X174835000Y-76501607D01*
X174704917Y-75847632D01*
X174449748Y-75231601D01*
X174079302Y-74677188D01*
X173607812Y-74205698D01*
X173053399Y-73835252D01*
X172437368Y-73580083D01*
X171783393Y-73450000D01*
X171116607Y-73450000D01*
X170462632Y-73580083D01*
X169846601Y-73835252D01*
X169292188Y-74205698D01*
X168820698Y-74677188D01*
X168450252Y-75231601D01*
X168195083Y-75847632D01*
X168065000Y-76501607D01*
X166595392Y-76501607D01*
X166601714Y-76499079D01*
X166755089Y-76188160D01*
X166844860Y-75853295D01*
X166867576Y-75507350D01*
X166822366Y-75163620D01*
X166710966Y-74835315D01*
X166601714Y-74630921D01*
X166324531Y-74520074D01*
X165279605Y-75565000D01*
X164920395Y-75565000D01*
X163875469Y-74520074D01*
X163598286Y-74630921D01*
X163444911Y-74941840D01*
X163355140Y-75276705D01*
X163332424Y-75622650D01*
X161780004Y-75622650D01*
X161787576Y-75507350D01*
X161742366Y-75163620D01*
X161630966Y-74835315D01*
X161521714Y-74630921D01*
X161244531Y-74520074D01*
X160199605Y-75565000D01*
X159840395Y-75565000D01*
X158795469Y-74520074D01*
X158518286Y-74630921D01*
X158364911Y-74941840D01*
X158275140Y-75276705D01*
X158252424Y-75622650D01*
X155430004Y-75622650D01*
X155437576Y-75507350D01*
X155392366Y-75163620D01*
X155280966Y-74835315D01*
X155171714Y-74630921D01*
X154894531Y-74520074D01*
X153849605Y-75565000D01*
X153490395Y-75565000D01*
X152445469Y-74520074D01*
X152168286Y-74630921D01*
X152014911Y-74941840D01*
X151925140Y-75276705D01*
X151902424Y-75622650D01*
X150350004Y-75622650D01*
X150357576Y-75507350D01*
X150312366Y-75163620D01*
X150200966Y-74835315D01*
X150091714Y-74630921D01*
X149814531Y-74520074D01*
X148769605Y-75565000D01*
X148410395Y-75565000D01*
X147365469Y-74520074D01*
X147088286Y-74630921D01*
X146934911Y-74941840D01*
X146845140Y-75276705D01*
X146822424Y-75622650D01*
X138825005Y-75622650D01*
X138832577Y-75507350D01*
X138787367Y-75163620D01*
X138675967Y-74835315D01*
X138566715Y-74630921D01*
X138289532Y-74520074D01*
X137244606Y-75565000D01*
X136885396Y-75565000D01*
X135840470Y-74520074D01*
X135563287Y-74630921D01*
X135409912Y-74941840D01*
X135320141Y-75276705D01*
X135297425Y-75622650D01*
X133745005Y-75622650D01*
X133752577Y-75507350D01*
X133707367Y-75163620D01*
X133595967Y-74835315D01*
X133486715Y-74630921D01*
X133209532Y-74520074D01*
X132164606Y-75565000D01*
X131805396Y-75565000D01*
X130760470Y-74520074D01*
X130483287Y-74630921D01*
X130329912Y-74941840D01*
X130240141Y-75276705D01*
X130217425Y-75622650D01*
X127490004Y-75622650D01*
X127497576Y-75507350D01*
X127452366Y-75163620D01*
X127340966Y-74835315D01*
X127231714Y-74630921D01*
X126954531Y-74520074D01*
X125909605Y-75565000D01*
X125550395Y-75565000D01*
X124505469Y-74520074D01*
X124228286Y-74630921D01*
X124074911Y-74941840D01*
X123985140Y-75276705D01*
X123962424Y-75622650D01*
X122410004Y-75622650D01*
X122417576Y-75507350D01*
X122372366Y-75163620D01*
X122260966Y-74835315D01*
X122151714Y-74630921D01*
X121874531Y-74520074D01*
X120829605Y-75565000D01*
X120470395Y-75565000D01*
X119425469Y-74520074D01*
X119148286Y-74630921D01*
X118994911Y-74941840D01*
X118905140Y-75276705D01*
X118882424Y-75622650D01*
X117461727Y-75622650D01*
X117299748Y-75231601D01*
X116929302Y-74677188D01*
X116592583Y-74340469D01*
X119605074Y-74340469D01*
X120650000Y-75385395D01*
X121694926Y-74340469D01*
X124685074Y-74340469D01*
X125730000Y-75385395D01*
X126774926Y-74340469D01*
X130940075Y-74340469D01*
X131985001Y-75385395D01*
X133029927Y-74340469D01*
X136020075Y-74340469D01*
X137065001Y-75385395D01*
X138109927Y-74340469D01*
X147545074Y-74340469D01*
X148590000Y-75385395D01*
X149634926Y-74340469D01*
X152625074Y-74340469D01*
X153670000Y-75385395D01*
X154714926Y-74340469D01*
X158975074Y-74340469D01*
X160020000Y-75385395D01*
X161064926Y-74340469D01*
X164055074Y-74340469D01*
X165100000Y-75385395D01*
X166144926Y-74340469D01*
X166034079Y-74063286D01*
X165723160Y-73909911D01*
X165388295Y-73820140D01*
X165042350Y-73797424D01*
X164698620Y-73842634D01*
X164370315Y-73954034D01*
X164165921Y-74063286D01*
X164055074Y-74340469D01*
X161064926Y-74340469D01*
X160954079Y-74063286D01*
X160643160Y-73909911D01*
X160308295Y-73820140D01*
X159962350Y-73797424D01*
X159618620Y-73842634D01*
X159290315Y-73954034D01*
X159085921Y-74063286D01*
X158975074Y-74340469D01*
X154714926Y-74340469D01*
X154604079Y-74063286D01*
X154293160Y-73909911D01*
X153958295Y-73820140D01*
X153612350Y-73797424D01*
X153268620Y-73842634D01*
X152940315Y-73954034D01*
X152735921Y-74063286D01*
X152625074Y-74340469D01*
X149634926Y-74340469D01*
X149524079Y-74063286D01*
X149213160Y-73909911D01*
X148878295Y-73820140D01*
X148532350Y-73797424D01*
X148188620Y-73842634D01*
X147860315Y-73954034D01*
X147655921Y-74063286D01*
X147545074Y-74340469D01*
X138109927Y-74340469D01*
X137999080Y-74063286D01*
X137688161Y-73909911D01*
X137353296Y-73820140D01*
X137007351Y-73797424D01*
X136663621Y-73842634D01*
X136335316Y-73954034D01*
X136130922Y-74063286D01*
X136020075Y-74340469D01*
X133029927Y-74340469D01*
X132919080Y-74063286D01*
X132608161Y-73909911D01*
X132273296Y-73820140D01*
X131927351Y-73797424D01*
X131583621Y-73842634D01*
X131255316Y-73954034D01*
X131050922Y-74063286D01*
X130940075Y-74340469D01*
X126774926Y-74340469D01*
X126664079Y-74063286D01*
X126353160Y-73909911D01*
X126018295Y-73820140D01*
X125672350Y-73797424D01*
X125328620Y-73842634D01*
X125000315Y-73954034D01*
X124795921Y-74063286D01*
X124685074Y-74340469D01*
X121694926Y-74340469D01*
X121584079Y-74063286D01*
X121273160Y-73909911D01*
X120938295Y-73820140D01*
X120592350Y-73797424D01*
X120248620Y-73842634D01*
X119920315Y-73954034D01*
X119715921Y-74063286D01*
X119605074Y-74340469D01*
X116592583Y-74340469D01*
X116457812Y-74205698D01*
X115903399Y-73835252D01*
X115287368Y-73580083D01*
X114633393Y-73450000D01*
X113966607Y-73450000D01*
X113312632Y-73580083D01*
X112696601Y-73835252D01*
X112142188Y-74205698D01*
X111670698Y-74677188D01*
X111300252Y-75231601D01*
X111045083Y-75847632D01*
X110915000Y-76501607D01*
X110515000Y-76501607D01*
X110515000Y-72415000D01*
X175235001Y-72415000D01*
X175235000Y-111100000D01*
X175235000Y-111100000D01*
G37*
X175235000Y-111100000D02*
X110515000Y-111100000D01*
X110515000Y-106346607D01*
X111550000Y-106346607D01*
X111550000Y-107013393D01*
X111680083Y-107667368D01*
X111935252Y-108283399D01*
X112305698Y-108837812D01*
X112777188Y-109309302D01*
X113331601Y-109679748D01*
X113947632Y-109934917D01*
X114601607Y-110065000D01*
X115268393Y-110065000D01*
X115922368Y-109934917D01*
X116296369Y-109780000D01*
X130006928Y-109780000D01*
X130019188Y-109904482D01*
X130055498Y-110024180D01*
X130114463Y-110134494D01*
X130193815Y-110231185D01*
X130290506Y-110310537D01*
X130400820Y-110369502D01*
X130520518Y-110405812D01*
X130645000Y-110418072D01*
X131159250Y-110415000D01*
X131318000Y-110256250D01*
X131318000Y-108607000D01*
X131572000Y-108607000D01*
X131572000Y-110256250D01*
X131730750Y-110415000D01*
X132245000Y-110418072D01*
X132369482Y-110405812D01*
X132489180Y-110369502D01*
X132599494Y-110310537D01*
X132696185Y-110231185D01*
X132775537Y-110134494D01*
X132834502Y-110024180D01*
X132870812Y-109904482D01*
X132883072Y-109780000D01*
X132880000Y-108765750D01*
X132721250Y-108607000D01*
X131572000Y-108607000D01*
X131318000Y-108607000D01*
X130168750Y-108607000D01*
X130010000Y-108765750D01*
X130006928Y-109780000D01*
X116296369Y-109780000D01*
X116538399Y-109679748D01*
X117092812Y-109309302D01*
X117564302Y-108837812D01*
X117934748Y-108283399D01*
X118189917Y-107667368D01*
X118320000Y-107013393D01*
X118320000Y-106346607D01*
X118189917Y-105692632D01*
X117934748Y-105076601D01*
X117564302Y-104522188D01*
X117092812Y-104050698D01*
X116538399Y-103680252D01*
X115922368Y-103425083D01*
X115268393Y-103295000D01*
X114601607Y-103295000D01*
X113947632Y-103425083D01*
X113331601Y-103680252D01*
X112777188Y-104050698D01*
X112305698Y-104522188D01*
X111935252Y-105076601D01*
X111680083Y-105692632D01*
X111550000Y-106346607D01*
X110515000Y-106346607D01*
X110515000Y-85233166D01*
X114971439Y-85233166D01*
X115006550Y-85446588D01*
X115210826Y-85537458D01*
X115428905Y-85586731D01*
X115652406Y-85592511D01*
X115675186Y-85588589D01*
X117995000Y-85588589D01*
X117995000Y-85861411D01*
X118048225Y-86128989D01*
X118152629Y-86381043D01*
X118304201Y-86607886D01*
X118497114Y-86800799D01*
X118723957Y-86952371D01*
X118976011Y-87056775D01*
X119243589Y-87110000D01*
X119516411Y-87110000D01*
X119572897Y-87098764D01*
X121300559Y-88826427D01*
X121326709Y-88858291D01*
X121453854Y-88962636D01*
X121598913Y-89040172D01*
X121756311Y-89087918D01*
X121878981Y-89100000D01*
X121878991Y-89100000D01*
X121919999Y-89104039D01*
X121961007Y-89100000D01*
X122844133Y-89100000D01*
X125886928Y-92142797D01*
X125886928Y-92362500D01*
X125903752Y-92533316D01*
X125953577Y-92697567D01*
X126034488Y-92848942D01*
X126117425Y-92950000D01*
X126034488Y-93051058D01*
X125953577Y-93202433D01*
X125903752Y-93366684D01*
X125886928Y-93537500D01*
X125886928Y-94112500D01*
X125903752Y-94283316D01*
X125953577Y-94447567D01*
X126034488Y-94598942D01*
X126143377Y-94731623D01*
X126276058Y-94840512D01*
X126427433Y-94921423D01*
X126591684Y-94971248D01*
X126762500Y-94988072D01*
X127237500Y-94988072D01*
X127408316Y-94971248D01*
X127572567Y-94921423D01*
X127723942Y-94840512D01*
X127856623Y-94731623D01*
X127915403Y-94660000D01*
X128624597Y-94660000D01*
X128683377Y-94731623D01*
X128816058Y-94840512D01*
X128967433Y-94921423D01*
X129131684Y-94971248D01*
X129302500Y-94988072D01*
X129777500Y-94988072D01*
X129948316Y-94971248D01*
X130112567Y-94921423D01*
X130263942Y-94840512D01*
X130396623Y-94731623D01*
X130505512Y-94598942D01*
X130586423Y-94447567D01*
X130636248Y-94283316D01*
X130653072Y-94112500D01*
X130653072Y-93892796D01*
X130966928Y-93578940D01*
X130966928Y-94112500D01*
X130983752Y-94283316D01*
X131033577Y-94447567D01*
X131114488Y-94598942D01*
X131223377Y-94731623D01*
X131356058Y-94840512D01*
X131507433Y-94921423D01*
X131671684Y-94971248D01*
X131842500Y-94988072D01*
X132317500Y-94988072D01*
X132488316Y-94971248D01*
X132652567Y-94921423D01*
X132803942Y-94840512D01*
X132936623Y-94731623D01*
X132995403Y-94660000D01*
X134339597Y-94660000D01*
X134398377Y-94731623D01*
X134531058Y-94840512D01*
X134682433Y-94921423D01*
X134816915Y-94962218D01*
X133183574Y-96595559D01*
X133151710Y-96621709D01*
X133047365Y-96748854D01*
X133021288Y-96797640D01*
X132971058Y-96824488D01*
X132838377Y-96933377D01*
X132729488Y-97066058D01*
X132648577Y-97217433D01*
X132598752Y-97381684D01*
X132581928Y-97552500D01*
X132581928Y-98027500D01*
X132598752Y-98198316D01*
X132648577Y-98362567D01*
X132729488Y-98513942D01*
X132838377Y-98646623D01*
X132910001Y-98705403D01*
X132910000Y-100684597D01*
X132838377Y-100743377D01*
X132820631Y-100765000D01*
X132121018Y-100765000D01*
X132080000Y-100760960D01*
X132038982Y-100765000D01*
X132038981Y-100765000D01*
X131916311Y-100777082D01*
X131758913Y-100824828D01*
X131613854Y-100902364D01*
X131486709Y-101006709D01*
X131460562Y-101038569D01*
X130883573Y-101615559D01*
X130851710Y-101641709D01*
X130825562Y-101673571D01*
X130747364Y-101768855D01*
X130669828Y-101913914D01*
X130622082Y-102071312D01*
X130605960Y-102235000D01*
X130610001Y-102276028D01*
X130610001Y-102992889D01*
X130555150Y-103009528D01*
X130401614Y-103091595D01*
X130267038Y-103202038D01*
X130156595Y-103336614D01*
X130074528Y-103490150D01*
X130023992Y-103656746D01*
X130006928Y-103830000D01*
X130006928Y-105930000D01*
X130023992Y-106103254D01*
X130074528Y-106269850D01*
X130156595Y-106423386D01*
X130267038Y-106557962D01*
X130343813Y-106620969D01*
X130290506Y-106649463D01*
X130193815Y-106728815D01*
X130114463Y-106825506D01*
X130055498Y-106935820D01*
X130019188Y-107055518D01*
X130006928Y-107180000D01*
X130010000Y-108194250D01*
X130168750Y-108353000D01*
X131318000Y-108353000D01*
X131318000Y-108333000D01*
X131572000Y-108333000D01*
X131572000Y-108353000D01*
X132721250Y-108353000D01*
X132880000Y-108194250D01*
X132882306Y-107432932D01*
X132923913Y-107455172D01*
X133081311Y-107502918D01*
X133203981Y-107515000D01*
X133203991Y-107515000D01*
X133244999Y-107519039D01*
X133286007Y-107515000D01*
X135671928Y-107515000D01*
X135671928Y-107530000D01*
X135684188Y-107654482D01*
X135720498Y-107774180D01*
X135779463Y-107884494D01*
X135858815Y-107981185D01*
X135955506Y-108060537D01*
X136065820Y-108119502D01*
X136185518Y-108155812D01*
X136310000Y-108168072D01*
X138010000Y-108168072D01*
X138134482Y-108155812D01*
X138254180Y-108119502D01*
X138364494Y-108060537D01*
X138461185Y-107981185D01*
X138540537Y-107884494D01*
X138599502Y-107774180D01*
X138623966Y-107693534D01*
X138699731Y-107777588D01*
X138933080Y-107951641D01*
X139195901Y-108076825D01*
X139343110Y-108121476D01*
X139573000Y-108000155D01*
X139573000Y-106807000D01*
X139553000Y-106807000D01*
X139553000Y-106553000D01*
X139573000Y-106553000D01*
X139573000Y-105359845D01*
X139827000Y-105359845D01*
X139827000Y-106553000D01*
X139847000Y-106553000D01*
X139847000Y-106807000D01*
X139827000Y-106807000D01*
X139827000Y-108000155D01*
X140056890Y-108121476D01*
X140204099Y-108076825D01*
X140466920Y-107951641D01*
X140700269Y-107777588D01*
X140895178Y-107561355D01*
X140964799Y-107444477D01*
X140999294Y-107509014D01*
X141184866Y-107735134D01*
X141410986Y-107920706D01*
X141668966Y-108058599D01*
X141948889Y-108143513D01*
X142167050Y-108165000D01*
X142312950Y-108165000D01*
X142523405Y-108144272D01*
X143420559Y-109041427D01*
X143446709Y-109073291D01*
X143573854Y-109177636D01*
X143718913Y-109255172D01*
X143876311Y-109302918D01*
X143998981Y-109315000D01*
X143998991Y-109315000D01*
X144039999Y-109319039D01*
X144081007Y-109315000D01*
X146516928Y-109315000D01*
X146516928Y-109530000D01*
X146533992Y-109703254D01*
X146584528Y-109869850D01*
X146666595Y-110023386D01*
X146777038Y-110157962D01*
X146911614Y-110268405D01*
X147065150Y-110350472D01*
X147231746Y-110401008D01*
X147405000Y-110418072D01*
X148505000Y-110418072D01*
X148678254Y-110401008D01*
X148844850Y-110350472D01*
X148998386Y-110268405D01*
X149132962Y-110157962D01*
X149243405Y-110023386D01*
X149325472Y-109869850D01*
X149376008Y-109703254D01*
X149393072Y-109530000D01*
X149393072Y-107430000D01*
X149376008Y-107256746D01*
X149325472Y-107090150D01*
X149243405Y-106936614D01*
X149132962Y-106802038D01*
X149056187Y-106739031D01*
X149109494Y-106710537D01*
X149206185Y-106631185D01*
X149285537Y-106534494D01*
X149344502Y-106424180D01*
X149368033Y-106346607D01*
X167430000Y-106346607D01*
X167430000Y-107013393D01*
X167560083Y-107667368D01*
X167815252Y-108283399D01*
X168185698Y-108837812D01*
X168657188Y-109309302D01*
X169211601Y-109679748D01*
X169827632Y-109934917D01*
X170481607Y-110065000D01*
X171148393Y-110065000D01*
X171802368Y-109934917D01*
X172418399Y-109679748D01*
X172972812Y-109309302D01*
X173444302Y-108837812D01*
X173814748Y-108283399D01*
X174069917Y-107667368D01*
X174200000Y-107013393D01*
X174200000Y-106346607D01*
X174069917Y-105692632D01*
X173814748Y-105076601D01*
X173444302Y-104522188D01*
X172972812Y-104050698D01*
X172418399Y-103680252D01*
X171802368Y-103425083D01*
X171148393Y-103295000D01*
X170481607Y-103295000D01*
X169827632Y-103425083D01*
X169211601Y-103680252D01*
X168657188Y-104050698D01*
X168185698Y-104522188D01*
X167815252Y-105076601D01*
X167560083Y-105692632D01*
X167430000Y-106346607D01*
X149368033Y-106346607D01*
X149380812Y-106304482D01*
X149393072Y-106180000D01*
X149390000Y-105165750D01*
X149231250Y-105007000D01*
X148082000Y-105007000D01*
X148082000Y-105027000D01*
X147828000Y-105027000D01*
X147828000Y-105007000D01*
X146678750Y-105007000D01*
X146520000Y-105165750D01*
X146516928Y-106180000D01*
X146529188Y-106304482D01*
X146565498Y-106424180D01*
X146624463Y-106534494D01*
X146703815Y-106631185D01*
X146800506Y-106710537D01*
X146853813Y-106739031D01*
X146777038Y-106802038D01*
X146666595Y-106936614D01*
X146584528Y-107090150D01*
X146533992Y-107256746D01*
X146516928Y-107430000D01*
X146516928Y-107645000D01*
X144385868Y-107645000D01*
X143704272Y-106963405D01*
X143732185Y-106680000D01*
X143703513Y-106388889D01*
X143618599Y-106108966D01*
X143480706Y-105850986D01*
X143295134Y-105624866D01*
X143075000Y-105444207D01*
X143075000Y-103580000D01*
X146516928Y-103580000D01*
X146520000Y-104594250D01*
X146678750Y-104753000D01*
X147828000Y-104753000D01*
X147828000Y-103103750D01*
X148082000Y-103103750D01*
X148082000Y-104753000D01*
X149231250Y-104753000D01*
X149390000Y-104594250D01*
X149393072Y-103580000D01*
X149380812Y-103455518D01*
X149344502Y-103335820D01*
X149285537Y-103225506D01*
X149206185Y-103128815D01*
X149109494Y-103049463D01*
X148999180Y-102990498D01*
X148879482Y-102954188D01*
X148755000Y-102941928D01*
X148240750Y-102945000D01*
X148082000Y-103103750D01*
X147828000Y-103103750D01*
X147669250Y-102945000D01*
X147155000Y-102941928D01*
X147030518Y-102954188D01*
X146910820Y-102990498D01*
X146800506Y-103049463D01*
X146703815Y-103128815D01*
X146624463Y-103225506D01*
X146565498Y-103335820D01*
X146529188Y-103455518D01*
X146516928Y-103580000D01*
X143075000Y-103580000D01*
X143075000Y-102580868D01*
X143220868Y-102435000D01*
X143615631Y-102435000D01*
X143633377Y-102456623D01*
X143766058Y-102565512D01*
X143917433Y-102646423D01*
X144081684Y-102696248D01*
X144252500Y-102713072D01*
X144827500Y-102713072D01*
X144998316Y-102696248D01*
X145162567Y-102646423D01*
X145313942Y-102565512D01*
X145337839Y-102545901D01*
X145410506Y-102605537D01*
X145520820Y-102664502D01*
X145640518Y-102700812D01*
X145765000Y-102713072D01*
X146004250Y-102710000D01*
X146163000Y-102551250D01*
X146163000Y-101727000D01*
X146417000Y-101727000D01*
X146417000Y-102551250D01*
X146575750Y-102710000D01*
X146815000Y-102713072D01*
X146939482Y-102700812D01*
X147059180Y-102664502D01*
X147169494Y-102605537D01*
X147266185Y-102526185D01*
X147345537Y-102429494D01*
X147404502Y-102319180D01*
X147440812Y-102199482D01*
X147453072Y-102075000D01*
X147450000Y-101885750D01*
X147291250Y-101727000D01*
X146417000Y-101727000D01*
X146163000Y-101727000D01*
X146143000Y-101727000D01*
X146143000Y-101473000D01*
X146163000Y-101473000D01*
X146163000Y-100648750D01*
X146417000Y-100648750D01*
X146417000Y-101473000D01*
X147291250Y-101473000D01*
X147450000Y-101314250D01*
X147453072Y-101125000D01*
X147440812Y-101000518D01*
X147404502Y-100880820D01*
X147345537Y-100770506D01*
X147266185Y-100673815D01*
X147169494Y-100594463D01*
X147059180Y-100535498D01*
X146939482Y-100499188D01*
X146815000Y-100486928D01*
X146575750Y-100490000D01*
X146417000Y-100648750D01*
X146163000Y-100648750D01*
X146004250Y-100490000D01*
X145765000Y-100486928D01*
X145640518Y-100499188D01*
X145520820Y-100535498D01*
X145410506Y-100594463D01*
X145375000Y-100623602D01*
X145375000Y-99401398D01*
X145410506Y-99430537D01*
X145520820Y-99489502D01*
X145640518Y-99525812D01*
X145765000Y-99538072D01*
X146004250Y-99535000D01*
X146163000Y-99376250D01*
X146163000Y-98552000D01*
X146417000Y-98552000D01*
X146417000Y-99376250D01*
X146575750Y-99535000D01*
X146815000Y-99538072D01*
X146939482Y-99525812D01*
X147059180Y-99489502D01*
X147169494Y-99430537D01*
X147266185Y-99351185D01*
X147345537Y-99254494D01*
X147404502Y-99144180D01*
X147440812Y-99024482D01*
X147453072Y-98900000D01*
X147450000Y-98710750D01*
X147291250Y-98552000D01*
X146417000Y-98552000D01*
X146163000Y-98552000D01*
X146143000Y-98552000D01*
X146143000Y-98298000D01*
X146163000Y-98298000D01*
X146163000Y-97473750D01*
X146417000Y-97473750D01*
X146417000Y-98298000D01*
X147291250Y-98298000D01*
X147450000Y-98139250D01*
X147453072Y-97950000D01*
X147440812Y-97825518D01*
X147404502Y-97705820D01*
X147345537Y-97595506D01*
X147266185Y-97498815D01*
X147169494Y-97419463D01*
X147059180Y-97360498D01*
X146939482Y-97324188D01*
X146815000Y-97311928D01*
X146575750Y-97315000D01*
X146417000Y-97473750D01*
X146163000Y-97473750D01*
X146004250Y-97315000D01*
X145765000Y-97311928D01*
X145640518Y-97324188D01*
X145520820Y-97360498D01*
X145410506Y-97419463D01*
X145337839Y-97479099D01*
X145313942Y-97459488D01*
X145162567Y-97378577D01*
X144998316Y-97328752D01*
X144827500Y-97311928D01*
X144607797Y-97311928D01*
X143539990Y-96244123D01*
X143539990Y-95553072D01*
X144905000Y-95553072D01*
X145058745Y-95537929D01*
X145206582Y-95493084D01*
X145287186Y-95450000D01*
X146974132Y-95450000D01*
X147335562Y-95811431D01*
X147361709Y-95843291D01*
X147393568Y-95869437D01*
X147393570Y-95869439D01*
X147488854Y-95947636D01*
X147633913Y-96025172D01*
X147791311Y-96072918D01*
X147913981Y-96085000D01*
X147913982Y-96085000D01*
X147955000Y-96089040D01*
X147996018Y-96085000D01*
X151235631Y-96085000D01*
X151253377Y-96106623D01*
X151386058Y-96215512D01*
X151537433Y-96296423D01*
X151701684Y-96346248D01*
X151872500Y-96363072D01*
X152447500Y-96363072D01*
X152618316Y-96346248D01*
X152782567Y-96296423D01*
X152933942Y-96215512D01*
X152957839Y-96195901D01*
X153030506Y-96255537D01*
X153140820Y-96314502D01*
X153260518Y-96350812D01*
X153385000Y-96363072D01*
X153624250Y-96360000D01*
X153783000Y-96201250D01*
X153783000Y-95377000D01*
X154037000Y-95377000D01*
X154037000Y-96201250D01*
X154195750Y-96360000D01*
X154435000Y-96363072D01*
X154559482Y-96350812D01*
X154679180Y-96314502D01*
X154789494Y-96255537D01*
X154886185Y-96176185D01*
X154965537Y-96079494D01*
X155024502Y-95969180D01*
X155060812Y-95849482D01*
X155073072Y-95725000D01*
X155070000Y-95535750D01*
X154911250Y-95377000D01*
X154037000Y-95377000D01*
X153783000Y-95377000D01*
X153763000Y-95377000D01*
X153763000Y-95123000D01*
X153783000Y-95123000D01*
X153783000Y-95103000D01*
X154037000Y-95103000D01*
X154037000Y-95123000D01*
X154911250Y-95123000D01*
X155070000Y-94964250D01*
X155070216Y-94950928D01*
X157641698Y-94950928D01*
X157653752Y-95073316D01*
X157703577Y-95237567D01*
X157784488Y-95388942D01*
X157893377Y-95521623D01*
X158026058Y-95630512D01*
X158177433Y-95711423D01*
X158341684Y-95761248D01*
X158512500Y-95778072D01*
X158987500Y-95778072D01*
X159158316Y-95761248D01*
X159322567Y-95711423D01*
X159473942Y-95630512D01*
X159606623Y-95521623D01*
X159715512Y-95388942D01*
X159796423Y-95237567D01*
X159846248Y-95073316D01*
X159863072Y-94902500D01*
X159863072Y-94327500D01*
X159846248Y-94156684D01*
X159796423Y-93992433D01*
X159715512Y-93841058D01*
X159632575Y-93740000D01*
X159715512Y-93638942D01*
X159796423Y-93487567D01*
X159846248Y-93323316D01*
X159863072Y-93152500D01*
X159863072Y-92577500D01*
X159846248Y-92406684D01*
X159796423Y-92242433D01*
X159715512Y-92091058D01*
X159606623Y-91958377D01*
X159585000Y-91940631D01*
X159585000Y-91729369D01*
X159606623Y-91711623D01*
X159715512Y-91578942D01*
X159796423Y-91427567D01*
X159846248Y-91263316D01*
X159863072Y-91092500D01*
X159863072Y-90517500D01*
X159846248Y-90346684D01*
X159796423Y-90182433D01*
X159715512Y-90031058D01*
X159632575Y-89930000D01*
X159715512Y-89828942D01*
X159796423Y-89677567D01*
X159846248Y-89513316D01*
X159863072Y-89342500D01*
X159863072Y-89122795D01*
X162568020Y-86417848D01*
X162573854Y-86422636D01*
X162718913Y-86500172D01*
X162876311Y-86547918D01*
X162998981Y-86560000D01*
X162998982Y-86560000D01*
X163040000Y-86564040D01*
X163081018Y-86560000D01*
X164627205Y-86560000D01*
X164659201Y-86607886D01*
X164852114Y-86800799D01*
X165078957Y-86952371D01*
X165331011Y-87056775D01*
X165598589Y-87110000D01*
X165871411Y-87110000D01*
X166138989Y-87056775D01*
X166391043Y-86952371D01*
X166617886Y-86800799D01*
X166810799Y-86607886D01*
X166962371Y-86381043D01*
X167066775Y-86128989D01*
X167120000Y-85861411D01*
X167120000Y-85588589D01*
X167066775Y-85321011D01*
X167030389Y-85233166D01*
X169581439Y-85233166D01*
X169616550Y-85446588D01*
X169820826Y-85537458D01*
X170038905Y-85586731D01*
X170262406Y-85592511D01*
X170482740Y-85554577D01*
X170691440Y-85474387D01*
X170743450Y-85446588D01*
X170778561Y-85233166D01*
X170180000Y-84634605D01*
X169581439Y-85233166D01*
X167030389Y-85233166D01*
X166962371Y-85068957D01*
X166810799Y-84842114D01*
X166617886Y-84649201D01*
X166450574Y-84537406D01*
X169042489Y-84537406D01*
X169080423Y-84757740D01*
X169160613Y-84966440D01*
X169188412Y-85018450D01*
X169401834Y-85053561D01*
X170000395Y-84455000D01*
X170359605Y-84455000D01*
X170958166Y-85053561D01*
X171171588Y-85018450D01*
X171262458Y-84814174D01*
X171311731Y-84596095D01*
X171317511Y-84372594D01*
X171279577Y-84152260D01*
X171199387Y-83943560D01*
X171171588Y-83891550D01*
X170958166Y-83856439D01*
X170359605Y-84455000D01*
X170000395Y-84455000D01*
X169401834Y-83856439D01*
X169188412Y-83891550D01*
X169097542Y-84095826D01*
X169048269Y-84313905D01*
X169042489Y-84537406D01*
X166450574Y-84537406D01*
X166391043Y-84497629D01*
X166138989Y-84393225D01*
X165871411Y-84340000D01*
X165598589Y-84340000D01*
X165331011Y-84393225D01*
X165078957Y-84497629D01*
X164852114Y-84649201D01*
X164659201Y-84842114D01*
X164627205Y-84890000D01*
X163395000Y-84890000D01*
X163395000Y-83676834D01*
X169581439Y-83676834D01*
X170180000Y-84275395D01*
X170778561Y-83676834D01*
X170743450Y-83463412D01*
X170539174Y-83372542D01*
X170321095Y-83323269D01*
X170097594Y-83317489D01*
X169877260Y-83355423D01*
X169668560Y-83435613D01*
X169616550Y-83463412D01*
X169581439Y-83676834D01*
X163395000Y-83676834D01*
X163395000Y-81869531D01*
X164055074Y-81869531D01*
X164165921Y-82146714D01*
X164476840Y-82300089D01*
X164811705Y-82389860D01*
X165157650Y-82412576D01*
X165501380Y-82367366D01*
X165829685Y-82255966D01*
X166034079Y-82146714D01*
X166144926Y-81869531D01*
X165100000Y-80824605D01*
X164055074Y-81869531D01*
X163395000Y-81869531D01*
X163395000Y-81097559D01*
X163489034Y-81374685D01*
X163598286Y-81579079D01*
X163875469Y-81689926D01*
X164920395Y-80645000D01*
X165279605Y-80645000D01*
X166324531Y-81689926D01*
X166601714Y-81579079D01*
X166755089Y-81268160D01*
X166844860Y-80933295D01*
X166867576Y-80587350D01*
X166822366Y-80243620D01*
X166710966Y-79915315D01*
X166601714Y-79710921D01*
X166324531Y-79600074D01*
X165279605Y-80645000D01*
X164920395Y-80645000D01*
X163875469Y-79600074D01*
X163598286Y-79710921D01*
X163444911Y-80021840D01*
X163395000Y-80208019D01*
X163395000Y-79543536D01*
X163579182Y-79420469D01*
X164055074Y-79420469D01*
X165100000Y-80465395D01*
X166144926Y-79420469D01*
X166034079Y-79143286D01*
X165723160Y-78989911D01*
X165388295Y-78900140D01*
X165042350Y-78877424D01*
X164698620Y-78922634D01*
X164370315Y-79034034D01*
X164165921Y-79143286D01*
X164055074Y-79420469D01*
X163579182Y-79420469D01*
X163618188Y-79394406D01*
X163849406Y-79163188D01*
X164031073Y-78891305D01*
X164156207Y-78589204D01*
X164220000Y-78268496D01*
X164220000Y-77941504D01*
X164156207Y-77620796D01*
X164031073Y-77318695D01*
X163849406Y-77046812D01*
X163618188Y-76815594D01*
X163579183Y-76789531D01*
X164055074Y-76789531D01*
X164165921Y-77066714D01*
X164476840Y-77220089D01*
X164811705Y-77309860D01*
X165157650Y-77332576D01*
X165501380Y-77287366D01*
X165829685Y-77175966D01*
X166034079Y-77066714D01*
X166144926Y-76789531D01*
X165100000Y-75744605D01*
X164055074Y-76789531D01*
X163579183Y-76789531D01*
X163346305Y-76633927D01*
X163044204Y-76508793D01*
X162723496Y-76445000D01*
X162396504Y-76445000D01*
X162075796Y-76508793D01*
X161773695Y-76633927D01*
X161501812Y-76815594D01*
X161270594Y-77046812D01*
X161088927Y-77318695D01*
X160963793Y-77620796D01*
X160900000Y-77941504D01*
X160900000Y-78268496D01*
X160963793Y-78589204D01*
X161088927Y-78891305D01*
X161270594Y-79163188D01*
X161501812Y-79394406D01*
X161725000Y-79543536D01*
X161725000Y-80192442D01*
X161630966Y-79915315D01*
X161521714Y-79710921D01*
X161244531Y-79600074D01*
X160199605Y-80645000D01*
X161244531Y-81689926D01*
X161521714Y-81579079D01*
X161675089Y-81268160D01*
X161725000Y-81081980D01*
X161725001Y-84899130D01*
X158732205Y-87891928D01*
X158512500Y-87891928D01*
X158341684Y-87908752D01*
X158177433Y-87958577D01*
X158026058Y-88039488D01*
X157893377Y-88148377D01*
X157784488Y-88281058D01*
X157703577Y-88432433D01*
X157653752Y-88596684D01*
X157636928Y-88767500D01*
X157636928Y-89342500D01*
X157653752Y-89513316D01*
X157703577Y-89677567D01*
X157784488Y-89828942D01*
X157867425Y-89930000D01*
X157784488Y-90031058D01*
X157703577Y-90182433D01*
X157653752Y-90346684D01*
X157636928Y-90517500D01*
X157636928Y-91092500D01*
X157653752Y-91263316D01*
X157703577Y-91427567D01*
X157784488Y-91578942D01*
X157893377Y-91711623D01*
X157915000Y-91729369D01*
X157915001Y-91940631D01*
X157893377Y-91958377D01*
X157834597Y-92030000D01*
X155073072Y-92030000D01*
X155073072Y-91837500D01*
X155056248Y-91666684D01*
X155006423Y-91502433D01*
X154925512Y-91351058D01*
X154816623Y-91218377D01*
X154683942Y-91109488D01*
X154532567Y-91028577D01*
X154368316Y-90978752D01*
X154197500Y-90961928D01*
X153622500Y-90961928D01*
X153451684Y-90978752D01*
X153287433Y-91028577D01*
X153136058Y-91109488D01*
X153035000Y-91192425D01*
X152933942Y-91109488D01*
X152782567Y-91028577D01*
X152618316Y-90978752D01*
X152447500Y-90961928D01*
X152227796Y-90961928D01*
X151329446Y-90063578D01*
X151303291Y-90031709D01*
X151176146Y-89927364D01*
X151031087Y-89849828D01*
X150873689Y-89802082D01*
X150751019Y-89790000D01*
X150751018Y-89790000D01*
X150710000Y-89785960D01*
X150668982Y-89790000D01*
X149880957Y-89790000D01*
X149870537Y-89770506D01*
X149791185Y-89673815D01*
X149694494Y-89594463D01*
X149584180Y-89535498D01*
X149464482Y-89499188D01*
X149425000Y-89495299D01*
X149425000Y-88465000D01*
X150998982Y-88465000D01*
X151040000Y-88469040D01*
X151081018Y-88465000D01*
X151081019Y-88465000D01*
X151203689Y-88452918D01*
X151361087Y-88405172D01*
X151506146Y-88327636D01*
X151633291Y-88223291D01*
X151659446Y-88191421D01*
X152102795Y-87748072D01*
X152810000Y-87748072D01*
X152935136Y-87735681D01*
X153054796Y-87699246D01*
X153165049Y-87640166D01*
X153261657Y-87560713D01*
X153340908Y-87463939D01*
X153840908Y-86713939D01*
X153899246Y-86604796D01*
X153935681Y-86485136D01*
X153948072Y-86360667D01*
X153935941Y-86236173D01*
X153899757Y-86116437D01*
X153840908Y-86006061D01*
X153340908Y-85256061D01*
X153261185Y-85158815D01*
X153164494Y-85079463D01*
X153054180Y-85020498D01*
X152934482Y-84984188D01*
X152810000Y-84971928D01*
X152102795Y-84971928D01*
X151965000Y-84834133D01*
X151965000Y-81869531D01*
X152625074Y-81869531D01*
X152735921Y-82146714D01*
X153046840Y-82300089D01*
X153381705Y-82389860D01*
X153727650Y-82412576D01*
X154071380Y-82367366D01*
X154399685Y-82255966D01*
X154604079Y-82146714D01*
X154714926Y-81869531D01*
X158975074Y-81869531D01*
X159085921Y-82146714D01*
X159396840Y-82300089D01*
X159731705Y-82389860D01*
X160077650Y-82412576D01*
X160421380Y-82367366D01*
X160749685Y-82255966D01*
X160954079Y-82146714D01*
X161064926Y-81869531D01*
X160020000Y-80824605D01*
X158975074Y-81869531D01*
X154714926Y-81869531D01*
X153670000Y-80824605D01*
X152625074Y-81869531D01*
X151965000Y-81869531D01*
X151965000Y-81097559D01*
X152059034Y-81374685D01*
X152168286Y-81579079D01*
X152445469Y-81689926D01*
X153490395Y-80645000D01*
X153849605Y-80645000D01*
X154894531Y-81689926D01*
X155171714Y-81579079D01*
X155325089Y-81268160D01*
X155414860Y-80933295D01*
X155430004Y-80702650D01*
X158252424Y-80702650D01*
X158297634Y-81046380D01*
X158409034Y-81374685D01*
X158518286Y-81579079D01*
X158795469Y-81689926D01*
X159840395Y-80645000D01*
X158795469Y-79600074D01*
X158518286Y-79710921D01*
X158364911Y-80021840D01*
X158275140Y-80356705D01*
X158252424Y-80702650D01*
X155430004Y-80702650D01*
X155437576Y-80587350D01*
X155392366Y-80243620D01*
X155280966Y-79915315D01*
X155171714Y-79710921D01*
X154894531Y-79600074D01*
X153849605Y-80645000D01*
X153490395Y-80645000D01*
X152445469Y-79600074D01*
X152168286Y-79710921D01*
X152014911Y-80021840D01*
X151965000Y-80208019D01*
X151965000Y-79543536D01*
X152149182Y-79420469D01*
X152625074Y-79420469D01*
X153670000Y-80465395D01*
X154714926Y-79420469D01*
X158975074Y-79420469D01*
X160020000Y-80465395D01*
X161064926Y-79420469D01*
X160954079Y-79143286D01*
X160643160Y-78989911D01*
X160308295Y-78900140D01*
X159962350Y-78877424D01*
X159618620Y-78922634D01*
X159290315Y-79034034D01*
X159085921Y-79143286D01*
X158975074Y-79420469D01*
X154714926Y-79420469D01*
X154604079Y-79143286D01*
X154293160Y-78989911D01*
X153958295Y-78900140D01*
X153612350Y-78877424D01*
X153268620Y-78922634D01*
X152940315Y-79034034D01*
X152735921Y-79143286D01*
X152625074Y-79420469D01*
X152149182Y-79420469D01*
X152188188Y-79394406D01*
X152419406Y-79163188D01*
X152601073Y-78891305D01*
X152726207Y-78589204D01*
X152790000Y-78268496D01*
X152790000Y-77941504D01*
X152726207Y-77620796D01*
X152601073Y-77318695D01*
X152419406Y-77046812D01*
X152188188Y-76815594D01*
X152149183Y-76789531D01*
X152625074Y-76789531D01*
X152735921Y-77066714D01*
X153046840Y-77220089D01*
X153381705Y-77309860D01*
X153727650Y-77332576D01*
X154071380Y-77287366D01*
X154399685Y-77175966D01*
X154604079Y-77066714D01*
X154714926Y-76789531D01*
X158975074Y-76789531D01*
X159085921Y-77066714D01*
X159396840Y-77220089D01*
X159731705Y-77309860D01*
X160077650Y-77332576D01*
X160421380Y-77287366D01*
X160749685Y-77175966D01*
X160954079Y-77066714D01*
X161064926Y-76789531D01*
X160020000Y-75744605D01*
X158975074Y-76789531D01*
X154714926Y-76789531D01*
X153670000Y-75744605D01*
X152625074Y-76789531D01*
X152149183Y-76789531D01*
X151916305Y-76633927D01*
X151614204Y-76508793D01*
X151293496Y-76445000D01*
X150966504Y-76445000D01*
X150645796Y-76508793D01*
X150343695Y-76633927D01*
X150071812Y-76815594D01*
X149840594Y-77046812D01*
X149658927Y-77318695D01*
X149533793Y-77620796D01*
X149470000Y-77941504D01*
X149470000Y-78268496D01*
X149533793Y-78589204D01*
X149658927Y-78891305D01*
X149840594Y-79163188D01*
X150071812Y-79394406D01*
X150295000Y-79543536D01*
X150295000Y-80192442D01*
X150200966Y-79915315D01*
X150091714Y-79710921D01*
X149814531Y-79600074D01*
X148769605Y-80645000D01*
X149814531Y-81689926D01*
X150091714Y-81579079D01*
X150245089Y-81268160D01*
X150295000Y-81081980D01*
X150295001Y-84369999D01*
X149975000Y-84369999D01*
X149975000Y-84318589D01*
X149921775Y-84051011D01*
X149817371Y-83798957D01*
X149665799Y-83572114D01*
X149472886Y-83379201D01*
X149246043Y-83227629D01*
X148993989Y-83123225D01*
X148726411Y-83070000D01*
X148453589Y-83070000D01*
X148186011Y-83123225D01*
X147933957Y-83227629D01*
X147707114Y-83379201D01*
X147514201Y-83572114D01*
X147362629Y-83798957D01*
X147258225Y-84051011D01*
X147205000Y-84318589D01*
X147205000Y-84591411D01*
X147258225Y-84858989D01*
X147362629Y-85111043D01*
X147514201Y-85337886D01*
X147707114Y-85530799D01*
X147933957Y-85682371D01*
X148186011Y-85786775D01*
X148453589Y-85840000D01*
X148726411Y-85840000D01*
X148783656Y-85828613D01*
X148873853Y-85902635D01*
X149018912Y-85980171D01*
X149176310Y-86027917D01*
X149298980Y-86039999D01*
X149298981Y-86039999D01*
X149339999Y-86044039D01*
X149381017Y-86039999D01*
X150809132Y-86039999D01*
X151129132Y-86360000D01*
X150694133Y-86795000D01*
X148631019Y-86795000D01*
X148590000Y-86790960D01*
X148548982Y-86795000D01*
X148548981Y-86795000D01*
X148426311Y-86807082D01*
X148268913Y-86854828D01*
X148123854Y-86932364D01*
X147996709Y-87036709D01*
X147892364Y-87163854D01*
X147814828Y-87308913D01*
X147767082Y-87466311D01*
X147750960Y-87630000D01*
X147755001Y-87671029D01*
X147755000Y-89495299D01*
X147715518Y-89499188D01*
X147595820Y-89535498D01*
X147485506Y-89594463D01*
X147388815Y-89673815D01*
X147309463Y-89770506D01*
X147250498Y-89880820D01*
X147223957Y-89968313D01*
X147146709Y-90031709D01*
X147120563Y-90063568D01*
X146314843Y-90869290D01*
X145693072Y-90869290D01*
X145693072Y-90655000D01*
X145677929Y-90501255D01*
X145633084Y-90353418D01*
X145560258Y-90217171D01*
X145462251Y-90097749D01*
X145342829Y-89999742D01*
X145206582Y-89926916D01*
X145058745Y-89882071D01*
X144905000Y-89866928D01*
X143255000Y-89866928D01*
X143101255Y-89882071D01*
X142953418Y-89926916D01*
X142852221Y-89981007D01*
X142841311Y-89982082D01*
X142683913Y-90029828D01*
X142538854Y-90107364D01*
X142411709Y-90211709D01*
X142385554Y-90243579D01*
X142143569Y-90485564D01*
X142111699Y-90511719D01*
X142032983Y-90607636D01*
X142007354Y-90638865D01*
X141929818Y-90783924D01*
X141882072Y-90941322D01*
X141865950Y-91105010D01*
X141869990Y-91146029D01*
X141869991Y-96548962D01*
X141865950Y-96589990D01*
X141882072Y-96753678D01*
X141929818Y-96911076D01*
X142007354Y-97056135D01*
X142007355Y-97056136D01*
X142111700Y-97183281D01*
X142143564Y-97209431D01*
X143376928Y-98442797D01*
X143376928Y-98662500D01*
X143393752Y-98833316D01*
X143443577Y-98997567D01*
X143524488Y-99148942D01*
X143633377Y-99281623D01*
X143705001Y-99340403D01*
X143705000Y-100684597D01*
X143633377Y-100743377D01*
X143615631Y-100765000D01*
X142916018Y-100765000D01*
X142875000Y-100760960D01*
X142833982Y-100765000D01*
X142833981Y-100765000D01*
X142711311Y-100777082D01*
X142553913Y-100824828D01*
X142408854Y-100902364D01*
X142281709Y-101006709D01*
X142255562Y-101038569D01*
X141678573Y-101615559D01*
X141646710Y-101641709D01*
X141620562Y-101673571D01*
X141542364Y-101768855D01*
X141464828Y-101913914D01*
X141417082Y-102071312D01*
X141400960Y-102235000D01*
X141405001Y-102276028D01*
X141405000Y-105444206D01*
X141184866Y-105624866D01*
X140999294Y-105850986D01*
X140964799Y-105915523D01*
X140895178Y-105798645D01*
X140700269Y-105582412D01*
X140466920Y-105408359D01*
X140204099Y-105283175D01*
X140056890Y-105238524D01*
X139827000Y-105359845D01*
X139573000Y-105359845D01*
X139343110Y-105238524D01*
X139195901Y-105283175D01*
X138933080Y-105408359D01*
X138699731Y-105582412D01*
X138623966Y-105666466D01*
X138599502Y-105585820D01*
X138540537Y-105475506D01*
X138461185Y-105378815D01*
X138364494Y-105299463D01*
X138254180Y-105240498D01*
X138134482Y-105204188D01*
X138010000Y-105191928D01*
X136310000Y-105191928D01*
X136185518Y-105204188D01*
X136065820Y-105240498D01*
X135955506Y-105299463D01*
X135858815Y-105378815D01*
X135779463Y-105475506D01*
X135720498Y-105585820D01*
X135684188Y-105705518D01*
X135671928Y-105830000D01*
X135671928Y-105845000D01*
X133590868Y-105845000D01*
X132883072Y-105137205D01*
X132883072Y-103830000D01*
X132866008Y-103656746D01*
X132815472Y-103490150D01*
X132733405Y-103336614D01*
X132622962Y-103202038D01*
X132488386Y-103091595D01*
X132334850Y-103009528D01*
X132280000Y-102992890D01*
X132280000Y-102580868D01*
X132425868Y-102435000D01*
X132820631Y-102435000D01*
X132838377Y-102456623D01*
X132971058Y-102565512D01*
X133122433Y-102646423D01*
X133286684Y-102696248D01*
X133457500Y-102713072D01*
X134032500Y-102713072D01*
X134203316Y-102696248D01*
X134367567Y-102646423D01*
X134518942Y-102565512D01*
X134542839Y-102545901D01*
X134615506Y-102605537D01*
X134725820Y-102664502D01*
X134845518Y-102700812D01*
X134970000Y-102713072D01*
X135209250Y-102710000D01*
X135368000Y-102551250D01*
X135368000Y-101727000D01*
X135622000Y-101727000D01*
X135622000Y-102551250D01*
X135780750Y-102710000D01*
X136020000Y-102713072D01*
X136144482Y-102700812D01*
X136264180Y-102664502D01*
X136374494Y-102605537D01*
X136471185Y-102526185D01*
X136550537Y-102429494D01*
X136609502Y-102319180D01*
X136645812Y-102199482D01*
X136658072Y-102075000D01*
X136655000Y-101885750D01*
X136496250Y-101727000D01*
X135622000Y-101727000D01*
X135368000Y-101727000D01*
X135348000Y-101727000D01*
X135348000Y-101473000D01*
X135368000Y-101473000D01*
X135368000Y-100648750D01*
X135622000Y-100648750D01*
X135622000Y-101473000D01*
X136496250Y-101473000D01*
X136655000Y-101314250D01*
X136658072Y-101125000D01*
X136645812Y-101000518D01*
X136609502Y-100880820D01*
X136550537Y-100770506D01*
X136471185Y-100673815D01*
X136374494Y-100594463D01*
X136264180Y-100535498D01*
X136144482Y-100499188D01*
X136020000Y-100486928D01*
X135780750Y-100490000D01*
X135622000Y-100648750D01*
X135368000Y-100648750D01*
X135209250Y-100490000D01*
X134970000Y-100486928D01*
X134845518Y-100499188D01*
X134725820Y-100535498D01*
X134615506Y-100594463D01*
X134580000Y-100623602D01*
X134580000Y-98766398D01*
X134615506Y-98795537D01*
X134725820Y-98854502D01*
X134845518Y-98890812D01*
X134970000Y-98903072D01*
X135209250Y-98900000D01*
X135368000Y-98741250D01*
X135368000Y-97917000D01*
X135622000Y-97917000D01*
X135622000Y-98741250D01*
X135780750Y-98900000D01*
X136020000Y-98903072D01*
X136144482Y-98890812D01*
X136264180Y-98854502D01*
X136374494Y-98795537D01*
X136471185Y-98716185D01*
X136550537Y-98619494D01*
X136609502Y-98509180D01*
X136645812Y-98389482D01*
X136658072Y-98265000D01*
X136655000Y-98075750D01*
X136496250Y-97917000D01*
X135622000Y-97917000D01*
X135368000Y-97917000D01*
X135348000Y-97917000D01*
X135348000Y-97663000D01*
X135368000Y-97663000D01*
X135368000Y-96838750D01*
X135622000Y-96838750D01*
X135622000Y-97663000D01*
X136496250Y-97663000D01*
X136655000Y-97504250D01*
X136658072Y-97315000D01*
X136645812Y-97190518D01*
X136609502Y-97070820D01*
X136550537Y-96960506D01*
X136471185Y-96863815D01*
X136374494Y-96784463D01*
X136264180Y-96725498D01*
X136144482Y-96689188D01*
X136020000Y-96676928D01*
X135780750Y-96680000D01*
X135622000Y-96838750D01*
X135368000Y-96838750D01*
X135335059Y-96805809D01*
X136690868Y-95450000D01*
X137922814Y-95450000D01*
X138003418Y-95493084D01*
X138151255Y-95537929D01*
X138305000Y-95553072D01*
X139955000Y-95553072D01*
X140108745Y-95537929D01*
X140256582Y-95493084D01*
X140392829Y-95420258D01*
X140512251Y-95322251D01*
X140610258Y-95202829D01*
X140683084Y-95066582D01*
X140727929Y-94918745D01*
X140743072Y-94765000D01*
X140743072Y-94465000D01*
X140727929Y-94311255D01*
X140683084Y-94163418D01*
X140610258Y-94027171D01*
X140571546Y-93980000D01*
X140610258Y-93932829D01*
X140683084Y-93796582D01*
X140727929Y-93648745D01*
X140743072Y-93495000D01*
X140743072Y-93195000D01*
X140727929Y-93041255D01*
X140683084Y-92893418D01*
X140610258Y-92757171D01*
X140571546Y-92710000D01*
X140610258Y-92662829D01*
X140683084Y-92526582D01*
X140727929Y-92378745D01*
X140743072Y-92225000D01*
X140743072Y-91925000D01*
X140727929Y-91771255D01*
X140683084Y-91623418D01*
X140610258Y-91487171D01*
X140571546Y-91440000D01*
X140610258Y-91392829D01*
X140683084Y-91256582D01*
X140727929Y-91108745D01*
X140743072Y-90955000D01*
X140743072Y-90655000D01*
X140727929Y-90501255D01*
X140683084Y-90353418D01*
X140610258Y-90217171D01*
X140512251Y-90097749D01*
X140392829Y-89999742D01*
X140256582Y-89926916D01*
X140108745Y-89882071D01*
X139966277Y-89868039D01*
X139969039Y-89839999D01*
X139965000Y-89798991D01*
X139965000Y-89798981D01*
X139952918Y-89676311D01*
X139905172Y-89518913D01*
X139827636Y-89373854D01*
X139723291Y-89246709D01*
X139691427Y-89220559D01*
X137359446Y-86888579D01*
X137333291Y-86856709D01*
X137256043Y-86793313D01*
X137229502Y-86705820D01*
X137170537Y-86595506D01*
X137091185Y-86498815D01*
X136994494Y-86419463D01*
X136884180Y-86360498D01*
X136764482Y-86324188D01*
X136725000Y-86320299D01*
X136725000Y-85290000D01*
X137957205Y-85290000D01*
X137989201Y-85337886D01*
X138182114Y-85530799D01*
X138408957Y-85682371D01*
X138661011Y-85786775D01*
X138928589Y-85840000D01*
X139201411Y-85840000D01*
X139468989Y-85786775D01*
X139721043Y-85682371D01*
X139947886Y-85530799D01*
X140140799Y-85337886D01*
X140292371Y-85111043D01*
X140396775Y-84858989D01*
X140450000Y-84591411D01*
X140450000Y-84318589D01*
X140396775Y-84051011D01*
X140360389Y-83963166D01*
X142911439Y-83963166D01*
X142946550Y-84176588D01*
X143150826Y-84267458D01*
X143368905Y-84316731D01*
X143592406Y-84322511D01*
X143812740Y-84284577D01*
X144021440Y-84204387D01*
X144073450Y-84176588D01*
X144108561Y-83963166D01*
X143510000Y-83364605D01*
X142911439Y-83963166D01*
X140360389Y-83963166D01*
X140292371Y-83798957D01*
X140140799Y-83572114D01*
X139947886Y-83379201D01*
X139780574Y-83267406D01*
X142372489Y-83267406D01*
X142410423Y-83487740D01*
X142490613Y-83696440D01*
X142518412Y-83748450D01*
X142731834Y-83783561D01*
X143330395Y-83185000D01*
X143689605Y-83185000D01*
X144288166Y-83783561D01*
X144501588Y-83748450D01*
X144592458Y-83544174D01*
X144641731Y-83326095D01*
X144647511Y-83102594D01*
X144609577Y-82882260D01*
X144529387Y-82673560D01*
X144501588Y-82621550D01*
X144288166Y-82586439D01*
X143689605Y-83185000D01*
X143330395Y-83185000D01*
X142731834Y-82586439D01*
X142518412Y-82621550D01*
X142427542Y-82825826D01*
X142378269Y-83043905D01*
X142372489Y-83267406D01*
X139780574Y-83267406D01*
X139721043Y-83227629D01*
X139468989Y-83123225D01*
X139201411Y-83070000D01*
X138928589Y-83070000D01*
X138661011Y-83123225D01*
X138408957Y-83227629D01*
X138182114Y-83379201D01*
X137989201Y-83572114D01*
X137957205Y-83620000D01*
X136235868Y-83620000D01*
X135360001Y-82744134D01*
X135360001Y-81869531D01*
X136020075Y-81869531D01*
X136130922Y-82146714D01*
X136441841Y-82300089D01*
X136776706Y-82389860D01*
X137122651Y-82412576D01*
X137166307Y-82406834D01*
X142911439Y-82406834D01*
X143510000Y-83005395D01*
X144108561Y-82406834D01*
X144073450Y-82193412D01*
X143869174Y-82102542D01*
X143651095Y-82053269D01*
X143427594Y-82047489D01*
X143207260Y-82085423D01*
X142998560Y-82165613D01*
X142946550Y-82193412D01*
X142911439Y-82406834D01*
X137166307Y-82406834D01*
X137466381Y-82367366D01*
X137794686Y-82255966D01*
X137999080Y-82146714D01*
X138109927Y-81869531D01*
X147545074Y-81869531D01*
X147655921Y-82146714D01*
X147966840Y-82300089D01*
X148301705Y-82389860D01*
X148647650Y-82412576D01*
X148991380Y-82367366D01*
X149319685Y-82255966D01*
X149524079Y-82146714D01*
X149634926Y-81869531D01*
X148590000Y-80824605D01*
X147545074Y-81869531D01*
X138109927Y-81869531D01*
X137065001Y-80824605D01*
X136020075Y-81869531D01*
X135360001Y-81869531D01*
X135360001Y-81097559D01*
X135454035Y-81374685D01*
X135563287Y-81579079D01*
X135840470Y-81689926D01*
X136885396Y-80645000D01*
X137244606Y-80645000D01*
X138289532Y-81689926D01*
X138566715Y-81579079D01*
X138720090Y-81268160D01*
X138809861Y-80933295D01*
X138825005Y-80702650D01*
X146822424Y-80702650D01*
X146867634Y-81046380D01*
X146979034Y-81374685D01*
X147088286Y-81579079D01*
X147365469Y-81689926D01*
X148410395Y-80645000D01*
X147365469Y-79600074D01*
X147088286Y-79710921D01*
X146934911Y-80021840D01*
X146845140Y-80356705D01*
X146822424Y-80702650D01*
X138825005Y-80702650D01*
X138832577Y-80587350D01*
X138787367Y-80243620D01*
X138675967Y-79915315D01*
X138566715Y-79710921D01*
X138289532Y-79600074D01*
X137244606Y-80645000D01*
X136885396Y-80645000D01*
X135840470Y-79600074D01*
X135563287Y-79710921D01*
X135409912Y-80021840D01*
X135360001Y-80208019D01*
X135360001Y-79543536D01*
X135544183Y-79420469D01*
X136020075Y-79420469D01*
X137065001Y-80465395D01*
X138109927Y-79420469D01*
X147545074Y-79420469D01*
X148590000Y-80465395D01*
X149634926Y-79420469D01*
X149524079Y-79143286D01*
X149213160Y-78989911D01*
X148878295Y-78900140D01*
X148532350Y-78877424D01*
X148188620Y-78922634D01*
X147860315Y-79034034D01*
X147655921Y-79143286D01*
X147545074Y-79420469D01*
X138109927Y-79420469D01*
X137999080Y-79143286D01*
X137688161Y-78989911D01*
X137353296Y-78900140D01*
X137007351Y-78877424D01*
X136663621Y-78922634D01*
X136335316Y-79034034D01*
X136130922Y-79143286D01*
X136020075Y-79420469D01*
X135544183Y-79420469D01*
X135583189Y-79394406D01*
X135814407Y-79163188D01*
X135996074Y-78891305D01*
X136121208Y-78589204D01*
X136185001Y-78268496D01*
X136185001Y-77941504D01*
X136121208Y-77620796D01*
X135996074Y-77318695D01*
X135814407Y-77046812D01*
X135583189Y-76815594D01*
X135544184Y-76789531D01*
X136020075Y-76789531D01*
X136130922Y-77066714D01*
X136441841Y-77220089D01*
X136776706Y-77309860D01*
X137122651Y-77332576D01*
X137466381Y-77287366D01*
X137794686Y-77175966D01*
X137999080Y-77066714D01*
X138109927Y-76789531D01*
X147545074Y-76789531D01*
X147655921Y-77066714D01*
X147966840Y-77220089D01*
X148301705Y-77309860D01*
X148647650Y-77332576D01*
X148991380Y-77287366D01*
X149319685Y-77175966D01*
X149524079Y-77066714D01*
X149634926Y-76789531D01*
X148590000Y-75744605D01*
X147545074Y-76789531D01*
X138109927Y-76789531D01*
X137065001Y-75744605D01*
X136020075Y-76789531D01*
X135544184Y-76789531D01*
X135311306Y-76633927D01*
X135009205Y-76508793D01*
X134688497Y-76445000D01*
X134361505Y-76445000D01*
X134040797Y-76508793D01*
X133738696Y-76633927D01*
X133466813Y-76815594D01*
X133235595Y-77046812D01*
X133053928Y-77318695D01*
X132928794Y-77620796D01*
X132865001Y-77941504D01*
X132865001Y-78268496D01*
X132928794Y-78589204D01*
X133053928Y-78891305D01*
X133235595Y-79163188D01*
X133466813Y-79394406D01*
X133690001Y-79543536D01*
X133690001Y-80192442D01*
X133595967Y-79915315D01*
X133486715Y-79710921D01*
X133209532Y-79600074D01*
X132164606Y-80645000D01*
X133209532Y-81689926D01*
X133486715Y-81579079D01*
X133640090Y-81268160D01*
X133690002Y-81081980D01*
X133690002Y-83048973D01*
X133685961Y-83090001D01*
X133702083Y-83253689D01*
X133749829Y-83411087D01*
X133820966Y-83544174D01*
X133827366Y-83556147D01*
X133931711Y-83683292D01*
X133963575Y-83709442D01*
X135055000Y-84800868D01*
X135055001Y-86320299D01*
X135015518Y-86324188D01*
X134895820Y-86360498D01*
X134785506Y-86419463D01*
X134688815Y-86498815D01*
X134609463Y-86595506D01*
X134599043Y-86615000D01*
X133883373Y-86615000D01*
X133835537Y-86525506D01*
X133756185Y-86428815D01*
X133659494Y-86349463D01*
X133549180Y-86290498D01*
X133429482Y-86254188D01*
X133305000Y-86241928D01*
X132305000Y-86241928D01*
X132179864Y-86254319D01*
X132060204Y-86290754D01*
X131949951Y-86349834D01*
X131853343Y-86429287D01*
X131774092Y-86526061D01*
X131274092Y-87276061D01*
X131215754Y-87385204D01*
X131179319Y-87504864D01*
X131166928Y-87629333D01*
X131179059Y-87753827D01*
X131215243Y-87873563D01*
X131274092Y-87983939D01*
X131744532Y-88689600D01*
X129522205Y-90911928D01*
X129302500Y-90911928D01*
X129131684Y-90928752D01*
X128967433Y-90978577D01*
X128816058Y-91059488D01*
X128683377Y-91168377D01*
X128574488Y-91301058D01*
X128493577Y-91452433D01*
X128443752Y-91616684D01*
X128426928Y-91787500D01*
X128426928Y-92362500D01*
X128443752Y-92533316D01*
X128493577Y-92697567D01*
X128574488Y-92848942D01*
X128657425Y-92950000D01*
X128624597Y-92990000D01*
X127915403Y-92990000D01*
X127882575Y-92950000D01*
X127965512Y-92848942D01*
X128046423Y-92697567D01*
X128096248Y-92533316D01*
X128113072Y-92362500D01*
X128113072Y-91787500D01*
X128096248Y-91616684D01*
X128046423Y-91452433D01*
X127965512Y-91301058D01*
X127856623Y-91168377D01*
X127723942Y-91059488D01*
X127572567Y-90978577D01*
X127408316Y-90928752D01*
X127237500Y-90911928D01*
X127017797Y-90911928D01*
X124025000Y-87919133D01*
X124025000Y-81869531D01*
X124685074Y-81869531D01*
X124795921Y-82146714D01*
X125106840Y-82300089D01*
X125441705Y-82389860D01*
X125787650Y-82412576D01*
X126131380Y-82367366D01*
X126459685Y-82255966D01*
X126664079Y-82146714D01*
X126774926Y-81869531D01*
X130940075Y-81869531D01*
X131050922Y-82146714D01*
X131361841Y-82300089D01*
X131696706Y-82389860D01*
X132042651Y-82412576D01*
X132386381Y-82367366D01*
X132714686Y-82255966D01*
X132919080Y-82146714D01*
X133029927Y-81869531D01*
X131985001Y-80824605D01*
X130940075Y-81869531D01*
X126774926Y-81869531D01*
X125730000Y-80824605D01*
X124685074Y-81869531D01*
X124025000Y-81869531D01*
X124025000Y-81097559D01*
X124119034Y-81374685D01*
X124228286Y-81579079D01*
X124505469Y-81689926D01*
X125550395Y-80645000D01*
X125909605Y-80645000D01*
X126954531Y-81689926D01*
X127231714Y-81579079D01*
X127385089Y-81268160D01*
X127474860Y-80933295D01*
X127490004Y-80702650D01*
X130217425Y-80702650D01*
X130262635Y-81046380D01*
X130374035Y-81374685D01*
X130483287Y-81579079D01*
X130760470Y-81689926D01*
X131805396Y-80645000D01*
X130760470Y-79600074D01*
X130483287Y-79710921D01*
X130329912Y-80021840D01*
X130240141Y-80356705D01*
X130217425Y-80702650D01*
X127490004Y-80702650D01*
X127497576Y-80587350D01*
X127452366Y-80243620D01*
X127340966Y-79915315D01*
X127231714Y-79710921D01*
X126954531Y-79600074D01*
X125909605Y-80645000D01*
X125550395Y-80645000D01*
X124505469Y-79600074D01*
X124228286Y-79710921D01*
X124074911Y-80021840D01*
X124025000Y-80208019D01*
X124025000Y-79543536D01*
X124209182Y-79420469D01*
X124685074Y-79420469D01*
X125730000Y-80465395D01*
X126774926Y-79420469D01*
X130940075Y-79420469D01*
X131985001Y-80465395D01*
X133029927Y-79420469D01*
X132919080Y-79143286D01*
X132608161Y-78989911D01*
X132273296Y-78900140D01*
X131927351Y-78877424D01*
X131583621Y-78922634D01*
X131255316Y-79034034D01*
X131050922Y-79143286D01*
X130940075Y-79420469D01*
X126774926Y-79420469D01*
X126664079Y-79143286D01*
X126353160Y-78989911D01*
X126018295Y-78900140D01*
X125672350Y-78877424D01*
X125328620Y-78922634D01*
X125000315Y-79034034D01*
X124795921Y-79143286D01*
X124685074Y-79420469D01*
X124209182Y-79420469D01*
X124248188Y-79394406D01*
X124479406Y-79163188D01*
X124661073Y-78891305D01*
X124786207Y-78589204D01*
X124850000Y-78268496D01*
X124850000Y-77941504D01*
X124786207Y-77620796D01*
X124661073Y-77318695D01*
X124479406Y-77046812D01*
X124248188Y-76815594D01*
X124209183Y-76789531D01*
X124685074Y-76789531D01*
X124795921Y-77066714D01*
X125106840Y-77220089D01*
X125441705Y-77309860D01*
X125787650Y-77332576D01*
X126131380Y-77287366D01*
X126459685Y-77175966D01*
X126664079Y-77066714D01*
X126774926Y-76789531D01*
X130940075Y-76789531D01*
X131050922Y-77066714D01*
X131361841Y-77220089D01*
X131696706Y-77309860D01*
X132042651Y-77332576D01*
X132386381Y-77287366D01*
X132714686Y-77175966D01*
X132919080Y-77066714D01*
X133029927Y-76789531D01*
X131985001Y-75744605D01*
X130940075Y-76789531D01*
X126774926Y-76789531D01*
X125730000Y-75744605D01*
X124685074Y-76789531D01*
X124209183Y-76789531D01*
X123976305Y-76633927D01*
X123674204Y-76508793D01*
X123353496Y-76445000D01*
X123026504Y-76445000D01*
X122705796Y-76508793D01*
X122403695Y-76633927D01*
X122131812Y-76815594D01*
X121900594Y-77046812D01*
X121718927Y-77318695D01*
X121593793Y-77620796D01*
X121530000Y-77941504D01*
X121530000Y-78268496D01*
X121593793Y-78589204D01*
X121718927Y-78891305D01*
X121900594Y-79163188D01*
X122131812Y-79394406D01*
X122355001Y-79543537D01*
X122355001Y-80192442D01*
X122260966Y-79915315D01*
X122151714Y-79710921D01*
X121874531Y-79600074D01*
X120829605Y-80645000D01*
X121874531Y-81689926D01*
X122151714Y-81579079D01*
X122305089Y-81268160D01*
X122355001Y-81081980D01*
X122355000Y-87430000D01*
X122265868Y-87430000D01*
X120753764Y-85917897D01*
X120765000Y-85861411D01*
X120765000Y-85588589D01*
X120711775Y-85321011D01*
X120607371Y-85068957D01*
X120455799Y-84842114D01*
X120262886Y-84649201D01*
X120036043Y-84497629D01*
X119783989Y-84393225D01*
X119516411Y-84340000D01*
X119243589Y-84340000D01*
X118976011Y-84393225D01*
X118723957Y-84497629D01*
X118497114Y-84649201D01*
X118304201Y-84842114D01*
X118152629Y-85068957D01*
X118048225Y-85321011D01*
X117995000Y-85588589D01*
X115675186Y-85588589D01*
X115872740Y-85554577D01*
X116081440Y-85474387D01*
X116133450Y-85446588D01*
X116168561Y-85233166D01*
X115570000Y-84634605D01*
X114971439Y-85233166D01*
X110515000Y-85233166D01*
X110515000Y-84537406D01*
X114432489Y-84537406D01*
X114470423Y-84757740D01*
X114550613Y-84966440D01*
X114578412Y-85018450D01*
X114791834Y-85053561D01*
X115390395Y-84455000D01*
X115749605Y-84455000D01*
X116348166Y-85053561D01*
X116561588Y-85018450D01*
X116652458Y-84814174D01*
X116701731Y-84596095D01*
X116707511Y-84372594D01*
X116669577Y-84152260D01*
X116589387Y-83943560D01*
X116561588Y-83891550D01*
X116348166Y-83856439D01*
X115749605Y-84455000D01*
X115390395Y-84455000D01*
X114791834Y-83856439D01*
X114578412Y-83891550D01*
X114487542Y-84095826D01*
X114438269Y-84313905D01*
X114432489Y-84537406D01*
X110515000Y-84537406D01*
X110515000Y-83676834D01*
X114971439Y-83676834D01*
X115570000Y-84275395D01*
X116168561Y-83676834D01*
X116133450Y-83463412D01*
X115929174Y-83372542D01*
X115711095Y-83323269D01*
X115487594Y-83317489D01*
X115267260Y-83355423D01*
X115058560Y-83435613D01*
X115006550Y-83463412D01*
X114971439Y-83676834D01*
X110515000Y-83676834D01*
X110515000Y-81869531D01*
X119605074Y-81869531D01*
X119715921Y-82146714D01*
X120026840Y-82300089D01*
X120361705Y-82389860D01*
X120707650Y-82412576D01*
X121051380Y-82367366D01*
X121379685Y-82255966D01*
X121584079Y-82146714D01*
X121694926Y-81869531D01*
X120650000Y-80824605D01*
X119605074Y-81869531D01*
X110515000Y-81869531D01*
X110515000Y-80702650D01*
X118882424Y-80702650D01*
X118927634Y-81046380D01*
X119039034Y-81374685D01*
X119148286Y-81579079D01*
X119425469Y-81689926D01*
X120470395Y-80645000D01*
X119425469Y-79600074D01*
X119148286Y-79710921D01*
X118994911Y-80021840D01*
X118905140Y-80356705D01*
X118882424Y-80702650D01*
X110515000Y-80702650D01*
X110515000Y-76501607D01*
X110915000Y-76501607D01*
X110915000Y-77168393D01*
X111045083Y-77822368D01*
X111300252Y-78438399D01*
X111670698Y-78992812D01*
X112142188Y-79464302D01*
X112696601Y-79834748D01*
X113312632Y-80089917D01*
X113966607Y-80220000D01*
X114633393Y-80220000D01*
X115287368Y-80089917D01*
X115903399Y-79834748D01*
X116457812Y-79464302D01*
X116501645Y-79420469D01*
X119605074Y-79420469D01*
X120650000Y-80465395D01*
X121694926Y-79420469D01*
X121584079Y-79143286D01*
X121273160Y-78989911D01*
X120938295Y-78900140D01*
X120592350Y-78877424D01*
X120248620Y-78922634D01*
X119920315Y-79034034D01*
X119715921Y-79143286D01*
X119605074Y-79420469D01*
X116501645Y-79420469D01*
X116929302Y-78992812D01*
X117299748Y-78438399D01*
X117554917Y-77822368D01*
X117685000Y-77168393D01*
X117685000Y-76789531D01*
X119605074Y-76789531D01*
X119715921Y-77066714D01*
X120026840Y-77220089D01*
X120361705Y-77309860D01*
X120707650Y-77332576D01*
X121051380Y-77287366D01*
X121379685Y-77175966D01*
X121584079Y-77066714D01*
X121694926Y-76789531D01*
X120650000Y-75744605D01*
X119605074Y-76789531D01*
X117685000Y-76789531D01*
X117685000Y-76501607D01*
X117554917Y-75847632D01*
X117461727Y-75622650D01*
X118882424Y-75622650D01*
X118927634Y-75966380D01*
X119039034Y-76294685D01*
X119148286Y-76499079D01*
X119425469Y-76609926D01*
X120470395Y-75565000D01*
X120829605Y-75565000D01*
X121874531Y-76609926D01*
X122151714Y-76499079D01*
X122305089Y-76188160D01*
X122394860Y-75853295D01*
X122410004Y-75622650D01*
X123962424Y-75622650D01*
X124007634Y-75966380D01*
X124119034Y-76294685D01*
X124228286Y-76499079D01*
X124505469Y-76609926D01*
X125550395Y-75565000D01*
X125909605Y-75565000D01*
X126954531Y-76609926D01*
X127231714Y-76499079D01*
X127385089Y-76188160D01*
X127474860Y-75853295D01*
X127490004Y-75622650D01*
X130217425Y-75622650D01*
X130262635Y-75966380D01*
X130374035Y-76294685D01*
X130483287Y-76499079D01*
X130760470Y-76609926D01*
X131805396Y-75565000D01*
X132164606Y-75565000D01*
X133209532Y-76609926D01*
X133486715Y-76499079D01*
X133640090Y-76188160D01*
X133729861Y-75853295D01*
X133745005Y-75622650D01*
X135297425Y-75622650D01*
X135342635Y-75966380D01*
X135454035Y-76294685D01*
X135563287Y-76499079D01*
X135840470Y-76609926D01*
X136885396Y-75565000D01*
X137244606Y-75565000D01*
X138289532Y-76609926D01*
X138566715Y-76499079D01*
X138720090Y-76188160D01*
X138809861Y-75853295D01*
X138825005Y-75622650D01*
X146822424Y-75622650D01*
X146867634Y-75966380D01*
X146979034Y-76294685D01*
X147088286Y-76499079D01*
X147365469Y-76609926D01*
X148410395Y-75565000D01*
X148769605Y-75565000D01*
X149814531Y-76609926D01*
X150091714Y-76499079D01*
X150245089Y-76188160D01*
X150334860Y-75853295D01*
X150350004Y-75622650D01*
X151902424Y-75622650D01*
X151947634Y-75966380D01*
X152059034Y-76294685D01*
X152168286Y-76499079D01*
X152445469Y-76609926D01*
X153490395Y-75565000D01*
X153849605Y-75565000D01*
X154894531Y-76609926D01*
X155171714Y-76499079D01*
X155325089Y-76188160D01*
X155414860Y-75853295D01*
X155430004Y-75622650D01*
X158252424Y-75622650D01*
X158297634Y-75966380D01*
X158409034Y-76294685D01*
X158518286Y-76499079D01*
X158795469Y-76609926D01*
X159840395Y-75565000D01*
X160199605Y-75565000D01*
X161244531Y-76609926D01*
X161521714Y-76499079D01*
X161675089Y-76188160D01*
X161764860Y-75853295D01*
X161780004Y-75622650D01*
X163332424Y-75622650D01*
X163377634Y-75966380D01*
X163489034Y-76294685D01*
X163598286Y-76499079D01*
X163875469Y-76609926D01*
X164920395Y-75565000D01*
X165279605Y-75565000D01*
X166324531Y-76609926D01*
X166595392Y-76501607D01*
X168065000Y-76501607D01*
X168065000Y-77168393D01*
X168195083Y-77822368D01*
X168450252Y-78438399D01*
X168820698Y-78992812D01*
X169292188Y-79464302D01*
X169846601Y-79834748D01*
X170462632Y-80089917D01*
X171116607Y-80220000D01*
X171783393Y-80220000D01*
X172437368Y-80089917D01*
X173053399Y-79834748D01*
X173607812Y-79464302D01*
X174079302Y-78992812D01*
X174449748Y-78438399D01*
X174704917Y-77822368D01*
X174835000Y-77168393D01*
X174835000Y-76501607D01*
X174704917Y-75847632D01*
X174449748Y-75231601D01*
X174079302Y-74677188D01*
X173607812Y-74205698D01*
X173053399Y-73835252D01*
X172437368Y-73580083D01*
X171783393Y-73450000D01*
X171116607Y-73450000D01*
X170462632Y-73580083D01*
X169846601Y-73835252D01*
X169292188Y-74205698D01*
X168820698Y-74677188D01*
X168450252Y-75231601D01*
X168195083Y-75847632D01*
X168065000Y-76501607D01*
X166595392Y-76501607D01*
X166601714Y-76499079D01*
X166755089Y-76188160D01*
X166844860Y-75853295D01*
X166867576Y-75507350D01*
X166822366Y-75163620D01*
X166710966Y-74835315D01*
X166601714Y-74630921D01*
X166324531Y-74520074D01*
X165279605Y-75565000D01*
X164920395Y-75565000D01*
X163875469Y-74520074D01*
X163598286Y-74630921D01*
X163444911Y-74941840D01*
X163355140Y-75276705D01*
X163332424Y-75622650D01*
X161780004Y-75622650D01*
X161787576Y-75507350D01*
X161742366Y-75163620D01*
X161630966Y-74835315D01*
X161521714Y-74630921D01*
X161244531Y-74520074D01*
X160199605Y-75565000D01*
X159840395Y-75565000D01*
X158795469Y-74520074D01*
X158518286Y-74630921D01*
X158364911Y-74941840D01*
X158275140Y-75276705D01*
X158252424Y-75622650D01*
X155430004Y-75622650D01*
X155437576Y-75507350D01*
X155392366Y-75163620D01*
X155280966Y-74835315D01*
X155171714Y-74630921D01*
X154894531Y-74520074D01*
X153849605Y-75565000D01*
X153490395Y-75565000D01*
X152445469Y-74520074D01*
X152168286Y-74630921D01*
X152014911Y-74941840D01*
X151925140Y-75276705D01*
X151902424Y-75622650D01*
X150350004Y-75622650D01*
X150357576Y-75507350D01*
X150312366Y-75163620D01*
X150200966Y-74835315D01*
X150091714Y-74630921D01*
X149814531Y-74520074D01*
X148769605Y-75565000D01*
X148410395Y-75565000D01*
X147365469Y-74520074D01*
X147088286Y-74630921D01*
X146934911Y-74941840D01*
X146845140Y-75276705D01*
X146822424Y-75622650D01*
X138825005Y-75622650D01*
X138832577Y-75507350D01*
X138787367Y-75163620D01*
X138675967Y-74835315D01*
X138566715Y-74630921D01*
X138289532Y-74520074D01*
X137244606Y-75565000D01*
X136885396Y-75565000D01*
X135840470Y-74520074D01*
X135563287Y-74630921D01*
X135409912Y-74941840D01*
X135320141Y-75276705D01*
X135297425Y-75622650D01*
X133745005Y-75622650D01*
X133752577Y-75507350D01*
X133707367Y-75163620D01*
X133595967Y-74835315D01*
X133486715Y-74630921D01*
X133209532Y-74520074D01*
X132164606Y-75565000D01*
X131805396Y-75565000D01*
X130760470Y-74520074D01*
X130483287Y-74630921D01*
X130329912Y-74941840D01*
X130240141Y-75276705D01*
X130217425Y-75622650D01*
X127490004Y-75622650D01*
X127497576Y-75507350D01*
X127452366Y-75163620D01*
X127340966Y-74835315D01*
X127231714Y-74630921D01*
X126954531Y-74520074D01*
X125909605Y-75565000D01*
X125550395Y-75565000D01*
X124505469Y-74520074D01*
X124228286Y-74630921D01*
X124074911Y-74941840D01*
X123985140Y-75276705D01*
X123962424Y-75622650D01*
X122410004Y-75622650D01*
X122417576Y-75507350D01*
X122372366Y-75163620D01*
X122260966Y-74835315D01*
X122151714Y-74630921D01*
X121874531Y-74520074D01*
X120829605Y-75565000D01*
X120470395Y-75565000D01*
X119425469Y-74520074D01*
X119148286Y-74630921D01*
X118994911Y-74941840D01*
X118905140Y-75276705D01*
X118882424Y-75622650D01*
X117461727Y-75622650D01*
X117299748Y-75231601D01*
X116929302Y-74677188D01*
X116592583Y-74340469D01*
X119605074Y-74340469D01*
X120650000Y-75385395D01*
X121694926Y-74340469D01*
X124685074Y-74340469D01*
X125730000Y-75385395D01*
X126774926Y-74340469D01*
X130940075Y-74340469D01*
X131985001Y-75385395D01*
X133029927Y-74340469D01*
X136020075Y-74340469D01*
X137065001Y-75385395D01*
X138109927Y-74340469D01*
X147545074Y-74340469D01*
X148590000Y-75385395D01*
X149634926Y-74340469D01*
X152625074Y-74340469D01*
X153670000Y-75385395D01*
X154714926Y-74340469D01*
X158975074Y-74340469D01*
X160020000Y-75385395D01*
X161064926Y-74340469D01*
X164055074Y-74340469D01*
X165100000Y-75385395D01*
X166144926Y-74340469D01*
X166034079Y-74063286D01*
X165723160Y-73909911D01*
X165388295Y-73820140D01*
X165042350Y-73797424D01*
X164698620Y-73842634D01*
X164370315Y-73954034D01*
X164165921Y-74063286D01*
X164055074Y-74340469D01*
X161064926Y-74340469D01*
X160954079Y-74063286D01*
X160643160Y-73909911D01*
X160308295Y-73820140D01*
X159962350Y-73797424D01*
X159618620Y-73842634D01*
X159290315Y-73954034D01*
X159085921Y-74063286D01*
X158975074Y-74340469D01*
X154714926Y-74340469D01*
X154604079Y-74063286D01*
X154293160Y-73909911D01*
X153958295Y-73820140D01*
X153612350Y-73797424D01*
X153268620Y-73842634D01*
X152940315Y-73954034D01*
X152735921Y-74063286D01*
X152625074Y-74340469D01*
X149634926Y-74340469D01*
X149524079Y-74063286D01*
X149213160Y-73909911D01*
X148878295Y-73820140D01*
X148532350Y-73797424D01*
X148188620Y-73842634D01*
X147860315Y-73954034D01*
X147655921Y-74063286D01*
X147545074Y-74340469D01*
X138109927Y-74340469D01*
X137999080Y-74063286D01*
X137688161Y-73909911D01*
X137353296Y-73820140D01*
X137007351Y-73797424D01*
X136663621Y-73842634D01*
X136335316Y-73954034D01*
X136130922Y-74063286D01*
X136020075Y-74340469D01*
X133029927Y-74340469D01*
X132919080Y-74063286D01*
X132608161Y-73909911D01*
X132273296Y-73820140D01*
X131927351Y-73797424D01*
X131583621Y-73842634D01*
X131255316Y-73954034D01*
X131050922Y-74063286D01*
X130940075Y-74340469D01*
X126774926Y-74340469D01*
X126664079Y-74063286D01*
X126353160Y-73909911D01*
X126018295Y-73820140D01*
X125672350Y-73797424D01*
X125328620Y-73842634D01*
X125000315Y-73954034D01*
X124795921Y-74063286D01*
X124685074Y-74340469D01*
X121694926Y-74340469D01*
X121584079Y-74063286D01*
X121273160Y-73909911D01*
X120938295Y-73820140D01*
X120592350Y-73797424D01*
X120248620Y-73842634D01*
X119920315Y-73954034D01*
X119715921Y-74063286D01*
X119605074Y-74340469D01*
X116592583Y-74340469D01*
X116457812Y-74205698D01*
X115903399Y-73835252D01*
X115287368Y-73580083D01*
X114633393Y-73450000D01*
X113966607Y-73450000D01*
X113312632Y-73580083D01*
X112696601Y-73835252D01*
X112142188Y-74205698D01*
X111670698Y-74677188D01*
X111300252Y-75231601D01*
X111045083Y-75847632D01*
X110915000Y-76501607D01*
X110515000Y-76501607D01*
X110515000Y-72415000D01*
X175235001Y-72415000D01*
X175235000Y-111100000D01*
G36*
X134501928Y-88400000D02*
G01*
X134501928Y-89400000D01*
X134514188Y-89524482D01*
X134550498Y-89644180D01*
X134609463Y-89754494D01*
X134688815Y-89851185D01*
X134785506Y-89930537D01*
X134895820Y-89989502D01*
X135015518Y-90025812D01*
X135062825Y-90030471D01*
X135063574Y-90038072D01*
X135067082Y-90073688D01*
X135114828Y-90231086D01*
X135192364Y-90376145D01*
X135296709Y-90503291D01*
X135328579Y-90529446D01*
X135711363Y-90912231D01*
X135540750Y-90915000D01*
X135382000Y-91073750D01*
X135382000Y-91948000D01*
X136206250Y-91948000D01*
X136365000Y-91789250D01*
X136367832Y-91568699D01*
X137435559Y-92636427D01*
X137461709Y-92668291D01*
X137588854Y-92772636D01*
X137629782Y-92794513D01*
X137576916Y-92893418D01*
X137547619Y-92990000D01*
X136231398Y-92990000D01*
X136260537Y-92954494D01*
X136319502Y-92844180D01*
X136355812Y-92724482D01*
X136368072Y-92600000D01*
X136365000Y-92360750D01*
X136206250Y-92202000D01*
X135382000Y-92202000D01*
X135382000Y-92222000D01*
X135128000Y-92222000D01*
X135128000Y-92202000D01*
X134303750Y-92202000D01*
X134145000Y-92360750D01*
X134141928Y-92600000D01*
X134154188Y-92724482D01*
X134190498Y-92844180D01*
X134249463Y-92954494D01*
X134278602Y-92990000D01*
X132995403Y-92990000D01*
X132962575Y-92950000D01*
X133045512Y-92848942D01*
X133126423Y-92697567D01*
X133176248Y-92533316D01*
X133193072Y-92362500D01*
X133193072Y-91787500D01*
X133176248Y-91616684D01*
X133156020Y-91550000D01*
X134141928Y-91550000D01*
X134145000Y-91789250D01*
X134303750Y-91948000D01*
X135128000Y-91948000D01*
X135128000Y-91073750D01*
X134969250Y-90915000D01*
X134780000Y-90911928D01*
X134655518Y-90924188D01*
X134535820Y-90960498D01*
X134425506Y-91019463D01*
X134328815Y-91098815D01*
X134249463Y-91195506D01*
X134190498Y-91305820D01*
X134154188Y-91425518D01*
X134141928Y-91550000D01*
X133156020Y-91550000D01*
X133126423Y-91452433D01*
X133045512Y-91301058D01*
X132936623Y-91168377D01*
X132803942Y-91059488D01*
X132652567Y-90978577D01*
X132488316Y-90928752D01*
X132317500Y-90911928D01*
X131883940Y-90911928D01*
X133366428Y-89429440D01*
X133398291Y-89403291D01*
X133502636Y-89276146D01*
X133580172Y-89131087D01*
X133627918Y-88973689D01*
X133632729Y-88924843D01*
X133659494Y-88910537D01*
X133756185Y-88831185D01*
X133835537Y-88734494D01*
X133894502Y-88624180D01*
X133930812Y-88504482D01*
X133943072Y-88380000D01*
X133943072Y-88285000D01*
X134513254Y-88285000D01*
X134501928Y-88400000D01*
X134501928Y-88400000D01*
G37*
X134501928Y-88400000D02*
X134501928Y-89400000D01*
X134514188Y-89524482D01*
X134550498Y-89644180D01*
X134609463Y-89754494D01*
X134688815Y-89851185D01*
X134785506Y-89930537D01*
X134895820Y-89989502D01*
X135015518Y-90025812D01*
X135062825Y-90030471D01*
X135063574Y-90038072D01*
X135067082Y-90073688D01*
X135114828Y-90231086D01*
X135192364Y-90376145D01*
X135296709Y-90503291D01*
X135328579Y-90529446D01*
X135711363Y-90912231D01*
X135540750Y-90915000D01*
X135382000Y-91073750D01*
X135382000Y-91948000D01*
X136206250Y-91948000D01*
X136365000Y-91789250D01*
X136367832Y-91568699D01*
X137435559Y-92636427D01*
X137461709Y-92668291D01*
X137588854Y-92772636D01*
X137629782Y-92794513D01*
X137576916Y-92893418D01*
X137547619Y-92990000D01*
X136231398Y-92990000D01*
X136260537Y-92954494D01*
X136319502Y-92844180D01*
X136355812Y-92724482D01*
X136368072Y-92600000D01*
X136365000Y-92360750D01*
X136206250Y-92202000D01*
X135382000Y-92202000D01*
X135382000Y-92222000D01*
X135128000Y-92222000D01*
X135128000Y-92202000D01*
X134303750Y-92202000D01*
X134145000Y-92360750D01*
X134141928Y-92600000D01*
X134154188Y-92724482D01*
X134190498Y-92844180D01*
X134249463Y-92954494D01*
X134278602Y-92990000D01*
X132995403Y-92990000D01*
X132962575Y-92950000D01*
X133045512Y-92848942D01*
X133126423Y-92697567D01*
X133176248Y-92533316D01*
X133193072Y-92362500D01*
X133193072Y-91787500D01*
X133176248Y-91616684D01*
X133156020Y-91550000D01*
X134141928Y-91550000D01*
X134145000Y-91789250D01*
X134303750Y-91948000D01*
X135128000Y-91948000D01*
X135128000Y-91073750D01*
X134969250Y-90915000D01*
X134780000Y-90911928D01*
X134655518Y-90924188D01*
X134535820Y-90960498D01*
X134425506Y-91019463D01*
X134328815Y-91098815D01*
X134249463Y-91195506D01*
X134190498Y-91305820D01*
X134154188Y-91425518D01*
X134141928Y-91550000D01*
X133156020Y-91550000D01*
X133126423Y-91452433D01*
X133045512Y-91301058D01*
X132936623Y-91168377D01*
X132803942Y-91059488D01*
X132652567Y-90978577D01*
X132488316Y-90928752D01*
X132317500Y-90911928D01*
X131883940Y-90911928D01*
X133366428Y-89429440D01*
X133398291Y-89403291D01*
X133502636Y-89276146D01*
X133580172Y-89131087D01*
X133627918Y-88973689D01*
X133632729Y-88924843D01*
X133659494Y-88910537D01*
X133756185Y-88831185D01*
X133835537Y-88734494D01*
X133894502Y-88624180D01*
X133930812Y-88504482D01*
X133943072Y-88380000D01*
X133943072Y-88285000D01*
X134513254Y-88285000D01*
X134501928Y-88400000D01*
M02*
