G04 #@! TF.GenerationSoftware,KiCad,Pcbnew,(5.1.2)-2*
G04 #@! TF.CreationDate,2019-07-06T17:30:01+08:00*
G04 #@! TF.ProjectId,active_filter,61637469-7665-45f6-9669-6c7465722e6b,rev?*
G04 #@! TF.SameCoordinates,Original*
G04 #@! TF.FileFunction,Soldermask,Top*
G04 #@! TF.FilePolarity,Negative*
%FSLAX46Y46*%
G04 Gerber Fmt 4.6, Leading zero omitted, Abs format (unit mm)*
G04 Created by KiCad (PCBNEW (5.1.2)-2) date 2019-07-06 17:30:01*
%MOMM*%
%LPD*%
G04 APERTURE LIST*
%ADD10C,0.100000*%
G04 APERTURE END LIST*
D10*
G36*
X148660997Y-107133051D02*
G01*
X148694652Y-107143261D01*
X148725665Y-107159838D01*
X148752851Y-107182149D01*
X148775162Y-107209335D01*
X148791739Y-107240348D01*
X148801949Y-107274003D01*
X148806000Y-107315138D01*
X148806000Y-109644862D01*
X148801949Y-109685997D01*
X148791739Y-109719652D01*
X148775162Y-109750665D01*
X148752851Y-109777851D01*
X148725665Y-109800162D01*
X148694652Y-109816739D01*
X148660997Y-109826949D01*
X148619862Y-109831000D01*
X147290138Y-109831000D01*
X147249003Y-109826949D01*
X147215348Y-109816739D01*
X147184335Y-109800162D01*
X147157149Y-109777851D01*
X147134838Y-109750665D01*
X147118261Y-109719652D01*
X147108051Y-109685997D01*
X147104000Y-109644862D01*
X147104000Y-107315138D01*
X147108051Y-107274003D01*
X147118261Y-107240348D01*
X147134838Y-107209335D01*
X147157149Y-107182149D01*
X147184335Y-107159838D01*
X147215348Y-107143261D01*
X147249003Y-107133051D01*
X147290138Y-107129000D01*
X148619862Y-107129000D01*
X148660997Y-107133051D01*
X148660997Y-107133051D01*
G37*
G36*
X132150997Y-107133051D02*
G01*
X132184652Y-107143261D01*
X132215665Y-107159838D01*
X132242851Y-107182149D01*
X132265162Y-107209335D01*
X132281739Y-107240348D01*
X132291949Y-107274003D01*
X132296000Y-107315138D01*
X132296000Y-109644862D01*
X132291949Y-109685997D01*
X132281739Y-109719652D01*
X132265162Y-109750665D01*
X132242851Y-109777851D01*
X132215665Y-109800162D01*
X132184652Y-109816739D01*
X132150997Y-109826949D01*
X132109862Y-109831000D01*
X130780138Y-109831000D01*
X130739003Y-109826949D01*
X130705348Y-109816739D01*
X130674335Y-109800162D01*
X130647149Y-109777851D01*
X130624838Y-109750665D01*
X130608261Y-109719652D01*
X130598051Y-109685997D01*
X130594000Y-109644862D01*
X130594000Y-107315138D01*
X130598051Y-107274003D01*
X130608261Y-107240348D01*
X130624838Y-107209335D01*
X130647149Y-107182149D01*
X130674335Y-107159838D01*
X130705348Y-107143261D01*
X130739003Y-107133051D01*
X130780138Y-107129000D01*
X132109862Y-107129000D01*
X132150997Y-107133051D01*
X132150997Y-107133051D01*
G37*
G36*
X115752021Y-103986640D02*
G01*
X116261769Y-104197785D01*
X116261771Y-104197786D01*
X116720534Y-104504321D01*
X117110679Y-104894466D01*
X117417214Y-105353229D01*
X117417215Y-105353231D01*
X117628360Y-105862979D01*
X117736000Y-106404124D01*
X117736000Y-106955876D01*
X117628360Y-107497021D01*
X117417215Y-108006769D01*
X117417214Y-108006771D01*
X117110679Y-108465534D01*
X116720534Y-108855679D01*
X116261771Y-109162214D01*
X116261770Y-109162215D01*
X116261769Y-109162215D01*
X115752021Y-109373360D01*
X115210876Y-109481000D01*
X114659124Y-109481000D01*
X114117979Y-109373360D01*
X113608231Y-109162215D01*
X113608230Y-109162215D01*
X113608229Y-109162214D01*
X113149466Y-108855679D01*
X112759321Y-108465534D01*
X112452786Y-108006771D01*
X112452785Y-108006769D01*
X112241640Y-107497021D01*
X112134000Y-106955876D01*
X112134000Y-106404124D01*
X112241640Y-105862979D01*
X112452785Y-105353231D01*
X112452786Y-105353229D01*
X112759321Y-104894466D01*
X113149466Y-104504321D01*
X113608229Y-104197786D01*
X113608231Y-104197785D01*
X114117979Y-103986640D01*
X114659124Y-103879000D01*
X115210876Y-103879000D01*
X115752021Y-103986640D01*
X115752021Y-103986640D01*
G37*
G36*
X171632021Y-103986640D02*
G01*
X172141769Y-104197785D01*
X172141771Y-104197786D01*
X172600534Y-104504321D01*
X172990679Y-104894466D01*
X173297214Y-105353229D01*
X173297215Y-105353231D01*
X173508360Y-105862979D01*
X173616000Y-106404124D01*
X173616000Y-106955876D01*
X173508360Y-107497021D01*
X173297215Y-108006769D01*
X173297214Y-108006771D01*
X172990679Y-108465534D01*
X172600534Y-108855679D01*
X172141771Y-109162214D01*
X172141770Y-109162215D01*
X172141769Y-109162215D01*
X171632021Y-109373360D01*
X171090876Y-109481000D01*
X170539124Y-109481000D01*
X169997979Y-109373360D01*
X169488231Y-109162215D01*
X169488230Y-109162215D01*
X169488229Y-109162214D01*
X169029466Y-108855679D01*
X168639321Y-108465534D01*
X168332786Y-108006771D01*
X168332785Y-108006769D01*
X168121640Y-107497021D01*
X168014000Y-106955876D01*
X168014000Y-106404124D01*
X168121640Y-105862979D01*
X168332785Y-105353231D01*
X168332786Y-105353229D01*
X168639321Y-104894466D01*
X169029466Y-104504321D01*
X169488229Y-104197786D01*
X169488231Y-104197785D01*
X169997979Y-103986640D01*
X170539124Y-103879000D01*
X171090876Y-103879000D01*
X171632021Y-103986640D01*
X171632021Y-103986640D01*
G37*
G36*
X139810443Y-105785519D02*
G01*
X139876627Y-105792037D01*
X140046466Y-105843557D01*
X140202991Y-105927222D01*
X140238729Y-105956552D01*
X140340186Y-106039814D01*
X140400091Y-106112810D01*
X140452778Y-106177009D01*
X140536443Y-106333534D01*
X140587963Y-106503373D01*
X140605359Y-106680000D01*
X140587963Y-106856627D01*
X140536443Y-107026466D01*
X140452778Y-107182991D01*
X140431158Y-107209335D01*
X140340186Y-107320186D01*
X140249100Y-107394937D01*
X140202991Y-107432778D01*
X140046466Y-107516443D01*
X139876627Y-107567963D01*
X139810443Y-107574481D01*
X139744260Y-107581000D01*
X139655740Y-107581000D01*
X139589557Y-107574481D01*
X139523373Y-107567963D01*
X139353534Y-107516443D01*
X139197009Y-107432778D01*
X139150900Y-107394937D01*
X139059814Y-107320186D01*
X138968842Y-107209335D01*
X138947222Y-107182991D01*
X138863557Y-107026466D01*
X138812037Y-106856627D01*
X138794641Y-106680000D01*
X138812037Y-106503373D01*
X138863557Y-106333534D01*
X138947222Y-106177009D01*
X138999909Y-106112810D01*
X139059814Y-106039814D01*
X139161271Y-105956552D01*
X139197009Y-105927222D01*
X139353534Y-105843557D01*
X139523373Y-105792037D01*
X139589557Y-105785519D01*
X139655740Y-105779000D01*
X139744260Y-105779000D01*
X139810443Y-105785519D01*
X139810443Y-105785519D01*
G37*
G36*
X138061000Y-107581000D02*
G01*
X136259000Y-107581000D01*
X136259000Y-105779000D01*
X138061000Y-105779000D01*
X138061000Y-107581000D01*
X138061000Y-107581000D01*
G37*
G36*
X142350443Y-105785519D02*
G01*
X142416627Y-105792037D01*
X142586466Y-105843557D01*
X142742991Y-105927222D01*
X142778729Y-105956552D01*
X142880186Y-106039814D01*
X142940091Y-106112810D01*
X142992778Y-106177009D01*
X143076443Y-106333534D01*
X143127963Y-106503373D01*
X143145359Y-106680000D01*
X143127963Y-106856627D01*
X143076443Y-107026466D01*
X142992778Y-107182991D01*
X142971158Y-107209335D01*
X142880186Y-107320186D01*
X142789100Y-107394937D01*
X142742991Y-107432778D01*
X142586466Y-107516443D01*
X142416627Y-107567963D01*
X142350443Y-107574481D01*
X142284260Y-107581000D01*
X142195740Y-107581000D01*
X142129557Y-107574481D01*
X142063373Y-107567963D01*
X141893534Y-107516443D01*
X141737009Y-107432778D01*
X141690900Y-107394937D01*
X141599814Y-107320186D01*
X141508842Y-107209335D01*
X141487222Y-107182991D01*
X141403557Y-107026466D01*
X141352037Y-106856627D01*
X141334641Y-106680000D01*
X141352037Y-106503373D01*
X141403557Y-106333534D01*
X141487222Y-106177009D01*
X141539909Y-106112810D01*
X141599814Y-106039814D01*
X141701271Y-105956552D01*
X141737009Y-105927222D01*
X141893534Y-105843557D01*
X142063373Y-105792037D01*
X142129557Y-105785519D01*
X142195740Y-105779000D01*
X142284260Y-105779000D01*
X142350443Y-105785519D01*
X142350443Y-105785519D01*
G37*
G36*
X148660997Y-103533051D02*
G01*
X148694652Y-103543261D01*
X148725665Y-103559838D01*
X148752851Y-103582149D01*
X148775162Y-103609335D01*
X148791739Y-103640348D01*
X148801949Y-103674003D01*
X148806000Y-103715138D01*
X148806000Y-106044862D01*
X148801949Y-106085997D01*
X148791739Y-106119652D01*
X148775162Y-106150665D01*
X148752851Y-106177851D01*
X148725665Y-106200162D01*
X148694652Y-106216739D01*
X148660997Y-106226949D01*
X148619862Y-106231000D01*
X147290138Y-106231000D01*
X147249003Y-106226949D01*
X147215348Y-106216739D01*
X147184335Y-106200162D01*
X147157149Y-106177851D01*
X147134838Y-106150665D01*
X147118261Y-106119652D01*
X147108051Y-106085997D01*
X147104000Y-106044862D01*
X147104000Y-103715138D01*
X147108051Y-103674003D01*
X147118261Y-103640348D01*
X147134838Y-103609335D01*
X147157149Y-103582149D01*
X147184335Y-103559838D01*
X147215348Y-103543261D01*
X147249003Y-103533051D01*
X147290138Y-103529000D01*
X148619862Y-103529000D01*
X148660997Y-103533051D01*
X148660997Y-103533051D01*
G37*
G36*
X132150997Y-103533051D02*
G01*
X132184652Y-103543261D01*
X132215665Y-103559838D01*
X132242851Y-103582149D01*
X132265162Y-103609335D01*
X132281739Y-103640348D01*
X132291949Y-103674003D01*
X132296000Y-103715138D01*
X132296000Y-106044862D01*
X132291949Y-106085997D01*
X132281739Y-106119652D01*
X132265162Y-106150665D01*
X132242851Y-106177851D01*
X132215665Y-106200162D01*
X132184652Y-106216739D01*
X132150997Y-106226949D01*
X132109862Y-106231000D01*
X130780138Y-106231000D01*
X130739003Y-106226949D01*
X130705348Y-106216739D01*
X130674335Y-106200162D01*
X130647149Y-106177851D01*
X130624838Y-106150665D01*
X130608261Y-106119652D01*
X130598051Y-106085997D01*
X130594000Y-106044862D01*
X130594000Y-103715138D01*
X130598051Y-103674003D01*
X130608261Y-103640348D01*
X130624838Y-103609335D01*
X130647149Y-103582149D01*
X130674335Y-103559838D01*
X130705348Y-103543261D01*
X130739003Y-103533051D01*
X130780138Y-103529000D01*
X132109862Y-103529000D01*
X132150997Y-103533051D01*
X132150997Y-103533051D01*
G37*
G36*
X135909499Y-101078445D02*
G01*
X135946995Y-101089820D01*
X135981554Y-101108292D01*
X136011847Y-101133153D01*
X136036708Y-101163446D01*
X136055180Y-101198005D01*
X136066555Y-101235501D01*
X136071000Y-101280638D01*
X136071000Y-101919362D01*
X136066555Y-101964499D01*
X136055180Y-102001995D01*
X136036708Y-102036554D01*
X136011847Y-102066847D01*
X135981554Y-102091708D01*
X135946995Y-102110180D01*
X135909499Y-102121555D01*
X135864362Y-102126000D01*
X135125638Y-102126000D01*
X135080501Y-102121555D01*
X135043005Y-102110180D01*
X135008446Y-102091708D01*
X134978153Y-102066847D01*
X134953292Y-102036554D01*
X134934820Y-102001995D01*
X134923445Y-101964499D01*
X134919000Y-101919362D01*
X134919000Y-101280638D01*
X134923445Y-101235501D01*
X134934820Y-101198005D01*
X134953292Y-101163446D01*
X134978153Y-101133153D01*
X135008446Y-101108292D01*
X135043005Y-101089820D01*
X135080501Y-101078445D01*
X135125638Y-101074000D01*
X135864362Y-101074000D01*
X135909499Y-101078445D01*
X135909499Y-101078445D01*
G37*
G36*
X146704499Y-101078445D02*
G01*
X146741995Y-101089820D01*
X146776554Y-101108292D01*
X146806847Y-101133153D01*
X146831708Y-101163446D01*
X146850180Y-101198005D01*
X146861555Y-101235501D01*
X146866000Y-101280638D01*
X146866000Y-101919362D01*
X146861555Y-101964499D01*
X146850180Y-102001995D01*
X146831708Y-102036554D01*
X146806847Y-102066847D01*
X146776554Y-102091708D01*
X146741995Y-102110180D01*
X146704499Y-102121555D01*
X146659362Y-102126000D01*
X145920638Y-102126000D01*
X145875501Y-102121555D01*
X145838005Y-102110180D01*
X145803446Y-102091708D01*
X145773153Y-102066847D01*
X145748292Y-102036554D01*
X145729820Y-102001995D01*
X145718445Y-101964499D01*
X145714000Y-101919362D01*
X145714000Y-101280638D01*
X145718445Y-101235501D01*
X145729820Y-101198005D01*
X145748292Y-101163446D01*
X145773153Y-101133153D01*
X145803446Y-101108292D01*
X145838005Y-101089820D01*
X145875501Y-101078445D01*
X145920638Y-101074000D01*
X146659362Y-101074000D01*
X146704499Y-101078445D01*
X146704499Y-101078445D01*
G37*
G36*
X144954499Y-101078445D02*
G01*
X144991995Y-101089820D01*
X145026554Y-101108292D01*
X145056847Y-101133153D01*
X145081708Y-101163446D01*
X145100180Y-101198005D01*
X145111555Y-101235501D01*
X145116000Y-101280638D01*
X145116000Y-101919362D01*
X145111555Y-101964499D01*
X145100180Y-102001995D01*
X145081708Y-102036554D01*
X145056847Y-102066847D01*
X145026554Y-102091708D01*
X144991995Y-102110180D01*
X144954499Y-102121555D01*
X144909362Y-102126000D01*
X144170638Y-102126000D01*
X144125501Y-102121555D01*
X144088005Y-102110180D01*
X144053446Y-102091708D01*
X144023153Y-102066847D01*
X143998292Y-102036554D01*
X143979820Y-102001995D01*
X143968445Y-101964499D01*
X143964000Y-101919362D01*
X143964000Y-101280638D01*
X143968445Y-101235501D01*
X143979820Y-101198005D01*
X143998292Y-101163446D01*
X144023153Y-101133153D01*
X144053446Y-101108292D01*
X144088005Y-101089820D01*
X144125501Y-101078445D01*
X144170638Y-101074000D01*
X144909362Y-101074000D01*
X144954499Y-101078445D01*
X144954499Y-101078445D01*
G37*
G36*
X134159499Y-101078445D02*
G01*
X134196995Y-101089820D01*
X134231554Y-101108292D01*
X134261847Y-101133153D01*
X134286708Y-101163446D01*
X134305180Y-101198005D01*
X134316555Y-101235501D01*
X134321000Y-101280638D01*
X134321000Y-101919362D01*
X134316555Y-101964499D01*
X134305180Y-102001995D01*
X134286708Y-102036554D01*
X134261847Y-102066847D01*
X134231554Y-102091708D01*
X134196995Y-102110180D01*
X134159499Y-102121555D01*
X134114362Y-102126000D01*
X133375638Y-102126000D01*
X133330501Y-102121555D01*
X133293005Y-102110180D01*
X133258446Y-102091708D01*
X133228153Y-102066847D01*
X133203292Y-102036554D01*
X133184820Y-102001995D01*
X133173445Y-101964499D01*
X133169000Y-101919362D01*
X133169000Y-101280638D01*
X133173445Y-101235501D01*
X133184820Y-101198005D01*
X133203292Y-101163446D01*
X133228153Y-101133153D01*
X133258446Y-101108292D01*
X133293005Y-101089820D01*
X133330501Y-101078445D01*
X133375638Y-101074000D01*
X134114362Y-101074000D01*
X134159499Y-101078445D01*
X134159499Y-101078445D01*
G37*
G36*
X146704499Y-97903445D02*
G01*
X146741995Y-97914820D01*
X146776554Y-97933292D01*
X146806847Y-97958153D01*
X146831708Y-97988446D01*
X146850180Y-98023005D01*
X146861555Y-98060501D01*
X146866000Y-98105638D01*
X146866000Y-98744362D01*
X146861555Y-98789499D01*
X146850180Y-98826995D01*
X146831708Y-98861554D01*
X146806847Y-98891847D01*
X146776554Y-98916708D01*
X146741995Y-98935180D01*
X146704499Y-98946555D01*
X146659362Y-98951000D01*
X145920638Y-98951000D01*
X145875501Y-98946555D01*
X145838005Y-98935180D01*
X145803446Y-98916708D01*
X145773153Y-98891847D01*
X145748292Y-98861554D01*
X145729820Y-98826995D01*
X145718445Y-98789499D01*
X145714000Y-98744362D01*
X145714000Y-98105638D01*
X145718445Y-98060501D01*
X145729820Y-98023005D01*
X145748292Y-97988446D01*
X145773153Y-97958153D01*
X145803446Y-97933292D01*
X145838005Y-97914820D01*
X145875501Y-97903445D01*
X145920638Y-97899000D01*
X146659362Y-97899000D01*
X146704499Y-97903445D01*
X146704499Y-97903445D01*
G37*
G36*
X144954499Y-97903445D02*
G01*
X144991995Y-97914820D01*
X145026554Y-97933292D01*
X145056847Y-97958153D01*
X145081708Y-97988446D01*
X145100180Y-98023005D01*
X145111555Y-98060501D01*
X145116000Y-98105638D01*
X145116000Y-98744362D01*
X145111555Y-98789499D01*
X145100180Y-98826995D01*
X145081708Y-98861554D01*
X145056847Y-98891847D01*
X145026554Y-98916708D01*
X144991995Y-98935180D01*
X144954499Y-98946555D01*
X144909362Y-98951000D01*
X144170638Y-98951000D01*
X144125501Y-98946555D01*
X144088005Y-98935180D01*
X144053446Y-98916708D01*
X144023153Y-98891847D01*
X143998292Y-98861554D01*
X143979820Y-98826995D01*
X143968445Y-98789499D01*
X143964000Y-98744362D01*
X143964000Y-98105638D01*
X143968445Y-98060501D01*
X143979820Y-98023005D01*
X143998292Y-97988446D01*
X144023153Y-97958153D01*
X144053446Y-97933292D01*
X144088005Y-97914820D01*
X144125501Y-97903445D01*
X144170638Y-97899000D01*
X144909362Y-97899000D01*
X144954499Y-97903445D01*
X144954499Y-97903445D01*
G37*
G36*
X135909499Y-97268445D02*
G01*
X135946995Y-97279820D01*
X135981554Y-97298292D01*
X136011847Y-97323153D01*
X136036708Y-97353446D01*
X136055180Y-97388005D01*
X136066555Y-97425501D01*
X136071000Y-97470638D01*
X136071000Y-98109362D01*
X136066555Y-98154499D01*
X136055180Y-98191995D01*
X136036708Y-98226554D01*
X136011847Y-98256847D01*
X135981554Y-98281708D01*
X135946995Y-98300180D01*
X135909499Y-98311555D01*
X135864362Y-98316000D01*
X135125638Y-98316000D01*
X135080501Y-98311555D01*
X135043005Y-98300180D01*
X135008446Y-98281708D01*
X134978153Y-98256847D01*
X134953292Y-98226554D01*
X134934820Y-98191995D01*
X134923445Y-98154499D01*
X134919000Y-98109362D01*
X134919000Y-97470638D01*
X134923445Y-97425501D01*
X134934820Y-97388005D01*
X134953292Y-97353446D01*
X134978153Y-97323153D01*
X135008446Y-97298292D01*
X135043005Y-97279820D01*
X135080501Y-97268445D01*
X135125638Y-97264000D01*
X135864362Y-97264000D01*
X135909499Y-97268445D01*
X135909499Y-97268445D01*
G37*
G36*
X134159499Y-97268445D02*
G01*
X134196995Y-97279820D01*
X134231554Y-97298292D01*
X134261847Y-97323153D01*
X134286708Y-97353446D01*
X134305180Y-97388005D01*
X134316555Y-97425501D01*
X134321000Y-97470638D01*
X134321000Y-98109362D01*
X134316555Y-98154499D01*
X134305180Y-98191995D01*
X134286708Y-98226554D01*
X134261847Y-98256847D01*
X134231554Y-98281708D01*
X134196995Y-98300180D01*
X134159499Y-98311555D01*
X134114362Y-98316000D01*
X133375638Y-98316000D01*
X133330501Y-98311555D01*
X133293005Y-98300180D01*
X133258446Y-98281708D01*
X133228153Y-98256847D01*
X133203292Y-98226554D01*
X133184820Y-98191995D01*
X133173445Y-98154499D01*
X133169000Y-98109362D01*
X133169000Y-97470638D01*
X133173445Y-97425501D01*
X133184820Y-97388005D01*
X133203292Y-97353446D01*
X133228153Y-97323153D01*
X133258446Y-97298292D01*
X133293005Y-97279820D01*
X133330501Y-97268445D01*
X133375638Y-97264000D01*
X134114362Y-97264000D01*
X134159499Y-97268445D01*
X134159499Y-97268445D01*
G37*
G36*
X152574499Y-94728445D02*
G01*
X152611995Y-94739820D01*
X152646554Y-94758292D01*
X152676847Y-94783153D01*
X152701708Y-94813446D01*
X152720180Y-94848005D01*
X152731555Y-94885501D01*
X152736000Y-94930638D01*
X152736000Y-95569362D01*
X152731555Y-95614499D01*
X152720180Y-95651995D01*
X152701708Y-95686554D01*
X152676847Y-95716847D01*
X152646554Y-95741708D01*
X152611995Y-95760180D01*
X152574499Y-95771555D01*
X152529362Y-95776000D01*
X151790638Y-95776000D01*
X151745501Y-95771555D01*
X151708005Y-95760180D01*
X151673446Y-95741708D01*
X151643153Y-95716847D01*
X151618292Y-95686554D01*
X151599820Y-95651995D01*
X151588445Y-95614499D01*
X151584000Y-95569362D01*
X151584000Y-94930638D01*
X151588445Y-94885501D01*
X151599820Y-94848005D01*
X151618292Y-94813446D01*
X151643153Y-94783153D01*
X151673446Y-94758292D01*
X151708005Y-94739820D01*
X151745501Y-94728445D01*
X151790638Y-94724000D01*
X152529362Y-94724000D01*
X152574499Y-94728445D01*
X152574499Y-94728445D01*
G37*
G36*
X154324499Y-94728445D02*
G01*
X154361995Y-94739820D01*
X154396554Y-94758292D01*
X154426847Y-94783153D01*
X154451708Y-94813446D01*
X154470180Y-94848005D01*
X154481555Y-94885501D01*
X154486000Y-94930638D01*
X154486000Y-95569362D01*
X154481555Y-95614499D01*
X154470180Y-95651995D01*
X154451708Y-95686554D01*
X154426847Y-95716847D01*
X154396554Y-95741708D01*
X154361995Y-95760180D01*
X154324499Y-95771555D01*
X154279362Y-95776000D01*
X153540638Y-95776000D01*
X153495501Y-95771555D01*
X153458005Y-95760180D01*
X153423446Y-95741708D01*
X153393153Y-95716847D01*
X153368292Y-95686554D01*
X153349820Y-95651995D01*
X153338445Y-95614499D01*
X153334000Y-95569362D01*
X153334000Y-94930638D01*
X153338445Y-94885501D01*
X153349820Y-94848005D01*
X153368292Y-94813446D01*
X153393153Y-94783153D01*
X153423446Y-94758292D01*
X153458005Y-94739820D01*
X153495501Y-94728445D01*
X153540638Y-94724000D01*
X154279362Y-94724000D01*
X154324499Y-94728445D01*
X154324499Y-94728445D01*
G37*
G36*
X159114499Y-94043445D02*
G01*
X159151995Y-94054820D01*
X159186554Y-94073292D01*
X159216847Y-94098153D01*
X159241708Y-94128446D01*
X159260180Y-94163005D01*
X159271555Y-94200501D01*
X159276000Y-94245638D01*
X159276000Y-94984362D01*
X159271555Y-95029499D01*
X159260180Y-95066995D01*
X159241708Y-95101554D01*
X159216847Y-95131847D01*
X159186554Y-95156708D01*
X159151995Y-95175180D01*
X159114499Y-95186555D01*
X159069362Y-95191000D01*
X158430638Y-95191000D01*
X158385501Y-95186555D01*
X158348005Y-95175180D01*
X158313446Y-95156708D01*
X158283153Y-95131847D01*
X158258292Y-95101554D01*
X158239820Y-95066995D01*
X158228445Y-95029499D01*
X158224000Y-94984362D01*
X158224000Y-94245638D01*
X158228445Y-94200501D01*
X158239820Y-94163005D01*
X158258292Y-94128446D01*
X158283153Y-94098153D01*
X158313446Y-94073292D01*
X158348005Y-94054820D01*
X158385501Y-94043445D01*
X158430638Y-94039000D01*
X159069362Y-94039000D01*
X159114499Y-94043445D01*
X159114499Y-94043445D01*
G37*
G36*
X140064928Y-94266764D02*
G01*
X140086009Y-94273160D01*
X140105445Y-94283548D01*
X140122476Y-94297524D01*
X140136452Y-94314555D01*
X140146840Y-94333991D01*
X140153236Y-94355072D01*
X140156000Y-94383140D01*
X140156000Y-94846860D01*
X140153236Y-94874928D01*
X140146840Y-94896009D01*
X140136452Y-94915445D01*
X140122476Y-94932476D01*
X140105445Y-94946452D01*
X140086009Y-94956840D01*
X140064928Y-94963236D01*
X140036860Y-94966000D01*
X138223140Y-94966000D01*
X138195072Y-94963236D01*
X138173991Y-94956840D01*
X138154555Y-94946452D01*
X138137524Y-94932476D01*
X138123548Y-94915445D01*
X138113160Y-94896009D01*
X138106764Y-94874928D01*
X138104000Y-94846860D01*
X138104000Y-94383140D01*
X138106764Y-94355072D01*
X138113160Y-94333991D01*
X138123548Y-94314555D01*
X138137524Y-94297524D01*
X138154555Y-94283548D01*
X138173991Y-94273160D01*
X138195072Y-94266764D01*
X138223140Y-94264000D01*
X140036860Y-94264000D01*
X140064928Y-94266764D01*
X140064928Y-94266764D01*
G37*
G36*
X145014928Y-94266764D02*
G01*
X145036009Y-94273160D01*
X145055445Y-94283548D01*
X145072476Y-94297524D01*
X145086452Y-94314555D01*
X145096840Y-94333991D01*
X145103236Y-94355072D01*
X145106000Y-94383140D01*
X145106000Y-94846860D01*
X145103236Y-94874928D01*
X145096840Y-94896009D01*
X145086452Y-94915445D01*
X145072476Y-94932476D01*
X145055445Y-94946452D01*
X145036009Y-94956840D01*
X145014928Y-94963236D01*
X144986860Y-94966000D01*
X143173140Y-94966000D01*
X143145072Y-94963236D01*
X143123991Y-94956840D01*
X143104555Y-94946452D01*
X143087524Y-94932476D01*
X143073548Y-94915445D01*
X143063160Y-94896009D01*
X143056764Y-94874928D01*
X143054000Y-94846860D01*
X143054000Y-94383140D01*
X143056764Y-94355072D01*
X143063160Y-94333991D01*
X143073548Y-94314555D01*
X143087524Y-94297524D01*
X143104555Y-94283548D01*
X143123991Y-94273160D01*
X143145072Y-94266764D01*
X143173140Y-94264000D01*
X144986860Y-94264000D01*
X145014928Y-94266764D01*
X145014928Y-94266764D01*
G37*
G36*
X127364499Y-93253445D02*
G01*
X127401995Y-93264820D01*
X127436554Y-93283292D01*
X127466847Y-93308153D01*
X127491708Y-93338446D01*
X127510180Y-93373005D01*
X127521555Y-93410501D01*
X127526000Y-93455638D01*
X127526000Y-94194362D01*
X127521555Y-94239499D01*
X127510180Y-94276995D01*
X127491708Y-94311554D01*
X127466847Y-94341847D01*
X127436554Y-94366708D01*
X127401995Y-94385180D01*
X127364499Y-94396555D01*
X127319362Y-94401000D01*
X126680638Y-94401000D01*
X126635501Y-94396555D01*
X126598005Y-94385180D01*
X126563446Y-94366708D01*
X126533153Y-94341847D01*
X126508292Y-94311554D01*
X126489820Y-94276995D01*
X126478445Y-94239499D01*
X126474000Y-94194362D01*
X126474000Y-93455638D01*
X126478445Y-93410501D01*
X126489820Y-93373005D01*
X126508292Y-93338446D01*
X126533153Y-93308153D01*
X126563446Y-93283292D01*
X126598005Y-93264820D01*
X126635501Y-93253445D01*
X126680638Y-93249000D01*
X127319362Y-93249000D01*
X127364499Y-93253445D01*
X127364499Y-93253445D01*
G37*
G36*
X132444499Y-93253445D02*
G01*
X132481995Y-93264820D01*
X132516554Y-93283292D01*
X132546847Y-93308153D01*
X132571708Y-93338446D01*
X132590180Y-93373005D01*
X132601555Y-93410501D01*
X132606000Y-93455638D01*
X132606000Y-94194362D01*
X132601555Y-94239499D01*
X132590180Y-94276995D01*
X132571708Y-94311554D01*
X132546847Y-94341847D01*
X132516554Y-94366708D01*
X132481995Y-94385180D01*
X132444499Y-94396555D01*
X132399362Y-94401000D01*
X131760638Y-94401000D01*
X131715501Y-94396555D01*
X131678005Y-94385180D01*
X131643446Y-94366708D01*
X131613153Y-94341847D01*
X131588292Y-94311554D01*
X131569820Y-94276995D01*
X131558445Y-94239499D01*
X131554000Y-94194362D01*
X131554000Y-93455638D01*
X131558445Y-93410501D01*
X131569820Y-93373005D01*
X131588292Y-93338446D01*
X131613153Y-93308153D01*
X131643446Y-93283292D01*
X131678005Y-93264820D01*
X131715501Y-93253445D01*
X131760638Y-93249000D01*
X132399362Y-93249000D01*
X132444499Y-93253445D01*
X132444499Y-93253445D01*
G37*
G36*
X135619499Y-93253445D02*
G01*
X135656995Y-93264820D01*
X135691554Y-93283292D01*
X135721847Y-93308153D01*
X135746708Y-93338446D01*
X135765180Y-93373005D01*
X135776555Y-93410501D01*
X135781000Y-93455638D01*
X135781000Y-94194362D01*
X135776555Y-94239499D01*
X135765180Y-94276995D01*
X135746708Y-94311554D01*
X135721847Y-94341847D01*
X135691554Y-94366708D01*
X135656995Y-94385180D01*
X135619499Y-94396555D01*
X135574362Y-94401000D01*
X134935638Y-94401000D01*
X134890501Y-94396555D01*
X134853005Y-94385180D01*
X134818446Y-94366708D01*
X134788153Y-94341847D01*
X134763292Y-94311554D01*
X134744820Y-94276995D01*
X134733445Y-94239499D01*
X134729000Y-94194362D01*
X134729000Y-93455638D01*
X134733445Y-93410501D01*
X134744820Y-93373005D01*
X134763292Y-93338446D01*
X134788153Y-93308153D01*
X134818446Y-93283292D01*
X134853005Y-93264820D01*
X134890501Y-93253445D01*
X134935638Y-93249000D01*
X135574362Y-93249000D01*
X135619499Y-93253445D01*
X135619499Y-93253445D01*
G37*
G36*
X129904499Y-93253445D02*
G01*
X129941995Y-93264820D01*
X129976554Y-93283292D01*
X130006847Y-93308153D01*
X130031708Y-93338446D01*
X130050180Y-93373005D01*
X130061555Y-93410501D01*
X130066000Y-93455638D01*
X130066000Y-94194362D01*
X130061555Y-94239499D01*
X130050180Y-94276995D01*
X130031708Y-94311554D01*
X130006847Y-94341847D01*
X129976554Y-94366708D01*
X129941995Y-94385180D01*
X129904499Y-94396555D01*
X129859362Y-94401000D01*
X129220638Y-94401000D01*
X129175501Y-94396555D01*
X129138005Y-94385180D01*
X129103446Y-94366708D01*
X129073153Y-94341847D01*
X129048292Y-94311554D01*
X129029820Y-94276995D01*
X129018445Y-94239499D01*
X129014000Y-94194362D01*
X129014000Y-93455638D01*
X129018445Y-93410501D01*
X129029820Y-93373005D01*
X129048292Y-93338446D01*
X129073153Y-93308153D01*
X129103446Y-93283292D01*
X129138005Y-93264820D01*
X129175501Y-93253445D01*
X129220638Y-93249000D01*
X129859362Y-93249000D01*
X129904499Y-93253445D01*
X129904499Y-93253445D01*
G37*
G36*
X140064928Y-92996764D02*
G01*
X140086009Y-93003160D01*
X140105445Y-93013548D01*
X140122476Y-93027524D01*
X140136452Y-93044555D01*
X140146840Y-93063991D01*
X140153236Y-93085072D01*
X140156000Y-93113140D01*
X140156000Y-93576860D01*
X140153236Y-93604928D01*
X140146840Y-93626009D01*
X140136452Y-93645445D01*
X140122476Y-93662476D01*
X140105445Y-93676452D01*
X140086009Y-93686840D01*
X140064928Y-93693236D01*
X140036860Y-93696000D01*
X138223140Y-93696000D01*
X138195072Y-93693236D01*
X138173991Y-93686840D01*
X138154555Y-93676452D01*
X138137524Y-93662476D01*
X138123548Y-93645445D01*
X138113160Y-93626009D01*
X138106764Y-93604928D01*
X138104000Y-93576860D01*
X138104000Y-93113140D01*
X138106764Y-93085072D01*
X138113160Y-93063991D01*
X138123548Y-93044555D01*
X138137524Y-93027524D01*
X138154555Y-93013548D01*
X138173991Y-93003160D01*
X138195072Y-92996764D01*
X138223140Y-92994000D01*
X140036860Y-92994000D01*
X140064928Y-92996764D01*
X140064928Y-92996764D01*
G37*
G36*
X145014928Y-92996764D02*
G01*
X145036009Y-93003160D01*
X145055445Y-93013548D01*
X145072476Y-93027524D01*
X145086452Y-93044555D01*
X145096840Y-93063991D01*
X145103236Y-93085072D01*
X145106000Y-93113140D01*
X145106000Y-93576860D01*
X145103236Y-93604928D01*
X145096840Y-93626009D01*
X145086452Y-93645445D01*
X145072476Y-93662476D01*
X145055445Y-93676452D01*
X145036009Y-93686840D01*
X145014928Y-93693236D01*
X144986860Y-93696000D01*
X143173140Y-93696000D01*
X143145072Y-93693236D01*
X143123991Y-93686840D01*
X143104555Y-93676452D01*
X143087524Y-93662476D01*
X143073548Y-93645445D01*
X143063160Y-93626009D01*
X143056764Y-93604928D01*
X143054000Y-93576860D01*
X143054000Y-93113140D01*
X143056764Y-93085072D01*
X143063160Y-93063991D01*
X143073548Y-93044555D01*
X143087524Y-93027524D01*
X143104555Y-93013548D01*
X143123991Y-93003160D01*
X143145072Y-92996764D01*
X143173140Y-92994000D01*
X144986860Y-92994000D01*
X145014928Y-92996764D01*
X145014928Y-92996764D01*
G37*
G36*
X159114499Y-92293445D02*
G01*
X159151995Y-92304820D01*
X159186554Y-92323292D01*
X159216847Y-92348153D01*
X159241708Y-92378446D01*
X159260180Y-92413005D01*
X159271555Y-92450501D01*
X159276000Y-92495638D01*
X159276000Y-93234362D01*
X159271555Y-93279499D01*
X159260180Y-93316995D01*
X159241708Y-93351554D01*
X159216847Y-93381847D01*
X159186554Y-93406708D01*
X159151995Y-93425180D01*
X159114499Y-93436555D01*
X159069362Y-93441000D01*
X158430638Y-93441000D01*
X158385501Y-93436555D01*
X158348005Y-93425180D01*
X158313446Y-93406708D01*
X158283153Y-93381847D01*
X158258292Y-93351554D01*
X158239820Y-93316995D01*
X158228445Y-93279499D01*
X158224000Y-93234362D01*
X158224000Y-92495638D01*
X158228445Y-92450501D01*
X158239820Y-92413005D01*
X158258292Y-92378446D01*
X158283153Y-92348153D01*
X158313446Y-92323292D01*
X158348005Y-92304820D01*
X158385501Y-92293445D01*
X158430638Y-92289000D01*
X159069362Y-92289000D01*
X159114499Y-92293445D01*
X159114499Y-92293445D01*
G37*
G36*
X135619499Y-91503445D02*
G01*
X135656995Y-91514820D01*
X135691554Y-91533292D01*
X135721847Y-91558153D01*
X135746708Y-91588446D01*
X135765180Y-91623005D01*
X135776555Y-91660501D01*
X135781000Y-91705638D01*
X135781000Y-92444362D01*
X135776555Y-92489499D01*
X135765180Y-92526995D01*
X135746708Y-92561554D01*
X135721847Y-92591847D01*
X135691554Y-92616708D01*
X135656995Y-92635180D01*
X135619499Y-92646555D01*
X135574362Y-92651000D01*
X134935638Y-92651000D01*
X134890501Y-92646555D01*
X134853005Y-92635180D01*
X134818446Y-92616708D01*
X134788153Y-92591847D01*
X134763292Y-92561554D01*
X134744820Y-92526995D01*
X134733445Y-92489499D01*
X134729000Y-92444362D01*
X134729000Y-91705638D01*
X134733445Y-91660501D01*
X134744820Y-91623005D01*
X134763292Y-91588446D01*
X134788153Y-91558153D01*
X134818446Y-91533292D01*
X134853005Y-91514820D01*
X134890501Y-91503445D01*
X134935638Y-91499000D01*
X135574362Y-91499000D01*
X135619499Y-91503445D01*
X135619499Y-91503445D01*
G37*
G36*
X129904499Y-91503445D02*
G01*
X129941995Y-91514820D01*
X129976554Y-91533292D01*
X130006847Y-91558153D01*
X130031708Y-91588446D01*
X130050180Y-91623005D01*
X130061555Y-91660501D01*
X130066000Y-91705638D01*
X130066000Y-92444362D01*
X130061555Y-92489499D01*
X130050180Y-92526995D01*
X130031708Y-92561554D01*
X130006847Y-92591847D01*
X129976554Y-92616708D01*
X129941995Y-92635180D01*
X129904499Y-92646555D01*
X129859362Y-92651000D01*
X129220638Y-92651000D01*
X129175501Y-92646555D01*
X129138005Y-92635180D01*
X129103446Y-92616708D01*
X129073153Y-92591847D01*
X129048292Y-92561554D01*
X129029820Y-92526995D01*
X129018445Y-92489499D01*
X129014000Y-92444362D01*
X129014000Y-91705638D01*
X129018445Y-91660501D01*
X129029820Y-91623005D01*
X129048292Y-91588446D01*
X129073153Y-91558153D01*
X129103446Y-91533292D01*
X129138005Y-91514820D01*
X129175501Y-91503445D01*
X129220638Y-91499000D01*
X129859362Y-91499000D01*
X129904499Y-91503445D01*
X129904499Y-91503445D01*
G37*
G36*
X132444499Y-91503445D02*
G01*
X132481995Y-91514820D01*
X132516554Y-91533292D01*
X132546847Y-91558153D01*
X132571708Y-91588446D01*
X132590180Y-91623005D01*
X132601555Y-91660501D01*
X132606000Y-91705638D01*
X132606000Y-92444362D01*
X132601555Y-92489499D01*
X132590180Y-92526995D01*
X132571708Y-92561554D01*
X132546847Y-92591847D01*
X132516554Y-92616708D01*
X132481995Y-92635180D01*
X132444499Y-92646555D01*
X132399362Y-92651000D01*
X131760638Y-92651000D01*
X131715501Y-92646555D01*
X131678005Y-92635180D01*
X131643446Y-92616708D01*
X131613153Y-92591847D01*
X131588292Y-92561554D01*
X131569820Y-92526995D01*
X131558445Y-92489499D01*
X131554000Y-92444362D01*
X131554000Y-91705638D01*
X131558445Y-91660501D01*
X131569820Y-91623005D01*
X131588292Y-91588446D01*
X131613153Y-91558153D01*
X131643446Y-91533292D01*
X131678005Y-91514820D01*
X131715501Y-91503445D01*
X131760638Y-91499000D01*
X132399362Y-91499000D01*
X132444499Y-91503445D01*
X132444499Y-91503445D01*
G37*
G36*
X127364499Y-91503445D02*
G01*
X127401995Y-91514820D01*
X127436554Y-91533292D01*
X127466847Y-91558153D01*
X127491708Y-91588446D01*
X127510180Y-91623005D01*
X127521555Y-91660501D01*
X127526000Y-91705638D01*
X127526000Y-92444362D01*
X127521555Y-92489499D01*
X127510180Y-92526995D01*
X127491708Y-92561554D01*
X127466847Y-92591847D01*
X127436554Y-92616708D01*
X127401995Y-92635180D01*
X127364499Y-92646555D01*
X127319362Y-92651000D01*
X126680638Y-92651000D01*
X126635501Y-92646555D01*
X126598005Y-92635180D01*
X126563446Y-92616708D01*
X126533153Y-92591847D01*
X126508292Y-92561554D01*
X126489820Y-92526995D01*
X126478445Y-92489499D01*
X126474000Y-92444362D01*
X126474000Y-91705638D01*
X126478445Y-91660501D01*
X126489820Y-91623005D01*
X126508292Y-91588446D01*
X126533153Y-91558153D01*
X126563446Y-91533292D01*
X126598005Y-91514820D01*
X126635501Y-91503445D01*
X126680638Y-91499000D01*
X127319362Y-91499000D01*
X127364499Y-91503445D01*
X127364499Y-91503445D01*
G37*
G36*
X149349999Y-90074737D02*
G01*
X149359608Y-90077652D01*
X149368472Y-90082390D01*
X149376237Y-90088763D01*
X149382610Y-90096528D01*
X149387348Y-90105392D01*
X149390263Y-90115001D01*
X149391852Y-90131140D01*
X149391852Y-91268860D01*
X149390263Y-91284999D01*
X149387348Y-91294608D01*
X149382610Y-91303472D01*
X149376237Y-91311237D01*
X149363263Y-91321884D01*
X149354032Y-91328053D01*
X149336706Y-91345381D01*
X149323093Y-91365756D01*
X149313717Y-91388395D01*
X149308937Y-91412428D01*
X149308938Y-91436932D01*
X149313720Y-91460965D01*
X149323098Y-91483604D01*
X149336713Y-91503978D01*
X149354041Y-91521304D01*
X149363317Y-91528175D01*
X149368427Y-91532360D01*
X149376199Y-91538725D01*
X149382581Y-91546484D01*
X149387326Y-91555339D01*
X149387326Y-91555340D01*
X149390242Y-91564915D01*
X149390242Y-91564918D01*
X149390252Y-91564950D01*
X149391247Y-91575000D01*
X149391247Y-91575065D01*
X149391852Y-91581175D01*
X149391852Y-92568860D01*
X149390263Y-92584999D01*
X149387348Y-92594608D01*
X149382610Y-92603472D01*
X149376237Y-92611237D01*
X149368472Y-92617610D01*
X149359608Y-92622348D01*
X149349999Y-92625263D01*
X149333860Y-92626852D01*
X147846140Y-92626852D01*
X147830001Y-92625263D01*
X147820392Y-92622348D01*
X147811528Y-92617610D01*
X147803763Y-92611237D01*
X147797390Y-92603472D01*
X147792652Y-92594608D01*
X147789737Y-92584999D01*
X147788148Y-92568860D01*
X147788148Y-91581140D01*
X147789737Y-91565001D01*
X147792652Y-91555392D01*
X147797390Y-91546528D01*
X147803742Y-91538788D01*
X147803743Y-91538787D01*
X147803763Y-91538763D01*
X147811573Y-91532360D01*
X147811628Y-91532323D01*
X147821147Y-91524520D01*
X147821122Y-91524489D01*
X147834972Y-91513147D01*
X147850537Y-91494221D01*
X147862111Y-91472623D01*
X147869249Y-91449181D01*
X147871676Y-91424798D01*
X147869300Y-91400409D01*
X147862211Y-91376953D01*
X147850682Y-91355330D01*
X147835157Y-91336372D01*
X147816231Y-91320807D01*
X147813175Y-91318971D01*
X147811486Y-91317582D01*
X147811484Y-91317581D01*
X147803725Y-91311199D01*
X147797804Y-91303969D01*
X147797358Y-91303425D01*
X147794209Y-91297517D01*
X147792633Y-91294562D01*
X147789727Y-91284945D01*
X147789718Y-91284915D01*
X147788148Y-91268887D01*
X147788148Y-90131140D01*
X147789737Y-90115001D01*
X147792652Y-90105392D01*
X147797390Y-90096528D01*
X147803763Y-90088763D01*
X147811528Y-90082390D01*
X147820392Y-90077652D01*
X147830001Y-90074737D01*
X147846140Y-90073148D01*
X149333860Y-90073148D01*
X149349999Y-90074737D01*
X149349999Y-90074737D01*
G37*
G36*
X152574499Y-91553445D02*
G01*
X152611995Y-91564820D01*
X152646554Y-91583292D01*
X152676847Y-91608153D01*
X152701708Y-91638446D01*
X152720180Y-91673005D01*
X152731555Y-91710501D01*
X152736000Y-91755638D01*
X152736000Y-92394362D01*
X152731555Y-92439499D01*
X152720180Y-92476995D01*
X152701708Y-92511554D01*
X152676847Y-92541847D01*
X152646554Y-92566708D01*
X152611995Y-92585180D01*
X152574499Y-92596555D01*
X152529362Y-92601000D01*
X151790638Y-92601000D01*
X151745501Y-92596555D01*
X151708005Y-92585180D01*
X151673446Y-92566708D01*
X151643153Y-92541847D01*
X151618292Y-92511554D01*
X151599820Y-92476995D01*
X151588445Y-92439499D01*
X151584000Y-92394362D01*
X151584000Y-91755638D01*
X151588445Y-91710501D01*
X151599820Y-91673005D01*
X151618292Y-91638446D01*
X151643153Y-91608153D01*
X151673446Y-91583292D01*
X151708005Y-91564820D01*
X151745501Y-91553445D01*
X151790638Y-91549000D01*
X152529362Y-91549000D01*
X152574499Y-91553445D01*
X152574499Y-91553445D01*
G37*
G36*
X154324499Y-91553445D02*
G01*
X154361995Y-91564820D01*
X154396554Y-91583292D01*
X154426847Y-91608153D01*
X154451708Y-91638446D01*
X154470180Y-91673005D01*
X154481555Y-91710501D01*
X154486000Y-91755638D01*
X154486000Y-92394362D01*
X154481555Y-92439499D01*
X154470180Y-92476995D01*
X154451708Y-92511554D01*
X154426847Y-92541847D01*
X154396554Y-92566708D01*
X154361995Y-92585180D01*
X154324499Y-92596555D01*
X154279362Y-92601000D01*
X153540638Y-92601000D01*
X153495501Y-92596555D01*
X153458005Y-92585180D01*
X153423446Y-92566708D01*
X153393153Y-92541847D01*
X153368292Y-92511554D01*
X153349820Y-92476995D01*
X153338445Y-92439499D01*
X153334000Y-92394362D01*
X153334000Y-91755638D01*
X153338445Y-91710501D01*
X153349820Y-91673005D01*
X153368292Y-91638446D01*
X153393153Y-91608153D01*
X153423446Y-91583292D01*
X153458005Y-91564820D01*
X153495501Y-91553445D01*
X153540638Y-91549000D01*
X154279362Y-91549000D01*
X154324499Y-91553445D01*
X154324499Y-91553445D01*
G37*
G36*
X140064928Y-91726764D02*
G01*
X140086009Y-91733160D01*
X140105445Y-91743548D01*
X140122476Y-91757524D01*
X140136452Y-91774555D01*
X140146840Y-91793991D01*
X140153236Y-91815072D01*
X140156000Y-91843140D01*
X140156000Y-92306860D01*
X140153236Y-92334928D01*
X140146840Y-92356009D01*
X140136452Y-92375445D01*
X140122476Y-92392476D01*
X140105445Y-92406452D01*
X140086009Y-92416840D01*
X140064928Y-92423236D01*
X140036860Y-92426000D01*
X138223140Y-92426000D01*
X138195072Y-92423236D01*
X138173991Y-92416840D01*
X138154555Y-92406452D01*
X138137524Y-92392476D01*
X138123548Y-92375445D01*
X138113160Y-92356009D01*
X138106764Y-92334928D01*
X138104000Y-92306860D01*
X138104000Y-91843140D01*
X138106764Y-91815072D01*
X138113160Y-91793991D01*
X138123548Y-91774555D01*
X138137524Y-91757524D01*
X138154555Y-91743548D01*
X138173991Y-91733160D01*
X138195072Y-91726764D01*
X138223140Y-91724000D01*
X140036860Y-91724000D01*
X140064928Y-91726764D01*
X140064928Y-91726764D01*
G37*
G36*
X145014928Y-91726764D02*
G01*
X145036009Y-91733160D01*
X145055445Y-91743548D01*
X145072476Y-91757524D01*
X145086452Y-91774555D01*
X145096840Y-91793991D01*
X145103236Y-91815072D01*
X145106000Y-91843140D01*
X145106000Y-92306860D01*
X145103236Y-92334928D01*
X145096840Y-92356009D01*
X145086452Y-92375445D01*
X145072476Y-92392476D01*
X145055445Y-92406452D01*
X145036009Y-92416840D01*
X145014928Y-92423236D01*
X144986860Y-92426000D01*
X143173140Y-92426000D01*
X143145072Y-92423236D01*
X143123991Y-92416840D01*
X143104555Y-92406452D01*
X143087524Y-92392476D01*
X143073548Y-92375445D01*
X143063160Y-92356009D01*
X143056764Y-92334928D01*
X143054000Y-92306860D01*
X143054000Y-91843140D01*
X143056764Y-91815072D01*
X143063160Y-91793991D01*
X143073548Y-91774555D01*
X143087524Y-91757524D01*
X143104555Y-91743548D01*
X143123991Y-91733160D01*
X143145072Y-91726764D01*
X143173140Y-91724000D01*
X144986860Y-91724000D01*
X145014928Y-91726764D01*
X145014928Y-91726764D01*
G37*
G36*
X159114499Y-90233445D02*
G01*
X159151995Y-90244820D01*
X159186554Y-90263292D01*
X159216847Y-90288153D01*
X159241708Y-90318446D01*
X159260180Y-90353005D01*
X159271555Y-90390501D01*
X159276000Y-90435638D01*
X159276000Y-91174362D01*
X159271555Y-91219499D01*
X159260180Y-91256995D01*
X159241708Y-91291554D01*
X159216847Y-91321847D01*
X159186554Y-91346708D01*
X159151995Y-91365180D01*
X159114499Y-91376555D01*
X159069362Y-91381000D01*
X158430638Y-91381000D01*
X158385501Y-91376555D01*
X158348005Y-91365180D01*
X158313446Y-91346708D01*
X158283153Y-91321847D01*
X158258292Y-91291554D01*
X158239820Y-91256995D01*
X158228445Y-91219499D01*
X158224000Y-91174362D01*
X158224000Y-90435638D01*
X158228445Y-90390501D01*
X158239820Y-90353005D01*
X158258292Y-90318446D01*
X158283153Y-90288153D01*
X158313446Y-90263292D01*
X158348005Y-90244820D01*
X158385501Y-90233445D01*
X158430638Y-90229000D01*
X159069362Y-90229000D01*
X159114499Y-90233445D01*
X159114499Y-90233445D01*
G37*
G36*
X145014928Y-90456764D02*
G01*
X145036009Y-90463160D01*
X145055445Y-90473548D01*
X145072476Y-90487524D01*
X145086452Y-90504555D01*
X145096840Y-90523991D01*
X145103236Y-90545072D01*
X145106000Y-90573140D01*
X145106000Y-91036860D01*
X145103236Y-91064928D01*
X145096840Y-91086009D01*
X145086452Y-91105445D01*
X145072476Y-91122476D01*
X145055445Y-91136452D01*
X145036009Y-91146840D01*
X145014928Y-91153236D01*
X144986860Y-91156000D01*
X143173140Y-91156000D01*
X143145072Y-91153236D01*
X143123991Y-91146840D01*
X143104555Y-91136452D01*
X143087524Y-91122476D01*
X143073548Y-91105445D01*
X143063160Y-91086009D01*
X143056764Y-91064928D01*
X143054000Y-91036860D01*
X143054000Y-90573140D01*
X143056764Y-90545072D01*
X143063160Y-90523991D01*
X143073548Y-90504555D01*
X143087524Y-90487524D01*
X143104555Y-90473548D01*
X143123991Y-90463160D01*
X143145072Y-90456764D01*
X143173140Y-90454000D01*
X144986860Y-90454000D01*
X145014928Y-90456764D01*
X145014928Y-90456764D01*
G37*
G36*
X140064928Y-90456764D02*
G01*
X140086009Y-90463160D01*
X140105445Y-90473548D01*
X140122476Y-90487524D01*
X140136452Y-90504555D01*
X140146840Y-90523991D01*
X140153236Y-90545072D01*
X140156000Y-90573140D01*
X140156000Y-91036860D01*
X140153236Y-91064928D01*
X140146840Y-91086009D01*
X140136452Y-91105445D01*
X140122476Y-91122476D01*
X140105445Y-91136452D01*
X140086009Y-91146840D01*
X140064928Y-91153236D01*
X140036860Y-91156000D01*
X138223140Y-91156000D01*
X138195072Y-91153236D01*
X138173991Y-91146840D01*
X138154555Y-91136452D01*
X138137524Y-91122476D01*
X138123548Y-91105445D01*
X138113160Y-91086009D01*
X138106764Y-91064928D01*
X138104000Y-91036860D01*
X138104000Y-90573140D01*
X138106764Y-90545072D01*
X138113160Y-90523991D01*
X138123548Y-90504555D01*
X138137524Y-90487524D01*
X138154555Y-90473548D01*
X138173991Y-90463160D01*
X138195072Y-90456764D01*
X138223140Y-90454000D01*
X140036860Y-90454000D01*
X140064928Y-90456764D01*
X140064928Y-90456764D01*
G37*
G36*
X159114499Y-88483445D02*
G01*
X159151995Y-88494820D01*
X159186554Y-88513292D01*
X159216847Y-88538153D01*
X159241708Y-88568446D01*
X159260180Y-88603005D01*
X159271555Y-88640501D01*
X159276000Y-88685638D01*
X159276000Y-89424362D01*
X159271555Y-89469499D01*
X159260180Y-89506995D01*
X159241708Y-89541554D01*
X159216847Y-89571847D01*
X159186554Y-89596708D01*
X159151995Y-89615180D01*
X159114499Y-89626555D01*
X159069362Y-89631000D01*
X158430638Y-89631000D01*
X158385501Y-89626555D01*
X158348005Y-89615180D01*
X158313446Y-89596708D01*
X158283153Y-89571847D01*
X158258292Y-89541554D01*
X158239820Y-89506995D01*
X158228445Y-89469499D01*
X158224000Y-89424362D01*
X158224000Y-88685638D01*
X158228445Y-88640501D01*
X158239820Y-88603005D01*
X158258292Y-88568446D01*
X158283153Y-88538153D01*
X158313446Y-88513292D01*
X158348005Y-88494820D01*
X158385501Y-88483445D01*
X158430638Y-88479000D01*
X159069362Y-88479000D01*
X159114499Y-88483445D01*
X159114499Y-88483445D01*
G37*
G36*
X136649999Y-86899737D02*
G01*
X136659608Y-86902652D01*
X136668472Y-86907390D01*
X136676237Y-86913763D01*
X136682610Y-86921528D01*
X136687348Y-86930392D01*
X136690263Y-86940001D01*
X136691852Y-86956140D01*
X136691852Y-88093860D01*
X136690263Y-88109999D01*
X136687348Y-88119608D01*
X136682610Y-88128472D01*
X136676237Y-88136237D01*
X136663263Y-88146884D01*
X136654032Y-88153053D01*
X136636706Y-88170381D01*
X136623093Y-88190756D01*
X136613717Y-88213395D01*
X136608937Y-88237428D01*
X136608938Y-88261932D01*
X136613720Y-88285965D01*
X136623098Y-88308604D01*
X136636713Y-88328978D01*
X136654041Y-88346304D01*
X136663317Y-88353175D01*
X136668427Y-88357360D01*
X136676199Y-88363725D01*
X136682581Y-88371484D01*
X136687326Y-88380339D01*
X136687326Y-88380340D01*
X136690242Y-88389915D01*
X136690242Y-88389918D01*
X136690252Y-88389950D01*
X136691247Y-88400000D01*
X136691247Y-88400065D01*
X136691852Y-88406175D01*
X136691852Y-89393860D01*
X136690263Y-89409999D01*
X136687348Y-89419608D01*
X136682610Y-89428472D01*
X136676237Y-89436237D01*
X136668472Y-89442610D01*
X136659608Y-89447348D01*
X136649999Y-89450263D01*
X136633860Y-89451852D01*
X135146140Y-89451852D01*
X135130001Y-89450263D01*
X135120392Y-89447348D01*
X135111528Y-89442610D01*
X135103763Y-89436237D01*
X135097390Y-89428472D01*
X135092652Y-89419608D01*
X135089737Y-89409999D01*
X135088148Y-89393860D01*
X135088148Y-88406140D01*
X135089737Y-88390001D01*
X135092652Y-88380392D01*
X135097390Y-88371528D01*
X135103742Y-88363788D01*
X135103743Y-88363787D01*
X135103763Y-88363763D01*
X135111573Y-88357360D01*
X135111628Y-88357323D01*
X135121147Y-88349520D01*
X135121122Y-88349489D01*
X135134972Y-88338147D01*
X135150537Y-88319221D01*
X135162111Y-88297623D01*
X135169249Y-88274181D01*
X135171676Y-88249798D01*
X135169300Y-88225409D01*
X135162211Y-88201953D01*
X135150682Y-88180330D01*
X135135157Y-88161372D01*
X135116231Y-88145807D01*
X135113175Y-88143971D01*
X135111486Y-88142582D01*
X135111484Y-88142581D01*
X135103725Y-88136199D01*
X135101603Y-88133608D01*
X135097358Y-88128425D01*
X135094209Y-88122517D01*
X135092633Y-88119562D01*
X135089727Y-88109945D01*
X135089718Y-88109915D01*
X135088148Y-88093887D01*
X135088148Y-86956140D01*
X135089737Y-86940001D01*
X135092652Y-86930392D01*
X135097390Y-86921528D01*
X135103763Y-86913763D01*
X135111528Y-86907390D01*
X135120392Y-86902652D01*
X135130001Y-86899737D01*
X135146140Y-86898148D01*
X136633860Y-86898148D01*
X136649999Y-86899737D01*
X136649999Y-86899737D01*
G37*
G36*
X132014999Y-86829737D02*
G01*
X132024608Y-86832652D01*
X132033472Y-86837390D01*
X132041237Y-86843763D01*
X132051884Y-86856737D01*
X132058053Y-86865968D01*
X132075381Y-86883294D01*
X132095756Y-86896907D01*
X132118395Y-86906283D01*
X132142428Y-86911063D01*
X132166932Y-86911062D01*
X132190965Y-86906280D01*
X132213604Y-86896902D01*
X132233978Y-86883287D01*
X132251304Y-86865959D01*
X132258175Y-86856683D01*
X132268726Y-86843800D01*
X132270103Y-86842668D01*
X132276484Y-86837419D01*
X132285339Y-86832674D01*
X132288377Y-86831749D01*
X132294915Y-86829758D01*
X132294918Y-86829758D01*
X132294950Y-86829748D01*
X132305000Y-86828753D01*
X132305065Y-86828753D01*
X132311175Y-86828148D01*
X133298860Y-86828148D01*
X133314999Y-86829737D01*
X133324608Y-86832652D01*
X133333472Y-86837390D01*
X133341237Y-86843763D01*
X133347610Y-86851528D01*
X133352348Y-86860392D01*
X133355263Y-86870001D01*
X133356852Y-86886140D01*
X133356852Y-88373860D01*
X133355263Y-88389999D01*
X133352348Y-88399608D01*
X133347610Y-88408472D01*
X133341237Y-88416237D01*
X133333472Y-88422610D01*
X133324608Y-88427348D01*
X133314999Y-88430263D01*
X133298860Y-88431852D01*
X132311140Y-88431852D01*
X132295001Y-88430263D01*
X132285392Y-88427348D01*
X132276528Y-88422610D01*
X132268788Y-88416258D01*
X132268787Y-88416257D01*
X132268763Y-88416237D01*
X132262360Y-88408427D01*
X132262323Y-88408372D01*
X132254520Y-88398853D01*
X132254489Y-88398878D01*
X132243147Y-88385028D01*
X132224221Y-88369463D01*
X132202623Y-88357889D01*
X132179181Y-88350751D01*
X132154798Y-88348324D01*
X132130409Y-88350700D01*
X132106953Y-88357789D01*
X132085330Y-88369318D01*
X132066372Y-88384843D01*
X132050807Y-88403769D01*
X132048971Y-88406825D01*
X132047582Y-88408514D01*
X132047581Y-88408516D01*
X132042485Y-88414712D01*
X132041200Y-88416274D01*
X132033425Y-88422642D01*
X132027517Y-88425791D01*
X132024562Y-88427367D01*
X132014981Y-88430262D01*
X132014915Y-88430282D01*
X131998887Y-88431852D01*
X130861140Y-88431852D01*
X130845001Y-88430263D01*
X130835392Y-88427348D01*
X130826528Y-88422610D01*
X130818763Y-88416237D01*
X130812390Y-88408472D01*
X130807652Y-88399608D01*
X130804737Y-88389999D01*
X130803148Y-88373860D01*
X130803148Y-86886140D01*
X130804737Y-86870001D01*
X130807652Y-86860392D01*
X130812390Y-86851528D01*
X130818763Y-86843763D01*
X130826528Y-86837390D01*
X130835392Y-86832652D01*
X130845001Y-86829737D01*
X130861140Y-86828148D01*
X131998860Y-86828148D01*
X132014999Y-86829737D01*
X132014999Y-86829737D01*
G37*
G36*
X152819999Y-85559737D02*
G01*
X152829608Y-85562652D01*
X152838472Y-85567390D01*
X152846212Y-85573742D01*
X152846213Y-85573743D01*
X152846237Y-85573763D01*
X152852640Y-85581573D01*
X152852677Y-85581628D01*
X152860480Y-85591147D01*
X152860511Y-85591122D01*
X152871853Y-85604972D01*
X152890779Y-85620537D01*
X152912377Y-85632111D01*
X152935819Y-85639249D01*
X152960202Y-85641676D01*
X152984591Y-85639300D01*
X153008047Y-85632211D01*
X153029670Y-85620682D01*
X153048628Y-85605157D01*
X153064193Y-85586231D01*
X153066029Y-85583175D01*
X153067418Y-85581486D01*
X153067419Y-85581484D01*
X153073801Y-85573725D01*
X153081573Y-85567360D01*
X153081575Y-85567358D01*
X153090399Y-85562654D01*
X153090438Y-85562633D01*
X153100055Y-85559727D01*
X153100085Y-85559718D01*
X153116113Y-85558148D01*
X154253860Y-85558148D01*
X154269999Y-85559737D01*
X154279608Y-85562652D01*
X154288472Y-85567390D01*
X154296237Y-85573763D01*
X154302610Y-85581528D01*
X154307348Y-85590392D01*
X154310263Y-85600001D01*
X154311852Y-85616140D01*
X154311852Y-87103860D01*
X154310263Y-87119999D01*
X154307348Y-87129608D01*
X154302610Y-87138472D01*
X154296237Y-87146237D01*
X154288472Y-87152610D01*
X154279608Y-87157348D01*
X154269999Y-87160263D01*
X154253860Y-87161852D01*
X153116140Y-87161852D01*
X153100001Y-87160263D01*
X153090392Y-87157348D01*
X153081528Y-87152610D01*
X153073763Y-87146237D01*
X153063116Y-87133263D01*
X153056947Y-87124032D01*
X153039619Y-87106706D01*
X153019244Y-87093093D01*
X152996605Y-87083717D01*
X152972572Y-87078937D01*
X152948068Y-87078938D01*
X152924035Y-87083720D01*
X152901396Y-87093098D01*
X152881022Y-87106713D01*
X152863696Y-87124041D01*
X152856825Y-87133317D01*
X152852640Y-87138427D01*
X152846275Y-87146199D01*
X152838516Y-87152581D01*
X152829661Y-87157326D01*
X152826623Y-87158251D01*
X152820085Y-87160242D01*
X152820082Y-87160242D01*
X152820050Y-87160252D01*
X152810000Y-87161247D01*
X152809935Y-87161247D01*
X152803825Y-87161852D01*
X151816140Y-87161852D01*
X151800001Y-87160263D01*
X151790392Y-87157348D01*
X151781528Y-87152610D01*
X151773763Y-87146237D01*
X151767390Y-87138472D01*
X151762652Y-87129608D01*
X151759737Y-87119999D01*
X151758148Y-87103860D01*
X151758148Y-85616140D01*
X151759737Y-85600001D01*
X151762652Y-85590392D01*
X151767390Y-85581528D01*
X151773763Y-85573763D01*
X151781528Y-85567390D01*
X151790392Y-85562652D01*
X151800001Y-85559737D01*
X151816140Y-85558148D01*
X152803860Y-85558148D01*
X152819999Y-85559737D01*
X152819999Y-85559737D01*
G37*
G36*
X165968642Y-84954781D02*
G01*
X166092295Y-85006000D01*
X166114416Y-85015163D01*
X166245608Y-85102822D01*
X166357178Y-85214392D01*
X166364412Y-85225219D01*
X166444838Y-85345586D01*
X166505219Y-85491358D01*
X166536000Y-85646107D01*
X166536000Y-85803893D01*
X166505219Y-85958642D01*
X166444838Y-86104414D01*
X166444837Y-86104416D01*
X166357178Y-86235608D01*
X166245608Y-86347178D01*
X166114416Y-86434837D01*
X166114415Y-86434838D01*
X166114414Y-86434838D01*
X165968642Y-86495219D01*
X165813893Y-86526000D01*
X165656107Y-86526000D01*
X165501358Y-86495219D01*
X165355586Y-86434838D01*
X165355585Y-86434838D01*
X165355584Y-86434837D01*
X165224392Y-86347178D01*
X165112822Y-86235608D01*
X165025163Y-86104416D01*
X165025162Y-86104414D01*
X164964781Y-85958642D01*
X164934000Y-85803893D01*
X164934000Y-85646107D01*
X164964781Y-85491358D01*
X165025162Y-85345586D01*
X165105588Y-85225219D01*
X165112822Y-85214392D01*
X165224392Y-85102822D01*
X165355584Y-85015163D01*
X165377705Y-85006000D01*
X165501358Y-84954781D01*
X165656107Y-84924000D01*
X165813893Y-84924000D01*
X165968642Y-84954781D01*
X165968642Y-84954781D01*
G37*
G36*
X119613642Y-84954781D02*
G01*
X119737295Y-85006000D01*
X119759416Y-85015163D01*
X119890608Y-85102822D01*
X120002178Y-85214392D01*
X120009412Y-85225219D01*
X120089838Y-85345586D01*
X120150219Y-85491358D01*
X120181000Y-85646107D01*
X120181000Y-85803893D01*
X120150219Y-85958642D01*
X120089838Y-86104414D01*
X120089837Y-86104416D01*
X120002178Y-86235608D01*
X119890608Y-86347178D01*
X119759416Y-86434837D01*
X119759415Y-86434838D01*
X119759414Y-86434838D01*
X119613642Y-86495219D01*
X119458893Y-86526000D01*
X119301107Y-86526000D01*
X119146358Y-86495219D01*
X119000586Y-86434838D01*
X119000585Y-86434838D01*
X119000584Y-86434837D01*
X118869392Y-86347178D01*
X118757822Y-86235608D01*
X118670163Y-86104416D01*
X118670162Y-86104414D01*
X118609781Y-85958642D01*
X118579000Y-85803893D01*
X118579000Y-85646107D01*
X118609781Y-85491358D01*
X118670162Y-85345586D01*
X118750588Y-85225219D01*
X118757822Y-85214392D01*
X118869392Y-85102822D01*
X119000584Y-85015163D01*
X119022705Y-85006000D01*
X119146358Y-84954781D01*
X119301107Y-84924000D01*
X119458893Y-84924000D01*
X119613642Y-84954781D01*
X119613642Y-84954781D01*
G37*
G36*
X148823642Y-83684781D02*
G01*
X148947295Y-83736000D01*
X148969416Y-83745163D01*
X149100608Y-83832822D01*
X149212178Y-83944392D01*
X149227090Y-83966710D01*
X149299838Y-84075586D01*
X149360219Y-84221358D01*
X149391000Y-84376107D01*
X149391000Y-84533893D01*
X149360219Y-84688642D01*
X149311508Y-84806240D01*
X149299837Y-84834416D01*
X149212178Y-84965608D01*
X149100608Y-85077178D01*
X148969416Y-85164837D01*
X148969415Y-85164838D01*
X148969414Y-85164838D01*
X148823642Y-85225219D01*
X148668893Y-85256000D01*
X148511107Y-85256000D01*
X148356358Y-85225219D01*
X148210586Y-85164838D01*
X148210585Y-85164838D01*
X148210584Y-85164837D01*
X148079392Y-85077178D01*
X147967822Y-84965608D01*
X147880163Y-84834416D01*
X147868492Y-84806240D01*
X147819781Y-84688642D01*
X147789000Y-84533893D01*
X147789000Y-84376107D01*
X147819781Y-84221358D01*
X147880162Y-84075586D01*
X147952910Y-83966710D01*
X147967822Y-83944392D01*
X148079392Y-83832822D01*
X148210584Y-83745163D01*
X148232705Y-83736000D01*
X148356358Y-83684781D01*
X148511107Y-83654000D01*
X148668893Y-83654000D01*
X148823642Y-83684781D01*
X148823642Y-83684781D01*
G37*
G36*
X139298642Y-83684781D02*
G01*
X139422295Y-83736000D01*
X139444416Y-83745163D01*
X139575608Y-83832822D01*
X139687178Y-83944392D01*
X139702090Y-83966710D01*
X139774838Y-84075586D01*
X139835219Y-84221358D01*
X139866000Y-84376107D01*
X139866000Y-84533893D01*
X139835219Y-84688642D01*
X139786508Y-84806240D01*
X139774837Y-84834416D01*
X139687178Y-84965608D01*
X139575608Y-85077178D01*
X139444416Y-85164837D01*
X139444415Y-85164838D01*
X139444414Y-85164838D01*
X139298642Y-85225219D01*
X139143893Y-85256000D01*
X138986107Y-85256000D01*
X138831358Y-85225219D01*
X138685586Y-85164838D01*
X138685585Y-85164838D01*
X138685584Y-85164837D01*
X138554392Y-85077178D01*
X138442822Y-84965608D01*
X138355163Y-84834416D01*
X138343492Y-84806240D01*
X138294781Y-84688642D01*
X138264000Y-84533893D01*
X138264000Y-84376107D01*
X138294781Y-84221358D01*
X138355162Y-84075586D01*
X138427910Y-83966710D01*
X138442822Y-83944392D01*
X138554392Y-83832822D01*
X138685584Y-83745163D01*
X138707705Y-83736000D01*
X138831358Y-83684781D01*
X138986107Y-83654000D01*
X139143893Y-83654000D01*
X139298642Y-83684781D01*
X139298642Y-83684781D01*
G37*
G36*
X115730721Y-83925174D02*
G01*
X115830995Y-83966709D01*
X115830996Y-83966710D01*
X115921242Y-84027010D01*
X115997990Y-84103758D01*
X115997991Y-84103760D01*
X116058291Y-84194005D01*
X116099826Y-84294279D01*
X116121000Y-84400730D01*
X116121000Y-84509270D01*
X116099826Y-84615721D01*
X116058291Y-84715995D01*
X116058290Y-84715996D01*
X115997990Y-84806242D01*
X115921242Y-84882990D01*
X115875812Y-84913345D01*
X115830995Y-84943291D01*
X115730721Y-84984826D01*
X115624270Y-85006000D01*
X115515730Y-85006000D01*
X115409279Y-84984826D01*
X115309005Y-84943291D01*
X115264188Y-84913345D01*
X115218758Y-84882990D01*
X115142010Y-84806242D01*
X115081710Y-84715996D01*
X115081709Y-84715995D01*
X115040174Y-84615721D01*
X115019000Y-84509270D01*
X115019000Y-84400730D01*
X115040174Y-84294279D01*
X115081709Y-84194005D01*
X115142009Y-84103760D01*
X115142010Y-84103758D01*
X115218758Y-84027010D01*
X115309004Y-83966710D01*
X115309005Y-83966709D01*
X115409279Y-83925174D01*
X115515730Y-83904000D01*
X115624270Y-83904000D01*
X115730721Y-83925174D01*
X115730721Y-83925174D01*
G37*
G36*
X170340721Y-83925174D02*
G01*
X170440995Y-83966709D01*
X170440996Y-83966710D01*
X170531242Y-84027010D01*
X170607990Y-84103758D01*
X170607991Y-84103760D01*
X170668291Y-84194005D01*
X170709826Y-84294279D01*
X170731000Y-84400730D01*
X170731000Y-84509270D01*
X170709826Y-84615721D01*
X170668291Y-84715995D01*
X170668290Y-84715996D01*
X170607990Y-84806242D01*
X170531242Y-84882990D01*
X170485812Y-84913345D01*
X170440995Y-84943291D01*
X170340721Y-84984826D01*
X170234270Y-85006000D01*
X170125730Y-85006000D01*
X170019279Y-84984826D01*
X169919005Y-84943291D01*
X169874188Y-84913345D01*
X169828758Y-84882990D01*
X169752010Y-84806242D01*
X169691710Y-84715996D01*
X169691709Y-84715995D01*
X169650174Y-84615721D01*
X169629000Y-84509270D01*
X169629000Y-84400730D01*
X169650174Y-84294279D01*
X169691709Y-84194005D01*
X169752009Y-84103760D01*
X169752010Y-84103758D01*
X169828758Y-84027010D01*
X169919004Y-83966710D01*
X169919005Y-83966709D01*
X170019279Y-83925174D01*
X170125730Y-83904000D01*
X170234270Y-83904000D01*
X170340721Y-83925174D01*
X170340721Y-83925174D01*
G37*
G36*
X143670721Y-82655174D02*
G01*
X143770995Y-82696709D01*
X143770996Y-82696710D01*
X143861242Y-82757010D01*
X143937990Y-82833758D01*
X143937991Y-82833760D01*
X143998291Y-82924005D01*
X144039826Y-83024279D01*
X144061000Y-83130730D01*
X144061000Y-83239270D01*
X144039826Y-83345721D01*
X143998291Y-83445995D01*
X143998290Y-83445996D01*
X143937990Y-83536242D01*
X143861242Y-83612990D01*
X143815812Y-83643345D01*
X143770995Y-83673291D01*
X143670721Y-83714826D01*
X143564270Y-83736000D01*
X143455730Y-83736000D01*
X143349279Y-83714826D01*
X143249005Y-83673291D01*
X143204188Y-83643345D01*
X143158758Y-83612990D01*
X143082010Y-83536242D01*
X143021710Y-83445996D01*
X143021709Y-83445995D01*
X142980174Y-83345721D01*
X142959000Y-83239270D01*
X142959000Y-83130730D01*
X142980174Y-83024279D01*
X143021709Y-82924005D01*
X143082009Y-82833760D01*
X143082010Y-82833758D01*
X143158758Y-82757010D01*
X143249004Y-82696710D01*
X143249005Y-82696709D01*
X143349279Y-82655174D01*
X143455730Y-82634000D01*
X143564270Y-82634000D01*
X143670721Y-82655174D01*
X143670721Y-82655174D01*
G37*
G36*
X125921560Y-79484064D02*
G01*
X126073027Y-79514193D01*
X126287045Y-79602842D01*
X126287046Y-79602843D01*
X126479654Y-79731539D01*
X126643461Y-79895346D01*
X126729258Y-80023751D01*
X126772158Y-80087955D01*
X126860807Y-80301973D01*
X126906000Y-80529174D01*
X126906000Y-80760826D01*
X126860807Y-80988027D01*
X126772158Y-81202045D01*
X126772157Y-81202046D01*
X126643461Y-81394654D01*
X126479654Y-81558461D01*
X126351249Y-81644258D01*
X126287045Y-81687158D01*
X126073027Y-81775807D01*
X125921560Y-81805936D01*
X125845827Y-81821000D01*
X125614173Y-81821000D01*
X125538440Y-81805936D01*
X125386973Y-81775807D01*
X125172955Y-81687158D01*
X125108751Y-81644258D01*
X124980346Y-81558461D01*
X124816539Y-81394654D01*
X124687843Y-81202046D01*
X124687842Y-81202045D01*
X124599193Y-80988027D01*
X124554000Y-80760826D01*
X124554000Y-80529174D01*
X124599193Y-80301973D01*
X124687842Y-80087955D01*
X124730742Y-80023751D01*
X124816539Y-79895346D01*
X124980346Y-79731539D01*
X125172954Y-79602843D01*
X125172955Y-79602842D01*
X125386973Y-79514193D01*
X125538440Y-79484064D01*
X125614173Y-79469000D01*
X125845827Y-79469000D01*
X125921560Y-79484064D01*
X125921560Y-79484064D01*
G37*
G36*
X160211560Y-79484064D02*
G01*
X160363027Y-79514193D01*
X160577045Y-79602842D01*
X160577046Y-79602843D01*
X160769654Y-79731539D01*
X160933461Y-79895346D01*
X161019258Y-80023751D01*
X161062158Y-80087955D01*
X161150807Y-80301973D01*
X161196000Y-80529174D01*
X161196000Y-80760826D01*
X161150807Y-80988027D01*
X161062158Y-81202045D01*
X161062157Y-81202046D01*
X160933461Y-81394654D01*
X160769654Y-81558461D01*
X160641249Y-81644258D01*
X160577045Y-81687158D01*
X160363027Y-81775807D01*
X160211560Y-81805936D01*
X160135827Y-81821000D01*
X159904173Y-81821000D01*
X159828440Y-81805936D01*
X159676973Y-81775807D01*
X159462955Y-81687158D01*
X159398751Y-81644258D01*
X159270346Y-81558461D01*
X159106539Y-81394654D01*
X158977843Y-81202046D01*
X158977842Y-81202045D01*
X158889193Y-80988027D01*
X158844000Y-80760826D01*
X158844000Y-80529174D01*
X158889193Y-80301973D01*
X158977842Y-80087955D01*
X159020742Y-80023751D01*
X159106539Y-79895346D01*
X159270346Y-79731539D01*
X159462954Y-79602843D01*
X159462955Y-79602842D01*
X159676973Y-79514193D01*
X159828440Y-79484064D01*
X159904173Y-79469000D01*
X160135827Y-79469000D01*
X160211560Y-79484064D01*
X160211560Y-79484064D01*
G37*
G36*
X165291560Y-79484064D02*
G01*
X165443027Y-79514193D01*
X165657045Y-79602842D01*
X165657046Y-79602843D01*
X165849654Y-79731539D01*
X166013461Y-79895346D01*
X166099258Y-80023751D01*
X166142158Y-80087955D01*
X166230807Y-80301973D01*
X166276000Y-80529174D01*
X166276000Y-80760826D01*
X166230807Y-80988027D01*
X166142158Y-81202045D01*
X166142157Y-81202046D01*
X166013461Y-81394654D01*
X165849654Y-81558461D01*
X165721249Y-81644258D01*
X165657045Y-81687158D01*
X165443027Y-81775807D01*
X165291560Y-81805936D01*
X165215827Y-81821000D01*
X164984173Y-81821000D01*
X164908440Y-81805936D01*
X164756973Y-81775807D01*
X164542955Y-81687158D01*
X164478751Y-81644258D01*
X164350346Y-81558461D01*
X164186539Y-81394654D01*
X164057843Y-81202046D01*
X164057842Y-81202045D01*
X163969193Y-80988027D01*
X163924000Y-80760826D01*
X163924000Y-80529174D01*
X163969193Y-80301973D01*
X164057842Y-80087955D01*
X164100742Y-80023751D01*
X164186539Y-79895346D01*
X164350346Y-79731539D01*
X164542954Y-79602843D01*
X164542955Y-79602842D01*
X164756973Y-79514193D01*
X164908440Y-79484064D01*
X164984173Y-79469000D01*
X165215827Y-79469000D01*
X165291560Y-79484064D01*
X165291560Y-79484064D01*
G37*
G36*
X153861560Y-79484064D02*
G01*
X154013027Y-79514193D01*
X154227045Y-79602842D01*
X154227046Y-79602843D01*
X154419654Y-79731539D01*
X154583461Y-79895346D01*
X154669258Y-80023751D01*
X154712158Y-80087955D01*
X154800807Y-80301973D01*
X154846000Y-80529174D01*
X154846000Y-80760826D01*
X154800807Y-80988027D01*
X154712158Y-81202045D01*
X154712157Y-81202046D01*
X154583461Y-81394654D01*
X154419654Y-81558461D01*
X154291249Y-81644258D01*
X154227045Y-81687158D01*
X154013027Y-81775807D01*
X153861560Y-81805936D01*
X153785827Y-81821000D01*
X153554173Y-81821000D01*
X153478440Y-81805936D01*
X153326973Y-81775807D01*
X153112955Y-81687158D01*
X153048751Y-81644258D01*
X152920346Y-81558461D01*
X152756539Y-81394654D01*
X152627843Y-81202046D01*
X152627842Y-81202045D01*
X152539193Y-80988027D01*
X152494000Y-80760826D01*
X152494000Y-80529174D01*
X152539193Y-80301973D01*
X152627842Y-80087955D01*
X152670742Y-80023751D01*
X152756539Y-79895346D01*
X152920346Y-79731539D01*
X153112954Y-79602843D01*
X153112955Y-79602842D01*
X153326973Y-79514193D01*
X153478440Y-79484064D01*
X153554173Y-79469000D01*
X153785827Y-79469000D01*
X153861560Y-79484064D01*
X153861560Y-79484064D01*
G37*
G36*
X132176561Y-79484064D02*
G01*
X132328028Y-79514193D01*
X132542046Y-79602842D01*
X132542047Y-79602843D01*
X132734655Y-79731539D01*
X132898462Y-79895346D01*
X132984259Y-80023751D01*
X133027159Y-80087955D01*
X133115808Y-80301973D01*
X133161001Y-80529174D01*
X133161001Y-80760826D01*
X133115808Y-80988027D01*
X133027159Y-81202045D01*
X133027158Y-81202046D01*
X132898462Y-81394654D01*
X132734655Y-81558461D01*
X132606250Y-81644258D01*
X132542046Y-81687158D01*
X132328028Y-81775807D01*
X132176561Y-81805936D01*
X132100828Y-81821000D01*
X131869174Y-81821000D01*
X131793441Y-81805936D01*
X131641974Y-81775807D01*
X131427956Y-81687158D01*
X131363752Y-81644258D01*
X131235347Y-81558461D01*
X131071540Y-81394654D01*
X130942844Y-81202046D01*
X130942843Y-81202045D01*
X130854194Y-80988027D01*
X130809001Y-80760826D01*
X130809001Y-80529174D01*
X130854194Y-80301973D01*
X130942843Y-80087955D01*
X130985743Y-80023751D01*
X131071540Y-79895346D01*
X131235347Y-79731539D01*
X131427955Y-79602843D01*
X131427956Y-79602842D01*
X131641974Y-79514193D01*
X131793441Y-79484064D01*
X131869174Y-79469000D01*
X132100828Y-79469000D01*
X132176561Y-79484064D01*
X132176561Y-79484064D01*
G37*
G36*
X120841560Y-79484064D02*
G01*
X120993027Y-79514193D01*
X121207045Y-79602842D01*
X121207046Y-79602843D01*
X121399654Y-79731539D01*
X121563461Y-79895346D01*
X121649258Y-80023751D01*
X121692158Y-80087955D01*
X121780807Y-80301973D01*
X121826000Y-80529174D01*
X121826000Y-80760826D01*
X121780807Y-80988027D01*
X121692158Y-81202045D01*
X121692157Y-81202046D01*
X121563461Y-81394654D01*
X121399654Y-81558461D01*
X121271249Y-81644258D01*
X121207045Y-81687158D01*
X120993027Y-81775807D01*
X120841560Y-81805936D01*
X120765827Y-81821000D01*
X120534173Y-81821000D01*
X120458440Y-81805936D01*
X120306973Y-81775807D01*
X120092955Y-81687158D01*
X120028751Y-81644258D01*
X119900346Y-81558461D01*
X119736539Y-81394654D01*
X119607843Y-81202046D01*
X119607842Y-81202045D01*
X119519193Y-80988027D01*
X119474000Y-80760826D01*
X119474000Y-80529174D01*
X119519193Y-80301973D01*
X119607842Y-80087955D01*
X119650742Y-80023751D01*
X119736539Y-79895346D01*
X119900346Y-79731539D01*
X120092954Y-79602843D01*
X120092955Y-79602842D01*
X120306973Y-79514193D01*
X120458440Y-79484064D01*
X120534173Y-79469000D01*
X120765827Y-79469000D01*
X120841560Y-79484064D01*
X120841560Y-79484064D01*
G37*
G36*
X137256561Y-79484064D02*
G01*
X137408028Y-79514193D01*
X137622046Y-79602842D01*
X137622047Y-79602843D01*
X137814655Y-79731539D01*
X137978462Y-79895346D01*
X138064259Y-80023751D01*
X138107159Y-80087955D01*
X138195808Y-80301973D01*
X138241001Y-80529174D01*
X138241001Y-80760826D01*
X138195808Y-80988027D01*
X138107159Y-81202045D01*
X138107158Y-81202046D01*
X137978462Y-81394654D01*
X137814655Y-81558461D01*
X137686250Y-81644258D01*
X137622046Y-81687158D01*
X137408028Y-81775807D01*
X137256561Y-81805936D01*
X137180828Y-81821000D01*
X136949174Y-81821000D01*
X136873441Y-81805936D01*
X136721974Y-81775807D01*
X136507956Y-81687158D01*
X136443752Y-81644258D01*
X136315347Y-81558461D01*
X136151540Y-81394654D01*
X136022844Y-81202046D01*
X136022843Y-81202045D01*
X135934194Y-80988027D01*
X135889001Y-80760826D01*
X135889001Y-80529174D01*
X135934194Y-80301973D01*
X136022843Y-80087955D01*
X136065743Y-80023751D01*
X136151540Y-79895346D01*
X136315347Y-79731539D01*
X136507955Y-79602843D01*
X136507956Y-79602842D01*
X136721974Y-79514193D01*
X136873441Y-79484064D01*
X136949174Y-79469000D01*
X137180828Y-79469000D01*
X137256561Y-79484064D01*
X137256561Y-79484064D01*
G37*
G36*
X148781560Y-79484064D02*
G01*
X148933027Y-79514193D01*
X149147045Y-79602842D01*
X149147046Y-79602843D01*
X149339654Y-79731539D01*
X149503461Y-79895346D01*
X149589258Y-80023751D01*
X149632158Y-80087955D01*
X149720807Y-80301973D01*
X149766000Y-80529174D01*
X149766000Y-80760826D01*
X149720807Y-80988027D01*
X149632158Y-81202045D01*
X149632157Y-81202046D01*
X149503461Y-81394654D01*
X149339654Y-81558461D01*
X149211249Y-81644258D01*
X149147045Y-81687158D01*
X148933027Y-81775807D01*
X148781560Y-81805936D01*
X148705827Y-81821000D01*
X148474173Y-81821000D01*
X148398440Y-81805936D01*
X148246973Y-81775807D01*
X148032955Y-81687158D01*
X147968751Y-81644258D01*
X147840346Y-81558461D01*
X147676539Y-81394654D01*
X147547843Y-81202046D01*
X147547842Y-81202045D01*
X147459193Y-80988027D01*
X147414000Y-80760826D01*
X147414000Y-80529174D01*
X147459193Y-80301973D01*
X147547842Y-80087955D01*
X147590742Y-80023751D01*
X147676539Y-79895346D01*
X147840346Y-79731539D01*
X148032954Y-79602843D01*
X148032955Y-79602842D01*
X148246973Y-79514193D01*
X148398440Y-79484064D01*
X148474173Y-79469000D01*
X148705827Y-79469000D01*
X148781560Y-79484064D01*
X148781560Y-79484064D01*
G37*
G36*
X172267021Y-74141640D02*
G01*
X172776769Y-74352785D01*
X172776771Y-74352786D01*
X173235534Y-74659321D01*
X173625679Y-75049466D01*
X173932214Y-75508229D01*
X173932215Y-75508231D01*
X174143360Y-76017979D01*
X174251000Y-76559124D01*
X174251000Y-77110876D01*
X174143360Y-77652021D01*
X173932215Y-78161769D01*
X173932214Y-78161771D01*
X173625679Y-78620534D01*
X173235534Y-79010679D01*
X172776771Y-79317214D01*
X172776770Y-79317215D01*
X172776769Y-79317215D01*
X172267021Y-79528360D01*
X171725876Y-79636000D01*
X171174124Y-79636000D01*
X170632979Y-79528360D01*
X170123231Y-79317215D01*
X170123230Y-79317215D01*
X170123229Y-79317214D01*
X169664466Y-79010679D01*
X169274321Y-78620534D01*
X168967786Y-78161771D01*
X168967785Y-78161769D01*
X168756640Y-77652021D01*
X168649000Y-77110876D01*
X168649000Y-76559124D01*
X168756640Y-76017979D01*
X168967785Y-75508231D01*
X168967786Y-75508229D01*
X169274321Y-75049466D01*
X169664466Y-74659321D01*
X170123229Y-74352786D01*
X170123231Y-74352785D01*
X170632979Y-74141640D01*
X171174124Y-74034000D01*
X171725876Y-74034000D01*
X172267021Y-74141640D01*
X172267021Y-74141640D01*
G37*
G36*
X115117021Y-74141640D02*
G01*
X115626769Y-74352785D01*
X115626771Y-74352786D01*
X116085534Y-74659321D01*
X116475679Y-75049466D01*
X116782214Y-75508229D01*
X116782215Y-75508231D01*
X116993360Y-76017979D01*
X117101000Y-76559124D01*
X117101000Y-77110876D01*
X116993360Y-77652021D01*
X116782215Y-78161769D01*
X116782214Y-78161771D01*
X116475679Y-78620534D01*
X116085534Y-79010679D01*
X115626771Y-79317214D01*
X115626770Y-79317215D01*
X115626769Y-79317215D01*
X115117021Y-79528360D01*
X114575876Y-79636000D01*
X114024124Y-79636000D01*
X113482979Y-79528360D01*
X112973231Y-79317215D01*
X112973230Y-79317215D01*
X112973229Y-79317214D01*
X112514466Y-79010679D01*
X112124321Y-78620534D01*
X111817786Y-78161771D01*
X111817785Y-78161769D01*
X111606640Y-77652021D01*
X111499000Y-77110876D01*
X111499000Y-76559124D01*
X111606640Y-76017979D01*
X111817785Y-75508231D01*
X111817786Y-75508229D01*
X112124321Y-75049466D01*
X112514466Y-74659321D01*
X112973229Y-74352786D01*
X112973231Y-74352785D01*
X113482979Y-74141640D01*
X114024124Y-74034000D01*
X114575876Y-74034000D01*
X115117021Y-74141640D01*
X115117021Y-74141640D01*
G37*
G36*
X162735271Y-77042783D02*
G01*
X162873858Y-77070350D01*
X163069677Y-77151461D01*
X163245910Y-77269216D01*
X163395784Y-77419090D01*
X163513539Y-77595323D01*
X163594650Y-77791142D01*
X163636000Y-77999023D01*
X163636000Y-78210977D01*
X163594650Y-78418858D01*
X163513539Y-78614677D01*
X163395784Y-78790910D01*
X163245910Y-78940784D01*
X163069677Y-79058539D01*
X162873858Y-79139650D01*
X162735271Y-79167217D01*
X162665978Y-79181000D01*
X162454022Y-79181000D01*
X162384729Y-79167217D01*
X162246142Y-79139650D01*
X162050323Y-79058539D01*
X161874090Y-78940784D01*
X161724216Y-78790910D01*
X161606461Y-78614677D01*
X161525350Y-78418858D01*
X161484000Y-78210977D01*
X161484000Y-77999023D01*
X161525350Y-77791142D01*
X161606461Y-77595323D01*
X161724216Y-77419090D01*
X161874090Y-77269216D01*
X162050323Y-77151461D01*
X162246142Y-77070350D01*
X162384729Y-77042783D01*
X162454022Y-77029000D01*
X162665978Y-77029000D01*
X162735271Y-77042783D01*
X162735271Y-77042783D01*
G37*
G36*
X123365271Y-77042783D02*
G01*
X123503858Y-77070350D01*
X123699677Y-77151461D01*
X123875910Y-77269216D01*
X124025784Y-77419090D01*
X124143539Y-77595323D01*
X124224650Y-77791142D01*
X124266000Y-77999023D01*
X124266000Y-78210977D01*
X124224650Y-78418858D01*
X124143539Y-78614677D01*
X124025784Y-78790910D01*
X123875910Y-78940784D01*
X123699677Y-79058539D01*
X123503858Y-79139650D01*
X123365271Y-79167217D01*
X123295978Y-79181000D01*
X123084022Y-79181000D01*
X123014729Y-79167217D01*
X122876142Y-79139650D01*
X122680323Y-79058539D01*
X122504090Y-78940784D01*
X122354216Y-78790910D01*
X122236461Y-78614677D01*
X122155350Y-78418858D01*
X122114000Y-78210977D01*
X122114000Y-77999023D01*
X122155350Y-77791142D01*
X122236461Y-77595323D01*
X122354216Y-77419090D01*
X122504090Y-77269216D01*
X122680323Y-77151461D01*
X122876142Y-77070350D01*
X123014729Y-77042783D01*
X123084022Y-77029000D01*
X123295978Y-77029000D01*
X123365271Y-77042783D01*
X123365271Y-77042783D01*
G37*
G36*
X151305271Y-77042783D02*
G01*
X151443858Y-77070350D01*
X151639677Y-77151461D01*
X151815910Y-77269216D01*
X151965784Y-77419090D01*
X152083539Y-77595323D01*
X152164650Y-77791142D01*
X152206000Y-77999023D01*
X152206000Y-78210977D01*
X152164650Y-78418858D01*
X152083539Y-78614677D01*
X151965784Y-78790910D01*
X151815910Y-78940784D01*
X151639677Y-79058539D01*
X151443858Y-79139650D01*
X151305271Y-79167217D01*
X151235978Y-79181000D01*
X151024022Y-79181000D01*
X150954729Y-79167217D01*
X150816142Y-79139650D01*
X150620323Y-79058539D01*
X150444090Y-78940784D01*
X150294216Y-78790910D01*
X150176461Y-78614677D01*
X150095350Y-78418858D01*
X150054000Y-78210977D01*
X150054000Y-77999023D01*
X150095350Y-77791142D01*
X150176461Y-77595323D01*
X150294216Y-77419090D01*
X150444090Y-77269216D01*
X150620323Y-77151461D01*
X150816142Y-77070350D01*
X150954729Y-77042783D01*
X151024022Y-77029000D01*
X151235978Y-77029000D01*
X151305271Y-77042783D01*
X151305271Y-77042783D01*
G37*
G36*
X134700272Y-77042783D02*
G01*
X134838859Y-77070350D01*
X135034678Y-77151461D01*
X135210911Y-77269216D01*
X135360785Y-77419090D01*
X135478540Y-77595323D01*
X135559651Y-77791142D01*
X135601001Y-77999023D01*
X135601001Y-78210977D01*
X135559651Y-78418858D01*
X135478540Y-78614677D01*
X135360785Y-78790910D01*
X135210911Y-78940784D01*
X135034678Y-79058539D01*
X134838859Y-79139650D01*
X134700272Y-79167217D01*
X134630979Y-79181000D01*
X134419023Y-79181000D01*
X134349730Y-79167217D01*
X134211143Y-79139650D01*
X134015324Y-79058539D01*
X133839091Y-78940784D01*
X133689217Y-78790910D01*
X133571462Y-78614677D01*
X133490351Y-78418858D01*
X133449001Y-78210977D01*
X133449001Y-77999023D01*
X133490351Y-77791142D01*
X133571462Y-77595323D01*
X133689217Y-77419090D01*
X133839091Y-77269216D01*
X134015324Y-77151461D01*
X134211143Y-77070350D01*
X134349730Y-77042783D01*
X134419023Y-77029000D01*
X134630979Y-77029000D01*
X134700272Y-77042783D01*
X134700272Y-77042783D01*
G37*
G36*
X137256561Y-74404064D02*
G01*
X137408028Y-74434193D01*
X137622046Y-74522842D01*
X137622047Y-74522843D01*
X137814655Y-74651539D01*
X137978462Y-74815346D01*
X138064259Y-74943751D01*
X138107159Y-75007955D01*
X138195808Y-75221973D01*
X138241001Y-75449174D01*
X138241001Y-75680826D01*
X138195808Y-75908027D01*
X138107159Y-76122045D01*
X138107158Y-76122046D01*
X137978462Y-76314654D01*
X137814655Y-76478461D01*
X137693934Y-76559124D01*
X137622046Y-76607158D01*
X137408028Y-76695807D01*
X137256561Y-76725936D01*
X137180828Y-76741000D01*
X136949174Y-76741000D01*
X136873441Y-76725936D01*
X136721974Y-76695807D01*
X136507956Y-76607158D01*
X136436068Y-76559124D01*
X136315347Y-76478461D01*
X136151540Y-76314654D01*
X136022844Y-76122046D01*
X136022843Y-76122045D01*
X135934194Y-75908027D01*
X135889001Y-75680826D01*
X135889001Y-75449174D01*
X135934194Y-75221973D01*
X136022843Y-75007955D01*
X136065743Y-74943751D01*
X136151540Y-74815346D01*
X136315347Y-74651539D01*
X136507955Y-74522843D01*
X136507956Y-74522842D01*
X136721974Y-74434193D01*
X136873441Y-74404064D01*
X136949174Y-74389000D01*
X137180828Y-74389000D01*
X137256561Y-74404064D01*
X137256561Y-74404064D01*
G37*
G36*
X132176561Y-74404064D02*
G01*
X132328028Y-74434193D01*
X132542046Y-74522842D01*
X132542047Y-74522843D01*
X132734655Y-74651539D01*
X132898462Y-74815346D01*
X132984259Y-74943751D01*
X133027159Y-75007955D01*
X133115808Y-75221973D01*
X133161001Y-75449174D01*
X133161001Y-75680826D01*
X133115808Y-75908027D01*
X133027159Y-76122045D01*
X133027158Y-76122046D01*
X132898462Y-76314654D01*
X132734655Y-76478461D01*
X132613934Y-76559124D01*
X132542046Y-76607158D01*
X132328028Y-76695807D01*
X132176561Y-76725936D01*
X132100828Y-76741000D01*
X131869174Y-76741000D01*
X131793441Y-76725936D01*
X131641974Y-76695807D01*
X131427956Y-76607158D01*
X131356068Y-76559124D01*
X131235347Y-76478461D01*
X131071540Y-76314654D01*
X130942844Y-76122046D01*
X130942843Y-76122045D01*
X130854194Y-75908027D01*
X130809001Y-75680826D01*
X130809001Y-75449174D01*
X130854194Y-75221973D01*
X130942843Y-75007955D01*
X130985743Y-74943751D01*
X131071540Y-74815346D01*
X131235347Y-74651539D01*
X131427955Y-74522843D01*
X131427956Y-74522842D01*
X131641974Y-74434193D01*
X131793441Y-74404064D01*
X131869174Y-74389000D01*
X132100828Y-74389000D01*
X132176561Y-74404064D01*
X132176561Y-74404064D01*
G37*
G36*
X125921560Y-74404064D02*
G01*
X126073027Y-74434193D01*
X126287045Y-74522842D01*
X126287046Y-74522843D01*
X126479654Y-74651539D01*
X126643461Y-74815346D01*
X126729258Y-74943751D01*
X126772158Y-75007955D01*
X126860807Y-75221973D01*
X126906000Y-75449174D01*
X126906000Y-75680826D01*
X126860807Y-75908027D01*
X126772158Y-76122045D01*
X126772157Y-76122046D01*
X126643461Y-76314654D01*
X126479654Y-76478461D01*
X126358933Y-76559124D01*
X126287045Y-76607158D01*
X126073027Y-76695807D01*
X125921560Y-76725936D01*
X125845827Y-76741000D01*
X125614173Y-76741000D01*
X125538440Y-76725936D01*
X125386973Y-76695807D01*
X125172955Y-76607158D01*
X125101067Y-76559124D01*
X124980346Y-76478461D01*
X124816539Y-76314654D01*
X124687843Y-76122046D01*
X124687842Y-76122045D01*
X124599193Y-75908027D01*
X124554000Y-75680826D01*
X124554000Y-75449174D01*
X124599193Y-75221973D01*
X124687842Y-75007955D01*
X124730742Y-74943751D01*
X124816539Y-74815346D01*
X124980346Y-74651539D01*
X125172954Y-74522843D01*
X125172955Y-74522842D01*
X125386973Y-74434193D01*
X125538440Y-74404064D01*
X125614173Y-74389000D01*
X125845827Y-74389000D01*
X125921560Y-74404064D01*
X125921560Y-74404064D01*
G37*
G36*
X153861560Y-74404064D02*
G01*
X154013027Y-74434193D01*
X154227045Y-74522842D01*
X154227046Y-74522843D01*
X154419654Y-74651539D01*
X154583461Y-74815346D01*
X154669258Y-74943751D01*
X154712158Y-75007955D01*
X154800807Y-75221973D01*
X154846000Y-75449174D01*
X154846000Y-75680826D01*
X154800807Y-75908027D01*
X154712158Y-76122045D01*
X154712157Y-76122046D01*
X154583461Y-76314654D01*
X154419654Y-76478461D01*
X154298933Y-76559124D01*
X154227045Y-76607158D01*
X154013027Y-76695807D01*
X153861560Y-76725936D01*
X153785827Y-76741000D01*
X153554173Y-76741000D01*
X153478440Y-76725936D01*
X153326973Y-76695807D01*
X153112955Y-76607158D01*
X153041067Y-76559124D01*
X152920346Y-76478461D01*
X152756539Y-76314654D01*
X152627843Y-76122046D01*
X152627842Y-76122045D01*
X152539193Y-75908027D01*
X152494000Y-75680826D01*
X152494000Y-75449174D01*
X152539193Y-75221973D01*
X152627842Y-75007955D01*
X152670742Y-74943751D01*
X152756539Y-74815346D01*
X152920346Y-74651539D01*
X153112954Y-74522843D01*
X153112955Y-74522842D01*
X153326973Y-74434193D01*
X153478440Y-74404064D01*
X153554173Y-74389000D01*
X153785827Y-74389000D01*
X153861560Y-74404064D01*
X153861560Y-74404064D01*
G37*
G36*
X120841560Y-74404064D02*
G01*
X120993027Y-74434193D01*
X121207045Y-74522842D01*
X121207046Y-74522843D01*
X121399654Y-74651539D01*
X121563461Y-74815346D01*
X121649258Y-74943751D01*
X121692158Y-75007955D01*
X121780807Y-75221973D01*
X121826000Y-75449174D01*
X121826000Y-75680826D01*
X121780807Y-75908027D01*
X121692158Y-76122045D01*
X121692157Y-76122046D01*
X121563461Y-76314654D01*
X121399654Y-76478461D01*
X121278933Y-76559124D01*
X121207045Y-76607158D01*
X120993027Y-76695807D01*
X120841560Y-76725936D01*
X120765827Y-76741000D01*
X120534173Y-76741000D01*
X120458440Y-76725936D01*
X120306973Y-76695807D01*
X120092955Y-76607158D01*
X120021067Y-76559124D01*
X119900346Y-76478461D01*
X119736539Y-76314654D01*
X119607843Y-76122046D01*
X119607842Y-76122045D01*
X119519193Y-75908027D01*
X119474000Y-75680826D01*
X119474000Y-75449174D01*
X119519193Y-75221973D01*
X119607842Y-75007955D01*
X119650742Y-74943751D01*
X119736539Y-74815346D01*
X119900346Y-74651539D01*
X120092954Y-74522843D01*
X120092955Y-74522842D01*
X120306973Y-74434193D01*
X120458440Y-74404064D01*
X120534173Y-74389000D01*
X120765827Y-74389000D01*
X120841560Y-74404064D01*
X120841560Y-74404064D01*
G37*
G36*
X148781560Y-74404064D02*
G01*
X148933027Y-74434193D01*
X149147045Y-74522842D01*
X149147046Y-74522843D01*
X149339654Y-74651539D01*
X149503461Y-74815346D01*
X149589258Y-74943751D01*
X149632158Y-75007955D01*
X149720807Y-75221973D01*
X149766000Y-75449174D01*
X149766000Y-75680826D01*
X149720807Y-75908027D01*
X149632158Y-76122045D01*
X149632157Y-76122046D01*
X149503461Y-76314654D01*
X149339654Y-76478461D01*
X149218933Y-76559124D01*
X149147045Y-76607158D01*
X148933027Y-76695807D01*
X148781560Y-76725936D01*
X148705827Y-76741000D01*
X148474173Y-76741000D01*
X148398440Y-76725936D01*
X148246973Y-76695807D01*
X148032955Y-76607158D01*
X147961067Y-76559124D01*
X147840346Y-76478461D01*
X147676539Y-76314654D01*
X147547843Y-76122046D01*
X147547842Y-76122045D01*
X147459193Y-75908027D01*
X147414000Y-75680826D01*
X147414000Y-75449174D01*
X147459193Y-75221973D01*
X147547842Y-75007955D01*
X147590742Y-74943751D01*
X147676539Y-74815346D01*
X147840346Y-74651539D01*
X148032954Y-74522843D01*
X148032955Y-74522842D01*
X148246973Y-74434193D01*
X148398440Y-74404064D01*
X148474173Y-74389000D01*
X148705827Y-74389000D01*
X148781560Y-74404064D01*
X148781560Y-74404064D01*
G37*
G36*
X160211560Y-74404064D02*
G01*
X160363027Y-74434193D01*
X160577045Y-74522842D01*
X160577046Y-74522843D01*
X160769654Y-74651539D01*
X160933461Y-74815346D01*
X161019258Y-74943751D01*
X161062158Y-75007955D01*
X161150807Y-75221973D01*
X161196000Y-75449174D01*
X161196000Y-75680826D01*
X161150807Y-75908027D01*
X161062158Y-76122045D01*
X161062157Y-76122046D01*
X160933461Y-76314654D01*
X160769654Y-76478461D01*
X160648933Y-76559124D01*
X160577045Y-76607158D01*
X160363027Y-76695807D01*
X160211560Y-76725936D01*
X160135827Y-76741000D01*
X159904173Y-76741000D01*
X159828440Y-76725936D01*
X159676973Y-76695807D01*
X159462955Y-76607158D01*
X159391067Y-76559124D01*
X159270346Y-76478461D01*
X159106539Y-76314654D01*
X158977843Y-76122046D01*
X158977842Y-76122045D01*
X158889193Y-75908027D01*
X158844000Y-75680826D01*
X158844000Y-75449174D01*
X158889193Y-75221973D01*
X158977842Y-75007955D01*
X159020742Y-74943751D01*
X159106539Y-74815346D01*
X159270346Y-74651539D01*
X159462954Y-74522843D01*
X159462955Y-74522842D01*
X159676973Y-74434193D01*
X159828440Y-74404064D01*
X159904173Y-74389000D01*
X160135827Y-74389000D01*
X160211560Y-74404064D01*
X160211560Y-74404064D01*
G37*
G36*
X165291560Y-74404064D02*
G01*
X165443027Y-74434193D01*
X165657045Y-74522842D01*
X165657046Y-74522843D01*
X165849654Y-74651539D01*
X166013461Y-74815346D01*
X166099258Y-74943751D01*
X166142158Y-75007955D01*
X166230807Y-75221973D01*
X166276000Y-75449174D01*
X166276000Y-75680826D01*
X166230807Y-75908027D01*
X166142158Y-76122045D01*
X166142157Y-76122046D01*
X166013461Y-76314654D01*
X165849654Y-76478461D01*
X165728933Y-76559124D01*
X165657045Y-76607158D01*
X165443027Y-76695807D01*
X165291560Y-76725936D01*
X165215827Y-76741000D01*
X164984173Y-76741000D01*
X164908440Y-76725936D01*
X164756973Y-76695807D01*
X164542955Y-76607158D01*
X164471067Y-76559124D01*
X164350346Y-76478461D01*
X164186539Y-76314654D01*
X164057843Y-76122046D01*
X164057842Y-76122045D01*
X163969193Y-75908027D01*
X163924000Y-75680826D01*
X163924000Y-75449174D01*
X163969193Y-75221973D01*
X164057842Y-75007955D01*
X164100742Y-74943751D01*
X164186539Y-74815346D01*
X164350346Y-74651539D01*
X164542954Y-74522843D01*
X164542955Y-74522842D01*
X164756973Y-74434193D01*
X164908440Y-74404064D01*
X164984173Y-74389000D01*
X165215827Y-74389000D01*
X165291560Y-74404064D01*
X165291560Y-74404064D01*
G37*
M02*
