M48
; DRILL file {KiCad (5.1.2)-2} date 2019/7/8 9:46:14
; FORMAT={-:-/ absolute / inch / decimal}
; #@! TF.CreationDate,2019-07-08T09:46:14+08:00
; #@! TF.GenerationSoftware,Kicad,Pcbnew,(5.1.2)-2
; #@! TF.FileFunction,Plated,1,2,PTH
FMAT,2
INCH
T1C0.0157
T2C0.0276
T3C0.0374
T4C0.0394
T5C0.0591
T6C0.0669
T7C0.1260
%
G90
G05
T1
X5.125Y-3.4185
X5.175Y-3.575
X5.55Y-4.1
X5.65Y-4.1
T2
X6.7Y-3.325
X4.55Y-3.325
X5.65Y-3.275
T3
X5.4Y-4.2
X5.4984Y-4.2
X5.5969Y-4.2
T4
X5.825Y-3.5
X5.825Y-3.6
X5.825Y-3.7
X6.025Y-3.425
X6.125Y-3.425
X6.225Y-3.425
X5.25Y-3.45
X5.35Y-3.45
X5.45Y-3.45
X5.05Y-3.325
X5.05Y-3.425
X5.05Y-3.525
T5
X5.2963Y-3.075
X5.95Y-3.075
X4.85Y-3.075
X6.4Y-3.075
T6
X5.1963Y-2.975
X5.1963Y-3.175
X5.3963Y-2.975
X5.3963Y-3.175
X5.85Y-2.975
X5.85Y-3.175
X6.05Y-2.975
X6.05Y-3.175
X4.75Y-2.975
X4.75Y-3.175
X4.95Y-2.975
X4.95Y-3.175
X6.3Y-2.975
X6.3Y-3.175
X6.5Y-2.975
X6.5Y-3.175
T7
X6.75Y-3.025
X6.725Y-4.2
X4.5Y-3.025
X4.525Y-4.2
T0
M30
