G04 #@! TF.GenerationSoftware,KiCad,Pcbnew,(5.1.2)-2*
G04 #@! TF.CreationDate,2019-07-30T15:31:29+08:00*
G04 #@! TF.ProjectId,HF3,4846332e-6b69-4636-9164-5f7063625858,rev?*
G04 #@! TF.SameCoordinates,Original*
G04 #@! TF.FileFunction,Soldermask,Top*
G04 #@! TF.FilePolarity,Negative*
%FSLAX46Y46*%
G04 Gerber Fmt 4.6, Leading zero omitted, Abs format (unit mm)*
G04 Created by KiCad (PCBNEW (5.1.2)-2) date 2019-07-30 15:31:29*
%MOMM*%
%LPD*%
G04 APERTURE LIST*
%ADD10C,0.100000*%
G04 APERTURE END LIST*
D10*
G36*
X191346189Y-144530483D02*
G01*
X191346192Y-144530484D01*
X191346191Y-144530484D01*
X191874139Y-144749167D01*
X192349280Y-145066646D01*
X192753354Y-145470720D01*
X193070833Y-145945861D01*
X193070834Y-145945863D01*
X193289517Y-146473811D01*
X193401000Y-147034275D01*
X193401000Y-147605725D01*
X193289517Y-148166189D01*
X193289516Y-148166191D01*
X193070833Y-148694139D01*
X192753354Y-149169280D01*
X192349280Y-149573354D01*
X191874139Y-149890833D01*
X191874138Y-149890834D01*
X191874137Y-149890834D01*
X191346189Y-150109517D01*
X190785725Y-150221000D01*
X190214275Y-150221000D01*
X189653811Y-150109517D01*
X189125863Y-149890834D01*
X189125862Y-149890834D01*
X189125861Y-149890833D01*
X188650720Y-149573354D01*
X188246646Y-149169280D01*
X187929167Y-148694139D01*
X187710484Y-148166191D01*
X187710483Y-148166189D01*
X187599000Y-147605725D01*
X187599000Y-147034275D01*
X187710483Y-146473811D01*
X187929166Y-145945863D01*
X187929167Y-145945861D01*
X188246646Y-145470720D01*
X188650720Y-145066646D01*
X189125861Y-144749167D01*
X189653809Y-144530484D01*
X189653808Y-144530484D01*
X189653811Y-144530483D01*
X190214275Y-144419000D01*
X190785725Y-144419000D01*
X191346189Y-144530483D01*
X191346189Y-144530483D01*
G37*
G36*
X139276189Y-144530483D02*
G01*
X139276192Y-144530484D01*
X139276191Y-144530484D01*
X139804139Y-144749167D01*
X140279280Y-145066646D01*
X140683354Y-145470720D01*
X141000833Y-145945861D01*
X141000834Y-145945863D01*
X141219517Y-146473811D01*
X141331000Y-147034275D01*
X141331000Y-147605725D01*
X141219517Y-148166189D01*
X141219516Y-148166191D01*
X141000833Y-148694139D01*
X140683354Y-149169280D01*
X140279280Y-149573354D01*
X139804139Y-149890833D01*
X139804138Y-149890834D01*
X139804137Y-149890834D01*
X139276189Y-150109517D01*
X138715725Y-150221000D01*
X138144275Y-150221000D01*
X137583811Y-150109517D01*
X137055863Y-149890834D01*
X137055862Y-149890834D01*
X137055861Y-149890833D01*
X136580720Y-149573354D01*
X136176646Y-149169280D01*
X135859167Y-148694139D01*
X135640484Y-148166191D01*
X135640483Y-148166189D01*
X135529000Y-147605725D01*
X135529000Y-147034275D01*
X135640483Y-146473811D01*
X135859166Y-145945863D01*
X135859167Y-145945861D01*
X136176646Y-145470720D01*
X136580720Y-145066646D01*
X137055861Y-144749167D01*
X137583809Y-144530484D01*
X137583808Y-144530484D01*
X137583811Y-144530483D01*
X138144275Y-144419000D01*
X138715725Y-144419000D01*
X139276189Y-144530483D01*
X139276189Y-144530483D01*
G37*
G36*
X142878382Y-141407200D02*
G01*
X143040227Y-141439393D01*
X143254245Y-141528042D01*
X143254246Y-141528043D01*
X143446854Y-141656739D01*
X143610661Y-141820546D01*
X143696458Y-141948951D01*
X143739358Y-142013155D01*
X143828007Y-142227173D01*
X143873200Y-142454374D01*
X143873200Y-142686026D01*
X143828007Y-142913227D01*
X143739358Y-143127245D01*
X143739357Y-143127246D01*
X143610661Y-143319854D01*
X143446854Y-143483661D01*
X143318449Y-143569458D01*
X143254245Y-143612358D01*
X143040227Y-143701007D01*
X142888760Y-143731136D01*
X142813027Y-143746200D01*
X142581373Y-143746200D01*
X142505640Y-143731136D01*
X142354173Y-143701007D01*
X142140155Y-143612358D01*
X142075951Y-143569458D01*
X141947546Y-143483661D01*
X141783739Y-143319854D01*
X141655043Y-143127246D01*
X141655042Y-143127245D01*
X141566393Y-142913227D01*
X141521200Y-142686026D01*
X141521200Y-142454374D01*
X141566393Y-142227173D01*
X141655042Y-142013155D01*
X141697942Y-141948951D01*
X141783739Y-141820546D01*
X141947546Y-141656739D01*
X142140154Y-141528043D01*
X142140155Y-141528042D01*
X142354173Y-141439393D01*
X142516018Y-141407200D01*
X142581373Y-141394200D01*
X142813027Y-141394200D01*
X142878382Y-141407200D01*
X142878382Y-141407200D01*
G37*
G36*
X137798382Y-141407200D02*
G01*
X137960227Y-141439393D01*
X138174245Y-141528042D01*
X138174246Y-141528043D01*
X138366854Y-141656739D01*
X138530661Y-141820546D01*
X138616458Y-141948951D01*
X138659358Y-142013155D01*
X138748007Y-142227173D01*
X138793200Y-142454374D01*
X138793200Y-142686026D01*
X138748007Y-142913227D01*
X138659358Y-143127245D01*
X138659357Y-143127246D01*
X138530661Y-143319854D01*
X138366854Y-143483661D01*
X138238449Y-143569458D01*
X138174245Y-143612358D01*
X137960227Y-143701007D01*
X137808760Y-143731136D01*
X137733027Y-143746200D01*
X137501373Y-143746200D01*
X137425640Y-143731136D01*
X137274173Y-143701007D01*
X137060155Y-143612358D01*
X136995951Y-143569458D01*
X136867546Y-143483661D01*
X136703739Y-143319854D01*
X136575043Y-143127246D01*
X136575042Y-143127245D01*
X136486393Y-142913227D01*
X136441200Y-142686026D01*
X136441200Y-142454374D01*
X136486393Y-142227173D01*
X136575042Y-142013155D01*
X136617942Y-141948951D01*
X136703739Y-141820546D01*
X136867546Y-141656739D01*
X137060154Y-141528043D01*
X137060155Y-141528042D01*
X137274173Y-141439393D01*
X137436018Y-141407200D01*
X137501373Y-141394200D01*
X137733027Y-141394200D01*
X137798382Y-141407200D01*
X137798382Y-141407200D01*
G37*
G36*
X161956200Y-142209200D02*
G01*
X158354200Y-142209200D01*
X158354200Y-141407200D01*
X161956200Y-141407200D01*
X161956200Y-142209200D01*
X161956200Y-142209200D01*
G37*
G36*
X153456200Y-142209200D02*
G01*
X149854200Y-142209200D01*
X149854200Y-141407200D01*
X153456200Y-141407200D01*
X153456200Y-142209200D01*
X153456200Y-142209200D01*
G37*
G36*
X140332471Y-138967983D02*
G01*
X140471058Y-138995550D01*
X140666877Y-139076661D01*
X140843110Y-139194416D01*
X140992984Y-139344290D01*
X141110739Y-139520523D01*
X141191850Y-139716342D01*
X141233200Y-139924223D01*
X141233200Y-140136177D01*
X141191850Y-140344058D01*
X141110739Y-140539877D01*
X140992984Y-140716110D01*
X140843110Y-140865984D01*
X140666877Y-140983739D01*
X140471058Y-141064850D01*
X140332471Y-141092417D01*
X140263178Y-141106200D01*
X140051222Y-141106200D01*
X139981929Y-141092417D01*
X139843342Y-141064850D01*
X139647523Y-140983739D01*
X139471290Y-140865984D01*
X139321416Y-140716110D01*
X139203661Y-140539877D01*
X139122550Y-140344058D01*
X139081200Y-140136177D01*
X139081200Y-139924223D01*
X139122550Y-139716342D01*
X139203661Y-139520523D01*
X139321416Y-139344290D01*
X139471290Y-139194416D01*
X139647523Y-139076661D01*
X139843342Y-138995550D01*
X139981929Y-138967983D01*
X140051222Y-138954200D01*
X140263178Y-138954200D01*
X140332471Y-138967983D01*
X140332471Y-138967983D01*
G37*
G36*
X161956200Y-141039200D02*
G01*
X158854200Y-141039200D01*
X158854200Y-140037200D01*
X161956200Y-140037200D01*
X161956200Y-141039200D01*
X161956200Y-141039200D01*
G37*
G36*
X152956200Y-140939200D02*
G01*
X149854200Y-140939200D01*
X149854200Y-140137200D01*
X152956200Y-140137200D01*
X152956200Y-140939200D01*
X152956200Y-140939200D01*
G37*
G36*
X152956200Y-139769200D02*
G01*
X149854200Y-139769200D01*
X149854200Y-138767200D01*
X152956200Y-138767200D01*
X152956200Y-139769200D01*
X152956200Y-139769200D01*
G37*
G36*
X142878382Y-136327200D02*
G01*
X143040227Y-136359393D01*
X143254245Y-136448042D01*
X143254246Y-136448043D01*
X143446854Y-136576739D01*
X143610661Y-136740546D01*
X143696458Y-136868951D01*
X143739358Y-136933155D01*
X143828007Y-137147173D01*
X143873200Y-137374374D01*
X143873200Y-137606026D01*
X143828007Y-137833227D01*
X143739358Y-138047245D01*
X143739357Y-138047246D01*
X143610661Y-138239854D01*
X143446854Y-138403661D01*
X143318449Y-138489458D01*
X143254245Y-138532358D01*
X143040227Y-138621007D01*
X142888760Y-138651136D01*
X142813027Y-138666200D01*
X142581373Y-138666200D01*
X142505640Y-138651136D01*
X142354173Y-138621007D01*
X142140155Y-138532358D01*
X142075951Y-138489458D01*
X141947546Y-138403661D01*
X141783739Y-138239854D01*
X141655043Y-138047246D01*
X141655042Y-138047245D01*
X141566393Y-137833227D01*
X141521200Y-137606026D01*
X141521200Y-137374374D01*
X141566393Y-137147173D01*
X141655042Y-136933155D01*
X141697942Y-136868951D01*
X141783739Y-136740546D01*
X141947546Y-136576739D01*
X142140154Y-136448043D01*
X142140155Y-136448042D01*
X142354173Y-136359393D01*
X142516018Y-136327200D01*
X142581373Y-136314200D01*
X142813027Y-136314200D01*
X142878382Y-136327200D01*
X142878382Y-136327200D01*
G37*
G36*
X137798382Y-136327200D02*
G01*
X137960227Y-136359393D01*
X138174245Y-136448042D01*
X138174246Y-136448043D01*
X138366854Y-136576739D01*
X138530661Y-136740546D01*
X138616458Y-136868951D01*
X138659358Y-136933155D01*
X138748007Y-137147173D01*
X138793200Y-137374374D01*
X138793200Y-137606026D01*
X138748007Y-137833227D01*
X138659358Y-138047245D01*
X138659357Y-138047246D01*
X138530661Y-138239854D01*
X138366854Y-138403661D01*
X138238449Y-138489458D01*
X138174245Y-138532358D01*
X137960227Y-138621007D01*
X137808760Y-138651136D01*
X137733027Y-138666200D01*
X137501373Y-138666200D01*
X137425640Y-138651136D01*
X137274173Y-138621007D01*
X137060155Y-138532358D01*
X136995951Y-138489458D01*
X136867546Y-138403661D01*
X136703739Y-138239854D01*
X136575043Y-138047246D01*
X136575042Y-138047245D01*
X136486393Y-137833227D01*
X136441200Y-137606026D01*
X136441200Y-137374374D01*
X136486393Y-137147173D01*
X136575042Y-136933155D01*
X136617942Y-136868951D01*
X136703739Y-136740546D01*
X136867546Y-136576739D01*
X137060154Y-136448043D01*
X137060155Y-136448042D01*
X137274173Y-136359393D01*
X137436018Y-136327200D01*
X137501373Y-136314200D01*
X137733027Y-136314200D01*
X137798382Y-136327200D01*
X137798382Y-136327200D01*
G37*
G36*
X152956200Y-138399200D02*
G01*
X149854200Y-138399200D01*
X149854200Y-137597200D01*
X152956200Y-137597200D01*
X152956200Y-138399200D01*
X152956200Y-138399200D01*
G37*
G36*
X161956200Y-137129200D02*
G01*
X158854200Y-137129200D01*
X158854200Y-136327200D01*
X161956200Y-136327200D01*
X161956200Y-137129200D01*
X161956200Y-137129200D01*
G37*
G36*
X161956200Y-135959200D02*
G01*
X158854200Y-135959200D01*
X158854200Y-134957200D01*
X161956200Y-134957200D01*
X161956200Y-135959200D01*
X161956200Y-135959200D01*
G37*
G36*
X152956200Y-135959200D02*
G01*
X149854200Y-135959200D01*
X149854200Y-134957200D01*
X152956200Y-134957200D01*
X152956200Y-135959200D01*
X152956200Y-135959200D01*
G37*
G36*
X161956200Y-134589200D02*
G01*
X158854200Y-134589200D01*
X158854200Y-133787200D01*
X161956200Y-133787200D01*
X161956200Y-134589200D01*
X161956200Y-134589200D01*
G37*
G36*
X152956200Y-133319200D02*
G01*
X149854200Y-133319200D01*
X149854200Y-132517200D01*
X152956200Y-132517200D01*
X152956200Y-133319200D01*
X152956200Y-133319200D01*
G37*
G36*
X137808760Y-130707396D02*
G01*
X137960227Y-130737525D01*
X138174245Y-130826174D01*
X138174246Y-130826175D01*
X138366854Y-130954871D01*
X138530661Y-131118678D01*
X138616458Y-131247083D01*
X138659358Y-131311287D01*
X138748007Y-131525305D01*
X138793200Y-131752506D01*
X138793200Y-131984158D01*
X138748007Y-132211359D01*
X138659358Y-132425377D01*
X138659357Y-132425378D01*
X138530661Y-132617986D01*
X138366854Y-132781793D01*
X138238449Y-132867590D01*
X138174245Y-132910490D01*
X137960227Y-132999139D01*
X137808760Y-133029268D01*
X137733027Y-133044332D01*
X137501373Y-133044332D01*
X137425640Y-133029268D01*
X137274173Y-132999139D01*
X137060155Y-132910490D01*
X136995951Y-132867590D01*
X136867546Y-132781793D01*
X136703739Y-132617986D01*
X136575043Y-132425378D01*
X136575042Y-132425377D01*
X136486393Y-132211359D01*
X136441200Y-131984158D01*
X136441200Y-131752506D01*
X136486393Y-131525305D01*
X136575042Y-131311287D01*
X136617942Y-131247083D01*
X136703739Y-131118678D01*
X136867546Y-130954871D01*
X137060154Y-130826175D01*
X137060155Y-130826174D01*
X137274173Y-130737525D01*
X137425640Y-130707396D01*
X137501373Y-130692332D01*
X137733027Y-130692332D01*
X137808760Y-130707396D01*
X137808760Y-130707396D01*
G37*
G36*
X142888760Y-130707396D02*
G01*
X143040227Y-130737525D01*
X143254245Y-130826174D01*
X143254246Y-130826175D01*
X143446854Y-130954871D01*
X143610661Y-131118678D01*
X143696458Y-131247083D01*
X143739358Y-131311287D01*
X143828007Y-131525305D01*
X143873200Y-131752506D01*
X143873200Y-131984158D01*
X143828007Y-132211359D01*
X143739358Y-132425377D01*
X143739357Y-132425378D01*
X143610661Y-132617986D01*
X143446854Y-132781793D01*
X143318449Y-132867590D01*
X143254245Y-132910490D01*
X143040227Y-132999139D01*
X142888760Y-133029268D01*
X142813027Y-133044332D01*
X142581373Y-133044332D01*
X142505640Y-133029268D01*
X142354173Y-132999139D01*
X142140155Y-132910490D01*
X142075951Y-132867590D01*
X141947546Y-132781793D01*
X141783739Y-132617986D01*
X141655043Y-132425378D01*
X141655042Y-132425377D01*
X141566393Y-132211359D01*
X141521200Y-131984158D01*
X141521200Y-131752506D01*
X141566393Y-131525305D01*
X141655042Y-131311287D01*
X141697942Y-131247083D01*
X141783739Y-131118678D01*
X141947546Y-130954871D01*
X142140154Y-130826175D01*
X142140155Y-130826174D01*
X142354173Y-130737525D01*
X142505640Y-130707396D01*
X142581373Y-130692332D01*
X142813027Y-130692332D01*
X142888760Y-130707396D01*
X142888760Y-130707396D01*
G37*
G36*
X171591800Y-132735000D02*
G01*
X167989800Y-132735000D01*
X167989800Y-131933000D01*
X171591800Y-131933000D01*
X171591800Y-132735000D01*
X171591800Y-132735000D01*
G37*
G36*
X180091800Y-132735000D02*
G01*
X176489800Y-132735000D01*
X176489800Y-131933000D01*
X180091800Y-131933000D01*
X180091800Y-132735000D01*
X180091800Y-132735000D01*
G37*
G36*
X152956200Y-132149200D02*
G01*
X149854200Y-132149200D01*
X149854200Y-131147200D01*
X152956200Y-131147200D01*
X152956200Y-132149200D01*
X152956200Y-132149200D01*
G37*
G36*
X180091800Y-131565000D02*
G01*
X176989800Y-131565000D01*
X176989800Y-130563000D01*
X180091800Y-130563000D01*
X180091800Y-131565000D01*
X180091800Y-131565000D01*
G37*
G36*
X171091800Y-131465000D02*
G01*
X167989800Y-131465000D01*
X167989800Y-130663000D01*
X171091800Y-130663000D01*
X171091800Y-131465000D01*
X171091800Y-131465000D01*
G37*
G36*
X161956200Y-130879200D02*
G01*
X158854200Y-130879200D01*
X158854200Y-129877200D01*
X161956200Y-129877200D01*
X161956200Y-130879200D01*
X161956200Y-130879200D01*
G37*
G36*
X152956200Y-130779200D02*
G01*
X149854200Y-130779200D01*
X149854200Y-129977200D01*
X152956200Y-129977200D01*
X152956200Y-130779200D01*
X152956200Y-130779200D01*
G37*
G36*
X140332471Y-128266115D02*
G01*
X140471058Y-128293682D01*
X140666877Y-128374793D01*
X140843110Y-128492548D01*
X140992984Y-128642422D01*
X141110739Y-128818655D01*
X141191850Y-129014474D01*
X141191850Y-129014476D01*
X141233200Y-129222354D01*
X141233200Y-129434310D01*
X141232573Y-129437461D01*
X141191850Y-129642190D01*
X141110739Y-129838009D01*
X140992984Y-130014242D01*
X140843110Y-130164116D01*
X140666877Y-130281871D01*
X140471058Y-130362982D01*
X140332471Y-130390549D01*
X140263178Y-130404332D01*
X140051222Y-130404332D01*
X139981929Y-130390549D01*
X139843342Y-130362982D01*
X139647523Y-130281871D01*
X139471290Y-130164116D01*
X139321416Y-130014242D01*
X139203661Y-129838009D01*
X139122550Y-129642190D01*
X139081827Y-129437461D01*
X139081200Y-129434310D01*
X139081200Y-129222354D01*
X139122550Y-129014476D01*
X139122550Y-129014474D01*
X139203661Y-128818655D01*
X139321416Y-128642422D01*
X139471290Y-128492548D01*
X139647523Y-128374793D01*
X139843342Y-128293682D01*
X139981929Y-128266115D01*
X140051222Y-128252332D01*
X140263178Y-128252332D01*
X140332471Y-128266115D01*
X140332471Y-128266115D01*
G37*
G36*
X171091800Y-130295000D02*
G01*
X167989800Y-130295000D01*
X167989800Y-129293000D01*
X171091800Y-129293000D01*
X171091800Y-130295000D01*
X171091800Y-130295000D01*
G37*
G36*
X190869360Y-127363064D02*
G01*
X191020827Y-127393193D01*
X191234845Y-127481842D01*
X191234846Y-127481843D01*
X191427454Y-127610539D01*
X191591261Y-127774346D01*
X191628774Y-127830489D01*
X191719958Y-127966955D01*
X191808607Y-128180973D01*
X191853800Y-128408174D01*
X191853800Y-128639826D01*
X191808607Y-128867027D01*
X191719958Y-129081045D01*
X191719957Y-129081046D01*
X191591261Y-129273654D01*
X191427454Y-129437461D01*
X191299049Y-129523258D01*
X191234845Y-129566158D01*
X191020827Y-129654807D01*
X190869360Y-129684936D01*
X190793627Y-129700000D01*
X190561973Y-129700000D01*
X190486240Y-129684936D01*
X190334773Y-129654807D01*
X190120755Y-129566158D01*
X190056551Y-129523258D01*
X189928146Y-129437461D01*
X189764339Y-129273654D01*
X189635643Y-129081046D01*
X189635642Y-129081045D01*
X189546993Y-128867027D01*
X189501800Y-128639826D01*
X189501800Y-128408174D01*
X189546993Y-128180973D01*
X189635642Y-127966955D01*
X189726826Y-127830489D01*
X189764339Y-127774346D01*
X189928146Y-127610539D01*
X190120754Y-127481843D01*
X190120755Y-127481842D01*
X190334773Y-127393193D01*
X190486240Y-127363064D01*
X190561973Y-127348000D01*
X190793627Y-127348000D01*
X190869360Y-127363064D01*
X190869360Y-127363064D01*
G37*
G36*
X185789360Y-127363064D02*
G01*
X185940827Y-127393193D01*
X186154845Y-127481842D01*
X186154846Y-127481843D01*
X186347454Y-127610539D01*
X186511261Y-127774346D01*
X186548774Y-127830489D01*
X186639958Y-127966955D01*
X186728607Y-128180973D01*
X186773800Y-128408174D01*
X186773800Y-128639826D01*
X186728607Y-128867027D01*
X186639958Y-129081045D01*
X186639957Y-129081046D01*
X186511261Y-129273654D01*
X186347454Y-129437461D01*
X186219049Y-129523258D01*
X186154845Y-129566158D01*
X185940827Y-129654807D01*
X185789360Y-129684936D01*
X185713627Y-129700000D01*
X185481973Y-129700000D01*
X185406240Y-129684936D01*
X185254773Y-129654807D01*
X185040755Y-129566158D01*
X184976551Y-129523258D01*
X184848146Y-129437461D01*
X184684339Y-129273654D01*
X184555643Y-129081046D01*
X184555642Y-129081045D01*
X184466993Y-128867027D01*
X184421800Y-128639826D01*
X184421800Y-128408174D01*
X184466993Y-128180973D01*
X184555642Y-127966955D01*
X184646826Y-127830489D01*
X184684339Y-127774346D01*
X184848146Y-127610539D01*
X185040754Y-127481843D01*
X185040755Y-127481842D01*
X185254773Y-127393193D01*
X185406240Y-127363064D01*
X185481973Y-127348000D01*
X185713627Y-127348000D01*
X185789360Y-127363064D01*
X185789360Y-127363064D01*
G37*
G36*
X153456200Y-129509200D02*
G01*
X149854200Y-129509200D01*
X149854200Y-128707200D01*
X153456200Y-128707200D01*
X153456200Y-129509200D01*
X153456200Y-129509200D01*
G37*
G36*
X161956200Y-129509200D02*
G01*
X158354200Y-129509200D01*
X158354200Y-128707200D01*
X161956200Y-128707200D01*
X161956200Y-129509200D01*
X161956200Y-129509200D01*
G37*
G36*
X171091800Y-128925000D02*
G01*
X167989800Y-128925000D01*
X167989800Y-128123000D01*
X171091800Y-128123000D01*
X171091800Y-128925000D01*
X171091800Y-128925000D01*
G37*
G36*
X142888760Y-125627396D02*
G01*
X143040227Y-125657525D01*
X143254245Y-125746174D01*
X143254246Y-125746175D01*
X143446854Y-125874871D01*
X143610661Y-126038678D01*
X143644938Y-126089978D01*
X143739358Y-126231287D01*
X143828007Y-126445305D01*
X143873200Y-126672506D01*
X143873200Y-126904158D01*
X143828007Y-127131359D01*
X143739358Y-127345377D01*
X143739357Y-127345378D01*
X143610661Y-127537986D01*
X143446854Y-127701793D01*
X143338273Y-127774344D01*
X143254245Y-127830490D01*
X143040227Y-127919139D01*
X142888760Y-127949268D01*
X142813027Y-127964332D01*
X142581373Y-127964332D01*
X142505640Y-127949268D01*
X142354173Y-127919139D01*
X142140155Y-127830490D01*
X142056127Y-127774344D01*
X141947546Y-127701793D01*
X141783739Y-127537986D01*
X141655043Y-127345378D01*
X141655042Y-127345377D01*
X141566393Y-127131359D01*
X141521200Y-126904158D01*
X141521200Y-126672506D01*
X141566393Y-126445305D01*
X141655042Y-126231287D01*
X141749462Y-126089978D01*
X141783739Y-126038678D01*
X141947546Y-125874871D01*
X142140154Y-125746175D01*
X142140155Y-125746174D01*
X142354173Y-125657525D01*
X142505640Y-125627396D01*
X142581373Y-125612332D01*
X142813027Y-125612332D01*
X142888760Y-125627396D01*
X142888760Y-125627396D01*
G37*
G36*
X137808760Y-125627396D02*
G01*
X137960227Y-125657525D01*
X138174245Y-125746174D01*
X138174246Y-125746175D01*
X138366854Y-125874871D01*
X138530661Y-126038678D01*
X138564938Y-126089978D01*
X138659358Y-126231287D01*
X138748007Y-126445305D01*
X138793200Y-126672506D01*
X138793200Y-126904158D01*
X138748007Y-127131359D01*
X138659358Y-127345377D01*
X138659357Y-127345378D01*
X138530661Y-127537986D01*
X138366854Y-127701793D01*
X138258273Y-127774344D01*
X138174245Y-127830490D01*
X137960227Y-127919139D01*
X137808760Y-127949268D01*
X137733027Y-127964332D01*
X137501373Y-127964332D01*
X137425640Y-127949268D01*
X137274173Y-127919139D01*
X137060155Y-127830490D01*
X136976127Y-127774344D01*
X136867546Y-127701793D01*
X136703739Y-127537986D01*
X136575043Y-127345378D01*
X136575042Y-127345377D01*
X136486393Y-127131359D01*
X136441200Y-126904158D01*
X136441200Y-126672506D01*
X136486393Y-126445305D01*
X136575042Y-126231287D01*
X136669462Y-126089978D01*
X136703739Y-126038678D01*
X136867546Y-125874871D01*
X137060154Y-125746175D01*
X137060155Y-125746174D01*
X137274173Y-125657525D01*
X137425640Y-125627396D01*
X137501373Y-125612332D01*
X137733027Y-125612332D01*
X137808760Y-125627396D01*
X137808760Y-125627396D01*
G37*
G36*
X180091800Y-127655000D02*
G01*
X176989800Y-127655000D01*
X176989800Y-126853000D01*
X180091800Y-126853000D01*
X180091800Y-127655000D01*
X180091800Y-127655000D01*
G37*
G36*
X188313071Y-124921783D02*
G01*
X188451658Y-124949350D01*
X188647477Y-125030461D01*
X188823710Y-125148216D01*
X188973584Y-125298090D01*
X189091339Y-125474323D01*
X189172450Y-125670142D01*
X189187574Y-125746175D01*
X189213174Y-125874873D01*
X189213800Y-125878023D01*
X189213800Y-126089977D01*
X189172450Y-126297858D01*
X189091339Y-126493677D01*
X188973584Y-126669910D01*
X188823710Y-126819784D01*
X188647477Y-126937539D01*
X188451658Y-127018650D01*
X188313071Y-127046217D01*
X188243778Y-127060000D01*
X188031822Y-127060000D01*
X187962529Y-127046217D01*
X187823942Y-127018650D01*
X187628123Y-126937539D01*
X187451890Y-126819784D01*
X187302016Y-126669910D01*
X187184261Y-126493677D01*
X187103150Y-126297858D01*
X187061800Y-126089977D01*
X187061800Y-125878023D01*
X187062427Y-125874873D01*
X187088026Y-125746175D01*
X187103150Y-125670142D01*
X187184261Y-125474323D01*
X187302016Y-125298090D01*
X187451890Y-125148216D01*
X187628123Y-125030461D01*
X187823942Y-124949350D01*
X187962529Y-124921783D01*
X188031822Y-124908000D01*
X188243778Y-124908000D01*
X188313071Y-124921783D01*
X188313071Y-124921783D01*
G37*
G36*
X171091800Y-126485000D02*
G01*
X167989800Y-126485000D01*
X167989800Y-125483000D01*
X171091800Y-125483000D01*
X171091800Y-126485000D01*
X171091800Y-126485000D01*
G37*
G36*
X180091800Y-126485000D02*
G01*
X176989800Y-126485000D01*
X176989800Y-125483000D01*
X180091800Y-125483000D01*
X180091800Y-126485000D01*
X180091800Y-126485000D01*
G37*
G36*
X180091800Y-125115000D02*
G01*
X176989800Y-125115000D01*
X176989800Y-124313000D01*
X180091800Y-124313000D01*
X180091800Y-125115000D01*
X180091800Y-125115000D01*
G37*
G36*
X190858982Y-122281000D02*
G01*
X191020827Y-122313193D01*
X191234845Y-122401842D01*
X191234846Y-122401843D01*
X191427454Y-122530539D01*
X191591261Y-122694346D01*
X191677058Y-122822751D01*
X191719958Y-122886955D01*
X191808607Y-123100973D01*
X191853800Y-123328174D01*
X191853800Y-123559826D01*
X191808607Y-123787027D01*
X191719958Y-124001045D01*
X191719957Y-124001046D01*
X191591261Y-124193654D01*
X191427454Y-124357461D01*
X191299049Y-124443258D01*
X191234845Y-124486158D01*
X191020827Y-124574807D01*
X190869360Y-124604936D01*
X190793627Y-124620000D01*
X190561973Y-124620000D01*
X190486240Y-124604936D01*
X190334773Y-124574807D01*
X190120755Y-124486158D01*
X190056551Y-124443258D01*
X189928146Y-124357461D01*
X189764339Y-124193654D01*
X189635643Y-124001046D01*
X189635642Y-124001045D01*
X189546993Y-123787027D01*
X189501800Y-123559826D01*
X189501800Y-123328174D01*
X189546993Y-123100973D01*
X189635642Y-122886955D01*
X189678542Y-122822751D01*
X189764339Y-122694346D01*
X189928146Y-122530539D01*
X190120754Y-122401843D01*
X190120755Y-122401842D01*
X190334773Y-122313193D01*
X190496618Y-122281000D01*
X190561973Y-122268000D01*
X190793627Y-122268000D01*
X190858982Y-122281000D01*
X190858982Y-122281000D01*
G37*
G36*
X185778982Y-122281000D02*
G01*
X185940827Y-122313193D01*
X186154845Y-122401842D01*
X186154846Y-122401843D01*
X186347454Y-122530539D01*
X186511261Y-122694346D01*
X186597058Y-122822751D01*
X186639958Y-122886955D01*
X186728607Y-123100973D01*
X186773800Y-123328174D01*
X186773800Y-123559826D01*
X186728607Y-123787027D01*
X186639958Y-124001045D01*
X186639957Y-124001046D01*
X186511261Y-124193654D01*
X186347454Y-124357461D01*
X186219049Y-124443258D01*
X186154845Y-124486158D01*
X185940827Y-124574807D01*
X185789360Y-124604936D01*
X185713627Y-124620000D01*
X185481973Y-124620000D01*
X185406240Y-124604936D01*
X185254773Y-124574807D01*
X185040755Y-124486158D01*
X184976551Y-124443258D01*
X184848146Y-124357461D01*
X184684339Y-124193654D01*
X184555643Y-124001046D01*
X184555642Y-124001045D01*
X184466993Y-123787027D01*
X184421800Y-123559826D01*
X184421800Y-123328174D01*
X184466993Y-123100973D01*
X184555642Y-122886955D01*
X184598542Y-122822751D01*
X184684339Y-122694346D01*
X184848146Y-122530539D01*
X185040754Y-122401843D01*
X185040755Y-122401842D01*
X185254773Y-122313193D01*
X185416618Y-122281000D01*
X185481973Y-122268000D01*
X185713627Y-122268000D01*
X185778982Y-122281000D01*
X185778982Y-122281000D01*
G37*
G36*
X171091800Y-123845000D02*
G01*
X167989800Y-123845000D01*
X167989800Y-123043000D01*
X171091800Y-123043000D01*
X171091800Y-123845000D01*
X171091800Y-123845000D01*
G37*
G36*
X153456200Y-123083000D02*
G01*
X149854200Y-123083000D01*
X149854200Y-122281000D01*
X153456200Y-122281000D01*
X153456200Y-123083000D01*
X153456200Y-123083000D01*
G37*
G36*
X161956200Y-123083000D02*
G01*
X158354200Y-123083000D01*
X158354200Y-122281000D01*
X161956200Y-122281000D01*
X161956200Y-123083000D01*
X161956200Y-123083000D01*
G37*
G36*
X171091800Y-122675000D02*
G01*
X167989800Y-122675000D01*
X167989800Y-121673000D01*
X171091800Y-121673000D01*
X171091800Y-122675000D01*
X171091800Y-122675000D01*
G37*
G36*
X137808760Y-120005530D02*
G01*
X137960227Y-120035659D01*
X138174245Y-120124308D01*
X138174246Y-120124309D01*
X138366854Y-120253005D01*
X138530661Y-120416812D01*
X138588250Y-120503000D01*
X138659358Y-120609421D01*
X138748007Y-120823439D01*
X138793200Y-121050640D01*
X138793200Y-121282292D01*
X138748007Y-121509493D01*
X138659358Y-121723511D01*
X138659357Y-121723512D01*
X138530661Y-121916120D01*
X138366854Y-122079927D01*
X138238449Y-122165724D01*
X138174245Y-122208624D01*
X137960227Y-122297273D01*
X137808760Y-122327402D01*
X137733027Y-122342466D01*
X137501373Y-122342466D01*
X137425640Y-122327402D01*
X137274173Y-122297273D01*
X137060155Y-122208624D01*
X136995951Y-122165724D01*
X136867546Y-122079927D01*
X136703739Y-121916120D01*
X136575043Y-121723512D01*
X136575042Y-121723511D01*
X136486393Y-121509493D01*
X136441200Y-121282292D01*
X136441200Y-121050640D01*
X136486393Y-120823439D01*
X136575042Y-120609421D01*
X136646150Y-120503000D01*
X136703739Y-120416812D01*
X136867546Y-120253005D01*
X137060154Y-120124309D01*
X137060155Y-120124308D01*
X137274173Y-120035659D01*
X137425640Y-120005530D01*
X137501373Y-119990466D01*
X137733027Y-119990466D01*
X137808760Y-120005530D01*
X137808760Y-120005530D01*
G37*
G36*
X142888760Y-120005530D02*
G01*
X143040227Y-120035659D01*
X143254245Y-120124308D01*
X143254246Y-120124309D01*
X143446854Y-120253005D01*
X143610661Y-120416812D01*
X143668250Y-120503000D01*
X143739358Y-120609421D01*
X143828007Y-120823439D01*
X143873200Y-121050640D01*
X143873200Y-121282292D01*
X143828007Y-121509493D01*
X143739358Y-121723511D01*
X143739357Y-121723512D01*
X143610661Y-121916120D01*
X143446854Y-122079927D01*
X143318449Y-122165724D01*
X143254245Y-122208624D01*
X143040227Y-122297273D01*
X142888760Y-122327402D01*
X142813027Y-122342466D01*
X142581373Y-122342466D01*
X142505640Y-122327402D01*
X142354173Y-122297273D01*
X142140155Y-122208624D01*
X142075951Y-122165724D01*
X141947546Y-122079927D01*
X141783739Y-121916120D01*
X141655043Y-121723512D01*
X141655042Y-121723511D01*
X141566393Y-121509493D01*
X141521200Y-121282292D01*
X141521200Y-121050640D01*
X141566393Y-120823439D01*
X141655042Y-120609421D01*
X141726150Y-120503000D01*
X141783739Y-120416812D01*
X141947546Y-120253005D01*
X142140154Y-120124309D01*
X142140155Y-120124308D01*
X142354173Y-120035659D01*
X142505640Y-120005530D01*
X142581373Y-119990466D01*
X142813027Y-119990466D01*
X142888760Y-120005530D01*
X142888760Y-120005530D01*
G37*
G36*
X161956200Y-121913000D02*
G01*
X158854200Y-121913000D01*
X158854200Y-120911000D01*
X161956200Y-120911000D01*
X161956200Y-121913000D01*
X161956200Y-121913000D01*
G37*
G36*
X152956200Y-121813000D02*
G01*
X149854200Y-121813000D01*
X149854200Y-121011000D01*
X152956200Y-121011000D01*
X152956200Y-121813000D01*
X152956200Y-121813000D01*
G37*
G36*
X180091800Y-121405000D02*
G01*
X176989800Y-121405000D01*
X176989800Y-120403000D01*
X180091800Y-120403000D01*
X180091800Y-121405000D01*
X180091800Y-121405000D01*
G37*
G36*
X171091800Y-121305000D02*
G01*
X167989800Y-121305000D01*
X167989800Y-120503000D01*
X171091800Y-120503000D01*
X171091800Y-121305000D01*
X171091800Y-121305000D01*
G37*
G36*
X152956200Y-120643000D02*
G01*
X149854200Y-120643000D01*
X149854200Y-119641000D01*
X152956200Y-119641000D01*
X152956200Y-120643000D01*
X152956200Y-120643000D01*
G37*
G36*
X171591800Y-120035000D02*
G01*
X167989800Y-120035000D01*
X167989800Y-119233000D01*
X171591800Y-119233000D01*
X171591800Y-120035000D01*
X171591800Y-120035000D01*
G37*
G36*
X180091800Y-120035000D02*
G01*
X176489800Y-120035000D01*
X176489800Y-119233000D01*
X180091800Y-119233000D01*
X180091800Y-120035000D01*
X180091800Y-120035000D01*
G37*
G36*
X140332471Y-117564249D02*
G01*
X140471058Y-117591816D01*
X140666877Y-117672927D01*
X140843110Y-117790682D01*
X140992984Y-117940556D01*
X141110739Y-118116789D01*
X141191850Y-118312608D01*
X141233200Y-118520489D01*
X141233200Y-118732443D01*
X141191850Y-118940324D01*
X141110739Y-119136143D01*
X140992984Y-119312376D01*
X140843110Y-119462250D01*
X140666877Y-119580005D01*
X140471058Y-119661116D01*
X140332471Y-119688683D01*
X140263178Y-119702466D01*
X140051222Y-119702466D01*
X139981929Y-119688683D01*
X139843342Y-119661116D01*
X139647523Y-119580005D01*
X139471290Y-119462250D01*
X139321416Y-119312376D01*
X139203661Y-119136143D01*
X139122550Y-118940324D01*
X139081200Y-118732443D01*
X139081200Y-118520489D01*
X139122550Y-118312608D01*
X139203661Y-118116789D01*
X139321416Y-117940556D01*
X139471290Y-117790682D01*
X139647523Y-117672927D01*
X139843342Y-117591816D01*
X139981929Y-117564249D01*
X140051222Y-117550466D01*
X140263178Y-117550466D01*
X140332471Y-117564249D01*
X140332471Y-117564249D01*
G37*
G36*
X152956200Y-119273000D02*
G01*
X149854200Y-119273000D01*
X149854200Y-118471000D01*
X152956200Y-118471000D01*
X152956200Y-119273000D01*
X152956200Y-119273000D01*
G37*
G36*
X161956200Y-118003000D02*
G01*
X158854200Y-118003000D01*
X158854200Y-117201000D01*
X161956200Y-117201000D01*
X161956200Y-118003000D01*
X161956200Y-118003000D01*
G37*
G36*
X137808760Y-114925530D02*
G01*
X137960227Y-114955659D01*
X138174245Y-115044308D01*
X138174246Y-115044309D01*
X138366854Y-115173005D01*
X138530661Y-115336812D01*
X138614977Y-115463000D01*
X138659358Y-115529421D01*
X138748007Y-115743439D01*
X138793200Y-115970640D01*
X138793200Y-116202292D01*
X138748007Y-116429493D01*
X138659358Y-116643511D01*
X138659357Y-116643512D01*
X138530661Y-116836120D01*
X138366854Y-116999927D01*
X138238449Y-117085724D01*
X138174245Y-117128624D01*
X137960227Y-117217273D01*
X137808760Y-117247402D01*
X137733027Y-117262466D01*
X137501373Y-117262466D01*
X137425640Y-117247402D01*
X137274173Y-117217273D01*
X137060155Y-117128624D01*
X136995951Y-117085724D01*
X136867546Y-116999927D01*
X136703739Y-116836120D01*
X136575043Y-116643512D01*
X136575042Y-116643511D01*
X136486393Y-116429493D01*
X136441200Y-116202292D01*
X136441200Y-115970640D01*
X136486393Y-115743439D01*
X136575042Y-115529421D01*
X136619423Y-115463000D01*
X136703739Y-115336812D01*
X136867546Y-115173005D01*
X137060154Y-115044309D01*
X137060155Y-115044308D01*
X137274173Y-114955659D01*
X137425640Y-114925530D01*
X137501373Y-114910466D01*
X137733027Y-114910466D01*
X137808760Y-114925530D01*
X137808760Y-114925530D01*
G37*
G36*
X142888760Y-114925530D02*
G01*
X143040227Y-114955659D01*
X143254245Y-115044308D01*
X143254246Y-115044309D01*
X143446854Y-115173005D01*
X143610661Y-115336812D01*
X143694977Y-115463000D01*
X143739358Y-115529421D01*
X143828007Y-115743439D01*
X143873200Y-115970640D01*
X143873200Y-116202292D01*
X143828007Y-116429493D01*
X143739358Y-116643511D01*
X143739357Y-116643512D01*
X143610661Y-116836120D01*
X143446854Y-116999927D01*
X143318449Y-117085724D01*
X143254245Y-117128624D01*
X143040227Y-117217273D01*
X142888760Y-117247402D01*
X142813027Y-117262466D01*
X142581373Y-117262466D01*
X142505640Y-117247402D01*
X142354173Y-117217273D01*
X142140155Y-117128624D01*
X142075951Y-117085724D01*
X141947546Y-116999927D01*
X141783739Y-116836120D01*
X141655043Y-116643512D01*
X141655042Y-116643511D01*
X141566393Y-116429493D01*
X141521200Y-116202292D01*
X141521200Y-115970640D01*
X141566393Y-115743439D01*
X141655042Y-115529421D01*
X141699423Y-115463000D01*
X141783739Y-115336812D01*
X141947546Y-115173005D01*
X142140154Y-115044309D01*
X142140155Y-115044308D01*
X142354173Y-114955659D01*
X142505640Y-114925530D01*
X142581373Y-114910466D01*
X142813027Y-114910466D01*
X142888760Y-114925530D01*
X142888760Y-114925530D01*
G37*
G36*
X152956200Y-116833000D02*
G01*
X149854200Y-116833000D01*
X149854200Y-115831000D01*
X152956200Y-115831000D01*
X152956200Y-116833000D01*
X152956200Y-116833000D01*
G37*
G36*
X161956200Y-116833000D02*
G01*
X158854200Y-116833000D01*
X158854200Y-115831000D01*
X161956200Y-115831000D01*
X161956200Y-116833000D01*
X161956200Y-116833000D01*
G37*
G36*
X161956200Y-115463000D02*
G01*
X158854200Y-115463000D01*
X158854200Y-114661000D01*
X161956200Y-114661000D01*
X161956200Y-115463000D01*
X161956200Y-115463000D01*
G37*
G36*
X152956200Y-114193000D02*
G01*
X149854200Y-114193000D01*
X149854200Y-113391000D01*
X152956200Y-113391000D01*
X152956200Y-114193000D01*
X152956200Y-114193000D01*
G37*
G36*
X152956200Y-113023000D02*
G01*
X149854200Y-113023000D01*
X149854200Y-112021000D01*
X152956200Y-112021000D01*
X152956200Y-113023000D01*
X152956200Y-113023000D01*
G37*
G36*
X178083400Y-112559200D02*
G01*
X177181400Y-112559200D01*
X177181400Y-110557200D01*
X178083400Y-110557200D01*
X178083400Y-112559200D01*
X178083400Y-112559200D01*
G37*
G36*
X176183400Y-112559200D02*
G01*
X175281400Y-112559200D01*
X175281400Y-110557200D01*
X176183400Y-110557200D01*
X176183400Y-112559200D01*
X176183400Y-112559200D01*
G37*
G36*
X182477600Y-112559200D02*
G01*
X181575600Y-112559200D01*
X181575600Y-110557200D01*
X182477600Y-110557200D01*
X182477600Y-112559200D01*
X182477600Y-112559200D01*
G37*
G36*
X180577600Y-112559200D02*
G01*
X179675600Y-112559200D01*
X179675600Y-110557200D01*
X180577600Y-110557200D01*
X180577600Y-112559200D01*
X180577600Y-112559200D01*
G37*
G36*
X167776000Y-112322800D02*
G01*
X165774000Y-112322800D01*
X165774000Y-111420800D01*
X167776000Y-111420800D01*
X167776000Y-112322800D01*
X167776000Y-112322800D01*
G37*
G36*
X161956200Y-111753000D02*
G01*
X158854200Y-111753000D01*
X158854200Y-110751000D01*
X161956200Y-110751000D01*
X161956200Y-111753000D01*
X161956200Y-111753000D01*
G37*
G36*
X152956200Y-111653000D02*
G01*
X149854200Y-111653000D01*
X149854200Y-110851000D01*
X152956200Y-110851000D01*
X152956200Y-111653000D01*
X152956200Y-111653000D01*
G37*
G36*
X142888760Y-109303664D02*
G01*
X143040227Y-109333793D01*
X143254245Y-109422442D01*
X143254246Y-109422443D01*
X143446854Y-109551139D01*
X143610661Y-109714946D01*
X143696458Y-109843351D01*
X143739358Y-109907555D01*
X143828007Y-110121573D01*
X143873200Y-110348774D01*
X143873200Y-110580426D01*
X143828007Y-110807627D01*
X143739358Y-111021645D01*
X143739357Y-111021646D01*
X143610661Y-111214254D01*
X143446854Y-111378061D01*
X143382890Y-111420800D01*
X143254245Y-111506758D01*
X143040227Y-111595407D01*
X142888760Y-111625536D01*
X142813027Y-111640600D01*
X142581373Y-111640600D01*
X142505640Y-111625536D01*
X142354173Y-111595407D01*
X142140155Y-111506758D01*
X142011510Y-111420800D01*
X141947546Y-111378061D01*
X141783739Y-111214254D01*
X141655043Y-111021646D01*
X141655042Y-111021645D01*
X141566393Y-110807627D01*
X141521200Y-110580426D01*
X141521200Y-110348774D01*
X141566393Y-110121573D01*
X141655042Y-109907555D01*
X141697942Y-109843351D01*
X141783739Y-109714946D01*
X141947546Y-109551139D01*
X142140154Y-109422443D01*
X142140155Y-109422442D01*
X142354173Y-109333793D01*
X142505640Y-109303664D01*
X142581373Y-109288600D01*
X142813027Y-109288600D01*
X142888760Y-109303664D01*
X142888760Y-109303664D01*
G37*
G36*
X137808760Y-109303664D02*
G01*
X137960227Y-109333793D01*
X138174245Y-109422442D01*
X138174246Y-109422443D01*
X138366854Y-109551139D01*
X138530661Y-109714946D01*
X138616458Y-109843351D01*
X138659358Y-109907555D01*
X138748007Y-110121573D01*
X138793200Y-110348774D01*
X138793200Y-110580426D01*
X138748007Y-110807627D01*
X138659358Y-111021645D01*
X138659357Y-111021646D01*
X138530661Y-111214254D01*
X138366854Y-111378061D01*
X138302890Y-111420800D01*
X138174245Y-111506758D01*
X137960227Y-111595407D01*
X137808760Y-111625536D01*
X137733027Y-111640600D01*
X137501373Y-111640600D01*
X137425640Y-111625536D01*
X137274173Y-111595407D01*
X137060155Y-111506758D01*
X136931510Y-111420800D01*
X136867546Y-111378061D01*
X136703739Y-111214254D01*
X136575043Y-111021646D01*
X136575042Y-111021645D01*
X136486393Y-110807627D01*
X136441200Y-110580426D01*
X136441200Y-110348774D01*
X136486393Y-110121573D01*
X136575042Y-109907555D01*
X136617942Y-109843351D01*
X136703739Y-109714946D01*
X136867546Y-109551139D01*
X137060154Y-109422443D01*
X137060155Y-109422442D01*
X137274173Y-109333793D01*
X137425640Y-109303664D01*
X137501373Y-109288600D01*
X137733027Y-109288600D01*
X137808760Y-109303664D01*
X137808760Y-109303664D01*
G37*
G36*
X170776000Y-111372800D02*
G01*
X168774000Y-111372800D01*
X168774000Y-110470800D01*
X170776000Y-110470800D01*
X170776000Y-111372800D01*
X170776000Y-111372800D01*
G37*
G36*
X167776000Y-110422800D02*
G01*
X165774000Y-110422800D01*
X165774000Y-109520800D01*
X167776000Y-109520800D01*
X167776000Y-110422800D01*
X167776000Y-110422800D01*
G37*
G36*
X153456200Y-110383000D02*
G01*
X149854200Y-110383000D01*
X149854200Y-109581000D01*
X153456200Y-109581000D01*
X153456200Y-110383000D01*
X153456200Y-110383000D01*
G37*
G36*
X161956200Y-110383000D02*
G01*
X158354200Y-110383000D01*
X158354200Y-109581000D01*
X161956200Y-109581000D01*
X161956200Y-110383000D01*
X161956200Y-110383000D01*
G37*
G36*
X177133400Y-109559200D02*
G01*
X176231400Y-109559200D01*
X176231400Y-107557200D01*
X177133400Y-107557200D01*
X177133400Y-109559200D01*
X177133400Y-109559200D01*
G37*
G36*
X181527600Y-109559200D02*
G01*
X180625600Y-109559200D01*
X180625600Y-107557200D01*
X181527600Y-107557200D01*
X181527600Y-109559200D01*
X181527600Y-109559200D01*
G37*
G36*
X140332471Y-106862383D02*
G01*
X140471058Y-106889950D01*
X140666877Y-106971061D01*
X140843110Y-107088816D01*
X140992984Y-107238690D01*
X141110739Y-107414923D01*
X141191850Y-107610742D01*
X141233200Y-107818623D01*
X141233200Y-108030577D01*
X141191850Y-108238458D01*
X141110739Y-108434277D01*
X140992984Y-108610510D01*
X140843110Y-108760384D01*
X140666877Y-108878139D01*
X140471058Y-108959250D01*
X140332471Y-108986817D01*
X140263178Y-109000600D01*
X140051222Y-109000600D01*
X139981929Y-108986817D01*
X139843342Y-108959250D01*
X139647523Y-108878139D01*
X139471290Y-108760384D01*
X139321416Y-108610510D01*
X139203661Y-108434277D01*
X139122550Y-108238458D01*
X139081200Y-108030577D01*
X139081200Y-107818623D01*
X139122550Y-107610742D01*
X139203661Y-107414923D01*
X139321416Y-107238690D01*
X139471290Y-107088816D01*
X139647523Y-106971061D01*
X139843342Y-106889950D01*
X139981929Y-106862383D01*
X140051222Y-106848600D01*
X140263178Y-106848600D01*
X140332471Y-106862383D01*
X140332471Y-106862383D01*
G37*
G36*
X167776000Y-107293600D02*
G01*
X165774000Y-107293600D01*
X165774000Y-106391600D01*
X167776000Y-106391600D01*
X167776000Y-107293600D01*
X167776000Y-107293600D01*
G37*
G36*
X189744442Y-105288318D02*
G01*
X189810627Y-105294837D01*
X189980466Y-105346357D01*
X190136991Y-105430022D01*
X190172729Y-105459352D01*
X190274186Y-105542614D01*
X190357448Y-105644071D01*
X190386778Y-105679809D01*
X190470443Y-105836334D01*
X190521963Y-106006173D01*
X190539359Y-106182800D01*
X190521963Y-106359427D01*
X190474647Y-106515407D01*
X190470442Y-106529268D01*
X190428611Y-106607528D01*
X190386778Y-106685791D01*
X190357448Y-106721529D01*
X190274186Y-106822986D01*
X190172729Y-106906248D01*
X190136991Y-106935578D01*
X189980466Y-107019243D01*
X189810627Y-107070763D01*
X189744443Y-107077281D01*
X189678260Y-107083800D01*
X189289740Y-107083800D01*
X189223557Y-107077281D01*
X189157373Y-107070763D01*
X188987534Y-107019243D01*
X188831009Y-106935578D01*
X188795271Y-106906248D01*
X188693814Y-106822986D01*
X188610552Y-106721529D01*
X188581222Y-106685791D01*
X188539389Y-106607528D01*
X188497558Y-106529268D01*
X188493353Y-106515407D01*
X188446037Y-106359427D01*
X188428641Y-106182800D01*
X188446037Y-106006173D01*
X188497557Y-105836334D01*
X188581222Y-105679809D01*
X188610552Y-105644071D01*
X188693814Y-105542614D01*
X188795271Y-105459352D01*
X188831009Y-105430022D01*
X188987534Y-105346357D01*
X189157373Y-105294837D01*
X189223557Y-105288319D01*
X189289740Y-105281800D01*
X189678260Y-105281800D01*
X189744442Y-105288318D01*
X189744442Y-105288318D01*
G37*
G36*
X142888760Y-104223664D02*
G01*
X143040227Y-104253793D01*
X143254245Y-104342442D01*
X143254246Y-104342443D01*
X143446854Y-104471139D01*
X143610661Y-104634946D01*
X143696458Y-104763351D01*
X143739358Y-104827555D01*
X143828007Y-105041573D01*
X143873200Y-105268774D01*
X143873200Y-105500426D01*
X143828007Y-105727627D01*
X143739358Y-105941645D01*
X143739357Y-105941646D01*
X143610661Y-106134254D01*
X143446854Y-106298061D01*
X143355016Y-106359425D01*
X143254245Y-106426758D01*
X143040227Y-106515407D01*
X142888760Y-106545536D01*
X142813027Y-106560600D01*
X142581373Y-106560600D01*
X142505640Y-106545536D01*
X142354173Y-106515407D01*
X142140155Y-106426758D01*
X142039384Y-106359425D01*
X141947546Y-106298061D01*
X141783739Y-106134254D01*
X141655043Y-105941646D01*
X141655042Y-105941645D01*
X141566393Y-105727627D01*
X141521200Y-105500426D01*
X141521200Y-105268774D01*
X141566393Y-105041573D01*
X141655042Y-104827555D01*
X141697942Y-104763351D01*
X141783739Y-104634946D01*
X141947546Y-104471139D01*
X142140154Y-104342443D01*
X142140155Y-104342442D01*
X142354173Y-104253793D01*
X142505640Y-104223664D01*
X142581373Y-104208600D01*
X142813027Y-104208600D01*
X142888760Y-104223664D01*
X142888760Y-104223664D01*
G37*
G36*
X137808760Y-104223664D02*
G01*
X137960227Y-104253793D01*
X138174245Y-104342442D01*
X138174246Y-104342443D01*
X138366854Y-104471139D01*
X138530661Y-104634946D01*
X138616458Y-104763351D01*
X138659358Y-104827555D01*
X138748007Y-105041573D01*
X138793200Y-105268774D01*
X138793200Y-105500426D01*
X138748007Y-105727627D01*
X138659358Y-105941645D01*
X138659357Y-105941646D01*
X138530661Y-106134254D01*
X138366854Y-106298061D01*
X138275016Y-106359425D01*
X138174245Y-106426758D01*
X137960227Y-106515407D01*
X137808760Y-106545536D01*
X137733027Y-106560600D01*
X137501373Y-106560600D01*
X137425640Y-106545536D01*
X137274173Y-106515407D01*
X137060155Y-106426758D01*
X136959384Y-106359425D01*
X136867546Y-106298061D01*
X136703739Y-106134254D01*
X136575043Y-105941646D01*
X136575042Y-105941645D01*
X136486393Y-105727627D01*
X136441200Y-105500426D01*
X136441200Y-105268774D01*
X136486393Y-105041573D01*
X136575042Y-104827555D01*
X136617942Y-104763351D01*
X136703739Y-104634946D01*
X136867546Y-104471139D01*
X137060154Y-104342443D01*
X137060155Y-104342442D01*
X137274173Y-104253793D01*
X137425640Y-104223664D01*
X137501373Y-104208600D01*
X137733027Y-104208600D01*
X137808760Y-104223664D01*
X137808760Y-104223664D01*
G37*
G36*
X152358200Y-106539400D02*
G01*
X151456200Y-106539400D01*
X151456200Y-104537400D01*
X152358200Y-104537400D01*
X152358200Y-106539400D01*
X152358200Y-106539400D01*
G37*
G36*
X154258200Y-106539400D02*
G01*
X153356200Y-106539400D01*
X153356200Y-104537400D01*
X154258200Y-104537400D01*
X154258200Y-106539400D01*
X154258200Y-106539400D01*
G37*
G36*
X157641400Y-106488600D02*
G01*
X156739400Y-106488600D01*
X156739400Y-104486600D01*
X157641400Y-104486600D01*
X157641400Y-106488600D01*
X157641400Y-106488600D01*
G37*
G36*
X159541400Y-106488600D02*
G01*
X158639400Y-106488600D01*
X158639400Y-104486600D01*
X159541400Y-104486600D01*
X159541400Y-106488600D01*
X159541400Y-106488600D01*
G37*
G36*
X170776000Y-106343600D02*
G01*
X168774000Y-106343600D01*
X168774000Y-105441600D01*
X170776000Y-105441600D01*
X170776000Y-106343600D01*
X170776000Y-106343600D01*
G37*
G36*
X167776000Y-105393600D02*
G01*
X165774000Y-105393600D01*
X165774000Y-104491600D01*
X167776000Y-104491600D01*
X167776000Y-105393600D01*
X167776000Y-105393600D01*
G37*
G36*
X174913299Y-103935445D02*
G01*
X174950795Y-103946820D01*
X174985354Y-103965292D01*
X175015647Y-103990153D01*
X175040508Y-104020446D01*
X175058980Y-104055005D01*
X175070355Y-104092501D01*
X175074800Y-104137638D01*
X175074800Y-104876362D01*
X175070355Y-104921499D01*
X175058980Y-104958995D01*
X175040508Y-104993554D01*
X175015647Y-105023847D01*
X174985354Y-105048708D01*
X174950795Y-105067180D01*
X174913299Y-105078555D01*
X174868162Y-105083000D01*
X174229438Y-105083000D01*
X174184301Y-105078555D01*
X174146805Y-105067180D01*
X174112246Y-105048708D01*
X174081953Y-105023847D01*
X174057092Y-104993554D01*
X174038620Y-104958995D01*
X174027245Y-104921499D01*
X174022800Y-104876362D01*
X174022800Y-104137638D01*
X174027245Y-104092501D01*
X174038620Y-104055005D01*
X174057092Y-104020446D01*
X174081953Y-103990153D01*
X174112246Y-103965292D01*
X174146805Y-103946820D01*
X174184301Y-103935445D01*
X174229438Y-103931000D01*
X174868162Y-103931000D01*
X174913299Y-103935445D01*
X174913299Y-103935445D01*
G37*
G36*
X176894499Y-103935445D02*
G01*
X176931995Y-103946820D01*
X176966554Y-103965292D01*
X176996847Y-103990153D01*
X177021708Y-104020446D01*
X177040180Y-104055005D01*
X177051555Y-104092501D01*
X177056000Y-104137638D01*
X177056000Y-104876362D01*
X177051555Y-104921499D01*
X177040180Y-104958995D01*
X177021708Y-104993554D01*
X176996847Y-105023847D01*
X176966554Y-105048708D01*
X176931995Y-105067180D01*
X176894499Y-105078555D01*
X176849362Y-105083000D01*
X176210638Y-105083000D01*
X176165501Y-105078555D01*
X176128005Y-105067180D01*
X176093446Y-105048708D01*
X176063153Y-105023847D01*
X176038292Y-104993554D01*
X176019820Y-104958995D01*
X176008445Y-104921499D01*
X176004000Y-104876362D01*
X176004000Y-104137638D01*
X176008445Y-104092501D01*
X176019820Y-104055005D01*
X176038292Y-104020446D01*
X176063153Y-103990153D01*
X176093446Y-103965292D01*
X176128005Y-103946820D01*
X176165501Y-103935445D01*
X176210638Y-103931000D01*
X176849362Y-103931000D01*
X176894499Y-103935445D01*
X176894499Y-103935445D01*
G37*
G36*
X182288600Y-105024000D02*
G01*
X180626600Y-105024000D01*
X180626600Y-102372000D01*
X182288600Y-102372000D01*
X182288600Y-105024000D01*
X182288600Y-105024000D01*
G37*
G36*
X179588600Y-105024000D02*
G01*
X177926600Y-105024000D01*
X177926600Y-104272000D01*
X179588600Y-104272000D01*
X179588600Y-105024000D01*
X179588600Y-105024000D01*
G37*
G36*
X190392600Y-102785789D02*
G01*
X190425652Y-102795815D01*
X190456103Y-102812092D01*
X190482799Y-102834001D01*
X190504708Y-102860697D01*
X190520985Y-102891148D01*
X190531011Y-102924200D01*
X190535000Y-102964703D01*
X190535000Y-104400897D01*
X190531011Y-104441400D01*
X190520985Y-104474452D01*
X190504708Y-104504903D01*
X190482799Y-104531599D01*
X190456103Y-104553508D01*
X190425652Y-104569785D01*
X190392600Y-104579811D01*
X190352097Y-104583800D01*
X188615903Y-104583800D01*
X188575400Y-104579811D01*
X188542348Y-104569785D01*
X188511897Y-104553508D01*
X188485201Y-104531599D01*
X188463292Y-104504903D01*
X188447015Y-104474452D01*
X188436989Y-104441400D01*
X188433000Y-104400897D01*
X188433000Y-102964703D01*
X188436989Y-102924200D01*
X188447015Y-102891148D01*
X188463292Y-102860697D01*
X188485201Y-102834001D01*
X188511897Y-102812092D01*
X188542348Y-102795815D01*
X188575400Y-102785789D01*
X188615903Y-102781800D01*
X190352097Y-102781800D01*
X190392600Y-102785789D01*
X190392600Y-102785789D01*
G37*
G36*
X153308200Y-103539400D02*
G01*
X152406200Y-103539400D01*
X152406200Y-101537400D01*
X153308200Y-101537400D01*
X153308200Y-103539400D01*
X153308200Y-103539400D01*
G37*
G36*
X158591400Y-103488600D02*
G01*
X157689400Y-103488600D01*
X157689400Y-101486600D01*
X158591400Y-101486600D01*
X158591400Y-103488600D01*
X158591400Y-103488600D01*
G37*
G36*
X176894499Y-102185445D02*
G01*
X176931995Y-102196820D01*
X176966554Y-102215292D01*
X176996847Y-102240153D01*
X177021708Y-102270446D01*
X177040180Y-102305005D01*
X177051555Y-102342501D01*
X177056000Y-102387638D01*
X177056000Y-103126362D01*
X177051555Y-103171499D01*
X177040180Y-103208995D01*
X177021708Y-103243554D01*
X176996847Y-103273847D01*
X176966554Y-103298708D01*
X176931995Y-103317180D01*
X176894499Y-103328555D01*
X176849362Y-103333000D01*
X176210638Y-103333000D01*
X176165501Y-103328555D01*
X176128005Y-103317180D01*
X176093446Y-103298708D01*
X176063153Y-103273847D01*
X176038292Y-103243554D01*
X176019820Y-103208995D01*
X176008445Y-103171499D01*
X176004000Y-103126362D01*
X176004000Y-102387638D01*
X176008445Y-102342501D01*
X176019820Y-102305005D01*
X176038292Y-102270446D01*
X176063153Y-102240153D01*
X176093446Y-102215292D01*
X176128005Y-102196820D01*
X176165501Y-102185445D01*
X176210638Y-102181000D01*
X176849362Y-102181000D01*
X176894499Y-102185445D01*
X176894499Y-102185445D01*
G37*
G36*
X174913299Y-102185445D02*
G01*
X174950795Y-102196820D01*
X174985354Y-102215292D01*
X175015647Y-102240153D01*
X175040508Y-102270446D01*
X175058980Y-102305005D01*
X175070355Y-102342501D01*
X175074800Y-102387638D01*
X175074800Y-103126362D01*
X175070355Y-103171499D01*
X175058980Y-103208995D01*
X175040508Y-103243554D01*
X175015647Y-103273847D01*
X174985354Y-103298708D01*
X174950795Y-103317180D01*
X174913299Y-103328555D01*
X174868162Y-103333000D01*
X174229438Y-103333000D01*
X174184301Y-103328555D01*
X174146805Y-103317180D01*
X174112246Y-103298708D01*
X174081953Y-103273847D01*
X174057092Y-103243554D01*
X174038620Y-103208995D01*
X174027245Y-103171499D01*
X174022800Y-103126362D01*
X174022800Y-102387638D01*
X174027245Y-102342501D01*
X174038620Y-102305005D01*
X174057092Y-102270446D01*
X174081953Y-102240153D01*
X174112246Y-102215292D01*
X174146805Y-102196820D01*
X174184301Y-102185445D01*
X174229438Y-102181000D01*
X174868162Y-102181000D01*
X174913299Y-102185445D01*
X174913299Y-102185445D01*
G37*
G36*
X179588600Y-103124000D02*
G01*
X177926600Y-103124000D01*
X177926600Y-102372000D01*
X179588600Y-102372000D01*
X179588600Y-103124000D01*
X179588600Y-103124000D01*
G37*
G36*
X179434499Y-99973045D02*
G01*
X179471995Y-99984420D01*
X179506554Y-100002892D01*
X179536847Y-100027753D01*
X179561708Y-100058046D01*
X179580180Y-100092605D01*
X179591555Y-100130101D01*
X179596000Y-100175238D01*
X179596000Y-100913962D01*
X179591555Y-100959099D01*
X179580180Y-100996595D01*
X179561708Y-101031154D01*
X179536847Y-101061447D01*
X179506554Y-101086308D01*
X179471995Y-101104780D01*
X179434499Y-101116155D01*
X179389362Y-101120600D01*
X178750638Y-101120600D01*
X178705501Y-101116155D01*
X178668005Y-101104780D01*
X178633446Y-101086308D01*
X178603153Y-101061447D01*
X178578292Y-101031154D01*
X178559820Y-100996595D01*
X178548445Y-100959099D01*
X178544000Y-100913962D01*
X178544000Y-100175238D01*
X178548445Y-100130101D01*
X178559820Y-100092605D01*
X178578292Y-100058046D01*
X178603153Y-100027753D01*
X178633446Y-100002892D01*
X178668005Y-99984420D01*
X178705501Y-99973045D01*
X178750638Y-99968600D01*
X179389362Y-99968600D01*
X179434499Y-99973045D01*
X179434499Y-99973045D01*
G37*
G36*
X181923699Y-99947645D02*
G01*
X181961195Y-99959020D01*
X181995754Y-99977492D01*
X182026047Y-100002353D01*
X182050908Y-100032646D01*
X182069380Y-100067205D01*
X182080755Y-100104701D01*
X182085200Y-100149838D01*
X182085200Y-100888562D01*
X182080755Y-100933699D01*
X182069380Y-100971195D01*
X182050908Y-101005754D01*
X182026047Y-101036047D01*
X181995754Y-101060908D01*
X181961195Y-101079380D01*
X181923699Y-101090755D01*
X181878562Y-101095200D01*
X181239838Y-101095200D01*
X181194701Y-101090755D01*
X181157205Y-101079380D01*
X181122646Y-101060908D01*
X181092353Y-101036047D01*
X181067492Y-101005754D01*
X181049020Y-100971195D01*
X181037645Y-100933699D01*
X181033200Y-100888562D01*
X181033200Y-100149838D01*
X181037645Y-100104701D01*
X181049020Y-100067205D01*
X181067492Y-100032646D01*
X181092353Y-100002353D01*
X181122646Y-99977492D01*
X181157205Y-99959020D01*
X181194701Y-99947645D01*
X181239838Y-99943200D01*
X181878562Y-99943200D01*
X181923699Y-99947645D01*
X181923699Y-99947645D01*
G37*
G36*
X164150402Y-99139844D02*
G01*
X164176179Y-99147664D01*
X164199933Y-99160361D01*
X164220753Y-99177447D01*
X164237839Y-99198267D01*
X164250360Y-99221692D01*
X164263973Y-99242066D01*
X164281300Y-99259393D01*
X164301674Y-99273007D01*
X164324313Y-99282385D01*
X164348346Y-99287166D01*
X164372850Y-99287166D01*
X164396884Y-99282386D01*
X164419523Y-99273009D01*
X164439897Y-99259396D01*
X164457224Y-99242069D01*
X164470840Y-99221692D01*
X164483361Y-99198267D01*
X164500447Y-99177447D01*
X164521267Y-99160361D01*
X164545021Y-99147664D01*
X164570798Y-99139844D01*
X164603738Y-99136600D01*
X165117462Y-99136600D01*
X165150402Y-99139844D01*
X165176179Y-99147664D01*
X165199933Y-99160361D01*
X165220753Y-99177447D01*
X165237839Y-99198267D01*
X165250360Y-99221692D01*
X165263973Y-99242066D01*
X165281300Y-99259393D01*
X165301674Y-99273007D01*
X165324313Y-99282385D01*
X165348346Y-99287166D01*
X165372850Y-99287166D01*
X165396884Y-99282386D01*
X165419523Y-99273009D01*
X165439897Y-99259396D01*
X165457224Y-99242069D01*
X165470840Y-99221692D01*
X165483361Y-99198267D01*
X165500447Y-99177447D01*
X165521267Y-99160361D01*
X165545021Y-99147664D01*
X165570798Y-99139844D01*
X165603738Y-99136600D01*
X166117462Y-99136600D01*
X166150402Y-99139844D01*
X166176179Y-99147664D01*
X166199933Y-99160361D01*
X166220753Y-99177447D01*
X166237839Y-99198267D01*
X166250360Y-99221692D01*
X166263973Y-99242066D01*
X166281300Y-99259393D01*
X166301674Y-99273007D01*
X166324313Y-99282385D01*
X166348346Y-99287166D01*
X166372850Y-99287166D01*
X166396884Y-99282386D01*
X166419523Y-99273009D01*
X166439897Y-99259396D01*
X166457224Y-99242069D01*
X166470840Y-99221692D01*
X166483361Y-99198267D01*
X166500447Y-99177447D01*
X166521267Y-99160361D01*
X166545021Y-99147664D01*
X166570798Y-99139844D01*
X166603738Y-99136600D01*
X167117462Y-99136600D01*
X167150402Y-99139844D01*
X167176179Y-99147664D01*
X167199933Y-99160361D01*
X167220753Y-99177447D01*
X167237839Y-99198267D01*
X167250360Y-99221692D01*
X167263973Y-99242066D01*
X167281300Y-99259393D01*
X167301674Y-99273007D01*
X167324313Y-99282385D01*
X167348346Y-99287166D01*
X167372850Y-99287166D01*
X167396884Y-99282386D01*
X167419523Y-99273009D01*
X167439897Y-99259396D01*
X167457224Y-99242069D01*
X167470840Y-99221692D01*
X167483361Y-99198267D01*
X167500447Y-99177447D01*
X167521267Y-99160361D01*
X167545021Y-99147664D01*
X167570798Y-99139844D01*
X167603738Y-99136600D01*
X168117462Y-99136600D01*
X168150402Y-99139844D01*
X168176179Y-99147664D01*
X168199933Y-99160361D01*
X168220753Y-99177447D01*
X168237839Y-99198267D01*
X168250360Y-99221692D01*
X168263973Y-99242066D01*
X168281300Y-99259393D01*
X168301674Y-99273007D01*
X168324313Y-99282385D01*
X168348346Y-99287166D01*
X168372850Y-99287166D01*
X168396884Y-99282386D01*
X168419523Y-99273009D01*
X168439897Y-99259396D01*
X168457224Y-99242069D01*
X168470840Y-99221692D01*
X168483361Y-99198267D01*
X168500447Y-99177447D01*
X168521267Y-99160361D01*
X168545021Y-99147664D01*
X168570798Y-99139844D01*
X168603738Y-99136600D01*
X169117462Y-99136600D01*
X169150402Y-99139844D01*
X169176179Y-99147664D01*
X169199933Y-99160361D01*
X169220753Y-99177447D01*
X169237839Y-99198267D01*
X169250360Y-99221692D01*
X169263973Y-99242066D01*
X169281300Y-99259393D01*
X169301674Y-99273007D01*
X169324313Y-99282385D01*
X169348346Y-99287166D01*
X169372850Y-99287166D01*
X169396884Y-99282386D01*
X169419523Y-99273009D01*
X169439897Y-99259396D01*
X169457224Y-99242069D01*
X169470840Y-99221692D01*
X169483361Y-99198267D01*
X169500447Y-99177447D01*
X169521267Y-99160361D01*
X169545021Y-99147664D01*
X169570798Y-99139844D01*
X169603738Y-99136600D01*
X170117462Y-99136600D01*
X170150402Y-99139844D01*
X170176179Y-99147664D01*
X170199933Y-99160361D01*
X170220753Y-99177447D01*
X170237839Y-99198267D01*
X170250360Y-99221692D01*
X170263973Y-99242066D01*
X170281300Y-99259393D01*
X170301674Y-99273007D01*
X170324313Y-99282385D01*
X170348346Y-99287166D01*
X170372850Y-99287166D01*
X170396884Y-99282386D01*
X170419523Y-99273009D01*
X170439897Y-99259396D01*
X170457224Y-99242069D01*
X170470840Y-99221692D01*
X170483361Y-99198267D01*
X170500447Y-99177447D01*
X170521267Y-99160361D01*
X170545021Y-99147664D01*
X170570798Y-99139844D01*
X170603738Y-99136600D01*
X171117462Y-99136600D01*
X171150402Y-99139844D01*
X171176179Y-99147664D01*
X171199933Y-99160361D01*
X171220753Y-99177447D01*
X171237839Y-99198267D01*
X171250536Y-99222021D01*
X171258356Y-99247798D01*
X171261600Y-99280738D01*
X171261600Y-100844462D01*
X171258356Y-100877402D01*
X171250536Y-100903179D01*
X171237839Y-100926933D01*
X171220753Y-100947753D01*
X171199933Y-100964839D01*
X171176179Y-100977536D01*
X171150402Y-100985356D01*
X171117462Y-100988600D01*
X170603738Y-100988600D01*
X170570798Y-100985356D01*
X170545021Y-100977536D01*
X170521267Y-100964839D01*
X170500447Y-100947753D01*
X170483361Y-100926933D01*
X170470840Y-100903508D01*
X170457227Y-100883134D01*
X170439900Y-100865807D01*
X170419526Y-100852193D01*
X170396887Y-100842815D01*
X170372854Y-100838034D01*
X170348350Y-100838034D01*
X170324316Y-100842814D01*
X170301677Y-100852191D01*
X170281303Y-100865804D01*
X170263976Y-100883131D01*
X170250360Y-100903508D01*
X170237839Y-100926933D01*
X170220753Y-100947753D01*
X170199933Y-100964839D01*
X170176179Y-100977536D01*
X170150402Y-100985356D01*
X170117462Y-100988600D01*
X169603738Y-100988600D01*
X169570798Y-100985356D01*
X169545021Y-100977536D01*
X169521267Y-100964839D01*
X169500447Y-100947753D01*
X169483361Y-100926933D01*
X169470840Y-100903508D01*
X169457227Y-100883134D01*
X169439900Y-100865807D01*
X169419526Y-100852193D01*
X169396887Y-100842815D01*
X169372854Y-100838034D01*
X169348350Y-100838034D01*
X169324316Y-100842814D01*
X169301677Y-100852191D01*
X169281303Y-100865804D01*
X169263976Y-100883131D01*
X169250360Y-100903508D01*
X169237839Y-100926933D01*
X169220753Y-100947753D01*
X169199933Y-100964839D01*
X169176179Y-100977536D01*
X169150402Y-100985356D01*
X169117462Y-100988600D01*
X168603738Y-100988600D01*
X168570798Y-100985356D01*
X168545021Y-100977536D01*
X168521267Y-100964839D01*
X168500447Y-100947753D01*
X168483361Y-100926933D01*
X168470840Y-100903508D01*
X168457227Y-100883134D01*
X168439900Y-100865807D01*
X168419526Y-100852193D01*
X168396887Y-100842815D01*
X168372854Y-100838034D01*
X168348350Y-100838034D01*
X168324316Y-100842814D01*
X168301677Y-100852191D01*
X168281303Y-100865804D01*
X168263976Y-100883131D01*
X168250360Y-100903508D01*
X168237839Y-100926933D01*
X168220753Y-100947753D01*
X168199933Y-100964839D01*
X168176179Y-100977536D01*
X168150402Y-100985356D01*
X168117462Y-100988600D01*
X167603738Y-100988600D01*
X167570798Y-100985356D01*
X167545021Y-100977536D01*
X167521267Y-100964839D01*
X167500447Y-100947753D01*
X167483361Y-100926933D01*
X167470840Y-100903508D01*
X167457227Y-100883134D01*
X167439900Y-100865807D01*
X167419526Y-100852193D01*
X167396887Y-100842815D01*
X167372854Y-100838034D01*
X167348350Y-100838034D01*
X167324316Y-100842814D01*
X167301677Y-100852191D01*
X167281303Y-100865804D01*
X167263976Y-100883131D01*
X167250360Y-100903508D01*
X167237839Y-100926933D01*
X167220753Y-100947753D01*
X167199933Y-100964839D01*
X167176179Y-100977536D01*
X167150402Y-100985356D01*
X167117462Y-100988600D01*
X166603738Y-100988600D01*
X166570798Y-100985356D01*
X166545021Y-100977536D01*
X166521267Y-100964839D01*
X166500447Y-100947753D01*
X166483361Y-100926933D01*
X166470840Y-100903508D01*
X166457227Y-100883134D01*
X166439900Y-100865807D01*
X166419526Y-100852193D01*
X166396887Y-100842815D01*
X166372854Y-100838034D01*
X166348350Y-100838034D01*
X166324316Y-100842814D01*
X166301677Y-100852191D01*
X166281303Y-100865804D01*
X166263976Y-100883131D01*
X166250360Y-100903508D01*
X166237839Y-100926933D01*
X166220753Y-100947753D01*
X166199933Y-100964839D01*
X166176179Y-100977536D01*
X166150402Y-100985356D01*
X166117462Y-100988600D01*
X165603738Y-100988600D01*
X165570798Y-100985356D01*
X165545021Y-100977536D01*
X165521267Y-100964839D01*
X165500447Y-100947753D01*
X165483361Y-100926933D01*
X165470840Y-100903508D01*
X165457227Y-100883134D01*
X165439900Y-100865807D01*
X165419526Y-100852193D01*
X165396887Y-100842815D01*
X165372854Y-100838034D01*
X165348350Y-100838034D01*
X165324316Y-100842814D01*
X165301677Y-100852191D01*
X165281303Y-100865804D01*
X165263976Y-100883131D01*
X165250360Y-100903508D01*
X165237839Y-100926933D01*
X165220753Y-100947753D01*
X165199933Y-100964839D01*
X165176179Y-100977536D01*
X165150402Y-100985356D01*
X165117462Y-100988600D01*
X164603738Y-100988600D01*
X164570798Y-100985356D01*
X164545021Y-100977536D01*
X164521267Y-100964839D01*
X164500447Y-100947753D01*
X164483361Y-100926933D01*
X164470840Y-100903508D01*
X164457227Y-100883134D01*
X164439900Y-100865807D01*
X164419526Y-100852193D01*
X164396887Y-100842815D01*
X164372854Y-100838034D01*
X164348350Y-100838034D01*
X164324316Y-100842814D01*
X164301677Y-100852191D01*
X164281303Y-100865804D01*
X164263976Y-100883131D01*
X164250360Y-100903508D01*
X164237839Y-100926933D01*
X164220753Y-100947753D01*
X164199933Y-100964839D01*
X164176179Y-100977536D01*
X164150402Y-100985356D01*
X164117462Y-100988600D01*
X163603738Y-100988600D01*
X163570798Y-100985356D01*
X163545021Y-100977536D01*
X163521267Y-100964839D01*
X163500447Y-100947753D01*
X163483361Y-100926933D01*
X163470664Y-100903179D01*
X163462844Y-100877402D01*
X163459600Y-100844462D01*
X163459600Y-99280738D01*
X163462844Y-99247798D01*
X163470664Y-99222021D01*
X163483361Y-99198267D01*
X163500447Y-99177447D01*
X163521267Y-99160361D01*
X163545021Y-99147664D01*
X163570798Y-99139844D01*
X163603738Y-99136600D01*
X164117462Y-99136600D01*
X164150402Y-99139844D01*
X164150402Y-99139844D01*
G37*
G36*
X179434499Y-98223045D02*
G01*
X179471995Y-98234420D01*
X179506554Y-98252892D01*
X179536847Y-98277753D01*
X179561708Y-98308046D01*
X179580180Y-98342605D01*
X179591555Y-98380101D01*
X179596000Y-98425238D01*
X179596000Y-99163962D01*
X179591555Y-99209099D01*
X179580180Y-99246595D01*
X179561708Y-99281154D01*
X179536847Y-99311447D01*
X179506554Y-99336308D01*
X179471995Y-99354780D01*
X179434499Y-99366155D01*
X179389362Y-99370600D01*
X178750638Y-99370600D01*
X178705501Y-99366155D01*
X178668005Y-99354780D01*
X178633446Y-99336308D01*
X178603153Y-99311447D01*
X178578292Y-99281154D01*
X178559820Y-99246595D01*
X178548445Y-99209099D01*
X178544000Y-99163962D01*
X178544000Y-98425238D01*
X178548445Y-98380101D01*
X178559820Y-98342605D01*
X178578292Y-98308046D01*
X178603153Y-98277753D01*
X178633446Y-98252892D01*
X178668005Y-98234420D01*
X178705501Y-98223045D01*
X178750638Y-98218600D01*
X179389362Y-98218600D01*
X179434499Y-98223045D01*
X179434499Y-98223045D01*
G37*
G36*
X181923699Y-98197645D02*
G01*
X181961195Y-98209020D01*
X181995754Y-98227492D01*
X182026047Y-98252353D01*
X182050908Y-98282646D01*
X182069380Y-98317205D01*
X182080755Y-98354701D01*
X182085200Y-98399838D01*
X182085200Y-99138562D01*
X182080755Y-99183699D01*
X182069380Y-99221195D01*
X182050908Y-99255754D01*
X182026047Y-99286047D01*
X181995754Y-99310908D01*
X181961195Y-99329380D01*
X181923699Y-99340755D01*
X181878562Y-99345200D01*
X181239838Y-99345200D01*
X181194701Y-99340755D01*
X181157205Y-99329380D01*
X181122646Y-99310908D01*
X181092353Y-99286047D01*
X181067492Y-99255754D01*
X181049020Y-99221195D01*
X181037645Y-99183699D01*
X181033200Y-99138562D01*
X181033200Y-98399838D01*
X181037645Y-98354701D01*
X181049020Y-98317205D01*
X181067492Y-98282646D01*
X181092353Y-98252353D01*
X181122646Y-98227492D01*
X181157205Y-98209020D01*
X181194701Y-98197645D01*
X181239838Y-98193200D01*
X181878562Y-98193200D01*
X181923699Y-98197645D01*
X181923699Y-98197645D01*
G37*
G36*
X189266099Y-96557245D02*
G01*
X189303595Y-96568620D01*
X189338154Y-96587092D01*
X189368447Y-96611953D01*
X189393308Y-96642246D01*
X189411780Y-96676805D01*
X189423155Y-96714301D01*
X189427600Y-96759438D01*
X189427600Y-97398162D01*
X189423155Y-97443299D01*
X189411780Y-97480795D01*
X189393308Y-97515354D01*
X189368447Y-97545647D01*
X189338154Y-97570508D01*
X189303595Y-97588980D01*
X189266099Y-97600355D01*
X189220962Y-97604800D01*
X188482238Y-97604800D01*
X188437101Y-97600355D01*
X188399605Y-97588980D01*
X188365046Y-97570508D01*
X188334753Y-97545647D01*
X188309892Y-97515354D01*
X188291420Y-97480795D01*
X188280045Y-97443299D01*
X188275600Y-97398162D01*
X188275600Y-96759438D01*
X188280045Y-96714301D01*
X188291420Y-96676805D01*
X188309892Y-96642246D01*
X188334753Y-96611953D01*
X188365046Y-96587092D01*
X188399605Y-96568620D01*
X188437101Y-96557245D01*
X188482238Y-96552800D01*
X189220962Y-96552800D01*
X189266099Y-96557245D01*
X189266099Y-96557245D01*
G37*
G36*
X191016099Y-96557245D02*
G01*
X191053595Y-96568620D01*
X191088154Y-96587092D01*
X191118447Y-96611953D01*
X191143308Y-96642246D01*
X191161780Y-96676805D01*
X191173155Y-96714301D01*
X191177600Y-96759438D01*
X191177600Y-97398162D01*
X191173155Y-97443299D01*
X191161780Y-97480795D01*
X191143308Y-97515354D01*
X191118447Y-97545647D01*
X191088154Y-97570508D01*
X191053595Y-97588980D01*
X191016099Y-97600355D01*
X190970962Y-97604800D01*
X190232238Y-97604800D01*
X190187101Y-97600355D01*
X190149605Y-97588980D01*
X190115046Y-97570508D01*
X190084753Y-97545647D01*
X190059892Y-97515354D01*
X190041420Y-97480795D01*
X190030045Y-97443299D01*
X190025600Y-97398162D01*
X190025600Y-96759438D01*
X190030045Y-96714301D01*
X190041420Y-96676805D01*
X190059892Y-96642246D01*
X190084753Y-96611953D01*
X190115046Y-96587092D01*
X190149605Y-96568620D01*
X190187101Y-96557245D01*
X190232238Y-96552800D01*
X190970962Y-96552800D01*
X191016099Y-96557245D01*
X191016099Y-96557245D01*
G37*
G36*
X164150402Y-94289844D02*
G01*
X164176179Y-94297664D01*
X164199933Y-94310361D01*
X164220753Y-94327447D01*
X164237839Y-94348267D01*
X164250360Y-94371692D01*
X164263973Y-94392066D01*
X164281300Y-94409393D01*
X164301674Y-94423007D01*
X164324313Y-94432385D01*
X164348346Y-94437166D01*
X164372850Y-94437166D01*
X164396884Y-94432386D01*
X164419523Y-94423009D01*
X164439897Y-94409396D01*
X164457224Y-94392069D01*
X164470840Y-94371692D01*
X164483361Y-94348267D01*
X164500447Y-94327447D01*
X164521267Y-94310361D01*
X164545021Y-94297664D01*
X164570798Y-94289844D01*
X164603738Y-94286600D01*
X165117462Y-94286600D01*
X165150402Y-94289844D01*
X165176179Y-94297664D01*
X165199933Y-94310361D01*
X165220753Y-94327447D01*
X165237839Y-94348267D01*
X165250360Y-94371692D01*
X165263973Y-94392066D01*
X165281300Y-94409393D01*
X165301674Y-94423007D01*
X165324313Y-94432385D01*
X165348346Y-94437166D01*
X165372850Y-94437166D01*
X165396884Y-94432386D01*
X165419523Y-94423009D01*
X165439897Y-94409396D01*
X165457224Y-94392069D01*
X165470840Y-94371692D01*
X165483361Y-94348267D01*
X165500447Y-94327447D01*
X165521267Y-94310361D01*
X165545021Y-94297664D01*
X165570798Y-94289844D01*
X165603738Y-94286600D01*
X166117462Y-94286600D01*
X166150402Y-94289844D01*
X166176179Y-94297664D01*
X166199933Y-94310361D01*
X166220753Y-94327447D01*
X166237839Y-94348267D01*
X166250360Y-94371692D01*
X166263973Y-94392066D01*
X166281300Y-94409393D01*
X166301674Y-94423007D01*
X166324313Y-94432385D01*
X166348346Y-94437166D01*
X166372850Y-94437166D01*
X166396884Y-94432386D01*
X166419523Y-94423009D01*
X166439897Y-94409396D01*
X166457224Y-94392069D01*
X166470840Y-94371692D01*
X166483361Y-94348267D01*
X166500447Y-94327447D01*
X166521267Y-94310361D01*
X166545021Y-94297664D01*
X166570798Y-94289844D01*
X166603738Y-94286600D01*
X167117462Y-94286600D01*
X167150402Y-94289844D01*
X167176179Y-94297664D01*
X167199933Y-94310361D01*
X167220753Y-94327447D01*
X167237839Y-94348267D01*
X167250360Y-94371692D01*
X167263973Y-94392066D01*
X167281300Y-94409393D01*
X167301674Y-94423007D01*
X167324313Y-94432385D01*
X167348346Y-94437166D01*
X167372850Y-94437166D01*
X167396884Y-94432386D01*
X167419523Y-94423009D01*
X167439897Y-94409396D01*
X167457224Y-94392069D01*
X167470840Y-94371692D01*
X167483361Y-94348267D01*
X167500447Y-94327447D01*
X167521267Y-94310361D01*
X167545021Y-94297664D01*
X167570798Y-94289844D01*
X167603738Y-94286600D01*
X168117462Y-94286600D01*
X168150402Y-94289844D01*
X168176179Y-94297664D01*
X168199933Y-94310361D01*
X168220753Y-94327447D01*
X168237839Y-94348267D01*
X168250360Y-94371692D01*
X168263973Y-94392066D01*
X168281300Y-94409393D01*
X168301674Y-94423007D01*
X168324313Y-94432385D01*
X168348346Y-94437166D01*
X168372850Y-94437166D01*
X168396884Y-94432386D01*
X168419523Y-94423009D01*
X168439897Y-94409396D01*
X168457224Y-94392069D01*
X168470840Y-94371692D01*
X168483361Y-94348267D01*
X168500447Y-94327447D01*
X168521267Y-94310361D01*
X168545021Y-94297664D01*
X168570798Y-94289844D01*
X168603738Y-94286600D01*
X169117462Y-94286600D01*
X169150402Y-94289844D01*
X169176179Y-94297664D01*
X169199933Y-94310361D01*
X169220753Y-94327447D01*
X169237839Y-94348267D01*
X169250360Y-94371692D01*
X169263973Y-94392066D01*
X169281300Y-94409393D01*
X169301674Y-94423007D01*
X169324313Y-94432385D01*
X169348346Y-94437166D01*
X169372850Y-94437166D01*
X169396884Y-94432386D01*
X169419523Y-94423009D01*
X169439897Y-94409396D01*
X169457224Y-94392069D01*
X169470840Y-94371692D01*
X169483361Y-94348267D01*
X169500447Y-94327447D01*
X169521267Y-94310361D01*
X169545021Y-94297664D01*
X169570798Y-94289844D01*
X169603738Y-94286600D01*
X170117462Y-94286600D01*
X170150402Y-94289844D01*
X170176179Y-94297664D01*
X170199933Y-94310361D01*
X170220753Y-94327447D01*
X170237839Y-94348267D01*
X170250360Y-94371692D01*
X170263973Y-94392066D01*
X170281300Y-94409393D01*
X170301674Y-94423007D01*
X170324313Y-94432385D01*
X170348346Y-94437166D01*
X170372850Y-94437166D01*
X170396884Y-94432386D01*
X170419523Y-94423009D01*
X170439897Y-94409396D01*
X170457224Y-94392069D01*
X170470840Y-94371692D01*
X170483361Y-94348267D01*
X170500447Y-94327447D01*
X170521267Y-94310361D01*
X170545021Y-94297664D01*
X170570798Y-94289844D01*
X170603738Y-94286600D01*
X171117462Y-94286600D01*
X171150402Y-94289844D01*
X171176179Y-94297664D01*
X171199933Y-94310361D01*
X171220753Y-94327447D01*
X171237839Y-94348267D01*
X171250536Y-94372021D01*
X171258356Y-94397798D01*
X171261600Y-94430738D01*
X171261600Y-95994462D01*
X171258356Y-96027402D01*
X171250536Y-96053179D01*
X171237839Y-96076933D01*
X171220753Y-96097753D01*
X171199933Y-96114839D01*
X171176179Y-96127536D01*
X171150402Y-96135356D01*
X171117462Y-96138600D01*
X170603738Y-96138600D01*
X170570798Y-96135356D01*
X170545021Y-96127536D01*
X170521267Y-96114839D01*
X170500447Y-96097753D01*
X170483361Y-96076933D01*
X170470840Y-96053508D01*
X170457227Y-96033134D01*
X170439900Y-96015807D01*
X170419526Y-96002193D01*
X170396887Y-95992815D01*
X170372854Y-95988034D01*
X170348350Y-95988034D01*
X170324316Y-95992814D01*
X170301677Y-96002191D01*
X170281303Y-96015804D01*
X170263976Y-96033131D01*
X170250360Y-96053508D01*
X170237839Y-96076933D01*
X170220753Y-96097753D01*
X170199933Y-96114839D01*
X170176179Y-96127536D01*
X170150402Y-96135356D01*
X170117462Y-96138600D01*
X169603738Y-96138600D01*
X169570798Y-96135356D01*
X169545021Y-96127536D01*
X169521267Y-96114839D01*
X169500447Y-96097753D01*
X169483361Y-96076933D01*
X169470840Y-96053508D01*
X169457227Y-96033134D01*
X169439900Y-96015807D01*
X169419526Y-96002193D01*
X169396887Y-95992815D01*
X169372854Y-95988034D01*
X169348350Y-95988034D01*
X169324316Y-95992814D01*
X169301677Y-96002191D01*
X169281303Y-96015804D01*
X169263976Y-96033131D01*
X169250360Y-96053508D01*
X169237839Y-96076933D01*
X169220753Y-96097753D01*
X169199933Y-96114839D01*
X169176179Y-96127536D01*
X169150402Y-96135356D01*
X169117462Y-96138600D01*
X168603738Y-96138600D01*
X168570798Y-96135356D01*
X168545021Y-96127536D01*
X168521267Y-96114839D01*
X168500447Y-96097753D01*
X168483361Y-96076933D01*
X168470840Y-96053508D01*
X168457227Y-96033134D01*
X168439900Y-96015807D01*
X168419526Y-96002193D01*
X168396887Y-95992815D01*
X168372854Y-95988034D01*
X168348350Y-95988034D01*
X168324316Y-95992814D01*
X168301677Y-96002191D01*
X168281303Y-96015804D01*
X168263976Y-96033131D01*
X168250360Y-96053508D01*
X168237839Y-96076933D01*
X168220753Y-96097753D01*
X168199933Y-96114839D01*
X168176179Y-96127536D01*
X168150402Y-96135356D01*
X168117462Y-96138600D01*
X167603738Y-96138600D01*
X167570798Y-96135356D01*
X167545021Y-96127536D01*
X167521267Y-96114839D01*
X167500447Y-96097753D01*
X167483361Y-96076933D01*
X167470840Y-96053508D01*
X167457227Y-96033134D01*
X167439900Y-96015807D01*
X167419526Y-96002193D01*
X167396887Y-95992815D01*
X167372854Y-95988034D01*
X167348350Y-95988034D01*
X167324316Y-95992814D01*
X167301677Y-96002191D01*
X167281303Y-96015804D01*
X167263976Y-96033131D01*
X167250360Y-96053508D01*
X167237839Y-96076933D01*
X167220753Y-96097753D01*
X167199933Y-96114839D01*
X167176179Y-96127536D01*
X167150402Y-96135356D01*
X167117462Y-96138600D01*
X166603738Y-96138600D01*
X166570798Y-96135356D01*
X166545021Y-96127536D01*
X166521267Y-96114839D01*
X166500447Y-96097753D01*
X166483361Y-96076933D01*
X166470840Y-96053508D01*
X166457227Y-96033134D01*
X166439900Y-96015807D01*
X166419526Y-96002193D01*
X166396887Y-95992815D01*
X166372854Y-95988034D01*
X166348350Y-95988034D01*
X166324316Y-95992814D01*
X166301677Y-96002191D01*
X166281303Y-96015804D01*
X166263976Y-96033131D01*
X166250360Y-96053508D01*
X166237839Y-96076933D01*
X166220753Y-96097753D01*
X166199933Y-96114839D01*
X166176179Y-96127536D01*
X166150402Y-96135356D01*
X166117462Y-96138600D01*
X165603738Y-96138600D01*
X165570798Y-96135356D01*
X165545021Y-96127536D01*
X165521267Y-96114839D01*
X165500447Y-96097753D01*
X165483361Y-96076933D01*
X165470840Y-96053508D01*
X165457227Y-96033134D01*
X165439900Y-96015807D01*
X165419526Y-96002193D01*
X165396887Y-95992815D01*
X165372854Y-95988034D01*
X165348350Y-95988034D01*
X165324316Y-95992814D01*
X165301677Y-96002191D01*
X165281303Y-96015804D01*
X165263976Y-96033131D01*
X165250360Y-96053508D01*
X165237839Y-96076933D01*
X165220753Y-96097753D01*
X165199933Y-96114839D01*
X165176179Y-96127536D01*
X165150402Y-96135356D01*
X165117462Y-96138600D01*
X164603738Y-96138600D01*
X164570798Y-96135356D01*
X164545021Y-96127536D01*
X164521267Y-96114839D01*
X164500447Y-96097753D01*
X164483361Y-96076933D01*
X164470840Y-96053508D01*
X164457227Y-96033134D01*
X164439900Y-96015807D01*
X164419526Y-96002193D01*
X164396887Y-95992815D01*
X164372854Y-95988034D01*
X164348350Y-95988034D01*
X164324316Y-95992814D01*
X164301677Y-96002191D01*
X164281303Y-96015804D01*
X164263976Y-96033131D01*
X164250360Y-96053508D01*
X164237839Y-96076933D01*
X164220753Y-96097753D01*
X164199933Y-96114839D01*
X164176179Y-96127536D01*
X164150402Y-96135356D01*
X164117462Y-96138600D01*
X163603738Y-96138600D01*
X163570798Y-96135356D01*
X163545021Y-96127536D01*
X163521267Y-96114839D01*
X163500447Y-96097753D01*
X163483361Y-96076933D01*
X163470664Y-96053179D01*
X163462844Y-96027402D01*
X163459600Y-95994462D01*
X163459600Y-94430738D01*
X163462844Y-94397798D01*
X163470664Y-94372021D01*
X163483361Y-94348267D01*
X163500447Y-94327447D01*
X163521267Y-94310361D01*
X163545021Y-94297664D01*
X163570798Y-94289844D01*
X163603738Y-94286600D01*
X164117462Y-94286600D01*
X164150402Y-94289844D01*
X164150402Y-94289844D01*
G37*
G36*
X191002099Y-94296645D02*
G01*
X191039595Y-94308020D01*
X191074154Y-94326492D01*
X191104447Y-94351353D01*
X191129308Y-94381646D01*
X191147780Y-94416205D01*
X191159155Y-94453701D01*
X191163600Y-94498838D01*
X191163600Y-95137562D01*
X191159155Y-95182699D01*
X191147780Y-95220195D01*
X191129308Y-95254754D01*
X191104447Y-95285047D01*
X191074154Y-95309908D01*
X191039595Y-95328380D01*
X191002099Y-95339755D01*
X190956962Y-95344200D01*
X190218238Y-95344200D01*
X190173101Y-95339755D01*
X190135605Y-95328380D01*
X190101046Y-95309908D01*
X190070753Y-95285047D01*
X190045892Y-95254754D01*
X190027420Y-95220195D01*
X190016045Y-95182699D01*
X190011600Y-95137562D01*
X190011600Y-94498838D01*
X190016045Y-94453701D01*
X190027420Y-94416205D01*
X190045892Y-94381646D01*
X190070753Y-94351353D01*
X190101046Y-94326492D01*
X190135605Y-94308020D01*
X190173101Y-94296645D01*
X190218238Y-94292200D01*
X190956962Y-94292200D01*
X191002099Y-94296645D01*
X191002099Y-94296645D01*
G37*
G36*
X189252099Y-94296645D02*
G01*
X189289595Y-94308020D01*
X189324154Y-94326492D01*
X189354447Y-94351353D01*
X189379308Y-94381646D01*
X189397780Y-94416205D01*
X189409155Y-94453701D01*
X189413600Y-94498838D01*
X189413600Y-95137562D01*
X189409155Y-95182699D01*
X189397780Y-95220195D01*
X189379308Y-95254754D01*
X189354447Y-95285047D01*
X189324154Y-95309908D01*
X189289595Y-95328380D01*
X189252099Y-95339755D01*
X189206962Y-95344200D01*
X188468238Y-95344200D01*
X188423101Y-95339755D01*
X188385605Y-95328380D01*
X188351046Y-95309908D01*
X188320753Y-95285047D01*
X188295892Y-95254754D01*
X188277420Y-95220195D01*
X188266045Y-95182699D01*
X188261600Y-95137562D01*
X188261600Y-94498838D01*
X188266045Y-94453701D01*
X188277420Y-94416205D01*
X188295892Y-94381646D01*
X188320753Y-94351353D01*
X188351046Y-94326492D01*
X188385605Y-94308020D01*
X188423101Y-94296645D01*
X188468238Y-94292200D01*
X189206962Y-94292200D01*
X189252099Y-94296645D01*
X189252099Y-94296645D01*
G37*
G36*
X139276189Y-86110483D02*
G01*
X139804137Y-86329166D01*
X139804139Y-86329167D01*
X140279280Y-86646646D01*
X140683354Y-87050720D01*
X140849000Y-87298627D01*
X141000834Y-87525863D01*
X141219517Y-88053811D01*
X141331000Y-88614275D01*
X141331000Y-89185725D01*
X141219517Y-89746189D01*
X141046044Y-90164991D01*
X141000833Y-90274139D01*
X140683354Y-90749280D01*
X140279280Y-91153354D01*
X139804139Y-91470833D01*
X139804138Y-91470834D01*
X139804137Y-91470834D01*
X139276189Y-91689517D01*
X138715725Y-91801000D01*
X138144275Y-91801000D01*
X137583811Y-91689517D01*
X137055863Y-91470834D01*
X137055862Y-91470834D01*
X137055861Y-91470833D01*
X136580720Y-91153354D01*
X136176646Y-90749280D01*
X135859167Y-90274139D01*
X135813956Y-90164991D01*
X135640483Y-89746189D01*
X135529000Y-89185725D01*
X135529000Y-88614275D01*
X135640483Y-88053811D01*
X135859166Y-87525863D01*
X136011000Y-87298627D01*
X136176646Y-87050720D01*
X136580720Y-86646646D01*
X137055861Y-86329167D01*
X137055863Y-86329166D01*
X137583811Y-86110483D01*
X138144275Y-85999000D01*
X138715725Y-85999000D01*
X139276189Y-86110483D01*
X139276189Y-86110483D01*
G37*
G36*
X191346189Y-86110483D02*
G01*
X191874137Y-86329166D01*
X191874139Y-86329167D01*
X192349280Y-86646646D01*
X192753354Y-87050720D01*
X192919000Y-87298627D01*
X193070834Y-87525863D01*
X193289517Y-88053811D01*
X193401000Y-88614275D01*
X193401000Y-89185725D01*
X193289517Y-89746189D01*
X193116044Y-90164991D01*
X193070833Y-90274139D01*
X192753354Y-90749280D01*
X192349280Y-91153354D01*
X191874139Y-91470833D01*
X191874138Y-91470834D01*
X191874137Y-91470834D01*
X191346189Y-91689517D01*
X190785725Y-91801000D01*
X190214275Y-91801000D01*
X189653811Y-91689517D01*
X189125863Y-91470834D01*
X189125862Y-91470834D01*
X189125861Y-91470833D01*
X188650720Y-91153354D01*
X188246646Y-90749280D01*
X187929167Y-90274139D01*
X187883956Y-90164991D01*
X187710483Y-89746189D01*
X187599000Y-89185725D01*
X187599000Y-88614275D01*
X187710483Y-88053811D01*
X187929166Y-87525863D01*
X188081000Y-87298627D01*
X188246646Y-87050720D01*
X188650720Y-86646646D01*
X189125861Y-86329167D01*
X189125863Y-86329166D01*
X189653811Y-86110483D01*
X190214275Y-85999000D01*
X190785725Y-85999000D01*
X191346189Y-86110483D01*
X191346189Y-86110483D01*
G37*
G36*
X162949842Y-88767518D02*
G01*
X163016027Y-88774037D01*
X163185866Y-88825557D01*
X163342391Y-88909222D01*
X163378129Y-88938552D01*
X163479586Y-89021814D01*
X163562848Y-89123271D01*
X163592178Y-89159009D01*
X163675843Y-89315534D01*
X163727363Y-89485373D01*
X163744759Y-89662000D01*
X163727363Y-89838627D01*
X163675843Y-90008466D01*
X163592178Y-90164991D01*
X163562848Y-90200729D01*
X163479586Y-90302186D01*
X163378129Y-90385448D01*
X163342391Y-90414778D01*
X163185866Y-90498443D01*
X163016027Y-90549963D01*
X162949842Y-90556482D01*
X162883660Y-90563000D01*
X162795140Y-90563000D01*
X162728958Y-90556482D01*
X162662773Y-90549963D01*
X162492934Y-90498443D01*
X162336409Y-90414778D01*
X162300671Y-90385448D01*
X162199214Y-90302186D01*
X162115952Y-90200729D01*
X162086622Y-90164991D01*
X162002957Y-90008466D01*
X161951437Y-89838627D01*
X161934041Y-89662000D01*
X161951437Y-89485373D01*
X162002957Y-89315534D01*
X162086622Y-89159009D01*
X162115952Y-89123271D01*
X162199214Y-89021814D01*
X162300671Y-88938552D01*
X162336409Y-88909222D01*
X162492934Y-88825557D01*
X162662773Y-88774037D01*
X162728958Y-88767518D01*
X162795140Y-88761000D01*
X162883660Y-88761000D01*
X162949842Y-88767518D01*
X162949842Y-88767518D01*
G37*
G36*
X168029842Y-88767518D02*
G01*
X168096027Y-88774037D01*
X168265866Y-88825557D01*
X168422391Y-88909222D01*
X168458129Y-88938552D01*
X168559586Y-89021814D01*
X168642848Y-89123271D01*
X168672178Y-89159009D01*
X168755843Y-89315534D01*
X168807363Y-89485373D01*
X168824759Y-89662000D01*
X168807363Y-89838627D01*
X168755843Y-90008466D01*
X168672178Y-90164991D01*
X168642848Y-90200729D01*
X168559586Y-90302186D01*
X168458129Y-90385448D01*
X168422391Y-90414778D01*
X168265866Y-90498443D01*
X168096027Y-90549963D01*
X168029842Y-90556482D01*
X167963660Y-90563000D01*
X167875140Y-90563000D01*
X167808958Y-90556482D01*
X167742773Y-90549963D01*
X167572934Y-90498443D01*
X167416409Y-90414778D01*
X167380671Y-90385448D01*
X167279214Y-90302186D01*
X167195952Y-90200729D01*
X167166622Y-90164991D01*
X167082957Y-90008466D01*
X167031437Y-89838627D01*
X167014041Y-89662000D01*
X167031437Y-89485373D01*
X167082957Y-89315534D01*
X167166622Y-89159009D01*
X167195952Y-89123271D01*
X167279214Y-89021814D01*
X167380671Y-88938552D01*
X167416409Y-88909222D01*
X167572934Y-88825557D01*
X167742773Y-88774037D01*
X167808958Y-88767518D01*
X167875140Y-88761000D01*
X167963660Y-88761000D01*
X168029842Y-88767518D01*
X168029842Y-88767518D01*
G37*
G36*
X157869842Y-88767518D02*
G01*
X157936027Y-88774037D01*
X158105866Y-88825557D01*
X158262391Y-88909222D01*
X158298129Y-88938552D01*
X158399586Y-89021814D01*
X158482848Y-89123271D01*
X158512178Y-89159009D01*
X158595843Y-89315534D01*
X158647363Y-89485373D01*
X158664759Y-89662000D01*
X158647363Y-89838627D01*
X158595843Y-90008466D01*
X158512178Y-90164991D01*
X158482848Y-90200729D01*
X158399586Y-90302186D01*
X158298129Y-90385448D01*
X158262391Y-90414778D01*
X158105866Y-90498443D01*
X157936027Y-90549963D01*
X157869842Y-90556482D01*
X157803660Y-90563000D01*
X157715140Y-90563000D01*
X157648958Y-90556482D01*
X157582773Y-90549963D01*
X157412934Y-90498443D01*
X157256409Y-90414778D01*
X157220671Y-90385448D01*
X157119214Y-90302186D01*
X157035952Y-90200729D01*
X157006622Y-90164991D01*
X156922957Y-90008466D01*
X156871437Y-89838627D01*
X156854041Y-89662000D01*
X156871437Y-89485373D01*
X156922957Y-89315534D01*
X157006622Y-89159009D01*
X157035952Y-89123271D01*
X157119214Y-89021814D01*
X157220671Y-88938552D01*
X157256409Y-88909222D01*
X157412934Y-88825557D01*
X157582773Y-88774037D01*
X157648958Y-88767518D01*
X157715140Y-88761000D01*
X157803660Y-88761000D01*
X157869842Y-88767518D01*
X157869842Y-88767518D01*
G37*
G36*
X160409842Y-88767518D02*
G01*
X160476027Y-88774037D01*
X160645866Y-88825557D01*
X160802391Y-88909222D01*
X160838129Y-88938552D01*
X160939586Y-89021814D01*
X161022848Y-89123271D01*
X161052178Y-89159009D01*
X161135843Y-89315534D01*
X161187363Y-89485373D01*
X161204759Y-89662000D01*
X161187363Y-89838627D01*
X161135843Y-90008466D01*
X161052178Y-90164991D01*
X161022848Y-90200729D01*
X160939586Y-90302186D01*
X160838129Y-90385448D01*
X160802391Y-90414778D01*
X160645866Y-90498443D01*
X160476027Y-90549963D01*
X160409842Y-90556482D01*
X160343660Y-90563000D01*
X160255140Y-90563000D01*
X160188958Y-90556482D01*
X160122773Y-90549963D01*
X159952934Y-90498443D01*
X159796409Y-90414778D01*
X159760671Y-90385448D01*
X159659214Y-90302186D01*
X159575952Y-90200729D01*
X159546622Y-90164991D01*
X159462957Y-90008466D01*
X159411437Y-89838627D01*
X159394041Y-89662000D01*
X159411437Y-89485373D01*
X159462957Y-89315534D01*
X159546622Y-89159009D01*
X159575952Y-89123271D01*
X159659214Y-89021814D01*
X159760671Y-88938552D01*
X159796409Y-88909222D01*
X159952934Y-88825557D01*
X160122773Y-88774037D01*
X160188958Y-88767518D01*
X160255140Y-88761000D01*
X160343660Y-88761000D01*
X160409842Y-88767518D01*
X160409842Y-88767518D01*
G37*
G36*
X170569842Y-88767518D02*
G01*
X170636027Y-88774037D01*
X170805866Y-88825557D01*
X170962391Y-88909222D01*
X170998129Y-88938552D01*
X171099586Y-89021814D01*
X171182848Y-89123271D01*
X171212178Y-89159009D01*
X171295843Y-89315534D01*
X171347363Y-89485373D01*
X171364759Y-89662000D01*
X171347363Y-89838627D01*
X171295843Y-90008466D01*
X171212178Y-90164991D01*
X171182848Y-90200729D01*
X171099586Y-90302186D01*
X170998129Y-90385448D01*
X170962391Y-90414778D01*
X170805866Y-90498443D01*
X170636027Y-90549963D01*
X170569842Y-90556482D01*
X170503660Y-90563000D01*
X170415140Y-90563000D01*
X170348958Y-90556482D01*
X170282773Y-90549963D01*
X170112934Y-90498443D01*
X169956409Y-90414778D01*
X169920671Y-90385448D01*
X169819214Y-90302186D01*
X169735952Y-90200729D01*
X169706622Y-90164991D01*
X169622957Y-90008466D01*
X169571437Y-89838627D01*
X169554041Y-89662000D01*
X169571437Y-89485373D01*
X169622957Y-89315534D01*
X169706622Y-89159009D01*
X169735952Y-89123271D01*
X169819214Y-89021814D01*
X169920671Y-88938552D01*
X169956409Y-88909222D01*
X170112934Y-88825557D01*
X170282773Y-88774037D01*
X170348958Y-88767518D01*
X170415140Y-88761000D01*
X170503660Y-88761000D01*
X170569842Y-88767518D01*
X170569842Y-88767518D01*
G37*
G36*
X173109842Y-88767518D02*
G01*
X173176027Y-88774037D01*
X173345866Y-88825557D01*
X173502391Y-88909222D01*
X173538129Y-88938552D01*
X173639586Y-89021814D01*
X173722848Y-89123271D01*
X173752178Y-89159009D01*
X173835843Y-89315534D01*
X173887363Y-89485373D01*
X173904759Y-89662000D01*
X173887363Y-89838627D01*
X173835843Y-90008466D01*
X173752178Y-90164991D01*
X173722848Y-90200729D01*
X173639586Y-90302186D01*
X173538129Y-90385448D01*
X173502391Y-90414778D01*
X173345866Y-90498443D01*
X173176027Y-90549963D01*
X173109842Y-90556482D01*
X173043660Y-90563000D01*
X172955140Y-90563000D01*
X172888958Y-90556482D01*
X172822773Y-90549963D01*
X172652934Y-90498443D01*
X172496409Y-90414778D01*
X172460671Y-90385448D01*
X172359214Y-90302186D01*
X172275952Y-90200729D01*
X172246622Y-90164991D01*
X172162957Y-90008466D01*
X172111437Y-89838627D01*
X172094041Y-89662000D01*
X172111437Y-89485373D01*
X172162957Y-89315534D01*
X172246622Y-89159009D01*
X172275952Y-89123271D01*
X172359214Y-89021814D01*
X172460671Y-88938552D01*
X172496409Y-88909222D01*
X172652934Y-88825557D01*
X172822773Y-88774037D01*
X172888958Y-88767518D01*
X172955140Y-88761000D01*
X173043660Y-88761000D01*
X173109842Y-88767518D01*
X173109842Y-88767518D01*
G37*
G36*
X175649842Y-88767518D02*
G01*
X175716027Y-88774037D01*
X175885866Y-88825557D01*
X176042391Y-88909222D01*
X176078129Y-88938552D01*
X176179586Y-89021814D01*
X176262848Y-89123271D01*
X176292178Y-89159009D01*
X176375843Y-89315534D01*
X176427363Y-89485373D01*
X176444759Y-89662000D01*
X176427363Y-89838627D01*
X176375843Y-90008466D01*
X176292178Y-90164991D01*
X176262848Y-90200729D01*
X176179586Y-90302186D01*
X176078129Y-90385448D01*
X176042391Y-90414778D01*
X175885866Y-90498443D01*
X175716027Y-90549963D01*
X175649842Y-90556482D01*
X175583660Y-90563000D01*
X175495140Y-90563000D01*
X175428958Y-90556482D01*
X175362773Y-90549963D01*
X175192934Y-90498443D01*
X175036409Y-90414778D01*
X175000671Y-90385448D01*
X174899214Y-90302186D01*
X174815952Y-90200729D01*
X174786622Y-90164991D01*
X174702957Y-90008466D01*
X174651437Y-89838627D01*
X174634041Y-89662000D01*
X174651437Y-89485373D01*
X174702957Y-89315534D01*
X174786622Y-89159009D01*
X174815952Y-89123271D01*
X174899214Y-89021814D01*
X175000671Y-88938552D01*
X175036409Y-88909222D01*
X175192934Y-88825557D01*
X175362773Y-88774037D01*
X175428958Y-88767518D01*
X175495140Y-88761000D01*
X175583660Y-88761000D01*
X175649842Y-88767518D01*
X175649842Y-88767518D01*
G37*
G36*
X165489842Y-88767518D02*
G01*
X165556027Y-88774037D01*
X165725866Y-88825557D01*
X165882391Y-88909222D01*
X165918129Y-88938552D01*
X166019586Y-89021814D01*
X166102848Y-89123271D01*
X166132178Y-89159009D01*
X166215843Y-89315534D01*
X166267363Y-89485373D01*
X166284759Y-89662000D01*
X166267363Y-89838627D01*
X166215843Y-90008466D01*
X166132178Y-90164991D01*
X166102848Y-90200729D01*
X166019586Y-90302186D01*
X165918129Y-90385448D01*
X165882391Y-90414778D01*
X165725866Y-90498443D01*
X165556027Y-90549963D01*
X165489842Y-90556482D01*
X165423660Y-90563000D01*
X165335140Y-90563000D01*
X165268958Y-90556482D01*
X165202773Y-90549963D01*
X165032934Y-90498443D01*
X164876409Y-90414778D01*
X164840671Y-90385448D01*
X164739214Y-90302186D01*
X164655952Y-90200729D01*
X164626622Y-90164991D01*
X164542957Y-90008466D01*
X164491437Y-89838627D01*
X164474041Y-89662000D01*
X164491437Y-89485373D01*
X164542957Y-89315534D01*
X164626622Y-89159009D01*
X164655952Y-89123271D01*
X164739214Y-89021814D01*
X164840671Y-88938552D01*
X164876409Y-88909222D01*
X165032934Y-88825557D01*
X165202773Y-88774037D01*
X165268958Y-88767518D01*
X165335140Y-88761000D01*
X165423660Y-88761000D01*
X165489842Y-88767518D01*
X165489842Y-88767518D01*
G37*
G36*
X170569843Y-86227519D02*
G01*
X170636027Y-86234037D01*
X170805866Y-86285557D01*
X170962391Y-86369222D01*
X170998129Y-86398552D01*
X171099586Y-86481814D01*
X171182848Y-86583271D01*
X171212178Y-86619009D01*
X171295843Y-86775534D01*
X171347363Y-86945373D01*
X171364759Y-87122000D01*
X171347363Y-87298627D01*
X171295843Y-87468466D01*
X171295842Y-87468468D01*
X171265163Y-87525863D01*
X171212178Y-87624991D01*
X171182848Y-87660729D01*
X171099586Y-87762186D01*
X170998129Y-87845448D01*
X170962391Y-87874778D01*
X170805866Y-87958443D01*
X170636027Y-88009963D01*
X170569843Y-88016481D01*
X170503660Y-88023000D01*
X170415140Y-88023000D01*
X170348957Y-88016481D01*
X170282773Y-88009963D01*
X170112934Y-87958443D01*
X169956409Y-87874778D01*
X169920671Y-87845448D01*
X169819214Y-87762186D01*
X169735952Y-87660729D01*
X169706622Y-87624991D01*
X169653637Y-87525863D01*
X169622958Y-87468468D01*
X169622957Y-87468466D01*
X169571437Y-87298627D01*
X169554041Y-87122000D01*
X169571437Y-86945373D01*
X169622957Y-86775534D01*
X169706622Y-86619009D01*
X169735952Y-86583271D01*
X169819214Y-86481814D01*
X169920671Y-86398552D01*
X169956409Y-86369222D01*
X170112934Y-86285557D01*
X170282773Y-86234037D01*
X170348957Y-86227519D01*
X170415140Y-86221000D01*
X170503660Y-86221000D01*
X170569843Y-86227519D01*
X170569843Y-86227519D01*
G37*
G36*
X165489843Y-86227519D02*
G01*
X165556027Y-86234037D01*
X165725866Y-86285557D01*
X165882391Y-86369222D01*
X165918129Y-86398552D01*
X166019586Y-86481814D01*
X166102848Y-86583271D01*
X166132178Y-86619009D01*
X166215843Y-86775534D01*
X166267363Y-86945373D01*
X166284759Y-87122000D01*
X166267363Y-87298627D01*
X166215843Y-87468466D01*
X166215842Y-87468468D01*
X166185163Y-87525863D01*
X166132178Y-87624991D01*
X166102848Y-87660729D01*
X166019586Y-87762186D01*
X165918129Y-87845448D01*
X165882391Y-87874778D01*
X165725866Y-87958443D01*
X165556027Y-88009963D01*
X165489843Y-88016481D01*
X165423660Y-88023000D01*
X165335140Y-88023000D01*
X165268957Y-88016481D01*
X165202773Y-88009963D01*
X165032934Y-87958443D01*
X164876409Y-87874778D01*
X164840671Y-87845448D01*
X164739214Y-87762186D01*
X164655952Y-87660729D01*
X164626622Y-87624991D01*
X164573637Y-87525863D01*
X164542958Y-87468468D01*
X164542957Y-87468466D01*
X164491437Y-87298627D01*
X164474041Y-87122000D01*
X164491437Y-86945373D01*
X164542957Y-86775534D01*
X164626622Y-86619009D01*
X164655952Y-86583271D01*
X164739214Y-86481814D01*
X164840671Y-86398552D01*
X164876409Y-86369222D01*
X165032934Y-86285557D01*
X165202773Y-86234037D01*
X165268957Y-86227519D01*
X165335140Y-86221000D01*
X165423660Y-86221000D01*
X165489843Y-86227519D01*
X165489843Y-86227519D01*
G37*
G36*
X157869843Y-86227519D02*
G01*
X157936027Y-86234037D01*
X158105866Y-86285557D01*
X158262391Y-86369222D01*
X158298129Y-86398552D01*
X158399586Y-86481814D01*
X158482848Y-86583271D01*
X158512178Y-86619009D01*
X158595843Y-86775534D01*
X158647363Y-86945373D01*
X158664759Y-87122000D01*
X158647363Y-87298627D01*
X158595843Y-87468466D01*
X158595842Y-87468468D01*
X158565163Y-87525863D01*
X158512178Y-87624991D01*
X158482848Y-87660729D01*
X158399586Y-87762186D01*
X158298129Y-87845448D01*
X158262391Y-87874778D01*
X158105866Y-87958443D01*
X157936027Y-88009963D01*
X157869843Y-88016481D01*
X157803660Y-88023000D01*
X157715140Y-88023000D01*
X157648957Y-88016481D01*
X157582773Y-88009963D01*
X157412934Y-87958443D01*
X157256409Y-87874778D01*
X157220671Y-87845448D01*
X157119214Y-87762186D01*
X157035952Y-87660729D01*
X157006622Y-87624991D01*
X156953637Y-87525863D01*
X156922958Y-87468468D01*
X156922957Y-87468466D01*
X156871437Y-87298627D01*
X156854041Y-87122000D01*
X156871437Y-86945373D01*
X156922957Y-86775534D01*
X157006622Y-86619009D01*
X157035952Y-86583271D01*
X157119214Y-86481814D01*
X157220671Y-86398552D01*
X157256409Y-86369222D01*
X157412934Y-86285557D01*
X157582773Y-86234037D01*
X157648957Y-86227519D01*
X157715140Y-86221000D01*
X157803660Y-86221000D01*
X157869843Y-86227519D01*
X157869843Y-86227519D01*
G37*
G36*
X160409843Y-86227519D02*
G01*
X160476027Y-86234037D01*
X160645866Y-86285557D01*
X160802391Y-86369222D01*
X160838129Y-86398552D01*
X160939586Y-86481814D01*
X161022848Y-86583271D01*
X161052178Y-86619009D01*
X161135843Y-86775534D01*
X161187363Y-86945373D01*
X161204759Y-87122000D01*
X161187363Y-87298627D01*
X161135843Y-87468466D01*
X161135842Y-87468468D01*
X161105163Y-87525863D01*
X161052178Y-87624991D01*
X161022848Y-87660729D01*
X160939586Y-87762186D01*
X160838129Y-87845448D01*
X160802391Y-87874778D01*
X160645866Y-87958443D01*
X160476027Y-88009963D01*
X160409843Y-88016481D01*
X160343660Y-88023000D01*
X160255140Y-88023000D01*
X160188957Y-88016481D01*
X160122773Y-88009963D01*
X159952934Y-87958443D01*
X159796409Y-87874778D01*
X159760671Y-87845448D01*
X159659214Y-87762186D01*
X159575952Y-87660729D01*
X159546622Y-87624991D01*
X159493637Y-87525863D01*
X159462958Y-87468468D01*
X159462957Y-87468466D01*
X159411437Y-87298627D01*
X159394041Y-87122000D01*
X159411437Y-86945373D01*
X159462957Y-86775534D01*
X159546622Y-86619009D01*
X159575952Y-86583271D01*
X159659214Y-86481814D01*
X159760671Y-86398552D01*
X159796409Y-86369222D01*
X159952934Y-86285557D01*
X160122773Y-86234037D01*
X160188957Y-86227519D01*
X160255140Y-86221000D01*
X160343660Y-86221000D01*
X160409843Y-86227519D01*
X160409843Y-86227519D01*
G37*
G36*
X176440400Y-88023000D02*
G01*
X174638400Y-88023000D01*
X174638400Y-86221000D01*
X176440400Y-86221000D01*
X176440400Y-88023000D01*
X176440400Y-88023000D01*
G37*
G36*
X168029843Y-86227519D02*
G01*
X168096027Y-86234037D01*
X168265866Y-86285557D01*
X168422391Y-86369222D01*
X168458129Y-86398552D01*
X168559586Y-86481814D01*
X168642848Y-86583271D01*
X168672178Y-86619009D01*
X168755843Y-86775534D01*
X168807363Y-86945373D01*
X168824759Y-87122000D01*
X168807363Y-87298627D01*
X168755843Y-87468466D01*
X168755842Y-87468468D01*
X168725163Y-87525863D01*
X168672178Y-87624991D01*
X168642848Y-87660729D01*
X168559586Y-87762186D01*
X168458129Y-87845448D01*
X168422391Y-87874778D01*
X168265866Y-87958443D01*
X168096027Y-88009963D01*
X168029843Y-88016481D01*
X167963660Y-88023000D01*
X167875140Y-88023000D01*
X167808957Y-88016481D01*
X167742773Y-88009963D01*
X167572934Y-87958443D01*
X167416409Y-87874778D01*
X167380671Y-87845448D01*
X167279214Y-87762186D01*
X167195952Y-87660729D01*
X167166622Y-87624991D01*
X167113637Y-87525863D01*
X167082958Y-87468468D01*
X167082957Y-87468466D01*
X167031437Y-87298627D01*
X167014041Y-87122000D01*
X167031437Y-86945373D01*
X167082957Y-86775534D01*
X167166622Y-86619009D01*
X167195952Y-86583271D01*
X167279214Y-86481814D01*
X167380671Y-86398552D01*
X167416409Y-86369222D01*
X167572934Y-86285557D01*
X167742773Y-86234037D01*
X167808957Y-86227519D01*
X167875140Y-86221000D01*
X167963660Y-86221000D01*
X168029843Y-86227519D01*
X168029843Y-86227519D01*
G37*
G36*
X173109843Y-86227519D02*
G01*
X173176027Y-86234037D01*
X173345866Y-86285557D01*
X173502391Y-86369222D01*
X173538129Y-86398552D01*
X173639586Y-86481814D01*
X173722848Y-86583271D01*
X173752178Y-86619009D01*
X173835843Y-86775534D01*
X173887363Y-86945373D01*
X173904759Y-87122000D01*
X173887363Y-87298627D01*
X173835843Y-87468466D01*
X173835842Y-87468468D01*
X173805163Y-87525863D01*
X173752178Y-87624991D01*
X173722848Y-87660729D01*
X173639586Y-87762186D01*
X173538129Y-87845448D01*
X173502391Y-87874778D01*
X173345866Y-87958443D01*
X173176027Y-88009963D01*
X173109843Y-88016481D01*
X173043660Y-88023000D01*
X172955140Y-88023000D01*
X172888957Y-88016481D01*
X172822773Y-88009963D01*
X172652934Y-87958443D01*
X172496409Y-87874778D01*
X172460671Y-87845448D01*
X172359214Y-87762186D01*
X172275952Y-87660729D01*
X172246622Y-87624991D01*
X172193637Y-87525863D01*
X172162958Y-87468468D01*
X172162957Y-87468466D01*
X172111437Y-87298627D01*
X172094041Y-87122000D01*
X172111437Y-86945373D01*
X172162957Y-86775534D01*
X172246622Y-86619009D01*
X172275952Y-86583271D01*
X172359214Y-86481814D01*
X172460671Y-86398552D01*
X172496409Y-86369222D01*
X172652934Y-86285557D01*
X172822773Y-86234037D01*
X172888957Y-86227519D01*
X172955140Y-86221000D01*
X173043660Y-86221000D01*
X173109843Y-86227519D01*
X173109843Y-86227519D01*
G37*
G36*
X162949843Y-86227519D02*
G01*
X163016027Y-86234037D01*
X163185866Y-86285557D01*
X163342391Y-86369222D01*
X163378129Y-86398552D01*
X163479586Y-86481814D01*
X163562848Y-86583271D01*
X163592178Y-86619009D01*
X163675843Y-86775534D01*
X163727363Y-86945373D01*
X163744759Y-87122000D01*
X163727363Y-87298627D01*
X163675843Y-87468466D01*
X163675842Y-87468468D01*
X163645163Y-87525863D01*
X163592178Y-87624991D01*
X163562848Y-87660729D01*
X163479586Y-87762186D01*
X163378129Y-87845448D01*
X163342391Y-87874778D01*
X163185866Y-87958443D01*
X163016027Y-88009963D01*
X162949843Y-88016481D01*
X162883660Y-88023000D01*
X162795140Y-88023000D01*
X162728957Y-88016481D01*
X162662773Y-88009963D01*
X162492934Y-87958443D01*
X162336409Y-87874778D01*
X162300671Y-87845448D01*
X162199214Y-87762186D01*
X162115952Y-87660729D01*
X162086622Y-87624991D01*
X162033637Y-87525863D01*
X162002958Y-87468468D01*
X162002957Y-87468466D01*
X161951437Y-87298627D01*
X161934041Y-87122000D01*
X161951437Y-86945373D01*
X162002957Y-86775534D01*
X162086622Y-86619009D01*
X162115952Y-86583271D01*
X162199214Y-86481814D01*
X162300671Y-86398552D01*
X162336409Y-86369222D01*
X162492934Y-86285557D01*
X162662773Y-86234037D01*
X162728957Y-86227519D01*
X162795140Y-86221000D01*
X162883660Y-86221000D01*
X162949843Y-86227519D01*
X162949843Y-86227519D01*
G37*
M02*
