G04 #@! TF.GenerationSoftware,KiCad,Pcbnew,(5.1.2)-2*
G04 #@! TF.CreationDate,2019-07-30T15:31:29+08:00*
G04 #@! TF.ProjectId,HF3,4846332e-6b69-4636-9164-5f7063625858,rev?*
G04 #@! TF.SameCoordinates,Original*
G04 #@! TF.FileFunction,Legend,Top*
G04 #@! TF.FilePolarity,Positive*
%FSLAX46Y46*%
G04 Gerber Fmt 4.6, Leading zero omitted, Abs format (unit mm)*
G04 Created by KiCad (PCBNEW (5.1.2)-2) date 2019-07-30 15:31:29*
%MOMM*%
%LPD*%
G04 APERTURE LIST*
%ADD10C,0.120000*%
%ADD11C,0.150000*%
%ADD12C,0.250000*%
G04 APERTURE END LIST*
D10*
X156972000Y-91948000D02*
X156972000Y-91236800D01*
X176326800Y-91998800D02*
X176326800Y-91236800D01*
X143916400Y-91998800D02*
X176326800Y-91998800D01*
X157022800Y-84683600D02*
X157022800Y-85445600D01*
X176326800Y-84632800D02*
X176326800Y-85394800D01*
X143916400Y-84632800D02*
X176326800Y-84632800D01*
D11*
X153461095Y-88315980D02*
X154261095Y-88315980D01*
X153461095Y-88696933D02*
X154261095Y-88696933D01*
X153461095Y-89154076D01*
X154261095Y-89154076D01*
X154261095Y-89420742D02*
X154261095Y-89877885D01*
X153461095Y-89649314D02*
X154261095Y-89649314D01*
X153384904Y-89954076D02*
X153384904Y-90563600D01*
X153461095Y-90754076D02*
X154261095Y-90754076D01*
X153461095Y-91211219D01*
X154261095Y-91211219D01*
X152187285Y-88411219D02*
X152149190Y-88373123D01*
X152111095Y-88258838D01*
X152111095Y-88182647D01*
X152149190Y-88068361D01*
X152225380Y-87992171D01*
X152301571Y-87954076D01*
X152453952Y-87915980D01*
X152568238Y-87915980D01*
X152720619Y-87954076D01*
X152796809Y-87992171D01*
X152873000Y-88068361D01*
X152911095Y-88182647D01*
X152911095Y-88258838D01*
X152873000Y-88373123D01*
X152834904Y-88411219D01*
X152111095Y-88754076D02*
X152911095Y-88754076D01*
X152911095Y-88944552D01*
X152873000Y-89058838D01*
X152796809Y-89135028D01*
X152720619Y-89173123D01*
X152568238Y-89211219D01*
X152453952Y-89211219D01*
X152301571Y-89173123D01*
X152225380Y-89135028D01*
X152149190Y-89058838D01*
X152111095Y-88944552D01*
X152111095Y-88754076D01*
X152911095Y-89706457D02*
X152911095Y-89858838D01*
X152873000Y-89935028D01*
X152796809Y-90011219D01*
X152644428Y-90049314D01*
X152377761Y-90049314D01*
X152225380Y-90011219D01*
X152149190Y-89935028D01*
X152111095Y-89858838D01*
X152111095Y-89706457D01*
X152149190Y-89630266D01*
X152225380Y-89554076D01*
X152377761Y-89515980D01*
X152644428Y-89515980D01*
X152796809Y-89554076D01*
X152873000Y-89630266D01*
X152911095Y-89706457D01*
X152111095Y-90392171D02*
X152911095Y-90392171D01*
X152111095Y-90849314D01*
X152911095Y-90849314D01*
X152530142Y-91230266D02*
X152530142Y-91496933D01*
X152111095Y-91611219D02*
X152111095Y-91230266D01*
X152911095Y-91230266D01*
X152911095Y-91611219D01*
X150761095Y-89135028D02*
X151561095Y-89135028D01*
X151561095Y-89325504D01*
X151523000Y-89439790D01*
X151446809Y-89515980D01*
X151370619Y-89554076D01*
X151218238Y-89592171D01*
X151103952Y-89592171D01*
X150951571Y-89554076D01*
X150875380Y-89515980D01*
X150799190Y-89439790D01*
X150761095Y-89325504D01*
X150761095Y-89135028D01*
X151561095Y-90087409D02*
X151561095Y-90239790D01*
X151523000Y-90315980D01*
X151446809Y-90392171D01*
X151294428Y-90430266D01*
X151027761Y-90430266D01*
X150875380Y-90392171D01*
X150799190Y-90315980D01*
X150761095Y-90239790D01*
X150761095Y-90087409D01*
X150799190Y-90011219D01*
X150875380Y-89935028D01*
X151027761Y-89896933D01*
X151294428Y-89896933D01*
X151446809Y-89935028D01*
X151523000Y-90011219D01*
X151561095Y-90087409D01*
X149411095Y-89363600D02*
X150211095Y-89363600D01*
X150211095Y-89554076D01*
X150173000Y-89668361D01*
X150096809Y-89744552D01*
X150020619Y-89782647D01*
X149868238Y-89820742D01*
X149753952Y-89820742D01*
X149601571Y-89782647D01*
X149525380Y-89744552D01*
X149449190Y-89668361D01*
X149411095Y-89554076D01*
X149411095Y-89363600D01*
X149411095Y-90163600D02*
X150211095Y-90163600D01*
X148099190Y-88735028D02*
X148061095Y-88849314D01*
X148061095Y-89039790D01*
X148099190Y-89115980D01*
X148137285Y-89154076D01*
X148213476Y-89192171D01*
X148289666Y-89192171D01*
X148365857Y-89154076D01*
X148403952Y-89115980D01*
X148442047Y-89039790D01*
X148480142Y-88887409D01*
X148518238Y-88811219D01*
X148556333Y-88773123D01*
X148632523Y-88735028D01*
X148708714Y-88735028D01*
X148784904Y-88773123D01*
X148823000Y-88811219D01*
X148861095Y-88887409D01*
X148861095Y-89077885D01*
X148823000Y-89192171D01*
X148137285Y-89992171D02*
X148099190Y-89954076D01*
X148061095Y-89839790D01*
X148061095Y-89763600D01*
X148099190Y-89649314D01*
X148175380Y-89573123D01*
X148251571Y-89535028D01*
X148403952Y-89496933D01*
X148518238Y-89496933D01*
X148670619Y-89535028D01*
X148746809Y-89573123D01*
X148823000Y-89649314D01*
X148861095Y-89763600D01*
X148861095Y-89839790D01*
X148823000Y-89954076D01*
X148784904Y-89992171D01*
X148061095Y-90335028D02*
X148861095Y-90335028D01*
X148061095Y-90792171D02*
X148518238Y-90449314D01*
X148861095Y-90792171D02*
X148403952Y-90335028D01*
X146749190Y-89154076D02*
X146711095Y-89268361D01*
X146711095Y-89458838D01*
X146749190Y-89535028D01*
X146787285Y-89573123D01*
X146863476Y-89611219D01*
X146939666Y-89611219D01*
X147015857Y-89573123D01*
X147053952Y-89535028D01*
X147092047Y-89458838D01*
X147130142Y-89306457D01*
X147168238Y-89230266D01*
X147206333Y-89192171D01*
X147282523Y-89154076D01*
X147358714Y-89154076D01*
X147434904Y-89192171D01*
X147473000Y-89230266D01*
X147511095Y-89306457D01*
X147511095Y-89496933D01*
X147473000Y-89611219D01*
X146749190Y-89915980D02*
X146711095Y-90030266D01*
X146711095Y-90220742D01*
X146749190Y-90296933D01*
X146787285Y-90335028D01*
X146863476Y-90373123D01*
X146939666Y-90373123D01*
X147015857Y-90335028D01*
X147053952Y-90296933D01*
X147092047Y-90220742D01*
X147130142Y-90068361D01*
X147168238Y-89992171D01*
X147206333Y-89954076D01*
X147282523Y-89915980D01*
X147358714Y-89915980D01*
X147434904Y-89954076D01*
X147473000Y-89992171D01*
X147511095Y-90068361D01*
X147511095Y-90258838D01*
X147473000Y-90373123D01*
X145361095Y-88601695D02*
X145742047Y-88335028D01*
X145361095Y-88144552D02*
X146161095Y-88144552D01*
X146161095Y-88449314D01*
X146123000Y-88525504D01*
X146084904Y-88563600D01*
X146008714Y-88601695D01*
X145894428Y-88601695D01*
X145818238Y-88563600D01*
X145780142Y-88525504D01*
X145742047Y-88449314D01*
X145742047Y-88144552D01*
X145399190Y-88906457D02*
X145361095Y-89020742D01*
X145361095Y-89211219D01*
X145399190Y-89287409D01*
X145437285Y-89325504D01*
X145513476Y-89363600D01*
X145589666Y-89363600D01*
X145665857Y-89325504D01*
X145703952Y-89287409D01*
X145742047Y-89211219D01*
X145780142Y-89058838D01*
X145818238Y-88982647D01*
X145856333Y-88944552D01*
X145932523Y-88906457D01*
X146008714Y-88906457D01*
X146084904Y-88944552D01*
X146123000Y-88982647D01*
X146161095Y-89058838D01*
X146161095Y-89249314D01*
X146123000Y-89363600D01*
X146161095Y-89592171D02*
X146161095Y-90049314D01*
X145361095Y-89820742D02*
X146161095Y-89820742D01*
X145284904Y-90125504D02*
X145284904Y-90735028D01*
X145361095Y-90925504D02*
X146161095Y-90925504D01*
X145361095Y-91382647D01*
X146161095Y-91382647D01*
X144773000Y-89154076D02*
X144811095Y-89077885D01*
X144811095Y-88963600D01*
X144773000Y-88849314D01*
X144696809Y-88773123D01*
X144620619Y-88735028D01*
X144468238Y-88696933D01*
X144353952Y-88696933D01*
X144201571Y-88735028D01*
X144125380Y-88773123D01*
X144049190Y-88849314D01*
X144011095Y-88963600D01*
X144011095Y-89039790D01*
X144049190Y-89154076D01*
X144087285Y-89192171D01*
X144353952Y-89192171D01*
X144353952Y-89039790D01*
X144011095Y-89535028D02*
X144811095Y-89535028D01*
X144011095Y-89992171D01*
X144811095Y-89992171D01*
X144011095Y-90373123D02*
X144811095Y-90373123D01*
X144811095Y-90563600D01*
X144773000Y-90677885D01*
X144696809Y-90754076D01*
X144620619Y-90792171D01*
X144468238Y-90830266D01*
X144353952Y-90830266D01*
X144201571Y-90792171D01*
X144125380Y-90754076D01*
X144049190Y-90677885D01*
X144011095Y-90563600D01*
X144011095Y-90373123D01*
X154311895Y-84969523D02*
X154311895Y-85426666D01*
X153511895Y-85198095D02*
X154311895Y-85198095D01*
X154311895Y-85617142D02*
X153511895Y-86150476D01*
X154311895Y-86150476D02*
X153511895Y-85617142D01*
X153930942Y-86455238D02*
X153930942Y-86721904D01*
X153511895Y-86836190D02*
X153511895Y-86455238D01*
X154311895Y-86455238D01*
X154311895Y-86836190D01*
X153511895Y-87179047D02*
X154311895Y-87179047D01*
X153511895Y-87636190D01*
X154311895Y-87636190D01*
X152961895Y-85750476D02*
X152961895Y-86207619D01*
X152161895Y-85979047D02*
X152961895Y-85979047D01*
X152961895Y-86398095D02*
X152161895Y-86931428D01*
X152961895Y-86931428D02*
X152161895Y-86398095D01*
X150811895Y-86226666D02*
X151192847Y-85960000D01*
X150811895Y-85769523D02*
X151611895Y-85769523D01*
X151611895Y-86074285D01*
X151573800Y-86150476D01*
X151535704Y-86188571D01*
X151459514Y-86226666D01*
X151345228Y-86226666D01*
X151269038Y-86188571D01*
X151230942Y-86150476D01*
X151192847Y-86074285D01*
X151192847Y-85769523D01*
X151611895Y-86493333D02*
X150811895Y-87026666D01*
X151611895Y-87026666D02*
X150811895Y-86493333D01*
X149461895Y-85731428D02*
X150261895Y-85731428D01*
X150261895Y-85921904D01*
X150223800Y-86036190D01*
X150147609Y-86112380D01*
X150071419Y-86150476D01*
X149919038Y-86188571D01*
X149804752Y-86188571D01*
X149652371Y-86150476D01*
X149576180Y-86112380D01*
X149499990Y-86036190D01*
X149461895Y-85921904D01*
X149461895Y-85731428D01*
X150261895Y-86683809D02*
X150261895Y-86836190D01*
X150223800Y-86912380D01*
X150147609Y-86988571D01*
X149995228Y-87026666D01*
X149728561Y-87026666D01*
X149576180Y-86988571D01*
X149499990Y-86912380D01*
X149461895Y-86836190D01*
X149461895Y-86683809D01*
X149499990Y-86607619D01*
X149576180Y-86531428D01*
X149728561Y-86493333D01*
X149995228Y-86493333D01*
X150147609Y-86531428D01*
X150223800Y-86607619D01*
X150261895Y-86683809D01*
X148111895Y-85960000D02*
X148911895Y-85960000D01*
X148911895Y-86150476D01*
X148873800Y-86264761D01*
X148797609Y-86340952D01*
X148721419Y-86379047D01*
X148569038Y-86417142D01*
X148454752Y-86417142D01*
X148302371Y-86379047D01*
X148226180Y-86340952D01*
X148149990Y-86264761D01*
X148111895Y-86150476D01*
X148111895Y-85960000D01*
X148111895Y-86760000D02*
X148911895Y-86760000D01*
X146799990Y-85331428D02*
X146761895Y-85445714D01*
X146761895Y-85636190D01*
X146799990Y-85712380D01*
X146838085Y-85750476D01*
X146914276Y-85788571D01*
X146990466Y-85788571D01*
X147066657Y-85750476D01*
X147104752Y-85712380D01*
X147142847Y-85636190D01*
X147180942Y-85483809D01*
X147219038Y-85407619D01*
X147257133Y-85369523D01*
X147333323Y-85331428D01*
X147409514Y-85331428D01*
X147485704Y-85369523D01*
X147523800Y-85407619D01*
X147561895Y-85483809D01*
X147561895Y-85674285D01*
X147523800Y-85788571D01*
X146838085Y-86588571D02*
X146799990Y-86550476D01*
X146761895Y-86436190D01*
X146761895Y-86360000D01*
X146799990Y-86245714D01*
X146876180Y-86169523D01*
X146952371Y-86131428D01*
X147104752Y-86093333D01*
X147219038Y-86093333D01*
X147371419Y-86131428D01*
X147447609Y-86169523D01*
X147523800Y-86245714D01*
X147561895Y-86360000D01*
X147561895Y-86436190D01*
X147523800Y-86550476D01*
X147485704Y-86588571D01*
X146761895Y-86931428D02*
X147561895Y-86931428D01*
X146761895Y-87388571D02*
X147219038Y-87045714D01*
X147561895Y-87388571D02*
X147104752Y-86931428D01*
X145449990Y-85750476D02*
X145411895Y-85864761D01*
X145411895Y-86055238D01*
X145449990Y-86131428D01*
X145488085Y-86169523D01*
X145564276Y-86207619D01*
X145640466Y-86207619D01*
X145716657Y-86169523D01*
X145754752Y-86131428D01*
X145792847Y-86055238D01*
X145830942Y-85902857D01*
X145869038Y-85826666D01*
X145907133Y-85788571D01*
X145983323Y-85750476D01*
X146059514Y-85750476D01*
X146135704Y-85788571D01*
X146173800Y-85826666D01*
X146211895Y-85902857D01*
X146211895Y-86093333D01*
X146173800Y-86207619D01*
X145449990Y-86512380D02*
X145411895Y-86626666D01*
X145411895Y-86817142D01*
X145449990Y-86893333D01*
X145488085Y-86931428D01*
X145564276Y-86969523D01*
X145640466Y-86969523D01*
X145716657Y-86931428D01*
X145754752Y-86893333D01*
X145792847Y-86817142D01*
X145830942Y-86664761D01*
X145869038Y-86588571D01*
X145907133Y-86550476D01*
X145983323Y-86512380D01*
X146059514Y-86512380D01*
X146135704Y-86550476D01*
X146173800Y-86588571D01*
X146211895Y-86664761D01*
X146211895Y-86855238D01*
X146173800Y-86969523D01*
X144861895Y-85369523D02*
X144861895Y-85864761D01*
X144557133Y-85598095D01*
X144557133Y-85712380D01*
X144519038Y-85788571D01*
X144480942Y-85826666D01*
X144404752Y-85864761D01*
X144214276Y-85864761D01*
X144138085Y-85826666D01*
X144099990Y-85788571D01*
X144061895Y-85712380D01*
X144061895Y-85483809D01*
X144099990Y-85407619D01*
X144138085Y-85369523D01*
X144861895Y-86093333D02*
X144061895Y-86360000D01*
X144861895Y-86626666D01*
X144861895Y-86817142D02*
X144861895Y-87312380D01*
X144557133Y-87045714D01*
X144557133Y-87160000D01*
X144519038Y-87236190D01*
X144480942Y-87274285D01*
X144404752Y-87312380D01*
X144214276Y-87312380D01*
X144138085Y-87274285D01*
X144099990Y-87236190D01*
X144061895Y-87160000D01*
X144061895Y-86931428D01*
X144099990Y-86855238D01*
X144138085Y-86817142D01*
D10*
X189555333Y-97588800D02*
X189897867Y-97588800D01*
X189555333Y-96568800D02*
X189897867Y-96568800D01*
X191372600Y-94083200D02*
X188912600Y-94083200D01*
X191372600Y-95553200D02*
X191372600Y-94083200D01*
X188912600Y-95553200D02*
X191372600Y-95553200D01*
X156429400Y-85792000D02*
X156429400Y-90992000D01*
X174269400Y-85792000D02*
X156429400Y-85792000D01*
X176869400Y-90992000D02*
X156429400Y-90992000D01*
X174269400Y-85792000D02*
X174269400Y-88392000D01*
X174269400Y-88392000D02*
X176869400Y-88392000D01*
X176869400Y-88392000D02*
X176869400Y-90992000D01*
X175539400Y-85792000D02*
X176869400Y-85792000D01*
X176869400Y-85792000D02*
X176869400Y-87122000D01*
X154437200Y-103278400D02*
X154437200Y-104738400D01*
X151277200Y-103278400D02*
X151277200Y-106438400D01*
X151277200Y-103278400D02*
X152207200Y-103278400D01*
X154437200Y-103278400D02*
X153507200Y-103278400D01*
X159720400Y-103227600D02*
X159720400Y-104687600D01*
X156560400Y-103227600D02*
X156560400Y-106387600D01*
X156560400Y-103227600D02*
X157490400Y-103227600D01*
X159720400Y-103227600D02*
X158790400Y-103227600D01*
X178262400Y-109298200D02*
X178262400Y-110758200D01*
X175102400Y-109298200D02*
X175102400Y-112458200D01*
X175102400Y-109298200D02*
X176032400Y-109298200D01*
X178262400Y-109298200D02*
X177332400Y-109298200D01*
X182656600Y-109298200D02*
X182656600Y-110758200D01*
X179496600Y-109298200D02*
X179496600Y-112458200D01*
X179496600Y-109298200D02*
X180426600Y-109298200D01*
X182656600Y-109298200D02*
X181726600Y-109298200D01*
X169035000Y-107472600D02*
X167575000Y-107472600D01*
X169035000Y-104312600D02*
X165875000Y-104312600D01*
X169035000Y-104312600D02*
X169035000Y-105242600D01*
X169035000Y-107472600D02*
X169035000Y-106542600D01*
X169035000Y-112501800D02*
X167575000Y-112501800D01*
X169035000Y-109341800D02*
X165875000Y-109341800D01*
X169035000Y-109341800D02*
X169035000Y-110271800D01*
X169035000Y-112501800D02*
X169035000Y-111571800D01*
X175058800Y-103460733D02*
X175058800Y-103803267D01*
X174038800Y-103460733D02*
X174038800Y-103803267D01*
X181049200Y-99472933D02*
X181049200Y-99815467D01*
X182069200Y-99472933D02*
X182069200Y-99815467D01*
X191944000Y-101122800D02*
X185974000Y-101122800D01*
X185974000Y-101122800D02*
X185974000Y-108742800D01*
X185974000Y-108742800D02*
X191944000Y-108742800D01*
X191944000Y-108742800D02*
X191944000Y-101122800D01*
X191934000Y-104432800D02*
X191184000Y-104432800D01*
X191184000Y-104432800D02*
X191184000Y-105432800D01*
X191184000Y-105432800D02*
X191934000Y-105432800D01*
X191934000Y-105432800D02*
X191934000Y-104432800D01*
X191934000Y-101132800D02*
X191184000Y-101132800D01*
X191184000Y-101132800D02*
X191184000Y-102932800D01*
X191184000Y-102932800D02*
X191934000Y-102932800D01*
X191934000Y-102932800D02*
X191934000Y-101132800D01*
X191934000Y-106932800D02*
X191184000Y-106932800D01*
X191184000Y-106932800D02*
X191184000Y-108732800D01*
X191184000Y-108732800D02*
X191934000Y-108732800D01*
X191934000Y-108732800D02*
X191934000Y-106932800D01*
X189684000Y-101132800D02*
X189684000Y-101882800D01*
X189684000Y-101882800D02*
X186734000Y-101882800D01*
X186734000Y-101882800D02*
X186734000Y-104932800D01*
X189684000Y-108732800D02*
X189684000Y-107982800D01*
X189684000Y-107982800D02*
X186734000Y-107982800D01*
X186734000Y-107982800D02*
X186734000Y-104932800D01*
X192234000Y-102082800D02*
X192234000Y-100832800D01*
X192234000Y-100832800D02*
X190984000Y-100832800D01*
X138357200Y-136350200D02*
X141957200Y-136350200D01*
X138357200Y-143710200D02*
X141957200Y-143710200D01*
X143837200Y-138230200D02*
X143837200Y-141830200D01*
X136477200Y-138230200D02*
X136477200Y-141830200D01*
X136477200Y-127528332D02*
X136477200Y-131128332D01*
X143837200Y-127528332D02*
X143837200Y-131128332D01*
X138357200Y-133008332D02*
X141957200Y-133008332D01*
X138357200Y-125648332D02*
X141957200Y-125648332D01*
X186337800Y-122304000D02*
X189937800Y-122304000D01*
X186337800Y-129664000D02*
X189937800Y-129664000D01*
X191817800Y-124184000D02*
X191817800Y-127784000D01*
X184457800Y-124184000D02*
X184457800Y-127784000D01*
X141957200Y-122306466D02*
X138357200Y-122306466D01*
X141957200Y-114946466D02*
X138357200Y-114946466D01*
X136477200Y-120426466D02*
X136477200Y-116826466D01*
X143837200Y-120426466D02*
X143837200Y-116826466D01*
X143837200Y-109724600D02*
X143837200Y-106124600D01*
X136477200Y-109724600D02*
X136477200Y-106124600D01*
X141957200Y-104244600D02*
X138357200Y-104244600D01*
X141957200Y-111604600D02*
X138357200Y-111604600D01*
X177040000Y-103803267D02*
X177040000Y-103460733D01*
X176020000Y-103803267D02*
X176020000Y-103460733D01*
X178560000Y-99840867D02*
X178560000Y-99498333D01*
X179580000Y-99840867D02*
X179580000Y-99498333D01*
D11*
X171860600Y-92637600D02*
X171860600Y-101637600D01*
X162860600Y-93637600D02*
X162860600Y-101637600D01*
X159305200Y-143058200D02*
X159205200Y-143058200D01*
X152105200Y-128358200D02*
X152105200Y-128458200D01*
X159605200Y-128058200D02*
X159605200Y-128458200D01*
X152105200Y-128058200D02*
X159605200Y-128058200D01*
X152105200Y-128358200D02*
X152105200Y-128058200D01*
X159805200Y-143058200D02*
X159305200Y-143058200D01*
X159805200Y-142458200D02*
X159805200Y-143058200D01*
X159605200Y-142858200D02*
X159605200Y-142458200D01*
X152105200Y-142858200D02*
X159605200Y-142858200D01*
X152105200Y-142458200D02*
X152105200Y-142858200D01*
X177440800Y-133584000D02*
X177340800Y-133584000D01*
X170240800Y-118884000D02*
X170240800Y-118984000D01*
X177740800Y-118584000D02*
X177740800Y-118984000D01*
X170240800Y-118584000D02*
X177740800Y-118584000D01*
X170240800Y-118884000D02*
X170240800Y-118584000D01*
X177940800Y-133584000D02*
X177440800Y-133584000D01*
X177940800Y-132984000D02*
X177940800Y-133584000D01*
X177740800Y-133384000D02*
X177740800Y-132984000D01*
X170240800Y-133384000D02*
X177740800Y-133384000D01*
X170240800Y-132984000D02*
X170240800Y-133384000D01*
X152105200Y-123332000D02*
X152105200Y-123732000D01*
X152105200Y-123732000D02*
X159605200Y-123732000D01*
X159605200Y-123732000D02*
X159605200Y-123332000D01*
X159805200Y-123332000D02*
X159805200Y-123932000D01*
X159805200Y-123932000D02*
X159305200Y-123932000D01*
X152105200Y-109232000D02*
X152105200Y-108932000D01*
X152105200Y-108932000D02*
X159605200Y-108932000D01*
X159605200Y-108932000D02*
X159605200Y-109332000D01*
X152105200Y-109232000D02*
X152105200Y-109332000D01*
X159305200Y-123932000D02*
X159205200Y-123932000D01*
D10*
X181007600Y-102088000D02*
X179207600Y-102088000D01*
X179207600Y-105308000D02*
X181657600Y-105308000D01*
D11*
X186624933Y-97632780D02*
X186291600Y-97156590D01*
X186053504Y-97632780D02*
X186053504Y-96632780D01*
X186434457Y-96632780D01*
X186529695Y-96680400D01*
X186577314Y-96728019D01*
X186624933Y-96823257D01*
X186624933Y-96966114D01*
X186577314Y-97061352D01*
X186529695Y-97108971D01*
X186434457Y-97156590D01*
X186053504Y-97156590D01*
X186958266Y-96632780D02*
X187577314Y-96632780D01*
X187243980Y-97013733D01*
X187386838Y-97013733D01*
X187482076Y-97061352D01*
X187529695Y-97108971D01*
X187577314Y-97204209D01*
X187577314Y-97442304D01*
X187529695Y-97537542D01*
X187482076Y-97585161D01*
X187386838Y-97632780D01*
X187101123Y-97632780D01*
X187005885Y-97585161D01*
X186958266Y-97537542D01*
X184747066Y-95346780D02*
X184747066Y-94346780D01*
X185128019Y-94346780D01*
X185223257Y-94394400D01*
X185270876Y-94442019D01*
X185318495Y-94537257D01*
X185318495Y-94680114D01*
X185270876Y-94775352D01*
X185223257Y-94822971D01*
X185128019Y-94870590D01*
X184747066Y-94870590D01*
X185651828Y-94346780D02*
X185889923Y-95346780D01*
X186080400Y-94632495D01*
X186270876Y-95346780D01*
X186508971Y-94346780D01*
X187461352Y-95346780D02*
X187128019Y-94870590D01*
X186889923Y-95346780D02*
X186889923Y-94346780D01*
X187270876Y-94346780D01*
X187366114Y-94394400D01*
X187413733Y-94442019D01*
X187461352Y-94537257D01*
X187461352Y-94680114D01*
X187413733Y-94775352D01*
X187366114Y-94822971D01*
X187270876Y-94870590D01*
X186889923Y-94870590D01*
X152457161Y-100166419D02*
X152361923Y-100118800D01*
X152266685Y-100023561D01*
X152123828Y-99880704D01*
X152028590Y-99833085D01*
X151933352Y-99833085D01*
X151980971Y-100071180D02*
X151885733Y-100023561D01*
X151790495Y-99928323D01*
X151742876Y-99737847D01*
X151742876Y-99404514D01*
X151790495Y-99214038D01*
X151885733Y-99118800D01*
X151980971Y-99071180D01*
X152171447Y-99071180D01*
X152266685Y-99118800D01*
X152361923Y-99214038D01*
X152409542Y-99404514D01*
X152409542Y-99737847D01*
X152361923Y-99928323D01*
X152266685Y-100023561D01*
X152171447Y-100071180D01*
X151980971Y-100071180D01*
X153266685Y-99071180D02*
X153076209Y-99071180D01*
X152980971Y-99118800D01*
X152933352Y-99166419D01*
X152838114Y-99309276D01*
X152790495Y-99499752D01*
X152790495Y-99880704D01*
X152838114Y-99975942D01*
X152885733Y-100023561D01*
X152980971Y-100071180D01*
X153171447Y-100071180D01*
X153266685Y-100023561D01*
X153314304Y-99975942D01*
X153361923Y-99880704D01*
X153361923Y-99642609D01*
X153314304Y-99547371D01*
X153266685Y-99499752D01*
X153171447Y-99452133D01*
X152980971Y-99452133D01*
X152885733Y-99499752D01*
X152838114Y-99547371D01*
X152790495Y-99642609D01*
X157943561Y-100115619D02*
X157848323Y-100068000D01*
X157753085Y-99972761D01*
X157610228Y-99829904D01*
X157514990Y-99782285D01*
X157419752Y-99782285D01*
X157467371Y-100020380D02*
X157372133Y-99972761D01*
X157276895Y-99877523D01*
X157229276Y-99687047D01*
X157229276Y-99353714D01*
X157276895Y-99163238D01*
X157372133Y-99068000D01*
X157467371Y-99020380D01*
X157657847Y-99020380D01*
X157753085Y-99068000D01*
X157848323Y-99163238D01*
X157895942Y-99353714D01*
X157895942Y-99687047D01*
X157848323Y-99877523D01*
X157753085Y-99972761D01*
X157657847Y-100020380D01*
X157467371Y-100020380D01*
X158800704Y-99020380D02*
X158324514Y-99020380D01*
X158276895Y-99496571D01*
X158324514Y-99448952D01*
X158419752Y-99401333D01*
X158657847Y-99401333D01*
X158753085Y-99448952D01*
X158800704Y-99496571D01*
X158848323Y-99591809D01*
X158848323Y-99829904D01*
X158800704Y-99925142D01*
X158753085Y-99972761D01*
X158657847Y-100020380D01*
X158419752Y-100020380D01*
X158324514Y-99972761D01*
X158276895Y-99925142D01*
X173386761Y-112714019D02*
X173291523Y-112666400D01*
X173196285Y-112571161D01*
X173053428Y-112428304D01*
X172958190Y-112380685D01*
X172862952Y-112380685D01*
X172910571Y-112618780D02*
X172815333Y-112571161D01*
X172720095Y-112475923D01*
X172672476Y-112285447D01*
X172672476Y-111952114D01*
X172720095Y-111761638D01*
X172815333Y-111666400D01*
X172910571Y-111618780D01*
X173101047Y-111618780D01*
X173196285Y-111666400D01*
X173291523Y-111761638D01*
X173339142Y-111952114D01*
X173339142Y-112285447D01*
X173291523Y-112475923D01*
X173196285Y-112571161D01*
X173101047Y-112618780D01*
X172910571Y-112618780D01*
X174196285Y-111952114D02*
X174196285Y-112618780D01*
X173958190Y-111571161D02*
X173720095Y-112285447D01*
X174339142Y-112285447D01*
X184003961Y-112714019D02*
X183908723Y-112666400D01*
X183813485Y-112571161D01*
X183670628Y-112428304D01*
X183575390Y-112380685D01*
X183480152Y-112380685D01*
X183527771Y-112618780D02*
X183432533Y-112571161D01*
X183337295Y-112475923D01*
X183289676Y-112285447D01*
X183289676Y-111952114D01*
X183337295Y-111761638D01*
X183432533Y-111666400D01*
X183527771Y-111618780D01*
X183718247Y-111618780D01*
X183813485Y-111666400D01*
X183908723Y-111761638D01*
X183956342Y-111952114D01*
X183956342Y-112285447D01*
X183908723Y-112475923D01*
X183813485Y-112571161D01*
X183718247Y-112618780D01*
X183527771Y-112618780D01*
X184289676Y-111618780D02*
X184908723Y-111618780D01*
X184575390Y-111999733D01*
X184718247Y-111999733D01*
X184813485Y-112047352D01*
X184861104Y-112094971D01*
X184908723Y-112190209D01*
X184908723Y-112428304D01*
X184861104Y-112523542D01*
X184813485Y-112571161D01*
X184718247Y-112618780D01*
X184432533Y-112618780D01*
X184337295Y-112571161D01*
X184289676Y-112523542D01*
X164039561Y-106465619D02*
X163944323Y-106418000D01*
X163849085Y-106322761D01*
X163706228Y-106179904D01*
X163610990Y-106132285D01*
X163515752Y-106132285D01*
X163563371Y-106370380D02*
X163468133Y-106322761D01*
X163372895Y-106227523D01*
X163325276Y-106037047D01*
X163325276Y-105703714D01*
X163372895Y-105513238D01*
X163468133Y-105418000D01*
X163563371Y-105370380D01*
X163753847Y-105370380D01*
X163849085Y-105418000D01*
X163944323Y-105513238D01*
X163991942Y-105703714D01*
X163991942Y-106037047D01*
X163944323Y-106227523D01*
X163849085Y-106322761D01*
X163753847Y-106370380D01*
X163563371Y-106370380D01*
X164372895Y-105465619D02*
X164420514Y-105418000D01*
X164515752Y-105370380D01*
X164753847Y-105370380D01*
X164849085Y-105418000D01*
X164896704Y-105465619D01*
X164944323Y-105560857D01*
X164944323Y-105656095D01*
X164896704Y-105798952D01*
X164325276Y-106370380D01*
X164944323Y-106370380D01*
X164039561Y-111393219D02*
X163944323Y-111345600D01*
X163849085Y-111250361D01*
X163706228Y-111107504D01*
X163610990Y-111059885D01*
X163515752Y-111059885D01*
X163563371Y-111297980D02*
X163468133Y-111250361D01*
X163372895Y-111155123D01*
X163325276Y-110964647D01*
X163325276Y-110631314D01*
X163372895Y-110440838D01*
X163468133Y-110345600D01*
X163563371Y-110297980D01*
X163753847Y-110297980D01*
X163849085Y-110345600D01*
X163944323Y-110440838D01*
X163991942Y-110631314D01*
X163991942Y-110964647D01*
X163944323Y-111155123D01*
X163849085Y-111250361D01*
X163753847Y-111297980D01*
X163563371Y-111297980D01*
X164944323Y-111297980D02*
X164372895Y-111297980D01*
X164658609Y-111297980D02*
X164658609Y-110297980D01*
X164563371Y-110440838D01*
X164468133Y-110536076D01*
X164372895Y-110583695D01*
X174382133Y-101195142D02*
X174334514Y-101242761D01*
X174191657Y-101290380D01*
X174096419Y-101290380D01*
X173953561Y-101242761D01*
X173858323Y-101147523D01*
X173810704Y-101052285D01*
X173763085Y-100861809D01*
X173763085Y-100718952D01*
X173810704Y-100528476D01*
X173858323Y-100433238D01*
X173953561Y-100338000D01*
X174096419Y-100290380D01*
X174191657Y-100290380D01*
X174334514Y-100338000D01*
X174382133Y-100385619D01*
X175334514Y-101290380D02*
X174763085Y-101290380D01*
X175048800Y-101290380D02*
X175048800Y-100290380D01*
X174953561Y-100433238D01*
X174858323Y-100528476D01*
X174763085Y-100576095D01*
X181392533Y-97385142D02*
X181344914Y-97432761D01*
X181202057Y-97480380D01*
X181106819Y-97480380D01*
X180963961Y-97432761D01*
X180868723Y-97337523D01*
X180821104Y-97242285D01*
X180773485Y-97051809D01*
X180773485Y-96908952D01*
X180821104Y-96718476D01*
X180868723Y-96623238D01*
X180963961Y-96528000D01*
X181106819Y-96480380D01*
X181202057Y-96480380D01*
X181344914Y-96528000D01*
X181392533Y-96575619D01*
X181773485Y-96575619D02*
X181821104Y-96528000D01*
X181916342Y-96480380D01*
X182154438Y-96480380D01*
X182249676Y-96528000D01*
X182297295Y-96575619D01*
X182344914Y-96670857D01*
X182344914Y-96766095D01*
X182297295Y-96908952D01*
X181725866Y-97480380D01*
X182344914Y-97480380D01*
D12*
X193386857Y-104897028D02*
X193386857Y-103906552D01*
X193882095Y-104401790D02*
X192891619Y-104401790D01*
X192582095Y-102668457D02*
X192582095Y-103287504D01*
X193201142Y-103349409D01*
X193139238Y-103287504D01*
X193077333Y-103163695D01*
X193077333Y-102854171D01*
X193139238Y-102730361D01*
X193201142Y-102668457D01*
X193324952Y-102606552D01*
X193634476Y-102606552D01*
X193758285Y-102668457D01*
X193820190Y-102730361D01*
X193882095Y-102854171D01*
X193882095Y-103163695D01*
X193820190Y-103287504D01*
X193758285Y-103349409D01*
X192582095Y-102235123D02*
X193882095Y-101801790D01*
X192582095Y-101368457D01*
X139259580Y-135439885D02*
X139197676Y-135501790D01*
X139011961Y-135563695D01*
X138888152Y-135563695D01*
X138702438Y-135501790D01*
X138578628Y-135377980D01*
X138516723Y-135254171D01*
X138454819Y-135006552D01*
X138454819Y-134820838D01*
X138516723Y-134573219D01*
X138578628Y-134449409D01*
X138702438Y-134325600D01*
X138888152Y-134263695D01*
X139011961Y-134263695D01*
X139197676Y-134325600D01*
X139259580Y-134387504D01*
X139816723Y-135563695D02*
X139816723Y-134263695D01*
X139816723Y-134882742D02*
X140559580Y-134882742D01*
X140559580Y-135563695D02*
X140559580Y-134263695D01*
X141735771Y-134697028D02*
X141735771Y-135563695D01*
X141426247Y-134201790D02*
X141116723Y-135130361D01*
X141921485Y-135130361D01*
X139259580Y-124670285D02*
X139197676Y-124732190D01*
X139011961Y-124794095D01*
X138888152Y-124794095D01*
X138702438Y-124732190D01*
X138578628Y-124608380D01*
X138516723Y-124484571D01*
X138454819Y-124236952D01*
X138454819Y-124051238D01*
X138516723Y-123803619D01*
X138578628Y-123679809D01*
X138702438Y-123556000D01*
X138888152Y-123494095D01*
X139011961Y-123494095D01*
X139197676Y-123556000D01*
X139259580Y-123617904D01*
X139816723Y-124794095D02*
X139816723Y-123494095D01*
X139816723Y-124113142D02*
X140559580Y-124113142D01*
X140559580Y-124794095D02*
X140559580Y-123494095D01*
X141054819Y-123494095D02*
X141859580Y-123494095D01*
X141426247Y-123989333D01*
X141611961Y-123989333D01*
X141735771Y-124051238D01*
X141797676Y-124113142D01*
X141859580Y-124236952D01*
X141859580Y-124546476D01*
X141797676Y-124670285D01*
X141735771Y-124732190D01*
X141611961Y-124794095D01*
X141240533Y-124794095D01*
X141116723Y-124732190D01*
X141054819Y-124670285D01*
X186660000Y-120192095D02*
X186907619Y-120192095D01*
X187031428Y-120254000D01*
X187155238Y-120377809D01*
X187217142Y-120625428D01*
X187217142Y-121058761D01*
X187155238Y-121306380D01*
X187031428Y-121430190D01*
X186907619Y-121492095D01*
X186660000Y-121492095D01*
X186536190Y-121430190D01*
X186412380Y-121306380D01*
X186350476Y-121058761D01*
X186350476Y-120625428D01*
X186412380Y-120377809D01*
X186536190Y-120254000D01*
X186660000Y-120192095D01*
X187774285Y-120192095D02*
X187774285Y-121244476D01*
X187836190Y-121368285D01*
X187898095Y-121430190D01*
X188021904Y-121492095D01*
X188269523Y-121492095D01*
X188393333Y-121430190D01*
X188455238Y-121368285D01*
X188517142Y-121244476D01*
X188517142Y-120192095D01*
X188950476Y-120192095D02*
X189693333Y-120192095D01*
X189321904Y-121492095D02*
X189321904Y-120192095D01*
X139259580Y-114103885D02*
X139197676Y-114165790D01*
X139011961Y-114227695D01*
X138888152Y-114227695D01*
X138702438Y-114165790D01*
X138578628Y-114041980D01*
X138516723Y-113918171D01*
X138454819Y-113670552D01*
X138454819Y-113484838D01*
X138516723Y-113237219D01*
X138578628Y-113113409D01*
X138702438Y-112989600D01*
X138888152Y-112927695D01*
X139011961Y-112927695D01*
X139197676Y-112989600D01*
X139259580Y-113051504D01*
X139816723Y-114227695D02*
X139816723Y-112927695D01*
X139816723Y-113546742D02*
X140559580Y-113546742D01*
X140559580Y-114227695D02*
X140559580Y-112927695D01*
X141116723Y-113051504D02*
X141178628Y-112989600D01*
X141302438Y-112927695D01*
X141611961Y-112927695D01*
X141735771Y-112989600D01*
X141797676Y-113051504D01*
X141859580Y-113175314D01*
X141859580Y-113299123D01*
X141797676Y-113484838D01*
X141054819Y-114227695D01*
X141859580Y-114227695D01*
X139310380Y-103283485D02*
X139248476Y-103345390D01*
X139062761Y-103407295D01*
X138938952Y-103407295D01*
X138753238Y-103345390D01*
X138629428Y-103221580D01*
X138567523Y-103097771D01*
X138505619Y-102850152D01*
X138505619Y-102664438D01*
X138567523Y-102416819D01*
X138629428Y-102293009D01*
X138753238Y-102169200D01*
X138938952Y-102107295D01*
X139062761Y-102107295D01*
X139248476Y-102169200D01*
X139310380Y-102231104D01*
X139867523Y-103407295D02*
X139867523Y-102107295D01*
X139867523Y-102726342D02*
X140610380Y-102726342D01*
X140610380Y-103407295D02*
X140610380Y-102107295D01*
X141910380Y-103407295D02*
X141167523Y-103407295D01*
X141538952Y-103407295D02*
X141538952Y-102107295D01*
X141415142Y-102293009D01*
X141291333Y-102416819D01*
X141167523Y-102478723D01*
D11*
X176414133Y-106624380D02*
X176080800Y-106148190D01*
X175842704Y-106624380D02*
X175842704Y-105624380D01*
X176223657Y-105624380D01*
X176318895Y-105672000D01*
X176366514Y-105719619D01*
X176414133Y-105814857D01*
X176414133Y-105957714D01*
X176366514Y-106052952D01*
X176318895Y-106100571D01*
X176223657Y-106148190D01*
X175842704Y-106148190D01*
X177366514Y-106624380D02*
X176795085Y-106624380D01*
X177080800Y-106624380D02*
X177080800Y-105624380D01*
X176985561Y-105767238D01*
X176890323Y-105862476D01*
X176795085Y-105910095D01*
X178903333Y-97531180D02*
X178570000Y-97054990D01*
X178331904Y-97531180D02*
X178331904Y-96531180D01*
X178712857Y-96531180D01*
X178808095Y-96578800D01*
X178855714Y-96626419D01*
X178903333Y-96721657D01*
X178903333Y-96864514D01*
X178855714Y-96959752D01*
X178808095Y-97007371D01*
X178712857Y-97054990D01*
X178331904Y-97054990D01*
X179284285Y-96626419D02*
X179331904Y-96578800D01*
X179427142Y-96531180D01*
X179665238Y-96531180D01*
X179760476Y-96578800D01*
X179808095Y-96626419D01*
X179855714Y-96721657D01*
X179855714Y-96816895D01*
X179808095Y-96959752D01*
X179236666Y-97531180D01*
X179855714Y-97531180D01*
X172669295Y-94092780D02*
X172669295Y-94902304D01*
X172716914Y-94997542D01*
X172764533Y-95045161D01*
X172859771Y-95092780D01*
X173050247Y-95092780D01*
X173145485Y-95045161D01*
X173193104Y-94997542D01*
X173240723Y-94902304D01*
X173240723Y-94092780D01*
X174240723Y-95092780D02*
X173669295Y-95092780D01*
X173955009Y-95092780D02*
X173955009Y-94092780D01*
X173859771Y-94235638D01*
X173764533Y-94330876D01*
X173669295Y-94378495D01*
X155083295Y-143800580D02*
X155083295Y-144610104D01*
X155130914Y-144705342D01*
X155178533Y-144752961D01*
X155273771Y-144800580D01*
X155464247Y-144800580D01*
X155559485Y-144752961D01*
X155607104Y-144705342D01*
X155654723Y-144610104D01*
X155654723Y-143800580D01*
X156083295Y-143895819D02*
X156130914Y-143848200D01*
X156226152Y-143800580D01*
X156464247Y-143800580D01*
X156559485Y-143848200D01*
X156607104Y-143895819D01*
X156654723Y-143991057D01*
X156654723Y-144086295D01*
X156607104Y-144229152D01*
X156035676Y-144800580D01*
X156654723Y-144800580D01*
X173218895Y-134326380D02*
X173218895Y-135135904D01*
X173266514Y-135231142D01*
X173314133Y-135278761D01*
X173409371Y-135326380D01*
X173599847Y-135326380D01*
X173695085Y-135278761D01*
X173742704Y-135231142D01*
X173790323Y-135135904D01*
X173790323Y-134326380D01*
X174171276Y-134326380D02*
X174790323Y-134326380D01*
X174456990Y-134707333D01*
X174599847Y-134707333D01*
X174695085Y-134754952D01*
X174742704Y-134802571D01*
X174790323Y-134897809D01*
X174790323Y-135135904D01*
X174742704Y-135231142D01*
X174695085Y-135278761D01*
X174599847Y-135326380D01*
X174314133Y-135326380D01*
X174218895Y-135278761D01*
X174171276Y-135231142D01*
X155083295Y-124674380D02*
X155083295Y-125483904D01*
X155130914Y-125579142D01*
X155178533Y-125626761D01*
X155273771Y-125674380D01*
X155464247Y-125674380D01*
X155559485Y-125626761D01*
X155607104Y-125579142D01*
X155654723Y-125483904D01*
X155654723Y-124674380D01*
X156559485Y-125007714D02*
X156559485Y-125674380D01*
X156321390Y-124626761D02*
X156083295Y-125341047D01*
X156702342Y-125341047D01*
X183032495Y-102271580D02*
X183032495Y-103081104D01*
X183080114Y-103176342D01*
X183127733Y-103223961D01*
X183222971Y-103271580D01*
X183413447Y-103271580D01*
X183508685Y-103223961D01*
X183556304Y-103176342D01*
X183603923Y-103081104D01*
X183603923Y-102271580D01*
X184556304Y-102271580D02*
X184080114Y-102271580D01*
X184032495Y-102747771D01*
X184080114Y-102700152D01*
X184175352Y-102652533D01*
X184413447Y-102652533D01*
X184508685Y-102700152D01*
X184556304Y-102747771D01*
X184603923Y-102843009D01*
X184603923Y-103081104D01*
X184556304Y-103176342D01*
X184508685Y-103223961D01*
X184413447Y-103271580D01*
X184175352Y-103271580D01*
X184080114Y-103223961D01*
X184032495Y-103176342D01*
M02*
