M48
; DRILL file {KiCad (5.1.2)-2} date 2019/7/30 15:31:32
; FORMAT={-:-/ absolute / inch / decimal}
; #@! TF.CreationDate,2019-07-30T15:31:32+08:00
; #@! TF.GenerationSoftware,Kicad,Pcbnew,(5.1.2)-2
; #@! TF.FileFunction,Plated,1,2,PTH
FMAT,2
INCH
T1C0.0157
T2C0.0394
T3C0.0512
T4C0.0591
T5C0.1260
%
G90
G05
T1
X5.704Y-4.398
X5.704Y-5.594
X5.706Y-4.17
X5.706Y-5.432
X5.708Y-4.602
X5.708Y-5.018
X5.708Y-5.164
X5.71Y-4.744
X5.762Y-4.454
X5.764Y-5.404
X5.766Y-4.234
X5.766Y-5.594
X5.768Y-4.602
X5.768Y-4.744
X5.768Y-5.018
X5.768Y-5.164
X5.818Y-4.506
X5.822Y-4.288
X5.828Y-4.782
X5.828Y-5.214
X5.828Y-5.404
X5.83Y-4.602
X5.83Y-5.018
X5.83Y-5.56
X6.274Y-4.067
X6.387Y-3.926
X6.42Y-5.198
X6.422Y-5.4
X6.428Y-4.726
X6.436Y-4.528
X6.458Y-3.87
X6.468Y-5.146
X6.472Y-4.774
X6.474Y-5.342
X6.476Y-4.572
X6.514Y-4.82
X6.514Y-5.098
X6.515Y-3.871
X6.518Y-4.612
X6.522Y-5.292
X6.558Y-4.866
X6.558Y-5.052
X6.559Y-4.0265
X6.56Y-4.656
X6.57Y-5.242
X6.5825Y-3.87
X6.6481Y-4.02
X6.6874Y-4.0194
X6.7268Y-4.0192
X6.857Y-4.1855
X6.858Y-4.357
X7.044Y-4.22
X7.045Y-4.383
X7.15Y-5.034
X7.152Y-4.89
X7.208Y-4.89
X7.208Y-5.034
X7.218Y-3.996
X7.27Y-3.996
X7.322Y-3.996
T2
X6.211Y-3.43
X6.211Y-3.53
X6.311Y-3.43
X6.311Y-3.53
X6.411Y-3.43
X6.411Y-3.53
X6.511Y-3.43
X6.511Y-3.53
X6.611Y-3.43
X6.611Y-3.53
X6.711Y-3.43
X6.711Y-3.53
X6.811Y-3.43
X6.811Y-3.53
X6.911Y-3.43
X6.911Y-3.53
X7.46Y-4.082
X7.46Y-4.1804
T3
X7.407Y-4.96
X5.518Y-4.6703
X5.518Y-4.249
X5.518Y-5.0917
X5.518Y-5.513
T4
X7.307Y-4.86
X7.307Y-5.06
X7.507Y-4.86
X7.507Y-5.06
X5.418Y-4.5703
X5.418Y-4.7703
X5.618Y-4.5703
X5.618Y-4.7703
X5.418Y-4.149
X5.418Y-4.349
X5.618Y-4.149
X5.618Y-4.349
X5.418Y-4.9917
X5.418Y-5.1917
X5.618Y-4.9917
X5.618Y-5.1917
X5.418Y-5.413
X5.418Y-5.613
X5.618Y-5.413
X5.618Y-5.613
T5
X7.5Y-3.5
X5.45Y-5.8
X5.45Y-3.5
X7.5Y-5.8
T0
M30
