M48
; DRILL file {KiCad (5.1.2)-2} date 2019/7/11 10:47:13
; FORMAT={-:-/ absolute / inch / decimal}
; #@! TF.CreationDate,2019-07-11T10:47:13+08:00
; #@! TF.GenerationSoftware,Kicad,Pcbnew,(5.1.2)-2
; #@! TF.FileFunction,Plated,1,2,PTH
FMAT,2
INCH
T1C0.0118
T2C0.0157
T3C0.0276
T4C0.0315
T5C0.0374
T6C0.0394
T7C0.0591
T8C0.0669
T9C0.1260
%
G90
G05
T1
X4.775Y-3.245
X4.8Y-3.61
X4.815Y-3.245
X4.84Y-3.61
X4.85Y-3.245
X4.885Y-3.61
X4.89Y-3.245
X4.92Y-3.61
X4.95Y-3.245
X4.96Y-3.615
X4.985Y-3.245
X5.01Y-3.615
X5.025Y-3.245
X5.075Y-3.605
X5.085Y-4.26
X5.09Y-3.27
X5.1Y-4.175
X5.105Y-3.31
X5.105Y-3.53
X5.11Y-3.345
X5.11Y-3.375
X5.11Y-3.485
X5.11Y-3.57
X5.115Y-4.11
X5.125Y-4.3
X5.135Y-3.375
X5.145Y-3.485
X5.145Y-4.04
X5.175Y-3.375
X5.19Y-3.485
X5.195Y-4.285
X5.205Y-3.99
X5.215Y-3.375
X5.23Y-3.485
X5.255Y-4.285
X5.27Y-3.375
X5.27Y-3.485
X5.28Y-3.94
X5.28Y-4.335
X5.31Y-3.375
X5.315Y-3.485
X5.315Y-4.365
X5.345Y-4.41
X5.35Y-4.505
X5.355Y-3.485
X5.365Y-3.375
X5.37Y-4.57
X5.4Y-3.48
X5.405Y-3.375
X5.405Y-3.565
X5.405Y-3.615
X5.41Y-3.68
X5.41Y-3.755
X5.42Y-3.51
X5.42Y-3.835
X5.44Y-3.375
X5.44Y-3.475
X5.475Y-4.205
X5.475Y-4.495
X5.4778Y-3.4572
X5.48Y-4.305
X5.48Y-4.4
X5.485Y-3.375
X5.525Y-4.46
X5.535Y-4.21
X5.535Y-4.285
X5.535Y-4.375
X5.54Y-3.375
X5.57Y-3.915
X5.575Y-3.75
X5.575Y-3.81
X5.575Y-3.865
X5.585Y-3.375
X5.585Y-3.565
X5.615Y-3.75
X5.615Y-3.81
X5.62Y-3.86
X5.625Y-3.38
X5.625Y-3.91
X5.63Y-3.56
X5.65Y-4.315
X5.655Y-3.75
X5.6565Y-4.3815
X5.66Y-3.81
X5.66Y-3.865
X5.66Y-3.915
X5.66Y-4.24
X5.66Y-4.44
X5.665Y-3.375
X5.69Y-3.56
X5.695Y-4.31
X5.705Y-3.375
X5.705Y-3.81
X5.705Y-3.91
X5.705Y-4.445
X5.71Y-3.86
X5.71Y-4.375
X5.715Y-4.245
X5.73Y-3.565
X5.745Y-3.68
X5.745Y-4.245
X5.755Y-3.37
X5.755Y-3.915
X5.765Y-3.56
X5.765Y-4.305
X5.765Y-4.43
X5.785Y-4.375
X5.795Y-4.59
X5.8Y-3.365
X5.8Y-3.57
X5.825Y-3.735
X5.835Y-3.59
X5.84Y-3.365
X5.845Y-4.555
X5.855Y-3.765
X5.875Y-3.615
X5.875Y-3.815
X5.88Y-3.37
X5.88Y-3.89
X5.885Y-3.97
X5.895Y-3.645
X5.895Y-3.93
X5.91Y-3.48
X5.915Y-4.04
X5.925Y-3.68
X5.925Y-4.49
X5.93Y-3.37
X5.93Y-3.545
X5.94Y-3.485
X5.95Y-3.71
X5.955Y-4.1
X5.96Y-3.575
X5.96Y-4.43
X5.97Y-3.37
X5.975Y-3.485
X5.98Y-4.25
X5.98Y-4.35
X5.99Y-4.17
X5.995Y-3.755
X6.0Y-3.61
X6.015Y-3.49
X6.02Y-3.785
X6.025Y-3.37
X6.04Y-3.64
X6.05Y-3.49
X6.055Y-3.82
X6.075Y-3.37
X6.08Y-3.685
X6.09Y-3.49
X6.1Y-3.84
X6.105Y-3.37
X6.105Y-3.72
X6.13Y-3.37
X6.135Y-3.49
X6.145Y-3.755
X6.16Y-3.48
X6.175Y-3.37
X6.185Y-3.79
X6.19Y-3.48
X6.21Y-3.335
X6.21Y-3.52
X6.215Y-3.305
X6.215Y-3.365
X6.22Y-3.47
X6.225Y-3.27
X6.225Y-3.555
X6.255Y-3.595
X6.275Y-3.24
X6.3Y-3.605
X6.32Y-3.24
X6.345Y-3.6
X6.36Y-3.24
X6.38Y-3.605
X6.4Y-3.24
X6.415Y-3.605
X6.455Y-3.235
X6.47Y-3.605
X6.5Y-3.24
X6.525Y-3.605
T2
X5.465Y-3.61
X5.5365Y-3.68
X5.585Y-4.46
X5.6Y-4.325
X5.81Y-4.015
X5.81Y-4.0859
T3
X5.65Y-4.085
X5.64Y-3.475
T4
X5.505Y-3.83
X5.805Y-3.83
T5
X5.5281Y-4.58
X5.6266Y-4.58
X5.725Y-4.58
T6
X6.1625Y-3.8875
T7
X4.91Y-3.43
X6.405Y-3.42
T8
X4.81Y-3.33
X4.81Y-3.53
X5.01Y-3.33
X5.01Y-3.53
X6.305Y-3.32
X6.305Y-3.52
X6.505Y-3.32
X6.505Y-3.52
T9
X4.88Y-3.09
X6.45Y-4.685
X4.865Y-4.675
X6.445Y-3.065
T0
M30
