G04 #@! TF.GenerationSoftware,KiCad,Pcbnew,(5.1.2)-2*
G04 #@! TF.CreationDate,2019-07-11T10:47:11+08:00*
G04 #@! TF.ProjectId,HMC346AMS8GE,484d4333-3436-4414-9d53-3847452e6b69,rev?*
G04 #@! TF.SameCoordinates,Original*
G04 #@! TF.FileFunction,Copper,L2,Bot*
G04 #@! TF.FilePolarity,Positive*
%FSLAX46Y46*%
G04 Gerber Fmt 4.6, Leading zero omitted, Abs format (unit mm)*
G04 Created by KiCad (PCBNEW (5.1.2)-2) date 2019-07-11 10:47:11*
%MOMM*%
%LPD*%
G04 APERTURE LIST*
%ADD10C,1.400000*%
%ADD11C,5.700000*%
%ADD12C,2.250000*%
%ADD13C,2.050000*%
%ADD14R,1.600000X1.600000*%
%ADD15O,1.600000X1.600000*%
%ADD16R,1.700000X1.700000*%
%ADD17C,0.100000*%
%ADD18C,1.700000*%
%ADD19O,1.700000X1.950000*%
%ADD20C,0.400000*%
%ADD21C,0.800000*%
%ADD22C,0.400000*%
%ADD23C,0.558800*%
%ADD24C,0.254000*%
G04 APERTURE END LIST*
D10*
X143256000Y-88265000D03*
X143510000Y-103759000D03*
D11*
X123571000Y-118745000D03*
X163830000Y-118999000D03*
X163703000Y-77851000D03*
X123952000Y-78486000D03*
D12*
X122174000Y-89662000D03*
X122174000Y-84582000D03*
X127254000Y-84582000D03*
X127254000Y-89662000D03*
D13*
X124714000Y-87122000D03*
D14*
X139827000Y-97282000D03*
D15*
X147447000Y-97282000D03*
D13*
X162687000Y-86868000D03*
D12*
X165227000Y-89408000D03*
X165227000Y-84328000D03*
X160147000Y-84328000D03*
X160147000Y-89408000D03*
D16*
X156527500Y-98742500D03*
D17*
G36*
X146039504Y-115358204D02*
G01*
X146063773Y-115361804D01*
X146087571Y-115367765D01*
X146110671Y-115376030D01*
X146132849Y-115386520D01*
X146153893Y-115399133D01*
X146173598Y-115413747D01*
X146191777Y-115430223D01*
X146208253Y-115448402D01*
X146222867Y-115468107D01*
X146235480Y-115489151D01*
X146245970Y-115511329D01*
X146254235Y-115534429D01*
X146260196Y-115558227D01*
X146263796Y-115582496D01*
X146265000Y-115607000D01*
X146265000Y-117057000D01*
X146263796Y-117081504D01*
X146260196Y-117105773D01*
X146254235Y-117129571D01*
X146245970Y-117152671D01*
X146235480Y-117174849D01*
X146222867Y-117195893D01*
X146208253Y-117215598D01*
X146191777Y-117233777D01*
X146173598Y-117250253D01*
X146153893Y-117264867D01*
X146132849Y-117277480D01*
X146110671Y-117287970D01*
X146087571Y-117296235D01*
X146063773Y-117302196D01*
X146039504Y-117305796D01*
X146015000Y-117307000D01*
X144815000Y-117307000D01*
X144790496Y-117305796D01*
X144766227Y-117302196D01*
X144742429Y-117296235D01*
X144719329Y-117287970D01*
X144697151Y-117277480D01*
X144676107Y-117264867D01*
X144656402Y-117250253D01*
X144638223Y-117233777D01*
X144621747Y-117215598D01*
X144607133Y-117195893D01*
X144594520Y-117174849D01*
X144584030Y-117152671D01*
X144575765Y-117129571D01*
X144569804Y-117105773D01*
X144566204Y-117081504D01*
X144565000Y-117057000D01*
X144565000Y-115607000D01*
X144566204Y-115582496D01*
X144569804Y-115558227D01*
X144575765Y-115534429D01*
X144584030Y-115511329D01*
X144594520Y-115489151D01*
X144607133Y-115468107D01*
X144621747Y-115448402D01*
X144638223Y-115430223D01*
X144656402Y-115413747D01*
X144676107Y-115399133D01*
X144697151Y-115386520D01*
X144719329Y-115376030D01*
X144742429Y-115367765D01*
X144766227Y-115361804D01*
X144790496Y-115358204D01*
X144815000Y-115357000D01*
X146015000Y-115357000D01*
X146039504Y-115358204D01*
X146039504Y-115358204D01*
G37*
D18*
X145415000Y-116332000D03*
D19*
X142915000Y-116332000D03*
X140415000Y-116332000D03*
D20*
X121920000Y-91694000D03*
X122936000Y-91694000D03*
X124079000Y-91694000D03*
X124968000Y-91694000D03*
X125984000Y-91821000D03*
X127254000Y-91821000D03*
X121285000Y-82423000D03*
X122301000Y-82423000D03*
X123190000Y-82423000D03*
X124206000Y-82423000D03*
X125730000Y-82423000D03*
X126619000Y-82423000D03*
X127635000Y-82423000D03*
X129286000Y-83058000D03*
X129667000Y-84074000D03*
X129794000Y-84963000D03*
X129794000Y-85725000D03*
X129794000Y-88519000D03*
X129667000Y-89662000D03*
X129794000Y-90678000D03*
X128905000Y-91567000D03*
X130683000Y-88519000D03*
X131826000Y-88519000D03*
X132842000Y-88519000D03*
X130429000Y-85725000D03*
X131445000Y-85725000D03*
X132461000Y-85725000D03*
X133858000Y-85725000D03*
X134874000Y-85725000D03*
X136271000Y-85725000D03*
X137287000Y-85725000D03*
X138176000Y-85725000D03*
X139319000Y-85725000D03*
X140716000Y-85725000D03*
X141859000Y-85725000D03*
X142875000Y-85852000D03*
X143891000Y-85725000D03*
X144907000Y-85725000D03*
X146177000Y-85598000D03*
X147320000Y-85471000D03*
X148336000Y-85471000D03*
X150622000Y-85598000D03*
X149352000Y-85598000D03*
X151638000Y-85598000D03*
X153035000Y-85598000D03*
X154305000Y-85598000D03*
X155067000Y-85598000D03*
X155702000Y-85598000D03*
X156845000Y-85598000D03*
X157861000Y-85471000D03*
X157734000Y-84709000D03*
X157861000Y-83947000D03*
X158115000Y-83058000D03*
X159385000Y-82296000D03*
X160528000Y-82296000D03*
X161544000Y-82296000D03*
X162560000Y-82296000D03*
X163957000Y-82169000D03*
X165100000Y-82296000D03*
X157988000Y-88138000D03*
X157734000Y-89408000D03*
X158115000Y-90297000D03*
X158877000Y-91313000D03*
X160020000Y-91567000D03*
X161163000Y-91440000D03*
X162052000Y-91567000D03*
X162941000Y-91567000D03*
X164338000Y-91567000D03*
X165735000Y-91567000D03*
X150114000Y-88392000D03*
X150876000Y-88519000D03*
X151765000Y-88519000D03*
X152781000Y-88646000D03*
X153670000Y-88646000D03*
X154686000Y-88646000D03*
X155829000Y-88646000D03*
X156464000Y-88392000D03*
X157226000Y-88392000D03*
X133858000Y-88519000D03*
X135001000Y-88519000D03*
X136017000Y-88519000D03*
X137160000Y-88392000D03*
X138176000Y-88265000D03*
X139136000Y-87813000D03*
X137668000Y-89154000D03*
X137287000Y-90551000D03*
X137287000Y-91821000D03*
X137414000Y-93472000D03*
X137414000Y-95377000D03*
X137668000Y-97409000D03*
X141859000Y-90551000D03*
X143002000Y-90424000D03*
X144526000Y-90424000D03*
X145542000Y-90551000D03*
X146431000Y-90424000D03*
X147320000Y-90678000D03*
X148209000Y-91186000D03*
X149225000Y-91821000D03*
X149733000Y-92583000D03*
X150495000Y-93472000D03*
X151130000Y-94234000D03*
X152273000Y-95377000D03*
X152908000Y-96139000D03*
X153797000Y-97028000D03*
X154940000Y-97536000D03*
X150622000Y-90043000D03*
X151384000Y-90805000D03*
X152400000Y-91694000D03*
X153416000Y-92456000D03*
X154432000Y-93599000D03*
X155067000Y-94488000D03*
X156083000Y-95377000D03*
X157099000Y-96266000D03*
X134112000Y-100076000D03*
X132207000Y-101346000D03*
X130683000Y-102616000D03*
X129921000Y-104394000D03*
X129540000Y-106045000D03*
X129159000Y-108204000D03*
X130175000Y-109220000D03*
X131953000Y-108839000D03*
X133477000Y-108839000D03*
X134112000Y-110109000D03*
X135001000Y-110871000D03*
X135763000Y-112014000D03*
X135890000Y-114427000D03*
X136398000Y-116078000D03*
X139065000Y-106807000D03*
X139192000Y-109347000D03*
X139192000Y-111760000D03*
X139065000Y-114173000D03*
X140589000Y-106934000D03*
X140589000Y-108839000D03*
X140589000Y-111125000D03*
X140335000Y-113284000D03*
X143764000Y-107696000D03*
X145161000Y-107823000D03*
X145923000Y-107823000D03*
X143510000Y-109601000D03*
X144653000Y-109474000D03*
X146431000Y-109347000D03*
X143675750Y-111290750D03*
X145034000Y-111125000D03*
X146939000Y-111125000D03*
X144907000Y-112903000D03*
X143764000Y-112776000D03*
X146431000Y-112522000D03*
X150241000Y-102616000D03*
X151257000Y-104140000D03*
X152146000Y-105918000D03*
X151892000Y-107950000D03*
X151892000Y-110490000D03*
X151384000Y-112522000D03*
X150495000Y-114046000D03*
X148463000Y-115697000D03*
X147193000Y-116586000D03*
X145923000Y-93472000D03*
X147955000Y-94869000D03*
X148717000Y-95631000D03*
X149225000Y-96901000D03*
X149733000Y-99822000D03*
X149352000Y-98806000D03*
X149479000Y-100838000D03*
X141605000Y-95250000D03*
X142621000Y-95250000D03*
X143637000Y-95250000D03*
X141605000Y-96774000D03*
X142621000Y-96774000D03*
X143764000Y-96774000D03*
X141605000Y-98171000D03*
X142748000Y-98044000D03*
X143764000Y-98171000D03*
X141478000Y-99441000D03*
X142875000Y-99314000D03*
X143764000Y-99441000D03*
X144907000Y-96774000D03*
X145034000Y-98044000D03*
X144907000Y-99314000D03*
X146177000Y-99441000D03*
D21*
X138811000Y-91694000D03*
X140627000Y-93472000D03*
X142240000Y-109855000D03*
X141859000Y-113284000D03*
X147574000Y-101981000D03*
X147574000Y-103783000D03*
D22*
X138811000Y-91694000D02*
X138849000Y-91694000D01*
X138849000Y-91694000D02*
X140627000Y-93472000D01*
D23*
X142240000Y-109855000D02*
X142240000Y-112903000D01*
X142240000Y-112903000D02*
X141859000Y-113284000D01*
D22*
X147574000Y-101981000D02*
X147574000Y-103783000D01*
D24*
G36*
X167742000Y-122657000D02*
G01*
X119913000Y-122657000D01*
X119913000Y-118401758D01*
X120086000Y-118401758D01*
X120086000Y-119088242D01*
X120219927Y-119761537D01*
X120482633Y-120395766D01*
X120864024Y-120966558D01*
X121349442Y-121451976D01*
X121920234Y-121833367D01*
X122554463Y-122096073D01*
X123227758Y-122230000D01*
X123914242Y-122230000D01*
X124587537Y-122096073D01*
X125221766Y-121833367D01*
X125792558Y-121451976D01*
X126277976Y-120966558D01*
X126659367Y-120395766D01*
X126922073Y-119761537D01*
X127056000Y-119088242D01*
X127056000Y-118655758D01*
X160345000Y-118655758D01*
X160345000Y-119342242D01*
X160478927Y-120015537D01*
X160741633Y-120649766D01*
X161123024Y-121220558D01*
X161608442Y-121705976D01*
X162179234Y-122087367D01*
X162813463Y-122350073D01*
X163486758Y-122484000D01*
X164173242Y-122484000D01*
X164846537Y-122350073D01*
X165480766Y-122087367D01*
X166051558Y-121705976D01*
X166536976Y-121220558D01*
X166918367Y-120649766D01*
X167181073Y-120015537D01*
X167315000Y-119342242D01*
X167315000Y-118655758D01*
X167181073Y-117982463D01*
X166918367Y-117348234D01*
X166536976Y-116777442D01*
X166051558Y-116292024D01*
X165480766Y-115910633D01*
X164846537Y-115647927D01*
X164173242Y-115514000D01*
X163486758Y-115514000D01*
X162813463Y-115647927D01*
X162179234Y-115910633D01*
X161608442Y-116292024D01*
X161123024Y-116777442D01*
X160741633Y-117348234D01*
X160478927Y-117982463D01*
X160345000Y-118655758D01*
X127056000Y-118655758D01*
X127056000Y-118401758D01*
X126922073Y-117728463D01*
X126659367Y-117094234D01*
X126277976Y-116523442D01*
X125888584Y-116134050D01*
X138930000Y-116134050D01*
X138930000Y-116529949D01*
X138951487Y-116748110D01*
X139036401Y-117028033D01*
X139174294Y-117286013D01*
X139359866Y-117512134D01*
X139585986Y-117697706D01*
X139843966Y-117835599D01*
X140123889Y-117920513D01*
X140415000Y-117949185D01*
X140706110Y-117920513D01*
X140986033Y-117835599D01*
X141244013Y-117697706D01*
X141470134Y-117512134D01*
X141655706Y-117286014D01*
X141669462Y-117260278D01*
X141825951Y-117466429D01*
X142043807Y-117659496D01*
X142295142Y-117806352D01*
X142558110Y-117898476D01*
X142788000Y-117777155D01*
X142788000Y-116459000D01*
X142768000Y-116459000D01*
X142768000Y-116205000D01*
X142788000Y-116205000D01*
X142788000Y-114886845D01*
X143042000Y-114886845D01*
X143042000Y-116205000D01*
X143062000Y-116205000D01*
X143062000Y-116459000D01*
X143042000Y-116459000D01*
X143042000Y-117777155D01*
X143271890Y-117898476D01*
X143534858Y-117806352D01*
X143786193Y-117659496D01*
X144004049Y-117466429D01*
X144020286Y-117445039D01*
X144076595Y-117550386D01*
X144187038Y-117684962D01*
X144321614Y-117795405D01*
X144475150Y-117877472D01*
X144641746Y-117928008D01*
X144815000Y-117945072D01*
X146015000Y-117945072D01*
X146188254Y-117928008D01*
X146354850Y-117877472D01*
X146508386Y-117795405D01*
X146642962Y-117684962D01*
X146753405Y-117550386D01*
X146835472Y-117396850D01*
X146886008Y-117230254D01*
X146903072Y-117057000D01*
X146903072Y-115607000D01*
X146886008Y-115433746D01*
X146835472Y-115267150D01*
X146753405Y-115113614D01*
X146642962Y-114979038D01*
X146508386Y-114868595D01*
X146354850Y-114786528D01*
X146188254Y-114735992D01*
X146015000Y-114718928D01*
X144815000Y-114718928D01*
X144641746Y-114735992D01*
X144475150Y-114786528D01*
X144321614Y-114868595D01*
X144187038Y-114979038D01*
X144076595Y-115113614D01*
X144020286Y-115218961D01*
X144004049Y-115197571D01*
X143786193Y-115004504D01*
X143534858Y-114857648D01*
X143271890Y-114765524D01*
X143042000Y-114886845D01*
X142788000Y-114886845D01*
X142558110Y-114765524D01*
X142295142Y-114857648D01*
X142043807Y-115004504D01*
X141825951Y-115197571D01*
X141669462Y-115403722D01*
X141655706Y-115377986D01*
X141470134Y-115151866D01*
X141244014Y-114966294D01*
X140986034Y-114828401D01*
X140706111Y-114743487D01*
X140415000Y-114714815D01*
X140123890Y-114743487D01*
X139843967Y-114828401D01*
X139585987Y-114966294D01*
X139359866Y-115151866D01*
X139174294Y-115377986D01*
X139036401Y-115635966D01*
X138951487Y-115915889D01*
X138930000Y-116134050D01*
X125888584Y-116134050D01*
X125792558Y-116038024D01*
X125221766Y-115656633D01*
X124587537Y-115393927D01*
X123914242Y-115260000D01*
X123227758Y-115260000D01*
X122554463Y-115393927D01*
X121920234Y-115656633D01*
X121349442Y-116038024D01*
X120864024Y-116523442D01*
X120482633Y-117094234D01*
X120219927Y-117728463D01*
X120086000Y-118401758D01*
X119913000Y-118401758D01*
X119913000Y-113182061D01*
X140824000Y-113182061D01*
X140824000Y-113385939D01*
X140863774Y-113585898D01*
X140941795Y-113774256D01*
X141055063Y-113943774D01*
X141199226Y-114087937D01*
X141368744Y-114201205D01*
X141557102Y-114279226D01*
X141757061Y-114319000D01*
X141960939Y-114319000D01*
X142160898Y-114279226D01*
X142349256Y-114201205D01*
X142518774Y-114087937D01*
X142662937Y-113943774D01*
X142776205Y-113774256D01*
X142854226Y-113585898D01*
X142855194Y-113581031D01*
X142889707Y-113552707D01*
X143003974Y-113413471D01*
X143088883Y-113254619D01*
X143141169Y-113082254D01*
X143154400Y-112947918D01*
X143154400Y-112947916D01*
X143158824Y-112903001D01*
X143154400Y-112858086D01*
X143154400Y-110349454D01*
X143157205Y-110345256D01*
X143235226Y-110156898D01*
X143275000Y-109956939D01*
X143275000Y-109753061D01*
X143235226Y-109553102D01*
X143157205Y-109364744D01*
X143043937Y-109195226D01*
X142899774Y-109051063D01*
X142730256Y-108937795D01*
X142541898Y-108859774D01*
X142341939Y-108820000D01*
X142138061Y-108820000D01*
X141938102Y-108859774D01*
X141749744Y-108937795D01*
X141580226Y-109051063D01*
X141436063Y-109195226D01*
X141322795Y-109364744D01*
X141244774Y-109553102D01*
X141205000Y-109753061D01*
X141205000Y-109956939D01*
X141244774Y-110156898D01*
X141322795Y-110345256D01*
X141325600Y-110349454D01*
X141325601Y-112395622D01*
X141199226Y-112480063D01*
X141055063Y-112624226D01*
X140941795Y-112793744D01*
X140863774Y-112982102D01*
X140824000Y-113182061D01*
X119913000Y-113182061D01*
X119913000Y-104680269D01*
X142768336Y-104680269D01*
X142827797Y-104914037D01*
X143066242Y-105024934D01*
X143321740Y-105087183D01*
X143584473Y-105098390D01*
X143844344Y-105058125D01*
X144091366Y-104967935D01*
X144192203Y-104914037D01*
X144251664Y-104680269D01*
X143510000Y-103938605D01*
X142768336Y-104680269D01*
X119913000Y-104680269D01*
X119913000Y-103833473D01*
X142170610Y-103833473D01*
X142210875Y-104093344D01*
X142301065Y-104340366D01*
X142354963Y-104441203D01*
X142588731Y-104500664D01*
X143330395Y-103759000D01*
X143689605Y-103759000D01*
X144431269Y-104500664D01*
X144665037Y-104441203D01*
X144775934Y-104202758D01*
X144838183Y-103947260D01*
X144849390Y-103684527D01*
X144809125Y-103424656D01*
X144718935Y-103177634D01*
X144665037Y-103076797D01*
X144431269Y-103017336D01*
X143689605Y-103759000D01*
X143330395Y-103759000D01*
X142588731Y-103017336D01*
X142354963Y-103076797D01*
X142244066Y-103315242D01*
X142181817Y-103570740D01*
X142170610Y-103833473D01*
X119913000Y-103833473D01*
X119913000Y-102837731D01*
X142768336Y-102837731D01*
X143510000Y-103579395D01*
X144251664Y-102837731D01*
X144192203Y-102603963D01*
X143953758Y-102493066D01*
X143698260Y-102430817D01*
X143435527Y-102419610D01*
X143175656Y-102459875D01*
X142928634Y-102550065D01*
X142827797Y-102603963D01*
X142768336Y-102837731D01*
X119913000Y-102837731D01*
X119913000Y-101879061D01*
X146539000Y-101879061D01*
X146539000Y-102082939D01*
X146578774Y-102282898D01*
X146656795Y-102471256D01*
X146739000Y-102594285D01*
X146739001Y-103169714D01*
X146656795Y-103292744D01*
X146578774Y-103481102D01*
X146539000Y-103681061D01*
X146539000Y-103884939D01*
X146578774Y-104084898D01*
X146656795Y-104273256D01*
X146770063Y-104442774D01*
X146914226Y-104586937D01*
X147083744Y-104700205D01*
X147272102Y-104778226D01*
X147472061Y-104818000D01*
X147675939Y-104818000D01*
X147875898Y-104778226D01*
X148064256Y-104700205D01*
X148233774Y-104586937D01*
X148377937Y-104442774D01*
X148491205Y-104273256D01*
X148569226Y-104084898D01*
X148609000Y-103884939D01*
X148609000Y-103681061D01*
X148569226Y-103481102D01*
X148491205Y-103292744D01*
X148409000Y-103169715D01*
X148409000Y-102594285D01*
X148491205Y-102471256D01*
X148569226Y-102282898D01*
X148609000Y-102082939D01*
X148609000Y-101879061D01*
X148569226Y-101679102D01*
X148491205Y-101490744D01*
X148377937Y-101321226D01*
X148233774Y-101177063D01*
X148064256Y-101063795D01*
X147875898Y-100985774D01*
X147675939Y-100946000D01*
X147472061Y-100946000D01*
X147272102Y-100985774D01*
X147083744Y-101063795D01*
X146914226Y-101177063D01*
X146770063Y-101321226D01*
X146656795Y-101490744D01*
X146578774Y-101679102D01*
X146539000Y-101879061D01*
X119913000Y-101879061D01*
X119913000Y-96482000D01*
X138388928Y-96482000D01*
X138388928Y-98082000D01*
X138401188Y-98206482D01*
X138437498Y-98326180D01*
X138496463Y-98436494D01*
X138575815Y-98533185D01*
X138672506Y-98612537D01*
X138782820Y-98671502D01*
X138902518Y-98707812D01*
X139027000Y-98720072D01*
X140627000Y-98720072D01*
X140751482Y-98707812D01*
X140871180Y-98671502D01*
X140981494Y-98612537D01*
X141078185Y-98533185D01*
X141157537Y-98436494D01*
X141216502Y-98326180D01*
X141252812Y-98206482D01*
X141265072Y-98082000D01*
X141265072Y-97282000D01*
X146005057Y-97282000D01*
X146032764Y-97563309D01*
X146114818Y-97833808D01*
X146248068Y-98083101D01*
X146427392Y-98301608D01*
X146645899Y-98480932D01*
X146895192Y-98614182D01*
X147165691Y-98696236D01*
X147376508Y-98717000D01*
X147517492Y-98717000D01*
X147728309Y-98696236D01*
X147998808Y-98614182D01*
X148248101Y-98480932D01*
X148466608Y-98301608D01*
X148645932Y-98083101D01*
X148747810Y-97892500D01*
X155039428Y-97892500D01*
X155039428Y-99592500D01*
X155051688Y-99716982D01*
X155087998Y-99836680D01*
X155146963Y-99946994D01*
X155226315Y-100043685D01*
X155323006Y-100123037D01*
X155433320Y-100182002D01*
X155553018Y-100218312D01*
X155677500Y-100230572D01*
X157377500Y-100230572D01*
X157501982Y-100218312D01*
X157621680Y-100182002D01*
X157731994Y-100123037D01*
X157828685Y-100043685D01*
X157908037Y-99946994D01*
X157967002Y-99836680D01*
X158003312Y-99716982D01*
X158015572Y-99592500D01*
X158015572Y-97892500D01*
X158003312Y-97768018D01*
X157967002Y-97648320D01*
X157908037Y-97538006D01*
X157828685Y-97441315D01*
X157731994Y-97361963D01*
X157621680Y-97302998D01*
X157501982Y-97266688D01*
X157377500Y-97254428D01*
X155677500Y-97254428D01*
X155553018Y-97266688D01*
X155433320Y-97302998D01*
X155323006Y-97361963D01*
X155226315Y-97441315D01*
X155146963Y-97538006D01*
X155087998Y-97648320D01*
X155051688Y-97768018D01*
X155039428Y-97892500D01*
X148747810Y-97892500D01*
X148779182Y-97833808D01*
X148861236Y-97563309D01*
X148888943Y-97282000D01*
X148861236Y-97000691D01*
X148779182Y-96730192D01*
X148645932Y-96480899D01*
X148466608Y-96262392D01*
X148248101Y-96083068D01*
X147998808Y-95949818D01*
X147728309Y-95867764D01*
X147517492Y-95847000D01*
X147376508Y-95847000D01*
X147165691Y-95867764D01*
X146895192Y-95949818D01*
X146645899Y-96083068D01*
X146427392Y-96262392D01*
X146248068Y-96480899D01*
X146114818Y-96730192D01*
X146032764Y-97000691D01*
X146005057Y-97282000D01*
X141265072Y-97282000D01*
X141265072Y-96482000D01*
X141252812Y-96357518D01*
X141216502Y-96237820D01*
X141157537Y-96127506D01*
X141078185Y-96030815D01*
X140981494Y-95951463D01*
X140871180Y-95892498D01*
X140751482Y-95856188D01*
X140627000Y-95843928D01*
X139027000Y-95843928D01*
X138902518Y-95856188D01*
X138782820Y-95892498D01*
X138672506Y-95951463D01*
X138575815Y-96030815D01*
X138496463Y-96127506D01*
X138437498Y-96237820D01*
X138401188Y-96357518D01*
X138388928Y-96482000D01*
X119913000Y-96482000D01*
X119913000Y-91592061D01*
X137776000Y-91592061D01*
X137776000Y-91795939D01*
X137815774Y-91995898D01*
X137893795Y-92184256D01*
X138007063Y-92353774D01*
X138151226Y-92497937D01*
X138320744Y-92611205D01*
X138509102Y-92689226D01*
X138701660Y-92727528D01*
X139602908Y-93628776D01*
X139631774Y-93773898D01*
X139709795Y-93962256D01*
X139823063Y-94131774D01*
X139967226Y-94275937D01*
X140136744Y-94389205D01*
X140325102Y-94467226D01*
X140525061Y-94507000D01*
X140728939Y-94507000D01*
X140928898Y-94467226D01*
X141117256Y-94389205D01*
X141286774Y-94275937D01*
X141430937Y-94131774D01*
X141544205Y-93962256D01*
X141622226Y-93773898D01*
X141662000Y-93573939D01*
X141662000Y-93370061D01*
X141622226Y-93170102D01*
X141544205Y-92981744D01*
X141430937Y-92812226D01*
X141286774Y-92668063D01*
X141117256Y-92554795D01*
X140928898Y-92476774D01*
X140783776Y-92447908D01*
X139825657Y-91489790D01*
X139806226Y-91392102D01*
X139728205Y-91203744D01*
X139614937Y-91034226D01*
X139470774Y-90890063D01*
X139301256Y-90776795D01*
X139112898Y-90698774D01*
X138912939Y-90659000D01*
X138709061Y-90659000D01*
X138509102Y-90698774D01*
X138320744Y-90776795D01*
X138151226Y-90890063D01*
X138007063Y-91034226D01*
X137893795Y-91203744D01*
X137815774Y-91392102D01*
X137776000Y-91592061D01*
X119913000Y-91592061D01*
X119913000Y-90886531D01*
X121129074Y-90886531D01*
X121239921Y-91163714D01*
X121550840Y-91317089D01*
X121885705Y-91406860D01*
X122231650Y-91429576D01*
X122575380Y-91384366D01*
X122903685Y-91272966D01*
X123108079Y-91163714D01*
X123218926Y-90886531D01*
X126209074Y-90886531D01*
X126319921Y-91163714D01*
X126630840Y-91317089D01*
X126965705Y-91406860D01*
X127311650Y-91429576D01*
X127655380Y-91384366D01*
X127983685Y-91272966D01*
X128188079Y-91163714D01*
X128298926Y-90886531D01*
X127254000Y-89841605D01*
X126209074Y-90886531D01*
X123218926Y-90886531D01*
X122174000Y-89841605D01*
X121129074Y-90886531D01*
X119913000Y-90886531D01*
X119913000Y-89719650D01*
X120406424Y-89719650D01*
X120451634Y-90063380D01*
X120563034Y-90391685D01*
X120672286Y-90596079D01*
X120949469Y-90706926D01*
X121994395Y-89662000D01*
X122353605Y-89662000D01*
X123398531Y-90706926D01*
X123675714Y-90596079D01*
X123829089Y-90285160D01*
X123918860Y-89950295D01*
X123934004Y-89719650D01*
X125486424Y-89719650D01*
X125531634Y-90063380D01*
X125643034Y-90391685D01*
X125752286Y-90596079D01*
X126029469Y-90706926D01*
X127074395Y-89662000D01*
X127433605Y-89662000D01*
X128478531Y-90706926D01*
X128664562Y-90632531D01*
X159102074Y-90632531D01*
X159212921Y-90909714D01*
X159523840Y-91063089D01*
X159858705Y-91152860D01*
X160204650Y-91175576D01*
X160548380Y-91130366D01*
X160876685Y-91018966D01*
X161081079Y-90909714D01*
X161191926Y-90632531D01*
X164182074Y-90632531D01*
X164292921Y-90909714D01*
X164603840Y-91063089D01*
X164938705Y-91152860D01*
X165284650Y-91175576D01*
X165628380Y-91130366D01*
X165956685Y-91018966D01*
X166161079Y-90909714D01*
X166271926Y-90632531D01*
X165227000Y-89587605D01*
X164182074Y-90632531D01*
X161191926Y-90632531D01*
X160147000Y-89587605D01*
X159102074Y-90632531D01*
X128664562Y-90632531D01*
X128755714Y-90596079D01*
X128909089Y-90285160D01*
X128998860Y-89950295D01*
X129021576Y-89604350D01*
X128976366Y-89260620D01*
X128951138Y-89186269D01*
X142514336Y-89186269D01*
X142573797Y-89420037D01*
X142812242Y-89530934D01*
X143067740Y-89593183D01*
X143330473Y-89604390D01*
X143590344Y-89564125D01*
X143837366Y-89473935D01*
X143852866Y-89465650D01*
X158379424Y-89465650D01*
X158424634Y-89809380D01*
X158536034Y-90137685D01*
X158645286Y-90342079D01*
X158922469Y-90452926D01*
X159967395Y-89408000D01*
X160326605Y-89408000D01*
X161371531Y-90452926D01*
X161648714Y-90342079D01*
X161802089Y-90031160D01*
X161891860Y-89696295D01*
X161907004Y-89465650D01*
X163459424Y-89465650D01*
X163504634Y-89809380D01*
X163616034Y-90137685D01*
X163725286Y-90342079D01*
X164002469Y-90452926D01*
X165047395Y-89408000D01*
X165406605Y-89408000D01*
X166451531Y-90452926D01*
X166728714Y-90342079D01*
X166882089Y-90031160D01*
X166971860Y-89696295D01*
X166994576Y-89350350D01*
X166949366Y-89006620D01*
X166837966Y-88678315D01*
X166728714Y-88473921D01*
X166451531Y-88363074D01*
X165406605Y-89408000D01*
X165047395Y-89408000D01*
X164002469Y-88363074D01*
X163725286Y-88473921D01*
X163571911Y-88784840D01*
X163482140Y-89119705D01*
X163459424Y-89465650D01*
X161907004Y-89465650D01*
X161914576Y-89350350D01*
X161869366Y-89006620D01*
X161757966Y-88678315D01*
X161648714Y-88473921D01*
X161371531Y-88363074D01*
X160326605Y-89408000D01*
X159967395Y-89408000D01*
X158922469Y-88363074D01*
X158645286Y-88473921D01*
X158491911Y-88784840D01*
X158402140Y-89119705D01*
X158379424Y-89465650D01*
X143852866Y-89465650D01*
X143938203Y-89420037D01*
X143997664Y-89186269D01*
X143256000Y-88444605D01*
X142514336Y-89186269D01*
X128951138Y-89186269D01*
X128864966Y-88932315D01*
X128755714Y-88727921D01*
X128478531Y-88617074D01*
X127433605Y-89662000D01*
X127074395Y-89662000D01*
X126029469Y-88617074D01*
X125752286Y-88727921D01*
X125598911Y-89038840D01*
X125509140Y-89373705D01*
X125486424Y-89719650D01*
X123934004Y-89719650D01*
X123941576Y-89604350D01*
X123896366Y-89260620D01*
X123784966Y-88932315D01*
X123675714Y-88727921D01*
X123398531Y-88617074D01*
X122353605Y-89662000D01*
X121994395Y-89662000D01*
X120949469Y-88617074D01*
X120672286Y-88727921D01*
X120518911Y-89038840D01*
X120429140Y-89373705D01*
X120406424Y-89719650D01*
X119913000Y-89719650D01*
X119913000Y-88437469D01*
X121129074Y-88437469D01*
X122174000Y-89482395D01*
X123218926Y-88437469D01*
X123108079Y-88160286D01*
X122797160Y-88006911D01*
X122462295Y-87917140D01*
X122116350Y-87894424D01*
X121772620Y-87939634D01*
X121444315Y-88051034D01*
X121239921Y-88160286D01*
X121129074Y-88437469D01*
X119913000Y-88437469D01*
X119913000Y-86958504D01*
X123054000Y-86958504D01*
X123054000Y-87285496D01*
X123117793Y-87606204D01*
X123242927Y-87908305D01*
X123424594Y-88180188D01*
X123655812Y-88411406D01*
X123927695Y-88593073D01*
X124229796Y-88718207D01*
X124550504Y-88782000D01*
X124877496Y-88782000D01*
X125198204Y-88718207D01*
X125500305Y-88593073D01*
X125733182Y-88437469D01*
X126209074Y-88437469D01*
X127254000Y-89482395D01*
X128298926Y-88437469D01*
X128259737Y-88339473D01*
X141916610Y-88339473D01*
X141956875Y-88599344D01*
X142047065Y-88846366D01*
X142100963Y-88947203D01*
X142334731Y-89006664D01*
X143076395Y-88265000D01*
X143435605Y-88265000D01*
X144177269Y-89006664D01*
X144411037Y-88947203D01*
X144521934Y-88708758D01*
X144584183Y-88453260D01*
X144595390Y-88190527D01*
X144594297Y-88183469D01*
X159102074Y-88183469D01*
X160147000Y-89228395D01*
X161191926Y-88183469D01*
X161081079Y-87906286D01*
X160770160Y-87752911D01*
X160435295Y-87663140D01*
X160089350Y-87640424D01*
X159745620Y-87685634D01*
X159417315Y-87797034D01*
X159212921Y-87906286D01*
X159102074Y-88183469D01*
X144594297Y-88183469D01*
X144555125Y-87930656D01*
X144464935Y-87683634D01*
X144411037Y-87582797D01*
X144177269Y-87523336D01*
X143435605Y-88265000D01*
X143076395Y-88265000D01*
X142334731Y-87523336D01*
X142100963Y-87582797D01*
X141990066Y-87821242D01*
X141927817Y-88076740D01*
X141916610Y-88339473D01*
X128259737Y-88339473D01*
X128188079Y-88160286D01*
X127877160Y-88006911D01*
X127542295Y-87917140D01*
X127196350Y-87894424D01*
X126852620Y-87939634D01*
X126524315Y-88051034D01*
X126319921Y-88160286D01*
X126209074Y-88437469D01*
X125733182Y-88437469D01*
X125772188Y-88411406D01*
X126003406Y-88180188D01*
X126185073Y-87908305D01*
X126310207Y-87606204D01*
X126362416Y-87343731D01*
X142514336Y-87343731D01*
X143256000Y-88085395D01*
X143997664Y-87343731D01*
X143938203Y-87109963D01*
X143699758Y-86999066D01*
X143444260Y-86936817D01*
X143181527Y-86925610D01*
X142921656Y-86965875D01*
X142674634Y-87056065D01*
X142573797Y-87109963D01*
X142514336Y-87343731D01*
X126362416Y-87343731D01*
X126374000Y-87285496D01*
X126374000Y-86958504D01*
X126323477Y-86704504D01*
X161027000Y-86704504D01*
X161027000Y-87031496D01*
X161090793Y-87352204D01*
X161215927Y-87654305D01*
X161397594Y-87926188D01*
X161628812Y-88157406D01*
X161900695Y-88339073D01*
X162202796Y-88464207D01*
X162523504Y-88528000D01*
X162850496Y-88528000D01*
X163171204Y-88464207D01*
X163473305Y-88339073D01*
X163706182Y-88183469D01*
X164182074Y-88183469D01*
X165227000Y-89228395D01*
X166271926Y-88183469D01*
X166161079Y-87906286D01*
X165850160Y-87752911D01*
X165515295Y-87663140D01*
X165169350Y-87640424D01*
X164825620Y-87685634D01*
X164497315Y-87797034D01*
X164292921Y-87906286D01*
X164182074Y-88183469D01*
X163706182Y-88183469D01*
X163745188Y-88157406D01*
X163976406Y-87926188D01*
X164158073Y-87654305D01*
X164283207Y-87352204D01*
X164347000Y-87031496D01*
X164347000Y-86704504D01*
X164283207Y-86383796D01*
X164158073Y-86081695D01*
X163976406Y-85809812D01*
X163745188Y-85578594D01*
X163706183Y-85552531D01*
X164182074Y-85552531D01*
X164292921Y-85829714D01*
X164603840Y-85983089D01*
X164938705Y-86072860D01*
X165284650Y-86095576D01*
X165628380Y-86050366D01*
X165956685Y-85938966D01*
X166161079Y-85829714D01*
X166271926Y-85552531D01*
X165227000Y-84507605D01*
X164182074Y-85552531D01*
X163706183Y-85552531D01*
X163473305Y-85396927D01*
X163171204Y-85271793D01*
X162850496Y-85208000D01*
X162523504Y-85208000D01*
X162202796Y-85271793D01*
X161900695Y-85396927D01*
X161628812Y-85578594D01*
X161397594Y-85809812D01*
X161215927Y-86081695D01*
X161090793Y-86383796D01*
X161027000Y-86704504D01*
X126323477Y-86704504D01*
X126310207Y-86637796D01*
X126185073Y-86335695D01*
X126003406Y-86063812D01*
X125772188Y-85832594D01*
X125733183Y-85806531D01*
X126209074Y-85806531D01*
X126319921Y-86083714D01*
X126630840Y-86237089D01*
X126965705Y-86326860D01*
X127311650Y-86349576D01*
X127655380Y-86304366D01*
X127983685Y-86192966D01*
X128188079Y-86083714D01*
X128298926Y-85806531D01*
X127254000Y-84761605D01*
X126209074Y-85806531D01*
X125733183Y-85806531D01*
X125500305Y-85650927D01*
X125198204Y-85525793D01*
X124877496Y-85462000D01*
X124550504Y-85462000D01*
X124229796Y-85525793D01*
X123927695Y-85650927D01*
X123655812Y-85832594D01*
X123424594Y-86063812D01*
X123242927Y-86335695D01*
X123117793Y-86637796D01*
X123054000Y-86958504D01*
X119913000Y-86958504D01*
X119913000Y-85806531D01*
X121129074Y-85806531D01*
X121239921Y-86083714D01*
X121550840Y-86237089D01*
X121885705Y-86326860D01*
X122231650Y-86349576D01*
X122575380Y-86304366D01*
X122903685Y-86192966D01*
X123108079Y-86083714D01*
X123218926Y-85806531D01*
X122174000Y-84761605D01*
X121129074Y-85806531D01*
X119913000Y-85806531D01*
X119913000Y-84639650D01*
X120406424Y-84639650D01*
X120451634Y-84983380D01*
X120563034Y-85311685D01*
X120672286Y-85516079D01*
X120949469Y-85626926D01*
X121994395Y-84582000D01*
X122353605Y-84582000D01*
X123398531Y-85626926D01*
X123675714Y-85516079D01*
X123829089Y-85205160D01*
X123918860Y-84870295D01*
X123934004Y-84639650D01*
X125486424Y-84639650D01*
X125531634Y-84983380D01*
X125643034Y-85311685D01*
X125752286Y-85516079D01*
X126029469Y-85626926D01*
X127074395Y-84582000D01*
X127433605Y-84582000D01*
X128478531Y-85626926D01*
X128664562Y-85552531D01*
X159102074Y-85552531D01*
X159212921Y-85829714D01*
X159523840Y-85983089D01*
X159858705Y-86072860D01*
X160204650Y-86095576D01*
X160548380Y-86050366D01*
X160876685Y-85938966D01*
X161081079Y-85829714D01*
X161191926Y-85552531D01*
X160147000Y-84507605D01*
X159102074Y-85552531D01*
X128664562Y-85552531D01*
X128755714Y-85516079D01*
X128909089Y-85205160D01*
X128998860Y-84870295D01*
X129021576Y-84524350D01*
X129003334Y-84385650D01*
X158379424Y-84385650D01*
X158424634Y-84729380D01*
X158536034Y-85057685D01*
X158645286Y-85262079D01*
X158922469Y-85372926D01*
X159967395Y-84328000D01*
X160326605Y-84328000D01*
X161371531Y-85372926D01*
X161648714Y-85262079D01*
X161802089Y-84951160D01*
X161891860Y-84616295D01*
X161907004Y-84385650D01*
X163459424Y-84385650D01*
X163504634Y-84729380D01*
X163616034Y-85057685D01*
X163725286Y-85262079D01*
X164002469Y-85372926D01*
X165047395Y-84328000D01*
X165406605Y-84328000D01*
X166451531Y-85372926D01*
X166728714Y-85262079D01*
X166882089Y-84951160D01*
X166971860Y-84616295D01*
X166994576Y-84270350D01*
X166949366Y-83926620D01*
X166837966Y-83598315D01*
X166728714Y-83393921D01*
X166451531Y-83283074D01*
X165406605Y-84328000D01*
X165047395Y-84328000D01*
X164002469Y-83283074D01*
X163725286Y-83393921D01*
X163571911Y-83704840D01*
X163482140Y-84039705D01*
X163459424Y-84385650D01*
X161907004Y-84385650D01*
X161914576Y-84270350D01*
X161869366Y-83926620D01*
X161757966Y-83598315D01*
X161648714Y-83393921D01*
X161371531Y-83283074D01*
X160326605Y-84328000D01*
X159967395Y-84328000D01*
X158922469Y-83283074D01*
X158645286Y-83393921D01*
X158491911Y-83704840D01*
X158402140Y-84039705D01*
X158379424Y-84385650D01*
X129003334Y-84385650D01*
X128976366Y-84180620D01*
X128864966Y-83852315D01*
X128755714Y-83647921D01*
X128478531Y-83537074D01*
X127433605Y-84582000D01*
X127074395Y-84582000D01*
X126029469Y-83537074D01*
X125752286Y-83647921D01*
X125598911Y-83958840D01*
X125509140Y-84293705D01*
X125486424Y-84639650D01*
X123934004Y-84639650D01*
X123941576Y-84524350D01*
X123896366Y-84180620D01*
X123784966Y-83852315D01*
X123675714Y-83647921D01*
X123398531Y-83537074D01*
X122353605Y-84582000D01*
X121994395Y-84582000D01*
X120949469Y-83537074D01*
X120672286Y-83647921D01*
X120518911Y-83958840D01*
X120429140Y-84293705D01*
X120406424Y-84639650D01*
X119913000Y-84639650D01*
X119913000Y-83357469D01*
X121129074Y-83357469D01*
X122174000Y-84402395D01*
X123218926Y-83357469D01*
X126209074Y-83357469D01*
X127254000Y-84402395D01*
X128298926Y-83357469D01*
X128197351Y-83103469D01*
X159102074Y-83103469D01*
X160147000Y-84148395D01*
X161191926Y-83103469D01*
X164182074Y-83103469D01*
X165227000Y-84148395D01*
X166271926Y-83103469D01*
X166161079Y-82826286D01*
X165850160Y-82672911D01*
X165515295Y-82583140D01*
X165169350Y-82560424D01*
X164825620Y-82605634D01*
X164497315Y-82717034D01*
X164292921Y-82826286D01*
X164182074Y-83103469D01*
X161191926Y-83103469D01*
X161081079Y-82826286D01*
X160770160Y-82672911D01*
X160435295Y-82583140D01*
X160089350Y-82560424D01*
X159745620Y-82605634D01*
X159417315Y-82717034D01*
X159212921Y-82826286D01*
X159102074Y-83103469D01*
X128197351Y-83103469D01*
X128188079Y-83080286D01*
X127877160Y-82926911D01*
X127542295Y-82837140D01*
X127196350Y-82814424D01*
X126852620Y-82859634D01*
X126524315Y-82971034D01*
X126319921Y-83080286D01*
X126209074Y-83357469D01*
X123218926Y-83357469D01*
X123108079Y-83080286D01*
X122797160Y-82926911D01*
X122462295Y-82837140D01*
X122116350Y-82814424D01*
X121772620Y-82859634D01*
X121444315Y-82971034D01*
X121239921Y-83080286D01*
X121129074Y-83357469D01*
X119913000Y-83357469D01*
X119913000Y-78142758D01*
X120467000Y-78142758D01*
X120467000Y-78829242D01*
X120600927Y-79502537D01*
X120863633Y-80136766D01*
X121245024Y-80707558D01*
X121730442Y-81192976D01*
X122301234Y-81574367D01*
X122935463Y-81837073D01*
X123608758Y-81971000D01*
X124295242Y-81971000D01*
X124968537Y-81837073D01*
X125602766Y-81574367D01*
X126173558Y-81192976D01*
X126658976Y-80707558D01*
X127040367Y-80136766D01*
X127303073Y-79502537D01*
X127437000Y-78829242D01*
X127437000Y-78142758D01*
X127310691Y-77507758D01*
X160218000Y-77507758D01*
X160218000Y-78194242D01*
X160351927Y-78867537D01*
X160614633Y-79501766D01*
X160996024Y-80072558D01*
X161481442Y-80557976D01*
X162052234Y-80939367D01*
X162686463Y-81202073D01*
X163359758Y-81336000D01*
X164046242Y-81336000D01*
X164719537Y-81202073D01*
X165353766Y-80939367D01*
X165924558Y-80557976D01*
X166409976Y-80072558D01*
X166791367Y-79501766D01*
X167054073Y-78867537D01*
X167188000Y-78194242D01*
X167188000Y-77507758D01*
X167054073Y-76834463D01*
X166791367Y-76200234D01*
X166409976Y-75629442D01*
X165924558Y-75144024D01*
X165353766Y-74762633D01*
X164719537Y-74499927D01*
X164046242Y-74366000D01*
X163359758Y-74366000D01*
X162686463Y-74499927D01*
X162052234Y-74762633D01*
X161481442Y-75144024D01*
X160996024Y-75629442D01*
X160614633Y-76200234D01*
X160351927Y-76834463D01*
X160218000Y-77507758D01*
X127310691Y-77507758D01*
X127303073Y-77469463D01*
X127040367Y-76835234D01*
X126658976Y-76264442D01*
X126173558Y-75779024D01*
X125602766Y-75397633D01*
X124968537Y-75134927D01*
X124295242Y-75001000D01*
X123608758Y-75001000D01*
X122935463Y-75134927D01*
X122301234Y-75397633D01*
X121730442Y-75779024D01*
X121245024Y-76264442D01*
X120863633Y-76835234D01*
X120600927Y-77469463D01*
X120467000Y-78142758D01*
X119913000Y-78142758D01*
X119913000Y-74445296D01*
X167742001Y-74321708D01*
X167742000Y-122657000D01*
X167742000Y-122657000D01*
G37*
X167742000Y-122657000D02*
X119913000Y-122657000D01*
X119913000Y-118401758D01*
X120086000Y-118401758D01*
X120086000Y-119088242D01*
X120219927Y-119761537D01*
X120482633Y-120395766D01*
X120864024Y-120966558D01*
X121349442Y-121451976D01*
X121920234Y-121833367D01*
X122554463Y-122096073D01*
X123227758Y-122230000D01*
X123914242Y-122230000D01*
X124587537Y-122096073D01*
X125221766Y-121833367D01*
X125792558Y-121451976D01*
X126277976Y-120966558D01*
X126659367Y-120395766D01*
X126922073Y-119761537D01*
X127056000Y-119088242D01*
X127056000Y-118655758D01*
X160345000Y-118655758D01*
X160345000Y-119342242D01*
X160478927Y-120015537D01*
X160741633Y-120649766D01*
X161123024Y-121220558D01*
X161608442Y-121705976D01*
X162179234Y-122087367D01*
X162813463Y-122350073D01*
X163486758Y-122484000D01*
X164173242Y-122484000D01*
X164846537Y-122350073D01*
X165480766Y-122087367D01*
X166051558Y-121705976D01*
X166536976Y-121220558D01*
X166918367Y-120649766D01*
X167181073Y-120015537D01*
X167315000Y-119342242D01*
X167315000Y-118655758D01*
X167181073Y-117982463D01*
X166918367Y-117348234D01*
X166536976Y-116777442D01*
X166051558Y-116292024D01*
X165480766Y-115910633D01*
X164846537Y-115647927D01*
X164173242Y-115514000D01*
X163486758Y-115514000D01*
X162813463Y-115647927D01*
X162179234Y-115910633D01*
X161608442Y-116292024D01*
X161123024Y-116777442D01*
X160741633Y-117348234D01*
X160478927Y-117982463D01*
X160345000Y-118655758D01*
X127056000Y-118655758D01*
X127056000Y-118401758D01*
X126922073Y-117728463D01*
X126659367Y-117094234D01*
X126277976Y-116523442D01*
X125888584Y-116134050D01*
X138930000Y-116134050D01*
X138930000Y-116529949D01*
X138951487Y-116748110D01*
X139036401Y-117028033D01*
X139174294Y-117286013D01*
X139359866Y-117512134D01*
X139585986Y-117697706D01*
X139843966Y-117835599D01*
X140123889Y-117920513D01*
X140415000Y-117949185D01*
X140706110Y-117920513D01*
X140986033Y-117835599D01*
X141244013Y-117697706D01*
X141470134Y-117512134D01*
X141655706Y-117286014D01*
X141669462Y-117260278D01*
X141825951Y-117466429D01*
X142043807Y-117659496D01*
X142295142Y-117806352D01*
X142558110Y-117898476D01*
X142788000Y-117777155D01*
X142788000Y-116459000D01*
X142768000Y-116459000D01*
X142768000Y-116205000D01*
X142788000Y-116205000D01*
X142788000Y-114886845D01*
X143042000Y-114886845D01*
X143042000Y-116205000D01*
X143062000Y-116205000D01*
X143062000Y-116459000D01*
X143042000Y-116459000D01*
X143042000Y-117777155D01*
X143271890Y-117898476D01*
X143534858Y-117806352D01*
X143786193Y-117659496D01*
X144004049Y-117466429D01*
X144020286Y-117445039D01*
X144076595Y-117550386D01*
X144187038Y-117684962D01*
X144321614Y-117795405D01*
X144475150Y-117877472D01*
X144641746Y-117928008D01*
X144815000Y-117945072D01*
X146015000Y-117945072D01*
X146188254Y-117928008D01*
X146354850Y-117877472D01*
X146508386Y-117795405D01*
X146642962Y-117684962D01*
X146753405Y-117550386D01*
X146835472Y-117396850D01*
X146886008Y-117230254D01*
X146903072Y-117057000D01*
X146903072Y-115607000D01*
X146886008Y-115433746D01*
X146835472Y-115267150D01*
X146753405Y-115113614D01*
X146642962Y-114979038D01*
X146508386Y-114868595D01*
X146354850Y-114786528D01*
X146188254Y-114735992D01*
X146015000Y-114718928D01*
X144815000Y-114718928D01*
X144641746Y-114735992D01*
X144475150Y-114786528D01*
X144321614Y-114868595D01*
X144187038Y-114979038D01*
X144076595Y-115113614D01*
X144020286Y-115218961D01*
X144004049Y-115197571D01*
X143786193Y-115004504D01*
X143534858Y-114857648D01*
X143271890Y-114765524D01*
X143042000Y-114886845D01*
X142788000Y-114886845D01*
X142558110Y-114765524D01*
X142295142Y-114857648D01*
X142043807Y-115004504D01*
X141825951Y-115197571D01*
X141669462Y-115403722D01*
X141655706Y-115377986D01*
X141470134Y-115151866D01*
X141244014Y-114966294D01*
X140986034Y-114828401D01*
X140706111Y-114743487D01*
X140415000Y-114714815D01*
X140123890Y-114743487D01*
X139843967Y-114828401D01*
X139585987Y-114966294D01*
X139359866Y-115151866D01*
X139174294Y-115377986D01*
X139036401Y-115635966D01*
X138951487Y-115915889D01*
X138930000Y-116134050D01*
X125888584Y-116134050D01*
X125792558Y-116038024D01*
X125221766Y-115656633D01*
X124587537Y-115393927D01*
X123914242Y-115260000D01*
X123227758Y-115260000D01*
X122554463Y-115393927D01*
X121920234Y-115656633D01*
X121349442Y-116038024D01*
X120864024Y-116523442D01*
X120482633Y-117094234D01*
X120219927Y-117728463D01*
X120086000Y-118401758D01*
X119913000Y-118401758D01*
X119913000Y-113182061D01*
X140824000Y-113182061D01*
X140824000Y-113385939D01*
X140863774Y-113585898D01*
X140941795Y-113774256D01*
X141055063Y-113943774D01*
X141199226Y-114087937D01*
X141368744Y-114201205D01*
X141557102Y-114279226D01*
X141757061Y-114319000D01*
X141960939Y-114319000D01*
X142160898Y-114279226D01*
X142349256Y-114201205D01*
X142518774Y-114087937D01*
X142662937Y-113943774D01*
X142776205Y-113774256D01*
X142854226Y-113585898D01*
X142855194Y-113581031D01*
X142889707Y-113552707D01*
X143003974Y-113413471D01*
X143088883Y-113254619D01*
X143141169Y-113082254D01*
X143154400Y-112947918D01*
X143154400Y-112947916D01*
X143158824Y-112903001D01*
X143154400Y-112858086D01*
X143154400Y-110349454D01*
X143157205Y-110345256D01*
X143235226Y-110156898D01*
X143275000Y-109956939D01*
X143275000Y-109753061D01*
X143235226Y-109553102D01*
X143157205Y-109364744D01*
X143043937Y-109195226D01*
X142899774Y-109051063D01*
X142730256Y-108937795D01*
X142541898Y-108859774D01*
X142341939Y-108820000D01*
X142138061Y-108820000D01*
X141938102Y-108859774D01*
X141749744Y-108937795D01*
X141580226Y-109051063D01*
X141436063Y-109195226D01*
X141322795Y-109364744D01*
X141244774Y-109553102D01*
X141205000Y-109753061D01*
X141205000Y-109956939D01*
X141244774Y-110156898D01*
X141322795Y-110345256D01*
X141325600Y-110349454D01*
X141325601Y-112395622D01*
X141199226Y-112480063D01*
X141055063Y-112624226D01*
X140941795Y-112793744D01*
X140863774Y-112982102D01*
X140824000Y-113182061D01*
X119913000Y-113182061D01*
X119913000Y-104680269D01*
X142768336Y-104680269D01*
X142827797Y-104914037D01*
X143066242Y-105024934D01*
X143321740Y-105087183D01*
X143584473Y-105098390D01*
X143844344Y-105058125D01*
X144091366Y-104967935D01*
X144192203Y-104914037D01*
X144251664Y-104680269D01*
X143510000Y-103938605D01*
X142768336Y-104680269D01*
X119913000Y-104680269D01*
X119913000Y-103833473D01*
X142170610Y-103833473D01*
X142210875Y-104093344D01*
X142301065Y-104340366D01*
X142354963Y-104441203D01*
X142588731Y-104500664D01*
X143330395Y-103759000D01*
X143689605Y-103759000D01*
X144431269Y-104500664D01*
X144665037Y-104441203D01*
X144775934Y-104202758D01*
X144838183Y-103947260D01*
X144849390Y-103684527D01*
X144809125Y-103424656D01*
X144718935Y-103177634D01*
X144665037Y-103076797D01*
X144431269Y-103017336D01*
X143689605Y-103759000D01*
X143330395Y-103759000D01*
X142588731Y-103017336D01*
X142354963Y-103076797D01*
X142244066Y-103315242D01*
X142181817Y-103570740D01*
X142170610Y-103833473D01*
X119913000Y-103833473D01*
X119913000Y-102837731D01*
X142768336Y-102837731D01*
X143510000Y-103579395D01*
X144251664Y-102837731D01*
X144192203Y-102603963D01*
X143953758Y-102493066D01*
X143698260Y-102430817D01*
X143435527Y-102419610D01*
X143175656Y-102459875D01*
X142928634Y-102550065D01*
X142827797Y-102603963D01*
X142768336Y-102837731D01*
X119913000Y-102837731D01*
X119913000Y-101879061D01*
X146539000Y-101879061D01*
X146539000Y-102082939D01*
X146578774Y-102282898D01*
X146656795Y-102471256D01*
X146739000Y-102594285D01*
X146739001Y-103169714D01*
X146656795Y-103292744D01*
X146578774Y-103481102D01*
X146539000Y-103681061D01*
X146539000Y-103884939D01*
X146578774Y-104084898D01*
X146656795Y-104273256D01*
X146770063Y-104442774D01*
X146914226Y-104586937D01*
X147083744Y-104700205D01*
X147272102Y-104778226D01*
X147472061Y-104818000D01*
X147675939Y-104818000D01*
X147875898Y-104778226D01*
X148064256Y-104700205D01*
X148233774Y-104586937D01*
X148377937Y-104442774D01*
X148491205Y-104273256D01*
X148569226Y-104084898D01*
X148609000Y-103884939D01*
X148609000Y-103681061D01*
X148569226Y-103481102D01*
X148491205Y-103292744D01*
X148409000Y-103169715D01*
X148409000Y-102594285D01*
X148491205Y-102471256D01*
X148569226Y-102282898D01*
X148609000Y-102082939D01*
X148609000Y-101879061D01*
X148569226Y-101679102D01*
X148491205Y-101490744D01*
X148377937Y-101321226D01*
X148233774Y-101177063D01*
X148064256Y-101063795D01*
X147875898Y-100985774D01*
X147675939Y-100946000D01*
X147472061Y-100946000D01*
X147272102Y-100985774D01*
X147083744Y-101063795D01*
X146914226Y-101177063D01*
X146770063Y-101321226D01*
X146656795Y-101490744D01*
X146578774Y-101679102D01*
X146539000Y-101879061D01*
X119913000Y-101879061D01*
X119913000Y-96482000D01*
X138388928Y-96482000D01*
X138388928Y-98082000D01*
X138401188Y-98206482D01*
X138437498Y-98326180D01*
X138496463Y-98436494D01*
X138575815Y-98533185D01*
X138672506Y-98612537D01*
X138782820Y-98671502D01*
X138902518Y-98707812D01*
X139027000Y-98720072D01*
X140627000Y-98720072D01*
X140751482Y-98707812D01*
X140871180Y-98671502D01*
X140981494Y-98612537D01*
X141078185Y-98533185D01*
X141157537Y-98436494D01*
X141216502Y-98326180D01*
X141252812Y-98206482D01*
X141265072Y-98082000D01*
X141265072Y-97282000D01*
X146005057Y-97282000D01*
X146032764Y-97563309D01*
X146114818Y-97833808D01*
X146248068Y-98083101D01*
X146427392Y-98301608D01*
X146645899Y-98480932D01*
X146895192Y-98614182D01*
X147165691Y-98696236D01*
X147376508Y-98717000D01*
X147517492Y-98717000D01*
X147728309Y-98696236D01*
X147998808Y-98614182D01*
X148248101Y-98480932D01*
X148466608Y-98301608D01*
X148645932Y-98083101D01*
X148747810Y-97892500D01*
X155039428Y-97892500D01*
X155039428Y-99592500D01*
X155051688Y-99716982D01*
X155087998Y-99836680D01*
X155146963Y-99946994D01*
X155226315Y-100043685D01*
X155323006Y-100123037D01*
X155433320Y-100182002D01*
X155553018Y-100218312D01*
X155677500Y-100230572D01*
X157377500Y-100230572D01*
X157501982Y-100218312D01*
X157621680Y-100182002D01*
X157731994Y-100123037D01*
X157828685Y-100043685D01*
X157908037Y-99946994D01*
X157967002Y-99836680D01*
X158003312Y-99716982D01*
X158015572Y-99592500D01*
X158015572Y-97892500D01*
X158003312Y-97768018D01*
X157967002Y-97648320D01*
X157908037Y-97538006D01*
X157828685Y-97441315D01*
X157731994Y-97361963D01*
X157621680Y-97302998D01*
X157501982Y-97266688D01*
X157377500Y-97254428D01*
X155677500Y-97254428D01*
X155553018Y-97266688D01*
X155433320Y-97302998D01*
X155323006Y-97361963D01*
X155226315Y-97441315D01*
X155146963Y-97538006D01*
X155087998Y-97648320D01*
X155051688Y-97768018D01*
X155039428Y-97892500D01*
X148747810Y-97892500D01*
X148779182Y-97833808D01*
X148861236Y-97563309D01*
X148888943Y-97282000D01*
X148861236Y-97000691D01*
X148779182Y-96730192D01*
X148645932Y-96480899D01*
X148466608Y-96262392D01*
X148248101Y-96083068D01*
X147998808Y-95949818D01*
X147728309Y-95867764D01*
X147517492Y-95847000D01*
X147376508Y-95847000D01*
X147165691Y-95867764D01*
X146895192Y-95949818D01*
X146645899Y-96083068D01*
X146427392Y-96262392D01*
X146248068Y-96480899D01*
X146114818Y-96730192D01*
X146032764Y-97000691D01*
X146005057Y-97282000D01*
X141265072Y-97282000D01*
X141265072Y-96482000D01*
X141252812Y-96357518D01*
X141216502Y-96237820D01*
X141157537Y-96127506D01*
X141078185Y-96030815D01*
X140981494Y-95951463D01*
X140871180Y-95892498D01*
X140751482Y-95856188D01*
X140627000Y-95843928D01*
X139027000Y-95843928D01*
X138902518Y-95856188D01*
X138782820Y-95892498D01*
X138672506Y-95951463D01*
X138575815Y-96030815D01*
X138496463Y-96127506D01*
X138437498Y-96237820D01*
X138401188Y-96357518D01*
X138388928Y-96482000D01*
X119913000Y-96482000D01*
X119913000Y-91592061D01*
X137776000Y-91592061D01*
X137776000Y-91795939D01*
X137815774Y-91995898D01*
X137893795Y-92184256D01*
X138007063Y-92353774D01*
X138151226Y-92497937D01*
X138320744Y-92611205D01*
X138509102Y-92689226D01*
X138701660Y-92727528D01*
X139602908Y-93628776D01*
X139631774Y-93773898D01*
X139709795Y-93962256D01*
X139823063Y-94131774D01*
X139967226Y-94275937D01*
X140136744Y-94389205D01*
X140325102Y-94467226D01*
X140525061Y-94507000D01*
X140728939Y-94507000D01*
X140928898Y-94467226D01*
X141117256Y-94389205D01*
X141286774Y-94275937D01*
X141430937Y-94131774D01*
X141544205Y-93962256D01*
X141622226Y-93773898D01*
X141662000Y-93573939D01*
X141662000Y-93370061D01*
X141622226Y-93170102D01*
X141544205Y-92981744D01*
X141430937Y-92812226D01*
X141286774Y-92668063D01*
X141117256Y-92554795D01*
X140928898Y-92476774D01*
X140783776Y-92447908D01*
X139825657Y-91489790D01*
X139806226Y-91392102D01*
X139728205Y-91203744D01*
X139614937Y-91034226D01*
X139470774Y-90890063D01*
X139301256Y-90776795D01*
X139112898Y-90698774D01*
X138912939Y-90659000D01*
X138709061Y-90659000D01*
X138509102Y-90698774D01*
X138320744Y-90776795D01*
X138151226Y-90890063D01*
X138007063Y-91034226D01*
X137893795Y-91203744D01*
X137815774Y-91392102D01*
X137776000Y-91592061D01*
X119913000Y-91592061D01*
X119913000Y-90886531D01*
X121129074Y-90886531D01*
X121239921Y-91163714D01*
X121550840Y-91317089D01*
X121885705Y-91406860D01*
X122231650Y-91429576D01*
X122575380Y-91384366D01*
X122903685Y-91272966D01*
X123108079Y-91163714D01*
X123218926Y-90886531D01*
X126209074Y-90886531D01*
X126319921Y-91163714D01*
X126630840Y-91317089D01*
X126965705Y-91406860D01*
X127311650Y-91429576D01*
X127655380Y-91384366D01*
X127983685Y-91272966D01*
X128188079Y-91163714D01*
X128298926Y-90886531D01*
X127254000Y-89841605D01*
X126209074Y-90886531D01*
X123218926Y-90886531D01*
X122174000Y-89841605D01*
X121129074Y-90886531D01*
X119913000Y-90886531D01*
X119913000Y-89719650D01*
X120406424Y-89719650D01*
X120451634Y-90063380D01*
X120563034Y-90391685D01*
X120672286Y-90596079D01*
X120949469Y-90706926D01*
X121994395Y-89662000D01*
X122353605Y-89662000D01*
X123398531Y-90706926D01*
X123675714Y-90596079D01*
X123829089Y-90285160D01*
X123918860Y-89950295D01*
X123934004Y-89719650D01*
X125486424Y-89719650D01*
X125531634Y-90063380D01*
X125643034Y-90391685D01*
X125752286Y-90596079D01*
X126029469Y-90706926D01*
X127074395Y-89662000D01*
X127433605Y-89662000D01*
X128478531Y-90706926D01*
X128664562Y-90632531D01*
X159102074Y-90632531D01*
X159212921Y-90909714D01*
X159523840Y-91063089D01*
X159858705Y-91152860D01*
X160204650Y-91175576D01*
X160548380Y-91130366D01*
X160876685Y-91018966D01*
X161081079Y-90909714D01*
X161191926Y-90632531D01*
X164182074Y-90632531D01*
X164292921Y-90909714D01*
X164603840Y-91063089D01*
X164938705Y-91152860D01*
X165284650Y-91175576D01*
X165628380Y-91130366D01*
X165956685Y-91018966D01*
X166161079Y-90909714D01*
X166271926Y-90632531D01*
X165227000Y-89587605D01*
X164182074Y-90632531D01*
X161191926Y-90632531D01*
X160147000Y-89587605D01*
X159102074Y-90632531D01*
X128664562Y-90632531D01*
X128755714Y-90596079D01*
X128909089Y-90285160D01*
X128998860Y-89950295D01*
X129021576Y-89604350D01*
X128976366Y-89260620D01*
X128951138Y-89186269D01*
X142514336Y-89186269D01*
X142573797Y-89420037D01*
X142812242Y-89530934D01*
X143067740Y-89593183D01*
X143330473Y-89604390D01*
X143590344Y-89564125D01*
X143837366Y-89473935D01*
X143852866Y-89465650D01*
X158379424Y-89465650D01*
X158424634Y-89809380D01*
X158536034Y-90137685D01*
X158645286Y-90342079D01*
X158922469Y-90452926D01*
X159967395Y-89408000D01*
X160326605Y-89408000D01*
X161371531Y-90452926D01*
X161648714Y-90342079D01*
X161802089Y-90031160D01*
X161891860Y-89696295D01*
X161907004Y-89465650D01*
X163459424Y-89465650D01*
X163504634Y-89809380D01*
X163616034Y-90137685D01*
X163725286Y-90342079D01*
X164002469Y-90452926D01*
X165047395Y-89408000D01*
X165406605Y-89408000D01*
X166451531Y-90452926D01*
X166728714Y-90342079D01*
X166882089Y-90031160D01*
X166971860Y-89696295D01*
X166994576Y-89350350D01*
X166949366Y-89006620D01*
X166837966Y-88678315D01*
X166728714Y-88473921D01*
X166451531Y-88363074D01*
X165406605Y-89408000D01*
X165047395Y-89408000D01*
X164002469Y-88363074D01*
X163725286Y-88473921D01*
X163571911Y-88784840D01*
X163482140Y-89119705D01*
X163459424Y-89465650D01*
X161907004Y-89465650D01*
X161914576Y-89350350D01*
X161869366Y-89006620D01*
X161757966Y-88678315D01*
X161648714Y-88473921D01*
X161371531Y-88363074D01*
X160326605Y-89408000D01*
X159967395Y-89408000D01*
X158922469Y-88363074D01*
X158645286Y-88473921D01*
X158491911Y-88784840D01*
X158402140Y-89119705D01*
X158379424Y-89465650D01*
X143852866Y-89465650D01*
X143938203Y-89420037D01*
X143997664Y-89186269D01*
X143256000Y-88444605D01*
X142514336Y-89186269D01*
X128951138Y-89186269D01*
X128864966Y-88932315D01*
X128755714Y-88727921D01*
X128478531Y-88617074D01*
X127433605Y-89662000D01*
X127074395Y-89662000D01*
X126029469Y-88617074D01*
X125752286Y-88727921D01*
X125598911Y-89038840D01*
X125509140Y-89373705D01*
X125486424Y-89719650D01*
X123934004Y-89719650D01*
X123941576Y-89604350D01*
X123896366Y-89260620D01*
X123784966Y-88932315D01*
X123675714Y-88727921D01*
X123398531Y-88617074D01*
X122353605Y-89662000D01*
X121994395Y-89662000D01*
X120949469Y-88617074D01*
X120672286Y-88727921D01*
X120518911Y-89038840D01*
X120429140Y-89373705D01*
X120406424Y-89719650D01*
X119913000Y-89719650D01*
X119913000Y-88437469D01*
X121129074Y-88437469D01*
X122174000Y-89482395D01*
X123218926Y-88437469D01*
X123108079Y-88160286D01*
X122797160Y-88006911D01*
X122462295Y-87917140D01*
X122116350Y-87894424D01*
X121772620Y-87939634D01*
X121444315Y-88051034D01*
X121239921Y-88160286D01*
X121129074Y-88437469D01*
X119913000Y-88437469D01*
X119913000Y-86958504D01*
X123054000Y-86958504D01*
X123054000Y-87285496D01*
X123117793Y-87606204D01*
X123242927Y-87908305D01*
X123424594Y-88180188D01*
X123655812Y-88411406D01*
X123927695Y-88593073D01*
X124229796Y-88718207D01*
X124550504Y-88782000D01*
X124877496Y-88782000D01*
X125198204Y-88718207D01*
X125500305Y-88593073D01*
X125733182Y-88437469D01*
X126209074Y-88437469D01*
X127254000Y-89482395D01*
X128298926Y-88437469D01*
X128259737Y-88339473D01*
X141916610Y-88339473D01*
X141956875Y-88599344D01*
X142047065Y-88846366D01*
X142100963Y-88947203D01*
X142334731Y-89006664D01*
X143076395Y-88265000D01*
X143435605Y-88265000D01*
X144177269Y-89006664D01*
X144411037Y-88947203D01*
X144521934Y-88708758D01*
X144584183Y-88453260D01*
X144595390Y-88190527D01*
X144594297Y-88183469D01*
X159102074Y-88183469D01*
X160147000Y-89228395D01*
X161191926Y-88183469D01*
X161081079Y-87906286D01*
X160770160Y-87752911D01*
X160435295Y-87663140D01*
X160089350Y-87640424D01*
X159745620Y-87685634D01*
X159417315Y-87797034D01*
X159212921Y-87906286D01*
X159102074Y-88183469D01*
X144594297Y-88183469D01*
X144555125Y-87930656D01*
X144464935Y-87683634D01*
X144411037Y-87582797D01*
X144177269Y-87523336D01*
X143435605Y-88265000D01*
X143076395Y-88265000D01*
X142334731Y-87523336D01*
X142100963Y-87582797D01*
X141990066Y-87821242D01*
X141927817Y-88076740D01*
X141916610Y-88339473D01*
X128259737Y-88339473D01*
X128188079Y-88160286D01*
X127877160Y-88006911D01*
X127542295Y-87917140D01*
X127196350Y-87894424D01*
X126852620Y-87939634D01*
X126524315Y-88051034D01*
X126319921Y-88160286D01*
X126209074Y-88437469D01*
X125733182Y-88437469D01*
X125772188Y-88411406D01*
X126003406Y-88180188D01*
X126185073Y-87908305D01*
X126310207Y-87606204D01*
X126362416Y-87343731D01*
X142514336Y-87343731D01*
X143256000Y-88085395D01*
X143997664Y-87343731D01*
X143938203Y-87109963D01*
X143699758Y-86999066D01*
X143444260Y-86936817D01*
X143181527Y-86925610D01*
X142921656Y-86965875D01*
X142674634Y-87056065D01*
X142573797Y-87109963D01*
X142514336Y-87343731D01*
X126362416Y-87343731D01*
X126374000Y-87285496D01*
X126374000Y-86958504D01*
X126323477Y-86704504D01*
X161027000Y-86704504D01*
X161027000Y-87031496D01*
X161090793Y-87352204D01*
X161215927Y-87654305D01*
X161397594Y-87926188D01*
X161628812Y-88157406D01*
X161900695Y-88339073D01*
X162202796Y-88464207D01*
X162523504Y-88528000D01*
X162850496Y-88528000D01*
X163171204Y-88464207D01*
X163473305Y-88339073D01*
X163706182Y-88183469D01*
X164182074Y-88183469D01*
X165227000Y-89228395D01*
X166271926Y-88183469D01*
X166161079Y-87906286D01*
X165850160Y-87752911D01*
X165515295Y-87663140D01*
X165169350Y-87640424D01*
X164825620Y-87685634D01*
X164497315Y-87797034D01*
X164292921Y-87906286D01*
X164182074Y-88183469D01*
X163706182Y-88183469D01*
X163745188Y-88157406D01*
X163976406Y-87926188D01*
X164158073Y-87654305D01*
X164283207Y-87352204D01*
X164347000Y-87031496D01*
X164347000Y-86704504D01*
X164283207Y-86383796D01*
X164158073Y-86081695D01*
X163976406Y-85809812D01*
X163745188Y-85578594D01*
X163706183Y-85552531D01*
X164182074Y-85552531D01*
X164292921Y-85829714D01*
X164603840Y-85983089D01*
X164938705Y-86072860D01*
X165284650Y-86095576D01*
X165628380Y-86050366D01*
X165956685Y-85938966D01*
X166161079Y-85829714D01*
X166271926Y-85552531D01*
X165227000Y-84507605D01*
X164182074Y-85552531D01*
X163706183Y-85552531D01*
X163473305Y-85396927D01*
X163171204Y-85271793D01*
X162850496Y-85208000D01*
X162523504Y-85208000D01*
X162202796Y-85271793D01*
X161900695Y-85396927D01*
X161628812Y-85578594D01*
X161397594Y-85809812D01*
X161215927Y-86081695D01*
X161090793Y-86383796D01*
X161027000Y-86704504D01*
X126323477Y-86704504D01*
X126310207Y-86637796D01*
X126185073Y-86335695D01*
X126003406Y-86063812D01*
X125772188Y-85832594D01*
X125733183Y-85806531D01*
X126209074Y-85806531D01*
X126319921Y-86083714D01*
X126630840Y-86237089D01*
X126965705Y-86326860D01*
X127311650Y-86349576D01*
X127655380Y-86304366D01*
X127983685Y-86192966D01*
X128188079Y-86083714D01*
X128298926Y-85806531D01*
X127254000Y-84761605D01*
X126209074Y-85806531D01*
X125733183Y-85806531D01*
X125500305Y-85650927D01*
X125198204Y-85525793D01*
X124877496Y-85462000D01*
X124550504Y-85462000D01*
X124229796Y-85525793D01*
X123927695Y-85650927D01*
X123655812Y-85832594D01*
X123424594Y-86063812D01*
X123242927Y-86335695D01*
X123117793Y-86637796D01*
X123054000Y-86958504D01*
X119913000Y-86958504D01*
X119913000Y-85806531D01*
X121129074Y-85806531D01*
X121239921Y-86083714D01*
X121550840Y-86237089D01*
X121885705Y-86326860D01*
X122231650Y-86349576D01*
X122575380Y-86304366D01*
X122903685Y-86192966D01*
X123108079Y-86083714D01*
X123218926Y-85806531D01*
X122174000Y-84761605D01*
X121129074Y-85806531D01*
X119913000Y-85806531D01*
X119913000Y-84639650D01*
X120406424Y-84639650D01*
X120451634Y-84983380D01*
X120563034Y-85311685D01*
X120672286Y-85516079D01*
X120949469Y-85626926D01*
X121994395Y-84582000D01*
X122353605Y-84582000D01*
X123398531Y-85626926D01*
X123675714Y-85516079D01*
X123829089Y-85205160D01*
X123918860Y-84870295D01*
X123934004Y-84639650D01*
X125486424Y-84639650D01*
X125531634Y-84983380D01*
X125643034Y-85311685D01*
X125752286Y-85516079D01*
X126029469Y-85626926D01*
X127074395Y-84582000D01*
X127433605Y-84582000D01*
X128478531Y-85626926D01*
X128664562Y-85552531D01*
X159102074Y-85552531D01*
X159212921Y-85829714D01*
X159523840Y-85983089D01*
X159858705Y-86072860D01*
X160204650Y-86095576D01*
X160548380Y-86050366D01*
X160876685Y-85938966D01*
X161081079Y-85829714D01*
X161191926Y-85552531D01*
X160147000Y-84507605D01*
X159102074Y-85552531D01*
X128664562Y-85552531D01*
X128755714Y-85516079D01*
X128909089Y-85205160D01*
X128998860Y-84870295D01*
X129021576Y-84524350D01*
X129003334Y-84385650D01*
X158379424Y-84385650D01*
X158424634Y-84729380D01*
X158536034Y-85057685D01*
X158645286Y-85262079D01*
X158922469Y-85372926D01*
X159967395Y-84328000D01*
X160326605Y-84328000D01*
X161371531Y-85372926D01*
X161648714Y-85262079D01*
X161802089Y-84951160D01*
X161891860Y-84616295D01*
X161907004Y-84385650D01*
X163459424Y-84385650D01*
X163504634Y-84729380D01*
X163616034Y-85057685D01*
X163725286Y-85262079D01*
X164002469Y-85372926D01*
X165047395Y-84328000D01*
X165406605Y-84328000D01*
X166451531Y-85372926D01*
X166728714Y-85262079D01*
X166882089Y-84951160D01*
X166971860Y-84616295D01*
X166994576Y-84270350D01*
X166949366Y-83926620D01*
X166837966Y-83598315D01*
X166728714Y-83393921D01*
X166451531Y-83283074D01*
X165406605Y-84328000D01*
X165047395Y-84328000D01*
X164002469Y-83283074D01*
X163725286Y-83393921D01*
X163571911Y-83704840D01*
X163482140Y-84039705D01*
X163459424Y-84385650D01*
X161907004Y-84385650D01*
X161914576Y-84270350D01*
X161869366Y-83926620D01*
X161757966Y-83598315D01*
X161648714Y-83393921D01*
X161371531Y-83283074D01*
X160326605Y-84328000D01*
X159967395Y-84328000D01*
X158922469Y-83283074D01*
X158645286Y-83393921D01*
X158491911Y-83704840D01*
X158402140Y-84039705D01*
X158379424Y-84385650D01*
X129003334Y-84385650D01*
X128976366Y-84180620D01*
X128864966Y-83852315D01*
X128755714Y-83647921D01*
X128478531Y-83537074D01*
X127433605Y-84582000D01*
X127074395Y-84582000D01*
X126029469Y-83537074D01*
X125752286Y-83647921D01*
X125598911Y-83958840D01*
X125509140Y-84293705D01*
X125486424Y-84639650D01*
X123934004Y-84639650D01*
X123941576Y-84524350D01*
X123896366Y-84180620D01*
X123784966Y-83852315D01*
X123675714Y-83647921D01*
X123398531Y-83537074D01*
X122353605Y-84582000D01*
X121994395Y-84582000D01*
X120949469Y-83537074D01*
X120672286Y-83647921D01*
X120518911Y-83958840D01*
X120429140Y-84293705D01*
X120406424Y-84639650D01*
X119913000Y-84639650D01*
X119913000Y-83357469D01*
X121129074Y-83357469D01*
X122174000Y-84402395D01*
X123218926Y-83357469D01*
X126209074Y-83357469D01*
X127254000Y-84402395D01*
X128298926Y-83357469D01*
X128197351Y-83103469D01*
X159102074Y-83103469D01*
X160147000Y-84148395D01*
X161191926Y-83103469D01*
X164182074Y-83103469D01*
X165227000Y-84148395D01*
X166271926Y-83103469D01*
X166161079Y-82826286D01*
X165850160Y-82672911D01*
X165515295Y-82583140D01*
X165169350Y-82560424D01*
X164825620Y-82605634D01*
X164497315Y-82717034D01*
X164292921Y-82826286D01*
X164182074Y-83103469D01*
X161191926Y-83103469D01*
X161081079Y-82826286D01*
X160770160Y-82672911D01*
X160435295Y-82583140D01*
X160089350Y-82560424D01*
X159745620Y-82605634D01*
X159417315Y-82717034D01*
X159212921Y-82826286D01*
X159102074Y-83103469D01*
X128197351Y-83103469D01*
X128188079Y-83080286D01*
X127877160Y-82926911D01*
X127542295Y-82837140D01*
X127196350Y-82814424D01*
X126852620Y-82859634D01*
X126524315Y-82971034D01*
X126319921Y-83080286D01*
X126209074Y-83357469D01*
X123218926Y-83357469D01*
X123108079Y-83080286D01*
X122797160Y-82926911D01*
X122462295Y-82837140D01*
X122116350Y-82814424D01*
X121772620Y-82859634D01*
X121444315Y-82971034D01*
X121239921Y-83080286D01*
X121129074Y-83357469D01*
X119913000Y-83357469D01*
X119913000Y-78142758D01*
X120467000Y-78142758D01*
X120467000Y-78829242D01*
X120600927Y-79502537D01*
X120863633Y-80136766D01*
X121245024Y-80707558D01*
X121730442Y-81192976D01*
X122301234Y-81574367D01*
X122935463Y-81837073D01*
X123608758Y-81971000D01*
X124295242Y-81971000D01*
X124968537Y-81837073D01*
X125602766Y-81574367D01*
X126173558Y-81192976D01*
X126658976Y-80707558D01*
X127040367Y-80136766D01*
X127303073Y-79502537D01*
X127437000Y-78829242D01*
X127437000Y-78142758D01*
X127310691Y-77507758D01*
X160218000Y-77507758D01*
X160218000Y-78194242D01*
X160351927Y-78867537D01*
X160614633Y-79501766D01*
X160996024Y-80072558D01*
X161481442Y-80557976D01*
X162052234Y-80939367D01*
X162686463Y-81202073D01*
X163359758Y-81336000D01*
X164046242Y-81336000D01*
X164719537Y-81202073D01*
X165353766Y-80939367D01*
X165924558Y-80557976D01*
X166409976Y-80072558D01*
X166791367Y-79501766D01*
X167054073Y-78867537D01*
X167188000Y-78194242D01*
X167188000Y-77507758D01*
X167054073Y-76834463D01*
X166791367Y-76200234D01*
X166409976Y-75629442D01*
X165924558Y-75144024D01*
X165353766Y-74762633D01*
X164719537Y-74499927D01*
X164046242Y-74366000D01*
X163359758Y-74366000D01*
X162686463Y-74499927D01*
X162052234Y-74762633D01*
X161481442Y-75144024D01*
X160996024Y-75629442D01*
X160614633Y-76200234D01*
X160351927Y-76834463D01*
X160218000Y-77507758D01*
X127310691Y-77507758D01*
X127303073Y-77469463D01*
X127040367Y-76835234D01*
X126658976Y-76264442D01*
X126173558Y-75779024D01*
X125602766Y-75397633D01*
X124968537Y-75134927D01*
X124295242Y-75001000D01*
X123608758Y-75001000D01*
X122935463Y-75134927D01*
X122301234Y-75397633D01*
X121730442Y-75779024D01*
X121245024Y-76264442D01*
X120863633Y-76835234D01*
X120600927Y-77469463D01*
X120467000Y-78142758D01*
X119913000Y-78142758D01*
X119913000Y-74445296D01*
X167742001Y-74321708D01*
X167742000Y-122657000D01*
M02*
