G04 #@! TF.GenerationSoftware,KiCad,Pcbnew,(5.1.2)-2*
G04 #@! TF.CreationDate,2019-07-11T10:47:11+08:00*
G04 #@! TF.ProjectId,HMC346AMS8GE,484d4333-3436-4414-9d53-3847452e6b69,rev?*
G04 #@! TF.SameCoordinates,Original*
G04 #@! TF.FileFunction,Copper,L1,Top*
G04 #@! TF.FilePolarity,Positive*
%FSLAX46Y46*%
G04 Gerber Fmt 4.6, Leading zero omitted, Abs format (unit mm)*
G04 Created by KiCad (PCBNEW (5.1.2)-2) date 2019-07-11 10:47:11*
%MOMM*%
%LPD*%
G04 APERTURE LIST*
%ADD10C,1.400000*%
%ADD11C,5.700000*%
%ADD12C,2.250000*%
%ADD13C,2.050000*%
%ADD14R,1.600000X1.600000*%
%ADD15O,1.600000X1.600000*%
%ADD16C,0.100000*%
%ADD17C,0.950000*%
%ADD18C,1.950000*%
%ADD19C,0.400000*%
%ADD20R,1.700000X1.700000*%
%ADD21C,1.700000*%
%ADD22O,1.700000X1.950000*%
%ADD23C,2.290000*%
%ADD24C,0.600000*%
%ADD25C,0.800000*%
%ADD26C,0.400000*%
%ADD27C,0.558800*%
%ADD28C,0.254000*%
G04 APERTURE END LIST*
D10*
X143256000Y-88265000D03*
X143510000Y-103759000D03*
D11*
X123571000Y-118745000D03*
X163830000Y-118999000D03*
X163703000Y-77851000D03*
X123952000Y-78486000D03*
D12*
X122174000Y-89662000D03*
X122174000Y-84582000D03*
X127254000Y-84582000D03*
X127254000Y-89662000D03*
D13*
X124714000Y-87122000D03*
D14*
X139827000Y-97282000D03*
D15*
X147447000Y-97282000D03*
D13*
X162687000Y-86868000D03*
D12*
X165227000Y-89408000D03*
X165227000Y-84328000D03*
X160147000Y-84328000D03*
X160147000Y-89408000D03*
D16*
G36*
X131451779Y-104646144D02*
G01*
X131474834Y-104649563D01*
X131497443Y-104655227D01*
X131519387Y-104663079D01*
X131540457Y-104673044D01*
X131560448Y-104685026D01*
X131579168Y-104698910D01*
X131596438Y-104714562D01*
X131612090Y-104731832D01*
X131625974Y-104750552D01*
X131637956Y-104770543D01*
X131647921Y-104791613D01*
X131655773Y-104813557D01*
X131661437Y-104836166D01*
X131664856Y-104859221D01*
X131666000Y-104882500D01*
X131666000Y-105457500D01*
X131664856Y-105480779D01*
X131661437Y-105503834D01*
X131655773Y-105526443D01*
X131647921Y-105548387D01*
X131637956Y-105569457D01*
X131625974Y-105589448D01*
X131612090Y-105608168D01*
X131596438Y-105625438D01*
X131579168Y-105641090D01*
X131560448Y-105654974D01*
X131540457Y-105666956D01*
X131519387Y-105676921D01*
X131497443Y-105684773D01*
X131474834Y-105690437D01*
X131451779Y-105693856D01*
X131428500Y-105695000D01*
X130953500Y-105695000D01*
X130930221Y-105693856D01*
X130907166Y-105690437D01*
X130884557Y-105684773D01*
X130862613Y-105676921D01*
X130841543Y-105666956D01*
X130821552Y-105654974D01*
X130802832Y-105641090D01*
X130785562Y-105625438D01*
X130769910Y-105608168D01*
X130756026Y-105589448D01*
X130744044Y-105569457D01*
X130734079Y-105548387D01*
X130726227Y-105526443D01*
X130720563Y-105503834D01*
X130717144Y-105480779D01*
X130716000Y-105457500D01*
X130716000Y-104882500D01*
X130717144Y-104859221D01*
X130720563Y-104836166D01*
X130726227Y-104813557D01*
X130734079Y-104791613D01*
X130744044Y-104770543D01*
X130756026Y-104750552D01*
X130769910Y-104731832D01*
X130785562Y-104714562D01*
X130802832Y-104698910D01*
X130821552Y-104685026D01*
X130841543Y-104673044D01*
X130862613Y-104663079D01*
X130884557Y-104655227D01*
X130907166Y-104649563D01*
X130930221Y-104646144D01*
X130953500Y-104645000D01*
X131428500Y-104645000D01*
X131451779Y-104646144D01*
X131451779Y-104646144D01*
G37*
D17*
X131191000Y-105170000D03*
D16*
G36*
X131451779Y-106396144D02*
G01*
X131474834Y-106399563D01*
X131497443Y-106405227D01*
X131519387Y-106413079D01*
X131540457Y-106423044D01*
X131560448Y-106435026D01*
X131579168Y-106448910D01*
X131596438Y-106464562D01*
X131612090Y-106481832D01*
X131625974Y-106500552D01*
X131637956Y-106520543D01*
X131647921Y-106541613D01*
X131655773Y-106563557D01*
X131661437Y-106586166D01*
X131664856Y-106609221D01*
X131666000Y-106632500D01*
X131666000Y-107207500D01*
X131664856Y-107230779D01*
X131661437Y-107253834D01*
X131655773Y-107276443D01*
X131647921Y-107298387D01*
X131637956Y-107319457D01*
X131625974Y-107339448D01*
X131612090Y-107358168D01*
X131596438Y-107375438D01*
X131579168Y-107391090D01*
X131560448Y-107404974D01*
X131540457Y-107416956D01*
X131519387Y-107426921D01*
X131497443Y-107434773D01*
X131474834Y-107440437D01*
X131451779Y-107443856D01*
X131428500Y-107445000D01*
X130953500Y-107445000D01*
X130930221Y-107443856D01*
X130907166Y-107440437D01*
X130884557Y-107434773D01*
X130862613Y-107426921D01*
X130841543Y-107416956D01*
X130821552Y-107404974D01*
X130802832Y-107391090D01*
X130785562Y-107375438D01*
X130769910Y-107358168D01*
X130756026Y-107339448D01*
X130744044Y-107319457D01*
X130734079Y-107298387D01*
X130726227Y-107276443D01*
X130720563Y-107253834D01*
X130717144Y-107230779D01*
X130716000Y-107207500D01*
X130716000Y-106632500D01*
X130717144Y-106609221D01*
X130720563Y-106586166D01*
X130726227Y-106563557D01*
X130734079Y-106541613D01*
X130744044Y-106520543D01*
X130756026Y-106500552D01*
X130769910Y-106481832D01*
X130785562Y-106464562D01*
X130802832Y-106448910D01*
X130821552Y-106435026D01*
X130841543Y-106423044D01*
X130862613Y-106413079D01*
X130884557Y-106405227D01*
X130907166Y-106399563D01*
X130930221Y-106396144D01*
X130953500Y-106395000D01*
X131428500Y-106395000D01*
X131451779Y-106396144D01*
X131451779Y-106396144D01*
G37*
D17*
X131191000Y-106920000D03*
D16*
G36*
X137674779Y-104519144D02*
G01*
X137697834Y-104522563D01*
X137720443Y-104528227D01*
X137742387Y-104536079D01*
X137763457Y-104546044D01*
X137783448Y-104558026D01*
X137802168Y-104571910D01*
X137819438Y-104587562D01*
X137835090Y-104604832D01*
X137848974Y-104623552D01*
X137860956Y-104643543D01*
X137870921Y-104664613D01*
X137878773Y-104686557D01*
X137884437Y-104709166D01*
X137887856Y-104732221D01*
X137889000Y-104755500D01*
X137889000Y-105330500D01*
X137887856Y-105353779D01*
X137884437Y-105376834D01*
X137878773Y-105399443D01*
X137870921Y-105421387D01*
X137860956Y-105442457D01*
X137848974Y-105462448D01*
X137835090Y-105481168D01*
X137819438Y-105498438D01*
X137802168Y-105514090D01*
X137783448Y-105527974D01*
X137763457Y-105539956D01*
X137742387Y-105549921D01*
X137720443Y-105557773D01*
X137697834Y-105563437D01*
X137674779Y-105566856D01*
X137651500Y-105568000D01*
X137176500Y-105568000D01*
X137153221Y-105566856D01*
X137130166Y-105563437D01*
X137107557Y-105557773D01*
X137085613Y-105549921D01*
X137064543Y-105539956D01*
X137044552Y-105527974D01*
X137025832Y-105514090D01*
X137008562Y-105498438D01*
X136992910Y-105481168D01*
X136979026Y-105462448D01*
X136967044Y-105442457D01*
X136957079Y-105421387D01*
X136949227Y-105399443D01*
X136943563Y-105376834D01*
X136940144Y-105353779D01*
X136939000Y-105330500D01*
X136939000Y-104755500D01*
X136940144Y-104732221D01*
X136943563Y-104709166D01*
X136949227Y-104686557D01*
X136957079Y-104664613D01*
X136967044Y-104643543D01*
X136979026Y-104623552D01*
X136992910Y-104604832D01*
X137008562Y-104587562D01*
X137025832Y-104571910D01*
X137044552Y-104558026D01*
X137064543Y-104546044D01*
X137085613Y-104536079D01*
X137107557Y-104528227D01*
X137130166Y-104522563D01*
X137153221Y-104519144D01*
X137176500Y-104518000D01*
X137651500Y-104518000D01*
X137674779Y-104519144D01*
X137674779Y-104519144D01*
G37*
D17*
X137414000Y-105043000D03*
D16*
G36*
X137674779Y-106269144D02*
G01*
X137697834Y-106272563D01*
X137720443Y-106278227D01*
X137742387Y-106286079D01*
X137763457Y-106296044D01*
X137783448Y-106308026D01*
X137802168Y-106321910D01*
X137819438Y-106337562D01*
X137835090Y-106354832D01*
X137848974Y-106373552D01*
X137860956Y-106393543D01*
X137870921Y-106414613D01*
X137878773Y-106436557D01*
X137884437Y-106459166D01*
X137887856Y-106482221D01*
X137889000Y-106505500D01*
X137889000Y-107080500D01*
X137887856Y-107103779D01*
X137884437Y-107126834D01*
X137878773Y-107149443D01*
X137870921Y-107171387D01*
X137860956Y-107192457D01*
X137848974Y-107212448D01*
X137835090Y-107231168D01*
X137819438Y-107248438D01*
X137802168Y-107264090D01*
X137783448Y-107277974D01*
X137763457Y-107289956D01*
X137742387Y-107299921D01*
X137720443Y-107307773D01*
X137697834Y-107313437D01*
X137674779Y-107316856D01*
X137651500Y-107318000D01*
X137176500Y-107318000D01*
X137153221Y-107316856D01*
X137130166Y-107313437D01*
X137107557Y-107307773D01*
X137085613Y-107299921D01*
X137064543Y-107289956D01*
X137044552Y-107277974D01*
X137025832Y-107264090D01*
X137008562Y-107248438D01*
X136992910Y-107231168D01*
X136979026Y-107212448D01*
X136967044Y-107192457D01*
X136957079Y-107171387D01*
X136949227Y-107149443D01*
X136943563Y-107126834D01*
X136940144Y-107103779D01*
X136939000Y-107080500D01*
X136939000Y-106505500D01*
X136940144Y-106482221D01*
X136943563Y-106459166D01*
X136949227Y-106436557D01*
X136957079Y-106414613D01*
X136967044Y-106393543D01*
X136979026Y-106373552D01*
X136992910Y-106354832D01*
X137008562Y-106337562D01*
X137025832Y-106321910D01*
X137044552Y-106308026D01*
X137064543Y-106296044D01*
X137085613Y-106286079D01*
X137107557Y-106278227D01*
X137130166Y-106272563D01*
X137153221Y-106269144D01*
X137176500Y-106268000D01*
X137651500Y-106268000D01*
X137674779Y-106269144D01*
X137674779Y-106269144D01*
G37*
D17*
X137414000Y-106793000D03*
D16*
G36*
X134626779Y-106269144D02*
G01*
X134649834Y-106272563D01*
X134672443Y-106278227D01*
X134694387Y-106286079D01*
X134715457Y-106296044D01*
X134735448Y-106308026D01*
X134754168Y-106321910D01*
X134771438Y-106337562D01*
X134787090Y-106354832D01*
X134800974Y-106373552D01*
X134812956Y-106393543D01*
X134822921Y-106414613D01*
X134830773Y-106436557D01*
X134836437Y-106459166D01*
X134839856Y-106482221D01*
X134841000Y-106505500D01*
X134841000Y-107080500D01*
X134839856Y-107103779D01*
X134836437Y-107126834D01*
X134830773Y-107149443D01*
X134822921Y-107171387D01*
X134812956Y-107192457D01*
X134800974Y-107212448D01*
X134787090Y-107231168D01*
X134771438Y-107248438D01*
X134754168Y-107264090D01*
X134735448Y-107277974D01*
X134715457Y-107289956D01*
X134694387Y-107299921D01*
X134672443Y-107307773D01*
X134649834Y-107313437D01*
X134626779Y-107316856D01*
X134603500Y-107318000D01*
X134128500Y-107318000D01*
X134105221Y-107316856D01*
X134082166Y-107313437D01*
X134059557Y-107307773D01*
X134037613Y-107299921D01*
X134016543Y-107289956D01*
X133996552Y-107277974D01*
X133977832Y-107264090D01*
X133960562Y-107248438D01*
X133944910Y-107231168D01*
X133931026Y-107212448D01*
X133919044Y-107192457D01*
X133909079Y-107171387D01*
X133901227Y-107149443D01*
X133895563Y-107126834D01*
X133892144Y-107103779D01*
X133891000Y-107080500D01*
X133891000Y-106505500D01*
X133892144Y-106482221D01*
X133895563Y-106459166D01*
X133901227Y-106436557D01*
X133909079Y-106414613D01*
X133919044Y-106393543D01*
X133931026Y-106373552D01*
X133944910Y-106354832D01*
X133960562Y-106337562D01*
X133977832Y-106321910D01*
X133996552Y-106308026D01*
X134016543Y-106296044D01*
X134037613Y-106286079D01*
X134059557Y-106278227D01*
X134082166Y-106272563D01*
X134105221Y-106269144D01*
X134128500Y-106268000D01*
X134603500Y-106268000D01*
X134626779Y-106269144D01*
X134626779Y-106269144D01*
G37*
D17*
X134366000Y-106793000D03*
D16*
G36*
X134626779Y-104519144D02*
G01*
X134649834Y-104522563D01*
X134672443Y-104528227D01*
X134694387Y-104536079D01*
X134715457Y-104546044D01*
X134735448Y-104558026D01*
X134754168Y-104571910D01*
X134771438Y-104587562D01*
X134787090Y-104604832D01*
X134800974Y-104623552D01*
X134812956Y-104643543D01*
X134822921Y-104664613D01*
X134830773Y-104686557D01*
X134836437Y-104709166D01*
X134839856Y-104732221D01*
X134841000Y-104755500D01*
X134841000Y-105330500D01*
X134839856Y-105353779D01*
X134836437Y-105376834D01*
X134830773Y-105399443D01*
X134822921Y-105421387D01*
X134812956Y-105442457D01*
X134800974Y-105462448D01*
X134787090Y-105481168D01*
X134771438Y-105498438D01*
X134754168Y-105514090D01*
X134735448Y-105527974D01*
X134715457Y-105539956D01*
X134694387Y-105549921D01*
X134672443Y-105557773D01*
X134649834Y-105563437D01*
X134626779Y-105566856D01*
X134603500Y-105568000D01*
X134128500Y-105568000D01*
X134105221Y-105566856D01*
X134082166Y-105563437D01*
X134059557Y-105557773D01*
X134037613Y-105549921D01*
X134016543Y-105539956D01*
X133996552Y-105527974D01*
X133977832Y-105514090D01*
X133960562Y-105498438D01*
X133944910Y-105481168D01*
X133931026Y-105462448D01*
X133919044Y-105442457D01*
X133909079Y-105421387D01*
X133901227Y-105399443D01*
X133895563Y-105376834D01*
X133892144Y-105353779D01*
X133891000Y-105330500D01*
X133891000Y-104755500D01*
X133892144Y-104732221D01*
X133895563Y-104709166D01*
X133901227Y-104686557D01*
X133909079Y-104664613D01*
X133919044Y-104643543D01*
X133931026Y-104623552D01*
X133944910Y-104604832D01*
X133960562Y-104587562D01*
X133977832Y-104571910D01*
X133996552Y-104558026D01*
X134016543Y-104546044D01*
X134037613Y-104536079D01*
X134059557Y-104528227D01*
X134082166Y-104522563D01*
X134105221Y-104519144D01*
X134128500Y-104518000D01*
X134603500Y-104518000D01*
X134626779Y-104519144D01*
X134626779Y-104519144D01*
G37*
D17*
X134366000Y-105043000D03*
D16*
G36*
X136658779Y-100681144D02*
G01*
X136681834Y-100684563D01*
X136704443Y-100690227D01*
X136726387Y-100698079D01*
X136747457Y-100708044D01*
X136767448Y-100720026D01*
X136786168Y-100733910D01*
X136803438Y-100749562D01*
X136819090Y-100766832D01*
X136832974Y-100785552D01*
X136844956Y-100805543D01*
X136854921Y-100826613D01*
X136862773Y-100848557D01*
X136868437Y-100871166D01*
X136871856Y-100894221D01*
X136873000Y-100917500D01*
X136873000Y-101492500D01*
X136871856Y-101515779D01*
X136868437Y-101538834D01*
X136862773Y-101561443D01*
X136854921Y-101583387D01*
X136844956Y-101604457D01*
X136832974Y-101624448D01*
X136819090Y-101643168D01*
X136803438Y-101660438D01*
X136786168Y-101676090D01*
X136767448Y-101689974D01*
X136747457Y-101701956D01*
X136726387Y-101711921D01*
X136704443Y-101719773D01*
X136681834Y-101725437D01*
X136658779Y-101728856D01*
X136635500Y-101730000D01*
X136160500Y-101730000D01*
X136137221Y-101728856D01*
X136114166Y-101725437D01*
X136091557Y-101719773D01*
X136069613Y-101711921D01*
X136048543Y-101701956D01*
X136028552Y-101689974D01*
X136009832Y-101676090D01*
X135992562Y-101660438D01*
X135976910Y-101643168D01*
X135963026Y-101624448D01*
X135951044Y-101604457D01*
X135941079Y-101583387D01*
X135933227Y-101561443D01*
X135927563Y-101538834D01*
X135924144Y-101515779D01*
X135923000Y-101492500D01*
X135923000Y-100917500D01*
X135924144Y-100894221D01*
X135927563Y-100871166D01*
X135933227Y-100848557D01*
X135941079Y-100826613D01*
X135951044Y-100805543D01*
X135963026Y-100785552D01*
X135976910Y-100766832D01*
X135992562Y-100749562D01*
X136009832Y-100733910D01*
X136028552Y-100720026D01*
X136048543Y-100708044D01*
X136069613Y-100698079D01*
X136091557Y-100690227D01*
X136114166Y-100684563D01*
X136137221Y-100681144D01*
X136160500Y-100680000D01*
X136635500Y-100680000D01*
X136658779Y-100681144D01*
X136658779Y-100681144D01*
G37*
D17*
X136398000Y-101205000D03*
D16*
G36*
X136658779Y-98931144D02*
G01*
X136681834Y-98934563D01*
X136704443Y-98940227D01*
X136726387Y-98948079D01*
X136747457Y-98958044D01*
X136767448Y-98970026D01*
X136786168Y-98983910D01*
X136803438Y-98999562D01*
X136819090Y-99016832D01*
X136832974Y-99035552D01*
X136844956Y-99055543D01*
X136854921Y-99076613D01*
X136862773Y-99098557D01*
X136868437Y-99121166D01*
X136871856Y-99144221D01*
X136873000Y-99167500D01*
X136873000Y-99742500D01*
X136871856Y-99765779D01*
X136868437Y-99788834D01*
X136862773Y-99811443D01*
X136854921Y-99833387D01*
X136844956Y-99854457D01*
X136832974Y-99874448D01*
X136819090Y-99893168D01*
X136803438Y-99910438D01*
X136786168Y-99926090D01*
X136767448Y-99939974D01*
X136747457Y-99951956D01*
X136726387Y-99961921D01*
X136704443Y-99969773D01*
X136681834Y-99975437D01*
X136658779Y-99978856D01*
X136635500Y-99980000D01*
X136160500Y-99980000D01*
X136137221Y-99978856D01*
X136114166Y-99975437D01*
X136091557Y-99969773D01*
X136069613Y-99961921D01*
X136048543Y-99951956D01*
X136028552Y-99939974D01*
X136009832Y-99926090D01*
X135992562Y-99910438D01*
X135976910Y-99893168D01*
X135963026Y-99874448D01*
X135951044Y-99854457D01*
X135941079Y-99833387D01*
X135933227Y-99811443D01*
X135927563Y-99788834D01*
X135924144Y-99765779D01*
X135923000Y-99742500D01*
X135923000Y-99167500D01*
X135924144Y-99144221D01*
X135927563Y-99121166D01*
X135933227Y-99098557D01*
X135941079Y-99076613D01*
X135951044Y-99055543D01*
X135963026Y-99035552D01*
X135976910Y-99016832D01*
X135992562Y-98999562D01*
X136009832Y-98983910D01*
X136028552Y-98970026D01*
X136048543Y-98958044D01*
X136069613Y-98948079D01*
X136091557Y-98940227D01*
X136114166Y-98934563D01*
X136137221Y-98931144D01*
X136160500Y-98930000D01*
X136635500Y-98930000D01*
X136658779Y-98931144D01*
X136658779Y-98931144D01*
G37*
D17*
X136398000Y-99455000D03*
D16*
G36*
X137547779Y-110015644D02*
G01*
X137570834Y-110019063D01*
X137593443Y-110024727D01*
X137615387Y-110032579D01*
X137636457Y-110042544D01*
X137656448Y-110054526D01*
X137675168Y-110068410D01*
X137692438Y-110084062D01*
X137708090Y-110101332D01*
X137721974Y-110120052D01*
X137733956Y-110140043D01*
X137743921Y-110161113D01*
X137751773Y-110183057D01*
X137757437Y-110205666D01*
X137760856Y-110228721D01*
X137762000Y-110252000D01*
X137762000Y-110827000D01*
X137760856Y-110850279D01*
X137757437Y-110873334D01*
X137751773Y-110895943D01*
X137743921Y-110917887D01*
X137733956Y-110938957D01*
X137721974Y-110958948D01*
X137708090Y-110977668D01*
X137692438Y-110994938D01*
X137675168Y-111010590D01*
X137656448Y-111024474D01*
X137636457Y-111036456D01*
X137615387Y-111046421D01*
X137593443Y-111054273D01*
X137570834Y-111059937D01*
X137547779Y-111063356D01*
X137524500Y-111064500D01*
X137049500Y-111064500D01*
X137026221Y-111063356D01*
X137003166Y-111059937D01*
X136980557Y-111054273D01*
X136958613Y-111046421D01*
X136937543Y-111036456D01*
X136917552Y-111024474D01*
X136898832Y-111010590D01*
X136881562Y-110994938D01*
X136865910Y-110977668D01*
X136852026Y-110958948D01*
X136840044Y-110938957D01*
X136830079Y-110917887D01*
X136822227Y-110895943D01*
X136816563Y-110873334D01*
X136813144Y-110850279D01*
X136812000Y-110827000D01*
X136812000Y-110252000D01*
X136813144Y-110228721D01*
X136816563Y-110205666D01*
X136822227Y-110183057D01*
X136830079Y-110161113D01*
X136840044Y-110140043D01*
X136852026Y-110120052D01*
X136865910Y-110101332D01*
X136881562Y-110084062D01*
X136898832Y-110068410D01*
X136917552Y-110054526D01*
X136937543Y-110042544D01*
X136958613Y-110032579D01*
X136980557Y-110024727D01*
X137003166Y-110019063D01*
X137026221Y-110015644D01*
X137049500Y-110014500D01*
X137524500Y-110014500D01*
X137547779Y-110015644D01*
X137547779Y-110015644D01*
G37*
D17*
X137287000Y-110539500D03*
D16*
G36*
X137547779Y-108265644D02*
G01*
X137570834Y-108269063D01*
X137593443Y-108274727D01*
X137615387Y-108282579D01*
X137636457Y-108292544D01*
X137656448Y-108304526D01*
X137675168Y-108318410D01*
X137692438Y-108334062D01*
X137708090Y-108351332D01*
X137721974Y-108370052D01*
X137733956Y-108390043D01*
X137743921Y-108411113D01*
X137751773Y-108433057D01*
X137757437Y-108455666D01*
X137760856Y-108478721D01*
X137762000Y-108502000D01*
X137762000Y-109077000D01*
X137760856Y-109100279D01*
X137757437Y-109123334D01*
X137751773Y-109145943D01*
X137743921Y-109167887D01*
X137733956Y-109188957D01*
X137721974Y-109208948D01*
X137708090Y-109227668D01*
X137692438Y-109244938D01*
X137675168Y-109260590D01*
X137656448Y-109274474D01*
X137636457Y-109286456D01*
X137615387Y-109296421D01*
X137593443Y-109304273D01*
X137570834Y-109309937D01*
X137547779Y-109313356D01*
X137524500Y-109314500D01*
X137049500Y-109314500D01*
X137026221Y-109313356D01*
X137003166Y-109309937D01*
X136980557Y-109304273D01*
X136958613Y-109296421D01*
X136937543Y-109286456D01*
X136917552Y-109274474D01*
X136898832Y-109260590D01*
X136881562Y-109244938D01*
X136865910Y-109227668D01*
X136852026Y-109208948D01*
X136840044Y-109188957D01*
X136830079Y-109167887D01*
X136822227Y-109145943D01*
X136816563Y-109123334D01*
X136813144Y-109100279D01*
X136812000Y-109077000D01*
X136812000Y-108502000D01*
X136813144Y-108478721D01*
X136816563Y-108455666D01*
X136822227Y-108433057D01*
X136830079Y-108411113D01*
X136840044Y-108390043D01*
X136852026Y-108370052D01*
X136865910Y-108351332D01*
X136881562Y-108334062D01*
X136898832Y-108318410D01*
X136917552Y-108304526D01*
X136937543Y-108292544D01*
X136958613Y-108282579D01*
X136980557Y-108274727D01*
X137003166Y-108269063D01*
X137026221Y-108265644D01*
X137049500Y-108264500D01*
X137524500Y-108264500D01*
X137547779Y-108265644D01*
X137547779Y-108265644D01*
G37*
D17*
X137287000Y-108789500D03*
D16*
G36*
X148216279Y-106587144D02*
G01*
X148239334Y-106590563D01*
X148261943Y-106596227D01*
X148283887Y-106604079D01*
X148304957Y-106614044D01*
X148324948Y-106626026D01*
X148343668Y-106639910D01*
X148360938Y-106655562D01*
X148376590Y-106672832D01*
X148390474Y-106691552D01*
X148402456Y-106711543D01*
X148412421Y-106732613D01*
X148420273Y-106754557D01*
X148425937Y-106777166D01*
X148429356Y-106800221D01*
X148430500Y-106823500D01*
X148430500Y-107298500D01*
X148429356Y-107321779D01*
X148425937Y-107344834D01*
X148420273Y-107367443D01*
X148412421Y-107389387D01*
X148402456Y-107410457D01*
X148390474Y-107430448D01*
X148376590Y-107449168D01*
X148360938Y-107466438D01*
X148343668Y-107482090D01*
X148324948Y-107495974D01*
X148304957Y-107507956D01*
X148283887Y-107517921D01*
X148261943Y-107525773D01*
X148239334Y-107531437D01*
X148216279Y-107534856D01*
X148193000Y-107536000D01*
X147618000Y-107536000D01*
X147594721Y-107534856D01*
X147571666Y-107531437D01*
X147549057Y-107525773D01*
X147527113Y-107517921D01*
X147506043Y-107507956D01*
X147486052Y-107495974D01*
X147467332Y-107482090D01*
X147450062Y-107466438D01*
X147434410Y-107449168D01*
X147420526Y-107430448D01*
X147408544Y-107410457D01*
X147398579Y-107389387D01*
X147390727Y-107367443D01*
X147385063Y-107344834D01*
X147381644Y-107321779D01*
X147380500Y-107298500D01*
X147380500Y-106823500D01*
X147381644Y-106800221D01*
X147385063Y-106777166D01*
X147390727Y-106754557D01*
X147398579Y-106732613D01*
X147408544Y-106711543D01*
X147420526Y-106691552D01*
X147434410Y-106672832D01*
X147450062Y-106655562D01*
X147467332Y-106639910D01*
X147486052Y-106626026D01*
X147506043Y-106614044D01*
X147527113Y-106604079D01*
X147549057Y-106596227D01*
X147571666Y-106590563D01*
X147594721Y-106587144D01*
X147618000Y-106586000D01*
X148193000Y-106586000D01*
X148216279Y-106587144D01*
X148216279Y-106587144D01*
G37*
D17*
X147905500Y-107061000D03*
D16*
G36*
X149966279Y-106587144D02*
G01*
X149989334Y-106590563D01*
X150011943Y-106596227D01*
X150033887Y-106604079D01*
X150054957Y-106614044D01*
X150074948Y-106626026D01*
X150093668Y-106639910D01*
X150110938Y-106655562D01*
X150126590Y-106672832D01*
X150140474Y-106691552D01*
X150152456Y-106711543D01*
X150162421Y-106732613D01*
X150170273Y-106754557D01*
X150175937Y-106777166D01*
X150179356Y-106800221D01*
X150180500Y-106823500D01*
X150180500Y-107298500D01*
X150179356Y-107321779D01*
X150175937Y-107344834D01*
X150170273Y-107367443D01*
X150162421Y-107389387D01*
X150152456Y-107410457D01*
X150140474Y-107430448D01*
X150126590Y-107449168D01*
X150110938Y-107466438D01*
X150093668Y-107482090D01*
X150074948Y-107495974D01*
X150054957Y-107507956D01*
X150033887Y-107517921D01*
X150011943Y-107525773D01*
X149989334Y-107531437D01*
X149966279Y-107534856D01*
X149943000Y-107536000D01*
X149368000Y-107536000D01*
X149344721Y-107534856D01*
X149321666Y-107531437D01*
X149299057Y-107525773D01*
X149277113Y-107517921D01*
X149256043Y-107507956D01*
X149236052Y-107495974D01*
X149217332Y-107482090D01*
X149200062Y-107466438D01*
X149184410Y-107449168D01*
X149170526Y-107430448D01*
X149158544Y-107410457D01*
X149148579Y-107389387D01*
X149140727Y-107367443D01*
X149135063Y-107344834D01*
X149131644Y-107321779D01*
X149130500Y-107298500D01*
X149130500Y-106823500D01*
X149131644Y-106800221D01*
X149135063Y-106777166D01*
X149140727Y-106754557D01*
X149148579Y-106732613D01*
X149158544Y-106711543D01*
X149170526Y-106691552D01*
X149184410Y-106672832D01*
X149200062Y-106655562D01*
X149217332Y-106639910D01*
X149236052Y-106626026D01*
X149256043Y-106614044D01*
X149277113Y-106604079D01*
X149299057Y-106596227D01*
X149321666Y-106590563D01*
X149344721Y-106587144D01*
X149368000Y-106586000D01*
X149943000Y-106586000D01*
X149966279Y-106587144D01*
X149966279Y-106587144D01*
G37*
D17*
X149655500Y-107061000D03*
D16*
G36*
X144005505Y-87064204D02*
G01*
X144029773Y-87067804D01*
X144053572Y-87073765D01*
X144076671Y-87082030D01*
X144098850Y-87092520D01*
X144119893Y-87105132D01*
X144139599Y-87119747D01*
X144157777Y-87136223D01*
X144174253Y-87154401D01*
X144188868Y-87174107D01*
X144201480Y-87195150D01*
X144211970Y-87217329D01*
X144220235Y-87240428D01*
X144226196Y-87264227D01*
X144229796Y-87288495D01*
X144231000Y-87312999D01*
X144231000Y-88963001D01*
X144229796Y-88987505D01*
X144226196Y-89011773D01*
X144220235Y-89035572D01*
X144211970Y-89058671D01*
X144201480Y-89080850D01*
X144188868Y-89101893D01*
X144174253Y-89121599D01*
X144157777Y-89139777D01*
X144139599Y-89156253D01*
X144119893Y-89170868D01*
X144098850Y-89183480D01*
X144076671Y-89193970D01*
X144053572Y-89202235D01*
X144029773Y-89208196D01*
X144005505Y-89211796D01*
X143981001Y-89213000D01*
X142530999Y-89213000D01*
X142506495Y-89211796D01*
X142482227Y-89208196D01*
X142458428Y-89202235D01*
X142435329Y-89193970D01*
X142413150Y-89183480D01*
X142392107Y-89170868D01*
X142372401Y-89156253D01*
X142354223Y-89139777D01*
X142337747Y-89121599D01*
X142323132Y-89101893D01*
X142310520Y-89080850D01*
X142300030Y-89058671D01*
X142291765Y-89035572D01*
X142285804Y-89011773D01*
X142282204Y-88987505D01*
X142281000Y-88963001D01*
X142281000Y-87312999D01*
X142282204Y-87288495D01*
X142285804Y-87264227D01*
X142291765Y-87240428D01*
X142300030Y-87217329D01*
X142310520Y-87195150D01*
X142323132Y-87174107D01*
X142337747Y-87154401D01*
X142354223Y-87136223D01*
X142372401Y-87119747D01*
X142392107Y-87105132D01*
X142413150Y-87092520D01*
X142435329Y-87082030D01*
X142458428Y-87073765D01*
X142482227Y-87067804D01*
X142506495Y-87064204D01*
X142530999Y-87063000D01*
X143981001Y-87063000D01*
X144005505Y-87064204D01*
X144005505Y-87064204D01*
G37*
D18*
X143256000Y-88138000D03*
D16*
G36*
X141740802Y-86963482D02*
G01*
X141750509Y-86964921D01*
X141760028Y-86967306D01*
X141769268Y-86970612D01*
X141778140Y-86974808D01*
X141786557Y-86979853D01*
X141794439Y-86985699D01*
X141801711Y-86992289D01*
X141808301Y-86999561D01*
X141814147Y-87007443D01*
X141819192Y-87015860D01*
X141823388Y-87024732D01*
X141826694Y-87033972D01*
X141829079Y-87043491D01*
X141830518Y-87053198D01*
X141831000Y-87063000D01*
X141831000Y-87263000D01*
X141830518Y-87272802D01*
X141829079Y-87282509D01*
X141826694Y-87292028D01*
X141823388Y-87301268D01*
X141819192Y-87310140D01*
X141814147Y-87318557D01*
X141808301Y-87326439D01*
X141801711Y-87333711D01*
X141794439Y-87340301D01*
X141786557Y-87346147D01*
X141778140Y-87351192D01*
X141769268Y-87355388D01*
X141760028Y-87358694D01*
X141750509Y-87361079D01*
X141740802Y-87362518D01*
X141731000Y-87363000D01*
X140481000Y-87363000D01*
X140471198Y-87362518D01*
X140461491Y-87361079D01*
X140451972Y-87358694D01*
X140442732Y-87355388D01*
X140433860Y-87351192D01*
X140425443Y-87346147D01*
X140417561Y-87340301D01*
X140410289Y-87333711D01*
X140403699Y-87326439D01*
X140397853Y-87318557D01*
X140392808Y-87310140D01*
X140388612Y-87301268D01*
X140385306Y-87292028D01*
X140382921Y-87282509D01*
X140381482Y-87272802D01*
X140381000Y-87263000D01*
X140381000Y-87063000D01*
X140381482Y-87053198D01*
X140382921Y-87043491D01*
X140385306Y-87033972D01*
X140388612Y-87024732D01*
X140392808Y-87015860D01*
X140397853Y-87007443D01*
X140403699Y-86999561D01*
X140410289Y-86992289D01*
X140417561Y-86985699D01*
X140425443Y-86979853D01*
X140433860Y-86974808D01*
X140442732Y-86970612D01*
X140451972Y-86967306D01*
X140461491Y-86964921D01*
X140471198Y-86963482D01*
X140481000Y-86963000D01*
X141731000Y-86963000D01*
X141740802Y-86963482D01*
X141740802Y-86963482D01*
G37*
D19*
X141106000Y-87163000D03*
D16*
G36*
X141740802Y-87613482D02*
G01*
X141750509Y-87614921D01*
X141760028Y-87617306D01*
X141769268Y-87620612D01*
X141778140Y-87624808D01*
X141786557Y-87629853D01*
X141794439Y-87635699D01*
X141801711Y-87642289D01*
X141808301Y-87649561D01*
X141814147Y-87657443D01*
X141819192Y-87665860D01*
X141823388Y-87674732D01*
X141826694Y-87683972D01*
X141829079Y-87693491D01*
X141830518Y-87703198D01*
X141831000Y-87713000D01*
X141831000Y-87913000D01*
X141830518Y-87922802D01*
X141829079Y-87932509D01*
X141826694Y-87942028D01*
X141823388Y-87951268D01*
X141819192Y-87960140D01*
X141814147Y-87968557D01*
X141808301Y-87976439D01*
X141801711Y-87983711D01*
X141794439Y-87990301D01*
X141786557Y-87996147D01*
X141778140Y-88001192D01*
X141769268Y-88005388D01*
X141760028Y-88008694D01*
X141750509Y-88011079D01*
X141740802Y-88012518D01*
X141731000Y-88013000D01*
X140481000Y-88013000D01*
X140471198Y-88012518D01*
X140461491Y-88011079D01*
X140451972Y-88008694D01*
X140442732Y-88005388D01*
X140433860Y-88001192D01*
X140425443Y-87996147D01*
X140417561Y-87990301D01*
X140410289Y-87983711D01*
X140403699Y-87976439D01*
X140397853Y-87968557D01*
X140392808Y-87960140D01*
X140388612Y-87951268D01*
X140385306Y-87942028D01*
X140382921Y-87932509D01*
X140381482Y-87922802D01*
X140381000Y-87913000D01*
X140381000Y-87713000D01*
X140381482Y-87703198D01*
X140382921Y-87693491D01*
X140385306Y-87683972D01*
X140388612Y-87674732D01*
X140392808Y-87665860D01*
X140397853Y-87657443D01*
X140403699Y-87649561D01*
X140410289Y-87642289D01*
X140417561Y-87635699D01*
X140425443Y-87629853D01*
X140433860Y-87624808D01*
X140442732Y-87620612D01*
X140451972Y-87617306D01*
X140461491Y-87614921D01*
X140471198Y-87613482D01*
X140481000Y-87613000D01*
X141731000Y-87613000D01*
X141740802Y-87613482D01*
X141740802Y-87613482D01*
G37*
D19*
X141106000Y-87813000D03*
D16*
G36*
X141740802Y-88263482D02*
G01*
X141750509Y-88264921D01*
X141760028Y-88267306D01*
X141769268Y-88270612D01*
X141778140Y-88274808D01*
X141786557Y-88279853D01*
X141794439Y-88285699D01*
X141801711Y-88292289D01*
X141808301Y-88299561D01*
X141814147Y-88307443D01*
X141819192Y-88315860D01*
X141823388Y-88324732D01*
X141826694Y-88333972D01*
X141829079Y-88343491D01*
X141830518Y-88353198D01*
X141831000Y-88363000D01*
X141831000Y-88563000D01*
X141830518Y-88572802D01*
X141829079Y-88582509D01*
X141826694Y-88592028D01*
X141823388Y-88601268D01*
X141819192Y-88610140D01*
X141814147Y-88618557D01*
X141808301Y-88626439D01*
X141801711Y-88633711D01*
X141794439Y-88640301D01*
X141786557Y-88646147D01*
X141778140Y-88651192D01*
X141769268Y-88655388D01*
X141760028Y-88658694D01*
X141750509Y-88661079D01*
X141740802Y-88662518D01*
X141731000Y-88663000D01*
X140481000Y-88663000D01*
X140471198Y-88662518D01*
X140461491Y-88661079D01*
X140451972Y-88658694D01*
X140442732Y-88655388D01*
X140433860Y-88651192D01*
X140425443Y-88646147D01*
X140417561Y-88640301D01*
X140410289Y-88633711D01*
X140403699Y-88626439D01*
X140397853Y-88618557D01*
X140392808Y-88610140D01*
X140388612Y-88601268D01*
X140385306Y-88592028D01*
X140382921Y-88582509D01*
X140381482Y-88572802D01*
X140381000Y-88563000D01*
X140381000Y-88363000D01*
X140381482Y-88353198D01*
X140382921Y-88343491D01*
X140385306Y-88333972D01*
X140388612Y-88324732D01*
X140392808Y-88315860D01*
X140397853Y-88307443D01*
X140403699Y-88299561D01*
X140410289Y-88292289D01*
X140417561Y-88285699D01*
X140425443Y-88279853D01*
X140433860Y-88274808D01*
X140442732Y-88270612D01*
X140451972Y-88267306D01*
X140461491Y-88264921D01*
X140471198Y-88263482D01*
X140481000Y-88263000D01*
X141731000Y-88263000D01*
X141740802Y-88263482D01*
X141740802Y-88263482D01*
G37*
D19*
X141106000Y-88463000D03*
D16*
G36*
X141740802Y-88913482D02*
G01*
X141750509Y-88914921D01*
X141760028Y-88917306D01*
X141769268Y-88920612D01*
X141778140Y-88924808D01*
X141786557Y-88929853D01*
X141794439Y-88935699D01*
X141801711Y-88942289D01*
X141808301Y-88949561D01*
X141814147Y-88957443D01*
X141819192Y-88965860D01*
X141823388Y-88974732D01*
X141826694Y-88983972D01*
X141829079Y-88993491D01*
X141830518Y-89003198D01*
X141831000Y-89013000D01*
X141831000Y-89213000D01*
X141830518Y-89222802D01*
X141829079Y-89232509D01*
X141826694Y-89242028D01*
X141823388Y-89251268D01*
X141819192Y-89260140D01*
X141814147Y-89268557D01*
X141808301Y-89276439D01*
X141801711Y-89283711D01*
X141794439Y-89290301D01*
X141786557Y-89296147D01*
X141778140Y-89301192D01*
X141769268Y-89305388D01*
X141760028Y-89308694D01*
X141750509Y-89311079D01*
X141740802Y-89312518D01*
X141731000Y-89313000D01*
X140481000Y-89313000D01*
X140471198Y-89312518D01*
X140461491Y-89311079D01*
X140451972Y-89308694D01*
X140442732Y-89305388D01*
X140433860Y-89301192D01*
X140425443Y-89296147D01*
X140417561Y-89290301D01*
X140410289Y-89283711D01*
X140403699Y-89276439D01*
X140397853Y-89268557D01*
X140392808Y-89260140D01*
X140388612Y-89251268D01*
X140385306Y-89242028D01*
X140382921Y-89232509D01*
X140381482Y-89222802D01*
X140381000Y-89213000D01*
X140381000Y-89013000D01*
X140381482Y-89003198D01*
X140382921Y-88993491D01*
X140385306Y-88983972D01*
X140388612Y-88974732D01*
X140392808Y-88965860D01*
X140397853Y-88957443D01*
X140403699Y-88949561D01*
X140410289Y-88942289D01*
X140417561Y-88935699D01*
X140425443Y-88929853D01*
X140433860Y-88924808D01*
X140442732Y-88920612D01*
X140451972Y-88917306D01*
X140461491Y-88914921D01*
X140471198Y-88913482D01*
X140481000Y-88913000D01*
X141731000Y-88913000D01*
X141740802Y-88913482D01*
X141740802Y-88913482D01*
G37*
D19*
X141106000Y-89113000D03*
D16*
G36*
X146040802Y-88913482D02*
G01*
X146050509Y-88914921D01*
X146060028Y-88917306D01*
X146069268Y-88920612D01*
X146078140Y-88924808D01*
X146086557Y-88929853D01*
X146094439Y-88935699D01*
X146101711Y-88942289D01*
X146108301Y-88949561D01*
X146114147Y-88957443D01*
X146119192Y-88965860D01*
X146123388Y-88974732D01*
X146126694Y-88983972D01*
X146129079Y-88993491D01*
X146130518Y-89003198D01*
X146131000Y-89013000D01*
X146131000Y-89213000D01*
X146130518Y-89222802D01*
X146129079Y-89232509D01*
X146126694Y-89242028D01*
X146123388Y-89251268D01*
X146119192Y-89260140D01*
X146114147Y-89268557D01*
X146108301Y-89276439D01*
X146101711Y-89283711D01*
X146094439Y-89290301D01*
X146086557Y-89296147D01*
X146078140Y-89301192D01*
X146069268Y-89305388D01*
X146060028Y-89308694D01*
X146050509Y-89311079D01*
X146040802Y-89312518D01*
X146031000Y-89313000D01*
X144781000Y-89313000D01*
X144771198Y-89312518D01*
X144761491Y-89311079D01*
X144751972Y-89308694D01*
X144742732Y-89305388D01*
X144733860Y-89301192D01*
X144725443Y-89296147D01*
X144717561Y-89290301D01*
X144710289Y-89283711D01*
X144703699Y-89276439D01*
X144697853Y-89268557D01*
X144692808Y-89260140D01*
X144688612Y-89251268D01*
X144685306Y-89242028D01*
X144682921Y-89232509D01*
X144681482Y-89222802D01*
X144681000Y-89213000D01*
X144681000Y-89013000D01*
X144681482Y-89003198D01*
X144682921Y-88993491D01*
X144685306Y-88983972D01*
X144688612Y-88974732D01*
X144692808Y-88965860D01*
X144697853Y-88957443D01*
X144703699Y-88949561D01*
X144710289Y-88942289D01*
X144717561Y-88935699D01*
X144725443Y-88929853D01*
X144733860Y-88924808D01*
X144742732Y-88920612D01*
X144751972Y-88917306D01*
X144761491Y-88914921D01*
X144771198Y-88913482D01*
X144781000Y-88913000D01*
X146031000Y-88913000D01*
X146040802Y-88913482D01*
X146040802Y-88913482D01*
G37*
D19*
X145406000Y-89113000D03*
D16*
G36*
X146040802Y-88263482D02*
G01*
X146050509Y-88264921D01*
X146060028Y-88267306D01*
X146069268Y-88270612D01*
X146078140Y-88274808D01*
X146086557Y-88279853D01*
X146094439Y-88285699D01*
X146101711Y-88292289D01*
X146108301Y-88299561D01*
X146114147Y-88307443D01*
X146119192Y-88315860D01*
X146123388Y-88324732D01*
X146126694Y-88333972D01*
X146129079Y-88343491D01*
X146130518Y-88353198D01*
X146131000Y-88363000D01*
X146131000Y-88563000D01*
X146130518Y-88572802D01*
X146129079Y-88582509D01*
X146126694Y-88592028D01*
X146123388Y-88601268D01*
X146119192Y-88610140D01*
X146114147Y-88618557D01*
X146108301Y-88626439D01*
X146101711Y-88633711D01*
X146094439Y-88640301D01*
X146086557Y-88646147D01*
X146078140Y-88651192D01*
X146069268Y-88655388D01*
X146060028Y-88658694D01*
X146050509Y-88661079D01*
X146040802Y-88662518D01*
X146031000Y-88663000D01*
X144781000Y-88663000D01*
X144771198Y-88662518D01*
X144761491Y-88661079D01*
X144751972Y-88658694D01*
X144742732Y-88655388D01*
X144733860Y-88651192D01*
X144725443Y-88646147D01*
X144717561Y-88640301D01*
X144710289Y-88633711D01*
X144703699Y-88626439D01*
X144697853Y-88618557D01*
X144692808Y-88610140D01*
X144688612Y-88601268D01*
X144685306Y-88592028D01*
X144682921Y-88582509D01*
X144681482Y-88572802D01*
X144681000Y-88563000D01*
X144681000Y-88363000D01*
X144681482Y-88353198D01*
X144682921Y-88343491D01*
X144685306Y-88333972D01*
X144688612Y-88324732D01*
X144692808Y-88315860D01*
X144697853Y-88307443D01*
X144703699Y-88299561D01*
X144710289Y-88292289D01*
X144717561Y-88285699D01*
X144725443Y-88279853D01*
X144733860Y-88274808D01*
X144742732Y-88270612D01*
X144751972Y-88267306D01*
X144761491Y-88264921D01*
X144771198Y-88263482D01*
X144781000Y-88263000D01*
X146031000Y-88263000D01*
X146040802Y-88263482D01*
X146040802Y-88263482D01*
G37*
D19*
X145406000Y-88463000D03*
D16*
G36*
X146040802Y-87613482D02*
G01*
X146050509Y-87614921D01*
X146060028Y-87617306D01*
X146069268Y-87620612D01*
X146078140Y-87624808D01*
X146086557Y-87629853D01*
X146094439Y-87635699D01*
X146101711Y-87642289D01*
X146108301Y-87649561D01*
X146114147Y-87657443D01*
X146119192Y-87665860D01*
X146123388Y-87674732D01*
X146126694Y-87683972D01*
X146129079Y-87693491D01*
X146130518Y-87703198D01*
X146131000Y-87713000D01*
X146131000Y-87913000D01*
X146130518Y-87922802D01*
X146129079Y-87932509D01*
X146126694Y-87942028D01*
X146123388Y-87951268D01*
X146119192Y-87960140D01*
X146114147Y-87968557D01*
X146108301Y-87976439D01*
X146101711Y-87983711D01*
X146094439Y-87990301D01*
X146086557Y-87996147D01*
X146078140Y-88001192D01*
X146069268Y-88005388D01*
X146060028Y-88008694D01*
X146050509Y-88011079D01*
X146040802Y-88012518D01*
X146031000Y-88013000D01*
X144781000Y-88013000D01*
X144771198Y-88012518D01*
X144761491Y-88011079D01*
X144751972Y-88008694D01*
X144742732Y-88005388D01*
X144733860Y-88001192D01*
X144725443Y-87996147D01*
X144717561Y-87990301D01*
X144710289Y-87983711D01*
X144703699Y-87976439D01*
X144697853Y-87968557D01*
X144692808Y-87960140D01*
X144688612Y-87951268D01*
X144685306Y-87942028D01*
X144682921Y-87932509D01*
X144681482Y-87922802D01*
X144681000Y-87913000D01*
X144681000Y-87713000D01*
X144681482Y-87703198D01*
X144682921Y-87693491D01*
X144685306Y-87683972D01*
X144688612Y-87674732D01*
X144692808Y-87665860D01*
X144697853Y-87657443D01*
X144703699Y-87649561D01*
X144710289Y-87642289D01*
X144717561Y-87635699D01*
X144725443Y-87629853D01*
X144733860Y-87624808D01*
X144742732Y-87620612D01*
X144751972Y-87617306D01*
X144761491Y-87614921D01*
X144771198Y-87613482D01*
X144781000Y-87613000D01*
X146031000Y-87613000D01*
X146040802Y-87613482D01*
X146040802Y-87613482D01*
G37*
D19*
X145406000Y-87813000D03*
D16*
G36*
X146040802Y-86963482D02*
G01*
X146050509Y-86964921D01*
X146060028Y-86967306D01*
X146069268Y-86970612D01*
X146078140Y-86974808D01*
X146086557Y-86979853D01*
X146094439Y-86985699D01*
X146101711Y-86992289D01*
X146108301Y-86999561D01*
X146114147Y-87007443D01*
X146119192Y-87015860D01*
X146123388Y-87024732D01*
X146126694Y-87033972D01*
X146129079Y-87043491D01*
X146130518Y-87053198D01*
X146131000Y-87063000D01*
X146131000Y-87263000D01*
X146130518Y-87272802D01*
X146129079Y-87282509D01*
X146126694Y-87292028D01*
X146123388Y-87301268D01*
X146119192Y-87310140D01*
X146114147Y-87318557D01*
X146108301Y-87326439D01*
X146101711Y-87333711D01*
X146094439Y-87340301D01*
X146086557Y-87346147D01*
X146078140Y-87351192D01*
X146069268Y-87355388D01*
X146060028Y-87358694D01*
X146050509Y-87361079D01*
X146040802Y-87362518D01*
X146031000Y-87363000D01*
X144781000Y-87363000D01*
X144771198Y-87362518D01*
X144761491Y-87361079D01*
X144751972Y-87358694D01*
X144742732Y-87355388D01*
X144733860Y-87351192D01*
X144725443Y-87346147D01*
X144717561Y-87340301D01*
X144710289Y-87333711D01*
X144703699Y-87326439D01*
X144697853Y-87318557D01*
X144692808Y-87310140D01*
X144688612Y-87301268D01*
X144685306Y-87292028D01*
X144682921Y-87282509D01*
X144681482Y-87272802D01*
X144681000Y-87263000D01*
X144681000Y-87063000D01*
X144681482Y-87053198D01*
X144682921Y-87043491D01*
X144685306Y-87033972D01*
X144688612Y-87024732D01*
X144692808Y-87015860D01*
X144697853Y-87007443D01*
X144703699Y-86999561D01*
X144710289Y-86992289D01*
X144717561Y-86985699D01*
X144725443Y-86979853D01*
X144733860Y-86974808D01*
X144742732Y-86970612D01*
X144751972Y-86967306D01*
X144761491Y-86964921D01*
X144771198Y-86963482D01*
X144781000Y-86963000D01*
X146031000Y-86963000D01*
X146040802Y-86963482D01*
X146040802Y-86963482D01*
G37*
D19*
X145406000Y-87163000D03*
D16*
G36*
X144441779Y-92871144D02*
G01*
X144464834Y-92874563D01*
X144487443Y-92880227D01*
X144509387Y-92888079D01*
X144530457Y-92898044D01*
X144550448Y-92910026D01*
X144569168Y-92923910D01*
X144586438Y-92939562D01*
X144602090Y-92956832D01*
X144615974Y-92975552D01*
X144627956Y-92995543D01*
X144637921Y-93016613D01*
X144645773Y-93038557D01*
X144651437Y-93061166D01*
X144654856Y-93084221D01*
X144656000Y-93107500D01*
X144656000Y-93582500D01*
X144654856Y-93605779D01*
X144651437Y-93628834D01*
X144645773Y-93651443D01*
X144637921Y-93673387D01*
X144627956Y-93694457D01*
X144615974Y-93714448D01*
X144602090Y-93733168D01*
X144586438Y-93750438D01*
X144569168Y-93766090D01*
X144550448Y-93779974D01*
X144530457Y-93791956D01*
X144509387Y-93801921D01*
X144487443Y-93809773D01*
X144464834Y-93815437D01*
X144441779Y-93818856D01*
X144418500Y-93820000D01*
X143843500Y-93820000D01*
X143820221Y-93818856D01*
X143797166Y-93815437D01*
X143774557Y-93809773D01*
X143752613Y-93801921D01*
X143731543Y-93791956D01*
X143711552Y-93779974D01*
X143692832Y-93766090D01*
X143675562Y-93750438D01*
X143659910Y-93733168D01*
X143646026Y-93714448D01*
X143634044Y-93694457D01*
X143624079Y-93673387D01*
X143616227Y-93651443D01*
X143610563Y-93628834D01*
X143607144Y-93605779D01*
X143606000Y-93582500D01*
X143606000Y-93107500D01*
X143607144Y-93084221D01*
X143610563Y-93061166D01*
X143616227Y-93038557D01*
X143624079Y-93016613D01*
X143634044Y-92995543D01*
X143646026Y-92975552D01*
X143659910Y-92956832D01*
X143675562Y-92939562D01*
X143692832Y-92923910D01*
X143711552Y-92910026D01*
X143731543Y-92898044D01*
X143752613Y-92888079D01*
X143774557Y-92880227D01*
X143797166Y-92874563D01*
X143820221Y-92871144D01*
X143843500Y-92870000D01*
X144418500Y-92870000D01*
X144441779Y-92871144D01*
X144441779Y-92871144D01*
G37*
D17*
X144131000Y-93345000D03*
D16*
G36*
X142691779Y-92871144D02*
G01*
X142714834Y-92874563D01*
X142737443Y-92880227D01*
X142759387Y-92888079D01*
X142780457Y-92898044D01*
X142800448Y-92910026D01*
X142819168Y-92923910D01*
X142836438Y-92939562D01*
X142852090Y-92956832D01*
X142865974Y-92975552D01*
X142877956Y-92995543D01*
X142887921Y-93016613D01*
X142895773Y-93038557D01*
X142901437Y-93061166D01*
X142904856Y-93084221D01*
X142906000Y-93107500D01*
X142906000Y-93582500D01*
X142904856Y-93605779D01*
X142901437Y-93628834D01*
X142895773Y-93651443D01*
X142887921Y-93673387D01*
X142877956Y-93694457D01*
X142865974Y-93714448D01*
X142852090Y-93733168D01*
X142836438Y-93750438D01*
X142819168Y-93766090D01*
X142800448Y-93779974D01*
X142780457Y-93791956D01*
X142759387Y-93801921D01*
X142737443Y-93809773D01*
X142714834Y-93815437D01*
X142691779Y-93818856D01*
X142668500Y-93820000D01*
X142093500Y-93820000D01*
X142070221Y-93818856D01*
X142047166Y-93815437D01*
X142024557Y-93809773D01*
X142002613Y-93801921D01*
X141981543Y-93791956D01*
X141961552Y-93779974D01*
X141942832Y-93766090D01*
X141925562Y-93750438D01*
X141909910Y-93733168D01*
X141896026Y-93714448D01*
X141884044Y-93694457D01*
X141874079Y-93673387D01*
X141866227Y-93651443D01*
X141860563Y-93628834D01*
X141857144Y-93605779D01*
X141856000Y-93582500D01*
X141856000Y-93107500D01*
X141857144Y-93084221D01*
X141860563Y-93061166D01*
X141866227Y-93038557D01*
X141874079Y-93016613D01*
X141884044Y-92995543D01*
X141896026Y-92975552D01*
X141909910Y-92956832D01*
X141925562Y-92939562D01*
X141942832Y-92923910D01*
X141961552Y-92910026D01*
X141981543Y-92898044D01*
X142002613Y-92888079D01*
X142024557Y-92880227D01*
X142047166Y-92874563D01*
X142070221Y-92871144D01*
X142093500Y-92870000D01*
X142668500Y-92870000D01*
X142691779Y-92871144D01*
X142691779Y-92871144D01*
G37*
D17*
X142381000Y-93345000D03*
D16*
G36*
X134309779Y-86648144D02*
G01*
X134332834Y-86651563D01*
X134355443Y-86657227D01*
X134377387Y-86665079D01*
X134398457Y-86675044D01*
X134418448Y-86687026D01*
X134437168Y-86700910D01*
X134454438Y-86716562D01*
X134470090Y-86733832D01*
X134483974Y-86752552D01*
X134495956Y-86772543D01*
X134505921Y-86793613D01*
X134513773Y-86815557D01*
X134519437Y-86838166D01*
X134522856Y-86861221D01*
X134524000Y-86884500D01*
X134524000Y-87359500D01*
X134522856Y-87382779D01*
X134519437Y-87405834D01*
X134513773Y-87428443D01*
X134505921Y-87450387D01*
X134495956Y-87471457D01*
X134483974Y-87491448D01*
X134470090Y-87510168D01*
X134454438Y-87527438D01*
X134437168Y-87543090D01*
X134418448Y-87556974D01*
X134398457Y-87568956D01*
X134377387Y-87578921D01*
X134355443Y-87586773D01*
X134332834Y-87592437D01*
X134309779Y-87595856D01*
X134286500Y-87597000D01*
X133711500Y-87597000D01*
X133688221Y-87595856D01*
X133665166Y-87592437D01*
X133642557Y-87586773D01*
X133620613Y-87578921D01*
X133599543Y-87568956D01*
X133579552Y-87556974D01*
X133560832Y-87543090D01*
X133543562Y-87527438D01*
X133527910Y-87510168D01*
X133514026Y-87491448D01*
X133502044Y-87471457D01*
X133492079Y-87450387D01*
X133484227Y-87428443D01*
X133478563Y-87405834D01*
X133475144Y-87382779D01*
X133474000Y-87359500D01*
X133474000Y-86884500D01*
X133475144Y-86861221D01*
X133478563Y-86838166D01*
X133484227Y-86815557D01*
X133492079Y-86793613D01*
X133502044Y-86772543D01*
X133514026Y-86752552D01*
X133527910Y-86733832D01*
X133543562Y-86716562D01*
X133560832Y-86700910D01*
X133579552Y-86687026D01*
X133599543Y-86675044D01*
X133620613Y-86665079D01*
X133642557Y-86657227D01*
X133665166Y-86651563D01*
X133688221Y-86648144D01*
X133711500Y-86647000D01*
X134286500Y-86647000D01*
X134309779Y-86648144D01*
X134309779Y-86648144D01*
G37*
D17*
X133999000Y-87122000D03*
D16*
G36*
X136059779Y-86648144D02*
G01*
X136082834Y-86651563D01*
X136105443Y-86657227D01*
X136127387Y-86665079D01*
X136148457Y-86675044D01*
X136168448Y-86687026D01*
X136187168Y-86700910D01*
X136204438Y-86716562D01*
X136220090Y-86733832D01*
X136233974Y-86752552D01*
X136245956Y-86772543D01*
X136255921Y-86793613D01*
X136263773Y-86815557D01*
X136269437Y-86838166D01*
X136272856Y-86861221D01*
X136274000Y-86884500D01*
X136274000Y-87359500D01*
X136272856Y-87382779D01*
X136269437Y-87405834D01*
X136263773Y-87428443D01*
X136255921Y-87450387D01*
X136245956Y-87471457D01*
X136233974Y-87491448D01*
X136220090Y-87510168D01*
X136204438Y-87527438D01*
X136187168Y-87543090D01*
X136168448Y-87556974D01*
X136148457Y-87568956D01*
X136127387Y-87578921D01*
X136105443Y-87586773D01*
X136082834Y-87592437D01*
X136059779Y-87595856D01*
X136036500Y-87597000D01*
X135461500Y-87597000D01*
X135438221Y-87595856D01*
X135415166Y-87592437D01*
X135392557Y-87586773D01*
X135370613Y-87578921D01*
X135349543Y-87568956D01*
X135329552Y-87556974D01*
X135310832Y-87543090D01*
X135293562Y-87527438D01*
X135277910Y-87510168D01*
X135264026Y-87491448D01*
X135252044Y-87471457D01*
X135242079Y-87450387D01*
X135234227Y-87428443D01*
X135228563Y-87405834D01*
X135225144Y-87382779D01*
X135224000Y-87359500D01*
X135224000Y-86884500D01*
X135225144Y-86861221D01*
X135228563Y-86838166D01*
X135234227Y-86815557D01*
X135242079Y-86793613D01*
X135252044Y-86772543D01*
X135264026Y-86752552D01*
X135277910Y-86733832D01*
X135293562Y-86716562D01*
X135310832Y-86700910D01*
X135329552Y-86687026D01*
X135349543Y-86675044D01*
X135370613Y-86665079D01*
X135392557Y-86657227D01*
X135415166Y-86651563D01*
X135438221Y-86648144D01*
X135461500Y-86647000D01*
X136036500Y-86647000D01*
X136059779Y-86648144D01*
X136059779Y-86648144D01*
G37*
D17*
X135749000Y-87122000D03*
D16*
G36*
X154474779Y-86648144D02*
G01*
X154497834Y-86651563D01*
X154520443Y-86657227D01*
X154542387Y-86665079D01*
X154563457Y-86675044D01*
X154583448Y-86687026D01*
X154602168Y-86700910D01*
X154619438Y-86716562D01*
X154635090Y-86733832D01*
X154648974Y-86752552D01*
X154660956Y-86772543D01*
X154670921Y-86793613D01*
X154678773Y-86815557D01*
X154684437Y-86838166D01*
X154687856Y-86861221D01*
X154689000Y-86884500D01*
X154689000Y-87359500D01*
X154687856Y-87382779D01*
X154684437Y-87405834D01*
X154678773Y-87428443D01*
X154670921Y-87450387D01*
X154660956Y-87471457D01*
X154648974Y-87491448D01*
X154635090Y-87510168D01*
X154619438Y-87527438D01*
X154602168Y-87543090D01*
X154583448Y-87556974D01*
X154563457Y-87568956D01*
X154542387Y-87578921D01*
X154520443Y-87586773D01*
X154497834Y-87592437D01*
X154474779Y-87595856D01*
X154451500Y-87597000D01*
X153876500Y-87597000D01*
X153853221Y-87595856D01*
X153830166Y-87592437D01*
X153807557Y-87586773D01*
X153785613Y-87578921D01*
X153764543Y-87568956D01*
X153744552Y-87556974D01*
X153725832Y-87543090D01*
X153708562Y-87527438D01*
X153692910Y-87510168D01*
X153679026Y-87491448D01*
X153667044Y-87471457D01*
X153657079Y-87450387D01*
X153649227Y-87428443D01*
X153643563Y-87405834D01*
X153640144Y-87382779D01*
X153639000Y-87359500D01*
X153639000Y-86884500D01*
X153640144Y-86861221D01*
X153643563Y-86838166D01*
X153649227Y-86815557D01*
X153657079Y-86793613D01*
X153667044Y-86772543D01*
X153679026Y-86752552D01*
X153692910Y-86733832D01*
X153708562Y-86716562D01*
X153725832Y-86700910D01*
X153744552Y-86687026D01*
X153764543Y-86675044D01*
X153785613Y-86665079D01*
X153807557Y-86657227D01*
X153830166Y-86651563D01*
X153853221Y-86648144D01*
X153876500Y-86647000D01*
X154451500Y-86647000D01*
X154474779Y-86648144D01*
X154474779Y-86648144D01*
G37*
D17*
X154164000Y-87122000D03*
D16*
G36*
X152724779Y-86648144D02*
G01*
X152747834Y-86651563D01*
X152770443Y-86657227D01*
X152792387Y-86665079D01*
X152813457Y-86675044D01*
X152833448Y-86687026D01*
X152852168Y-86700910D01*
X152869438Y-86716562D01*
X152885090Y-86733832D01*
X152898974Y-86752552D01*
X152910956Y-86772543D01*
X152920921Y-86793613D01*
X152928773Y-86815557D01*
X152934437Y-86838166D01*
X152937856Y-86861221D01*
X152939000Y-86884500D01*
X152939000Y-87359500D01*
X152937856Y-87382779D01*
X152934437Y-87405834D01*
X152928773Y-87428443D01*
X152920921Y-87450387D01*
X152910956Y-87471457D01*
X152898974Y-87491448D01*
X152885090Y-87510168D01*
X152869438Y-87527438D01*
X152852168Y-87543090D01*
X152833448Y-87556974D01*
X152813457Y-87568956D01*
X152792387Y-87578921D01*
X152770443Y-87586773D01*
X152747834Y-87592437D01*
X152724779Y-87595856D01*
X152701500Y-87597000D01*
X152126500Y-87597000D01*
X152103221Y-87595856D01*
X152080166Y-87592437D01*
X152057557Y-87586773D01*
X152035613Y-87578921D01*
X152014543Y-87568956D01*
X151994552Y-87556974D01*
X151975832Y-87543090D01*
X151958562Y-87527438D01*
X151942910Y-87510168D01*
X151929026Y-87491448D01*
X151917044Y-87471457D01*
X151907079Y-87450387D01*
X151899227Y-87428443D01*
X151893563Y-87405834D01*
X151890144Y-87382779D01*
X151889000Y-87359500D01*
X151889000Y-86884500D01*
X151890144Y-86861221D01*
X151893563Y-86838166D01*
X151899227Y-86815557D01*
X151907079Y-86793613D01*
X151917044Y-86772543D01*
X151929026Y-86752552D01*
X151942910Y-86733832D01*
X151958562Y-86716562D01*
X151975832Y-86700910D01*
X151994552Y-86687026D01*
X152014543Y-86675044D01*
X152035613Y-86665079D01*
X152057557Y-86657227D01*
X152080166Y-86651563D01*
X152103221Y-86648144D01*
X152126500Y-86647000D01*
X152701500Y-86647000D01*
X152724779Y-86648144D01*
X152724779Y-86648144D01*
G37*
D17*
X152414000Y-87122000D03*
D20*
X156527500Y-98742500D03*
D16*
G36*
X146039504Y-115358204D02*
G01*
X146063773Y-115361804D01*
X146087571Y-115367765D01*
X146110671Y-115376030D01*
X146132849Y-115386520D01*
X146153893Y-115399133D01*
X146173598Y-115413747D01*
X146191777Y-115430223D01*
X146208253Y-115448402D01*
X146222867Y-115468107D01*
X146235480Y-115489151D01*
X146245970Y-115511329D01*
X146254235Y-115534429D01*
X146260196Y-115558227D01*
X146263796Y-115582496D01*
X146265000Y-115607000D01*
X146265000Y-117057000D01*
X146263796Y-117081504D01*
X146260196Y-117105773D01*
X146254235Y-117129571D01*
X146245970Y-117152671D01*
X146235480Y-117174849D01*
X146222867Y-117195893D01*
X146208253Y-117215598D01*
X146191777Y-117233777D01*
X146173598Y-117250253D01*
X146153893Y-117264867D01*
X146132849Y-117277480D01*
X146110671Y-117287970D01*
X146087571Y-117296235D01*
X146063773Y-117302196D01*
X146039504Y-117305796D01*
X146015000Y-117307000D01*
X144815000Y-117307000D01*
X144790496Y-117305796D01*
X144766227Y-117302196D01*
X144742429Y-117296235D01*
X144719329Y-117287970D01*
X144697151Y-117277480D01*
X144676107Y-117264867D01*
X144656402Y-117250253D01*
X144638223Y-117233777D01*
X144621747Y-117215598D01*
X144607133Y-117195893D01*
X144594520Y-117174849D01*
X144584030Y-117152671D01*
X144575765Y-117129571D01*
X144569804Y-117105773D01*
X144566204Y-117081504D01*
X144565000Y-117057000D01*
X144565000Y-115607000D01*
X144566204Y-115582496D01*
X144569804Y-115558227D01*
X144575765Y-115534429D01*
X144584030Y-115511329D01*
X144594520Y-115489151D01*
X144607133Y-115468107D01*
X144621747Y-115448402D01*
X144638223Y-115430223D01*
X144656402Y-115413747D01*
X144676107Y-115399133D01*
X144697151Y-115386520D01*
X144719329Y-115376030D01*
X144742429Y-115367765D01*
X144766227Y-115361804D01*
X144790496Y-115358204D01*
X144815000Y-115357000D01*
X146015000Y-115357000D01*
X146039504Y-115358204D01*
X146039504Y-115358204D01*
G37*
D21*
X145415000Y-116332000D03*
D22*
X142915000Y-116332000D03*
X140415000Y-116332000D03*
D16*
G36*
X144302505Y-102133204D02*
G01*
X144326773Y-102136804D01*
X144350572Y-102142765D01*
X144373671Y-102151030D01*
X144395850Y-102161520D01*
X144416893Y-102174132D01*
X144436599Y-102188747D01*
X144454777Y-102205223D01*
X144471253Y-102223401D01*
X144485868Y-102243107D01*
X144498480Y-102264150D01*
X144508970Y-102286329D01*
X144517235Y-102309428D01*
X144523196Y-102333227D01*
X144526796Y-102357495D01*
X144528000Y-102381999D01*
X144528000Y-104882001D01*
X144526796Y-104906505D01*
X144523196Y-104930773D01*
X144517235Y-104954572D01*
X144508970Y-104977671D01*
X144498480Y-104999850D01*
X144485868Y-105020893D01*
X144471253Y-105040599D01*
X144454777Y-105058777D01*
X144436599Y-105075253D01*
X144416893Y-105089868D01*
X144395850Y-105102480D01*
X144373671Y-105112970D01*
X144350572Y-105121235D01*
X144326773Y-105127196D01*
X144302505Y-105130796D01*
X144278001Y-105132000D01*
X142487999Y-105132000D01*
X142463495Y-105130796D01*
X142439227Y-105127196D01*
X142415428Y-105121235D01*
X142392329Y-105112970D01*
X142370150Y-105102480D01*
X142349107Y-105089868D01*
X142329401Y-105075253D01*
X142311223Y-105058777D01*
X142294747Y-105040599D01*
X142280132Y-105020893D01*
X142267520Y-104999850D01*
X142257030Y-104977671D01*
X142248765Y-104954572D01*
X142242804Y-104930773D01*
X142239204Y-104906505D01*
X142238000Y-104882001D01*
X142238000Y-102381999D01*
X142239204Y-102357495D01*
X142242804Y-102333227D01*
X142248765Y-102309428D01*
X142257030Y-102286329D01*
X142267520Y-102264150D01*
X142280132Y-102243107D01*
X142294747Y-102223401D01*
X142311223Y-102205223D01*
X142329401Y-102188747D01*
X142349107Y-102174132D01*
X142370150Y-102161520D01*
X142392329Y-102151030D01*
X142415428Y-102142765D01*
X142439227Y-102136804D01*
X142463495Y-102133204D01*
X142487999Y-102132000D01*
X144278001Y-102132000D01*
X144302505Y-102133204D01*
X144302505Y-102133204D01*
G37*
D23*
X143383000Y-103632000D03*
D16*
G36*
X141747703Y-101427722D02*
G01*
X141762264Y-101429882D01*
X141776543Y-101433459D01*
X141790403Y-101438418D01*
X141803710Y-101444712D01*
X141816336Y-101452280D01*
X141828159Y-101461048D01*
X141839066Y-101470934D01*
X141848952Y-101481841D01*
X141857720Y-101493664D01*
X141865288Y-101506290D01*
X141871582Y-101519597D01*
X141876541Y-101533457D01*
X141880118Y-101547736D01*
X141882278Y-101562297D01*
X141883000Y-101577000D01*
X141883000Y-101877000D01*
X141882278Y-101891703D01*
X141880118Y-101906264D01*
X141876541Y-101920543D01*
X141871582Y-101934403D01*
X141865288Y-101947710D01*
X141857720Y-101960336D01*
X141848952Y-101972159D01*
X141839066Y-101983066D01*
X141828159Y-101992952D01*
X141816336Y-102001720D01*
X141803710Y-102009288D01*
X141790403Y-102015582D01*
X141776543Y-102020541D01*
X141762264Y-102024118D01*
X141747703Y-102026278D01*
X141733000Y-102027000D01*
X140083000Y-102027000D01*
X140068297Y-102026278D01*
X140053736Y-102024118D01*
X140039457Y-102020541D01*
X140025597Y-102015582D01*
X140012290Y-102009288D01*
X139999664Y-102001720D01*
X139987841Y-101992952D01*
X139976934Y-101983066D01*
X139967048Y-101972159D01*
X139958280Y-101960336D01*
X139950712Y-101947710D01*
X139944418Y-101934403D01*
X139939459Y-101920543D01*
X139935882Y-101906264D01*
X139933722Y-101891703D01*
X139933000Y-101877000D01*
X139933000Y-101577000D01*
X139933722Y-101562297D01*
X139935882Y-101547736D01*
X139939459Y-101533457D01*
X139944418Y-101519597D01*
X139950712Y-101506290D01*
X139958280Y-101493664D01*
X139967048Y-101481841D01*
X139976934Y-101470934D01*
X139987841Y-101461048D01*
X139999664Y-101452280D01*
X140012290Y-101444712D01*
X140025597Y-101438418D01*
X140039457Y-101433459D01*
X140053736Y-101429882D01*
X140068297Y-101427722D01*
X140083000Y-101427000D01*
X141733000Y-101427000D01*
X141747703Y-101427722D01*
X141747703Y-101427722D01*
G37*
D24*
X140908000Y-101727000D03*
D16*
G36*
X141747703Y-102697722D02*
G01*
X141762264Y-102699882D01*
X141776543Y-102703459D01*
X141790403Y-102708418D01*
X141803710Y-102714712D01*
X141816336Y-102722280D01*
X141828159Y-102731048D01*
X141839066Y-102740934D01*
X141848952Y-102751841D01*
X141857720Y-102763664D01*
X141865288Y-102776290D01*
X141871582Y-102789597D01*
X141876541Y-102803457D01*
X141880118Y-102817736D01*
X141882278Y-102832297D01*
X141883000Y-102847000D01*
X141883000Y-103147000D01*
X141882278Y-103161703D01*
X141880118Y-103176264D01*
X141876541Y-103190543D01*
X141871582Y-103204403D01*
X141865288Y-103217710D01*
X141857720Y-103230336D01*
X141848952Y-103242159D01*
X141839066Y-103253066D01*
X141828159Y-103262952D01*
X141816336Y-103271720D01*
X141803710Y-103279288D01*
X141790403Y-103285582D01*
X141776543Y-103290541D01*
X141762264Y-103294118D01*
X141747703Y-103296278D01*
X141733000Y-103297000D01*
X140083000Y-103297000D01*
X140068297Y-103296278D01*
X140053736Y-103294118D01*
X140039457Y-103290541D01*
X140025597Y-103285582D01*
X140012290Y-103279288D01*
X139999664Y-103271720D01*
X139987841Y-103262952D01*
X139976934Y-103253066D01*
X139967048Y-103242159D01*
X139958280Y-103230336D01*
X139950712Y-103217710D01*
X139944418Y-103204403D01*
X139939459Y-103190543D01*
X139935882Y-103176264D01*
X139933722Y-103161703D01*
X139933000Y-103147000D01*
X139933000Y-102847000D01*
X139933722Y-102832297D01*
X139935882Y-102817736D01*
X139939459Y-102803457D01*
X139944418Y-102789597D01*
X139950712Y-102776290D01*
X139958280Y-102763664D01*
X139967048Y-102751841D01*
X139976934Y-102740934D01*
X139987841Y-102731048D01*
X139999664Y-102722280D01*
X140012290Y-102714712D01*
X140025597Y-102708418D01*
X140039457Y-102703459D01*
X140053736Y-102699882D01*
X140068297Y-102697722D01*
X140083000Y-102697000D01*
X141733000Y-102697000D01*
X141747703Y-102697722D01*
X141747703Y-102697722D01*
G37*
D24*
X140908000Y-102997000D03*
D16*
G36*
X141747703Y-103967722D02*
G01*
X141762264Y-103969882D01*
X141776543Y-103973459D01*
X141790403Y-103978418D01*
X141803710Y-103984712D01*
X141816336Y-103992280D01*
X141828159Y-104001048D01*
X141839066Y-104010934D01*
X141848952Y-104021841D01*
X141857720Y-104033664D01*
X141865288Y-104046290D01*
X141871582Y-104059597D01*
X141876541Y-104073457D01*
X141880118Y-104087736D01*
X141882278Y-104102297D01*
X141883000Y-104117000D01*
X141883000Y-104417000D01*
X141882278Y-104431703D01*
X141880118Y-104446264D01*
X141876541Y-104460543D01*
X141871582Y-104474403D01*
X141865288Y-104487710D01*
X141857720Y-104500336D01*
X141848952Y-104512159D01*
X141839066Y-104523066D01*
X141828159Y-104532952D01*
X141816336Y-104541720D01*
X141803710Y-104549288D01*
X141790403Y-104555582D01*
X141776543Y-104560541D01*
X141762264Y-104564118D01*
X141747703Y-104566278D01*
X141733000Y-104567000D01*
X140083000Y-104567000D01*
X140068297Y-104566278D01*
X140053736Y-104564118D01*
X140039457Y-104560541D01*
X140025597Y-104555582D01*
X140012290Y-104549288D01*
X139999664Y-104541720D01*
X139987841Y-104532952D01*
X139976934Y-104523066D01*
X139967048Y-104512159D01*
X139958280Y-104500336D01*
X139950712Y-104487710D01*
X139944418Y-104474403D01*
X139939459Y-104460543D01*
X139935882Y-104446264D01*
X139933722Y-104431703D01*
X139933000Y-104417000D01*
X139933000Y-104117000D01*
X139933722Y-104102297D01*
X139935882Y-104087736D01*
X139939459Y-104073457D01*
X139944418Y-104059597D01*
X139950712Y-104046290D01*
X139958280Y-104033664D01*
X139967048Y-104021841D01*
X139976934Y-104010934D01*
X139987841Y-104001048D01*
X139999664Y-103992280D01*
X140012290Y-103984712D01*
X140025597Y-103978418D01*
X140039457Y-103973459D01*
X140053736Y-103969882D01*
X140068297Y-103967722D01*
X140083000Y-103967000D01*
X141733000Y-103967000D01*
X141747703Y-103967722D01*
X141747703Y-103967722D01*
G37*
D24*
X140908000Y-104267000D03*
D16*
G36*
X141747703Y-105237722D02*
G01*
X141762264Y-105239882D01*
X141776543Y-105243459D01*
X141790403Y-105248418D01*
X141803710Y-105254712D01*
X141816336Y-105262280D01*
X141828159Y-105271048D01*
X141839066Y-105280934D01*
X141848952Y-105291841D01*
X141857720Y-105303664D01*
X141865288Y-105316290D01*
X141871582Y-105329597D01*
X141876541Y-105343457D01*
X141880118Y-105357736D01*
X141882278Y-105372297D01*
X141883000Y-105387000D01*
X141883000Y-105687000D01*
X141882278Y-105701703D01*
X141880118Y-105716264D01*
X141876541Y-105730543D01*
X141871582Y-105744403D01*
X141865288Y-105757710D01*
X141857720Y-105770336D01*
X141848952Y-105782159D01*
X141839066Y-105793066D01*
X141828159Y-105802952D01*
X141816336Y-105811720D01*
X141803710Y-105819288D01*
X141790403Y-105825582D01*
X141776543Y-105830541D01*
X141762264Y-105834118D01*
X141747703Y-105836278D01*
X141733000Y-105837000D01*
X140083000Y-105837000D01*
X140068297Y-105836278D01*
X140053736Y-105834118D01*
X140039457Y-105830541D01*
X140025597Y-105825582D01*
X140012290Y-105819288D01*
X139999664Y-105811720D01*
X139987841Y-105802952D01*
X139976934Y-105793066D01*
X139967048Y-105782159D01*
X139958280Y-105770336D01*
X139950712Y-105757710D01*
X139944418Y-105744403D01*
X139939459Y-105730543D01*
X139935882Y-105716264D01*
X139933722Y-105701703D01*
X139933000Y-105687000D01*
X139933000Y-105387000D01*
X139933722Y-105372297D01*
X139935882Y-105357736D01*
X139939459Y-105343457D01*
X139944418Y-105329597D01*
X139950712Y-105316290D01*
X139958280Y-105303664D01*
X139967048Y-105291841D01*
X139976934Y-105280934D01*
X139987841Y-105271048D01*
X139999664Y-105262280D01*
X140012290Y-105254712D01*
X140025597Y-105248418D01*
X140039457Y-105243459D01*
X140053736Y-105239882D01*
X140068297Y-105237722D01*
X140083000Y-105237000D01*
X141733000Y-105237000D01*
X141747703Y-105237722D01*
X141747703Y-105237722D01*
G37*
D24*
X140908000Y-105537000D03*
D16*
G36*
X146697703Y-105237722D02*
G01*
X146712264Y-105239882D01*
X146726543Y-105243459D01*
X146740403Y-105248418D01*
X146753710Y-105254712D01*
X146766336Y-105262280D01*
X146778159Y-105271048D01*
X146789066Y-105280934D01*
X146798952Y-105291841D01*
X146807720Y-105303664D01*
X146815288Y-105316290D01*
X146821582Y-105329597D01*
X146826541Y-105343457D01*
X146830118Y-105357736D01*
X146832278Y-105372297D01*
X146833000Y-105387000D01*
X146833000Y-105687000D01*
X146832278Y-105701703D01*
X146830118Y-105716264D01*
X146826541Y-105730543D01*
X146821582Y-105744403D01*
X146815288Y-105757710D01*
X146807720Y-105770336D01*
X146798952Y-105782159D01*
X146789066Y-105793066D01*
X146778159Y-105802952D01*
X146766336Y-105811720D01*
X146753710Y-105819288D01*
X146740403Y-105825582D01*
X146726543Y-105830541D01*
X146712264Y-105834118D01*
X146697703Y-105836278D01*
X146683000Y-105837000D01*
X145033000Y-105837000D01*
X145018297Y-105836278D01*
X145003736Y-105834118D01*
X144989457Y-105830541D01*
X144975597Y-105825582D01*
X144962290Y-105819288D01*
X144949664Y-105811720D01*
X144937841Y-105802952D01*
X144926934Y-105793066D01*
X144917048Y-105782159D01*
X144908280Y-105770336D01*
X144900712Y-105757710D01*
X144894418Y-105744403D01*
X144889459Y-105730543D01*
X144885882Y-105716264D01*
X144883722Y-105701703D01*
X144883000Y-105687000D01*
X144883000Y-105387000D01*
X144883722Y-105372297D01*
X144885882Y-105357736D01*
X144889459Y-105343457D01*
X144894418Y-105329597D01*
X144900712Y-105316290D01*
X144908280Y-105303664D01*
X144917048Y-105291841D01*
X144926934Y-105280934D01*
X144937841Y-105271048D01*
X144949664Y-105262280D01*
X144962290Y-105254712D01*
X144975597Y-105248418D01*
X144989457Y-105243459D01*
X145003736Y-105239882D01*
X145018297Y-105237722D01*
X145033000Y-105237000D01*
X146683000Y-105237000D01*
X146697703Y-105237722D01*
X146697703Y-105237722D01*
G37*
D24*
X145858000Y-105537000D03*
D16*
G36*
X146697703Y-103967722D02*
G01*
X146712264Y-103969882D01*
X146726543Y-103973459D01*
X146740403Y-103978418D01*
X146753710Y-103984712D01*
X146766336Y-103992280D01*
X146778159Y-104001048D01*
X146789066Y-104010934D01*
X146798952Y-104021841D01*
X146807720Y-104033664D01*
X146815288Y-104046290D01*
X146821582Y-104059597D01*
X146826541Y-104073457D01*
X146830118Y-104087736D01*
X146832278Y-104102297D01*
X146833000Y-104117000D01*
X146833000Y-104417000D01*
X146832278Y-104431703D01*
X146830118Y-104446264D01*
X146826541Y-104460543D01*
X146821582Y-104474403D01*
X146815288Y-104487710D01*
X146807720Y-104500336D01*
X146798952Y-104512159D01*
X146789066Y-104523066D01*
X146778159Y-104532952D01*
X146766336Y-104541720D01*
X146753710Y-104549288D01*
X146740403Y-104555582D01*
X146726543Y-104560541D01*
X146712264Y-104564118D01*
X146697703Y-104566278D01*
X146683000Y-104567000D01*
X145033000Y-104567000D01*
X145018297Y-104566278D01*
X145003736Y-104564118D01*
X144989457Y-104560541D01*
X144975597Y-104555582D01*
X144962290Y-104549288D01*
X144949664Y-104541720D01*
X144937841Y-104532952D01*
X144926934Y-104523066D01*
X144917048Y-104512159D01*
X144908280Y-104500336D01*
X144900712Y-104487710D01*
X144894418Y-104474403D01*
X144889459Y-104460543D01*
X144885882Y-104446264D01*
X144883722Y-104431703D01*
X144883000Y-104417000D01*
X144883000Y-104117000D01*
X144883722Y-104102297D01*
X144885882Y-104087736D01*
X144889459Y-104073457D01*
X144894418Y-104059597D01*
X144900712Y-104046290D01*
X144908280Y-104033664D01*
X144917048Y-104021841D01*
X144926934Y-104010934D01*
X144937841Y-104001048D01*
X144949664Y-103992280D01*
X144962290Y-103984712D01*
X144975597Y-103978418D01*
X144989457Y-103973459D01*
X145003736Y-103969882D01*
X145018297Y-103967722D01*
X145033000Y-103967000D01*
X146683000Y-103967000D01*
X146697703Y-103967722D01*
X146697703Y-103967722D01*
G37*
D24*
X145858000Y-104267000D03*
D16*
G36*
X146697703Y-102697722D02*
G01*
X146712264Y-102699882D01*
X146726543Y-102703459D01*
X146740403Y-102708418D01*
X146753710Y-102714712D01*
X146766336Y-102722280D01*
X146778159Y-102731048D01*
X146789066Y-102740934D01*
X146798952Y-102751841D01*
X146807720Y-102763664D01*
X146815288Y-102776290D01*
X146821582Y-102789597D01*
X146826541Y-102803457D01*
X146830118Y-102817736D01*
X146832278Y-102832297D01*
X146833000Y-102847000D01*
X146833000Y-103147000D01*
X146832278Y-103161703D01*
X146830118Y-103176264D01*
X146826541Y-103190543D01*
X146821582Y-103204403D01*
X146815288Y-103217710D01*
X146807720Y-103230336D01*
X146798952Y-103242159D01*
X146789066Y-103253066D01*
X146778159Y-103262952D01*
X146766336Y-103271720D01*
X146753710Y-103279288D01*
X146740403Y-103285582D01*
X146726543Y-103290541D01*
X146712264Y-103294118D01*
X146697703Y-103296278D01*
X146683000Y-103297000D01*
X145033000Y-103297000D01*
X145018297Y-103296278D01*
X145003736Y-103294118D01*
X144989457Y-103290541D01*
X144975597Y-103285582D01*
X144962290Y-103279288D01*
X144949664Y-103271720D01*
X144937841Y-103262952D01*
X144926934Y-103253066D01*
X144917048Y-103242159D01*
X144908280Y-103230336D01*
X144900712Y-103217710D01*
X144894418Y-103204403D01*
X144889459Y-103190543D01*
X144885882Y-103176264D01*
X144883722Y-103161703D01*
X144883000Y-103147000D01*
X144883000Y-102847000D01*
X144883722Y-102832297D01*
X144885882Y-102817736D01*
X144889459Y-102803457D01*
X144894418Y-102789597D01*
X144900712Y-102776290D01*
X144908280Y-102763664D01*
X144917048Y-102751841D01*
X144926934Y-102740934D01*
X144937841Y-102731048D01*
X144949664Y-102722280D01*
X144962290Y-102714712D01*
X144975597Y-102708418D01*
X144989457Y-102703459D01*
X145003736Y-102699882D01*
X145018297Y-102697722D01*
X145033000Y-102697000D01*
X146683000Y-102697000D01*
X146697703Y-102697722D01*
X146697703Y-102697722D01*
G37*
D24*
X145858000Y-102997000D03*
D16*
G36*
X146697703Y-101427722D02*
G01*
X146712264Y-101429882D01*
X146726543Y-101433459D01*
X146740403Y-101438418D01*
X146753710Y-101444712D01*
X146766336Y-101452280D01*
X146778159Y-101461048D01*
X146789066Y-101470934D01*
X146798952Y-101481841D01*
X146807720Y-101493664D01*
X146815288Y-101506290D01*
X146821582Y-101519597D01*
X146826541Y-101533457D01*
X146830118Y-101547736D01*
X146832278Y-101562297D01*
X146833000Y-101577000D01*
X146833000Y-101877000D01*
X146832278Y-101891703D01*
X146830118Y-101906264D01*
X146826541Y-101920543D01*
X146821582Y-101934403D01*
X146815288Y-101947710D01*
X146807720Y-101960336D01*
X146798952Y-101972159D01*
X146789066Y-101983066D01*
X146778159Y-101992952D01*
X146766336Y-102001720D01*
X146753710Y-102009288D01*
X146740403Y-102015582D01*
X146726543Y-102020541D01*
X146712264Y-102024118D01*
X146697703Y-102026278D01*
X146683000Y-102027000D01*
X145033000Y-102027000D01*
X145018297Y-102026278D01*
X145003736Y-102024118D01*
X144989457Y-102020541D01*
X144975597Y-102015582D01*
X144962290Y-102009288D01*
X144949664Y-102001720D01*
X144937841Y-101992952D01*
X144926934Y-101983066D01*
X144917048Y-101972159D01*
X144908280Y-101960336D01*
X144900712Y-101947710D01*
X144894418Y-101934403D01*
X144889459Y-101920543D01*
X144885882Y-101906264D01*
X144883722Y-101891703D01*
X144883000Y-101877000D01*
X144883000Y-101577000D01*
X144883722Y-101562297D01*
X144885882Y-101547736D01*
X144889459Y-101533457D01*
X144894418Y-101519597D01*
X144900712Y-101506290D01*
X144908280Y-101493664D01*
X144917048Y-101481841D01*
X144926934Y-101470934D01*
X144937841Y-101461048D01*
X144949664Y-101452280D01*
X144962290Y-101444712D01*
X144975597Y-101438418D01*
X144989457Y-101433459D01*
X145003736Y-101429882D01*
X145018297Y-101427722D01*
X145033000Y-101427000D01*
X146683000Y-101427000D01*
X146697703Y-101427722D01*
X146697703Y-101427722D01*
G37*
D24*
X145858000Y-101727000D03*
D19*
X121920000Y-91694000D03*
X122936000Y-91694000D03*
X124079000Y-91694000D03*
X124968000Y-91694000D03*
X125984000Y-91821000D03*
X127254000Y-91821000D03*
X121285000Y-82423000D03*
X122301000Y-82423000D03*
X123190000Y-82423000D03*
X124206000Y-82423000D03*
X125730000Y-82423000D03*
X126619000Y-82423000D03*
X127635000Y-82423000D03*
X129286000Y-83058000D03*
X129667000Y-84074000D03*
X129794000Y-84963000D03*
X129794000Y-85725000D03*
X129794000Y-88519000D03*
X129667000Y-89662000D03*
X129794000Y-90678000D03*
X128905000Y-91567000D03*
X130683000Y-88519000D03*
X131826000Y-88519000D03*
X132842000Y-88519000D03*
X130429000Y-85725000D03*
X131445000Y-85725000D03*
X132461000Y-85725000D03*
X133858000Y-85725000D03*
X134874000Y-85725000D03*
X136271000Y-85725000D03*
X137287000Y-85725000D03*
X138176000Y-85725000D03*
X139319000Y-85725000D03*
X140716000Y-85725000D03*
X141859000Y-85725000D03*
X142875000Y-85852000D03*
X143891000Y-85725000D03*
X144907000Y-85725000D03*
X146177000Y-85598000D03*
X147320000Y-85471000D03*
X148336000Y-85471000D03*
X150622000Y-85598000D03*
X149352000Y-85598000D03*
X151638000Y-85598000D03*
X153035000Y-85598000D03*
X154305000Y-85598000D03*
X155067000Y-85598000D03*
X155702000Y-85598000D03*
X156845000Y-85598000D03*
X157861000Y-85471000D03*
X157734000Y-84709000D03*
X157861000Y-83947000D03*
X158115000Y-83058000D03*
X159385000Y-82296000D03*
X160528000Y-82296000D03*
X161544000Y-82296000D03*
X162560000Y-82296000D03*
X163957000Y-82169000D03*
X165100000Y-82296000D03*
X157988000Y-88138000D03*
X157734000Y-89408000D03*
X158115000Y-90297000D03*
X158877000Y-91313000D03*
X160020000Y-91567000D03*
X161163000Y-91440000D03*
X162052000Y-91567000D03*
X162941000Y-91567000D03*
X164338000Y-91567000D03*
X165735000Y-91567000D03*
X150114000Y-88392000D03*
X150876000Y-88519000D03*
X151765000Y-88519000D03*
X152781000Y-88646000D03*
X153670000Y-88646000D03*
X154686000Y-88646000D03*
X155829000Y-88646000D03*
X156464000Y-88392000D03*
X157226000Y-88392000D03*
X133858000Y-88519000D03*
X135001000Y-88519000D03*
X136017000Y-88519000D03*
X137160000Y-88392000D03*
X138176000Y-88265000D03*
X139136000Y-87813000D03*
X137668000Y-89154000D03*
X137287000Y-90551000D03*
X137287000Y-91821000D03*
X137414000Y-93472000D03*
X137414000Y-95377000D03*
X137668000Y-97409000D03*
X141859000Y-90551000D03*
X143002000Y-90424000D03*
X144526000Y-90424000D03*
X145542000Y-90551000D03*
X146431000Y-90424000D03*
X147320000Y-90678000D03*
X148209000Y-91186000D03*
X149225000Y-91821000D03*
X149733000Y-92583000D03*
X150495000Y-93472000D03*
X151130000Y-94234000D03*
X152273000Y-95377000D03*
X152908000Y-96139000D03*
X153797000Y-97028000D03*
X154940000Y-97536000D03*
X150622000Y-90043000D03*
X151384000Y-90805000D03*
X152400000Y-91694000D03*
X153416000Y-92456000D03*
X154432000Y-93599000D03*
X155067000Y-94488000D03*
X156083000Y-95377000D03*
X157099000Y-96266000D03*
X134112000Y-100076000D03*
X132207000Y-101346000D03*
X130683000Y-102616000D03*
X129921000Y-104394000D03*
X129540000Y-106045000D03*
X129159000Y-108204000D03*
X130175000Y-109220000D03*
X131953000Y-108839000D03*
X133477000Y-108839000D03*
X134112000Y-110109000D03*
X135001000Y-110871000D03*
X135763000Y-112014000D03*
X135890000Y-114427000D03*
X136398000Y-116078000D03*
X139065000Y-106807000D03*
X139192000Y-109347000D03*
X139192000Y-111760000D03*
X139065000Y-114173000D03*
X140589000Y-106934000D03*
X140589000Y-108839000D03*
X140589000Y-111125000D03*
X140335000Y-113284000D03*
X143764000Y-107696000D03*
X145161000Y-107823000D03*
X145923000Y-107823000D03*
X143510000Y-109601000D03*
X144653000Y-109474000D03*
X146431000Y-109347000D03*
X143675750Y-111290750D03*
X145034000Y-111125000D03*
X146939000Y-111125000D03*
X144907000Y-112903000D03*
X143764000Y-112776000D03*
X146431000Y-112522000D03*
X150241000Y-102616000D03*
X151257000Y-104140000D03*
X152146000Y-105918000D03*
X151892000Y-107950000D03*
X151892000Y-110490000D03*
X151384000Y-112522000D03*
X150495000Y-114046000D03*
X148463000Y-115697000D03*
X147193000Y-116586000D03*
X145923000Y-93472000D03*
X147955000Y-94869000D03*
X148717000Y-95631000D03*
X149225000Y-96901000D03*
X149733000Y-99822000D03*
X149352000Y-98806000D03*
X149479000Y-100838000D03*
X141605000Y-95250000D03*
X142621000Y-95250000D03*
X143637000Y-95250000D03*
X141605000Y-96774000D03*
X142621000Y-96774000D03*
X143764000Y-96774000D03*
X141605000Y-98171000D03*
X142748000Y-98044000D03*
X143764000Y-98171000D03*
X141478000Y-99441000D03*
X142875000Y-99314000D03*
X143764000Y-99441000D03*
X144907000Y-96774000D03*
X145034000Y-98044000D03*
X144907000Y-99314000D03*
X146177000Y-99441000D03*
D25*
X138811000Y-91694000D03*
X140627000Y-93472000D03*
X142240000Y-109855000D03*
X141859000Y-113284000D03*
X147574000Y-101981000D03*
X147574000Y-103783000D03*
D26*
X141106000Y-87813000D02*
X139136000Y-87813000D01*
X137739000Y-87813000D02*
X137160000Y-88392000D01*
D27*
X137414000Y-108662500D02*
X137287000Y-108789500D01*
X137414000Y-106793000D02*
X137414000Y-108662500D01*
X137287000Y-108789500D02*
X137287000Y-108839000D01*
X142915000Y-112051500D02*
X142915000Y-116332000D01*
X147905500Y-107061000D02*
X143675750Y-111290750D01*
D26*
X149535000Y-87813000D02*
X145406000Y-87813000D01*
X160147000Y-89408000D02*
X157734000Y-89408000D01*
X151130000Y-89408000D02*
X150114000Y-88392000D01*
X127254000Y-89662000D02*
X129667000Y-89662000D01*
X128378999Y-90786999D02*
X127254000Y-89662000D01*
X136398000Y-99455000D02*
X136398000Y-98806000D01*
X136398000Y-98806000D02*
X132334000Y-94742000D01*
X132334000Y-94742000D02*
X130429000Y-94742000D01*
X130429000Y-94742000D02*
X128397000Y-92710000D01*
X128397000Y-92710000D02*
X128397000Y-90805000D01*
X128397000Y-90805000D02*
X128378999Y-90786999D01*
D27*
X142915000Y-112051500D02*
X142912500Y-112051500D01*
X142912500Y-112051500D02*
X141097000Y-110236000D01*
X138733500Y-110236000D02*
X137287000Y-108789500D01*
X141097000Y-110236000D02*
X138733500Y-110236000D01*
D26*
X129667000Y-89662000D02*
X135890000Y-89662000D01*
X157734000Y-89408000D02*
X151130000Y-89408000D01*
X150114000Y-88392000D02*
X149535000Y-87813000D01*
X137160000Y-88392000D02*
X135890000Y-89662000D01*
X139136000Y-87813000D02*
X137739000Y-87813000D01*
D27*
X143675750Y-111290750D02*
X142915000Y-112051500D01*
X124714000Y-87122000D02*
X133999000Y-87122000D01*
X154418000Y-86868000D02*
X154164000Y-87122000D01*
X162687000Y-86868000D02*
X154418000Y-86868000D01*
D26*
X139827000Y-90392000D02*
X139827000Y-97282000D01*
X141106000Y-89113000D02*
X139827000Y-90392000D01*
X138190000Y-102997000D02*
X136398000Y-101205000D01*
X140908000Y-102997000D02*
X138190000Y-102997000D01*
X136973000Y-101205000D02*
X136398000Y-101205000D01*
X137104000Y-101205000D02*
X136973000Y-101205000D01*
X139827000Y-98482000D02*
X137104000Y-101205000D01*
X139827000Y-97282000D02*
X139827000Y-98482000D01*
X135156000Y-101205000D02*
X131191000Y-105170000D01*
X136398000Y-101205000D02*
X135156000Y-101205000D01*
X138811000Y-89933000D02*
X138811000Y-91694000D01*
X141106000Y-88463000D02*
X140281000Y-88463000D01*
X140281000Y-88463000D02*
X138811000Y-89933000D01*
X142254000Y-93472000D02*
X142381000Y-93345000D01*
X140627000Y-93472000D02*
X142254000Y-93472000D01*
D27*
X140908000Y-115839000D02*
X140415000Y-116332000D01*
X139006200Y-116332000D02*
X140415000Y-116332000D01*
X137287000Y-114612800D02*
X139006200Y-116332000D01*
X137287000Y-110539500D02*
X137287000Y-114612800D01*
X134366000Y-107618500D02*
X134366000Y-106793000D01*
X137287000Y-110539500D02*
X134366000Y-107618500D01*
X131318000Y-106793000D02*
X131191000Y-106920000D01*
X134366000Y-106793000D02*
X131318000Y-106793000D01*
X141983000Y-105537000D02*
X142367000Y-105921000D01*
X140908000Y-105537000D02*
X141983000Y-105537000D01*
X142367000Y-105921000D02*
X142367000Y-109728000D01*
X142367000Y-109728000D02*
X142240000Y-109855000D01*
X140415000Y-114728000D02*
X140415000Y-116332000D01*
X141859000Y-113284000D02*
X140415000Y-114728000D01*
D26*
X145872000Y-102983000D02*
X145858000Y-102997000D01*
D27*
X149810500Y-106486000D02*
X149810500Y-107061000D01*
X149810500Y-104717986D02*
X149810500Y-106486000D01*
X147996113Y-102903599D02*
X149810500Y-104717986D01*
X147026401Y-102903599D02*
X147996113Y-102903599D01*
X146933000Y-102997000D02*
X147026401Y-102903599D01*
X145858000Y-102997000D02*
X146933000Y-102997000D01*
X149655500Y-112091500D02*
X145415000Y-116332000D01*
X149655500Y-107061000D02*
X149655500Y-112091500D01*
D26*
X138190000Y-104267000D02*
X137414000Y-105043000D01*
X140908000Y-104267000D02*
X138190000Y-104267000D01*
X137414000Y-105043000D02*
X134366000Y-105043000D01*
X156527500Y-97492500D02*
X156527500Y-98742500D01*
X147547990Y-88512990D02*
X156527500Y-97492500D01*
X145599490Y-88512990D02*
X147547990Y-88512990D01*
X145549500Y-88463000D02*
X145599490Y-88512990D01*
X145406000Y-88463000D02*
X145549500Y-88463000D01*
X144131000Y-93966000D02*
X147447000Y-97282000D01*
X144131000Y-93345000D02*
X144131000Y-93966000D01*
X147447000Y-97282000D02*
X147447000Y-101854000D01*
X147447000Y-101854000D02*
X147574000Y-101981000D01*
X147574000Y-103783000D02*
X147090000Y-104267000D01*
X147090000Y-104267000D02*
X145858000Y-104267000D01*
D27*
X141094410Y-87122000D02*
X141106000Y-87133590D01*
X135749000Y-87122000D02*
X141094410Y-87122000D01*
X151789000Y-87122000D02*
X151662000Y-86995000D01*
X152414000Y-87122000D02*
X151789000Y-87122000D01*
X151662000Y-86995000D02*
X145415000Y-86995000D01*
X145415000Y-87133590D02*
X145406000Y-87133590D01*
X145415000Y-86995000D02*
X145415000Y-87133590D01*
D28*
G36*
X167742000Y-122657000D02*
G01*
X119913000Y-122657000D01*
X119913000Y-118401758D01*
X120086000Y-118401758D01*
X120086000Y-119088242D01*
X120219927Y-119761537D01*
X120482633Y-120395766D01*
X120864024Y-120966558D01*
X121349442Y-121451976D01*
X121920234Y-121833367D01*
X122554463Y-122096073D01*
X123227758Y-122230000D01*
X123914242Y-122230000D01*
X124587537Y-122096073D01*
X125221766Y-121833367D01*
X125792558Y-121451976D01*
X126277976Y-120966558D01*
X126659367Y-120395766D01*
X126922073Y-119761537D01*
X127056000Y-119088242D01*
X127056000Y-118655758D01*
X160345000Y-118655758D01*
X160345000Y-119342242D01*
X160478927Y-120015537D01*
X160741633Y-120649766D01*
X161123024Y-121220558D01*
X161608442Y-121705976D01*
X162179234Y-122087367D01*
X162813463Y-122350073D01*
X163486758Y-122484000D01*
X164173242Y-122484000D01*
X164846537Y-122350073D01*
X165480766Y-122087367D01*
X166051558Y-121705976D01*
X166536976Y-121220558D01*
X166918367Y-120649766D01*
X167181073Y-120015537D01*
X167315000Y-119342242D01*
X167315000Y-118655758D01*
X167181073Y-117982463D01*
X166918367Y-117348234D01*
X166536976Y-116777442D01*
X166051558Y-116292024D01*
X165480766Y-115910633D01*
X164846537Y-115647927D01*
X164173242Y-115514000D01*
X163486758Y-115514000D01*
X162813463Y-115647927D01*
X162179234Y-115910633D01*
X161608442Y-116292024D01*
X161123024Y-116777442D01*
X160741633Y-117348234D01*
X160478927Y-117982463D01*
X160345000Y-118655758D01*
X127056000Y-118655758D01*
X127056000Y-118401758D01*
X126922073Y-117728463D01*
X126659367Y-117094234D01*
X126277976Y-116523442D01*
X125792558Y-116038024D01*
X125221766Y-115656633D01*
X124587537Y-115393927D01*
X123914242Y-115260000D01*
X123227758Y-115260000D01*
X122554463Y-115393927D01*
X121920234Y-115656633D01*
X121349442Y-116038024D01*
X120864024Y-116523442D01*
X120482633Y-117094234D01*
X120219927Y-117728463D01*
X120086000Y-118401758D01*
X119913000Y-118401758D01*
X119913000Y-98930000D01*
X135284928Y-98930000D01*
X135288000Y-99169250D01*
X135446750Y-99328000D01*
X136271000Y-99328000D01*
X136271000Y-98453750D01*
X136525000Y-98453750D01*
X136525000Y-99328000D01*
X137349250Y-99328000D01*
X137508000Y-99169250D01*
X137511072Y-98930000D01*
X137498812Y-98805518D01*
X137462502Y-98685820D01*
X137403537Y-98575506D01*
X137324185Y-98478815D01*
X137227494Y-98399463D01*
X137117180Y-98340498D01*
X136997482Y-98304188D01*
X136873000Y-98291928D01*
X136683750Y-98295000D01*
X136525000Y-98453750D01*
X136271000Y-98453750D01*
X136112250Y-98295000D01*
X135923000Y-98291928D01*
X135798518Y-98304188D01*
X135678820Y-98340498D01*
X135568506Y-98399463D01*
X135471815Y-98478815D01*
X135392463Y-98575506D01*
X135333498Y-98685820D01*
X135297188Y-98805518D01*
X135284928Y-98930000D01*
X119913000Y-98930000D01*
X119913000Y-90886531D01*
X121129074Y-90886531D01*
X121239921Y-91163714D01*
X121550840Y-91317089D01*
X121885705Y-91406860D01*
X122231650Y-91429576D01*
X122575380Y-91384366D01*
X122903685Y-91272966D01*
X123108079Y-91163714D01*
X123218926Y-90886531D01*
X126209074Y-90886531D01*
X126319921Y-91163714D01*
X126630840Y-91317089D01*
X126965705Y-91406860D01*
X127311650Y-91429576D01*
X127655380Y-91384366D01*
X127983685Y-91272966D01*
X128188079Y-91163714D01*
X128298926Y-90886531D01*
X127254000Y-89841605D01*
X126209074Y-90886531D01*
X123218926Y-90886531D01*
X122174000Y-89841605D01*
X121129074Y-90886531D01*
X119913000Y-90886531D01*
X119913000Y-89719650D01*
X120406424Y-89719650D01*
X120451634Y-90063380D01*
X120563034Y-90391685D01*
X120672286Y-90596079D01*
X120949469Y-90706926D01*
X121994395Y-89662000D01*
X122353605Y-89662000D01*
X123398531Y-90706926D01*
X123675714Y-90596079D01*
X123829089Y-90285160D01*
X123918860Y-89950295D01*
X123934004Y-89719650D01*
X125486424Y-89719650D01*
X125531634Y-90063380D01*
X125643034Y-90391685D01*
X125752286Y-90596079D01*
X126029469Y-90706926D01*
X127074395Y-89662000D01*
X127433605Y-89662000D01*
X128478531Y-90706926D01*
X128755714Y-90596079D01*
X128909089Y-90285160D01*
X128998860Y-89950295D01*
X129021576Y-89604350D01*
X128976366Y-89260620D01*
X128864966Y-88932315D01*
X128755714Y-88727921D01*
X128478531Y-88617074D01*
X127433605Y-89662000D01*
X127074395Y-89662000D01*
X126029469Y-88617074D01*
X125752286Y-88727921D01*
X125598911Y-89038840D01*
X125509140Y-89373705D01*
X125486424Y-89719650D01*
X123934004Y-89719650D01*
X123941576Y-89604350D01*
X123896366Y-89260620D01*
X123784966Y-88932315D01*
X123675714Y-88727921D01*
X123398531Y-88617074D01*
X122353605Y-89662000D01*
X121994395Y-89662000D01*
X120949469Y-88617074D01*
X120672286Y-88727921D01*
X120518911Y-89038840D01*
X120429140Y-89373705D01*
X120406424Y-89719650D01*
X119913000Y-89719650D01*
X119913000Y-88437469D01*
X121129074Y-88437469D01*
X122174000Y-89482395D01*
X123218926Y-88437469D01*
X123108079Y-88160286D01*
X122797160Y-88006911D01*
X122462295Y-87917140D01*
X122116350Y-87894424D01*
X121772620Y-87939634D01*
X121444315Y-88051034D01*
X121239921Y-88160286D01*
X121129074Y-88437469D01*
X119913000Y-88437469D01*
X119913000Y-86958504D01*
X123054000Y-86958504D01*
X123054000Y-87285496D01*
X123117793Y-87606204D01*
X123242927Y-87908305D01*
X123424594Y-88180188D01*
X123655812Y-88411406D01*
X123927695Y-88593073D01*
X124229796Y-88718207D01*
X124550504Y-88782000D01*
X124877496Y-88782000D01*
X125198204Y-88718207D01*
X125500305Y-88593073D01*
X125772188Y-88411406D01*
X126003406Y-88180188D01*
X126099482Y-88036400D01*
X126567443Y-88036400D01*
X126524315Y-88051034D01*
X126319921Y-88160286D01*
X126209074Y-88437469D01*
X127254000Y-89482395D01*
X128298926Y-88437469D01*
X128188079Y-88160286D01*
X127936940Y-88036400D01*
X133162778Y-88036400D01*
X133225058Y-88087512D01*
X133376433Y-88168423D01*
X133540684Y-88218248D01*
X133711500Y-88235072D01*
X134286500Y-88235072D01*
X134457316Y-88218248D01*
X134621567Y-88168423D01*
X134772942Y-88087512D01*
X134874000Y-88004575D01*
X134975058Y-88087512D01*
X135126433Y-88168423D01*
X135290684Y-88218248D01*
X135461500Y-88235072D01*
X136036500Y-88235072D01*
X136207316Y-88218248D01*
X136371567Y-88168423D01*
X136522942Y-88087512D01*
X136585222Y-88036400D01*
X139526731Y-88036400D01*
X138249578Y-89313554D01*
X138217709Y-89339709D01*
X138140256Y-89434087D01*
X138113364Y-89466855D01*
X138035828Y-89611914D01*
X137988082Y-89769312D01*
X137971960Y-89933000D01*
X137976000Y-89974019D01*
X137976001Y-91080714D01*
X137893795Y-91203744D01*
X137815774Y-91392102D01*
X137776000Y-91592061D01*
X137776000Y-91795939D01*
X137815774Y-91995898D01*
X137893795Y-92184256D01*
X138007063Y-92353774D01*
X138151226Y-92497937D01*
X138320744Y-92611205D01*
X138509102Y-92689226D01*
X138709061Y-92729000D01*
X138912939Y-92729000D01*
X138992000Y-92713274D01*
X138992001Y-95847375D01*
X138902518Y-95856188D01*
X138782820Y-95892498D01*
X138672506Y-95951463D01*
X138575815Y-96030815D01*
X138496463Y-96127506D01*
X138437498Y-96237820D01*
X138401188Y-96357518D01*
X138388928Y-96482000D01*
X138388928Y-98082000D01*
X138401188Y-98206482D01*
X138437498Y-98326180D01*
X138496463Y-98436494D01*
X138575815Y-98533185D01*
X138586323Y-98541809D01*
X137447691Y-99680441D01*
X137349250Y-99582000D01*
X136525000Y-99582000D01*
X136525000Y-99602000D01*
X136271000Y-99602000D01*
X136271000Y-99582000D01*
X135446750Y-99582000D01*
X135288000Y-99740750D01*
X135284928Y-99980000D01*
X135297188Y-100104482D01*
X135333498Y-100224180D01*
X135392463Y-100334494D01*
X135421602Y-100370000D01*
X135197018Y-100370000D01*
X135156000Y-100365960D01*
X135114982Y-100370000D01*
X135114981Y-100370000D01*
X134992311Y-100382082D01*
X134834913Y-100429828D01*
X134689854Y-100507364D01*
X134562709Y-100611709D01*
X134536563Y-100643568D01*
X131173205Y-104006928D01*
X130953500Y-104006928D01*
X130782684Y-104023752D01*
X130618433Y-104073577D01*
X130467058Y-104154488D01*
X130334377Y-104263377D01*
X130225488Y-104396058D01*
X130144577Y-104547433D01*
X130094752Y-104711684D01*
X130077928Y-104882500D01*
X130077928Y-105457500D01*
X130094752Y-105628316D01*
X130144577Y-105792567D01*
X130225488Y-105943942D01*
X130308425Y-106045000D01*
X130225488Y-106146058D01*
X130144577Y-106297433D01*
X130094752Y-106461684D01*
X130077928Y-106632500D01*
X130077928Y-107207500D01*
X130094752Y-107378316D01*
X130144577Y-107542567D01*
X130225488Y-107693942D01*
X130334377Y-107826623D01*
X130467058Y-107935512D01*
X130618433Y-108016423D01*
X130782684Y-108066248D01*
X130953500Y-108083072D01*
X131428500Y-108083072D01*
X131599316Y-108066248D01*
X131763567Y-108016423D01*
X131914942Y-107935512D01*
X132047623Y-107826623D01*
X132145467Y-107707400D01*
X133455932Y-107707400D01*
X133464831Y-107797753D01*
X133517117Y-107970118D01*
X133602026Y-108128970D01*
X133716293Y-108268207D01*
X133751190Y-108296846D01*
X136173928Y-110719585D01*
X136173928Y-110827000D01*
X136190752Y-110997816D01*
X136240577Y-111162067D01*
X136321488Y-111313442D01*
X136372600Y-111375722D01*
X136372601Y-114567875D01*
X136368176Y-114612800D01*
X136385832Y-114792053D01*
X136438117Y-114964418D01*
X136517865Y-115113614D01*
X136523027Y-115123271D01*
X136637294Y-115262507D01*
X136672185Y-115291141D01*
X138327859Y-116946816D01*
X138356493Y-116981707D01*
X138495729Y-117095974D01*
X138654581Y-117180883D01*
X138826946Y-117233169D01*
X138961282Y-117246400D01*
X138961285Y-117246400D01*
X139006200Y-117250824D01*
X139051115Y-117246400D01*
X139153120Y-117246400D01*
X139174294Y-117286013D01*
X139359866Y-117512134D01*
X139585986Y-117697706D01*
X139843966Y-117835599D01*
X140123889Y-117920513D01*
X140415000Y-117949185D01*
X140706110Y-117920513D01*
X140986033Y-117835599D01*
X141244013Y-117697706D01*
X141470134Y-117512134D01*
X141655706Y-117286014D01*
X141669462Y-117260278D01*
X141825951Y-117466429D01*
X142043807Y-117659496D01*
X142295142Y-117806352D01*
X142558110Y-117898476D01*
X142788000Y-117777155D01*
X142788000Y-116459000D01*
X142768000Y-116459000D01*
X142768000Y-116205000D01*
X142788000Y-116205000D01*
X142788000Y-114886845D01*
X142558110Y-114765524D01*
X142295142Y-114857648D01*
X142043807Y-115004504D01*
X141825951Y-115197571D01*
X141694520Y-115370711D01*
X141671974Y-115328530D01*
X141557706Y-115189294D01*
X141418470Y-115075026D01*
X141381103Y-115055053D01*
X142155945Y-114280211D01*
X142160898Y-114279226D01*
X142349256Y-114201205D01*
X142518774Y-114087937D01*
X142662937Y-113943774D01*
X142776205Y-113774256D01*
X142854226Y-113585898D01*
X142894000Y-113385939D01*
X142894000Y-113182061D01*
X142854226Y-112982102D01*
X142776205Y-112793744D01*
X142662937Y-112624226D01*
X142518774Y-112480063D01*
X142349256Y-112366795D01*
X142160898Y-112288774D01*
X141960939Y-112249000D01*
X141757061Y-112249000D01*
X141557102Y-112288774D01*
X141368744Y-112366795D01*
X141199226Y-112480063D01*
X141055063Y-112624226D01*
X140941795Y-112793744D01*
X140863774Y-112982102D01*
X140862789Y-112987055D01*
X139800190Y-114049654D01*
X139765293Y-114078293D01*
X139651026Y-114217530D01*
X139566117Y-114376382D01*
X139513831Y-114548747D01*
X139500600Y-114683082D01*
X139496176Y-114728000D01*
X139500600Y-114772915D01*
X139500600Y-115036369D01*
X139359866Y-115151866D01*
X139251395Y-115284038D01*
X138201400Y-114234044D01*
X138201400Y-111375722D01*
X138252512Y-111313442D01*
X138333423Y-111162067D01*
X138383248Y-110997816D01*
X138400072Y-110827000D01*
X138400072Y-110252000D01*
X138383248Y-110081184D01*
X138333423Y-109916933D01*
X138252512Y-109765558D01*
X138232901Y-109741661D01*
X138292537Y-109668994D01*
X138351502Y-109558680D01*
X138387812Y-109438982D01*
X138400072Y-109314500D01*
X138397000Y-109075250D01*
X138238250Y-108916500D01*
X137414000Y-108916500D01*
X137414000Y-108936500D01*
X137160000Y-108936500D01*
X137160000Y-108916500D01*
X137140000Y-108916500D01*
X137140000Y-108662500D01*
X137160000Y-108662500D01*
X137160000Y-107921250D01*
X137287000Y-107794250D01*
X137287000Y-107788250D01*
X137414000Y-107788250D01*
X137414000Y-108662500D01*
X138238250Y-108662500D01*
X138397000Y-108503750D01*
X138400072Y-108264500D01*
X138387812Y-108140018D01*
X138351502Y-108020320D01*
X138292537Y-107910006D01*
X138242519Y-107849058D01*
X138243494Y-107848537D01*
X138340185Y-107769185D01*
X138419537Y-107672494D01*
X138478502Y-107562180D01*
X138514812Y-107442482D01*
X138527072Y-107318000D01*
X138524000Y-107078750D01*
X138365250Y-106920000D01*
X137541000Y-106920000D01*
X137541000Y-107661250D01*
X137414000Y-107788250D01*
X137287000Y-107788250D01*
X137287000Y-106920000D01*
X136462750Y-106920000D01*
X136304000Y-107078750D01*
X136300928Y-107318000D01*
X136313188Y-107442482D01*
X136349498Y-107562180D01*
X136408463Y-107672494D01*
X136458481Y-107733442D01*
X136457506Y-107733963D01*
X136360815Y-107813315D01*
X136281463Y-107910006D01*
X136222498Y-108020320D01*
X136186188Y-108140018D01*
X136185694Y-108145037D01*
X135422617Y-107381961D01*
X135462248Y-107251316D01*
X135479072Y-107080500D01*
X135479072Y-106505500D01*
X135462248Y-106334684D01*
X135412423Y-106170433D01*
X135331512Y-106019058D01*
X135248575Y-105918000D01*
X135281403Y-105878000D01*
X136437602Y-105878000D01*
X136408463Y-105913506D01*
X136349498Y-106023820D01*
X136313188Y-106143518D01*
X136300928Y-106268000D01*
X136304000Y-106507250D01*
X136462750Y-106666000D01*
X137287000Y-106666000D01*
X137287000Y-106646000D01*
X137541000Y-106646000D01*
X137541000Y-106666000D01*
X138365250Y-106666000D01*
X138524000Y-106507250D01*
X138527072Y-106268000D01*
X138514812Y-106143518D01*
X138478502Y-106023820D01*
X138419537Y-105913506D01*
X138359901Y-105840839D01*
X138379512Y-105816942D01*
X138460423Y-105665567D01*
X138510248Y-105501316D01*
X138527072Y-105330500D01*
X138527072Y-105110796D01*
X138535868Y-105102000D01*
X139349886Y-105102000D01*
X139310071Y-105233255D01*
X139294928Y-105387000D01*
X139294928Y-105687000D01*
X139310071Y-105840745D01*
X139354916Y-105988582D01*
X139427742Y-106124829D01*
X139525749Y-106244251D01*
X139645171Y-106342258D01*
X139781418Y-106415084D01*
X139929255Y-106459929D01*
X140083000Y-106475072D01*
X141452600Y-106475072D01*
X141452601Y-109178688D01*
X141436063Y-109195226D01*
X141322795Y-109364744D01*
X141244774Y-109553102D01*
X141205000Y-109753061D01*
X141205000Y-109956939D01*
X141244774Y-110156898D01*
X141322795Y-110345256D01*
X141436063Y-110514774D01*
X141580226Y-110658937D01*
X141749744Y-110772205D01*
X141938102Y-110850226D01*
X142138061Y-110890000D01*
X142341939Y-110890000D01*
X142541898Y-110850226D01*
X142730256Y-110772205D01*
X142899774Y-110658937D01*
X143043937Y-110514774D01*
X143157205Y-110345256D01*
X143235226Y-110156898D01*
X143275000Y-109956939D01*
X143275000Y-109837898D01*
X143281400Y-109772918D01*
X143281400Y-109772916D01*
X143285824Y-109728001D01*
X143281400Y-109683086D01*
X143281400Y-107536000D01*
X146742428Y-107536000D01*
X146754688Y-107660482D01*
X146790998Y-107780180D01*
X146849963Y-107890494D01*
X146929315Y-107987185D01*
X147026006Y-108066537D01*
X147136320Y-108125502D01*
X147256018Y-108161812D01*
X147380500Y-108174072D01*
X147619750Y-108171000D01*
X147778500Y-108012250D01*
X147778500Y-107188000D01*
X146904250Y-107188000D01*
X146745500Y-107346750D01*
X146742428Y-107536000D01*
X143281400Y-107536000D01*
X143281400Y-105965914D01*
X143285824Y-105920999D01*
X143280399Y-105865918D01*
X143268169Y-105741746D01*
X143234266Y-105629984D01*
X143256000Y-105608250D01*
X143256000Y-105071166D01*
X143321740Y-105087183D01*
X143510000Y-105095213D01*
X143510000Y-105608250D01*
X143668750Y-105767000D01*
X144253013Y-105769089D01*
X144260071Y-105840745D01*
X144304916Y-105988582D01*
X144377742Y-106124829D01*
X144475749Y-106244251D01*
X144595171Y-106342258D01*
X144731418Y-106415084D01*
X144879255Y-106459929D01*
X145033000Y-106475072D01*
X146683000Y-106475072D01*
X146754042Y-106468075D01*
X146742428Y-106586000D01*
X146745500Y-106775250D01*
X146904250Y-106934000D01*
X147778500Y-106934000D01*
X147778500Y-106109750D01*
X147619750Y-105951000D01*
X147423250Y-105948477D01*
X147455929Y-105840745D01*
X147471072Y-105687000D01*
X147471072Y-105387000D01*
X147455929Y-105233255D01*
X147411084Y-105085418D01*
X147391194Y-105048206D01*
X147411087Y-105042172D01*
X147556146Y-104964636D01*
X147683291Y-104860291D01*
X147709446Y-104828421D01*
X147730774Y-104807093D01*
X147875898Y-104778226D01*
X148064256Y-104700205D01*
X148233774Y-104586937D01*
X148310034Y-104510677D01*
X148896100Y-105096743D01*
X148896101Y-106087715D01*
X148881558Y-106095488D01*
X148857661Y-106115099D01*
X148784994Y-106055463D01*
X148674680Y-105996498D01*
X148554982Y-105960188D01*
X148430500Y-105947928D01*
X148191250Y-105951000D01*
X148032500Y-106109750D01*
X148032500Y-106934000D01*
X148052500Y-106934000D01*
X148052500Y-107188000D01*
X148032500Y-107188000D01*
X148032500Y-108012250D01*
X148191250Y-108171000D01*
X148430500Y-108174072D01*
X148554982Y-108161812D01*
X148674680Y-108125502D01*
X148741100Y-108089999D01*
X148741101Y-111712742D01*
X145734916Y-114718928D01*
X144815000Y-114718928D01*
X144641746Y-114735992D01*
X144475150Y-114786528D01*
X144321614Y-114868595D01*
X144187038Y-114979038D01*
X144076595Y-115113614D01*
X144020286Y-115218961D01*
X144004049Y-115197571D01*
X143786193Y-115004504D01*
X143534858Y-114857648D01*
X143271890Y-114765524D01*
X143042000Y-114886845D01*
X143042000Y-116205000D01*
X143062000Y-116205000D01*
X143062000Y-116459000D01*
X143042000Y-116459000D01*
X143042000Y-117777155D01*
X143271890Y-117898476D01*
X143534858Y-117806352D01*
X143786193Y-117659496D01*
X144004049Y-117466429D01*
X144020286Y-117445039D01*
X144076595Y-117550386D01*
X144187038Y-117684962D01*
X144321614Y-117795405D01*
X144475150Y-117877472D01*
X144641746Y-117928008D01*
X144815000Y-117945072D01*
X146015000Y-117945072D01*
X146188254Y-117928008D01*
X146354850Y-117877472D01*
X146508386Y-117795405D01*
X146642962Y-117684962D01*
X146753405Y-117550386D01*
X146835472Y-117396850D01*
X146886008Y-117230254D01*
X146903072Y-117057000D01*
X146903072Y-116137084D01*
X150270316Y-112769841D01*
X150305207Y-112741207D01*
X150419474Y-112601971D01*
X150504383Y-112443119D01*
X150556669Y-112270754D01*
X150569900Y-112136418D01*
X150569900Y-112136415D01*
X150574324Y-112091500D01*
X150569900Y-112046585D01*
X150569900Y-107908147D01*
X150671012Y-107784942D01*
X150751923Y-107633567D01*
X150801748Y-107469316D01*
X150818572Y-107298500D01*
X150818572Y-106823500D01*
X150801748Y-106652684D01*
X150751923Y-106488433D01*
X150724900Y-106437876D01*
X150724900Y-104762901D01*
X150729324Y-104717986D01*
X150723506Y-104658916D01*
X150711669Y-104538732D01*
X150659383Y-104366367D01*
X150574474Y-104207515D01*
X150460207Y-104068279D01*
X150425317Y-104039646D01*
X148674459Y-102288789D01*
X148645820Y-102253892D01*
X148584935Y-102203925D01*
X148609000Y-102082939D01*
X148609000Y-101879061D01*
X148569226Y-101679102D01*
X148491205Y-101490744D01*
X148377937Y-101321226D01*
X148282000Y-101225289D01*
X148282000Y-98453112D01*
X148466608Y-98301608D01*
X148645932Y-98083101D01*
X148779182Y-97833808D01*
X148861236Y-97563309D01*
X148888943Y-97282000D01*
X148861236Y-97000691D01*
X148779182Y-96730192D01*
X148645932Y-96480899D01*
X148466608Y-96262392D01*
X148248101Y-96083068D01*
X147998808Y-95949818D01*
X147728309Y-95867764D01*
X147517492Y-95847000D01*
X147376508Y-95847000D01*
X147209333Y-95863466D01*
X145235804Y-93889937D01*
X145277248Y-93753316D01*
X145294072Y-93582500D01*
X145294072Y-93107500D01*
X145277248Y-92936684D01*
X145227423Y-92772433D01*
X145146512Y-92621058D01*
X145037623Y-92488377D01*
X144904942Y-92379488D01*
X144753567Y-92298577D01*
X144589316Y-92248752D01*
X144418500Y-92231928D01*
X143843500Y-92231928D01*
X143672684Y-92248752D01*
X143508433Y-92298577D01*
X143357058Y-92379488D01*
X143256000Y-92462425D01*
X143154942Y-92379488D01*
X143003567Y-92298577D01*
X142839316Y-92248752D01*
X142668500Y-92231928D01*
X142093500Y-92231928D01*
X141922684Y-92248752D01*
X141758433Y-92298577D01*
X141607058Y-92379488D01*
X141474377Y-92488377D01*
X141365488Y-92621058D01*
X141356967Y-92637000D01*
X141240285Y-92637000D01*
X141117256Y-92554795D01*
X140928898Y-92476774D01*
X140728939Y-92437000D01*
X140662000Y-92437000D01*
X140662000Y-90737867D01*
X141448796Y-89951072D01*
X141731000Y-89951072D01*
X141874991Y-89936890D01*
X142013448Y-89894890D01*
X142132176Y-89831428D01*
X142156518Y-89838812D01*
X142281000Y-89851072D01*
X142970250Y-89848000D01*
X143129000Y-89689250D01*
X143129000Y-89595796D01*
X143330473Y-89604390D01*
X143383000Y-89596251D01*
X143383000Y-89689250D01*
X143541750Y-89848000D01*
X144231000Y-89851072D01*
X144355482Y-89838812D01*
X144379824Y-89831428D01*
X144498552Y-89894890D01*
X144637009Y-89936890D01*
X144781000Y-89951072D01*
X146031000Y-89951072D01*
X146174991Y-89936890D01*
X146313448Y-89894890D01*
X146441051Y-89826684D01*
X146552896Y-89734896D01*
X146644684Y-89623051D01*
X146712890Y-89495448D01*
X146754890Y-89356991D01*
X146755777Y-89347990D01*
X147202123Y-89347990D01*
X155264285Y-97410154D01*
X155226315Y-97441315D01*
X155146963Y-97538006D01*
X155087998Y-97648320D01*
X155051688Y-97768018D01*
X155039428Y-97892500D01*
X155039428Y-99592500D01*
X155051688Y-99716982D01*
X155087998Y-99836680D01*
X155146963Y-99946994D01*
X155226315Y-100043685D01*
X155323006Y-100123037D01*
X155433320Y-100182002D01*
X155553018Y-100218312D01*
X155677500Y-100230572D01*
X157377500Y-100230572D01*
X157501982Y-100218312D01*
X157621680Y-100182002D01*
X157731994Y-100123037D01*
X157828685Y-100043685D01*
X157908037Y-99946994D01*
X157967002Y-99836680D01*
X158003312Y-99716982D01*
X158015572Y-99592500D01*
X158015572Y-97892500D01*
X158003312Y-97768018D01*
X157967002Y-97648320D01*
X157908037Y-97538006D01*
X157828685Y-97441315D01*
X157731994Y-97361963D01*
X157621680Y-97302998D01*
X157501982Y-97266688D01*
X157377500Y-97254428D01*
X157327854Y-97254428D01*
X157302672Y-97171413D01*
X157225136Y-97026354D01*
X157146939Y-96931070D01*
X157146937Y-96931068D01*
X157120791Y-96899209D01*
X157088933Y-96873064D01*
X150848400Y-90632531D01*
X159102074Y-90632531D01*
X159212921Y-90909714D01*
X159523840Y-91063089D01*
X159858705Y-91152860D01*
X160204650Y-91175576D01*
X160548380Y-91130366D01*
X160876685Y-91018966D01*
X161081079Y-90909714D01*
X161191926Y-90632531D01*
X164182074Y-90632531D01*
X164292921Y-90909714D01*
X164603840Y-91063089D01*
X164938705Y-91152860D01*
X165284650Y-91175576D01*
X165628380Y-91130366D01*
X165956685Y-91018966D01*
X166161079Y-90909714D01*
X166271926Y-90632531D01*
X165227000Y-89587605D01*
X164182074Y-90632531D01*
X161191926Y-90632531D01*
X160147000Y-89587605D01*
X159102074Y-90632531D01*
X150848400Y-90632531D01*
X149681518Y-89465650D01*
X158379424Y-89465650D01*
X158424634Y-89809380D01*
X158536034Y-90137685D01*
X158645286Y-90342079D01*
X158922469Y-90452926D01*
X159967395Y-89408000D01*
X160326605Y-89408000D01*
X161371531Y-90452926D01*
X161648714Y-90342079D01*
X161802089Y-90031160D01*
X161891860Y-89696295D01*
X161907004Y-89465650D01*
X163459424Y-89465650D01*
X163504634Y-89809380D01*
X163616034Y-90137685D01*
X163725286Y-90342079D01*
X164002469Y-90452926D01*
X165047395Y-89408000D01*
X165406605Y-89408000D01*
X166451531Y-90452926D01*
X166728714Y-90342079D01*
X166882089Y-90031160D01*
X166971860Y-89696295D01*
X166994576Y-89350350D01*
X166949366Y-89006620D01*
X166837966Y-88678315D01*
X166728714Y-88473921D01*
X166451531Y-88363074D01*
X165406605Y-89408000D01*
X165047395Y-89408000D01*
X164002469Y-88363074D01*
X163725286Y-88473921D01*
X163571911Y-88784840D01*
X163482140Y-89119705D01*
X163459424Y-89465650D01*
X161907004Y-89465650D01*
X161914576Y-89350350D01*
X161869366Y-89006620D01*
X161757966Y-88678315D01*
X161648714Y-88473921D01*
X161371531Y-88363074D01*
X160326605Y-89408000D01*
X159967395Y-89408000D01*
X158922469Y-88363074D01*
X158645286Y-88473921D01*
X158491911Y-88784840D01*
X158402140Y-89119705D01*
X158379424Y-89465650D01*
X149681518Y-89465650D01*
X148167436Y-87951569D01*
X148141281Y-87919699D01*
X148128732Y-87909400D01*
X151322356Y-87909400D01*
X151437381Y-87970883D01*
X151533458Y-88000028D01*
X151640058Y-88087512D01*
X151791433Y-88168423D01*
X151955684Y-88218248D01*
X152126500Y-88235072D01*
X152701500Y-88235072D01*
X152872316Y-88218248D01*
X153036567Y-88168423D01*
X153187942Y-88087512D01*
X153289000Y-88004575D01*
X153390058Y-88087512D01*
X153541433Y-88168423D01*
X153705684Y-88218248D01*
X153876500Y-88235072D01*
X154451500Y-88235072D01*
X154622316Y-88218248D01*
X154786567Y-88168423D01*
X154937942Y-88087512D01*
X155070623Y-87978623D01*
X155179512Y-87845942D01*
X155213476Y-87782400D01*
X159460443Y-87782400D01*
X159417315Y-87797034D01*
X159212921Y-87906286D01*
X159102074Y-88183469D01*
X160147000Y-89228395D01*
X161191926Y-88183469D01*
X161081079Y-87906286D01*
X160829940Y-87782400D01*
X161301518Y-87782400D01*
X161397594Y-87926188D01*
X161628812Y-88157406D01*
X161900695Y-88339073D01*
X162202796Y-88464207D01*
X162523504Y-88528000D01*
X162850496Y-88528000D01*
X163171204Y-88464207D01*
X163473305Y-88339073D01*
X163706182Y-88183469D01*
X164182074Y-88183469D01*
X165227000Y-89228395D01*
X166271926Y-88183469D01*
X166161079Y-87906286D01*
X165850160Y-87752911D01*
X165515295Y-87663140D01*
X165169350Y-87640424D01*
X164825620Y-87685634D01*
X164497315Y-87797034D01*
X164292921Y-87906286D01*
X164182074Y-88183469D01*
X163706182Y-88183469D01*
X163745188Y-88157406D01*
X163976406Y-87926188D01*
X164158073Y-87654305D01*
X164283207Y-87352204D01*
X164347000Y-87031496D01*
X164347000Y-86704504D01*
X164283207Y-86383796D01*
X164158073Y-86081695D01*
X163976406Y-85809812D01*
X163745188Y-85578594D01*
X163706183Y-85552531D01*
X164182074Y-85552531D01*
X164292921Y-85829714D01*
X164603840Y-85983089D01*
X164938705Y-86072860D01*
X165284650Y-86095576D01*
X165628380Y-86050366D01*
X165956685Y-85938966D01*
X166161079Y-85829714D01*
X166271926Y-85552531D01*
X165227000Y-84507605D01*
X164182074Y-85552531D01*
X163706183Y-85552531D01*
X163473305Y-85396927D01*
X163171204Y-85271793D01*
X162850496Y-85208000D01*
X162523504Y-85208000D01*
X162202796Y-85271793D01*
X161900695Y-85396927D01*
X161628812Y-85578594D01*
X161397594Y-85809812D01*
X161301518Y-85953600D01*
X160833557Y-85953600D01*
X160876685Y-85938966D01*
X161081079Y-85829714D01*
X161191926Y-85552531D01*
X160147000Y-84507605D01*
X159102074Y-85552531D01*
X159212921Y-85829714D01*
X159464060Y-85953600D01*
X154462914Y-85953600D01*
X154417999Y-85949176D01*
X154373084Y-85953600D01*
X154373082Y-85953600D01*
X154238746Y-85966831D01*
X154099970Y-86008928D01*
X153876500Y-86008928D01*
X153705684Y-86025752D01*
X153541433Y-86075577D01*
X153390058Y-86156488D01*
X153289000Y-86239425D01*
X153187942Y-86156488D01*
X153036567Y-86075577D01*
X152872316Y-86025752D01*
X152701500Y-86008928D01*
X152126500Y-86008928D01*
X151955684Y-86025752D01*
X151791433Y-86075577D01*
X151770348Y-86086847D01*
X151706918Y-86080600D01*
X151706915Y-86080600D01*
X151662000Y-86076176D01*
X151617085Y-86080600D01*
X145459917Y-86080600D01*
X145415000Y-86076176D01*
X145370082Y-86080600D01*
X145235746Y-86093831D01*
X145063381Y-86146117D01*
X144904529Y-86231026D01*
X144790108Y-86324928D01*
X144781000Y-86324928D01*
X144637009Y-86339110D01*
X144498552Y-86381110D01*
X144379824Y-86444572D01*
X144355482Y-86437188D01*
X144231000Y-86424928D01*
X143541750Y-86428000D01*
X143383000Y-86586750D01*
X143383000Y-86934204D01*
X143181527Y-86925610D01*
X143129000Y-86933749D01*
X143129000Y-86586750D01*
X142970250Y-86428000D01*
X142281000Y-86424928D01*
X142156518Y-86437188D01*
X142132176Y-86444572D01*
X142013448Y-86381110D01*
X141874991Y-86339110D01*
X141731000Y-86324928D01*
X141542960Y-86324928D01*
X141446029Y-86273117D01*
X141273664Y-86220831D01*
X141139328Y-86207600D01*
X141139325Y-86207600D01*
X141094410Y-86203176D01*
X141049495Y-86207600D01*
X136585222Y-86207600D01*
X136522942Y-86156488D01*
X136371567Y-86075577D01*
X136207316Y-86025752D01*
X136036500Y-86008928D01*
X135461500Y-86008928D01*
X135290684Y-86025752D01*
X135126433Y-86075577D01*
X134975058Y-86156488D01*
X134874000Y-86239425D01*
X134772942Y-86156488D01*
X134621567Y-86075577D01*
X134457316Y-86025752D01*
X134286500Y-86008928D01*
X133711500Y-86008928D01*
X133540684Y-86025752D01*
X133376433Y-86075577D01*
X133225058Y-86156488D01*
X133162778Y-86207600D01*
X127940557Y-86207600D01*
X127983685Y-86192966D01*
X128188079Y-86083714D01*
X128298926Y-85806531D01*
X127254000Y-84761605D01*
X126209074Y-85806531D01*
X126319921Y-86083714D01*
X126571060Y-86207600D01*
X126099482Y-86207600D01*
X126003406Y-86063812D01*
X125772188Y-85832594D01*
X125500305Y-85650927D01*
X125198204Y-85525793D01*
X124877496Y-85462000D01*
X124550504Y-85462000D01*
X124229796Y-85525793D01*
X123927695Y-85650927D01*
X123655812Y-85832594D01*
X123424594Y-86063812D01*
X123242927Y-86335695D01*
X123117793Y-86637796D01*
X123054000Y-86958504D01*
X119913000Y-86958504D01*
X119913000Y-85806531D01*
X121129074Y-85806531D01*
X121239921Y-86083714D01*
X121550840Y-86237089D01*
X121885705Y-86326860D01*
X122231650Y-86349576D01*
X122575380Y-86304366D01*
X122903685Y-86192966D01*
X123108079Y-86083714D01*
X123218926Y-85806531D01*
X122174000Y-84761605D01*
X121129074Y-85806531D01*
X119913000Y-85806531D01*
X119913000Y-84639650D01*
X120406424Y-84639650D01*
X120451634Y-84983380D01*
X120563034Y-85311685D01*
X120672286Y-85516079D01*
X120949469Y-85626926D01*
X121994395Y-84582000D01*
X122353605Y-84582000D01*
X123398531Y-85626926D01*
X123675714Y-85516079D01*
X123829089Y-85205160D01*
X123918860Y-84870295D01*
X123934004Y-84639650D01*
X125486424Y-84639650D01*
X125531634Y-84983380D01*
X125643034Y-85311685D01*
X125752286Y-85516079D01*
X126029469Y-85626926D01*
X127074395Y-84582000D01*
X127433605Y-84582000D01*
X128478531Y-85626926D01*
X128755714Y-85516079D01*
X128909089Y-85205160D01*
X128998860Y-84870295D01*
X129021576Y-84524350D01*
X129003334Y-84385650D01*
X158379424Y-84385650D01*
X158424634Y-84729380D01*
X158536034Y-85057685D01*
X158645286Y-85262079D01*
X158922469Y-85372926D01*
X159967395Y-84328000D01*
X160326605Y-84328000D01*
X161371531Y-85372926D01*
X161648714Y-85262079D01*
X161802089Y-84951160D01*
X161891860Y-84616295D01*
X161907004Y-84385650D01*
X163459424Y-84385650D01*
X163504634Y-84729380D01*
X163616034Y-85057685D01*
X163725286Y-85262079D01*
X164002469Y-85372926D01*
X165047395Y-84328000D01*
X165406605Y-84328000D01*
X166451531Y-85372926D01*
X166728714Y-85262079D01*
X166882089Y-84951160D01*
X166971860Y-84616295D01*
X166994576Y-84270350D01*
X166949366Y-83926620D01*
X166837966Y-83598315D01*
X166728714Y-83393921D01*
X166451531Y-83283074D01*
X165406605Y-84328000D01*
X165047395Y-84328000D01*
X164002469Y-83283074D01*
X163725286Y-83393921D01*
X163571911Y-83704840D01*
X163482140Y-84039705D01*
X163459424Y-84385650D01*
X161907004Y-84385650D01*
X161914576Y-84270350D01*
X161869366Y-83926620D01*
X161757966Y-83598315D01*
X161648714Y-83393921D01*
X161371531Y-83283074D01*
X160326605Y-84328000D01*
X159967395Y-84328000D01*
X158922469Y-83283074D01*
X158645286Y-83393921D01*
X158491911Y-83704840D01*
X158402140Y-84039705D01*
X158379424Y-84385650D01*
X129003334Y-84385650D01*
X128976366Y-84180620D01*
X128864966Y-83852315D01*
X128755714Y-83647921D01*
X128478531Y-83537074D01*
X127433605Y-84582000D01*
X127074395Y-84582000D01*
X126029469Y-83537074D01*
X125752286Y-83647921D01*
X125598911Y-83958840D01*
X125509140Y-84293705D01*
X125486424Y-84639650D01*
X123934004Y-84639650D01*
X123941576Y-84524350D01*
X123896366Y-84180620D01*
X123784966Y-83852315D01*
X123675714Y-83647921D01*
X123398531Y-83537074D01*
X122353605Y-84582000D01*
X121994395Y-84582000D01*
X120949469Y-83537074D01*
X120672286Y-83647921D01*
X120518911Y-83958840D01*
X120429140Y-84293705D01*
X120406424Y-84639650D01*
X119913000Y-84639650D01*
X119913000Y-83357469D01*
X121129074Y-83357469D01*
X122174000Y-84402395D01*
X123218926Y-83357469D01*
X126209074Y-83357469D01*
X127254000Y-84402395D01*
X128298926Y-83357469D01*
X128197351Y-83103469D01*
X159102074Y-83103469D01*
X160147000Y-84148395D01*
X161191926Y-83103469D01*
X164182074Y-83103469D01*
X165227000Y-84148395D01*
X166271926Y-83103469D01*
X166161079Y-82826286D01*
X165850160Y-82672911D01*
X165515295Y-82583140D01*
X165169350Y-82560424D01*
X164825620Y-82605634D01*
X164497315Y-82717034D01*
X164292921Y-82826286D01*
X164182074Y-83103469D01*
X161191926Y-83103469D01*
X161081079Y-82826286D01*
X160770160Y-82672911D01*
X160435295Y-82583140D01*
X160089350Y-82560424D01*
X159745620Y-82605634D01*
X159417315Y-82717034D01*
X159212921Y-82826286D01*
X159102074Y-83103469D01*
X128197351Y-83103469D01*
X128188079Y-83080286D01*
X127877160Y-82926911D01*
X127542295Y-82837140D01*
X127196350Y-82814424D01*
X126852620Y-82859634D01*
X126524315Y-82971034D01*
X126319921Y-83080286D01*
X126209074Y-83357469D01*
X123218926Y-83357469D01*
X123108079Y-83080286D01*
X122797160Y-82926911D01*
X122462295Y-82837140D01*
X122116350Y-82814424D01*
X121772620Y-82859634D01*
X121444315Y-82971034D01*
X121239921Y-83080286D01*
X121129074Y-83357469D01*
X119913000Y-83357469D01*
X119913000Y-78142758D01*
X120467000Y-78142758D01*
X120467000Y-78829242D01*
X120600927Y-79502537D01*
X120863633Y-80136766D01*
X121245024Y-80707558D01*
X121730442Y-81192976D01*
X122301234Y-81574367D01*
X122935463Y-81837073D01*
X123608758Y-81971000D01*
X124295242Y-81971000D01*
X124968537Y-81837073D01*
X125602766Y-81574367D01*
X126173558Y-81192976D01*
X126658976Y-80707558D01*
X127040367Y-80136766D01*
X127303073Y-79502537D01*
X127437000Y-78829242D01*
X127437000Y-78142758D01*
X127310691Y-77507758D01*
X160218000Y-77507758D01*
X160218000Y-78194242D01*
X160351927Y-78867537D01*
X160614633Y-79501766D01*
X160996024Y-80072558D01*
X161481442Y-80557976D01*
X162052234Y-80939367D01*
X162686463Y-81202073D01*
X163359758Y-81336000D01*
X164046242Y-81336000D01*
X164719537Y-81202073D01*
X165353766Y-80939367D01*
X165924558Y-80557976D01*
X166409976Y-80072558D01*
X166791367Y-79501766D01*
X167054073Y-78867537D01*
X167188000Y-78194242D01*
X167188000Y-77507758D01*
X167054073Y-76834463D01*
X166791367Y-76200234D01*
X166409976Y-75629442D01*
X165924558Y-75144024D01*
X165353766Y-74762633D01*
X164719537Y-74499927D01*
X164046242Y-74366000D01*
X163359758Y-74366000D01*
X162686463Y-74499927D01*
X162052234Y-74762633D01*
X161481442Y-75144024D01*
X160996024Y-75629442D01*
X160614633Y-76200234D01*
X160351927Y-76834463D01*
X160218000Y-77507758D01*
X127310691Y-77507758D01*
X127303073Y-77469463D01*
X127040367Y-76835234D01*
X126658976Y-76264442D01*
X126173558Y-75779024D01*
X125602766Y-75397633D01*
X124968537Y-75134927D01*
X124295242Y-75001000D01*
X123608758Y-75001000D01*
X122935463Y-75134927D01*
X122301234Y-75397633D01*
X121730442Y-75779024D01*
X121245024Y-76264442D01*
X120863633Y-76835234D01*
X120600927Y-77469463D01*
X120467000Y-78142758D01*
X119913000Y-78142758D01*
X119913000Y-74445296D01*
X167742001Y-74321708D01*
X167742000Y-122657000D01*
X167742000Y-122657000D01*
G37*
X167742000Y-122657000D02*
X119913000Y-122657000D01*
X119913000Y-118401758D01*
X120086000Y-118401758D01*
X120086000Y-119088242D01*
X120219927Y-119761537D01*
X120482633Y-120395766D01*
X120864024Y-120966558D01*
X121349442Y-121451976D01*
X121920234Y-121833367D01*
X122554463Y-122096073D01*
X123227758Y-122230000D01*
X123914242Y-122230000D01*
X124587537Y-122096073D01*
X125221766Y-121833367D01*
X125792558Y-121451976D01*
X126277976Y-120966558D01*
X126659367Y-120395766D01*
X126922073Y-119761537D01*
X127056000Y-119088242D01*
X127056000Y-118655758D01*
X160345000Y-118655758D01*
X160345000Y-119342242D01*
X160478927Y-120015537D01*
X160741633Y-120649766D01*
X161123024Y-121220558D01*
X161608442Y-121705976D01*
X162179234Y-122087367D01*
X162813463Y-122350073D01*
X163486758Y-122484000D01*
X164173242Y-122484000D01*
X164846537Y-122350073D01*
X165480766Y-122087367D01*
X166051558Y-121705976D01*
X166536976Y-121220558D01*
X166918367Y-120649766D01*
X167181073Y-120015537D01*
X167315000Y-119342242D01*
X167315000Y-118655758D01*
X167181073Y-117982463D01*
X166918367Y-117348234D01*
X166536976Y-116777442D01*
X166051558Y-116292024D01*
X165480766Y-115910633D01*
X164846537Y-115647927D01*
X164173242Y-115514000D01*
X163486758Y-115514000D01*
X162813463Y-115647927D01*
X162179234Y-115910633D01*
X161608442Y-116292024D01*
X161123024Y-116777442D01*
X160741633Y-117348234D01*
X160478927Y-117982463D01*
X160345000Y-118655758D01*
X127056000Y-118655758D01*
X127056000Y-118401758D01*
X126922073Y-117728463D01*
X126659367Y-117094234D01*
X126277976Y-116523442D01*
X125792558Y-116038024D01*
X125221766Y-115656633D01*
X124587537Y-115393927D01*
X123914242Y-115260000D01*
X123227758Y-115260000D01*
X122554463Y-115393927D01*
X121920234Y-115656633D01*
X121349442Y-116038024D01*
X120864024Y-116523442D01*
X120482633Y-117094234D01*
X120219927Y-117728463D01*
X120086000Y-118401758D01*
X119913000Y-118401758D01*
X119913000Y-98930000D01*
X135284928Y-98930000D01*
X135288000Y-99169250D01*
X135446750Y-99328000D01*
X136271000Y-99328000D01*
X136271000Y-98453750D01*
X136525000Y-98453750D01*
X136525000Y-99328000D01*
X137349250Y-99328000D01*
X137508000Y-99169250D01*
X137511072Y-98930000D01*
X137498812Y-98805518D01*
X137462502Y-98685820D01*
X137403537Y-98575506D01*
X137324185Y-98478815D01*
X137227494Y-98399463D01*
X137117180Y-98340498D01*
X136997482Y-98304188D01*
X136873000Y-98291928D01*
X136683750Y-98295000D01*
X136525000Y-98453750D01*
X136271000Y-98453750D01*
X136112250Y-98295000D01*
X135923000Y-98291928D01*
X135798518Y-98304188D01*
X135678820Y-98340498D01*
X135568506Y-98399463D01*
X135471815Y-98478815D01*
X135392463Y-98575506D01*
X135333498Y-98685820D01*
X135297188Y-98805518D01*
X135284928Y-98930000D01*
X119913000Y-98930000D01*
X119913000Y-90886531D01*
X121129074Y-90886531D01*
X121239921Y-91163714D01*
X121550840Y-91317089D01*
X121885705Y-91406860D01*
X122231650Y-91429576D01*
X122575380Y-91384366D01*
X122903685Y-91272966D01*
X123108079Y-91163714D01*
X123218926Y-90886531D01*
X126209074Y-90886531D01*
X126319921Y-91163714D01*
X126630840Y-91317089D01*
X126965705Y-91406860D01*
X127311650Y-91429576D01*
X127655380Y-91384366D01*
X127983685Y-91272966D01*
X128188079Y-91163714D01*
X128298926Y-90886531D01*
X127254000Y-89841605D01*
X126209074Y-90886531D01*
X123218926Y-90886531D01*
X122174000Y-89841605D01*
X121129074Y-90886531D01*
X119913000Y-90886531D01*
X119913000Y-89719650D01*
X120406424Y-89719650D01*
X120451634Y-90063380D01*
X120563034Y-90391685D01*
X120672286Y-90596079D01*
X120949469Y-90706926D01*
X121994395Y-89662000D01*
X122353605Y-89662000D01*
X123398531Y-90706926D01*
X123675714Y-90596079D01*
X123829089Y-90285160D01*
X123918860Y-89950295D01*
X123934004Y-89719650D01*
X125486424Y-89719650D01*
X125531634Y-90063380D01*
X125643034Y-90391685D01*
X125752286Y-90596079D01*
X126029469Y-90706926D01*
X127074395Y-89662000D01*
X127433605Y-89662000D01*
X128478531Y-90706926D01*
X128755714Y-90596079D01*
X128909089Y-90285160D01*
X128998860Y-89950295D01*
X129021576Y-89604350D01*
X128976366Y-89260620D01*
X128864966Y-88932315D01*
X128755714Y-88727921D01*
X128478531Y-88617074D01*
X127433605Y-89662000D01*
X127074395Y-89662000D01*
X126029469Y-88617074D01*
X125752286Y-88727921D01*
X125598911Y-89038840D01*
X125509140Y-89373705D01*
X125486424Y-89719650D01*
X123934004Y-89719650D01*
X123941576Y-89604350D01*
X123896366Y-89260620D01*
X123784966Y-88932315D01*
X123675714Y-88727921D01*
X123398531Y-88617074D01*
X122353605Y-89662000D01*
X121994395Y-89662000D01*
X120949469Y-88617074D01*
X120672286Y-88727921D01*
X120518911Y-89038840D01*
X120429140Y-89373705D01*
X120406424Y-89719650D01*
X119913000Y-89719650D01*
X119913000Y-88437469D01*
X121129074Y-88437469D01*
X122174000Y-89482395D01*
X123218926Y-88437469D01*
X123108079Y-88160286D01*
X122797160Y-88006911D01*
X122462295Y-87917140D01*
X122116350Y-87894424D01*
X121772620Y-87939634D01*
X121444315Y-88051034D01*
X121239921Y-88160286D01*
X121129074Y-88437469D01*
X119913000Y-88437469D01*
X119913000Y-86958504D01*
X123054000Y-86958504D01*
X123054000Y-87285496D01*
X123117793Y-87606204D01*
X123242927Y-87908305D01*
X123424594Y-88180188D01*
X123655812Y-88411406D01*
X123927695Y-88593073D01*
X124229796Y-88718207D01*
X124550504Y-88782000D01*
X124877496Y-88782000D01*
X125198204Y-88718207D01*
X125500305Y-88593073D01*
X125772188Y-88411406D01*
X126003406Y-88180188D01*
X126099482Y-88036400D01*
X126567443Y-88036400D01*
X126524315Y-88051034D01*
X126319921Y-88160286D01*
X126209074Y-88437469D01*
X127254000Y-89482395D01*
X128298926Y-88437469D01*
X128188079Y-88160286D01*
X127936940Y-88036400D01*
X133162778Y-88036400D01*
X133225058Y-88087512D01*
X133376433Y-88168423D01*
X133540684Y-88218248D01*
X133711500Y-88235072D01*
X134286500Y-88235072D01*
X134457316Y-88218248D01*
X134621567Y-88168423D01*
X134772942Y-88087512D01*
X134874000Y-88004575D01*
X134975058Y-88087512D01*
X135126433Y-88168423D01*
X135290684Y-88218248D01*
X135461500Y-88235072D01*
X136036500Y-88235072D01*
X136207316Y-88218248D01*
X136371567Y-88168423D01*
X136522942Y-88087512D01*
X136585222Y-88036400D01*
X139526731Y-88036400D01*
X138249578Y-89313554D01*
X138217709Y-89339709D01*
X138140256Y-89434087D01*
X138113364Y-89466855D01*
X138035828Y-89611914D01*
X137988082Y-89769312D01*
X137971960Y-89933000D01*
X137976000Y-89974019D01*
X137976001Y-91080714D01*
X137893795Y-91203744D01*
X137815774Y-91392102D01*
X137776000Y-91592061D01*
X137776000Y-91795939D01*
X137815774Y-91995898D01*
X137893795Y-92184256D01*
X138007063Y-92353774D01*
X138151226Y-92497937D01*
X138320744Y-92611205D01*
X138509102Y-92689226D01*
X138709061Y-92729000D01*
X138912939Y-92729000D01*
X138992000Y-92713274D01*
X138992001Y-95847375D01*
X138902518Y-95856188D01*
X138782820Y-95892498D01*
X138672506Y-95951463D01*
X138575815Y-96030815D01*
X138496463Y-96127506D01*
X138437498Y-96237820D01*
X138401188Y-96357518D01*
X138388928Y-96482000D01*
X138388928Y-98082000D01*
X138401188Y-98206482D01*
X138437498Y-98326180D01*
X138496463Y-98436494D01*
X138575815Y-98533185D01*
X138586323Y-98541809D01*
X137447691Y-99680441D01*
X137349250Y-99582000D01*
X136525000Y-99582000D01*
X136525000Y-99602000D01*
X136271000Y-99602000D01*
X136271000Y-99582000D01*
X135446750Y-99582000D01*
X135288000Y-99740750D01*
X135284928Y-99980000D01*
X135297188Y-100104482D01*
X135333498Y-100224180D01*
X135392463Y-100334494D01*
X135421602Y-100370000D01*
X135197018Y-100370000D01*
X135156000Y-100365960D01*
X135114982Y-100370000D01*
X135114981Y-100370000D01*
X134992311Y-100382082D01*
X134834913Y-100429828D01*
X134689854Y-100507364D01*
X134562709Y-100611709D01*
X134536563Y-100643568D01*
X131173205Y-104006928D01*
X130953500Y-104006928D01*
X130782684Y-104023752D01*
X130618433Y-104073577D01*
X130467058Y-104154488D01*
X130334377Y-104263377D01*
X130225488Y-104396058D01*
X130144577Y-104547433D01*
X130094752Y-104711684D01*
X130077928Y-104882500D01*
X130077928Y-105457500D01*
X130094752Y-105628316D01*
X130144577Y-105792567D01*
X130225488Y-105943942D01*
X130308425Y-106045000D01*
X130225488Y-106146058D01*
X130144577Y-106297433D01*
X130094752Y-106461684D01*
X130077928Y-106632500D01*
X130077928Y-107207500D01*
X130094752Y-107378316D01*
X130144577Y-107542567D01*
X130225488Y-107693942D01*
X130334377Y-107826623D01*
X130467058Y-107935512D01*
X130618433Y-108016423D01*
X130782684Y-108066248D01*
X130953500Y-108083072D01*
X131428500Y-108083072D01*
X131599316Y-108066248D01*
X131763567Y-108016423D01*
X131914942Y-107935512D01*
X132047623Y-107826623D01*
X132145467Y-107707400D01*
X133455932Y-107707400D01*
X133464831Y-107797753D01*
X133517117Y-107970118D01*
X133602026Y-108128970D01*
X133716293Y-108268207D01*
X133751190Y-108296846D01*
X136173928Y-110719585D01*
X136173928Y-110827000D01*
X136190752Y-110997816D01*
X136240577Y-111162067D01*
X136321488Y-111313442D01*
X136372600Y-111375722D01*
X136372601Y-114567875D01*
X136368176Y-114612800D01*
X136385832Y-114792053D01*
X136438117Y-114964418D01*
X136517865Y-115113614D01*
X136523027Y-115123271D01*
X136637294Y-115262507D01*
X136672185Y-115291141D01*
X138327859Y-116946816D01*
X138356493Y-116981707D01*
X138495729Y-117095974D01*
X138654581Y-117180883D01*
X138826946Y-117233169D01*
X138961282Y-117246400D01*
X138961285Y-117246400D01*
X139006200Y-117250824D01*
X139051115Y-117246400D01*
X139153120Y-117246400D01*
X139174294Y-117286013D01*
X139359866Y-117512134D01*
X139585986Y-117697706D01*
X139843966Y-117835599D01*
X140123889Y-117920513D01*
X140415000Y-117949185D01*
X140706110Y-117920513D01*
X140986033Y-117835599D01*
X141244013Y-117697706D01*
X141470134Y-117512134D01*
X141655706Y-117286014D01*
X141669462Y-117260278D01*
X141825951Y-117466429D01*
X142043807Y-117659496D01*
X142295142Y-117806352D01*
X142558110Y-117898476D01*
X142788000Y-117777155D01*
X142788000Y-116459000D01*
X142768000Y-116459000D01*
X142768000Y-116205000D01*
X142788000Y-116205000D01*
X142788000Y-114886845D01*
X142558110Y-114765524D01*
X142295142Y-114857648D01*
X142043807Y-115004504D01*
X141825951Y-115197571D01*
X141694520Y-115370711D01*
X141671974Y-115328530D01*
X141557706Y-115189294D01*
X141418470Y-115075026D01*
X141381103Y-115055053D01*
X142155945Y-114280211D01*
X142160898Y-114279226D01*
X142349256Y-114201205D01*
X142518774Y-114087937D01*
X142662937Y-113943774D01*
X142776205Y-113774256D01*
X142854226Y-113585898D01*
X142894000Y-113385939D01*
X142894000Y-113182061D01*
X142854226Y-112982102D01*
X142776205Y-112793744D01*
X142662937Y-112624226D01*
X142518774Y-112480063D01*
X142349256Y-112366795D01*
X142160898Y-112288774D01*
X141960939Y-112249000D01*
X141757061Y-112249000D01*
X141557102Y-112288774D01*
X141368744Y-112366795D01*
X141199226Y-112480063D01*
X141055063Y-112624226D01*
X140941795Y-112793744D01*
X140863774Y-112982102D01*
X140862789Y-112987055D01*
X139800190Y-114049654D01*
X139765293Y-114078293D01*
X139651026Y-114217530D01*
X139566117Y-114376382D01*
X139513831Y-114548747D01*
X139500600Y-114683082D01*
X139496176Y-114728000D01*
X139500600Y-114772915D01*
X139500600Y-115036369D01*
X139359866Y-115151866D01*
X139251395Y-115284038D01*
X138201400Y-114234044D01*
X138201400Y-111375722D01*
X138252512Y-111313442D01*
X138333423Y-111162067D01*
X138383248Y-110997816D01*
X138400072Y-110827000D01*
X138400072Y-110252000D01*
X138383248Y-110081184D01*
X138333423Y-109916933D01*
X138252512Y-109765558D01*
X138232901Y-109741661D01*
X138292537Y-109668994D01*
X138351502Y-109558680D01*
X138387812Y-109438982D01*
X138400072Y-109314500D01*
X138397000Y-109075250D01*
X138238250Y-108916500D01*
X137414000Y-108916500D01*
X137414000Y-108936500D01*
X137160000Y-108936500D01*
X137160000Y-108916500D01*
X137140000Y-108916500D01*
X137140000Y-108662500D01*
X137160000Y-108662500D01*
X137160000Y-107921250D01*
X137287000Y-107794250D01*
X137287000Y-107788250D01*
X137414000Y-107788250D01*
X137414000Y-108662500D01*
X138238250Y-108662500D01*
X138397000Y-108503750D01*
X138400072Y-108264500D01*
X138387812Y-108140018D01*
X138351502Y-108020320D01*
X138292537Y-107910006D01*
X138242519Y-107849058D01*
X138243494Y-107848537D01*
X138340185Y-107769185D01*
X138419537Y-107672494D01*
X138478502Y-107562180D01*
X138514812Y-107442482D01*
X138527072Y-107318000D01*
X138524000Y-107078750D01*
X138365250Y-106920000D01*
X137541000Y-106920000D01*
X137541000Y-107661250D01*
X137414000Y-107788250D01*
X137287000Y-107788250D01*
X137287000Y-106920000D01*
X136462750Y-106920000D01*
X136304000Y-107078750D01*
X136300928Y-107318000D01*
X136313188Y-107442482D01*
X136349498Y-107562180D01*
X136408463Y-107672494D01*
X136458481Y-107733442D01*
X136457506Y-107733963D01*
X136360815Y-107813315D01*
X136281463Y-107910006D01*
X136222498Y-108020320D01*
X136186188Y-108140018D01*
X136185694Y-108145037D01*
X135422617Y-107381961D01*
X135462248Y-107251316D01*
X135479072Y-107080500D01*
X135479072Y-106505500D01*
X135462248Y-106334684D01*
X135412423Y-106170433D01*
X135331512Y-106019058D01*
X135248575Y-105918000D01*
X135281403Y-105878000D01*
X136437602Y-105878000D01*
X136408463Y-105913506D01*
X136349498Y-106023820D01*
X136313188Y-106143518D01*
X136300928Y-106268000D01*
X136304000Y-106507250D01*
X136462750Y-106666000D01*
X137287000Y-106666000D01*
X137287000Y-106646000D01*
X137541000Y-106646000D01*
X137541000Y-106666000D01*
X138365250Y-106666000D01*
X138524000Y-106507250D01*
X138527072Y-106268000D01*
X138514812Y-106143518D01*
X138478502Y-106023820D01*
X138419537Y-105913506D01*
X138359901Y-105840839D01*
X138379512Y-105816942D01*
X138460423Y-105665567D01*
X138510248Y-105501316D01*
X138527072Y-105330500D01*
X138527072Y-105110796D01*
X138535868Y-105102000D01*
X139349886Y-105102000D01*
X139310071Y-105233255D01*
X139294928Y-105387000D01*
X139294928Y-105687000D01*
X139310071Y-105840745D01*
X139354916Y-105988582D01*
X139427742Y-106124829D01*
X139525749Y-106244251D01*
X139645171Y-106342258D01*
X139781418Y-106415084D01*
X139929255Y-106459929D01*
X140083000Y-106475072D01*
X141452600Y-106475072D01*
X141452601Y-109178688D01*
X141436063Y-109195226D01*
X141322795Y-109364744D01*
X141244774Y-109553102D01*
X141205000Y-109753061D01*
X141205000Y-109956939D01*
X141244774Y-110156898D01*
X141322795Y-110345256D01*
X141436063Y-110514774D01*
X141580226Y-110658937D01*
X141749744Y-110772205D01*
X141938102Y-110850226D01*
X142138061Y-110890000D01*
X142341939Y-110890000D01*
X142541898Y-110850226D01*
X142730256Y-110772205D01*
X142899774Y-110658937D01*
X143043937Y-110514774D01*
X143157205Y-110345256D01*
X143235226Y-110156898D01*
X143275000Y-109956939D01*
X143275000Y-109837898D01*
X143281400Y-109772918D01*
X143281400Y-109772916D01*
X143285824Y-109728001D01*
X143281400Y-109683086D01*
X143281400Y-107536000D01*
X146742428Y-107536000D01*
X146754688Y-107660482D01*
X146790998Y-107780180D01*
X146849963Y-107890494D01*
X146929315Y-107987185D01*
X147026006Y-108066537D01*
X147136320Y-108125502D01*
X147256018Y-108161812D01*
X147380500Y-108174072D01*
X147619750Y-108171000D01*
X147778500Y-108012250D01*
X147778500Y-107188000D01*
X146904250Y-107188000D01*
X146745500Y-107346750D01*
X146742428Y-107536000D01*
X143281400Y-107536000D01*
X143281400Y-105965914D01*
X143285824Y-105920999D01*
X143280399Y-105865918D01*
X143268169Y-105741746D01*
X143234266Y-105629984D01*
X143256000Y-105608250D01*
X143256000Y-105071166D01*
X143321740Y-105087183D01*
X143510000Y-105095213D01*
X143510000Y-105608250D01*
X143668750Y-105767000D01*
X144253013Y-105769089D01*
X144260071Y-105840745D01*
X144304916Y-105988582D01*
X144377742Y-106124829D01*
X144475749Y-106244251D01*
X144595171Y-106342258D01*
X144731418Y-106415084D01*
X144879255Y-106459929D01*
X145033000Y-106475072D01*
X146683000Y-106475072D01*
X146754042Y-106468075D01*
X146742428Y-106586000D01*
X146745500Y-106775250D01*
X146904250Y-106934000D01*
X147778500Y-106934000D01*
X147778500Y-106109750D01*
X147619750Y-105951000D01*
X147423250Y-105948477D01*
X147455929Y-105840745D01*
X147471072Y-105687000D01*
X147471072Y-105387000D01*
X147455929Y-105233255D01*
X147411084Y-105085418D01*
X147391194Y-105048206D01*
X147411087Y-105042172D01*
X147556146Y-104964636D01*
X147683291Y-104860291D01*
X147709446Y-104828421D01*
X147730774Y-104807093D01*
X147875898Y-104778226D01*
X148064256Y-104700205D01*
X148233774Y-104586937D01*
X148310034Y-104510677D01*
X148896100Y-105096743D01*
X148896101Y-106087715D01*
X148881558Y-106095488D01*
X148857661Y-106115099D01*
X148784994Y-106055463D01*
X148674680Y-105996498D01*
X148554982Y-105960188D01*
X148430500Y-105947928D01*
X148191250Y-105951000D01*
X148032500Y-106109750D01*
X148032500Y-106934000D01*
X148052500Y-106934000D01*
X148052500Y-107188000D01*
X148032500Y-107188000D01*
X148032500Y-108012250D01*
X148191250Y-108171000D01*
X148430500Y-108174072D01*
X148554982Y-108161812D01*
X148674680Y-108125502D01*
X148741100Y-108089999D01*
X148741101Y-111712742D01*
X145734916Y-114718928D01*
X144815000Y-114718928D01*
X144641746Y-114735992D01*
X144475150Y-114786528D01*
X144321614Y-114868595D01*
X144187038Y-114979038D01*
X144076595Y-115113614D01*
X144020286Y-115218961D01*
X144004049Y-115197571D01*
X143786193Y-115004504D01*
X143534858Y-114857648D01*
X143271890Y-114765524D01*
X143042000Y-114886845D01*
X143042000Y-116205000D01*
X143062000Y-116205000D01*
X143062000Y-116459000D01*
X143042000Y-116459000D01*
X143042000Y-117777155D01*
X143271890Y-117898476D01*
X143534858Y-117806352D01*
X143786193Y-117659496D01*
X144004049Y-117466429D01*
X144020286Y-117445039D01*
X144076595Y-117550386D01*
X144187038Y-117684962D01*
X144321614Y-117795405D01*
X144475150Y-117877472D01*
X144641746Y-117928008D01*
X144815000Y-117945072D01*
X146015000Y-117945072D01*
X146188254Y-117928008D01*
X146354850Y-117877472D01*
X146508386Y-117795405D01*
X146642962Y-117684962D01*
X146753405Y-117550386D01*
X146835472Y-117396850D01*
X146886008Y-117230254D01*
X146903072Y-117057000D01*
X146903072Y-116137084D01*
X150270316Y-112769841D01*
X150305207Y-112741207D01*
X150419474Y-112601971D01*
X150504383Y-112443119D01*
X150556669Y-112270754D01*
X150569900Y-112136418D01*
X150569900Y-112136415D01*
X150574324Y-112091500D01*
X150569900Y-112046585D01*
X150569900Y-107908147D01*
X150671012Y-107784942D01*
X150751923Y-107633567D01*
X150801748Y-107469316D01*
X150818572Y-107298500D01*
X150818572Y-106823500D01*
X150801748Y-106652684D01*
X150751923Y-106488433D01*
X150724900Y-106437876D01*
X150724900Y-104762901D01*
X150729324Y-104717986D01*
X150723506Y-104658916D01*
X150711669Y-104538732D01*
X150659383Y-104366367D01*
X150574474Y-104207515D01*
X150460207Y-104068279D01*
X150425317Y-104039646D01*
X148674459Y-102288789D01*
X148645820Y-102253892D01*
X148584935Y-102203925D01*
X148609000Y-102082939D01*
X148609000Y-101879061D01*
X148569226Y-101679102D01*
X148491205Y-101490744D01*
X148377937Y-101321226D01*
X148282000Y-101225289D01*
X148282000Y-98453112D01*
X148466608Y-98301608D01*
X148645932Y-98083101D01*
X148779182Y-97833808D01*
X148861236Y-97563309D01*
X148888943Y-97282000D01*
X148861236Y-97000691D01*
X148779182Y-96730192D01*
X148645932Y-96480899D01*
X148466608Y-96262392D01*
X148248101Y-96083068D01*
X147998808Y-95949818D01*
X147728309Y-95867764D01*
X147517492Y-95847000D01*
X147376508Y-95847000D01*
X147209333Y-95863466D01*
X145235804Y-93889937D01*
X145277248Y-93753316D01*
X145294072Y-93582500D01*
X145294072Y-93107500D01*
X145277248Y-92936684D01*
X145227423Y-92772433D01*
X145146512Y-92621058D01*
X145037623Y-92488377D01*
X144904942Y-92379488D01*
X144753567Y-92298577D01*
X144589316Y-92248752D01*
X144418500Y-92231928D01*
X143843500Y-92231928D01*
X143672684Y-92248752D01*
X143508433Y-92298577D01*
X143357058Y-92379488D01*
X143256000Y-92462425D01*
X143154942Y-92379488D01*
X143003567Y-92298577D01*
X142839316Y-92248752D01*
X142668500Y-92231928D01*
X142093500Y-92231928D01*
X141922684Y-92248752D01*
X141758433Y-92298577D01*
X141607058Y-92379488D01*
X141474377Y-92488377D01*
X141365488Y-92621058D01*
X141356967Y-92637000D01*
X141240285Y-92637000D01*
X141117256Y-92554795D01*
X140928898Y-92476774D01*
X140728939Y-92437000D01*
X140662000Y-92437000D01*
X140662000Y-90737867D01*
X141448796Y-89951072D01*
X141731000Y-89951072D01*
X141874991Y-89936890D01*
X142013448Y-89894890D01*
X142132176Y-89831428D01*
X142156518Y-89838812D01*
X142281000Y-89851072D01*
X142970250Y-89848000D01*
X143129000Y-89689250D01*
X143129000Y-89595796D01*
X143330473Y-89604390D01*
X143383000Y-89596251D01*
X143383000Y-89689250D01*
X143541750Y-89848000D01*
X144231000Y-89851072D01*
X144355482Y-89838812D01*
X144379824Y-89831428D01*
X144498552Y-89894890D01*
X144637009Y-89936890D01*
X144781000Y-89951072D01*
X146031000Y-89951072D01*
X146174991Y-89936890D01*
X146313448Y-89894890D01*
X146441051Y-89826684D01*
X146552896Y-89734896D01*
X146644684Y-89623051D01*
X146712890Y-89495448D01*
X146754890Y-89356991D01*
X146755777Y-89347990D01*
X147202123Y-89347990D01*
X155264285Y-97410154D01*
X155226315Y-97441315D01*
X155146963Y-97538006D01*
X155087998Y-97648320D01*
X155051688Y-97768018D01*
X155039428Y-97892500D01*
X155039428Y-99592500D01*
X155051688Y-99716982D01*
X155087998Y-99836680D01*
X155146963Y-99946994D01*
X155226315Y-100043685D01*
X155323006Y-100123037D01*
X155433320Y-100182002D01*
X155553018Y-100218312D01*
X155677500Y-100230572D01*
X157377500Y-100230572D01*
X157501982Y-100218312D01*
X157621680Y-100182002D01*
X157731994Y-100123037D01*
X157828685Y-100043685D01*
X157908037Y-99946994D01*
X157967002Y-99836680D01*
X158003312Y-99716982D01*
X158015572Y-99592500D01*
X158015572Y-97892500D01*
X158003312Y-97768018D01*
X157967002Y-97648320D01*
X157908037Y-97538006D01*
X157828685Y-97441315D01*
X157731994Y-97361963D01*
X157621680Y-97302998D01*
X157501982Y-97266688D01*
X157377500Y-97254428D01*
X157327854Y-97254428D01*
X157302672Y-97171413D01*
X157225136Y-97026354D01*
X157146939Y-96931070D01*
X157146937Y-96931068D01*
X157120791Y-96899209D01*
X157088933Y-96873064D01*
X150848400Y-90632531D01*
X159102074Y-90632531D01*
X159212921Y-90909714D01*
X159523840Y-91063089D01*
X159858705Y-91152860D01*
X160204650Y-91175576D01*
X160548380Y-91130366D01*
X160876685Y-91018966D01*
X161081079Y-90909714D01*
X161191926Y-90632531D01*
X164182074Y-90632531D01*
X164292921Y-90909714D01*
X164603840Y-91063089D01*
X164938705Y-91152860D01*
X165284650Y-91175576D01*
X165628380Y-91130366D01*
X165956685Y-91018966D01*
X166161079Y-90909714D01*
X166271926Y-90632531D01*
X165227000Y-89587605D01*
X164182074Y-90632531D01*
X161191926Y-90632531D01*
X160147000Y-89587605D01*
X159102074Y-90632531D01*
X150848400Y-90632531D01*
X149681518Y-89465650D01*
X158379424Y-89465650D01*
X158424634Y-89809380D01*
X158536034Y-90137685D01*
X158645286Y-90342079D01*
X158922469Y-90452926D01*
X159967395Y-89408000D01*
X160326605Y-89408000D01*
X161371531Y-90452926D01*
X161648714Y-90342079D01*
X161802089Y-90031160D01*
X161891860Y-89696295D01*
X161907004Y-89465650D01*
X163459424Y-89465650D01*
X163504634Y-89809380D01*
X163616034Y-90137685D01*
X163725286Y-90342079D01*
X164002469Y-90452926D01*
X165047395Y-89408000D01*
X165406605Y-89408000D01*
X166451531Y-90452926D01*
X166728714Y-90342079D01*
X166882089Y-90031160D01*
X166971860Y-89696295D01*
X166994576Y-89350350D01*
X166949366Y-89006620D01*
X166837966Y-88678315D01*
X166728714Y-88473921D01*
X166451531Y-88363074D01*
X165406605Y-89408000D01*
X165047395Y-89408000D01*
X164002469Y-88363074D01*
X163725286Y-88473921D01*
X163571911Y-88784840D01*
X163482140Y-89119705D01*
X163459424Y-89465650D01*
X161907004Y-89465650D01*
X161914576Y-89350350D01*
X161869366Y-89006620D01*
X161757966Y-88678315D01*
X161648714Y-88473921D01*
X161371531Y-88363074D01*
X160326605Y-89408000D01*
X159967395Y-89408000D01*
X158922469Y-88363074D01*
X158645286Y-88473921D01*
X158491911Y-88784840D01*
X158402140Y-89119705D01*
X158379424Y-89465650D01*
X149681518Y-89465650D01*
X148167436Y-87951569D01*
X148141281Y-87919699D01*
X148128732Y-87909400D01*
X151322356Y-87909400D01*
X151437381Y-87970883D01*
X151533458Y-88000028D01*
X151640058Y-88087512D01*
X151791433Y-88168423D01*
X151955684Y-88218248D01*
X152126500Y-88235072D01*
X152701500Y-88235072D01*
X152872316Y-88218248D01*
X153036567Y-88168423D01*
X153187942Y-88087512D01*
X153289000Y-88004575D01*
X153390058Y-88087512D01*
X153541433Y-88168423D01*
X153705684Y-88218248D01*
X153876500Y-88235072D01*
X154451500Y-88235072D01*
X154622316Y-88218248D01*
X154786567Y-88168423D01*
X154937942Y-88087512D01*
X155070623Y-87978623D01*
X155179512Y-87845942D01*
X155213476Y-87782400D01*
X159460443Y-87782400D01*
X159417315Y-87797034D01*
X159212921Y-87906286D01*
X159102074Y-88183469D01*
X160147000Y-89228395D01*
X161191926Y-88183469D01*
X161081079Y-87906286D01*
X160829940Y-87782400D01*
X161301518Y-87782400D01*
X161397594Y-87926188D01*
X161628812Y-88157406D01*
X161900695Y-88339073D01*
X162202796Y-88464207D01*
X162523504Y-88528000D01*
X162850496Y-88528000D01*
X163171204Y-88464207D01*
X163473305Y-88339073D01*
X163706182Y-88183469D01*
X164182074Y-88183469D01*
X165227000Y-89228395D01*
X166271926Y-88183469D01*
X166161079Y-87906286D01*
X165850160Y-87752911D01*
X165515295Y-87663140D01*
X165169350Y-87640424D01*
X164825620Y-87685634D01*
X164497315Y-87797034D01*
X164292921Y-87906286D01*
X164182074Y-88183469D01*
X163706182Y-88183469D01*
X163745188Y-88157406D01*
X163976406Y-87926188D01*
X164158073Y-87654305D01*
X164283207Y-87352204D01*
X164347000Y-87031496D01*
X164347000Y-86704504D01*
X164283207Y-86383796D01*
X164158073Y-86081695D01*
X163976406Y-85809812D01*
X163745188Y-85578594D01*
X163706183Y-85552531D01*
X164182074Y-85552531D01*
X164292921Y-85829714D01*
X164603840Y-85983089D01*
X164938705Y-86072860D01*
X165284650Y-86095576D01*
X165628380Y-86050366D01*
X165956685Y-85938966D01*
X166161079Y-85829714D01*
X166271926Y-85552531D01*
X165227000Y-84507605D01*
X164182074Y-85552531D01*
X163706183Y-85552531D01*
X163473305Y-85396927D01*
X163171204Y-85271793D01*
X162850496Y-85208000D01*
X162523504Y-85208000D01*
X162202796Y-85271793D01*
X161900695Y-85396927D01*
X161628812Y-85578594D01*
X161397594Y-85809812D01*
X161301518Y-85953600D01*
X160833557Y-85953600D01*
X160876685Y-85938966D01*
X161081079Y-85829714D01*
X161191926Y-85552531D01*
X160147000Y-84507605D01*
X159102074Y-85552531D01*
X159212921Y-85829714D01*
X159464060Y-85953600D01*
X154462914Y-85953600D01*
X154417999Y-85949176D01*
X154373084Y-85953600D01*
X154373082Y-85953600D01*
X154238746Y-85966831D01*
X154099970Y-86008928D01*
X153876500Y-86008928D01*
X153705684Y-86025752D01*
X153541433Y-86075577D01*
X153390058Y-86156488D01*
X153289000Y-86239425D01*
X153187942Y-86156488D01*
X153036567Y-86075577D01*
X152872316Y-86025752D01*
X152701500Y-86008928D01*
X152126500Y-86008928D01*
X151955684Y-86025752D01*
X151791433Y-86075577D01*
X151770348Y-86086847D01*
X151706918Y-86080600D01*
X151706915Y-86080600D01*
X151662000Y-86076176D01*
X151617085Y-86080600D01*
X145459917Y-86080600D01*
X145415000Y-86076176D01*
X145370082Y-86080600D01*
X145235746Y-86093831D01*
X145063381Y-86146117D01*
X144904529Y-86231026D01*
X144790108Y-86324928D01*
X144781000Y-86324928D01*
X144637009Y-86339110D01*
X144498552Y-86381110D01*
X144379824Y-86444572D01*
X144355482Y-86437188D01*
X144231000Y-86424928D01*
X143541750Y-86428000D01*
X143383000Y-86586750D01*
X143383000Y-86934204D01*
X143181527Y-86925610D01*
X143129000Y-86933749D01*
X143129000Y-86586750D01*
X142970250Y-86428000D01*
X142281000Y-86424928D01*
X142156518Y-86437188D01*
X142132176Y-86444572D01*
X142013448Y-86381110D01*
X141874991Y-86339110D01*
X141731000Y-86324928D01*
X141542960Y-86324928D01*
X141446029Y-86273117D01*
X141273664Y-86220831D01*
X141139328Y-86207600D01*
X141139325Y-86207600D01*
X141094410Y-86203176D01*
X141049495Y-86207600D01*
X136585222Y-86207600D01*
X136522942Y-86156488D01*
X136371567Y-86075577D01*
X136207316Y-86025752D01*
X136036500Y-86008928D01*
X135461500Y-86008928D01*
X135290684Y-86025752D01*
X135126433Y-86075577D01*
X134975058Y-86156488D01*
X134874000Y-86239425D01*
X134772942Y-86156488D01*
X134621567Y-86075577D01*
X134457316Y-86025752D01*
X134286500Y-86008928D01*
X133711500Y-86008928D01*
X133540684Y-86025752D01*
X133376433Y-86075577D01*
X133225058Y-86156488D01*
X133162778Y-86207600D01*
X127940557Y-86207600D01*
X127983685Y-86192966D01*
X128188079Y-86083714D01*
X128298926Y-85806531D01*
X127254000Y-84761605D01*
X126209074Y-85806531D01*
X126319921Y-86083714D01*
X126571060Y-86207600D01*
X126099482Y-86207600D01*
X126003406Y-86063812D01*
X125772188Y-85832594D01*
X125500305Y-85650927D01*
X125198204Y-85525793D01*
X124877496Y-85462000D01*
X124550504Y-85462000D01*
X124229796Y-85525793D01*
X123927695Y-85650927D01*
X123655812Y-85832594D01*
X123424594Y-86063812D01*
X123242927Y-86335695D01*
X123117793Y-86637796D01*
X123054000Y-86958504D01*
X119913000Y-86958504D01*
X119913000Y-85806531D01*
X121129074Y-85806531D01*
X121239921Y-86083714D01*
X121550840Y-86237089D01*
X121885705Y-86326860D01*
X122231650Y-86349576D01*
X122575380Y-86304366D01*
X122903685Y-86192966D01*
X123108079Y-86083714D01*
X123218926Y-85806531D01*
X122174000Y-84761605D01*
X121129074Y-85806531D01*
X119913000Y-85806531D01*
X119913000Y-84639650D01*
X120406424Y-84639650D01*
X120451634Y-84983380D01*
X120563034Y-85311685D01*
X120672286Y-85516079D01*
X120949469Y-85626926D01*
X121994395Y-84582000D01*
X122353605Y-84582000D01*
X123398531Y-85626926D01*
X123675714Y-85516079D01*
X123829089Y-85205160D01*
X123918860Y-84870295D01*
X123934004Y-84639650D01*
X125486424Y-84639650D01*
X125531634Y-84983380D01*
X125643034Y-85311685D01*
X125752286Y-85516079D01*
X126029469Y-85626926D01*
X127074395Y-84582000D01*
X127433605Y-84582000D01*
X128478531Y-85626926D01*
X128755714Y-85516079D01*
X128909089Y-85205160D01*
X128998860Y-84870295D01*
X129021576Y-84524350D01*
X129003334Y-84385650D01*
X158379424Y-84385650D01*
X158424634Y-84729380D01*
X158536034Y-85057685D01*
X158645286Y-85262079D01*
X158922469Y-85372926D01*
X159967395Y-84328000D01*
X160326605Y-84328000D01*
X161371531Y-85372926D01*
X161648714Y-85262079D01*
X161802089Y-84951160D01*
X161891860Y-84616295D01*
X161907004Y-84385650D01*
X163459424Y-84385650D01*
X163504634Y-84729380D01*
X163616034Y-85057685D01*
X163725286Y-85262079D01*
X164002469Y-85372926D01*
X165047395Y-84328000D01*
X165406605Y-84328000D01*
X166451531Y-85372926D01*
X166728714Y-85262079D01*
X166882089Y-84951160D01*
X166971860Y-84616295D01*
X166994576Y-84270350D01*
X166949366Y-83926620D01*
X166837966Y-83598315D01*
X166728714Y-83393921D01*
X166451531Y-83283074D01*
X165406605Y-84328000D01*
X165047395Y-84328000D01*
X164002469Y-83283074D01*
X163725286Y-83393921D01*
X163571911Y-83704840D01*
X163482140Y-84039705D01*
X163459424Y-84385650D01*
X161907004Y-84385650D01*
X161914576Y-84270350D01*
X161869366Y-83926620D01*
X161757966Y-83598315D01*
X161648714Y-83393921D01*
X161371531Y-83283074D01*
X160326605Y-84328000D01*
X159967395Y-84328000D01*
X158922469Y-83283074D01*
X158645286Y-83393921D01*
X158491911Y-83704840D01*
X158402140Y-84039705D01*
X158379424Y-84385650D01*
X129003334Y-84385650D01*
X128976366Y-84180620D01*
X128864966Y-83852315D01*
X128755714Y-83647921D01*
X128478531Y-83537074D01*
X127433605Y-84582000D01*
X127074395Y-84582000D01*
X126029469Y-83537074D01*
X125752286Y-83647921D01*
X125598911Y-83958840D01*
X125509140Y-84293705D01*
X125486424Y-84639650D01*
X123934004Y-84639650D01*
X123941576Y-84524350D01*
X123896366Y-84180620D01*
X123784966Y-83852315D01*
X123675714Y-83647921D01*
X123398531Y-83537074D01*
X122353605Y-84582000D01*
X121994395Y-84582000D01*
X120949469Y-83537074D01*
X120672286Y-83647921D01*
X120518911Y-83958840D01*
X120429140Y-84293705D01*
X120406424Y-84639650D01*
X119913000Y-84639650D01*
X119913000Y-83357469D01*
X121129074Y-83357469D01*
X122174000Y-84402395D01*
X123218926Y-83357469D01*
X126209074Y-83357469D01*
X127254000Y-84402395D01*
X128298926Y-83357469D01*
X128197351Y-83103469D01*
X159102074Y-83103469D01*
X160147000Y-84148395D01*
X161191926Y-83103469D01*
X164182074Y-83103469D01*
X165227000Y-84148395D01*
X166271926Y-83103469D01*
X166161079Y-82826286D01*
X165850160Y-82672911D01*
X165515295Y-82583140D01*
X165169350Y-82560424D01*
X164825620Y-82605634D01*
X164497315Y-82717034D01*
X164292921Y-82826286D01*
X164182074Y-83103469D01*
X161191926Y-83103469D01*
X161081079Y-82826286D01*
X160770160Y-82672911D01*
X160435295Y-82583140D01*
X160089350Y-82560424D01*
X159745620Y-82605634D01*
X159417315Y-82717034D01*
X159212921Y-82826286D01*
X159102074Y-83103469D01*
X128197351Y-83103469D01*
X128188079Y-83080286D01*
X127877160Y-82926911D01*
X127542295Y-82837140D01*
X127196350Y-82814424D01*
X126852620Y-82859634D01*
X126524315Y-82971034D01*
X126319921Y-83080286D01*
X126209074Y-83357469D01*
X123218926Y-83357469D01*
X123108079Y-83080286D01*
X122797160Y-82926911D01*
X122462295Y-82837140D01*
X122116350Y-82814424D01*
X121772620Y-82859634D01*
X121444315Y-82971034D01*
X121239921Y-83080286D01*
X121129074Y-83357469D01*
X119913000Y-83357469D01*
X119913000Y-78142758D01*
X120467000Y-78142758D01*
X120467000Y-78829242D01*
X120600927Y-79502537D01*
X120863633Y-80136766D01*
X121245024Y-80707558D01*
X121730442Y-81192976D01*
X122301234Y-81574367D01*
X122935463Y-81837073D01*
X123608758Y-81971000D01*
X124295242Y-81971000D01*
X124968537Y-81837073D01*
X125602766Y-81574367D01*
X126173558Y-81192976D01*
X126658976Y-80707558D01*
X127040367Y-80136766D01*
X127303073Y-79502537D01*
X127437000Y-78829242D01*
X127437000Y-78142758D01*
X127310691Y-77507758D01*
X160218000Y-77507758D01*
X160218000Y-78194242D01*
X160351927Y-78867537D01*
X160614633Y-79501766D01*
X160996024Y-80072558D01*
X161481442Y-80557976D01*
X162052234Y-80939367D01*
X162686463Y-81202073D01*
X163359758Y-81336000D01*
X164046242Y-81336000D01*
X164719537Y-81202073D01*
X165353766Y-80939367D01*
X165924558Y-80557976D01*
X166409976Y-80072558D01*
X166791367Y-79501766D01*
X167054073Y-78867537D01*
X167188000Y-78194242D01*
X167188000Y-77507758D01*
X167054073Y-76834463D01*
X166791367Y-76200234D01*
X166409976Y-75629442D01*
X165924558Y-75144024D01*
X165353766Y-74762633D01*
X164719537Y-74499927D01*
X164046242Y-74366000D01*
X163359758Y-74366000D01*
X162686463Y-74499927D01*
X162052234Y-74762633D01*
X161481442Y-75144024D01*
X160996024Y-75629442D01*
X160614633Y-76200234D01*
X160351927Y-76834463D01*
X160218000Y-77507758D01*
X127310691Y-77507758D01*
X127303073Y-77469463D01*
X127040367Y-76835234D01*
X126658976Y-76264442D01*
X126173558Y-75779024D01*
X125602766Y-75397633D01*
X124968537Y-75134927D01*
X124295242Y-75001000D01*
X123608758Y-75001000D01*
X122935463Y-75134927D01*
X122301234Y-75397633D01*
X121730442Y-75779024D01*
X121245024Y-76264442D01*
X120863633Y-76835234D01*
X120600927Y-77469463D01*
X120467000Y-78142758D01*
X119913000Y-78142758D01*
X119913000Y-74445296D01*
X167742001Y-74321708D01*
X167742000Y-122657000D01*
G36*
X143530000Y-103571110D02*
G01*
X143530000Y-103759000D01*
X143510000Y-103759000D01*
X143510000Y-103938605D01*
X143495858Y-103952748D01*
X143316253Y-103773143D01*
X143330395Y-103759000D01*
X143316253Y-103744858D01*
X143495858Y-103565253D01*
X143510000Y-103579395D01*
X143524143Y-103565253D01*
X143530000Y-103571110D01*
X143530000Y-103571110D01*
G37*
X143530000Y-103571110D02*
X143530000Y-103759000D01*
X143510000Y-103759000D01*
X143510000Y-103938605D01*
X143495858Y-103952748D01*
X143316253Y-103773143D01*
X143330395Y-103759000D01*
X143316253Y-103744858D01*
X143495858Y-103565253D01*
X143510000Y-103579395D01*
X143524143Y-103565253D01*
X143530000Y-103571110D01*
G36*
X143357058Y-94310512D02*
G01*
X143372865Y-94318961D01*
X143433365Y-94432146D01*
X143537710Y-94559291D01*
X143569574Y-94585441D01*
X146028466Y-97044333D01*
X146005057Y-97282000D01*
X146032764Y-97563309D01*
X146114818Y-97833808D01*
X146248068Y-98083101D01*
X146427392Y-98301608D01*
X146612000Y-98453112D01*
X146612001Y-100788928D01*
X145033000Y-100788928D01*
X144879255Y-100804071D01*
X144731418Y-100848916D01*
X144595171Y-100921742D01*
X144475749Y-101019749D01*
X144377742Y-101139171D01*
X144304916Y-101275418D01*
X144260071Y-101423255D01*
X144253013Y-101494911D01*
X143668750Y-101497000D01*
X143510000Y-101655750D01*
X143510000Y-102422787D01*
X143435527Y-102419610D01*
X143256000Y-102447426D01*
X143256000Y-101655750D01*
X143097250Y-101497000D01*
X142512987Y-101494911D01*
X142505929Y-101423255D01*
X142461084Y-101275418D01*
X142388258Y-101139171D01*
X142290251Y-101019749D01*
X142170829Y-100921742D01*
X142034582Y-100848916D01*
X141886745Y-100804071D01*
X141733000Y-100788928D01*
X140083000Y-100788928D01*
X139929255Y-100804071D01*
X139781418Y-100848916D01*
X139645171Y-100921742D01*
X139525749Y-101019749D01*
X139427742Y-101139171D01*
X139354916Y-101275418D01*
X139310071Y-101423255D01*
X139294928Y-101577000D01*
X139294928Y-101877000D01*
X139310071Y-102030745D01*
X139349886Y-102162000D01*
X138535869Y-102162000D01*
X137931868Y-101558000D01*
X140388432Y-99101437D01*
X140420291Y-99075291D01*
X140524636Y-98948146D01*
X140602172Y-98803087D01*
X140627365Y-98720036D01*
X140751482Y-98707812D01*
X140871180Y-98671502D01*
X140981494Y-98612537D01*
X141078185Y-98533185D01*
X141157537Y-98436494D01*
X141216502Y-98326180D01*
X141252812Y-98206482D01*
X141265072Y-98082000D01*
X141265072Y-96482000D01*
X141252812Y-96357518D01*
X141216502Y-96237820D01*
X141157537Y-96127506D01*
X141078185Y-96030815D01*
X140981494Y-95951463D01*
X140871180Y-95892498D01*
X140751482Y-95856188D01*
X140662000Y-95847375D01*
X140662000Y-94507000D01*
X140728939Y-94507000D01*
X140928898Y-94467226D01*
X141117256Y-94389205D01*
X141240285Y-94307000D01*
X141602779Y-94307000D01*
X141607058Y-94310512D01*
X141758433Y-94391423D01*
X141922684Y-94441248D01*
X142093500Y-94458072D01*
X142668500Y-94458072D01*
X142839316Y-94441248D01*
X143003567Y-94391423D01*
X143154942Y-94310512D01*
X143256000Y-94227575D01*
X143357058Y-94310512D01*
X143357058Y-94310512D01*
G37*
X143357058Y-94310512D02*
X143372865Y-94318961D01*
X143433365Y-94432146D01*
X143537710Y-94559291D01*
X143569574Y-94585441D01*
X146028466Y-97044333D01*
X146005057Y-97282000D01*
X146032764Y-97563309D01*
X146114818Y-97833808D01*
X146248068Y-98083101D01*
X146427392Y-98301608D01*
X146612000Y-98453112D01*
X146612001Y-100788928D01*
X145033000Y-100788928D01*
X144879255Y-100804071D01*
X144731418Y-100848916D01*
X144595171Y-100921742D01*
X144475749Y-101019749D01*
X144377742Y-101139171D01*
X144304916Y-101275418D01*
X144260071Y-101423255D01*
X144253013Y-101494911D01*
X143668750Y-101497000D01*
X143510000Y-101655750D01*
X143510000Y-102422787D01*
X143435527Y-102419610D01*
X143256000Y-102447426D01*
X143256000Y-101655750D01*
X143097250Y-101497000D01*
X142512987Y-101494911D01*
X142505929Y-101423255D01*
X142461084Y-101275418D01*
X142388258Y-101139171D01*
X142290251Y-101019749D01*
X142170829Y-100921742D01*
X142034582Y-100848916D01*
X141886745Y-100804071D01*
X141733000Y-100788928D01*
X140083000Y-100788928D01*
X139929255Y-100804071D01*
X139781418Y-100848916D01*
X139645171Y-100921742D01*
X139525749Y-101019749D01*
X139427742Y-101139171D01*
X139354916Y-101275418D01*
X139310071Y-101423255D01*
X139294928Y-101577000D01*
X139294928Y-101877000D01*
X139310071Y-102030745D01*
X139349886Y-102162000D01*
X138535869Y-102162000D01*
X137931868Y-101558000D01*
X140388432Y-99101437D01*
X140420291Y-99075291D01*
X140524636Y-98948146D01*
X140602172Y-98803087D01*
X140627365Y-98720036D01*
X140751482Y-98707812D01*
X140871180Y-98671502D01*
X140981494Y-98612537D01*
X141078185Y-98533185D01*
X141157537Y-98436494D01*
X141216502Y-98326180D01*
X141252812Y-98206482D01*
X141265072Y-98082000D01*
X141265072Y-96482000D01*
X141252812Y-96357518D01*
X141216502Y-96237820D01*
X141157537Y-96127506D01*
X141078185Y-96030815D01*
X140981494Y-95951463D01*
X140871180Y-95892498D01*
X140751482Y-95856188D01*
X140662000Y-95847375D01*
X140662000Y-94507000D01*
X140728939Y-94507000D01*
X140928898Y-94467226D01*
X141117256Y-94389205D01*
X141240285Y-94307000D01*
X141602779Y-94307000D01*
X141607058Y-94310512D01*
X141758433Y-94391423D01*
X141922684Y-94441248D01*
X142093500Y-94458072D01*
X142668500Y-94458072D01*
X142839316Y-94441248D01*
X143003567Y-94391423D01*
X143154942Y-94310512D01*
X143256000Y-94227575D01*
X143357058Y-94310512D01*
G36*
X143403000Y-88204110D02*
G01*
X143403000Y-88265000D01*
X143383000Y-88265000D01*
X143383000Y-88345890D01*
X143270143Y-88458748D01*
X143256000Y-88444605D01*
X143241858Y-88458748D01*
X143129000Y-88345890D01*
X143129000Y-88265000D01*
X143109000Y-88265000D01*
X143109000Y-88204110D01*
X143241858Y-88071253D01*
X143256000Y-88085395D01*
X143270143Y-88071253D01*
X143403000Y-88204110D01*
X143403000Y-88204110D01*
G37*
X143403000Y-88204110D02*
X143403000Y-88265000D01*
X143383000Y-88265000D01*
X143383000Y-88345890D01*
X143270143Y-88458748D01*
X143256000Y-88444605D01*
X143241858Y-88458748D01*
X143129000Y-88345890D01*
X143129000Y-88265000D01*
X143109000Y-88265000D01*
X143109000Y-88204110D01*
X143241858Y-88071253D01*
X143256000Y-88085395D01*
X143270143Y-88071253D01*
X143403000Y-88204110D01*
M02*
