M48
; DRILL file {KiCad (5.1.2)-2} date 2019/7/6 9:40:42
; FORMAT={-:-/ absolute / inch / decimal}
; #@! TF.CreationDate,2019-07-06T09:40:42+08:00
; #@! TF.GenerationSoftware,Kicad,Pcbnew,(5.1.2)-2
; #@! TF.FileFunction,Plated,1,2,PTH
FMAT,2
INCH
T1C0.0118
T2C0.0157
T3C0.0394
T4C0.0591
T5C0.0669
T6C0.1260
%
G90
G05
T1
X4.75Y-3.025
X4.75Y-3.075
X4.75Y-3.125
X4.75Y-3.175
X4.75Y-3.225
X4.75Y-3.275
X4.9Y-3.025
X4.9Y-3.075
X4.9Y-3.125
X4.9Y-3.175
X4.95Y-3.225
X4.975Y-3.25
X5.0Y-3.275
X5.075Y-3.175
X5.075Y-3.375
X5.125Y-3.175
X5.15Y-3.175
X5.15Y-3.375
X5.2Y-3.375
X5.225Y-3.175
X5.225Y-3.725
X5.25Y-3.375
X5.25Y-3.75
X5.275Y-3.175
X5.3Y-2.925
X5.3Y-2.95
X5.3Y-2.975
X5.3Y-3.025
X5.3Y-3.075
X5.3Y-3.1
X5.3Y-3.15
X5.3Y-3.55
X5.3Y-3.6
X5.3Y-3.625
X5.3Y-3.75
X5.325Y-3.225
X5.325Y-3.375
X5.325Y-3.65
X5.35Y-2.875
X5.35Y-3.225
X5.375Y-2.85
X5.375Y-3.225
X5.375Y-3.375
X5.375Y-3.65
X5.375Y-3.75
X5.375Y-3.75
X5.4Y-3.225
X5.425Y-3.2
X5.425Y-3.375
X5.425Y-3.65
X5.425Y-3.65
X5.45Y-3.75
X5.475Y-3.65
X5.5Y-3.375
X5.5Y-3.65
X5.5Y-3.75
X5.525Y-3.0
X5.525Y-3.05
X5.525Y-3.1
X5.525Y-3.65
X5.55Y-3.15
X5.55Y-3.375
X5.55Y-3.6
X5.575Y-3.175
X5.575Y-3.525
X5.575Y-3.55
X5.6Y-3.375
X5.625Y-3.175
X5.625Y-3.5
X5.6565Y-3.4685
X5.675Y-3.175
X5.85Y-3.175
X5.9Y-3.725
X5.925Y-3.175
X5.95Y-3.675
X5.975Y-3.175
X5.975Y-3.55
X6.0Y-3.225
X6.0Y-3.4
X6.0Y-3.675
X6.025Y-3.225
X6.025Y-3.4
X6.025Y-3.525
X6.025Y-3.675
X6.05Y-3.4
X6.075Y-3.025
X6.075Y-3.05
X6.075Y-3.075
X6.075Y-3.225
X6.075Y-3.4
X6.1Y-3.15
X6.1Y-3.175
X6.1Y-3.525
X6.1Y-3.525
X6.15Y-3.525
X6.2Y-3.575
X6.2Y-3.625
X6.2Y-3.675
X6.2Y-3.7
X6.225Y-3.05
X6.25Y-3.075
X6.275Y-3.1
X6.3Y-3.125
X6.3Y-3.55
X6.325Y-3.175
X6.325Y-3.225
X6.325Y-3.25
X6.325Y-3.55
X6.35Y-3.275
X6.369Y-3.381
X6.3831Y-3.3169
X6.4Y-3.6
X6.425Y-3.375
X6.475Y-3.375
X6.475Y-3.6
X6.5Y-3.325
X6.525Y-3.05
X6.525Y-3.125
X6.525Y-3.15
X6.525Y-3.2
X6.525Y-3.25
X6.525Y-3.3
X6.525Y-3.6
X6.55Y-3.475
X6.55Y-3.5
X6.55Y-3.55
X6.6Y-3.425
X6.625Y-3.025
X6.625Y-3.075
X6.625Y-3.15
X6.625Y-3.225
X6.625Y-3.3
X6.625Y-3.35
T2
X5.7Y-3.5
X5.8Y-3.35
T3
X5.6Y-3.7
X5.7Y-3.7
X5.8Y-3.7
T4
X5.525Y-2.85
X6.125Y-2.85
X6.575Y-2.85
X5.05Y-2.85
T5
X5.425Y-2.75
X5.425Y-2.95
X5.625Y-2.75
X5.625Y-2.95
X6.025Y-2.75
X6.025Y-2.95
X6.225Y-2.75
X6.225Y-2.95
X6.475Y-2.75
X6.475Y-2.95
X6.675Y-2.75
X6.675Y-2.95
X4.95Y-2.75
X4.95Y-2.95
X5.15Y-2.75
X5.15Y-2.95
T6
X6.9Y-2.8
X4.725Y-3.65
X4.725Y-2.825
X6.9Y-3.65
T0
M30
