M48
; DRILL file {KiCad (5.1.2)-2} date 2019/7/18 9:27:20
; FORMAT={-:-/ absolute / inch / decimal}
; #@! TF.CreationDate,2019-07-18T09:27:20+08:00
; #@! TF.GenerationSoftware,Kicad,Pcbnew,(5.1.2)-2
; #@! TF.FileFunction,Plated,1,2,PTH
FMAT,2
INCH
T1C0.0157
T2C0.0276
T3C0.0374
T4C0.0394
T5C0.0591
T6C0.0669
T7C0.1260
%
G90
G05
T1
X4.1775Y-5.4875
X4.185Y-6.02
X4.2025Y-5.66
X4.205Y-4.865
X4.2478Y-5.8297
X4.26Y-5.42
X4.26Y-5.485
X4.2625Y-5.7275
X4.265Y-5.655
X4.275Y-5.3675
X4.28Y-5.2775
X4.2925Y-5.1075
X4.295Y-5.1925
X4.3375Y-4.8675
X4.4075Y-6.0175
X4.48Y-5.28
X4.5Y-4.865
X4.5925Y-5.41
X4.6025Y-5.7425
X4.63Y-6.01
X4.6325Y-5.6375
X4.64Y-5.345
X4.64Y-5.455
X4.6475Y-5.1925
X4.6525Y-5.275
X4.67Y-4.86
X4.69Y-5.505
X4.695Y-5.405
X4.7125Y-5.19
X4.7225Y-5.2675
X4.7314Y-5.7189
X4.7375Y-5.45
X4.795Y-5.1925
X4.8025Y-5.27
X4.8056Y-5.81
X4.83Y-6.01
X4.84Y-4.86
X4.85Y-5.885
X4.8625Y-5.6375
X4.8825Y-5.1925
X4.885Y-5.2675
X4.8925Y-5.5725
X4.9025Y-5.885
X4.91Y-5.655
X4.9843Y-5.1907
X4.9875Y-5.2625
X5.025Y-5.775
X5.0275Y-5.85
X5.03Y-4.86
X5.05Y-5.455
X5.08Y-5.3225
X5.08Y-5.3925
X5.09Y-5.7575
X5.1125Y-6.005
X5.1581Y-5.3269
X5.1581Y-5.4144
X5.195Y-5.7475
X5.2125Y-5.41
X5.215Y-5.345
X5.325Y-5.7525
X5.35Y-6.0075
X5.3525Y-5.25
X5.365Y-5.1575
X5.365Y-5.63
X5.366Y-5.4785
X5.3775Y-5.41
X5.38Y-5.3425
X5.4Y-5.57
X5.455Y-5.515
X5.4675Y-5.7575
X5.4775Y-5.1525
X5.5175Y-5.695
X5.54Y-5.4675
X5.57Y-6.0075
X5.6075Y-5.15
T2
X4.1025Y-5.33
X5.61Y-5.32
T3
X4.775Y-5.075
X4.8734Y-5.075
X4.9719Y-5.075
T4
X4.7675Y-5.3475
X4.8675Y-5.3475
X4.9675Y-5.3475
T5
X5.7325Y-5.5675
X3.995Y-5.565
T6
X5.6325Y-5.4675
X5.6325Y-5.6675
X5.8325Y-5.4675
X5.8325Y-5.6675
X3.895Y-5.465
X3.895Y-5.665
X4.095Y-5.465
X4.095Y-5.665
T7
X3.9775Y-5.9275
X5.7475Y-5.9425
X3.9575Y-4.9625
X5.74Y-4.98
T0
M30
