G04 #@! TF.GenerationSoftware,KiCad,Pcbnew,(5.1.2)-2*
G04 #@! TF.CreationDate,2019-07-18T09:27:17+08:00*
G04 #@! TF.ProjectId,single_AM_eval_board,73696e67-6c65-45f4-914d-5f6576616c5f,rev?*
G04 #@! TF.SameCoordinates,Original*
G04 #@! TF.FileFunction,Copper,L2,Bot*
G04 #@! TF.FilePolarity,Positive*
%FSLAX46Y46*%
G04 Gerber Fmt 4.6, Leading zero omitted, Abs format (unit mm)*
G04 Created by KiCad (PCBNEW (5.1.2)-2) date 2019-07-18 09:27:17*
%MOMM*%
%LPD*%
G04 APERTURE LIST*
%ADD10C,5.700000*%
%ADD11R,1.000000X1.000000*%
%ADD12C,2.250000*%
%ADD13C,2.050000*%
%ADD14C,0.100000*%
%ADD15C,1.700000*%
%ADD16O,1.700000X1.950000*%
%ADD17R,1.700000X1.700000*%
%ADD18O,1.700000X1.700000*%
%ADD19C,0.800000*%
%ADD20C,0.635000*%
%ADD21C,0.254000*%
G04 APERTURE END LIST*
D10*
X145986500Y-150939500D03*
X145796000Y-126492000D03*
X101028500Y-150558500D03*
X100520500Y-126047500D03*
D11*
X142494000Y-135128000D03*
X104203500Y-135382000D03*
D12*
X98933000Y-143891000D03*
X98933000Y-138811000D03*
X104013000Y-138811000D03*
X104013000Y-143891000D03*
D13*
X101473000Y-141351000D03*
D14*
G36*
X121909504Y-127931204D02*
G01*
X121933773Y-127934804D01*
X121957571Y-127940765D01*
X121980671Y-127949030D01*
X122002849Y-127959520D01*
X122023893Y-127972133D01*
X122043598Y-127986747D01*
X122061777Y-128003223D01*
X122078253Y-128021402D01*
X122092867Y-128041107D01*
X122105480Y-128062151D01*
X122115970Y-128084329D01*
X122124235Y-128107429D01*
X122130196Y-128131227D01*
X122133796Y-128155496D01*
X122135000Y-128180000D01*
X122135000Y-129630000D01*
X122133796Y-129654504D01*
X122130196Y-129678773D01*
X122124235Y-129702571D01*
X122115970Y-129725671D01*
X122105480Y-129747849D01*
X122092867Y-129768893D01*
X122078253Y-129788598D01*
X122061777Y-129806777D01*
X122043598Y-129823253D01*
X122023893Y-129837867D01*
X122002849Y-129850480D01*
X121980671Y-129860970D01*
X121957571Y-129869235D01*
X121933773Y-129875196D01*
X121909504Y-129878796D01*
X121885000Y-129880000D01*
X120685000Y-129880000D01*
X120660496Y-129878796D01*
X120636227Y-129875196D01*
X120612429Y-129869235D01*
X120589329Y-129860970D01*
X120567151Y-129850480D01*
X120546107Y-129837867D01*
X120526402Y-129823253D01*
X120508223Y-129806777D01*
X120491747Y-129788598D01*
X120477133Y-129768893D01*
X120464520Y-129747849D01*
X120454030Y-129725671D01*
X120445765Y-129702571D01*
X120439804Y-129678773D01*
X120436204Y-129654504D01*
X120435000Y-129630000D01*
X120435000Y-128180000D01*
X120436204Y-128155496D01*
X120439804Y-128131227D01*
X120445765Y-128107429D01*
X120454030Y-128084329D01*
X120464520Y-128062151D01*
X120477133Y-128041107D01*
X120491747Y-128021402D01*
X120508223Y-128003223D01*
X120526402Y-127986747D01*
X120546107Y-127972133D01*
X120567151Y-127959520D01*
X120589329Y-127949030D01*
X120612429Y-127940765D01*
X120636227Y-127934804D01*
X120660496Y-127931204D01*
X120685000Y-127930000D01*
X121885000Y-127930000D01*
X121909504Y-127931204D01*
X121909504Y-127931204D01*
G37*
D15*
X121285000Y-128905000D03*
D16*
X123785000Y-128905000D03*
X126285000Y-128905000D03*
D13*
X145605500Y-141414500D03*
D12*
X148145500Y-143954500D03*
X148145500Y-138874500D03*
X143065500Y-138874500D03*
X143065500Y-143954500D03*
D17*
X126174500Y-135826500D03*
D18*
X123634500Y-135826500D03*
X121094500Y-135826500D03*
D19*
X123507500Y-143192500D03*
X117665500Y-143192500D03*
X106807000Y-123571000D03*
X110172500Y-123634500D03*
X114300000Y-123571000D03*
X118618000Y-123444000D03*
X122936000Y-123444000D03*
X127762000Y-123444000D03*
X118046500Y-131889500D03*
X119697500Y-131826000D03*
X121793000Y-131889500D03*
X124015500Y-131889500D03*
X126600000Y-131845000D03*
X118173500Y-133985000D03*
X119951500Y-133794500D03*
X121983500Y-133858000D03*
X124079000Y-133794500D03*
X126682500Y-133667500D03*
X129032000Y-135191500D03*
X129032000Y-136969500D03*
X128270000Y-138557000D03*
X131014500Y-137527000D03*
X131014500Y-135304500D03*
X132461000Y-135763000D03*
X132397500Y-137414000D03*
X136271000Y-131000500D03*
X139128500Y-130873500D03*
X142430500Y-130810000D03*
X135953500Y-133350000D03*
X136652000Y-135699500D03*
X136588500Y-137414000D03*
X136295750Y-139153250D03*
X140716000Y-138874500D03*
X138557000Y-140081000D03*
X137160000Y-141478000D03*
X136271000Y-143002000D03*
X106299000Y-152908000D03*
X111950500Y-152844500D03*
X117602000Y-152654000D03*
X122682000Y-152654000D03*
X129857500Y-152527000D03*
X127635000Y-146685000D03*
X129286000Y-146240500D03*
X131953000Y-145986500D03*
X135255000Y-146113500D03*
X138874500Y-146240500D03*
X140144500Y-144653000D03*
X127698500Y-148590000D03*
X124523500Y-149479000D03*
X123190000Y-149479000D03*
X106108500Y-139382500D03*
X108204000Y-139319000D03*
X108204000Y-137668000D03*
X108585000Y-136334500D03*
X108712000Y-134048500D03*
X109029500Y-129730500D03*
X109093000Y-131889500D03*
X116649500Y-137414000D03*
X117856000Y-138557000D03*
X119126000Y-139827000D03*
X120332500Y-138430000D03*
X119253000Y-137287000D03*
X117856000Y-135763000D03*
X108331000Y-143637000D03*
X108267500Y-145478500D03*
X107893500Y-148075000D03*
X106743500Y-143764000D03*
X135890000Y-152590500D03*
X141478000Y-152590500D03*
X113792000Y-134112000D03*
X120178541Y-145261041D03*
X116903500Y-145859500D03*
X122061500Y-147574000D03*
X124269500Y-141541500D03*
X124714000Y-143637000D03*
D20*
X123507500Y-143192500D02*
X117665500Y-143192500D01*
X118376139Y-145261041D02*
X120178541Y-145261041D01*
X113792000Y-134112000D02*
X113792000Y-140676902D01*
X113792000Y-140676902D02*
X118376139Y-145261041D01*
X116903500Y-145859500D02*
X118618000Y-147574000D01*
X118618000Y-147574000D02*
X122061500Y-147574000D01*
X124269500Y-141541500D02*
X124714000Y-141986000D01*
X124714000Y-141986000D02*
X124714000Y-143637000D01*
D21*
G36*
X150191000Y-154572500D02*
G01*
X96697000Y-154572500D01*
X96697000Y-150215258D01*
X97543500Y-150215258D01*
X97543500Y-150901742D01*
X97677427Y-151575037D01*
X97940133Y-152209266D01*
X98321524Y-152780058D01*
X98806942Y-153265476D01*
X99377734Y-153646867D01*
X100011963Y-153909573D01*
X100685258Y-154043500D01*
X101371742Y-154043500D01*
X102045037Y-153909573D01*
X102679266Y-153646867D01*
X103250058Y-153265476D01*
X103735476Y-152780058D01*
X104116867Y-152209266D01*
X104379573Y-151575037D01*
X104513500Y-150901742D01*
X104513500Y-150596258D01*
X142501500Y-150596258D01*
X142501500Y-151282742D01*
X142635427Y-151956037D01*
X142898133Y-152590266D01*
X143279524Y-153161058D01*
X143764942Y-153646476D01*
X144335734Y-154027867D01*
X144969963Y-154290573D01*
X145643258Y-154424500D01*
X146329742Y-154424500D01*
X147003037Y-154290573D01*
X147637266Y-154027867D01*
X148208058Y-153646476D01*
X148693476Y-153161058D01*
X149074867Y-152590266D01*
X149337573Y-151956037D01*
X149471500Y-151282742D01*
X149471500Y-150596258D01*
X149337573Y-149922963D01*
X149074867Y-149288734D01*
X148693476Y-148717942D01*
X148208058Y-148232524D01*
X147637266Y-147851133D01*
X147003037Y-147588427D01*
X146329742Y-147454500D01*
X145643258Y-147454500D01*
X144969963Y-147588427D01*
X144335734Y-147851133D01*
X143764942Y-148232524D01*
X143279524Y-148717942D01*
X142898133Y-149288734D01*
X142635427Y-149922963D01*
X142501500Y-150596258D01*
X104513500Y-150596258D01*
X104513500Y-150215258D01*
X104379573Y-149541963D01*
X104116867Y-148907734D01*
X103735476Y-148336942D01*
X103250058Y-147851524D01*
X102679266Y-147470133D01*
X102045037Y-147207427D01*
X101371742Y-147073500D01*
X100685258Y-147073500D01*
X100011963Y-147207427D01*
X99377734Y-147470133D01*
X98806942Y-147851524D01*
X98321524Y-148336942D01*
X97940133Y-148907734D01*
X97677427Y-149541963D01*
X97543500Y-150215258D01*
X96697000Y-150215258D01*
X96697000Y-145115531D01*
X97888074Y-145115531D01*
X97998921Y-145392714D01*
X98309840Y-145546089D01*
X98644705Y-145635860D01*
X98990650Y-145658576D01*
X99334380Y-145613366D01*
X99662685Y-145501966D01*
X99867079Y-145392714D01*
X99977926Y-145115531D01*
X102968074Y-145115531D01*
X103078921Y-145392714D01*
X103389840Y-145546089D01*
X103724705Y-145635860D01*
X104070650Y-145658576D01*
X104414380Y-145613366D01*
X104742685Y-145501966D01*
X104947079Y-145392714D01*
X105057926Y-145115531D01*
X104013000Y-144070605D01*
X102968074Y-145115531D01*
X99977926Y-145115531D01*
X98933000Y-144070605D01*
X97888074Y-145115531D01*
X96697000Y-145115531D01*
X96697000Y-143948650D01*
X97165424Y-143948650D01*
X97210634Y-144292380D01*
X97322034Y-144620685D01*
X97431286Y-144825079D01*
X97708469Y-144935926D01*
X98753395Y-143891000D01*
X99112605Y-143891000D01*
X100157531Y-144935926D01*
X100434714Y-144825079D01*
X100588089Y-144514160D01*
X100677860Y-144179295D01*
X100693004Y-143948650D01*
X102245424Y-143948650D01*
X102290634Y-144292380D01*
X102402034Y-144620685D01*
X102511286Y-144825079D01*
X102788469Y-144935926D01*
X103833395Y-143891000D01*
X104192605Y-143891000D01*
X105237531Y-144935926D01*
X105514714Y-144825079D01*
X105668089Y-144514160D01*
X105757860Y-144179295D01*
X105780576Y-143833350D01*
X105735366Y-143489620D01*
X105623966Y-143161315D01*
X105514714Y-142956921D01*
X105237531Y-142846074D01*
X104192605Y-143891000D01*
X103833395Y-143891000D01*
X102788469Y-142846074D01*
X102511286Y-142956921D01*
X102357911Y-143267840D01*
X102268140Y-143602705D01*
X102245424Y-143948650D01*
X100693004Y-143948650D01*
X100700576Y-143833350D01*
X100655366Y-143489620D01*
X100543966Y-143161315D01*
X100434714Y-142956921D01*
X100157531Y-142846074D01*
X99112605Y-143891000D01*
X98753395Y-143891000D01*
X97708469Y-142846074D01*
X97431286Y-142956921D01*
X97277911Y-143267840D01*
X97188140Y-143602705D01*
X97165424Y-143948650D01*
X96697000Y-143948650D01*
X96697000Y-142666469D01*
X97888074Y-142666469D01*
X98933000Y-143711395D01*
X99977926Y-142666469D01*
X99867079Y-142389286D01*
X99556160Y-142235911D01*
X99221295Y-142146140D01*
X98875350Y-142123424D01*
X98531620Y-142168634D01*
X98203315Y-142280034D01*
X97998921Y-142389286D01*
X97888074Y-142666469D01*
X96697000Y-142666469D01*
X96697000Y-141187504D01*
X99813000Y-141187504D01*
X99813000Y-141514496D01*
X99876793Y-141835204D01*
X100001927Y-142137305D01*
X100183594Y-142409188D01*
X100414812Y-142640406D01*
X100686695Y-142822073D01*
X100988796Y-142947207D01*
X101309504Y-143011000D01*
X101636496Y-143011000D01*
X101957204Y-142947207D01*
X102259305Y-142822073D01*
X102492182Y-142666469D01*
X102968074Y-142666469D01*
X104013000Y-143711395D01*
X105057926Y-142666469D01*
X104947079Y-142389286D01*
X104636160Y-142235911D01*
X104301295Y-142146140D01*
X103955350Y-142123424D01*
X103611620Y-142168634D01*
X103283315Y-142280034D01*
X103078921Y-142389286D01*
X102968074Y-142666469D01*
X102492182Y-142666469D01*
X102531188Y-142640406D01*
X102762406Y-142409188D01*
X102944073Y-142137305D01*
X103069207Y-141835204D01*
X103133000Y-141514496D01*
X103133000Y-141187504D01*
X103069207Y-140866796D01*
X102944073Y-140564695D01*
X102762406Y-140292812D01*
X102531188Y-140061594D01*
X102492183Y-140035531D01*
X102968074Y-140035531D01*
X103078921Y-140312714D01*
X103389840Y-140466089D01*
X103724705Y-140555860D01*
X104070650Y-140578576D01*
X104414380Y-140533366D01*
X104742685Y-140421966D01*
X104947079Y-140312714D01*
X105057926Y-140035531D01*
X104013000Y-138990605D01*
X102968074Y-140035531D01*
X102492183Y-140035531D01*
X102259305Y-139879927D01*
X101957204Y-139754793D01*
X101636496Y-139691000D01*
X101309504Y-139691000D01*
X100988796Y-139754793D01*
X100686695Y-139879927D01*
X100414812Y-140061594D01*
X100183594Y-140292812D01*
X100001927Y-140564695D01*
X99876793Y-140866796D01*
X99813000Y-141187504D01*
X96697000Y-141187504D01*
X96697000Y-140035531D01*
X97888074Y-140035531D01*
X97998921Y-140312714D01*
X98309840Y-140466089D01*
X98644705Y-140555860D01*
X98990650Y-140578576D01*
X99334380Y-140533366D01*
X99662685Y-140421966D01*
X99867079Y-140312714D01*
X99977926Y-140035531D01*
X98933000Y-138990605D01*
X97888074Y-140035531D01*
X96697000Y-140035531D01*
X96697000Y-138868650D01*
X97165424Y-138868650D01*
X97210634Y-139212380D01*
X97322034Y-139540685D01*
X97431286Y-139745079D01*
X97708469Y-139855926D01*
X98753395Y-138811000D01*
X99112605Y-138811000D01*
X100157531Y-139855926D01*
X100434714Y-139745079D01*
X100588089Y-139434160D01*
X100677860Y-139099295D01*
X100693004Y-138868650D01*
X102245424Y-138868650D01*
X102290634Y-139212380D01*
X102402034Y-139540685D01*
X102511286Y-139745079D01*
X102788469Y-139855926D01*
X103833395Y-138811000D01*
X104192605Y-138811000D01*
X105237531Y-139855926D01*
X105514714Y-139745079D01*
X105668089Y-139434160D01*
X105757860Y-139099295D01*
X105780576Y-138753350D01*
X105735366Y-138409620D01*
X105623966Y-138081315D01*
X105514714Y-137876921D01*
X105237531Y-137766074D01*
X104192605Y-138811000D01*
X103833395Y-138811000D01*
X102788469Y-137766074D01*
X102511286Y-137876921D01*
X102357911Y-138187840D01*
X102268140Y-138522705D01*
X102245424Y-138868650D01*
X100693004Y-138868650D01*
X100700576Y-138753350D01*
X100655366Y-138409620D01*
X100543966Y-138081315D01*
X100434714Y-137876921D01*
X100157531Y-137766074D01*
X99112605Y-138811000D01*
X98753395Y-138811000D01*
X97708469Y-137766074D01*
X97431286Y-137876921D01*
X97277911Y-138187840D01*
X97188140Y-138522705D01*
X97165424Y-138868650D01*
X96697000Y-138868650D01*
X96697000Y-137586469D01*
X97888074Y-137586469D01*
X98933000Y-138631395D01*
X99977926Y-137586469D01*
X102968074Y-137586469D01*
X104013000Y-138631395D01*
X105057926Y-137586469D01*
X104947079Y-137309286D01*
X104636160Y-137155911D01*
X104301295Y-137066140D01*
X103955350Y-137043424D01*
X103611620Y-137088634D01*
X103283315Y-137200034D01*
X103078921Y-137309286D01*
X102968074Y-137586469D01*
X99977926Y-137586469D01*
X99867079Y-137309286D01*
X99556160Y-137155911D01*
X99221295Y-137066140D01*
X98875350Y-137043424D01*
X98531620Y-137088634D01*
X98203315Y-137200034D01*
X97998921Y-137309286D01*
X97888074Y-137586469D01*
X96697000Y-137586469D01*
X96697000Y-135882000D01*
X103065428Y-135882000D01*
X103077688Y-136006482D01*
X103113998Y-136126180D01*
X103172963Y-136236494D01*
X103252315Y-136333185D01*
X103349006Y-136412537D01*
X103459320Y-136471502D01*
X103579018Y-136507812D01*
X103703500Y-136520072D01*
X103917750Y-136517000D01*
X104076500Y-136358250D01*
X104076500Y-135509000D01*
X104330500Y-135509000D01*
X104330500Y-136358250D01*
X104489250Y-136517000D01*
X104703500Y-136520072D01*
X104827982Y-136507812D01*
X104947680Y-136471502D01*
X105057994Y-136412537D01*
X105154685Y-136333185D01*
X105234037Y-136236494D01*
X105293002Y-136126180D01*
X105329312Y-136006482D01*
X105341572Y-135882000D01*
X105338500Y-135667750D01*
X105179750Y-135509000D01*
X104330500Y-135509000D01*
X104076500Y-135509000D01*
X103227250Y-135509000D01*
X103068500Y-135667750D01*
X103065428Y-135882000D01*
X96697000Y-135882000D01*
X96697000Y-134882000D01*
X103065428Y-134882000D01*
X103068500Y-135096250D01*
X103227250Y-135255000D01*
X104076500Y-135255000D01*
X104076500Y-134405750D01*
X104330500Y-134405750D01*
X104330500Y-135255000D01*
X105179750Y-135255000D01*
X105338500Y-135096250D01*
X105341572Y-134882000D01*
X105329312Y-134757518D01*
X105293002Y-134637820D01*
X105234037Y-134527506D01*
X105154685Y-134430815D01*
X105057994Y-134351463D01*
X104947680Y-134292498D01*
X104827982Y-134256188D01*
X104703500Y-134243928D01*
X104489250Y-134247000D01*
X104330500Y-134405750D01*
X104076500Y-134405750D01*
X103917750Y-134247000D01*
X103703500Y-134243928D01*
X103579018Y-134256188D01*
X103459320Y-134292498D01*
X103349006Y-134351463D01*
X103252315Y-134430815D01*
X103172963Y-134527506D01*
X103113998Y-134637820D01*
X103077688Y-134757518D01*
X103065428Y-134882000D01*
X96697000Y-134882000D01*
X96697000Y-134010061D01*
X112757000Y-134010061D01*
X112757000Y-134213939D01*
X112796774Y-134413898D01*
X112839500Y-134517047D01*
X112839501Y-140630107D01*
X112834892Y-140676902D01*
X112853283Y-140863624D01*
X112907749Y-141043171D01*
X112996194Y-141208642D01*
X113055580Y-141281004D01*
X113115223Y-141353680D01*
X113151565Y-141383505D01*
X116627235Y-144859175D01*
X116601602Y-144864274D01*
X116413244Y-144942295D01*
X116243726Y-145055563D01*
X116099563Y-145199726D01*
X115986295Y-145369244D01*
X115908274Y-145557602D01*
X115868500Y-145757561D01*
X115868500Y-145961439D01*
X115908274Y-146161398D01*
X115986295Y-146349756D01*
X116099563Y-146519274D01*
X116243726Y-146663437D01*
X116413244Y-146776705D01*
X116516393Y-146819431D01*
X117911397Y-148214436D01*
X117941222Y-148250778D01*
X118086259Y-148369806D01*
X118251731Y-148458252D01*
X118431277Y-148512717D01*
X118617999Y-148531108D01*
X118664784Y-148526500D01*
X121656453Y-148526500D01*
X121759602Y-148569226D01*
X121959561Y-148609000D01*
X122163439Y-148609000D01*
X122363398Y-148569226D01*
X122551756Y-148491205D01*
X122721274Y-148377937D01*
X122865437Y-148233774D01*
X122978705Y-148064256D01*
X123056726Y-147875898D01*
X123096500Y-147675939D01*
X123096500Y-147472061D01*
X123056726Y-147272102D01*
X122978705Y-147083744D01*
X122865437Y-146914226D01*
X122721274Y-146770063D01*
X122551756Y-146656795D01*
X122363398Y-146578774D01*
X122163439Y-146539000D01*
X121959561Y-146539000D01*
X121759602Y-146578774D01*
X121656453Y-146621500D01*
X119012539Y-146621500D01*
X118604580Y-146213541D01*
X119773494Y-146213541D01*
X119876643Y-146256267D01*
X120076602Y-146296041D01*
X120280480Y-146296041D01*
X120480439Y-146256267D01*
X120668797Y-146178246D01*
X120838315Y-146064978D01*
X120982478Y-145920815D01*
X121095746Y-145751297D01*
X121173767Y-145562939D01*
X121213541Y-145362980D01*
X121213541Y-145179031D01*
X142020574Y-145179031D01*
X142131421Y-145456214D01*
X142442340Y-145609589D01*
X142777205Y-145699360D01*
X143123150Y-145722076D01*
X143466880Y-145676866D01*
X143795185Y-145565466D01*
X143999579Y-145456214D01*
X144110426Y-145179031D01*
X147100574Y-145179031D01*
X147211421Y-145456214D01*
X147522340Y-145609589D01*
X147857205Y-145699360D01*
X148203150Y-145722076D01*
X148546880Y-145676866D01*
X148875185Y-145565466D01*
X149079579Y-145456214D01*
X149190426Y-145179031D01*
X148145500Y-144134105D01*
X147100574Y-145179031D01*
X144110426Y-145179031D01*
X143065500Y-144134105D01*
X142020574Y-145179031D01*
X121213541Y-145179031D01*
X121213541Y-145159102D01*
X121173767Y-144959143D01*
X121095746Y-144770785D01*
X120982478Y-144601267D01*
X120838315Y-144457104D01*
X120668797Y-144343836D01*
X120480439Y-144265815D01*
X120280480Y-144226041D01*
X120076602Y-144226041D01*
X119876643Y-144265815D01*
X119773494Y-144308541D01*
X118770677Y-144308541D01*
X118607136Y-144145000D01*
X123102453Y-144145000D01*
X123205602Y-144187726D01*
X123405561Y-144227500D01*
X123609439Y-144227500D01*
X123809398Y-144187726D01*
X123831173Y-144178706D01*
X123910063Y-144296774D01*
X124054226Y-144440937D01*
X124223744Y-144554205D01*
X124412102Y-144632226D01*
X124612061Y-144672000D01*
X124815939Y-144672000D01*
X125015898Y-144632226D01*
X125204256Y-144554205D01*
X125373774Y-144440937D01*
X125517937Y-144296774D01*
X125631205Y-144127256D01*
X125678883Y-144012150D01*
X141297924Y-144012150D01*
X141343134Y-144355880D01*
X141454534Y-144684185D01*
X141563786Y-144888579D01*
X141840969Y-144999426D01*
X142885895Y-143954500D01*
X143245105Y-143954500D01*
X144290031Y-144999426D01*
X144567214Y-144888579D01*
X144720589Y-144577660D01*
X144810360Y-144242795D01*
X144825504Y-144012150D01*
X146377924Y-144012150D01*
X146423134Y-144355880D01*
X146534534Y-144684185D01*
X146643786Y-144888579D01*
X146920969Y-144999426D01*
X147965895Y-143954500D01*
X148325105Y-143954500D01*
X149370031Y-144999426D01*
X149647214Y-144888579D01*
X149800589Y-144577660D01*
X149890360Y-144242795D01*
X149913076Y-143896850D01*
X149867866Y-143553120D01*
X149756466Y-143224815D01*
X149647214Y-143020421D01*
X149370031Y-142909574D01*
X148325105Y-143954500D01*
X147965895Y-143954500D01*
X146920969Y-142909574D01*
X146643786Y-143020421D01*
X146490411Y-143331340D01*
X146400640Y-143666205D01*
X146377924Y-144012150D01*
X144825504Y-144012150D01*
X144833076Y-143896850D01*
X144787866Y-143553120D01*
X144676466Y-143224815D01*
X144567214Y-143020421D01*
X144290031Y-142909574D01*
X143245105Y-143954500D01*
X142885895Y-143954500D01*
X141840969Y-142909574D01*
X141563786Y-143020421D01*
X141410411Y-143331340D01*
X141320640Y-143666205D01*
X141297924Y-144012150D01*
X125678883Y-144012150D01*
X125709226Y-143938898D01*
X125749000Y-143738939D01*
X125749000Y-143535061D01*
X125709226Y-143335102D01*
X125666500Y-143231953D01*
X125666500Y-142729969D01*
X142020574Y-142729969D01*
X143065500Y-143774895D01*
X144110426Y-142729969D01*
X143999579Y-142452786D01*
X143688660Y-142299411D01*
X143353795Y-142209640D01*
X143007850Y-142186924D01*
X142664120Y-142232134D01*
X142335815Y-142343534D01*
X142131421Y-142452786D01*
X142020574Y-142729969D01*
X125666500Y-142729969D01*
X125666500Y-142032785D01*
X125671108Y-141986000D01*
X125652717Y-141799277D01*
X125598252Y-141619731D01*
X125509806Y-141454259D01*
X125390778Y-141309222D01*
X125354431Y-141279393D01*
X125326042Y-141251004D01*
X143945500Y-141251004D01*
X143945500Y-141577996D01*
X144009293Y-141898704D01*
X144134427Y-142200805D01*
X144316094Y-142472688D01*
X144547312Y-142703906D01*
X144819195Y-142885573D01*
X145121296Y-143010707D01*
X145442004Y-143074500D01*
X145768996Y-143074500D01*
X146089704Y-143010707D01*
X146391805Y-142885573D01*
X146624682Y-142729969D01*
X147100574Y-142729969D01*
X148145500Y-143774895D01*
X149190426Y-142729969D01*
X149079579Y-142452786D01*
X148768660Y-142299411D01*
X148433795Y-142209640D01*
X148087850Y-142186924D01*
X147744120Y-142232134D01*
X147415815Y-142343534D01*
X147211421Y-142452786D01*
X147100574Y-142729969D01*
X146624682Y-142729969D01*
X146663688Y-142703906D01*
X146894906Y-142472688D01*
X147076573Y-142200805D01*
X147201707Y-141898704D01*
X147265500Y-141577996D01*
X147265500Y-141251004D01*
X147201707Y-140930296D01*
X147076573Y-140628195D01*
X146894906Y-140356312D01*
X146663688Y-140125094D01*
X146624683Y-140099031D01*
X147100574Y-140099031D01*
X147211421Y-140376214D01*
X147522340Y-140529589D01*
X147857205Y-140619360D01*
X148203150Y-140642076D01*
X148546880Y-140596866D01*
X148875185Y-140485466D01*
X149079579Y-140376214D01*
X149190426Y-140099031D01*
X148145500Y-139054105D01*
X147100574Y-140099031D01*
X146624683Y-140099031D01*
X146391805Y-139943427D01*
X146089704Y-139818293D01*
X145768996Y-139754500D01*
X145442004Y-139754500D01*
X145121296Y-139818293D01*
X144819195Y-139943427D01*
X144547312Y-140125094D01*
X144316094Y-140356312D01*
X144134427Y-140628195D01*
X144009293Y-140930296D01*
X143945500Y-141251004D01*
X125326042Y-141251004D01*
X125229431Y-141154393D01*
X125186705Y-141051244D01*
X125073437Y-140881726D01*
X124929274Y-140737563D01*
X124759756Y-140624295D01*
X124571398Y-140546274D01*
X124371439Y-140506500D01*
X124167561Y-140506500D01*
X123967602Y-140546274D01*
X123779244Y-140624295D01*
X123609726Y-140737563D01*
X123465563Y-140881726D01*
X123352295Y-141051244D01*
X123274274Y-141239602D01*
X123234500Y-141439561D01*
X123234500Y-141643439D01*
X123274274Y-141843398D01*
X123352295Y-142031756D01*
X123436314Y-142157500D01*
X123405561Y-142157500D01*
X123205602Y-142197274D01*
X123102453Y-142240000D01*
X118070547Y-142240000D01*
X117967398Y-142197274D01*
X117767439Y-142157500D01*
X117563561Y-142157500D01*
X117363602Y-142197274D01*
X117175244Y-142275295D01*
X117005726Y-142388563D01*
X116928213Y-142466077D01*
X114744500Y-140282364D01*
X114744500Y-140099031D01*
X142020574Y-140099031D01*
X142131421Y-140376214D01*
X142442340Y-140529589D01*
X142777205Y-140619360D01*
X143123150Y-140642076D01*
X143466880Y-140596866D01*
X143795185Y-140485466D01*
X143999579Y-140376214D01*
X144110426Y-140099031D01*
X143065500Y-139054105D01*
X142020574Y-140099031D01*
X114744500Y-140099031D01*
X114744500Y-138932150D01*
X141297924Y-138932150D01*
X141343134Y-139275880D01*
X141454534Y-139604185D01*
X141563786Y-139808579D01*
X141840969Y-139919426D01*
X142885895Y-138874500D01*
X143245105Y-138874500D01*
X144290031Y-139919426D01*
X144567214Y-139808579D01*
X144720589Y-139497660D01*
X144810360Y-139162795D01*
X144825504Y-138932150D01*
X146377924Y-138932150D01*
X146423134Y-139275880D01*
X146534534Y-139604185D01*
X146643786Y-139808579D01*
X146920969Y-139919426D01*
X147965895Y-138874500D01*
X148325105Y-138874500D01*
X149370031Y-139919426D01*
X149647214Y-139808579D01*
X149800589Y-139497660D01*
X149890360Y-139162795D01*
X149913076Y-138816850D01*
X149867866Y-138473120D01*
X149756466Y-138144815D01*
X149647214Y-137940421D01*
X149370031Y-137829574D01*
X148325105Y-138874500D01*
X147965895Y-138874500D01*
X146920969Y-137829574D01*
X146643786Y-137940421D01*
X146490411Y-138251340D01*
X146400640Y-138586205D01*
X146377924Y-138932150D01*
X144825504Y-138932150D01*
X144833076Y-138816850D01*
X144787866Y-138473120D01*
X144676466Y-138144815D01*
X144567214Y-137940421D01*
X144290031Y-137829574D01*
X143245105Y-138874500D01*
X142885895Y-138874500D01*
X141840969Y-137829574D01*
X141563786Y-137940421D01*
X141410411Y-138251340D01*
X141320640Y-138586205D01*
X141297924Y-138932150D01*
X114744500Y-138932150D01*
X114744500Y-137649969D01*
X142020574Y-137649969D01*
X143065500Y-138694895D01*
X144110426Y-137649969D01*
X147100574Y-137649969D01*
X148145500Y-138694895D01*
X149190426Y-137649969D01*
X149079579Y-137372786D01*
X148768660Y-137219411D01*
X148433795Y-137129640D01*
X148087850Y-137106924D01*
X147744120Y-137152134D01*
X147415815Y-137263534D01*
X147211421Y-137372786D01*
X147100574Y-137649969D01*
X144110426Y-137649969D01*
X143999579Y-137372786D01*
X143688660Y-137219411D01*
X143353795Y-137129640D01*
X143007850Y-137106924D01*
X142664120Y-137152134D01*
X142335815Y-137263534D01*
X142131421Y-137372786D01*
X142020574Y-137649969D01*
X114744500Y-137649969D01*
X114744500Y-135826500D01*
X119602315Y-135826500D01*
X119630987Y-136117611D01*
X119715901Y-136397534D01*
X119853794Y-136655514D01*
X120039366Y-136881634D01*
X120265486Y-137067206D01*
X120523466Y-137205099D01*
X120803389Y-137290013D01*
X121021550Y-137311500D01*
X121167450Y-137311500D01*
X121385611Y-137290013D01*
X121665534Y-137205099D01*
X121923514Y-137067206D01*
X122149634Y-136881634D01*
X122335206Y-136655514D01*
X122364500Y-136600709D01*
X122393794Y-136655514D01*
X122579366Y-136881634D01*
X122805486Y-137067206D01*
X123063466Y-137205099D01*
X123343389Y-137290013D01*
X123561550Y-137311500D01*
X123707450Y-137311500D01*
X123925611Y-137290013D01*
X124205534Y-137205099D01*
X124463514Y-137067206D01*
X124689634Y-136881634D01*
X124714107Y-136851813D01*
X124734998Y-136920680D01*
X124793963Y-137030994D01*
X124873315Y-137127685D01*
X124970006Y-137207037D01*
X125080320Y-137266002D01*
X125200018Y-137302312D01*
X125324500Y-137314572D01*
X127024500Y-137314572D01*
X127148982Y-137302312D01*
X127268680Y-137266002D01*
X127378994Y-137207037D01*
X127475685Y-137127685D01*
X127555037Y-137030994D01*
X127614002Y-136920680D01*
X127650312Y-136800982D01*
X127662572Y-136676500D01*
X127662572Y-135628000D01*
X141355928Y-135628000D01*
X141368188Y-135752482D01*
X141404498Y-135872180D01*
X141463463Y-135982494D01*
X141542815Y-136079185D01*
X141639506Y-136158537D01*
X141749820Y-136217502D01*
X141869518Y-136253812D01*
X141994000Y-136266072D01*
X142208250Y-136263000D01*
X142367000Y-136104250D01*
X142367000Y-135255000D01*
X142621000Y-135255000D01*
X142621000Y-136104250D01*
X142779750Y-136263000D01*
X142994000Y-136266072D01*
X143118482Y-136253812D01*
X143238180Y-136217502D01*
X143348494Y-136158537D01*
X143445185Y-136079185D01*
X143524537Y-135982494D01*
X143583502Y-135872180D01*
X143619812Y-135752482D01*
X143632072Y-135628000D01*
X143629000Y-135413750D01*
X143470250Y-135255000D01*
X142621000Y-135255000D01*
X142367000Y-135255000D01*
X141517750Y-135255000D01*
X141359000Y-135413750D01*
X141355928Y-135628000D01*
X127662572Y-135628000D01*
X127662572Y-134976500D01*
X127650312Y-134852018D01*
X127614002Y-134732320D01*
X127558241Y-134628000D01*
X141355928Y-134628000D01*
X141359000Y-134842250D01*
X141517750Y-135001000D01*
X142367000Y-135001000D01*
X142367000Y-134151750D01*
X142621000Y-134151750D01*
X142621000Y-135001000D01*
X143470250Y-135001000D01*
X143629000Y-134842250D01*
X143632072Y-134628000D01*
X143619812Y-134503518D01*
X143583502Y-134383820D01*
X143524537Y-134273506D01*
X143445185Y-134176815D01*
X143348494Y-134097463D01*
X143238180Y-134038498D01*
X143118482Y-134002188D01*
X142994000Y-133989928D01*
X142779750Y-133993000D01*
X142621000Y-134151750D01*
X142367000Y-134151750D01*
X142208250Y-133993000D01*
X141994000Y-133989928D01*
X141869518Y-134002188D01*
X141749820Y-134038498D01*
X141639506Y-134097463D01*
X141542815Y-134176815D01*
X141463463Y-134273506D01*
X141404498Y-134383820D01*
X141368188Y-134503518D01*
X141355928Y-134628000D01*
X127558241Y-134628000D01*
X127555037Y-134622006D01*
X127475685Y-134525315D01*
X127378994Y-134445963D01*
X127268680Y-134386998D01*
X127148982Y-134350688D01*
X127024500Y-134338428D01*
X125324500Y-134338428D01*
X125200018Y-134350688D01*
X125080320Y-134386998D01*
X124970006Y-134445963D01*
X124873315Y-134525315D01*
X124793963Y-134622006D01*
X124734998Y-134732320D01*
X124714107Y-134801187D01*
X124689634Y-134771366D01*
X124463514Y-134585794D01*
X124205534Y-134447901D01*
X123925611Y-134362987D01*
X123707450Y-134341500D01*
X123561550Y-134341500D01*
X123343389Y-134362987D01*
X123063466Y-134447901D01*
X122805486Y-134585794D01*
X122579366Y-134771366D01*
X122393794Y-134997486D01*
X122364500Y-135052291D01*
X122335206Y-134997486D01*
X122149634Y-134771366D01*
X121923514Y-134585794D01*
X121665534Y-134447901D01*
X121385611Y-134362987D01*
X121167450Y-134341500D01*
X121021550Y-134341500D01*
X120803389Y-134362987D01*
X120523466Y-134447901D01*
X120265486Y-134585794D01*
X120039366Y-134771366D01*
X119853794Y-134997486D01*
X119715901Y-135255466D01*
X119630987Y-135535389D01*
X119602315Y-135826500D01*
X114744500Y-135826500D01*
X114744500Y-134517047D01*
X114787226Y-134413898D01*
X114827000Y-134213939D01*
X114827000Y-134010061D01*
X114787226Y-133810102D01*
X114709205Y-133621744D01*
X114595937Y-133452226D01*
X114451774Y-133308063D01*
X114282256Y-133194795D01*
X114093898Y-133116774D01*
X113893939Y-133077000D01*
X113690061Y-133077000D01*
X113490102Y-133116774D01*
X113301744Y-133194795D01*
X113132226Y-133308063D01*
X112988063Y-133452226D01*
X112874795Y-133621744D01*
X112796774Y-133810102D01*
X112757000Y-134010061D01*
X96697000Y-134010061D01*
X96697000Y-125704258D01*
X97035500Y-125704258D01*
X97035500Y-126390742D01*
X97169427Y-127064037D01*
X97432133Y-127698266D01*
X97813524Y-128269058D01*
X98298942Y-128754476D01*
X98869734Y-129135867D01*
X99503963Y-129398573D01*
X100177258Y-129532500D01*
X100863742Y-129532500D01*
X101537037Y-129398573D01*
X102171266Y-129135867D01*
X102742058Y-128754476D01*
X103227476Y-128269058D01*
X103286982Y-128180000D01*
X119796928Y-128180000D01*
X119796928Y-129630000D01*
X119813992Y-129803254D01*
X119864528Y-129969850D01*
X119946595Y-130123386D01*
X120057038Y-130257962D01*
X120191614Y-130368405D01*
X120345150Y-130450472D01*
X120511746Y-130501008D01*
X120685000Y-130518072D01*
X121885000Y-130518072D01*
X122058254Y-130501008D01*
X122224850Y-130450472D01*
X122378386Y-130368405D01*
X122512962Y-130257962D01*
X122623405Y-130123386D01*
X122679714Y-130018039D01*
X122695951Y-130039429D01*
X122913807Y-130232496D01*
X123165142Y-130379352D01*
X123428110Y-130471476D01*
X123658000Y-130350155D01*
X123658000Y-129032000D01*
X123638000Y-129032000D01*
X123638000Y-128778000D01*
X123658000Y-128778000D01*
X123658000Y-127459845D01*
X123912000Y-127459845D01*
X123912000Y-128778000D01*
X123932000Y-128778000D01*
X123932000Y-129032000D01*
X123912000Y-129032000D01*
X123912000Y-130350155D01*
X124141890Y-130471476D01*
X124404858Y-130379352D01*
X124656193Y-130232496D01*
X124874049Y-130039429D01*
X125030538Y-129833278D01*
X125044294Y-129859014D01*
X125229866Y-130085134D01*
X125455987Y-130270706D01*
X125713967Y-130408599D01*
X125993890Y-130493513D01*
X126285000Y-130522185D01*
X126576111Y-130493513D01*
X126856034Y-130408599D01*
X127114014Y-130270706D01*
X127340134Y-130085134D01*
X127525706Y-129859014D01*
X127663599Y-129601033D01*
X127748513Y-129321110D01*
X127770000Y-129102949D01*
X127770000Y-128707050D01*
X127748513Y-128488889D01*
X127663599Y-128208966D01*
X127525706Y-127950986D01*
X127340134Y-127724866D01*
X127114013Y-127539294D01*
X126856033Y-127401401D01*
X126576110Y-127316487D01*
X126285000Y-127287815D01*
X125993889Y-127316487D01*
X125713966Y-127401401D01*
X125455986Y-127539294D01*
X125229866Y-127724866D01*
X125044294Y-127950987D01*
X125030538Y-127976722D01*
X124874049Y-127770571D01*
X124656193Y-127577504D01*
X124404858Y-127430648D01*
X124141890Y-127338524D01*
X123912000Y-127459845D01*
X123658000Y-127459845D01*
X123428110Y-127338524D01*
X123165142Y-127430648D01*
X122913807Y-127577504D01*
X122695951Y-127770571D01*
X122679714Y-127791961D01*
X122623405Y-127686614D01*
X122512962Y-127552038D01*
X122378386Y-127441595D01*
X122224850Y-127359528D01*
X122058254Y-127308992D01*
X121885000Y-127291928D01*
X120685000Y-127291928D01*
X120511746Y-127308992D01*
X120345150Y-127359528D01*
X120191614Y-127441595D01*
X120057038Y-127552038D01*
X119946595Y-127686614D01*
X119864528Y-127840150D01*
X119813992Y-128006746D01*
X119796928Y-128180000D01*
X103286982Y-128180000D01*
X103608867Y-127698266D01*
X103871573Y-127064037D01*
X104005500Y-126390742D01*
X104005500Y-126148758D01*
X142311000Y-126148758D01*
X142311000Y-126835242D01*
X142444927Y-127508537D01*
X142707633Y-128142766D01*
X143089024Y-128713558D01*
X143574442Y-129198976D01*
X144145234Y-129580367D01*
X144779463Y-129843073D01*
X145452758Y-129977000D01*
X146139242Y-129977000D01*
X146812537Y-129843073D01*
X147446766Y-129580367D01*
X148017558Y-129198976D01*
X148502976Y-128713558D01*
X148884367Y-128142766D01*
X149147073Y-127508537D01*
X149281000Y-126835242D01*
X149281000Y-126148758D01*
X149147073Y-125475463D01*
X148884367Y-124841234D01*
X148502976Y-124270442D01*
X148017558Y-123785024D01*
X147446766Y-123403633D01*
X146812537Y-123140927D01*
X146139242Y-123007000D01*
X145452758Y-123007000D01*
X144779463Y-123140927D01*
X144145234Y-123403633D01*
X143574442Y-123785024D01*
X143089024Y-124270442D01*
X142707633Y-124841234D01*
X142444927Y-125475463D01*
X142311000Y-126148758D01*
X104005500Y-126148758D01*
X104005500Y-125704258D01*
X103871573Y-125030963D01*
X103608867Y-124396734D01*
X103227476Y-123825942D01*
X102742058Y-123340524D01*
X102171266Y-122959133D01*
X101537037Y-122696427D01*
X100863742Y-122562500D01*
X100177258Y-122562500D01*
X99503963Y-122696427D01*
X98869734Y-122959133D01*
X98298942Y-123340524D01*
X97813524Y-123825942D01*
X97432133Y-124396734D01*
X97169427Y-125030963D01*
X97035500Y-125704258D01*
X96697000Y-125704258D01*
X96697000Y-122097000D01*
X150191001Y-122097000D01*
X150191000Y-154572500D01*
X150191000Y-154572500D01*
G37*
X150191000Y-154572500D02*
X96697000Y-154572500D01*
X96697000Y-150215258D01*
X97543500Y-150215258D01*
X97543500Y-150901742D01*
X97677427Y-151575037D01*
X97940133Y-152209266D01*
X98321524Y-152780058D01*
X98806942Y-153265476D01*
X99377734Y-153646867D01*
X100011963Y-153909573D01*
X100685258Y-154043500D01*
X101371742Y-154043500D01*
X102045037Y-153909573D01*
X102679266Y-153646867D01*
X103250058Y-153265476D01*
X103735476Y-152780058D01*
X104116867Y-152209266D01*
X104379573Y-151575037D01*
X104513500Y-150901742D01*
X104513500Y-150596258D01*
X142501500Y-150596258D01*
X142501500Y-151282742D01*
X142635427Y-151956037D01*
X142898133Y-152590266D01*
X143279524Y-153161058D01*
X143764942Y-153646476D01*
X144335734Y-154027867D01*
X144969963Y-154290573D01*
X145643258Y-154424500D01*
X146329742Y-154424500D01*
X147003037Y-154290573D01*
X147637266Y-154027867D01*
X148208058Y-153646476D01*
X148693476Y-153161058D01*
X149074867Y-152590266D01*
X149337573Y-151956037D01*
X149471500Y-151282742D01*
X149471500Y-150596258D01*
X149337573Y-149922963D01*
X149074867Y-149288734D01*
X148693476Y-148717942D01*
X148208058Y-148232524D01*
X147637266Y-147851133D01*
X147003037Y-147588427D01*
X146329742Y-147454500D01*
X145643258Y-147454500D01*
X144969963Y-147588427D01*
X144335734Y-147851133D01*
X143764942Y-148232524D01*
X143279524Y-148717942D01*
X142898133Y-149288734D01*
X142635427Y-149922963D01*
X142501500Y-150596258D01*
X104513500Y-150596258D01*
X104513500Y-150215258D01*
X104379573Y-149541963D01*
X104116867Y-148907734D01*
X103735476Y-148336942D01*
X103250058Y-147851524D01*
X102679266Y-147470133D01*
X102045037Y-147207427D01*
X101371742Y-147073500D01*
X100685258Y-147073500D01*
X100011963Y-147207427D01*
X99377734Y-147470133D01*
X98806942Y-147851524D01*
X98321524Y-148336942D01*
X97940133Y-148907734D01*
X97677427Y-149541963D01*
X97543500Y-150215258D01*
X96697000Y-150215258D01*
X96697000Y-145115531D01*
X97888074Y-145115531D01*
X97998921Y-145392714D01*
X98309840Y-145546089D01*
X98644705Y-145635860D01*
X98990650Y-145658576D01*
X99334380Y-145613366D01*
X99662685Y-145501966D01*
X99867079Y-145392714D01*
X99977926Y-145115531D01*
X102968074Y-145115531D01*
X103078921Y-145392714D01*
X103389840Y-145546089D01*
X103724705Y-145635860D01*
X104070650Y-145658576D01*
X104414380Y-145613366D01*
X104742685Y-145501966D01*
X104947079Y-145392714D01*
X105057926Y-145115531D01*
X104013000Y-144070605D01*
X102968074Y-145115531D01*
X99977926Y-145115531D01*
X98933000Y-144070605D01*
X97888074Y-145115531D01*
X96697000Y-145115531D01*
X96697000Y-143948650D01*
X97165424Y-143948650D01*
X97210634Y-144292380D01*
X97322034Y-144620685D01*
X97431286Y-144825079D01*
X97708469Y-144935926D01*
X98753395Y-143891000D01*
X99112605Y-143891000D01*
X100157531Y-144935926D01*
X100434714Y-144825079D01*
X100588089Y-144514160D01*
X100677860Y-144179295D01*
X100693004Y-143948650D01*
X102245424Y-143948650D01*
X102290634Y-144292380D01*
X102402034Y-144620685D01*
X102511286Y-144825079D01*
X102788469Y-144935926D01*
X103833395Y-143891000D01*
X104192605Y-143891000D01*
X105237531Y-144935926D01*
X105514714Y-144825079D01*
X105668089Y-144514160D01*
X105757860Y-144179295D01*
X105780576Y-143833350D01*
X105735366Y-143489620D01*
X105623966Y-143161315D01*
X105514714Y-142956921D01*
X105237531Y-142846074D01*
X104192605Y-143891000D01*
X103833395Y-143891000D01*
X102788469Y-142846074D01*
X102511286Y-142956921D01*
X102357911Y-143267840D01*
X102268140Y-143602705D01*
X102245424Y-143948650D01*
X100693004Y-143948650D01*
X100700576Y-143833350D01*
X100655366Y-143489620D01*
X100543966Y-143161315D01*
X100434714Y-142956921D01*
X100157531Y-142846074D01*
X99112605Y-143891000D01*
X98753395Y-143891000D01*
X97708469Y-142846074D01*
X97431286Y-142956921D01*
X97277911Y-143267840D01*
X97188140Y-143602705D01*
X97165424Y-143948650D01*
X96697000Y-143948650D01*
X96697000Y-142666469D01*
X97888074Y-142666469D01*
X98933000Y-143711395D01*
X99977926Y-142666469D01*
X99867079Y-142389286D01*
X99556160Y-142235911D01*
X99221295Y-142146140D01*
X98875350Y-142123424D01*
X98531620Y-142168634D01*
X98203315Y-142280034D01*
X97998921Y-142389286D01*
X97888074Y-142666469D01*
X96697000Y-142666469D01*
X96697000Y-141187504D01*
X99813000Y-141187504D01*
X99813000Y-141514496D01*
X99876793Y-141835204D01*
X100001927Y-142137305D01*
X100183594Y-142409188D01*
X100414812Y-142640406D01*
X100686695Y-142822073D01*
X100988796Y-142947207D01*
X101309504Y-143011000D01*
X101636496Y-143011000D01*
X101957204Y-142947207D01*
X102259305Y-142822073D01*
X102492182Y-142666469D01*
X102968074Y-142666469D01*
X104013000Y-143711395D01*
X105057926Y-142666469D01*
X104947079Y-142389286D01*
X104636160Y-142235911D01*
X104301295Y-142146140D01*
X103955350Y-142123424D01*
X103611620Y-142168634D01*
X103283315Y-142280034D01*
X103078921Y-142389286D01*
X102968074Y-142666469D01*
X102492182Y-142666469D01*
X102531188Y-142640406D01*
X102762406Y-142409188D01*
X102944073Y-142137305D01*
X103069207Y-141835204D01*
X103133000Y-141514496D01*
X103133000Y-141187504D01*
X103069207Y-140866796D01*
X102944073Y-140564695D01*
X102762406Y-140292812D01*
X102531188Y-140061594D01*
X102492183Y-140035531D01*
X102968074Y-140035531D01*
X103078921Y-140312714D01*
X103389840Y-140466089D01*
X103724705Y-140555860D01*
X104070650Y-140578576D01*
X104414380Y-140533366D01*
X104742685Y-140421966D01*
X104947079Y-140312714D01*
X105057926Y-140035531D01*
X104013000Y-138990605D01*
X102968074Y-140035531D01*
X102492183Y-140035531D01*
X102259305Y-139879927D01*
X101957204Y-139754793D01*
X101636496Y-139691000D01*
X101309504Y-139691000D01*
X100988796Y-139754793D01*
X100686695Y-139879927D01*
X100414812Y-140061594D01*
X100183594Y-140292812D01*
X100001927Y-140564695D01*
X99876793Y-140866796D01*
X99813000Y-141187504D01*
X96697000Y-141187504D01*
X96697000Y-140035531D01*
X97888074Y-140035531D01*
X97998921Y-140312714D01*
X98309840Y-140466089D01*
X98644705Y-140555860D01*
X98990650Y-140578576D01*
X99334380Y-140533366D01*
X99662685Y-140421966D01*
X99867079Y-140312714D01*
X99977926Y-140035531D01*
X98933000Y-138990605D01*
X97888074Y-140035531D01*
X96697000Y-140035531D01*
X96697000Y-138868650D01*
X97165424Y-138868650D01*
X97210634Y-139212380D01*
X97322034Y-139540685D01*
X97431286Y-139745079D01*
X97708469Y-139855926D01*
X98753395Y-138811000D01*
X99112605Y-138811000D01*
X100157531Y-139855926D01*
X100434714Y-139745079D01*
X100588089Y-139434160D01*
X100677860Y-139099295D01*
X100693004Y-138868650D01*
X102245424Y-138868650D01*
X102290634Y-139212380D01*
X102402034Y-139540685D01*
X102511286Y-139745079D01*
X102788469Y-139855926D01*
X103833395Y-138811000D01*
X104192605Y-138811000D01*
X105237531Y-139855926D01*
X105514714Y-139745079D01*
X105668089Y-139434160D01*
X105757860Y-139099295D01*
X105780576Y-138753350D01*
X105735366Y-138409620D01*
X105623966Y-138081315D01*
X105514714Y-137876921D01*
X105237531Y-137766074D01*
X104192605Y-138811000D01*
X103833395Y-138811000D01*
X102788469Y-137766074D01*
X102511286Y-137876921D01*
X102357911Y-138187840D01*
X102268140Y-138522705D01*
X102245424Y-138868650D01*
X100693004Y-138868650D01*
X100700576Y-138753350D01*
X100655366Y-138409620D01*
X100543966Y-138081315D01*
X100434714Y-137876921D01*
X100157531Y-137766074D01*
X99112605Y-138811000D01*
X98753395Y-138811000D01*
X97708469Y-137766074D01*
X97431286Y-137876921D01*
X97277911Y-138187840D01*
X97188140Y-138522705D01*
X97165424Y-138868650D01*
X96697000Y-138868650D01*
X96697000Y-137586469D01*
X97888074Y-137586469D01*
X98933000Y-138631395D01*
X99977926Y-137586469D01*
X102968074Y-137586469D01*
X104013000Y-138631395D01*
X105057926Y-137586469D01*
X104947079Y-137309286D01*
X104636160Y-137155911D01*
X104301295Y-137066140D01*
X103955350Y-137043424D01*
X103611620Y-137088634D01*
X103283315Y-137200034D01*
X103078921Y-137309286D01*
X102968074Y-137586469D01*
X99977926Y-137586469D01*
X99867079Y-137309286D01*
X99556160Y-137155911D01*
X99221295Y-137066140D01*
X98875350Y-137043424D01*
X98531620Y-137088634D01*
X98203315Y-137200034D01*
X97998921Y-137309286D01*
X97888074Y-137586469D01*
X96697000Y-137586469D01*
X96697000Y-135882000D01*
X103065428Y-135882000D01*
X103077688Y-136006482D01*
X103113998Y-136126180D01*
X103172963Y-136236494D01*
X103252315Y-136333185D01*
X103349006Y-136412537D01*
X103459320Y-136471502D01*
X103579018Y-136507812D01*
X103703500Y-136520072D01*
X103917750Y-136517000D01*
X104076500Y-136358250D01*
X104076500Y-135509000D01*
X104330500Y-135509000D01*
X104330500Y-136358250D01*
X104489250Y-136517000D01*
X104703500Y-136520072D01*
X104827982Y-136507812D01*
X104947680Y-136471502D01*
X105057994Y-136412537D01*
X105154685Y-136333185D01*
X105234037Y-136236494D01*
X105293002Y-136126180D01*
X105329312Y-136006482D01*
X105341572Y-135882000D01*
X105338500Y-135667750D01*
X105179750Y-135509000D01*
X104330500Y-135509000D01*
X104076500Y-135509000D01*
X103227250Y-135509000D01*
X103068500Y-135667750D01*
X103065428Y-135882000D01*
X96697000Y-135882000D01*
X96697000Y-134882000D01*
X103065428Y-134882000D01*
X103068500Y-135096250D01*
X103227250Y-135255000D01*
X104076500Y-135255000D01*
X104076500Y-134405750D01*
X104330500Y-134405750D01*
X104330500Y-135255000D01*
X105179750Y-135255000D01*
X105338500Y-135096250D01*
X105341572Y-134882000D01*
X105329312Y-134757518D01*
X105293002Y-134637820D01*
X105234037Y-134527506D01*
X105154685Y-134430815D01*
X105057994Y-134351463D01*
X104947680Y-134292498D01*
X104827982Y-134256188D01*
X104703500Y-134243928D01*
X104489250Y-134247000D01*
X104330500Y-134405750D01*
X104076500Y-134405750D01*
X103917750Y-134247000D01*
X103703500Y-134243928D01*
X103579018Y-134256188D01*
X103459320Y-134292498D01*
X103349006Y-134351463D01*
X103252315Y-134430815D01*
X103172963Y-134527506D01*
X103113998Y-134637820D01*
X103077688Y-134757518D01*
X103065428Y-134882000D01*
X96697000Y-134882000D01*
X96697000Y-134010061D01*
X112757000Y-134010061D01*
X112757000Y-134213939D01*
X112796774Y-134413898D01*
X112839500Y-134517047D01*
X112839501Y-140630107D01*
X112834892Y-140676902D01*
X112853283Y-140863624D01*
X112907749Y-141043171D01*
X112996194Y-141208642D01*
X113055580Y-141281004D01*
X113115223Y-141353680D01*
X113151565Y-141383505D01*
X116627235Y-144859175D01*
X116601602Y-144864274D01*
X116413244Y-144942295D01*
X116243726Y-145055563D01*
X116099563Y-145199726D01*
X115986295Y-145369244D01*
X115908274Y-145557602D01*
X115868500Y-145757561D01*
X115868500Y-145961439D01*
X115908274Y-146161398D01*
X115986295Y-146349756D01*
X116099563Y-146519274D01*
X116243726Y-146663437D01*
X116413244Y-146776705D01*
X116516393Y-146819431D01*
X117911397Y-148214436D01*
X117941222Y-148250778D01*
X118086259Y-148369806D01*
X118251731Y-148458252D01*
X118431277Y-148512717D01*
X118617999Y-148531108D01*
X118664784Y-148526500D01*
X121656453Y-148526500D01*
X121759602Y-148569226D01*
X121959561Y-148609000D01*
X122163439Y-148609000D01*
X122363398Y-148569226D01*
X122551756Y-148491205D01*
X122721274Y-148377937D01*
X122865437Y-148233774D01*
X122978705Y-148064256D01*
X123056726Y-147875898D01*
X123096500Y-147675939D01*
X123096500Y-147472061D01*
X123056726Y-147272102D01*
X122978705Y-147083744D01*
X122865437Y-146914226D01*
X122721274Y-146770063D01*
X122551756Y-146656795D01*
X122363398Y-146578774D01*
X122163439Y-146539000D01*
X121959561Y-146539000D01*
X121759602Y-146578774D01*
X121656453Y-146621500D01*
X119012539Y-146621500D01*
X118604580Y-146213541D01*
X119773494Y-146213541D01*
X119876643Y-146256267D01*
X120076602Y-146296041D01*
X120280480Y-146296041D01*
X120480439Y-146256267D01*
X120668797Y-146178246D01*
X120838315Y-146064978D01*
X120982478Y-145920815D01*
X121095746Y-145751297D01*
X121173767Y-145562939D01*
X121213541Y-145362980D01*
X121213541Y-145179031D01*
X142020574Y-145179031D01*
X142131421Y-145456214D01*
X142442340Y-145609589D01*
X142777205Y-145699360D01*
X143123150Y-145722076D01*
X143466880Y-145676866D01*
X143795185Y-145565466D01*
X143999579Y-145456214D01*
X144110426Y-145179031D01*
X147100574Y-145179031D01*
X147211421Y-145456214D01*
X147522340Y-145609589D01*
X147857205Y-145699360D01*
X148203150Y-145722076D01*
X148546880Y-145676866D01*
X148875185Y-145565466D01*
X149079579Y-145456214D01*
X149190426Y-145179031D01*
X148145500Y-144134105D01*
X147100574Y-145179031D01*
X144110426Y-145179031D01*
X143065500Y-144134105D01*
X142020574Y-145179031D01*
X121213541Y-145179031D01*
X121213541Y-145159102D01*
X121173767Y-144959143D01*
X121095746Y-144770785D01*
X120982478Y-144601267D01*
X120838315Y-144457104D01*
X120668797Y-144343836D01*
X120480439Y-144265815D01*
X120280480Y-144226041D01*
X120076602Y-144226041D01*
X119876643Y-144265815D01*
X119773494Y-144308541D01*
X118770677Y-144308541D01*
X118607136Y-144145000D01*
X123102453Y-144145000D01*
X123205602Y-144187726D01*
X123405561Y-144227500D01*
X123609439Y-144227500D01*
X123809398Y-144187726D01*
X123831173Y-144178706D01*
X123910063Y-144296774D01*
X124054226Y-144440937D01*
X124223744Y-144554205D01*
X124412102Y-144632226D01*
X124612061Y-144672000D01*
X124815939Y-144672000D01*
X125015898Y-144632226D01*
X125204256Y-144554205D01*
X125373774Y-144440937D01*
X125517937Y-144296774D01*
X125631205Y-144127256D01*
X125678883Y-144012150D01*
X141297924Y-144012150D01*
X141343134Y-144355880D01*
X141454534Y-144684185D01*
X141563786Y-144888579D01*
X141840969Y-144999426D01*
X142885895Y-143954500D01*
X143245105Y-143954500D01*
X144290031Y-144999426D01*
X144567214Y-144888579D01*
X144720589Y-144577660D01*
X144810360Y-144242795D01*
X144825504Y-144012150D01*
X146377924Y-144012150D01*
X146423134Y-144355880D01*
X146534534Y-144684185D01*
X146643786Y-144888579D01*
X146920969Y-144999426D01*
X147965895Y-143954500D01*
X148325105Y-143954500D01*
X149370031Y-144999426D01*
X149647214Y-144888579D01*
X149800589Y-144577660D01*
X149890360Y-144242795D01*
X149913076Y-143896850D01*
X149867866Y-143553120D01*
X149756466Y-143224815D01*
X149647214Y-143020421D01*
X149370031Y-142909574D01*
X148325105Y-143954500D01*
X147965895Y-143954500D01*
X146920969Y-142909574D01*
X146643786Y-143020421D01*
X146490411Y-143331340D01*
X146400640Y-143666205D01*
X146377924Y-144012150D01*
X144825504Y-144012150D01*
X144833076Y-143896850D01*
X144787866Y-143553120D01*
X144676466Y-143224815D01*
X144567214Y-143020421D01*
X144290031Y-142909574D01*
X143245105Y-143954500D01*
X142885895Y-143954500D01*
X141840969Y-142909574D01*
X141563786Y-143020421D01*
X141410411Y-143331340D01*
X141320640Y-143666205D01*
X141297924Y-144012150D01*
X125678883Y-144012150D01*
X125709226Y-143938898D01*
X125749000Y-143738939D01*
X125749000Y-143535061D01*
X125709226Y-143335102D01*
X125666500Y-143231953D01*
X125666500Y-142729969D01*
X142020574Y-142729969D01*
X143065500Y-143774895D01*
X144110426Y-142729969D01*
X143999579Y-142452786D01*
X143688660Y-142299411D01*
X143353795Y-142209640D01*
X143007850Y-142186924D01*
X142664120Y-142232134D01*
X142335815Y-142343534D01*
X142131421Y-142452786D01*
X142020574Y-142729969D01*
X125666500Y-142729969D01*
X125666500Y-142032785D01*
X125671108Y-141986000D01*
X125652717Y-141799277D01*
X125598252Y-141619731D01*
X125509806Y-141454259D01*
X125390778Y-141309222D01*
X125354431Y-141279393D01*
X125326042Y-141251004D01*
X143945500Y-141251004D01*
X143945500Y-141577996D01*
X144009293Y-141898704D01*
X144134427Y-142200805D01*
X144316094Y-142472688D01*
X144547312Y-142703906D01*
X144819195Y-142885573D01*
X145121296Y-143010707D01*
X145442004Y-143074500D01*
X145768996Y-143074500D01*
X146089704Y-143010707D01*
X146391805Y-142885573D01*
X146624682Y-142729969D01*
X147100574Y-142729969D01*
X148145500Y-143774895D01*
X149190426Y-142729969D01*
X149079579Y-142452786D01*
X148768660Y-142299411D01*
X148433795Y-142209640D01*
X148087850Y-142186924D01*
X147744120Y-142232134D01*
X147415815Y-142343534D01*
X147211421Y-142452786D01*
X147100574Y-142729969D01*
X146624682Y-142729969D01*
X146663688Y-142703906D01*
X146894906Y-142472688D01*
X147076573Y-142200805D01*
X147201707Y-141898704D01*
X147265500Y-141577996D01*
X147265500Y-141251004D01*
X147201707Y-140930296D01*
X147076573Y-140628195D01*
X146894906Y-140356312D01*
X146663688Y-140125094D01*
X146624683Y-140099031D01*
X147100574Y-140099031D01*
X147211421Y-140376214D01*
X147522340Y-140529589D01*
X147857205Y-140619360D01*
X148203150Y-140642076D01*
X148546880Y-140596866D01*
X148875185Y-140485466D01*
X149079579Y-140376214D01*
X149190426Y-140099031D01*
X148145500Y-139054105D01*
X147100574Y-140099031D01*
X146624683Y-140099031D01*
X146391805Y-139943427D01*
X146089704Y-139818293D01*
X145768996Y-139754500D01*
X145442004Y-139754500D01*
X145121296Y-139818293D01*
X144819195Y-139943427D01*
X144547312Y-140125094D01*
X144316094Y-140356312D01*
X144134427Y-140628195D01*
X144009293Y-140930296D01*
X143945500Y-141251004D01*
X125326042Y-141251004D01*
X125229431Y-141154393D01*
X125186705Y-141051244D01*
X125073437Y-140881726D01*
X124929274Y-140737563D01*
X124759756Y-140624295D01*
X124571398Y-140546274D01*
X124371439Y-140506500D01*
X124167561Y-140506500D01*
X123967602Y-140546274D01*
X123779244Y-140624295D01*
X123609726Y-140737563D01*
X123465563Y-140881726D01*
X123352295Y-141051244D01*
X123274274Y-141239602D01*
X123234500Y-141439561D01*
X123234500Y-141643439D01*
X123274274Y-141843398D01*
X123352295Y-142031756D01*
X123436314Y-142157500D01*
X123405561Y-142157500D01*
X123205602Y-142197274D01*
X123102453Y-142240000D01*
X118070547Y-142240000D01*
X117967398Y-142197274D01*
X117767439Y-142157500D01*
X117563561Y-142157500D01*
X117363602Y-142197274D01*
X117175244Y-142275295D01*
X117005726Y-142388563D01*
X116928213Y-142466077D01*
X114744500Y-140282364D01*
X114744500Y-140099031D01*
X142020574Y-140099031D01*
X142131421Y-140376214D01*
X142442340Y-140529589D01*
X142777205Y-140619360D01*
X143123150Y-140642076D01*
X143466880Y-140596866D01*
X143795185Y-140485466D01*
X143999579Y-140376214D01*
X144110426Y-140099031D01*
X143065500Y-139054105D01*
X142020574Y-140099031D01*
X114744500Y-140099031D01*
X114744500Y-138932150D01*
X141297924Y-138932150D01*
X141343134Y-139275880D01*
X141454534Y-139604185D01*
X141563786Y-139808579D01*
X141840969Y-139919426D01*
X142885895Y-138874500D01*
X143245105Y-138874500D01*
X144290031Y-139919426D01*
X144567214Y-139808579D01*
X144720589Y-139497660D01*
X144810360Y-139162795D01*
X144825504Y-138932150D01*
X146377924Y-138932150D01*
X146423134Y-139275880D01*
X146534534Y-139604185D01*
X146643786Y-139808579D01*
X146920969Y-139919426D01*
X147965895Y-138874500D01*
X148325105Y-138874500D01*
X149370031Y-139919426D01*
X149647214Y-139808579D01*
X149800589Y-139497660D01*
X149890360Y-139162795D01*
X149913076Y-138816850D01*
X149867866Y-138473120D01*
X149756466Y-138144815D01*
X149647214Y-137940421D01*
X149370031Y-137829574D01*
X148325105Y-138874500D01*
X147965895Y-138874500D01*
X146920969Y-137829574D01*
X146643786Y-137940421D01*
X146490411Y-138251340D01*
X146400640Y-138586205D01*
X146377924Y-138932150D01*
X144825504Y-138932150D01*
X144833076Y-138816850D01*
X144787866Y-138473120D01*
X144676466Y-138144815D01*
X144567214Y-137940421D01*
X144290031Y-137829574D01*
X143245105Y-138874500D01*
X142885895Y-138874500D01*
X141840969Y-137829574D01*
X141563786Y-137940421D01*
X141410411Y-138251340D01*
X141320640Y-138586205D01*
X141297924Y-138932150D01*
X114744500Y-138932150D01*
X114744500Y-137649969D01*
X142020574Y-137649969D01*
X143065500Y-138694895D01*
X144110426Y-137649969D01*
X147100574Y-137649969D01*
X148145500Y-138694895D01*
X149190426Y-137649969D01*
X149079579Y-137372786D01*
X148768660Y-137219411D01*
X148433795Y-137129640D01*
X148087850Y-137106924D01*
X147744120Y-137152134D01*
X147415815Y-137263534D01*
X147211421Y-137372786D01*
X147100574Y-137649969D01*
X144110426Y-137649969D01*
X143999579Y-137372786D01*
X143688660Y-137219411D01*
X143353795Y-137129640D01*
X143007850Y-137106924D01*
X142664120Y-137152134D01*
X142335815Y-137263534D01*
X142131421Y-137372786D01*
X142020574Y-137649969D01*
X114744500Y-137649969D01*
X114744500Y-135826500D01*
X119602315Y-135826500D01*
X119630987Y-136117611D01*
X119715901Y-136397534D01*
X119853794Y-136655514D01*
X120039366Y-136881634D01*
X120265486Y-137067206D01*
X120523466Y-137205099D01*
X120803389Y-137290013D01*
X121021550Y-137311500D01*
X121167450Y-137311500D01*
X121385611Y-137290013D01*
X121665534Y-137205099D01*
X121923514Y-137067206D01*
X122149634Y-136881634D01*
X122335206Y-136655514D01*
X122364500Y-136600709D01*
X122393794Y-136655514D01*
X122579366Y-136881634D01*
X122805486Y-137067206D01*
X123063466Y-137205099D01*
X123343389Y-137290013D01*
X123561550Y-137311500D01*
X123707450Y-137311500D01*
X123925611Y-137290013D01*
X124205534Y-137205099D01*
X124463514Y-137067206D01*
X124689634Y-136881634D01*
X124714107Y-136851813D01*
X124734998Y-136920680D01*
X124793963Y-137030994D01*
X124873315Y-137127685D01*
X124970006Y-137207037D01*
X125080320Y-137266002D01*
X125200018Y-137302312D01*
X125324500Y-137314572D01*
X127024500Y-137314572D01*
X127148982Y-137302312D01*
X127268680Y-137266002D01*
X127378994Y-137207037D01*
X127475685Y-137127685D01*
X127555037Y-137030994D01*
X127614002Y-136920680D01*
X127650312Y-136800982D01*
X127662572Y-136676500D01*
X127662572Y-135628000D01*
X141355928Y-135628000D01*
X141368188Y-135752482D01*
X141404498Y-135872180D01*
X141463463Y-135982494D01*
X141542815Y-136079185D01*
X141639506Y-136158537D01*
X141749820Y-136217502D01*
X141869518Y-136253812D01*
X141994000Y-136266072D01*
X142208250Y-136263000D01*
X142367000Y-136104250D01*
X142367000Y-135255000D01*
X142621000Y-135255000D01*
X142621000Y-136104250D01*
X142779750Y-136263000D01*
X142994000Y-136266072D01*
X143118482Y-136253812D01*
X143238180Y-136217502D01*
X143348494Y-136158537D01*
X143445185Y-136079185D01*
X143524537Y-135982494D01*
X143583502Y-135872180D01*
X143619812Y-135752482D01*
X143632072Y-135628000D01*
X143629000Y-135413750D01*
X143470250Y-135255000D01*
X142621000Y-135255000D01*
X142367000Y-135255000D01*
X141517750Y-135255000D01*
X141359000Y-135413750D01*
X141355928Y-135628000D01*
X127662572Y-135628000D01*
X127662572Y-134976500D01*
X127650312Y-134852018D01*
X127614002Y-134732320D01*
X127558241Y-134628000D01*
X141355928Y-134628000D01*
X141359000Y-134842250D01*
X141517750Y-135001000D01*
X142367000Y-135001000D01*
X142367000Y-134151750D01*
X142621000Y-134151750D01*
X142621000Y-135001000D01*
X143470250Y-135001000D01*
X143629000Y-134842250D01*
X143632072Y-134628000D01*
X143619812Y-134503518D01*
X143583502Y-134383820D01*
X143524537Y-134273506D01*
X143445185Y-134176815D01*
X143348494Y-134097463D01*
X143238180Y-134038498D01*
X143118482Y-134002188D01*
X142994000Y-133989928D01*
X142779750Y-133993000D01*
X142621000Y-134151750D01*
X142367000Y-134151750D01*
X142208250Y-133993000D01*
X141994000Y-133989928D01*
X141869518Y-134002188D01*
X141749820Y-134038498D01*
X141639506Y-134097463D01*
X141542815Y-134176815D01*
X141463463Y-134273506D01*
X141404498Y-134383820D01*
X141368188Y-134503518D01*
X141355928Y-134628000D01*
X127558241Y-134628000D01*
X127555037Y-134622006D01*
X127475685Y-134525315D01*
X127378994Y-134445963D01*
X127268680Y-134386998D01*
X127148982Y-134350688D01*
X127024500Y-134338428D01*
X125324500Y-134338428D01*
X125200018Y-134350688D01*
X125080320Y-134386998D01*
X124970006Y-134445963D01*
X124873315Y-134525315D01*
X124793963Y-134622006D01*
X124734998Y-134732320D01*
X124714107Y-134801187D01*
X124689634Y-134771366D01*
X124463514Y-134585794D01*
X124205534Y-134447901D01*
X123925611Y-134362987D01*
X123707450Y-134341500D01*
X123561550Y-134341500D01*
X123343389Y-134362987D01*
X123063466Y-134447901D01*
X122805486Y-134585794D01*
X122579366Y-134771366D01*
X122393794Y-134997486D01*
X122364500Y-135052291D01*
X122335206Y-134997486D01*
X122149634Y-134771366D01*
X121923514Y-134585794D01*
X121665534Y-134447901D01*
X121385611Y-134362987D01*
X121167450Y-134341500D01*
X121021550Y-134341500D01*
X120803389Y-134362987D01*
X120523466Y-134447901D01*
X120265486Y-134585794D01*
X120039366Y-134771366D01*
X119853794Y-134997486D01*
X119715901Y-135255466D01*
X119630987Y-135535389D01*
X119602315Y-135826500D01*
X114744500Y-135826500D01*
X114744500Y-134517047D01*
X114787226Y-134413898D01*
X114827000Y-134213939D01*
X114827000Y-134010061D01*
X114787226Y-133810102D01*
X114709205Y-133621744D01*
X114595937Y-133452226D01*
X114451774Y-133308063D01*
X114282256Y-133194795D01*
X114093898Y-133116774D01*
X113893939Y-133077000D01*
X113690061Y-133077000D01*
X113490102Y-133116774D01*
X113301744Y-133194795D01*
X113132226Y-133308063D01*
X112988063Y-133452226D01*
X112874795Y-133621744D01*
X112796774Y-133810102D01*
X112757000Y-134010061D01*
X96697000Y-134010061D01*
X96697000Y-125704258D01*
X97035500Y-125704258D01*
X97035500Y-126390742D01*
X97169427Y-127064037D01*
X97432133Y-127698266D01*
X97813524Y-128269058D01*
X98298942Y-128754476D01*
X98869734Y-129135867D01*
X99503963Y-129398573D01*
X100177258Y-129532500D01*
X100863742Y-129532500D01*
X101537037Y-129398573D01*
X102171266Y-129135867D01*
X102742058Y-128754476D01*
X103227476Y-128269058D01*
X103286982Y-128180000D01*
X119796928Y-128180000D01*
X119796928Y-129630000D01*
X119813992Y-129803254D01*
X119864528Y-129969850D01*
X119946595Y-130123386D01*
X120057038Y-130257962D01*
X120191614Y-130368405D01*
X120345150Y-130450472D01*
X120511746Y-130501008D01*
X120685000Y-130518072D01*
X121885000Y-130518072D01*
X122058254Y-130501008D01*
X122224850Y-130450472D01*
X122378386Y-130368405D01*
X122512962Y-130257962D01*
X122623405Y-130123386D01*
X122679714Y-130018039D01*
X122695951Y-130039429D01*
X122913807Y-130232496D01*
X123165142Y-130379352D01*
X123428110Y-130471476D01*
X123658000Y-130350155D01*
X123658000Y-129032000D01*
X123638000Y-129032000D01*
X123638000Y-128778000D01*
X123658000Y-128778000D01*
X123658000Y-127459845D01*
X123912000Y-127459845D01*
X123912000Y-128778000D01*
X123932000Y-128778000D01*
X123932000Y-129032000D01*
X123912000Y-129032000D01*
X123912000Y-130350155D01*
X124141890Y-130471476D01*
X124404858Y-130379352D01*
X124656193Y-130232496D01*
X124874049Y-130039429D01*
X125030538Y-129833278D01*
X125044294Y-129859014D01*
X125229866Y-130085134D01*
X125455987Y-130270706D01*
X125713967Y-130408599D01*
X125993890Y-130493513D01*
X126285000Y-130522185D01*
X126576111Y-130493513D01*
X126856034Y-130408599D01*
X127114014Y-130270706D01*
X127340134Y-130085134D01*
X127525706Y-129859014D01*
X127663599Y-129601033D01*
X127748513Y-129321110D01*
X127770000Y-129102949D01*
X127770000Y-128707050D01*
X127748513Y-128488889D01*
X127663599Y-128208966D01*
X127525706Y-127950986D01*
X127340134Y-127724866D01*
X127114013Y-127539294D01*
X126856033Y-127401401D01*
X126576110Y-127316487D01*
X126285000Y-127287815D01*
X125993889Y-127316487D01*
X125713966Y-127401401D01*
X125455986Y-127539294D01*
X125229866Y-127724866D01*
X125044294Y-127950987D01*
X125030538Y-127976722D01*
X124874049Y-127770571D01*
X124656193Y-127577504D01*
X124404858Y-127430648D01*
X124141890Y-127338524D01*
X123912000Y-127459845D01*
X123658000Y-127459845D01*
X123428110Y-127338524D01*
X123165142Y-127430648D01*
X122913807Y-127577504D01*
X122695951Y-127770571D01*
X122679714Y-127791961D01*
X122623405Y-127686614D01*
X122512962Y-127552038D01*
X122378386Y-127441595D01*
X122224850Y-127359528D01*
X122058254Y-127308992D01*
X121885000Y-127291928D01*
X120685000Y-127291928D01*
X120511746Y-127308992D01*
X120345150Y-127359528D01*
X120191614Y-127441595D01*
X120057038Y-127552038D01*
X119946595Y-127686614D01*
X119864528Y-127840150D01*
X119813992Y-128006746D01*
X119796928Y-128180000D01*
X103286982Y-128180000D01*
X103608867Y-127698266D01*
X103871573Y-127064037D01*
X104005500Y-126390742D01*
X104005500Y-126148758D01*
X142311000Y-126148758D01*
X142311000Y-126835242D01*
X142444927Y-127508537D01*
X142707633Y-128142766D01*
X143089024Y-128713558D01*
X143574442Y-129198976D01*
X144145234Y-129580367D01*
X144779463Y-129843073D01*
X145452758Y-129977000D01*
X146139242Y-129977000D01*
X146812537Y-129843073D01*
X147446766Y-129580367D01*
X148017558Y-129198976D01*
X148502976Y-128713558D01*
X148884367Y-128142766D01*
X149147073Y-127508537D01*
X149281000Y-126835242D01*
X149281000Y-126148758D01*
X149147073Y-125475463D01*
X148884367Y-124841234D01*
X148502976Y-124270442D01*
X148017558Y-123785024D01*
X147446766Y-123403633D01*
X146812537Y-123140927D01*
X146139242Y-123007000D01*
X145452758Y-123007000D01*
X144779463Y-123140927D01*
X144145234Y-123403633D01*
X143574442Y-123785024D01*
X143089024Y-124270442D01*
X142707633Y-124841234D01*
X142444927Y-125475463D01*
X142311000Y-126148758D01*
X104005500Y-126148758D01*
X104005500Y-125704258D01*
X103871573Y-125030963D01*
X103608867Y-124396734D01*
X103227476Y-123825942D01*
X102742058Y-123340524D01*
X102171266Y-122959133D01*
X101537037Y-122696427D01*
X100863742Y-122562500D01*
X100177258Y-122562500D01*
X99503963Y-122696427D01*
X98869734Y-122959133D01*
X98298942Y-123340524D01*
X97813524Y-123825942D01*
X97432133Y-124396734D01*
X97169427Y-125030963D01*
X97035500Y-125704258D01*
X96697000Y-125704258D01*
X96697000Y-122097000D01*
X150191001Y-122097000D01*
X150191000Y-154572500D01*
M02*
