G04 #@! TF.GenerationSoftware,KiCad,Pcbnew,(5.1.2)-2*
G04 #@! TF.CreationDate,2019-07-06T09:41:49+08:00*
G04 #@! TF.ProjectId,HMC346AMS8GE,484d4333-3436-4414-9d53-3847452e6b69,rev?*
G04 #@! TF.SameCoordinates,Original*
G04 #@! TF.FileFunction,Copper,L1,Top*
G04 #@! TF.FilePolarity,Positive*
%FSLAX46Y46*%
G04 Gerber Fmt 4.6, Leading zero omitted, Abs format (unit mm)*
G04 Created by KiCad (PCBNEW (5.1.2)-2) date 2019-07-06 09:41:49*
%MOMM*%
%LPD*%
G04 APERTURE LIST*
%ADD10C,1.000000*%
%ADD11C,2.000000*%
%ADD12C,2.250000*%
%ADD13C,2.050000*%
%ADD14R,1.700000X1.700000*%
%ADD15O,1.700000X1.700000*%
%ADD16C,5.700000*%
%ADD17R,1.450000X0.450000*%
%ADD18C,0.800000*%
%ADD19C,0.400000*%
%ADD20C,0.254000*%
G04 APERTURE END LIST*
D10*
X121920000Y-110490000D03*
X142240000Y-110490000D03*
D11*
X140335000Y-114300000D03*
X124460000Y-114300000D03*
D12*
X114300000Y-121285000D03*
X114300000Y-116205000D03*
X119380000Y-116205000D03*
X119380000Y-121285000D03*
D13*
X116840000Y-118745000D03*
D14*
X128270000Y-129540000D03*
D15*
X130810000Y-129540000D03*
X133350000Y-129540000D03*
X135890000Y-129540000D03*
D13*
X147320000Y-118745000D03*
D12*
X149860000Y-121285000D03*
X149860000Y-116205000D03*
X144780000Y-116205000D03*
X144780000Y-121285000D03*
D16*
X106680000Y-132715000D03*
X155575000Y-132715000D03*
X156210000Y-109855000D03*
X106680000Y-109855000D03*
D17*
X130085001Y-118240001D03*
X130085001Y-118890001D03*
X130085001Y-119540001D03*
X130085001Y-120190001D03*
X134485001Y-120190001D03*
X134485001Y-119540001D03*
X134485001Y-118890001D03*
X134485001Y-118240001D03*
D18*
X142240000Y-119380000D03*
X140970000Y-119380000D03*
X139700000Y-119380000D03*
X137795000Y-119380000D03*
X127000000Y-120015000D03*
X127000000Y-121285000D03*
X127000000Y-122555000D03*
X127000000Y-123825000D03*
X127000000Y-125095000D03*
X127000000Y-127000000D03*
X131445000Y-121920000D03*
X132715000Y-121920000D03*
X133985000Y-121920000D03*
X133985000Y-123190000D03*
X132715000Y-123190000D03*
X131445000Y-123190000D03*
X131445000Y-124460000D03*
X132715000Y-124460000D03*
X133985000Y-124460000D03*
X133985000Y-125730000D03*
X132715000Y-125730000D03*
X133985000Y-127635000D03*
X137160000Y-121920000D03*
X137160000Y-123190000D03*
X137160000Y-124460000D03*
X137160000Y-126365000D03*
X137160000Y-127635000D03*
X130175000Y-132080000D03*
X131445000Y-132080000D03*
X132715000Y-132080000D03*
X133985000Y-132080000D03*
X135255000Y-132080000D03*
X136525000Y-132080000D03*
X113665000Y-123825000D03*
X114935000Y-123825000D03*
X116205000Y-123825000D03*
X117475000Y-123825000D03*
X118745000Y-123825000D03*
X120015000Y-123825000D03*
X143510000Y-123825000D03*
X144780000Y-123825000D03*
X146050000Y-123825000D03*
X147320000Y-123825000D03*
X149225000Y-123825000D03*
X150495000Y-123825000D03*
X143510000Y-113665000D03*
X145415000Y-113665000D03*
X147955000Y-113665000D03*
X149225000Y-113665000D03*
X150495000Y-113665000D03*
X152400000Y-114935000D03*
X152400000Y-116205000D03*
X152400000Y-118110000D03*
X152400000Y-119380000D03*
X152400000Y-121285000D03*
X111760000Y-116205000D03*
X111760000Y-118110000D03*
X111760000Y-119380000D03*
X111760000Y-121285000D03*
X111760000Y-122555000D03*
X113030000Y-114300000D03*
X114935000Y-113665000D03*
X116205000Y-114300000D03*
X117475000Y-114300000D03*
X118745000Y-114300000D03*
X120015000Y-114300000D03*
X121920000Y-120015000D03*
X124460000Y-120015000D03*
X123190000Y-120015000D03*
X125730000Y-120015000D03*
X134620000Y-116840000D03*
X121920000Y-116840000D03*
X131445000Y-116840000D03*
X136525000Y-116840000D03*
X137795000Y-116840000D03*
X128270000Y-116840000D03*
X130175000Y-116840000D03*
X132715000Y-116840000D03*
X127000000Y-116840000D03*
X141605000Y-116840000D03*
X139065000Y-116840000D03*
X123190000Y-116840000D03*
X125730000Y-116840000D03*
D19*
X128960001Y-118890001D02*
X128935011Y-118865011D01*
X128935011Y-118865011D02*
X126879989Y-118865011D01*
X127020000Y-129540000D02*
X128270000Y-129540000D01*
X126879989Y-118865011D02*
X125730000Y-120015000D01*
X130085001Y-118890001D02*
X128960001Y-118890001D01*
X125730000Y-128250000D02*
X127020000Y-129540000D01*
X130085001Y-118890001D02*
X134485001Y-118890001D01*
X125730000Y-120015000D02*
X125730000Y-128250000D01*
X125730000Y-120015000D02*
X125730000Y-120015000D01*
X142240000Y-110490000D02*
X144780000Y-113030000D01*
X144780000Y-113030000D02*
X144780000Y-116205000D01*
X121920000Y-110490000D02*
X119380000Y-113030000D01*
X119380000Y-113030000D02*
X119380000Y-116205000D01*
X117344999Y-118240001D02*
X116840000Y-118745000D01*
X124460000Y-118110000D02*
X124590001Y-118240001D01*
X124460000Y-114300000D02*
X124460000Y-118110000D01*
X130085001Y-118240001D02*
X124590001Y-118240001D01*
X124590001Y-118240001D02*
X117344999Y-118240001D01*
X146815001Y-118240001D02*
X147320000Y-118745000D01*
X140335000Y-118110000D02*
X140465001Y-118240001D01*
X140335000Y-114300000D02*
X140335000Y-118110000D01*
X134485001Y-118240001D02*
X140465001Y-118240001D01*
X140465001Y-118240001D02*
X146815001Y-118240001D01*
X129960001Y-128690001D02*
X130810000Y-129540000D01*
X128960000Y-127690000D02*
X129960001Y-128690001D01*
X128960000Y-119645000D02*
X128960000Y-127690000D01*
X129064999Y-119540001D02*
X128960000Y-119645000D01*
X130085001Y-119540001D02*
X129064999Y-119540001D01*
X130085001Y-126275001D02*
X133350000Y-129540000D01*
X130085001Y-120190001D02*
X130085001Y-126275001D01*
X135890000Y-128337919D02*
X135890000Y-129540000D01*
X135890000Y-119924998D02*
X135890000Y-128337919D01*
X135505003Y-119540001D02*
X135890000Y-119924998D01*
X134485001Y-119540001D02*
X135505003Y-119540001D01*
D20*
G36*
X160630000Y-136500000D02*
G01*
X101625000Y-136500000D01*
X101625000Y-132371758D01*
X103195000Y-132371758D01*
X103195000Y-133058242D01*
X103328927Y-133731537D01*
X103591633Y-134365766D01*
X103973024Y-134936558D01*
X104458442Y-135421976D01*
X105029234Y-135803367D01*
X105663463Y-136066073D01*
X106336758Y-136200000D01*
X107023242Y-136200000D01*
X107696537Y-136066073D01*
X108330766Y-135803367D01*
X108901558Y-135421976D01*
X109386976Y-134936558D01*
X109768367Y-134365766D01*
X110031073Y-133731537D01*
X110165000Y-133058242D01*
X110165000Y-132371758D01*
X152090000Y-132371758D01*
X152090000Y-133058242D01*
X152223927Y-133731537D01*
X152486633Y-134365766D01*
X152868024Y-134936558D01*
X153353442Y-135421976D01*
X153924234Y-135803367D01*
X154558463Y-136066073D01*
X155231758Y-136200000D01*
X155918242Y-136200000D01*
X156591537Y-136066073D01*
X157225766Y-135803367D01*
X157796558Y-135421976D01*
X158281976Y-134936558D01*
X158663367Y-134365766D01*
X158926073Y-133731537D01*
X159060000Y-133058242D01*
X159060000Y-132371758D01*
X158926073Y-131698463D01*
X158663367Y-131064234D01*
X158281976Y-130493442D01*
X157796558Y-130008024D01*
X157225766Y-129626633D01*
X156591537Y-129363927D01*
X155918242Y-129230000D01*
X155231758Y-129230000D01*
X154558463Y-129363927D01*
X153924234Y-129626633D01*
X153353442Y-130008024D01*
X152868024Y-130493442D01*
X152486633Y-131064234D01*
X152223927Y-131698463D01*
X152090000Y-132371758D01*
X110165000Y-132371758D01*
X110031073Y-131698463D01*
X109768367Y-131064234D01*
X109386976Y-130493442D01*
X109283534Y-130390000D01*
X126781928Y-130390000D01*
X126794188Y-130514482D01*
X126830498Y-130634180D01*
X126889463Y-130744494D01*
X126968815Y-130841185D01*
X127065506Y-130920537D01*
X127175820Y-130979502D01*
X127295518Y-131015812D01*
X127420000Y-131028072D01*
X127984250Y-131025000D01*
X128143000Y-130866250D01*
X128143000Y-129667000D01*
X126943750Y-129667000D01*
X126785000Y-129825750D01*
X126781928Y-130390000D01*
X109283534Y-130390000D01*
X108901558Y-130008024D01*
X108330766Y-129626633D01*
X107696537Y-129363927D01*
X107023242Y-129230000D01*
X106336758Y-129230000D01*
X105663463Y-129363927D01*
X105029234Y-129626633D01*
X104458442Y-130008024D01*
X103973024Y-130493442D01*
X103591633Y-131064234D01*
X103328927Y-131698463D01*
X103195000Y-132371758D01*
X101625000Y-132371758D01*
X101625000Y-122509531D01*
X113255074Y-122509531D01*
X113365921Y-122786714D01*
X113676840Y-122940089D01*
X114011705Y-123029860D01*
X114357650Y-123052576D01*
X114701380Y-123007366D01*
X115029685Y-122895966D01*
X115234079Y-122786714D01*
X115344926Y-122509531D01*
X118335074Y-122509531D01*
X118445921Y-122786714D01*
X118756840Y-122940089D01*
X119091705Y-123029860D01*
X119437650Y-123052576D01*
X119781380Y-123007366D01*
X120109685Y-122895966D01*
X120314079Y-122786714D01*
X120424926Y-122509531D01*
X119380000Y-121464605D01*
X118335074Y-122509531D01*
X115344926Y-122509531D01*
X114300000Y-121464605D01*
X113255074Y-122509531D01*
X101625000Y-122509531D01*
X101625000Y-121342650D01*
X112532424Y-121342650D01*
X112577634Y-121686380D01*
X112689034Y-122014685D01*
X112798286Y-122219079D01*
X113075469Y-122329926D01*
X114120395Y-121285000D01*
X114479605Y-121285000D01*
X115524531Y-122329926D01*
X115801714Y-122219079D01*
X115955089Y-121908160D01*
X116044860Y-121573295D01*
X116060004Y-121342650D01*
X117612424Y-121342650D01*
X117657634Y-121686380D01*
X117769034Y-122014685D01*
X117878286Y-122219079D01*
X118155469Y-122329926D01*
X119200395Y-121285000D01*
X119559605Y-121285000D01*
X120604531Y-122329926D01*
X120881714Y-122219079D01*
X121035089Y-121908160D01*
X121124860Y-121573295D01*
X121147576Y-121227350D01*
X121102366Y-120883620D01*
X120990966Y-120555315D01*
X120881714Y-120350921D01*
X120604531Y-120240074D01*
X119559605Y-121285000D01*
X119200395Y-121285000D01*
X118155469Y-120240074D01*
X117878286Y-120350921D01*
X117724911Y-120661840D01*
X117635140Y-120996705D01*
X117612424Y-121342650D01*
X116060004Y-121342650D01*
X116067576Y-121227350D01*
X116022366Y-120883620D01*
X115910966Y-120555315D01*
X115801714Y-120350921D01*
X115524531Y-120240074D01*
X114479605Y-121285000D01*
X114120395Y-121285000D01*
X113075469Y-120240074D01*
X112798286Y-120350921D01*
X112644911Y-120661840D01*
X112555140Y-120996705D01*
X112532424Y-121342650D01*
X101625000Y-121342650D01*
X101625000Y-120060469D01*
X113255074Y-120060469D01*
X114300000Y-121105395D01*
X115344926Y-120060469D01*
X115234079Y-119783286D01*
X114923160Y-119629911D01*
X114588295Y-119540140D01*
X114242350Y-119517424D01*
X113898620Y-119562634D01*
X113570315Y-119674034D01*
X113365921Y-119783286D01*
X113255074Y-120060469D01*
X101625000Y-120060469D01*
X101625000Y-118581504D01*
X115180000Y-118581504D01*
X115180000Y-118908496D01*
X115243793Y-119229204D01*
X115368927Y-119531305D01*
X115550594Y-119803188D01*
X115781812Y-120034406D01*
X116053695Y-120216073D01*
X116355796Y-120341207D01*
X116676504Y-120405000D01*
X117003496Y-120405000D01*
X117324204Y-120341207D01*
X117626305Y-120216073D01*
X117859182Y-120060469D01*
X118335074Y-120060469D01*
X119380000Y-121105395D01*
X120424926Y-120060469D01*
X120314079Y-119783286D01*
X120003160Y-119629911D01*
X119668295Y-119540140D01*
X119322350Y-119517424D01*
X118978620Y-119562634D01*
X118650315Y-119674034D01*
X118445921Y-119783286D01*
X118335074Y-120060469D01*
X117859182Y-120060469D01*
X117898188Y-120034406D01*
X118129406Y-119803188D01*
X118311073Y-119531305D01*
X118436207Y-119229204D01*
X118466880Y-119075001D01*
X124548982Y-119075001D01*
X124590000Y-119079041D01*
X124631019Y-119075001D01*
X128347594Y-119075001D01*
X128262365Y-119178854D01*
X128262364Y-119178855D01*
X128184828Y-119323914D01*
X128137082Y-119481312D01*
X128120960Y-119645000D01*
X128125000Y-119686019D01*
X128125001Y-127648971D01*
X128120960Y-127690000D01*
X128137082Y-127853688D01*
X128184828Y-128011086D01*
X128208301Y-128055000D01*
X128142998Y-128055000D01*
X128142998Y-128213748D01*
X127984250Y-128055000D01*
X127420000Y-128051928D01*
X127295518Y-128064188D01*
X127175820Y-128100498D01*
X127065506Y-128159463D01*
X126968815Y-128238815D01*
X126889463Y-128335506D01*
X126830498Y-128445820D01*
X126794188Y-128565518D01*
X126781928Y-128690000D01*
X126785000Y-129254250D01*
X126943750Y-129413000D01*
X128143000Y-129413000D01*
X128143000Y-129393000D01*
X128397000Y-129393000D01*
X128397000Y-129413000D01*
X128417000Y-129413000D01*
X128417000Y-129667000D01*
X128397000Y-129667000D01*
X128397000Y-130866250D01*
X128555750Y-131025000D01*
X129120000Y-131028072D01*
X129244482Y-131015812D01*
X129364180Y-130979502D01*
X129474494Y-130920537D01*
X129571185Y-130841185D01*
X129650537Y-130744494D01*
X129709502Y-130634180D01*
X129730393Y-130565313D01*
X129754866Y-130595134D01*
X129980986Y-130780706D01*
X130238966Y-130918599D01*
X130518889Y-131003513D01*
X130737050Y-131025000D01*
X130882950Y-131025000D01*
X131101111Y-131003513D01*
X131381034Y-130918599D01*
X131639014Y-130780706D01*
X131865134Y-130595134D01*
X132050706Y-130369014D01*
X132080000Y-130314209D01*
X132109294Y-130369014D01*
X132294866Y-130595134D01*
X132520986Y-130780706D01*
X132778966Y-130918599D01*
X133058889Y-131003513D01*
X133277050Y-131025000D01*
X133422950Y-131025000D01*
X133641111Y-131003513D01*
X133921034Y-130918599D01*
X134179014Y-130780706D01*
X134405134Y-130595134D01*
X134590706Y-130369014D01*
X134620000Y-130314209D01*
X134649294Y-130369014D01*
X134834866Y-130595134D01*
X135060986Y-130780706D01*
X135318966Y-130918599D01*
X135598889Y-131003513D01*
X135817050Y-131025000D01*
X135962950Y-131025000D01*
X136181111Y-131003513D01*
X136461034Y-130918599D01*
X136719014Y-130780706D01*
X136945134Y-130595134D01*
X137130706Y-130369014D01*
X137268599Y-130111034D01*
X137353513Y-129831111D01*
X137382185Y-129540000D01*
X137353513Y-129248889D01*
X137268599Y-128968966D01*
X137130706Y-128710986D01*
X136945134Y-128484866D01*
X136725000Y-128304207D01*
X136725000Y-122509531D01*
X143735074Y-122509531D01*
X143845921Y-122786714D01*
X144156840Y-122940089D01*
X144491705Y-123029860D01*
X144837650Y-123052576D01*
X145181380Y-123007366D01*
X145509685Y-122895966D01*
X145714079Y-122786714D01*
X145824926Y-122509531D01*
X148815074Y-122509531D01*
X148925921Y-122786714D01*
X149236840Y-122940089D01*
X149571705Y-123029860D01*
X149917650Y-123052576D01*
X150261380Y-123007366D01*
X150589685Y-122895966D01*
X150794079Y-122786714D01*
X150904926Y-122509531D01*
X149860000Y-121464605D01*
X148815074Y-122509531D01*
X145824926Y-122509531D01*
X144780000Y-121464605D01*
X143735074Y-122509531D01*
X136725000Y-122509531D01*
X136725000Y-121342650D01*
X143012424Y-121342650D01*
X143057634Y-121686380D01*
X143169034Y-122014685D01*
X143278286Y-122219079D01*
X143555469Y-122329926D01*
X144600395Y-121285000D01*
X144959605Y-121285000D01*
X146004531Y-122329926D01*
X146281714Y-122219079D01*
X146435089Y-121908160D01*
X146524860Y-121573295D01*
X146540004Y-121342650D01*
X148092424Y-121342650D01*
X148137634Y-121686380D01*
X148249034Y-122014685D01*
X148358286Y-122219079D01*
X148635469Y-122329926D01*
X149680395Y-121285000D01*
X150039605Y-121285000D01*
X151084531Y-122329926D01*
X151361714Y-122219079D01*
X151515089Y-121908160D01*
X151604860Y-121573295D01*
X151627576Y-121227350D01*
X151582366Y-120883620D01*
X151470966Y-120555315D01*
X151361714Y-120350921D01*
X151084531Y-120240074D01*
X150039605Y-121285000D01*
X149680395Y-121285000D01*
X148635469Y-120240074D01*
X148358286Y-120350921D01*
X148204911Y-120661840D01*
X148115140Y-120996705D01*
X148092424Y-121342650D01*
X146540004Y-121342650D01*
X146547576Y-121227350D01*
X146502366Y-120883620D01*
X146390966Y-120555315D01*
X146281714Y-120350921D01*
X146004531Y-120240074D01*
X144959605Y-121285000D01*
X144600395Y-121285000D01*
X143555469Y-120240074D01*
X143278286Y-120350921D01*
X143124911Y-120661840D01*
X143035140Y-120996705D01*
X143012424Y-121342650D01*
X136725000Y-121342650D01*
X136725000Y-120060469D01*
X143735074Y-120060469D01*
X144780000Y-121105395D01*
X145824926Y-120060469D01*
X145714079Y-119783286D01*
X145403160Y-119629911D01*
X145068295Y-119540140D01*
X144722350Y-119517424D01*
X144378620Y-119562634D01*
X144050315Y-119674034D01*
X143845921Y-119783286D01*
X143735074Y-120060469D01*
X136725000Y-120060469D01*
X136725000Y-119966016D01*
X136729040Y-119924998D01*
X136712918Y-119761309D01*
X136665172Y-119603911D01*
X136643109Y-119562634D01*
X136587636Y-119458852D01*
X136483291Y-119331707D01*
X136451422Y-119305553D01*
X136220870Y-119075001D01*
X140423982Y-119075001D01*
X140465000Y-119079041D01*
X140506019Y-119075001D01*
X145693120Y-119075001D01*
X145723793Y-119229204D01*
X145848927Y-119531305D01*
X146030594Y-119803188D01*
X146261812Y-120034406D01*
X146533695Y-120216073D01*
X146835796Y-120341207D01*
X147156504Y-120405000D01*
X147483496Y-120405000D01*
X147804204Y-120341207D01*
X148106305Y-120216073D01*
X148339182Y-120060469D01*
X148815074Y-120060469D01*
X149860000Y-121105395D01*
X150904926Y-120060469D01*
X150794079Y-119783286D01*
X150483160Y-119629911D01*
X150148295Y-119540140D01*
X149802350Y-119517424D01*
X149458620Y-119562634D01*
X149130315Y-119674034D01*
X148925921Y-119783286D01*
X148815074Y-120060469D01*
X148339182Y-120060469D01*
X148378188Y-120034406D01*
X148609406Y-119803188D01*
X148791073Y-119531305D01*
X148916207Y-119229204D01*
X148980000Y-118908496D01*
X148980000Y-118581504D01*
X148916207Y-118260796D01*
X148791073Y-117958695D01*
X148609406Y-117686812D01*
X148378188Y-117455594D01*
X148339183Y-117429531D01*
X148815074Y-117429531D01*
X148925921Y-117706714D01*
X149236840Y-117860089D01*
X149571705Y-117949860D01*
X149917650Y-117972576D01*
X150261380Y-117927366D01*
X150589685Y-117815966D01*
X150794079Y-117706714D01*
X150904926Y-117429531D01*
X149860000Y-116384605D01*
X148815074Y-117429531D01*
X148339183Y-117429531D01*
X148106305Y-117273927D01*
X147804204Y-117148793D01*
X147483496Y-117085000D01*
X147156504Y-117085000D01*
X146835796Y-117148793D01*
X146533695Y-117273927D01*
X146337530Y-117405001D01*
X146080189Y-117405001D01*
X146119899Y-117365291D01*
X146004533Y-117249925D01*
X146281714Y-117139079D01*
X146435089Y-116828160D01*
X146524860Y-116493295D01*
X146540004Y-116262650D01*
X148092424Y-116262650D01*
X148137634Y-116606380D01*
X148249034Y-116934685D01*
X148358286Y-117139079D01*
X148635469Y-117249926D01*
X149680395Y-116205000D01*
X150039605Y-116205000D01*
X151084531Y-117249926D01*
X151361714Y-117139079D01*
X151515089Y-116828160D01*
X151604860Y-116493295D01*
X151627576Y-116147350D01*
X151582366Y-115803620D01*
X151470966Y-115475315D01*
X151361714Y-115270921D01*
X151084531Y-115160074D01*
X150039605Y-116205000D01*
X149680395Y-116205000D01*
X148635469Y-115160074D01*
X148358286Y-115270921D01*
X148204911Y-115581840D01*
X148115140Y-115916705D01*
X148092424Y-116262650D01*
X146540004Y-116262650D01*
X146547576Y-116147350D01*
X146502366Y-115803620D01*
X146390966Y-115475315D01*
X146281714Y-115270921D01*
X146004531Y-115160074D01*
X144959605Y-116205000D01*
X144973748Y-116219143D01*
X144794143Y-116398748D01*
X144780000Y-116384605D01*
X144765858Y-116398748D01*
X144586253Y-116219143D01*
X144600395Y-116205000D01*
X143555469Y-115160074D01*
X143278286Y-115270921D01*
X143124911Y-115581840D01*
X143035140Y-115916705D01*
X143012424Y-116262650D01*
X143057634Y-116606380D01*
X143169034Y-116934685D01*
X143278286Y-117139079D01*
X143555467Y-117249925D01*
X143440101Y-117365291D01*
X143479811Y-117405001D01*
X141170000Y-117405001D01*
X141170000Y-115708468D01*
X141377252Y-115569987D01*
X141604987Y-115342252D01*
X141783918Y-115074463D01*
X141822851Y-114980469D01*
X143735074Y-114980469D01*
X144780000Y-116025395D01*
X145824926Y-114980469D01*
X148815074Y-114980469D01*
X149860000Y-116025395D01*
X150904926Y-114980469D01*
X150794079Y-114703286D01*
X150483160Y-114549911D01*
X150148295Y-114460140D01*
X149802350Y-114437424D01*
X149458620Y-114482634D01*
X149130315Y-114594034D01*
X148925921Y-114703286D01*
X148815074Y-114980469D01*
X145824926Y-114980469D01*
X145714079Y-114703286D01*
X145403160Y-114549911D01*
X145068295Y-114460140D01*
X144722350Y-114437424D01*
X144378620Y-114482634D01*
X144050315Y-114594034D01*
X143845921Y-114703286D01*
X143735074Y-114980469D01*
X141822851Y-114980469D01*
X141907168Y-114776912D01*
X141970000Y-114461033D01*
X141970000Y-114138967D01*
X141907168Y-113823088D01*
X141783918Y-113525537D01*
X141604987Y-113257748D01*
X141377252Y-113030013D01*
X141109463Y-112851082D01*
X140811912Y-112727832D01*
X140496033Y-112665000D01*
X140173967Y-112665000D01*
X139858088Y-112727832D01*
X139560537Y-112851082D01*
X139292748Y-113030013D01*
X139065013Y-113257748D01*
X138886082Y-113525537D01*
X138762832Y-113823088D01*
X138700000Y-114138967D01*
X138700000Y-114461033D01*
X138762832Y-114776912D01*
X138886082Y-115074463D01*
X139065013Y-115342252D01*
X139292748Y-115569987D01*
X139500000Y-115708469D01*
X139500001Y-117405001D01*
X135386608Y-117405001D01*
X135334483Y-117389189D01*
X135210001Y-117376929D01*
X133760001Y-117376929D01*
X133635519Y-117389189D01*
X133515821Y-117425499D01*
X133405507Y-117484464D01*
X133308816Y-117563816D01*
X133229464Y-117660507D01*
X133170499Y-117770821D01*
X133134189Y-117890519D01*
X133121929Y-118015001D01*
X133121929Y-118465001D01*
X133132096Y-118568228D01*
X133125001Y-118633251D01*
X133157248Y-118665498D01*
X133170499Y-118709181D01*
X133229464Y-118819495D01*
X133287327Y-118890001D01*
X133229464Y-118960507D01*
X133170499Y-119070821D01*
X133157248Y-119114504D01*
X133125001Y-119146751D01*
X133132096Y-119211774D01*
X133121929Y-119315001D01*
X133121929Y-119765001D01*
X133131778Y-119865001D01*
X133121929Y-119965001D01*
X133121929Y-120415001D01*
X133134189Y-120539483D01*
X133170499Y-120659181D01*
X133229464Y-120769495D01*
X133308816Y-120866186D01*
X133405507Y-120945538D01*
X133515821Y-121004503D01*
X133635519Y-121040813D01*
X133760001Y-121053073D01*
X135055000Y-121053073D01*
X135055001Y-128296891D01*
X135055000Y-128296901D01*
X135055000Y-128304207D01*
X134834866Y-128484866D01*
X134649294Y-128710986D01*
X134620000Y-128765791D01*
X134590706Y-128710986D01*
X134405134Y-128484866D01*
X134179014Y-128299294D01*
X133921034Y-128161401D01*
X133641111Y-128076487D01*
X133422950Y-128055000D01*
X133277050Y-128055000D01*
X133066596Y-128075728D01*
X130920001Y-125929134D01*
X130920001Y-121042239D01*
X130934483Y-121040813D01*
X131054181Y-121004503D01*
X131164495Y-120945538D01*
X131261186Y-120866186D01*
X131340538Y-120769495D01*
X131399503Y-120659181D01*
X131435813Y-120539483D01*
X131448073Y-120415001D01*
X131448073Y-119965001D01*
X131438224Y-119865001D01*
X131448073Y-119765001D01*
X131448073Y-119315001D01*
X131437906Y-119211774D01*
X131445001Y-119146751D01*
X131412754Y-119114504D01*
X131399503Y-119070821D01*
X131340538Y-118960507D01*
X131282675Y-118890001D01*
X131340538Y-118819495D01*
X131399503Y-118709181D01*
X131412754Y-118665498D01*
X131445001Y-118633251D01*
X131437906Y-118568228D01*
X131448073Y-118465001D01*
X131448073Y-118015001D01*
X131435813Y-117890519D01*
X131399503Y-117770821D01*
X131340538Y-117660507D01*
X131261186Y-117563816D01*
X131164495Y-117484464D01*
X131054181Y-117425499D01*
X130934483Y-117389189D01*
X130810001Y-117376929D01*
X129360001Y-117376929D01*
X129235519Y-117389189D01*
X129183394Y-117405001D01*
X125295000Y-117405001D01*
X125295000Y-115708468D01*
X125502252Y-115569987D01*
X125729987Y-115342252D01*
X125908918Y-115074463D01*
X126032168Y-114776912D01*
X126095000Y-114461033D01*
X126095000Y-114138967D01*
X126032168Y-113823088D01*
X125908918Y-113525537D01*
X125729987Y-113257748D01*
X125502252Y-113030013D01*
X125234463Y-112851082D01*
X124936912Y-112727832D01*
X124621033Y-112665000D01*
X124298967Y-112665000D01*
X123983088Y-112727832D01*
X123685537Y-112851082D01*
X123417748Y-113030013D01*
X123190013Y-113257748D01*
X123011082Y-113525537D01*
X122887832Y-113823088D01*
X122825000Y-114138967D01*
X122825000Y-114461033D01*
X122887832Y-114776912D01*
X123011082Y-115074463D01*
X123190013Y-115342252D01*
X123417748Y-115569987D01*
X123625000Y-115708469D01*
X123625001Y-117405001D01*
X120680189Y-117405001D01*
X120719899Y-117365291D01*
X120604533Y-117249925D01*
X120881714Y-117139079D01*
X121035089Y-116828160D01*
X121124860Y-116493295D01*
X121147576Y-116147350D01*
X121102366Y-115803620D01*
X120990966Y-115475315D01*
X120881714Y-115270921D01*
X120604531Y-115160074D01*
X119559605Y-116205000D01*
X119573748Y-116219143D01*
X119394143Y-116398748D01*
X119380000Y-116384605D01*
X119365858Y-116398748D01*
X119186253Y-116219143D01*
X119200395Y-116205000D01*
X118155469Y-115160074D01*
X117878286Y-115270921D01*
X117724911Y-115581840D01*
X117635140Y-115916705D01*
X117612424Y-116262650D01*
X117657634Y-116606380D01*
X117769034Y-116934685D01*
X117878286Y-117139079D01*
X118155467Y-117249925D01*
X118040101Y-117365291D01*
X118079811Y-117405001D01*
X117822470Y-117405001D01*
X117626305Y-117273927D01*
X117324204Y-117148793D01*
X117003496Y-117085000D01*
X116676504Y-117085000D01*
X116355796Y-117148793D01*
X116053695Y-117273927D01*
X115781812Y-117455594D01*
X115550594Y-117686812D01*
X115368927Y-117958695D01*
X115243793Y-118260796D01*
X115180000Y-118581504D01*
X101625000Y-118581504D01*
X101625000Y-117429531D01*
X113255074Y-117429531D01*
X113365921Y-117706714D01*
X113676840Y-117860089D01*
X114011705Y-117949860D01*
X114357650Y-117972576D01*
X114701380Y-117927366D01*
X115029685Y-117815966D01*
X115234079Y-117706714D01*
X115344926Y-117429531D01*
X114300000Y-116384605D01*
X113255074Y-117429531D01*
X101625000Y-117429531D01*
X101625000Y-116262650D01*
X112532424Y-116262650D01*
X112577634Y-116606380D01*
X112689034Y-116934685D01*
X112798286Y-117139079D01*
X113075469Y-117249926D01*
X114120395Y-116205000D01*
X114479605Y-116205000D01*
X115524531Y-117249926D01*
X115801714Y-117139079D01*
X115955089Y-116828160D01*
X116044860Y-116493295D01*
X116067576Y-116147350D01*
X116022366Y-115803620D01*
X115910966Y-115475315D01*
X115801714Y-115270921D01*
X115524531Y-115160074D01*
X114479605Y-116205000D01*
X114120395Y-116205000D01*
X113075469Y-115160074D01*
X112798286Y-115270921D01*
X112644911Y-115581840D01*
X112555140Y-115916705D01*
X112532424Y-116262650D01*
X101625000Y-116262650D01*
X101625000Y-114980469D01*
X113255074Y-114980469D01*
X114300000Y-116025395D01*
X115344926Y-114980469D01*
X118335074Y-114980469D01*
X119380000Y-116025395D01*
X120424926Y-114980469D01*
X120314079Y-114703286D01*
X120003160Y-114549911D01*
X119668295Y-114460140D01*
X119322350Y-114437424D01*
X118978620Y-114482634D01*
X118650315Y-114594034D01*
X118445921Y-114703286D01*
X118335074Y-114980469D01*
X115344926Y-114980469D01*
X115234079Y-114703286D01*
X114923160Y-114549911D01*
X114588295Y-114460140D01*
X114242350Y-114437424D01*
X113898620Y-114482634D01*
X113570315Y-114594034D01*
X113365921Y-114703286D01*
X113255074Y-114980469D01*
X101625000Y-114980469D01*
X101625000Y-109511758D01*
X103195000Y-109511758D01*
X103195000Y-110198242D01*
X103328927Y-110871537D01*
X103591633Y-111505766D01*
X103973024Y-112076558D01*
X104458442Y-112561976D01*
X105029234Y-112943367D01*
X105663463Y-113206073D01*
X106336758Y-113340000D01*
X107023242Y-113340000D01*
X107696537Y-113206073D01*
X108330766Y-112943367D01*
X108901558Y-112561976D01*
X109386976Y-112076558D01*
X109768367Y-111505766D01*
X109866784Y-111268166D01*
X121321439Y-111268166D01*
X121356550Y-111481588D01*
X121560826Y-111572458D01*
X121778905Y-111621731D01*
X122002406Y-111627511D01*
X122222740Y-111589577D01*
X122431440Y-111509387D01*
X122483450Y-111481588D01*
X122518561Y-111268166D01*
X141641439Y-111268166D01*
X141676550Y-111481588D01*
X141880826Y-111572458D01*
X142098905Y-111621731D01*
X142322406Y-111627511D01*
X142542740Y-111589577D01*
X142751440Y-111509387D01*
X142803450Y-111481588D01*
X142838561Y-111268166D01*
X142240000Y-110669605D01*
X141641439Y-111268166D01*
X122518561Y-111268166D01*
X121920000Y-110669605D01*
X121321439Y-111268166D01*
X109866784Y-111268166D01*
X110031073Y-110871537D01*
X110090573Y-110572406D01*
X120782489Y-110572406D01*
X120820423Y-110792740D01*
X120900613Y-111001440D01*
X120928412Y-111053450D01*
X121141834Y-111088561D01*
X121740395Y-110490000D01*
X122099605Y-110490000D01*
X122698166Y-111088561D01*
X122911588Y-111053450D01*
X123002458Y-110849174D01*
X123051731Y-110631095D01*
X123053248Y-110572406D01*
X141102489Y-110572406D01*
X141140423Y-110792740D01*
X141220613Y-111001440D01*
X141248412Y-111053450D01*
X141461834Y-111088561D01*
X142060395Y-110490000D01*
X142419605Y-110490000D01*
X143018166Y-111088561D01*
X143231588Y-111053450D01*
X143322458Y-110849174D01*
X143371731Y-110631095D01*
X143377511Y-110407594D01*
X143339577Y-110187260D01*
X143259387Y-109978560D01*
X143231588Y-109926550D01*
X143018166Y-109891439D01*
X142419605Y-110490000D01*
X142060395Y-110490000D01*
X141461834Y-109891439D01*
X141248412Y-109926550D01*
X141157542Y-110130826D01*
X141108269Y-110348905D01*
X141102489Y-110572406D01*
X123053248Y-110572406D01*
X123057511Y-110407594D01*
X123019577Y-110187260D01*
X122939387Y-109978560D01*
X122911588Y-109926550D01*
X122698166Y-109891439D01*
X122099605Y-110490000D01*
X121740395Y-110490000D01*
X121141834Y-109891439D01*
X120928412Y-109926550D01*
X120837542Y-110130826D01*
X120788269Y-110348905D01*
X120782489Y-110572406D01*
X110090573Y-110572406D01*
X110165000Y-110198242D01*
X110165000Y-109711834D01*
X121321439Y-109711834D01*
X121920000Y-110310395D01*
X122518561Y-109711834D01*
X141641439Y-109711834D01*
X142240000Y-110310395D01*
X142838561Y-109711834D01*
X142805646Y-109511758D01*
X152725000Y-109511758D01*
X152725000Y-110198242D01*
X152858927Y-110871537D01*
X153121633Y-111505766D01*
X153503024Y-112076558D01*
X153988442Y-112561976D01*
X154559234Y-112943367D01*
X155193463Y-113206073D01*
X155866758Y-113340000D01*
X156553242Y-113340000D01*
X157226537Y-113206073D01*
X157860766Y-112943367D01*
X158431558Y-112561976D01*
X158916976Y-112076558D01*
X159298367Y-111505766D01*
X159561073Y-110871537D01*
X159695000Y-110198242D01*
X159695000Y-109511758D01*
X159561073Y-108838463D01*
X159298367Y-108204234D01*
X158916976Y-107633442D01*
X158431558Y-107148024D01*
X157860766Y-106766633D01*
X157226537Y-106503927D01*
X156553242Y-106370000D01*
X155866758Y-106370000D01*
X155193463Y-106503927D01*
X154559234Y-106766633D01*
X153988442Y-107148024D01*
X153503024Y-107633442D01*
X153121633Y-108204234D01*
X152858927Y-108838463D01*
X152725000Y-109511758D01*
X142805646Y-109511758D01*
X142803450Y-109498412D01*
X142599174Y-109407542D01*
X142381095Y-109358269D01*
X142157594Y-109352489D01*
X141937260Y-109390423D01*
X141728560Y-109470613D01*
X141676550Y-109498412D01*
X141641439Y-109711834D01*
X122518561Y-109711834D01*
X122483450Y-109498412D01*
X122279174Y-109407542D01*
X122061095Y-109358269D01*
X121837594Y-109352489D01*
X121617260Y-109390423D01*
X121408560Y-109470613D01*
X121356550Y-109498412D01*
X121321439Y-109711834D01*
X110165000Y-109711834D01*
X110165000Y-109511758D01*
X110031073Y-108838463D01*
X109768367Y-108204234D01*
X109386976Y-107633442D01*
X108901558Y-107148024D01*
X108330766Y-106766633D01*
X107696537Y-106503927D01*
X107023242Y-106370000D01*
X106336758Y-106370000D01*
X105663463Y-106503927D01*
X105029234Y-106766633D01*
X104458442Y-107148024D01*
X103973024Y-107633442D01*
X103591633Y-108204234D01*
X103328927Y-108838463D01*
X103195000Y-109511758D01*
X101625000Y-109511758D01*
X101625000Y-106070000D01*
X160630001Y-106070000D01*
X160630000Y-136500000D01*
X160630000Y-136500000D01*
G37*
X160630000Y-136500000D02*
X101625000Y-136500000D01*
X101625000Y-132371758D01*
X103195000Y-132371758D01*
X103195000Y-133058242D01*
X103328927Y-133731537D01*
X103591633Y-134365766D01*
X103973024Y-134936558D01*
X104458442Y-135421976D01*
X105029234Y-135803367D01*
X105663463Y-136066073D01*
X106336758Y-136200000D01*
X107023242Y-136200000D01*
X107696537Y-136066073D01*
X108330766Y-135803367D01*
X108901558Y-135421976D01*
X109386976Y-134936558D01*
X109768367Y-134365766D01*
X110031073Y-133731537D01*
X110165000Y-133058242D01*
X110165000Y-132371758D01*
X152090000Y-132371758D01*
X152090000Y-133058242D01*
X152223927Y-133731537D01*
X152486633Y-134365766D01*
X152868024Y-134936558D01*
X153353442Y-135421976D01*
X153924234Y-135803367D01*
X154558463Y-136066073D01*
X155231758Y-136200000D01*
X155918242Y-136200000D01*
X156591537Y-136066073D01*
X157225766Y-135803367D01*
X157796558Y-135421976D01*
X158281976Y-134936558D01*
X158663367Y-134365766D01*
X158926073Y-133731537D01*
X159060000Y-133058242D01*
X159060000Y-132371758D01*
X158926073Y-131698463D01*
X158663367Y-131064234D01*
X158281976Y-130493442D01*
X157796558Y-130008024D01*
X157225766Y-129626633D01*
X156591537Y-129363927D01*
X155918242Y-129230000D01*
X155231758Y-129230000D01*
X154558463Y-129363927D01*
X153924234Y-129626633D01*
X153353442Y-130008024D01*
X152868024Y-130493442D01*
X152486633Y-131064234D01*
X152223927Y-131698463D01*
X152090000Y-132371758D01*
X110165000Y-132371758D01*
X110031073Y-131698463D01*
X109768367Y-131064234D01*
X109386976Y-130493442D01*
X109283534Y-130390000D01*
X126781928Y-130390000D01*
X126794188Y-130514482D01*
X126830498Y-130634180D01*
X126889463Y-130744494D01*
X126968815Y-130841185D01*
X127065506Y-130920537D01*
X127175820Y-130979502D01*
X127295518Y-131015812D01*
X127420000Y-131028072D01*
X127984250Y-131025000D01*
X128143000Y-130866250D01*
X128143000Y-129667000D01*
X126943750Y-129667000D01*
X126785000Y-129825750D01*
X126781928Y-130390000D01*
X109283534Y-130390000D01*
X108901558Y-130008024D01*
X108330766Y-129626633D01*
X107696537Y-129363927D01*
X107023242Y-129230000D01*
X106336758Y-129230000D01*
X105663463Y-129363927D01*
X105029234Y-129626633D01*
X104458442Y-130008024D01*
X103973024Y-130493442D01*
X103591633Y-131064234D01*
X103328927Y-131698463D01*
X103195000Y-132371758D01*
X101625000Y-132371758D01*
X101625000Y-122509531D01*
X113255074Y-122509531D01*
X113365921Y-122786714D01*
X113676840Y-122940089D01*
X114011705Y-123029860D01*
X114357650Y-123052576D01*
X114701380Y-123007366D01*
X115029685Y-122895966D01*
X115234079Y-122786714D01*
X115344926Y-122509531D01*
X118335074Y-122509531D01*
X118445921Y-122786714D01*
X118756840Y-122940089D01*
X119091705Y-123029860D01*
X119437650Y-123052576D01*
X119781380Y-123007366D01*
X120109685Y-122895966D01*
X120314079Y-122786714D01*
X120424926Y-122509531D01*
X119380000Y-121464605D01*
X118335074Y-122509531D01*
X115344926Y-122509531D01*
X114300000Y-121464605D01*
X113255074Y-122509531D01*
X101625000Y-122509531D01*
X101625000Y-121342650D01*
X112532424Y-121342650D01*
X112577634Y-121686380D01*
X112689034Y-122014685D01*
X112798286Y-122219079D01*
X113075469Y-122329926D01*
X114120395Y-121285000D01*
X114479605Y-121285000D01*
X115524531Y-122329926D01*
X115801714Y-122219079D01*
X115955089Y-121908160D01*
X116044860Y-121573295D01*
X116060004Y-121342650D01*
X117612424Y-121342650D01*
X117657634Y-121686380D01*
X117769034Y-122014685D01*
X117878286Y-122219079D01*
X118155469Y-122329926D01*
X119200395Y-121285000D01*
X119559605Y-121285000D01*
X120604531Y-122329926D01*
X120881714Y-122219079D01*
X121035089Y-121908160D01*
X121124860Y-121573295D01*
X121147576Y-121227350D01*
X121102366Y-120883620D01*
X120990966Y-120555315D01*
X120881714Y-120350921D01*
X120604531Y-120240074D01*
X119559605Y-121285000D01*
X119200395Y-121285000D01*
X118155469Y-120240074D01*
X117878286Y-120350921D01*
X117724911Y-120661840D01*
X117635140Y-120996705D01*
X117612424Y-121342650D01*
X116060004Y-121342650D01*
X116067576Y-121227350D01*
X116022366Y-120883620D01*
X115910966Y-120555315D01*
X115801714Y-120350921D01*
X115524531Y-120240074D01*
X114479605Y-121285000D01*
X114120395Y-121285000D01*
X113075469Y-120240074D01*
X112798286Y-120350921D01*
X112644911Y-120661840D01*
X112555140Y-120996705D01*
X112532424Y-121342650D01*
X101625000Y-121342650D01*
X101625000Y-120060469D01*
X113255074Y-120060469D01*
X114300000Y-121105395D01*
X115344926Y-120060469D01*
X115234079Y-119783286D01*
X114923160Y-119629911D01*
X114588295Y-119540140D01*
X114242350Y-119517424D01*
X113898620Y-119562634D01*
X113570315Y-119674034D01*
X113365921Y-119783286D01*
X113255074Y-120060469D01*
X101625000Y-120060469D01*
X101625000Y-118581504D01*
X115180000Y-118581504D01*
X115180000Y-118908496D01*
X115243793Y-119229204D01*
X115368927Y-119531305D01*
X115550594Y-119803188D01*
X115781812Y-120034406D01*
X116053695Y-120216073D01*
X116355796Y-120341207D01*
X116676504Y-120405000D01*
X117003496Y-120405000D01*
X117324204Y-120341207D01*
X117626305Y-120216073D01*
X117859182Y-120060469D01*
X118335074Y-120060469D01*
X119380000Y-121105395D01*
X120424926Y-120060469D01*
X120314079Y-119783286D01*
X120003160Y-119629911D01*
X119668295Y-119540140D01*
X119322350Y-119517424D01*
X118978620Y-119562634D01*
X118650315Y-119674034D01*
X118445921Y-119783286D01*
X118335074Y-120060469D01*
X117859182Y-120060469D01*
X117898188Y-120034406D01*
X118129406Y-119803188D01*
X118311073Y-119531305D01*
X118436207Y-119229204D01*
X118466880Y-119075001D01*
X124548982Y-119075001D01*
X124590000Y-119079041D01*
X124631019Y-119075001D01*
X128347594Y-119075001D01*
X128262365Y-119178854D01*
X128262364Y-119178855D01*
X128184828Y-119323914D01*
X128137082Y-119481312D01*
X128120960Y-119645000D01*
X128125000Y-119686019D01*
X128125001Y-127648971D01*
X128120960Y-127690000D01*
X128137082Y-127853688D01*
X128184828Y-128011086D01*
X128208301Y-128055000D01*
X128142998Y-128055000D01*
X128142998Y-128213748D01*
X127984250Y-128055000D01*
X127420000Y-128051928D01*
X127295518Y-128064188D01*
X127175820Y-128100498D01*
X127065506Y-128159463D01*
X126968815Y-128238815D01*
X126889463Y-128335506D01*
X126830498Y-128445820D01*
X126794188Y-128565518D01*
X126781928Y-128690000D01*
X126785000Y-129254250D01*
X126943750Y-129413000D01*
X128143000Y-129413000D01*
X128143000Y-129393000D01*
X128397000Y-129393000D01*
X128397000Y-129413000D01*
X128417000Y-129413000D01*
X128417000Y-129667000D01*
X128397000Y-129667000D01*
X128397000Y-130866250D01*
X128555750Y-131025000D01*
X129120000Y-131028072D01*
X129244482Y-131015812D01*
X129364180Y-130979502D01*
X129474494Y-130920537D01*
X129571185Y-130841185D01*
X129650537Y-130744494D01*
X129709502Y-130634180D01*
X129730393Y-130565313D01*
X129754866Y-130595134D01*
X129980986Y-130780706D01*
X130238966Y-130918599D01*
X130518889Y-131003513D01*
X130737050Y-131025000D01*
X130882950Y-131025000D01*
X131101111Y-131003513D01*
X131381034Y-130918599D01*
X131639014Y-130780706D01*
X131865134Y-130595134D01*
X132050706Y-130369014D01*
X132080000Y-130314209D01*
X132109294Y-130369014D01*
X132294866Y-130595134D01*
X132520986Y-130780706D01*
X132778966Y-130918599D01*
X133058889Y-131003513D01*
X133277050Y-131025000D01*
X133422950Y-131025000D01*
X133641111Y-131003513D01*
X133921034Y-130918599D01*
X134179014Y-130780706D01*
X134405134Y-130595134D01*
X134590706Y-130369014D01*
X134620000Y-130314209D01*
X134649294Y-130369014D01*
X134834866Y-130595134D01*
X135060986Y-130780706D01*
X135318966Y-130918599D01*
X135598889Y-131003513D01*
X135817050Y-131025000D01*
X135962950Y-131025000D01*
X136181111Y-131003513D01*
X136461034Y-130918599D01*
X136719014Y-130780706D01*
X136945134Y-130595134D01*
X137130706Y-130369014D01*
X137268599Y-130111034D01*
X137353513Y-129831111D01*
X137382185Y-129540000D01*
X137353513Y-129248889D01*
X137268599Y-128968966D01*
X137130706Y-128710986D01*
X136945134Y-128484866D01*
X136725000Y-128304207D01*
X136725000Y-122509531D01*
X143735074Y-122509531D01*
X143845921Y-122786714D01*
X144156840Y-122940089D01*
X144491705Y-123029860D01*
X144837650Y-123052576D01*
X145181380Y-123007366D01*
X145509685Y-122895966D01*
X145714079Y-122786714D01*
X145824926Y-122509531D01*
X148815074Y-122509531D01*
X148925921Y-122786714D01*
X149236840Y-122940089D01*
X149571705Y-123029860D01*
X149917650Y-123052576D01*
X150261380Y-123007366D01*
X150589685Y-122895966D01*
X150794079Y-122786714D01*
X150904926Y-122509531D01*
X149860000Y-121464605D01*
X148815074Y-122509531D01*
X145824926Y-122509531D01*
X144780000Y-121464605D01*
X143735074Y-122509531D01*
X136725000Y-122509531D01*
X136725000Y-121342650D01*
X143012424Y-121342650D01*
X143057634Y-121686380D01*
X143169034Y-122014685D01*
X143278286Y-122219079D01*
X143555469Y-122329926D01*
X144600395Y-121285000D01*
X144959605Y-121285000D01*
X146004531Y-122329926D01*
X146281714Y-122219079D01*
X146435089Y-121908160D01*
X146524860Y-121573295D01*
X146540004Y-121342650D01*
X148092424Y-121342650D01*
X148137634Y-121686380D01*
X148249034Y-122014685D01*
X148358286Y-122219079D01*
X148635469Y-122329926D01*
X149680395Y-121285000D01*
X150039605Y-121285000D01*
X151084531Y-122329926D01*
X151361714Y-122219079D01*
X151515089Y-121908160D01*
X151604860Y-121573295D01*
X151627576Y-121227350D01*
X151582366Y-120883620D01*
X151470966Y-120555315D01*
X151361714Y-120350921D01*
X151084531Y-120240074D01*
X150039605Y-121285000D01*
X149680395Y-121285000D01*
X148635469Y-120240074D01*
X148358286Y-120350921D01*
X148204911Y-120661840D01*
X148115140Y-120996705D01*
X148092424Y-121342650D01*
X146540004Y-121342650D01*
X146547576Y-121227350D01*
X146502366Y-120883620D01*
X146390966Y-120555315D01*
X146281714Y-120350921D01*
X146004531Y-120240074D01*
X144959605Y-121285000D01*
X144600395Y-121285000D01*
X143555469Y-120240074D01*
X143278286Y-120350921D01*
X143124911Y-120661840D01*
X143035140Y-120996705D01*
X143012424Y-121342650D01*
X136725000Y-121342650D01*
X136725000Y-120060469D01*
X143735074Y-120060469D01*
X144780000Y-121105395D01*
X145824926Y-120060469D01*
X145714079Y-119783286D01*
X145403160Y-119629911D01*
X145068295Y-119540140D01*
X144722350Y-119517424D01*
X144378620Y-119562634D01*
X144050315Y-119674034D01*
X143845921Y-119783286D01*
X143735074Y-120060469D01*
X136725000Y-120060469D01*
X136725000Y-119966016D01*
X136729040Y-119924998D01*
X136712918Y-119761309D01*
X136665172Y-119603911D01*
X136643109Y-119562634D01*
X136587636Y-119458852D01*
X136483291Y-119331707D01*
X136451422Y-119305553D01*
X136220870Y-119075001D01*
X140423982Y-119075001D01*
X140465000Y-119079041D01*
X140506019Y-119075001D01*
X145693120Y-119075001D01*
X145723793Y-119229204D01*
X145848927Y-119531305D01*
X146030594Y-119803188D01*
X146261812Y-120034406D01*
X146533695Y-120216073D01*
X146835796Y-120341207D01*
X147156504Y-120405000D01*
X147483496Y-120405000D01*
X147804204Y-120341207D01*
X148106305Y-120216073D01*
X148339182Y-120060469D01*
X148815074Y-120060469D01*
X149860000Y-121105395D01*
X150904926Y-120060469D01*
X150794079Y-119783286D01*
X150483160Y-119629911D01*
X150148295Y-119540140D01*
X149802350Y-119517424D01*
X149458620Y-119562634D01*
X149130315Y-119674034D01*
X148925921Y-119783286D01*
X148815074Y-120060469D01*
X148339182Y-120060469D01*
X148378188Y-120034406D01*
X148609406Y-119803188D01*
X148791073Y-119531305D01*
X148916207Y-119229204D01*
X148980000Y-118908496D01*
X148980000Y-118581504D01*
X148916207Y-118260796D01*
X148791073Y-117958695D01*
X148609406Y-117686812D01*
X148378188Y-117455594D01*
X148339183Y-117429531D01*
X148815074Y-117429531D01*
X148925921Y-117706714D01*
X149236840Y-117860089D01*
X149571705Y-117949860D01*
X149917650Y-117972576D01*
X150261380Y-117927366D01*
X150589685Y-117815966D01*
X150794079Y-117706714D01*
X150904926Y-117429531D01*
X149860000Y-116384605D01*
X148815074Y-117429531D01*
X148339183Y-117429531D01*
X148106305Y-117273927D01*
X147804204Y-117148793D01*
X147483496Y-117085000D01*
X147156504Y-117085000D01*
X146835796Y-117148793D01*
X146533695Y-117273927D01*
X146337530Y-117405001D01*
X146080189Y-117405001D01*
X146119899Y-117365291D01*
X146004533Y-117249925D01*
X146281714Y-117139079D01*
X146435089Y-116828160D01*
X146524860Y-116493295D01*
X146540004Y-116262650D01*
X148092424Y-116262650D01*
X148137634Y-116606380D01*
X148249034Y-116934685D01*
X148358286Y-117139079D01*
X148635469Y-117249926D01*
X149680395Y-116205000D01*
X150039605Y-116205000D01*
X151084531Y-117249926D01*
X151361714Y-117139079D01*
X151515089Y-116828160D01*
X151604860Y-116493295D01*
X151627576Y-116147350D01*
X151582366Y-115803620D01*
X151470966Y-115475315D01*
X151361714Y-115270921D01*
X151084531Y-115160074D01*
X150039605Y-116205000D01*
X149680395Y-116205000D01*
X148635469Y-115160074D01*
X148358286Y-115270921D01*
X148204911Y-115581840D01*
X148115140Y-115916705D01*
X148092424Y-116262650D01*
X146540004Y-116262650D01*
X146547576Y-116147350D01*
X146502366Y-115803620D01*
X146390966Y-115475315D01*
X146281714Y-115270921D01*
X146004531Y-115160074D01*
X144959605Y-116205000D01*
X144973748Y-116219143D01*
X144794143Y-116398748D01*
X144780000Y-116384605D01*
X144765858Y-116398748D01*
X144586253Y-116219143D01*
X144600395Y-116205000D01*
X143555469Y-115160074D01*
X143278286Y-115270921D01*
X143124911Y-115581840D01*
X143035140Y-115916705D01*
X143012424Y-116262650D01*
X143057634Y-116606380D01*
X143169034Y-116934685D01*
X143278286Y-117139079D01*
X143555467Y-117249925D01*
X143440101Y-117365291D01*
X143479811Y-117405001D01*
X141170000Y-117405001D01*
X141170000Y-115708468D01*
X141377252Y-115569987D01*
X141604987Y-115342252D01*
X141783918Y-115074463D01*
X141822851Y-114980469D01*
X143735074Y-114980469D01*
X144780000Y-116025395D01*
X145824926Y-114980469D01*
X148815074Y-114980469D01*
X149860000Y-116025395D01*
X150904926Y-114980469D01*
X150794079Y-114703286D01*
X150483160Y-114549911D01*
X150148295Y-114460140D01*
X149802350Y-114437424D01*
X149458620Y-114482634D01*
X149130315Y-114594034D01*
X148925921Y-114703286D01*
X148815074Y-114980469D01*
X145824926Y-114980469D01*
X145714079Y-114703286D01*
X145403160Y-114549911D01*
X145068295Y-114460140D01*
X144722350Y-114437424D01*
X144378620Y-114482634D01*
X144050315Y-114594034D01*
X143845921Y-114703286D01*
X143735074Y-114980469D01*
X141822851Y-114980469D01*
X141907168Y-114776912D01*
X141970000Y-114461033D01*
X141970000Y-114138967D01*
X141907168Y-113823088D01*
X141783918Y-113525537D01*
X141604987Y-113257748D01*
X141377252Y-113030013D01*
X141109463Y-112851082D01*
X140811912Y-112727832D01*
X140496033Y-112665000D01*
X140173967Y-112665000D01*
X139858088Y-112727832D01*
X139560537Y-112851082D01*
X139292748Y-113030013D01*
X139065013Y-113257748D01*
X138886082Y-113525537D01*
X138762832Y-113823088D01*
X138700000Y-114138967D01*
X138700000Y-114461033D01*
X138762832Y-114776912D01*
X138886082Y-115074463D01*
X139065013Y-115342252D01*
X139292748Y-115569987D01*
X139500000Y-115708469D01*
X139500001Y-117405001D01*
X135386608Y-117405001D01*
X135334483Y-117389189D01*
X135210001Y-117376929D01*
X133760001Y-117376929D01*
X133635519Y-117389189D01*
X133515821Y-117425499D01*
X133405507Y-117484464D01*
X133308816Y-117563816D01*
X133229464Y-117660507D01*
X133170499Y-117770821D01*
X133134189Y-117890519D01*
X133121929Y-118015001D01*
X133121929Y-118465001D01*
X133132096Y-118568228D01*
X133125001Y-118633251D01*
X133157248Y-118665498D01*
X133170499Y-118709181D01*
X133229464Y-118819495D01*
X133287327Y-118890001D01*
X133229464Y-118960507D01*
X133170499Y-119070821D01*
X133157248Y-119114504D01*
X133125001Y-119146751D01*
X133132096Y-119211774D01*
X133121929Y-119315001D01*
X133121929Y-119765001D01*
X133131778Y-119865001D01*
X133121929Y-119965001D01*
X133121929Y-120415001D01*
X133134189Y-120539483D01*
X133170499Y-120659181D01*
X133229464Y-120769495D01*
X133308816Y-120866186D01*
X133405507Y-120945538D01*
X133515821Y-121004503D01*
X133635519Y-121040813D01*
X133760001Y-121053073D01*
X135055000Y-121053073D01*
X135055001Y-128296891D01*
X135055000Y-128296901D01*
X135055000Y-128304207D01*
X134834866Y-128484866D01*
X134649294Y-128710986D01*
X134620000Y-128765791D01*
X134590706Y-128710986D01*
X134405134Y-128484866D01*
X134179014Y-128299294D01*
X133921034Y-128161401D01*
X133641111Y-128076487D01*
X133422950Y-128055000D01*
X133277050Y-128055000D01*
X133066596Y-128075728D01*
X130920001Y-125929134D01*
X130920001Y-121042239D01*
X130934483Y-121040813D01*
X131054181Y-121004503D01*
X131164495Y-120945538D01*
X131261186Y-120866186D01*
X131340538Y-120769495D01*
X131399503Y-120659181D01*
X131435813Y-120539483D01*
X131448073Y-120415001D01*
X131448073Y-119965001D01*
X131438224Y-119865001D01*
X131448073Y-119765001D01*
X131448073Y-119315001D01*
X131437906Y-119211774D01*
X131445001Y-119146751D01*
X131412754Y-119114504D01*
X131399503Y-119070821D01*
X131340538Y-118960507D01*
X131282675Y-118890001D01*
X131340538Y-118819495D01*
X131399503Y-118709181D01*
X131412754Y-118665498D01*
X131445001Y-118633251D01*
X131437906Y-118568228D01*
X131448073Y-118465001D01*
X131448073Y-118015001D01*
X131435813Y-117890519D01*
X131399503Y-117770821D01*
X131340538Y-117660507D01*
X131261186Y-117563816D01*
X131164495Y-117484464D01*
X131054181Y-117425499D01*
X130934483Y-117389189D01*
X130810001Y-117376929D01*
X129360001Y-117376929D01*
X129235519Y-117389189D01*
X129183394Y-117405001D01*
X125295000Y-117405001D01*
X125295000Y-115708468D01*
X125502252Y-115569987D01*
X125729987Y-115342252D01*
X125908918Y-115074463D01*
X126032168Y-114776912D01*
X126095000Y-114461033D01*
X126095000Y-114138967D01*
X126032168Y-113823088D01*
X125908918Y-113525537D01*
X125729987Y-113257748D01*
X125502252Y-113030013D01*
X125234463Y-112851082D01*
X124936912Y-112727832D01*
X124621033Y-112665000D01*
X124298967Y-112665000D01*
X123983088Y-112727832D01*
X123685537Y-112851082D01*
X123417748Y-113030013D01*
X123190013Y-113257748D01*
X123011082Y-113525537D01*
X122887832Y-113823088D01*
X122825000Y-114138967D01*
X122825000Y-114461033D01*
X122887832Y-114776912D01*
X123011082Y-115074463D01*
X123190013Y-115342252D01*
X123417748Y-115569987D01*
X123625000Y-115708469D01*
X123625001Y-117405001D01*
X120680189Y-117405001D01*
X120719899Y-117365291D01*
X120604533Y-117249925D01*
X120881714Y-117139079D01*
X121035089Y-116828160D01*
X121124860Y-116493295D01*
X121147576Y-116147350D01*
X121102366Y-115803620D01*
X120990966Y-115475315D01*
X120881714Y-115270921D01*
X120604531Y-115160074D01*
X119559605Y-116205000D01*
X119573748Y-116219143D01*
X119394143Y-116398748D01*
X119380000Y-116384605D01*
X119365858Y-116398748D01*
X119186253Y-116219143D01*
X119200395Y-116205000D01*
X118155469Y-115160074D01*
X117878286Y-115270921D01*
X117724911Y-115581840D01*
X117635140Y-115916705D01*
X117612424Y-116262650D01*
X117657634Y-116606380D01*
X117769034Y-116934685D01*
X117878286Y-117139079D01*
X118155467Y-117249925D01*
X118040101Y-117365291D01*
X118079811Y-117405001D01*
X117822470Y-117405001D01*
X117626305Y-117273927D01*
X117324204Y-117148793D01*
X117003496Y-117085000D01*
X116676504Y-117085000D01*
X116355796Y-117148793D01*
X116053695Y-117273927D01*
X115781812Y-117455594D01*
X115550594Y-117686812D01*
X115368927Y-117958695D01*
X115243793Y-118260796D01*
X115180000Y-118581504D01*
X101625000Y-118581504D01*
X101625000Y-117429531D01*
X113255074Y-117429531D01*
X113365921Y-117706714D01*
X113676840Y-117860089D01*
X114011705Y-117949860D01*
X114357650Y-117972576D01*
X114701380Y-117927366D01*
X115029685Y-117815966D01*
X115234079Y-117706714D01*
X115344926Y-117429531D01*
X114300000Y-116384605D01*
X113255074Y-117429531D01*
X101625000Y-117429531D01*
X101625000Y-116262650D01*
X112532424Y-116262650D01*
X112577634Y-116606380D01*
X112689034Y-116934685D01*
X112798286Y-117139079D01*
X113075469Y-117249926D01*
X114120395Y-116205000D01*
X114479605Y-116205000D01*
X115524531Y-117249926D01*
X115801714Y-117139079D01*
X115955089Y-116828160D01*
X116044860Y-116493295D01*
X116067576Y-116147350D01*
X116022366Y-115803620D01*
X115910966Y-115475315D01*
X115801714Y-115270921D01*
X115524531Y-115160074D01*
X114479605Y-116205000D01*
X114120395Y-116205000D01*
X113075469Y-115160074D01*
X112798286Y-115270921D01*
X112644911Y-115581840D01*
X112555140Y-115916705D01*
X112532424Y-116262650D01*
X101625000Y-116262650D01*
X101625000Y-114980469D01*
X113255074Y-114980469D01*
X114300000Y-116025395D01*
X115344926Y-114980469D01*
X118335074Y-114980469D01*
X119380000Y-116025395D01*
X120424926Y-114980469D01*
X120314079Y-114703286D01*
X120003160Y-114549911D01*
X119668295Y-114460140D01*
X119322350Y-114437424D01*
X118978620Y-114482634D01*
X118650315Y-114594034D01*
X118445921Y-114703286D01*
X118335074Y-114980469D01*
X115344926Y-114980469D01*
X115234079Y-114703286D01*
X114923160Y-114549911D01*
X114588295Y-114460140D01*
X114242350Y-114437424D01*
X113898620Y-114482634D01*
X113570315Y-114594034D01*
X113365921Y-114703286D01*
X113255074Y-114980469D01*
X101625000Y-114980469D01*
X101625000Y-109511758D01*
X103195000Y-109511758D01*
X103195000Y-110198242D01*
X103328927Y-110871537D01*
X103591633Y-111505766D01*
X103973024Y-112076558D01*
X104458442Y-112561976D01*
X105029234Y-112943367D01*
X105663463Y-113206073D01*
X106336758Y-113340000D01*
X107023242Y-113340000D01*
X107696537Y-113206073D01*
X108330766Y-112943367D01*
X108901558Y-112561976D01*
X109386976Y-112076558D01*
X109768367Y-111505766D01*
X109866784Y-111268166D01*
X121321439Y-111268166D01*
X121356550Y-111481588D01*
X121560826Y-111572458D01*
X121778905Y-111621731D01*
X122002406Y-111627511D01*
X122222740Y-111589577D01*
X122431440Y-111509387D01*
X122483450Y-111481588D01*
X122518561Y-111268166D01*
X141641439Y-111268166D01*
X141676550Y-111481588D01*
X141880826Y-111572458D01*
X142098905Y-111621731D01*
X142322406Y-111627511D01*
X142542740Y-111589577D01*
X142751440Y-111509387D01*
X142803450Y-111481588D01*
X142838561Y-111268166D01*
X142240000Y-110669605D01*
X141641439Y-111268166D01*
X122518561Y-111268166D01*
X121920000Y-110669605D01*
X121321439Y-111268166D01*
X109866784Y-111268166D01*
X110031073Y-110871537D01*
X110090573Y-110572406D01*
X120782489Y-110572406D01*
X120820423Y-110792740D01*
X120900613Y-111001440D01*
X120928412Y-111053450D01*
X121141834Y-111088561D01*
X121740395Y-110490000D01*
X122099605Y-110490000D01*
X122698166Y-111088561D01*
X122911588Y-111053450D01*
X123002458Y-110849174D01*
X123051731Y-110631095D01*
X123053248Y-110572406D01*
X141102489Y-110572406D01*
X141140423Y-110792740D01*
X141220613Y-111001440D01*
X141248412Y-111053450D01*
X141461834Y-111088561D01*
X142060395Y-110490000D01*
X142419605Y-110490000D01*
X143018166Y-111088561D01*
X143231588Y-111053450D01*
X143322458Y-110849174D01*
X143371731Y-110631095D01*
X143377511Y-110407594D01*
X143339577Y-110187260D01*
X143259387Y-109978560D01*
X143231588Y-109926550D01*
X143018166Y-109891439D01*
X142419605Y-110490000D01*
X142060395Y-110490000D01*
X141461834Y-109891439D01*
X141248412Y-109926550D01*
X141157542Y-110130826D01*
X141108269Y-110348905D01*
X141102489Y-110572406D01*
X123053248Y-110572406D01*
X123057511Y-110407594D01*
X123019577Y-110187260D01*
X122939387Y-109978560D01*
X122911588Y-109926550D01*
X122698166Y-109891439D01*
X122099605Y-110490000D01*
X121740395Y-110490000D01*
X121141834Y-109891439D01*
X120928412Y-109926550D01*
X120837542Y-110130826D01*
X120788269Y-110348905D01*
X120782489Y-110572406D01*
X110090573Y-110572406D01*
X110165000Y-110198242D01*
X110165000Y-109711834D01*
X121321439Y-109711834D01*
X121920000Y-110310395D01*
X122518561Y-109711834D01*
X141641439Y-109711834D01*
X142240000Y-110310395D01*
X142838561Y-109711834D01*
X142805646Y-109511758D01*
X152725000Y-109511758D01*
X152725000Y-110198242D01*
X152858927Y-110871537D01*
X153121633Y-111505766D01*
X153503024Y-112076558D01*
X153988442Y-112561976D01*
X154559234Y-112943367D01*
X155193463Y-113206073D01*
X155866758Y-113340000D01*
X156553242Y-113340000D01*
X157226537Y-113206073D01*
X157860766Y-112943367D01*
X158431558Y-112561976D01*
X158916976Y-112076558D01*
X159298367Y-111505766D01*
X159561073Y-110871537D01*
X159695000Y-110198242D01*
X159695000Y-109511758D01*
X159561073Y-108838463D01*
X159298367Y-108204234D01*
X158916976Y-107633442D01*
X158431558Y-107148024D01*
X157860766Y-106766633D01*
X157226537Y-106503927D01*
X156553242Y-106370000D01*
X155866758Y-106370000D01*
X155193463Y-106503927D01*
X154559234Y-106766633D01*
X153988442Y-107148024D01*
X153503024Y-107633442D01*
X153121633Y-108204234D01*
X152858927Y-108838463D01*
X152725000Y-109511758D01*
X142805646Y-109511758D01*
X142803450Y-109498412D01*
X142599174Y-109407542D01*
X142381095Y-109358269D01*
X142157594Y-109352489D01*
X141937260Y-109390423D01*
X141728560Y-109470613D01*
X141676550Y-109498412D01*
X141641439Y-109711834D01*
X122518561Y-109711834D01*
X122483450Y-109498412D01*
X122279174Y-109407542D01*
X122061095Y-109358269D01*
X121837594Y-109352489D01*
X121617260Y-109390423D01*
X121408560Y-109470613D01*
X121356550Y-109498412D01*
X121321439Y-109711834D01*
X110165000Y-109711834D01*
X110165000Y-109511758D01*
X110031073Y-108838463D01*
X109768367Y-108204234D01*
X109386976Y-107633442D01*
X108901558Y-107148024D01*
X108330766Y-106766633D01*
X107696537Y-106503927D01*
X107023242Y-106370000D01*
X106336758Y-106370000D01*
X105663463Y-106503927D01*
X105029234Y-106766633D01*
X104458442Y-107148024D01*
X103973024Y-107633442D01*
X103591633Y-108204234D01*
X103328927Y-108838463D01*
X103195000Y-109511758D01*
X101625000Y-109511758D01*
X101625000Y-106070000D01*
X160630001Y-106070000D01*
X160630000Y-136500000D01*
M02*
