M48
; DRILL file {KiCad (5.1.2)-2} date 2019/7/6 9:41:53
; FORMAT={-:-/ absolute / inch / decimal}
; #@! TF.CreationDate,2019-07-06T09:41:53+08:00
; #@! TF.GenerationSoftware,Kicad,Pcbnew,(5.1.2)-2
; #@! TF.FileFunction,Plated,1,2,PTH
FMAT,2
INCH
T1C0.0157
T2C0.0276
T3C0.0394
T4C0.0591
T5C0.0669
T6C0.1260
%
G90
G05
T1
X4.4Y-4.575
X4.4Y-4.65
X4.4Y-4.7
X4.4Y-4.775
X4.4Y-4.825
X4.45Y-4.5
X4.475Y-4.875
X4.525Y-4.475
X4.525Y-4.875
X4.575Y-4.5
X4.575Y-4.875
X4.625Y-4.5
X4.625Y-4.875
X4.675Y-4.5
X4.675Y-4.875
X4.725Y-4.5
X4.725Y-4.875
X4.8Y-4.6
X4.8Y-4.725
X4.85Y-4.6
X4.85Y-4.725
X4.9Y-4.725
X4.95Y-4.6
X4.95Y-4.725
X5.0Y-4.6
X5.0Y-4.725
X5.0Y-4.775
X5.0Y-4.825
X5.0Y-4.875
X5.0Y-4.925
X5.0Y-5.0
X5.05Y-4.6
X5.125Y-4.6
X5.125Y-5.2
X5.175Y-4.6
X5.175Y-4.8
X5.175Y-4.85
X5.175Y-4.9
X5.175Y-5.2
X5.225Y-4.6
X5.225Y-4.8
X5.225Y-4.85
X5.225Y-4.9
X5.225Y-4.95
X5.225Y-5.2
X5.275Y-4.8
X5.275Y-4.85
X5.275Y-4.9
X5.275Y-4.95
X5.275Y-5.025
X5.275Y-5.2
X5.3Y-4.6
X5.325Y-5.2
X5.375Y-4.6
X5.375Y-5.2
X5.4Y-4.8
X5.4Y-4.85
X5.4Y-4.9
X5.4Y-4.975
X5.4Y-5.025
X5.425Y-4.6
X5.425Y-4.7
X5.475Y-4.6
X5.5Y-4.7
X5.55Y-4.7
X5.575Y-4.6
X5.6Y-4.7
X5.65Y-4.475
X5.65Y-4.875
X5.7Y-4.875
X5.725Y-4.475
X5.75Y-4.875
X5.8Y-4.875
X5.825Y-4.475
X5.875Y-4.475
X5.875Y-4.875
X5.925Y-4.475
X5.925Y-4.875
X6.0Y-4.525
X6.0Y-4.575
X6.0Y-4.65
X6.0Y-4.7
X6.0Y-4.775
T2
X4.8Y-4.35
X5.6Y-4.35
T3
X5.05Y-5.1
X5.15Y-5.1
X5.25Y-5.1
X5.35Y-5.1
T4
X5.8Y-4.675
X4.6Y-4.675
T5
X5.7Y-4.575
X5.7Y-4.775
X5.9Y-4.575
X5.9Y-4.775
X4.5Y-4.575
X4.5Y-4.775
X4.7Y-4.575
X4.7Y-4.775
T6
X6.125Y-5.225
X4.2Y-5.225
X4.2Y-4.325
X6.15Y-4.325
T0
M30
