G04 #@! TF.GenerationSoftware,KiCad,Pcbnew,(5.1.2)-2*
G04 #@! TF.CreationDate,2019-07-03T09:29:05+08:00*
G04 #@! TF.ProjectId,HMC346AMS8GE,484d4333-3436-4414-9d53-3847452e6b69,rev?*
G04 #@! TF.SameCoordinates,Original*
G04 #@! TF.FileFunction,Soldermask,Bot*
G04 #@! TF.FilePolarity,Negative*
%FSLAX46Y46*%
G04 Gerber Fmt 4.6, Leading zero omitted, Abs format (unit mm)*
G04 Created by KiCad (PCBNEW (5.1.2)-2) date 2019-07-03 09:29:05*
%MOMM*%
%LPD*%
G04 APERTURE LIST*
%ADD10C,0.100000*%
G04 APERTURE END LIST*
D10*
G36*
X156421189Y-129925483D02*
G01*
X156949137Y-130144166D01*
X156949139Y-130144167D01*
X157424280Y-130461646D01*
X157828354Y-130865720D01*
X158145833Y-131340861D01*
X158145834Y-131340863D01*
X158364517Y-131868811D01*
X158476000Y-132429275D01*
X158476000Y-133000725D01*
X158364517Y-133561189D01*
X158364516Y-133561191D01*
X158145833Y-134089139D01*
X157828354Y-134564280D01*
X157424280Y-134968354D01*
X156949139Y-135285833D01*
X156949138Y-135285834D01*
X156949137Y-135285834D01*
X156421189Y-135504517D01*
X155860725Y-135616000D01*
X155289275Y-135616000D01*
X154728811Y-135504517D01*
X154200863Y-135285834D01*
X154200862Y-135285834D01*
X154200861Y-135285833D01*
X153725720Y-134968354D01*
X153321646Y-134564280D01*
X153004167Y-134089139D01*
X152785484Y-133561191D01*
X152785483Y-133561189D01*
X152674000Y-133000725D01*
X152674000Y-132429275D01*
X152785483Y-131868811D01*
X153004166Y-131340863D01*
X153004167Y-131340861D01*
X153321646Y-130865720D01*
X153725720Y-130461646D01*
X154200861Y-130144167D01*
X154200863Y-130144166D01*
X154728811Y-129925483D01*
X155289275Y-129814000D01*
X155860725Y-129814000D01*
X156421189Y-129925483D01*
X156421189Y-129925483D01*
G37*
G36*
X107526189Y-129925483D02*
G01*
X108054137Y-130144166D01*
X108054139Y-130144167D01*
X108529280Y-130461646D01*
X108933354Y-130865720D01*
X109250833Y-131340861D01*
X109250834Y-131340863D01*
X109469517Y-131868811D01*
X109581000Y-132429275D01*
X109581000Y-133000725D01*
X109469517Y-133561189D01*
X109469516Y-133561191D01*
X109250833Y-134089139D01*
X108933354Y-134564280D01*
X108529280Y-134968354D01*
X108054139Y-135285833D01*
X108054138Y-135285834D01*
X108054137Y-135285834D01*
X107526189Y-135504517D01*
X106965725Y-135616000D01*
X106394275Y-135616000D01*
X105833811Y-135504517D01*
X105305863Y-135285834D01*
X105305862Y-135285834D01*
X105305861Y-135285833D01*
X104830720Y-134968354D01*
X104426646Y-134564280D01*
X104109167Y-134089139D01*
X103890484Y-133561191D01*
X103890483Y-133561189D01*
X103779000Y-133000725D01*
X103779000Y-132429275D01*
X103890483Y-131868811D01*
X104109166Y-131340863D01*
X104109167Y-131340861D01*
X104426646Y-130865720D01*
X104830720Y-130461646D01*
X105305861Y-130144167D01*
X105305863Y-130144166D01*
X105833811Y-129925483D01*
X106394275Y-129814000D01*
X106965725Y-129814000D01*
X107526189Y-129925483D01*
X107526189Y-129925483D01*
G37*
G36*
X136000443Y-128645519D02*
G01*
X136066627Y-128652037D01*
X136236466Y-128703557D01*
X136392991Y-128787222D01*
X136428729Y-128816552D01*
X136530186Y-128899814D01*
X136613448Y-129001271D01*
X136642778Y-129037009D01*
X136726443Y-129193534D01*
X136777963Y-129363373D01*
X136795359Y-129540000D01*
X136777963Y-129716627D01*
X136726443Y-129886466D01*
X136642778Y-130042991D01*
X136613448Y-130078729D01*
X136530186Y-130180186D01*
X136428729Y-130263448D01*
X136392991Y-130292778D01*
X136236466Y-130376443D01*
X136066627Y-130427963D01*
X136000443Y-130434481D01*
X135934260Y-130441000D01*
X135845740Y-130441000D01*
X135779557Y-130434481D01*
X135713373Y-130427963D01*
X135543534Y-130376443D01*
X135387009Y-130292778D01*
X135351271Y-130263448D01*
X135249814Y-130180186D01*
X135166552Y-130078729D01*
X135137222Y-130042991D01*
X135053557Y-129886466D01*
X135002037Y-129716627D01*
X134984641Y-129540000D01*
X135002037Y-129363373D01*
X135053557Y-129193534D01*
X135137222Y-129037009D01*
X135166552Y-129001271D01*
X135249814Y-128899814D01*
X135351271Y-128816552D01*
X135387009Y-128787222D01*
X135543534Y-128703557D01*
X135713373Y-128652037D01*
X135779557Y-128645519D01*
X135845740Y-128639000D01*
X135934260Y-128639000D01*
X136000443Y-128645519D01*
X136000443Y-128645519D01*
G37*
G36*
X133460443Y-128645519D02*
G01*
X133526627Y-128652037D01*
X133696466Y-128703557D01*
X133852991Y-128787222D01*
X133888729Y-128816552D01*
X133990186Y-128899814D01*
X134073448Y-129001271D01*
X134102778Y-129037009D01*
X134186443Y-129193534D01*
X134237963Y-129363373D01*
X134255359Y-129540000D01*
X134237963Y-129716627D01*
X134186443Y-129886466D01*
X134102778Y-130042991D01*
X134073448Y-130078729D01*
X133990186Y-130180186D01*
X133888729Y-130263448D01*
X133852991Y-130292778D01*
X133696466Y-130376443D01*
X133526627Y-130427963D01*
X133460443Y-130434481D01*
X133394260Y-130441000D01*
X133305740Y-130441000D01*
X133239557Y-130434481D01*
X133173373Y-130427963D01*
X133003534Y-130376443D01*
X132847009Y-130292778D01*
X132811271Y-130263448D01*
X132709814Y-130180186D01*
X132626552Y-130078729D01*
X132597222Y-130042991D01*
X132513557Y-129886466D01*
X132462037Y-129716627D01*
X132444641Y-129540000D01*
X132462037Y-129363373D01*
X132513557Y-129193534D01*
X132597222Y-129037009D01*
X132626552Y-129001271D01*
X132709814Y-128899814D01*
X132811271Y-128816552D01*
X132847009Y-128787222D01*
X133003534Y-128703557D01*
X133173373Y-128652037D01*
X133239557Y-128645519D01*
X133305740Y-128639000D01*
X133394260Y-128639000D01*
X133460443Y-128645519D01*
X133460443Y-128645519D01*
G37*
G36*
X130920443Y-128645519D02*
G01*
X130986627Y-128652037D01*
X131156466Y-128703557D01*
X131312991Y-128787222D01*
X131348729Y-128816552D01*
X131450186Y-128899814D01*
X131533448Y-129001271D01*
X131562778Y-129037009D01*
X131646443Y-129193534D01*
X131697963Y-129363373D01*
X131715359Y-129540000D01*
X131697963Y-129716627D01*
X131646443Y-129886466D01*
X131562778Y-130042991D01*
X131533448Y-130078729D01*
X131450186Y-130180186D01*
X131348729Y-130263448D01*
X131312991Y-130292778D01*
X131156466Y-130376443D01*
X130986627Y-130427963D01*
X130920443Y-130434481D01*
X130854260Y-130441000D01*
X130765740Y-130441000D01*
X130699557Y-130434481D01*
X130633373Y-130427963D01*
X130463534Y-130376443D01*
X130307009Y-130292778D01*
X130271271Y-130263448D01*
X130169814Y-130180186D01*
X130086552Y-130078729D01*
X130057222Y-130042991D01*
X129973557Y-129886466D01*
X129922037Y-129716627D01*
X129904641Y-129540000D01*
X129922037Y-129363373D01*
X129973557Y-129193534D01*
X130057222Y-129037009D01*
X130086552Y-129001271D01*
X130169814Y-128899814D01*
X130271271Y-128816552D01*
X130307009Y-128787222D01*
X130463534Y-128703557D01*
X130633373Y-128652037D01*
X130699557Y-128645519D01*
X130765740Y-128639000D01*
X130854260Y-128639000D01*
X130920443Y-128645519D01*
X130920443Y-128645519D01*
G37*
G36*
X129171000Y-130441000D02*
G01*
X127369000Y-130441000D01*
X127369000Y-128639000D01*
X129171000Y-128639000D01*
X129171000Y-130441000D01*
X129171000Y-130441000D01*
G37*
G36*
X119571560Y-120124064D02*
G01*
X119723027Y-120154193D01*
X119937045Y-120242842D01*
X119937046Y-120242843D01*
X120129654Y-120371539D01*
X120293461Y-120535346D01*
X120379258Y-120663751D01*
X120422158Y-120727955D01*
X120510807Y-120941973D01*
X120556000Y-121169174D01*
X120556000Y-121400826D01*
X120510807Y-121628027D01*
X120422158Y-121842045D01*
X120422157Y-121842046D01*
X120293461Y-122034654D01*
X120129654Y-122198461D01*
X120001249Y-122284258D01*
X119937045Y-122327158D01*
X119723027Y-122415807D01*
X119571560Y-122445936D01*
X119495827Y-122461000D01*
X119264173Y-122461000D01*
X119188440Y-122445936D01*
X119036973Y-122415807D01*
X118822955Y-122327158D01*
X118758751Y-122284258D01*
X118630346Y-122198461D01*
X118466539Y-122034654D01*
X118337843Y-121842046D01*
X118337842Y-121842045D01*
X118249193Y-121628027D01*
X118204000Y-121400826D01*
X118204000Y-121169174D01*
X118249193Y-120941973D01*
X118337842Y-120727955D01*
X118380742Y-120663751D01*
X118466539Y-120535346D01*
X118630346Y-120371539D01*
X118822954Y-120242843D01*
X118822955Y-120242842D01*
X119036973Y-120154193D01*
X119188440Y-120124064D01*
X119264173Y-120109000D01*
X119495827Y-120109000D01*
X119571560Y-120124064D01*
X119571560Y-120124064D01*
G37*
G36*
X114491560Y-120124064D02*
G01*
X114643027Y-120154193D01*
X114857045Y-120242842D01*
X114857046Y-120242843D01*
X115049654Y-120371539D01*
X115213461Y-120535346D01*
X115299258Y-120663751D01*
X115342158Y-120727955D01*
X115430807Y-120941973D01*
X115476000Y-121169174D01*
X115476000Y-121400826D01*
X115430807Y-121628027D01*
X115342158Y-121842045D01*
X115342157Y-121842046D01*
X115213461Y-122034654D01*
X115049654Y-122198461D01*
X114921249Y-122284258D01*
X114857045Y-122327158D01*
X114643027Y-122415807D01*
X114491560Y-122445936D01*
X114415827Y-122461000D01*
X114184173Y-122461000D01*
X114108440Y-122445936D01*
X113956973Y-122415807D01*
X113742955Y-122327158D01*
X113678751Y-122284258D01*
X113550346Y-122198461D01*
X113386539Y-122034654D01*
X113257843Y-121842046D01*
X113257842Y-121842045D01*
X113169193Y-121628027D01*
X113124000Y-121400826D01*
X113124000Y-121169174D01*
X113169193Y-120941973D01*
X113257842Y-120727955D01*
X113300742Y-120663751D01*
X113386539Y-120535346D01*
X113550346Y-120371539D01*
X113742954Y-120242843D01*
X113742955Y-120242842D01*
X113956973Y-120154193D01*
X114108440Y-120124064D01*
X114184173Y-120109000D01*
X114415827Y-120109000D01*
X114491560Y-120124064D01*
X114491560Y-120124064D01*
G37*
G36*
X144971560Y-120124064D02*
G01*
X145123027Y-120154193D01*
X145337045Y-120242842D01*
X145337046Y-120242843D01*
X145529654Y-120371539D01*
X145693461Y-120535346D01*
X145779258Y-120663751D01*
X145822158Y-120727955D01*
X145910807Y-120941973D01*
X145956000Y-121169174D01*
X145956000Y-121400826D01*
X145910807Y-121628027D01*
X145822158Y-121842045D01*
X145822157Y-121842046D01*
X145693461Y-122034654D01*
X145529654Y-122198461D01*
X145401249Y-122284258D01*
X145337045Y-122327158D01*
X145123027Y-122415807D01*
X144971560Y-122445936D01*
X144895827Y-122461000D01*
X144664173Y-122461000D01*
X144588440Y-122445936D01*
X144436973Y-122415807D01*
X144222955Y-122327158D01*
X144158751Y-122284258D01*
X144030346Y-122198461D01*
X143866539Y-122034654D01*
X143737843Y-121842046D01*
X143737842Y-121842045D01*
X143649193Y-121628027D01*
X143604000Y-121400826D01*
X143604000Y-121169174D01*
X143649193Y-120941973D01*
X143737842Y-120727955D01*
X143780742Y-120663751D01*
X143866539Y-120535346D01*
X144030346Y-120371539D01*
X144222954Y-120242843D01*
X144222955Y-120242842D01*
X144436973Y-120154193D01*
X144588440Y-120124064D01*
X144664173Y-120109000D01*
X144895827Y-120109000D01*
X144971560Y-120124064D01*
X144971560Y-120124064D01*
G37*
G36*
X150051560Y-120124064D02*
G01*
X150203027Y-120154193D01*
X150417045Y-120242842D01*
X150417046Y-120242843D01*
X150609654Y-120371539D01*
X150773461Y-120535346D01*
X150859258Y-120663751D01*
X150902158Y-120727955D01*
X150990807Y-120941973D01*
X151036000Y-121169174D01*
X151036000Y-121400826D01*
X150990807Y-121628027D01*
X150902158Y-121842045D01*
X150902157Y-121842046D01*
X150773461Y-122034654D01*
X150609654Y-122198461D01*
X150481249Y-122284258D01*
X150417045Y-122327158D01*
X150203027Y-122415807D01*
X150051560Y-122445936D01*
X149975827Y-122461000D01*
X149744173Y-122461000D01*
X149668440Y-122445936D01*
X149516973Y-122415807D01*
X149302955Y-122327158D01*
X149238751Y-122284258D01*
X149110346Y-122198461D01*
X148946539Y-122034654D01*
X148817843Y-121842046D01*
X148817842Y-121842045D01*
X148729193Y-121628027D01*
X148684000Y-121400826D01*
X148684000Y-121169174D01*
X148729193Y-120941973D01*
X148817842Y-120727955D01*
X148860742Y-120663751D01*
X148946539Y-120535346D01*
X149110346Y-120371539D01*
X149302954Y-120242843D01*
X149302955Y-120242842D01*
X149516973Y-120154193D01*
X149668440Y-120124064D01*
X149744173Y-120109000D01*
X149975827Y-120109000D01*
X150051560Y-120124064D01*
X150051560Y-120124064D01*
G37*
G36*
X147495271Y-117682783D02*
G01*
X147633858Y-117710350D01*
X147829677Y-117791461D01*
X148005910Y-117909216D01*
X148155784Y-118059090D01*
X148273539Y-118235323D01*
X148354650Y-118431142D01*
X148396000Y-118639023D01*
X148396000Y-118850977D01*
X148354650Y-119058858D01*
X148273539Y-119254677D01*
X148155784Y-119430910D01*
X148005910Y-119580784D01*
X147829677Y-119698539D01*
X147633858Y-119779650D01*
X147495271Y-119807217D01*
X147425978Y-119821000D01*
X147214022Y-119821000D01*
X147144729Y-119807217D01*
X147006142Y-119779650D01*
X146810323Y-119698539D01*
X146634090Y-119580784D01*
X146484216Y-119430910D01*
X146366461Y-119254677D01*
X146285350Y-119058858D01*
X146244000Y-118850977D01*
X146244000Y-118639023D01*
X146285350Y-118431142D01*
X146366461Y-118235323D01*
X146484216Y-118059090D01*
X146634090Y-117909216D01*
X146810323Y-117791461D01*
X147006142Y-117710350D01*
X147144729Y-117682783D01*
X147214022Y-117669000D01*
X147425978Y-117669000D01*
X147495271Y-117682783D01*
X147495271Y-117682783D01*
G37*
G36*
X117015271Y-117682783D02*
G01*
X117153858Y-117710350D01*
X117349677Y-117791461D01*
X117525910Y-117909216D01*
X117675784Y-118059090D01*
X117793539Y-118235323D01*
X117874650Y-118431142D01*
X117916000Y-118639023D01*
X117916000Y-118850977D01*
X117874650Y-119058858D01*
X117793539Y-119254677D01*
X117675784Y-119430910D01*
X117525910Y-119580784D01*
X117349677Y-119698539D01*
X117153858Y-119779650D01*
X117015271Y-119807217D01*
X116945978Y-119821000D01*
X116734022Y-119821000D01*
X116664729Y-119807217D01*
X116526142Y-119779650D01*
X116330323Y-119698539D01*
X116154090Y-119580784D01*
X116004216Y-119430910D01*
X115886461Y-119254677D01*
X115805350Y-119058858D01*
X115764000Y-118850977D01*
X115764000Y-118639023D01*
X115805350Y-118431142D01*
X115886461Y-118235323D01*
X116004216Y-118059090D01*
X116154090Y-117909216D01*
X116330323Y-117791461D01*
X116526142Y-117710350D01*
X116664729Y-117682783D01*
X116734022Y-117669000D01*
X116945978Y-117669000D01*
X117015271Y-117682783D01*
X117015271Y-117682783D01*
G37*
G36*
X150051560Y-115044064D02*
G01*
X150203027Y-115074193D01*
X150417045Y-115162842D01*
X150417046Y-115162843D01*
X150609654Y-115291539D01*
X150773461Y-115455346D01*
X150859258Y-115583751D01*
X150902158Y-115647955D01*
X150990807Y-115861973D01*
X151036000Y-116089174D01*
X151036000Y-116320826D01*
X150990807Y-116548027D01*
X150902158Y-116762045D01*
X150902157Y-116762046D01*
X150773461Y-116954654D01*
X150609654Y-117118461D01*
X150481249Y-117204258D01*
X150417045Y-117247158D01*
X150203027Y-117335807D01*
X150051560Y-117365936D01*
X149975827Y-117381000D01*
X149744173Y-117381000D01*
X149668440Y-117365936D01*
X149516973Y-117335807D01*
X149302955Y-117247158D01*
X149238751Y-117204258D01*
X149110346Y-117118461D01*
X148946539Y-116954654D01*
X148817843Y-116762046D01*
X148817842Y-116762045D01*
X148729193Y-116548027D01*
X148684000Y-116320826D01*
X148684000Y-116089174D01*
X148729193Y-115861973D01*
X148817842Y-115647955D01*
X148860742Y-115583751D01*
X148946539Y-115455346D01*
X149110346Y-115291539D01*
X149302954Y-115162843D01*
X149302955Y-115162842D01*
X149516973Y-115074193D01*
X149668440Y-115044064D01*
X149744173Y-115029000D01*
X149975827Y-115029000D01*
X150051560Y-115044064D01*
X150051560Y-115044064D01*
G37*
G36*
X119571560Y-115044064D02*
G01*
X119723027Y-115074193D01*
X119937045Y-115162842D01*
X119937046Y-115162843D01*
X120129654Y-115291539D01*
X120293461Y-115455346D01*
X120379258Y-115583751D01*
X120422158Y-115647955D01*
X120510807Y-115861973D01*
X120556000Y-116089174D01*
X120556000Y-116320826D01*
X120510807Y-116548027D01*
X120422158Y-116762045D01*
X120422157Y-116762046D01*
X120293461Y-116954654D01*
X120129654Y-117118461D01*
X120001249Y-117204258D01*
X119937045Y-117247158D01*
X119723027Y-117335807D01*
X119571560Y-117365936D01*
X119495827Y-117381000D01*
X119264173Y-117381000D01*
X119188440Y-117365936D01*
X119036973Y-117335807D01*
X118822955Y-117247158D01*
X118758751Y-117204258D01*
X118630346Y-117118461D01*
X118466539Y-116954654D01*
X118337843Y-116762046D01*
X118337842Y-116762045D01*
X118249193Y-116548027D01*
X118204000Y-116320826D01*
X118204000Y-116089174D01*
X118249193Y-115861973D01*
X118337842Y-115647955D01*
X118380742Y-115583751D01*
X118466539Y-115455346D01*
X118630346Y-115291539D01*
X118822954Y-115162843D01*
X118822955Y-115162842D01*
X119036973Y-115074193D01*
X119188440Y-115044064D01*
X119264173Y-115029000D01*
X119495827Y-115029000D01*
X119571560Y-115044064D01*
X119571560Y-115044064D01*
G37*
G36*
X114491560Y-115044064D02*
G01*
X114643027Y-115074193D01*
X114857045Y-115162842D01*
X114857046Y-115162843D01*
X115049654Y-115291539D01*
X115213461Y-115455346D01*
X115299258Y-115583751D01*
X115342158Y-115647955D01*
X115430807Y-115861973D01*
X115476000Y-116089174D01*
X115476000Y-116320826D01*
X115430807Y-116548027D01*
X115342158Y-116762045D01*
X115342157Y-116762046D01*
X115213461Y-116954654D01*
X115049654Y-117118461D01*
X114921249Y-117204258D01*
X114857045Y-117247158D01*
X114643027Y-117335807D01*
X114491560Y-117365936D01*
X114415827Y-117381000D01*
X114184173Y-117381000D01*
X114108440Y-117365936D01*
X113956973Y-117335807D01*
X113742955Y-117247158D01*
X113678751Y-117204258D01*
X113550346Y-117118461D01*
X113386539Y-116954654D01*
X113257843Y-116762046D01*
X113257842Y-116762045D01*
X113169193Y-116548027D01*
X113124000Y-116320826D01*
X113124000Y-116089174D01*
X113169193Y-115861973D01*
X113257842Y-115647955D01*
X113300742Y-115583751D01*
X113386539Y-115455346D01*
X113550346Y-115291539D01*
X113742954Y-115162843D01*
X113742955Y-115162842D01*
X113956973Y-115074193D01*
X114108440Y-115044064D01*
X114184173Y-115029000D01*
X114415827Y-115029000D01*
X114491560Y-115044064D01*
X114491560Y-115044064D01*
G37*
G36*
X144971560Y-115044064D02*
G01*
X145123027Y-115074193D01*
X145337045Y-115162842D01*
X145337046Y-115162843D01*
X145529654Y-115291539D01*
X145693461Y-115455346D01*
X145779258Y-115583751D01*
X145822158Y-115647955D01*
X145910807Y-115861973D01*
X145956000Y-116089174D01*
X145956000Y-116320826D01*
X145910807Y-116548027D01*
X145822158Y-116762045D01*
X145822157Y-116762046D01*
X145693461Y-116954654D01*
X145529654Y-117118461D01*
X145401249Y-117204258D01*
X145337045Y-117247158D01*
X145123027Y-117335807D01*
X144971560Y-117365936D01*
X144895827Y-117381000D01*
X144664173Y-117381000D01*
X144588440Y-117365936D01*
X144436973Y-117335807D01*
X144222955Y-117247158D01*
X144158751Y-117204258D01*
X144030346Y-117118461D01*
X143866539Y-116954654D01*
X143737843Y-116762046D01*
X143737842Y-116762045D01*
X143649193Y-116548027D01*
X143604000Y-116320826D01*
X143604000Y-116089174D01*
X143649193Y-115861973D01*
X143737842Y-115647955D01*
X143780742Y-115583751D01*
X143866539Y-115455346D01*
X144030346Y-115291539D01*
X144222954Y-115162843D01*
X144222955Y-115162842D01*
X144436973Y-115074193D01*
X144588440Y-115044064D01*
X144664173Y-115029000D01*
X144895827Y-115029000D01*
X144971560Y-115044064D01*
X144971560Y-115044064D01*
G37*
G36*
X157056189Y-107065483D02*
G01*
X157056192Y-107065484D01*
X157056191Y-107065484D01*
X157584139Y-107284167D01*
X158059280Y-107601646D01*
X158463354Y-108005720D01*
X158780833Y-108480861D01*
X158780834Y-108480863D01*
X158999517Y-109008811D01*
X159111000Y-109569275D01*
X159111000Y-110140725D01*
X158999517Y-110701189D01*
X158999516Y-110701191D01*
X158780833Y-111229139D01*
X158463354Y-111704280D01*
X158059280Y-112108354D01*
X157584139Y-112425833D01*
X157584138Y-112425834D01*
X157584137Y-112425834D01*
X157056189Y-112644517D01*
X156495725Y-112756000D01*
X155924275Y-112756000D01*
X155363811Y-112644517D01*
X154835863Y-112425834D01*
X154835862Y-112425834D01*
X154835861Y-112425833D01*
X154360720Y-112108354D01*
X153956646Y-111704280D01*
X153639167Y-111229139D01*
X153420484Y-110701191D01*
X153420483Y-110701189D01*
X153309000Y-110140725D01*
X153309000Y-109569275D01*
X153420483Y-109008811D01*
X153639166Y-108480863D01*
X153639167Y-108480861D01*
X153956646Y-108005720D01*
X154360720Y-107601646D01*
X154835861Y-107284167D01*
X155363809Y-107065484D01*
X155363808Y-107065484D01*
X155363811Y-107065483D01*
X155924275Y-106954000D01*
X156495725Y-106954000D01*
X157056189Y-107065483D01*
X157056189Y-107065483D01*
G37*
G36*
X107526189Y-107065483D02*
G01*
X107526192Y-107065484D01*
X107526191Y-107065484D01*
X108054139Y-107284167D01*
X108529280Y-107601646D01*
X108933354Y-108005720D01*
X109250833Y-108480861D01*
X109250834Y-108480863D01*
X109469517Y-109008811D01*
X109581000Y-109569275D01*
X109581000Y-110140725D01*
X109469517Y-110701189D01*
X109469516Y-110701191D01*
X109250833Y-111229139D01*
X108933354Y-111704280D01*
X108529280Y-112108354D01*
X108054139Y-112425833D01*
X108054138Y-112425834D01*
X108054137Y-112425834D01*
X107526189Y-112644517D01*
X106965725Y-112756000D01*
X106394275Y-112756000D01*
X105833811Y-112644517D01*
X105305863Y-112425834D01*
X105305862Y-112425834D01*
X105305861Y-112425833D01*
X104830720Y-112108354D01*
X104426646Y-111704280D01*
X104109167Y-111229139D01*
X103890484Y-110701191D01*
X103890483Y-110701189D01*
X103779000Y-110140725D01*
X103779000Y-109569275D01*
X103890483Y-109008811D01*
X104109166Y-108480863D01*
X104109167Y-108480861D01*
X104426646Y-108005720D01*
X104830720Y-107601646D01*
X105305861Y-107284167D01*
X105833809Y-107065484D01*
X105833808Y-107065484D01*
X105833811Y-107065483D01*
X106394275Y-106954000D01*
X106965725Y-106954000D01*
X107526189Y-107065483D01*
X107526189Y-107065483D01*
G37*
G36*
X142400721Y-109960174D02*
G01*
X142500995Y-110001709D01*
X142500996Y-110001710D01*
X142591242Y-110062010D01*
X142667990Y-110138758D01*
X142669304Y-110140725D01*
X142728291Y-110229005D01*
X142769826Y-110329279D01*
X142791000Y-110435730D01*
X142791000Y-110544270D01*
X142769826Y-110650721D01*
X142728291Y-110750995D01*
X142728290Y-110750996D01*
X142667990Y-110841242D01*
X142591242Y-110917990D01*
X142545812Y-110948345D01*
X142500995Y-110978291D01*
X142400721Y-111019826D01*
X142294270Y-111041000D01*
X142185730Y-111041000D01*
X142079279Y-111019826D01*
X141979005Y-110978291D01*
X141934188Y-110948345D01*
X141888758Y-110917990D01*
X141812010Y-110841242D01*
X141751710Y-110750996D01*
X141751709Y-110750995D01*
X141710174Y-110650721D01*
X141689000Y-110544270D01*
X141689000Y-110435730D01*
X141710174Y-110329279D01*
X141751709Y-110229005D01*
X141810696Y-110140725D01*
X141812010Y-110138758D01*
X141888758Y-110062010D01*
X141979004Y-110001710D01*
X141979005Y-110001709D01*
X142079279Y-109960174D01*
X142185730Y-109939000D01*
X142294270Y-109939000D01*
X142400721Y-109960174D01*
X142400721Y-109960174D01*
G37*
G36*
X122080721Y-109960174D02*
G01*
X122180995Y-110001709D01*
X122180996Y-110001710D01*
X122271242Y-110062010D01*
X122347990Y-110138758D01*
X122349304Y-110140725D01*
X122408291Y-110229005D01*
X122449826Y-110329279D01*
X122471000Y-110435730D01*
X122471000Y-110544270D01*
X122449826Y-110650721D01*
X122408291Y-110750995D01*
X122408290Y-110750996D01*
X122347990Y-110841242D01*
X122271242Y-110917990D01*
X122225812Y-110948345D01*
X122180995Y-110978291D01*
X122080721Y-111019826D01*
X121974270Y-111041000D01*
X121865730Y-111041000D01*
X121759279Y-111019826D01*
X121659005Y-110978291D01*
X121614188Y-110948345D01*
X121568758Y-110917990D01*
X121492010Y-110841242D01*
X121431710Y-110750996D01*
X121431709Y-110750995D01*
X121390174Y-110650721D01*
X121369000Y-110544270D01*
X121369000Y-110435730D01*
X121390174Y-110329279D01*
X121431709Y-110229005D01*
X121490696Y-110140725D01*
X121492010Y-110138758D01*
X121568758Y-110062010D01*
X121659004Y-110001710D01*
X121659005Y-110001709D01*
X121759279Y-109960174D01*
X121865730Y-109939000D01*
X121974270Y-109939000D01*
X122080721Y-109960174D01*
X122080721Y-109960174D01*
G37*
M02*
